<?xml version="1.0" encoding="UTF-8" standalone="no"?>
<svg
   xmlns:dc="http://purl.org/dc/elements/1.1/"
   xmlns:cc="http://creativecommons.org/ns#"
   xmlns:rdf="http://www.w3.org/1999/02/22-rdf-syntax-ns#"
   xmlns:svg="http://www.w3.org/2000/svg"
   xmlns="http://www.w3.org/2000/svg"
   xmlns:sodipodi="http://sodipodi.sourceforge.net/DTD/sodipodi-0.dtd"
   xmlns:inkscape="http://www.inkscape.org/namespaces/inkscape"
   height="511pt"
   viewBox="-35 0 511 511.99975"
   width="511pt"
   version="1.1"
   id="svg8"
   sodipodi:docname="lumberjack.svg"
   inkscape:version="1.0.1 (1.0.1+r74)">
  <metadata
     id="metadata14">
    <rdf:RDF>
      <cc:Work
         rdf:about="">
        <dc:format>image/svg+xml</dc:format>
        <dc:type
           rdf:resource="http://purl.org/dc/dcmitype/StillImage" />
      </cc:Work>
    </rdf:RDF>
  </metadata>
  <defs
     id="defs12" />
  <sodipodi:namedview
     pagecolor="#ffffff"
     bordercolor="#666666"
     borderopacity="1"
     objecttolerance="10"
     gridtolerance="10"
     guidetolerance="10"
     inkscape:pageopacity="0"
     inkscape:pageshadow="2"
     inkscape:window-width="1920"
     inkscape:window-height="1008"
     id="namedview10"
     showgrid="false"
     inkscape:zoom="0.82110893"
     inkscape:cx="261.17984"
     inkscape:cy="319.69337"
     inkscape:window-x="0"
     inkscape:window-y="0"
     inkscape:window-maximized="1"
     inkscape:current-layer="svg8"
     inkscape:document-rotation="0" />
  <path
     d="m 355.78906,434.14453 c -2.83594,-2.83594 -4.39844,-6.60547 -4.39844,-10.61328 V 311.52022 c 0,0 -1.8798,-5.39919 -3.88525,-7.28312 -1.95603,-1.8375 -7.32636,-3.33866 -7.32636,-3.33866 l -122.17378,0.0412 82.91049,-36.55593 c 0,0 8.76309,-6.786 9.8652,-11.49488 1.01764,-4.34794 -5.18595,-15.94544 -5.18595,-15.94544 L 228.05859,158.71875 224.19141,146.07031 435.28607,88.09375 C 459.02435,80.835938 472.43451,55.617188 465.17669,31.875 461.65716,20.375 453.87591,10.933594 443.25873,5.289062 432.64154,-0.359375 420.45794,-1.527344 408.91888,1.996094 L 44.185061,107.3957 c 0,0 -9.637204,2.96422 -11.700492,7.13884 -1.747889,3.53647 -1.464884,12.44295 -1.464884,12.44295 l 15.939444,55.33379 c 0,0 2.628854,8.46628 7.699003,11.162 5.057282,2.68887 13.770052,0.28776 13.770052,0.28776 l 40.970256,-12.52667 3.96875,12.96875 10.35224,105.86182 -26.780791,0.8335 c 0,0 -7.948703,0.61631 -10.787874,3.04541 -2.967242,2.53868 -4.889046,10.64621 -4.889046,10.64621 v 108.94119 c 0,4.00781 -1.558594,7.77734 -4.394531,10.61328 L 12.775193,499.8353 c 0,0 -2.702148,3.87003 -1.523992,7.50302 1.294368,3.99135 5.279926,4.67822 5.279926,4.67822 L 162.51563,512 182.50527,492.01035 c 0,0 2.03494,-2.20097 3.60972,-2.23109 1.63982,-0.0314 4.06357,2.28928 4.06357,2.28928 L 210.11328,512 l 197.85621,0.14668 c 0,0 6.51363,0.28093 9.0156,-4.90902 2.75496,-5.71474 -2.55518,-10.77219 -2.55518,-10.77219 z m -201.52344,-138.30469 -9.90625,-93.91015 63.07032,-19.28125 60.92583,61.3272 z m 23.69532,-198.335934 17.54687,57.406254 -57.40625,17.54687 -17.54687,-57.40234 z M 417.73529,30.6875 c 3.83203,-1.171875 7.89062,-0.78125 11.43359,1.101562 3.53906,1.882813 6.13281,5.027344 7.30469,8.863282 2.41797,7.914062 -2.05078,16.320312 -10.03125,18.757812 L 215.41797,117.36719 206.53516,88.308594 Z M 71.921875,161.30859 63.136719,132.56641 91.816406,123.71484 100.625,152.53125 Z M 222.54297,481.98437 c 0,0 -17.90378,-16.82074 -29.10418,-28.02114 -0.87642,-0.87642 -3.75349,-3.43463 -7.01911,-3.34285 -3.1729,-0.0854 -6.00582,1.74745 -7.01068,2.75231 -11.07196,11.07196 -29.32697,28.61168 -29.32697,28.61168 H 71.984375 l 26.15625,-26.66796 c 8.472655,-8.5 13.136715,-19.78125 13.136715,-31.78516 v -92.61719 h 90.04297 v 60.02735 c 0,10.00521 30.01563,10.00521 30.01563,0 v -60.02735 h 90.04297 v 92.61719 c 0,12.00391 4.66406,23.28516 13.13281,31.78516 l 26.16015,26.66796 z"
     id="path2"
     sodipodi:nodetypes="cscscccsccccccccsccscccccscsccscccscccscccccccccccccccccccccccccccscccsccssccsccc" />
  <path
     d="m 136.45267,331.54187 c 0,-10.00521 30.01562,-10.00521 30.01562,0 v 28.62491 c 0,10.0052 -30.01562,10.0052 -30.01562,0 z"
     id="path4"
     sodipodi:nodetypes="sssss" />
  <path
     d="m 261.35156,360.92969 c 0,-10.00391 30.01172,-10.00391 30.01172,0 l 0,67.95534 c 0,10.00391 -30.01172,10.00391 -30.01172,0 z"
     id="path6"
     sodipodi:nodetypes="sssss" />
</svg>
