<?xml version="1.0" encoding="UTF-8" standalone="no"?>
<!-- Created with Inkscape (http://www.inkscape.org/) -->

<svg
   width="1024"
   height="260"
   viewBox="0 0 270.93335 68.791666"
   version="1.1"
   id="svg5"
   xml:space="preserve"
   xmlns:xlink="http://www.w3.org/1999/xlink"
   xmlns="http://www.w3.org/2000/svg"
   xmlns:svg="http://www.w3.org/2000/svg"><defs
     id="defs2"><linearGradient
       id="linearGradient280"><stop
         style="stop-color:#a8d8f0;stop-opacity:1;"
         offset="0"
         id="stop279" /><stop
         style="stop-color:#ffffff;stop-opacity:1;"
         offset="0.50965863"
         id="stop280" /></linearGradient><linearGradient
       id="linearGradient278"><stop
         style="stop-color:#d1ecfa;stop-opacity:1;"
         offset="0"
         id="stop277" /><stop
         style="stop-color:#ffffff;stop-opacity:1;"
         offset="0.3454785"
         id="stop278" /></linearGradient><linearGradient
       id="linearGradient205"><stop
         style="stop-color:#006633;stop-opacity:1;"
         offset="0.0001"
         id="stop204" /><stop
         style="stop-color:#3cdd56;stop-opacity:1;"
         offset="0.99989998"
         id="stop205" /></linearGradient><style
       id="style6568">.cls-1{fill:none;}.cls-2{clip-path:url(#clip-path);}</style><style
       id="style6568-5">.cls-1{fill:none;}.cls-2{clip-path:url(#clip-path);}</style><style
       id="style6568-9">.cls-1{fill:none;}.cls-2{clip-path:url(#clip-path);}</style><style
       id="style22571">.cls-1{fill:#84d0f7;}.cls-2{fill:#aa392d;}.cls-3{fill:#7c211a;}.cls-4{fill:#e59973;}.cls-5{fill:#2d2d2d;}.cls-6{opacity:0.2;}.cls-7{opacity:0.3;}</style><style
       id="style23309">&#10;      .cls-1 {&#10;        fill: none;&#10;      }&#10;    </style><style
       id="style6568-7">.cls-1{fill:none;}.cls-2{clip-path:url(#clip-path);}</style><style
       id="style6568-5-5">.cls-1{fill:none;}.cls-2{clip-path:url(#clip-path);}</style><style
       id="style6568-9-3">.cls-1{fill:none;}.cls-2{clip-path:url(#clip-path);}</style><style
       id="style22571-5">.cls-1{fill:#84d0f7;}.cls-2{fill:#aa392d;}.cls-3{fill:#7c211a;}.cls-4{fill:#e59973;}.cls-5{fill:#2d2d2d;}.cls-6{opacity:0.2;}.cls-7{opacity:0.3;}</style><style
       id="style23309-6">&#10;      .cls-1 {&#10;        fill: none;&#10;      }&#10;    </style><style
       id="style1-9">&#10;      .cls-1 {&#10;        fill: none;&#10;      }&#10;    </style><linearGradient
       xlink:href="#linearGradient205"
       id="linearGradient267"
       gradientUnits="userSpaceOnUse"
       gradientTransform="matrix(0.6451905,0,0,0.6451905,91.991728,229.58897)"
       x1="211.29193"
       y1="762.6239"
       x2="301.67172"
       y2="672.24414" /><linearGradient
       xlink:href="#linearGradient280"
       id="linearGradient273"
       x1="298.77182"
       y1="590.50909"
       x2="489.65607"
       y2="590.50909"
       gradientUnits="userSpaceOnUse" /><linearGradient
       xlink:href="#linearGradient278"
       id="linearGradient275"
       gradientUnits="userSpaceOnUse"
       x1="385.46902"
       y1="601.85779"
       x2="385.71335"
       y2="564.2157" /></defs><g
     id="layer1"
     transform="translate(-222.63068,-657.83454)"><rect
       style="fill:url(#linearGradient267);fill-opacity:1;stroke-width:4.14699"
       id="rect261"
       width="66.145836"
       height="66.145836"
       x="223.50716"
       y="658.5036"
       rx="13.229166"
       ry="13.229166" /><g
       id="g262"
       transform="matrix(0.60857323,0,0,0.60857323,2109.9445,-112.56475)"><g
         id="g261"
         style="fill:#ffffff;fill-opacity:0.6"
         transform="matrix(-0.16246368,0,0,0.16246368,-3003.2119,1279.8715)">&#10;	<path
   d="m 269.36074,12.589841 c -27.89076,0 -65.68192,6.126798 -89.32181,17.165929 -62.53795,29.203372 -94.462167,83.5311 -94.462167,137.30069 0,23.20963 2.772193,17.2112 2.772193,43.55191 l -37.187687,67.57307 c -9.394784,17.90881 -0.421233,30.93276 19.670329,32.58816 l 23.626108,1.94662 c 2.983305,24.8589 2.637648,48.16678 4.377302,73.16267 1.460832,20.98963 17.223762,38.36203 38.362032,38.36203 l 53.8078,-3.31711 c 0,12.19485 0.63752,26.02848 0.63752,48.40796 0,8.09296 6.42036,13.02489 14.66065,12.90723 l 177.94454,-2.12438 c 7.14395,-1.27221 13.01569,-8.22044 13.01569,-15.46225 v -8.3183 -6.65464 l 1.60747,-75.9953 C 445.29154,293.28088 451.874,310.95484 451.874,195.00523 451.77614,94.207028 370.06109,12.589841 269.36074,12.589841 Z"
   id="path261"
   style="fill:#ffffff;fill-opacity:0.6;stroke-width:0.978623" />&#10;</g><path
         d="m -3047.2357,1289.1003 c -12.1238,0 -21.9871,9.8631 -21.9871,21.9867 0,7.0191 5.7102,12.7293 12.7295,12.7293 5.8159,0 10.5428,-3.5271 12.2479,-9.8906 0,0 8.1319,0.031 15.0517,0.031 3.2994,0 4.6512,-2.8697 4.6512,-2.8697 3.0364,-11.3313 -6.8279,-21.9867 -22.6932,-21.9867 z"
         id="path262"
         style="fill:#ffffff;fill-opacity:1;stroke-width:0.185335" /></g><g
       id="g267"
       style="font-weight:bold;font-size:85.2062px;font-family:'Courier Prime';-inkscape-font-specification:'Courier Prime Bold';letter-spacing:-6.25678px;fill:url(#linearGradient273);stroke-width:0"
       transform="matrix(0.99039436,0,0,1.0096988,3.1453977,99.66564)"
       aria-label="Mindgarden"><path
         id="path267"
         style="font-weight:normal;font-size:86.6173px;font-family:'JetBrains Mono';-inkscape-font-specification:'JetBrains Mono';letter-spacing:-10.5833px;fill:url(#linearGradient275);stroke-width:0"
         d="m 448.87689,573.66238 c 0.004,3.13459 -0.0213,6.26939 0.052,9.40341 -0.81995,-1.76636 -2.69569,-2.8663 -4.5966,-3.04283 -1.99112,-0.22518 -4.1506,0.1978 -5.67197,1.5714 -1.5729,1.35999 -2.34297,3.43333 -2.47795,5.4692 -0.0861,1.59838 -0.0192,3.20154 -0.0404,4.80182 0.024,1.89091 -0.14684,3.83616 0.46131,5.66172 0.60125,1.98904 2.11657,3.71608 4.09631,4.40877 1.58929,0.54664 3.35775,0.57726 4.96955,0.10608 1.38867,-0.40817 2.62789,-1.39237 3.20764,-2.73556 0,0.89243 0,1.78485 0,2.67726 1.31087,0 2.62176,0 3.93262,0 0,-9.51878 0,-19.03759 0,-28.55636 -1.31086,0 -2.62175,0 -3.93262,0 0,0.0782 0,0.15671 0,0.23509 z m -60.98032,6.31405 c -1.79502,0.0507 -3.6138,0.73311 -4.82988,2.08788 -1.49125,1.57989 -2.04399,3.81393 -2.03609,5.93763 0.0149,1.78998 -0.0346,3.58154 0.027,5.37054 0.11238,2.01147 0.83168,4.07468 2.36746,5.44146 1.43699,1.33685 3.47542,1.8051 5.39268,1.69446 1.67816,-0.0754 3.46819,-0.67441 4.48393,-2.08825 0.16997,-0.23199 0.31501,-0.48271 0.43355,-0.74475 -0.0513,1.47106 -0.0404,2.94318 -0.0595,4.41442 -0.0352,0.88728 -0.43735,1.8542 -1.17992,2.42418 -0.84897,0.72269 -2.01854,0.81038 -3.08509,0.76984 -1.85747,0 -3.71496,0 -5.57245,0 0,1.20849 0,2.417 0,3.6255 2.25713,-0.0112 4.51512,0.0227 6.7717,-0.0171 1.86971,-0.0726 3.7802,-0.71664 5.09756,-2.08988 1.34079,-1.28871 1.92721,-3.18407 1.91192,-5.01082 0.002,-7.14615 2.6e-4,-14.29234 9e-4,-21.43851 -1.29815,0 -2.59631,0 -3.89445,0 0,0.85048 0,1.70097 0,2.55146 -0.74428,-1.66223 -2.5061,-2.65056 -4.26258,-2.86101 -0.51877,-0.0714 -1.04342,-0.0866 -1.56652,-0.0669 z m 19.50607,-0.002 c -2.10414,0.0484 -4.28759,0.63231 -5.86625,2.08707 -1.15661,1.00944 -1.86671,2.48893 -1.94292,4.02123 -0.0161,0.26506 0.4852,0.0623 0.69176,0.12594 1.07808,0 2.15615,0 3.23425,0 -0.009,-0.7656 0.35598,-1.52651 1.01053,-1.94055 1.22033,-0.81527 2.76699,-0.89954 4.18764,-0.78417 1.15534,0.10195 2.38875,0.6065 2.93714,1.69431 0.58651,1.09218 0.43495,2.36936 0.45518,3.56107 -2.27456,0.0102 -4.55022,-0.0198 -6.82417,0.0148 -2.27392,0.0964 -4.57999,1.22726 -5.76487,3.22036 -1.01878,1.70167 -1.13409,3.83385 -0.62179,5.71878 0.55574,1.99119 2.17142,3.61896 4.13748,4.23851 1.67206,0.53837 3.48971,0.55198 5.20222,0.2064 1.59733,-0.32647 3.13964,-1.27612 3.86073,-2.78083 0.1049,-0.20752 0.0224,0.44905 0.0486,0.60399 0,0.67404 0,1.34807 0,2.0221 1.29815,0 2.5963,0 3.89446,0 -0.006,-5.06705 0.0116,-10.13448 -0.009,-15.20126 -0.0509,-1.79952 -0.71541,-3.63781 -2.08652,-4.85063 -1.56226,-1.45873 -3.7705,-1.93547 -5.84896,-1.96032 -0.23197,-0.007 -0.46383,-1.1e-4 -0.69579,0.003 z m 20.44043,-0.003 c -1.60601,0.0299 -3.28741,0.56103 -4.35892,1.81328 -0.349,0.39174 -0.62724,0.84498 -0.8308,1.32813 0,-0.92018 0,-1.84037 0,-2.76054 -1.31116,0 -2.62231,0 -3.93347,0 0,7.21022 0,14.42047 0,21.63069 1.31116,0 2.62231,0 3.93347,0 0.006,-4.69638 -0.0116,-9.39313 0.009,-14.0893 0.0398,-1.38423 0.48869,-2.89124 1.67988,-3.71399 0.89071,-0.62653 2.0029,-0.7767 3.04932,-0.73481 1.23323,0.0283 2.58209,0.45292 3.26646,1.55085 0.78114,1.20548 0.68369,2.69939 0.68166,4.07164 0,0.2653 0,0.5306 0,0.79589 1.31117,0 2.62233,0 3.93349,0 -0.007,-1.86089 0.11579,-3.78286 -0.5384,-5.56241 -0.63786,-1.88647 -2.18763,-3.47527 -4.12729,-4.0052 -0.89371,-0.26691 -1.83471,-0.34592 -2.76403,-0.32423 z m 34.64747,0.005 c -2.07408,0.0611 -4.17382,0.78747 -5.6684,2.2624 -1.56533,1.46279 -2.30327,3.6147 -2.39064,5.71799 -0.0474,1.9489 -0.011,3.90006 -0.019,5.84979 0.002,2.17998 0.61871,4.45158 2.14895,6.06404 1.49783,1.61009 3.69863,2.41839 5.86838,2.48483 2.39013,0.10244 4.93017,-0.41073 6.79118,-1.99762 1.21682,-1.01766 1.97788,-2.52024 2.14404,-4.09207 0.0786,-0.28781 -0.4313,-0.0705 -0.60811,-0.13897 -1.0973,0 -2.19458,0 -3.29185,0 -0.15076,1.03154 -0.92503,1.8688 -1.86085,2.27297 -1.13858,0.50452 -2.45796,0.58205 -3.65105,0.41939 -1.44552,-0.20147 -2.76547,-1.18228 -3.2926,-2.55588 -0.53379,-1.25692 -0.36714,-2.64762 -0.39417,-3.97542 4.41151,0 8.82303,0 13.23452,0 -0.0177,-1.60132 0.0364,-3.2048 -0.029,-4.80476 -0.11884,-2.1286 -1.06075,-4.23828 -2.72721,-5.5998 -1.59109,-1.33193 -3.68835,-1.93057 -5.74162,-1.91495 -0.17084,-8.9e-4 -0.34174,0.006 -0.51257,0.008 z m 19.66223,-0.005 c -1.6344,0.0306 -3.3572,0.57518 -4.42365,1.87566 -0.28428,0.34302 -0.5187,0.72743 -0.69492,1.13649 0,-0.87711 0,-1.75421 0,-2.63128 -1.31085,0 -2.62174,0 -3.93261,0 0,7.21022 0,14.42047 0,21.63069 1.31087,0 2.62176,0 3.93261,0 0.006,-4.69637 -0.0127,-9.39317 0.0102,-14.0893 0.0422,-1.02714 0.27019,-2.06261 0.88496,-2.92341 0.82537,-1.17181 2.31724,-1.67511 3.70772,-1.60535 1.18722,0.006 2.38843,0.50317 3.12028,1.46012 0.90364,1.10617 1.00206,2.60425 0.96436,3.97287 0,4.39503 0,8.79006 0,13.18507 1.31088,0 2.62175,0 3.93261,0 -0.006,-4.98148 0.0125,-9.9633 -0.009,-14.94457 -0.0557,-1.91864 -0.70735,-3.8921 -2.13477,-5.22868 -1.4072,-1.38382 -3.42615,-1.91016 -5.35679,-1.83831 z m -19.19722,3.31319 c 1.15883,-0.0116 2.43203,0.29487 3.29496,1.15558 1.08969,1.00495 1.42607,2.55029 1.39502,3.97913 -0.0653,0.21394 0.14497,0.70364 -0.13324,0.70479 -3.08195,0 -6.1639,0 -9.24587,0 -0.0335,-1.38306 0.0171,-2.87433 0.82799,-4.05661 0.72415,-1.09994 2.02692,-1.68827 3.31458,-1.76207 0.14321,-0.0121 0.37357,-0.0199 0.54656,-0.0209 z m -73.61105,0.15356 c 1.29716,-0.0291 2.65761,0.46754 3.43809,1.54295 0.86558,1.12275 0.98607,2.60257 0.94307,3.97035 -0.022,1.39988 0.0471,2.80299 -0.0408,4.20069 -0.11789,1.38529 -0.79907,2.79781 -2.05818,3.47987 -1.18484,0.64006 -2.63112,0.66049 -3.90875,0.31189 -1.25851,-0.34412 -2.24606,-1.41143 -2.55835,-2.66899 -0.32617,-1.20733 -0.15287,-2.47057 -0.19709,-3.70426 0.0252,-1.17178 -0.0564,-2.34884 0.0525,-3.51696 0.13954,-1.33672 0.91616,-2.65478 2.18328,-3.19725 0.66846,-0.31018 1.41475,-0.41498 2.1461,-0.41829 z m 55.14952,0 c 1.29773,-0.0294 2.65864,0.46712 3.43971,1.54303 0.86476,1.12316 0.9856,2.60326 0.94316,3.97114 -0.0123,1.88968 0.0247,3.78043 -0.0191,5.66945 -0.0712,1.40345 -0.66704,2.87082 -1.9006,3.63482 -1.22145,0.75769 -2.76882,0.77047 -4.12716,0.42968 -1.1031,-0.28918 -2.0867,-1.09974 -2.42976,-2.20849 -0.49081,-1.43402 -0.27779,-2.97174 -0.32558,-4.45693 0.0189,-1.57583 -0.04,-3.154 0.0333,-4.72828 0.083,-1.14179 0.46716,-2.36981 1.4605,-3.0411 0.83862,-0.61583 1.90477,-0.81315 2.92552,-0.81332 z m -38.30163,8.46471 c 1.97253,0 3.94506,0 5.91758,0 -0.0236,1.13346 0.0505,2.27165 -0.0436,3.40199 -0.1344,1.30826 -1.02133,2.4577 -2.19196,3.02537 -1.31667,0.65051 -2.85372,0.76012 -4.2895,0.53939 -1.12496,-0.17948 -2.24458,-0.83303 -2.67989,-1.93008 -0.34554,-0.83106 -0.36972,-1.7702 -0.15069,-2.65609 0.33978,-1.35899 1.67412,-2.30137 3.04424,-2.36496 0.0956,-0.0102 0.27037,-0.0154 0.39386,-0.0157 z M 371.9144,573.96385 c 0.0138,2.66409 -0.0455,5.32934 0.0732,7.99176 0.0134,0.42482 0.0268,0.84963 0.0404,1.27446 -0.92815,-1.74009 -2.78869,-2.9263 -4.75677,-3.0423 -1.79815,-0.16668 -3.69235,0.34722 -5.02902,1.59424 -1.59062,1.40714 -2.38198,3.51869 -2.5307,5.60036 -0.0992,1.55565 -0.0253,3.11701 -0.0482,4.67498 -0.005,1.71225 -0.0698,3.46475 0.46122,5.11674 0.57847,1.98009 1.9867,3.77617 3.94053,4.53553 1.54313,0.59383 3.30723,0.62644 4.8705,0.0866 1.38493,-0.47708 2.5085,-1.55729 3.16826,-2.85075 0,0.95067 0,1.90133 0,2.85198 1.98146,0 3.96295,0 5.94442,0 0,-9.35487 0,-18.70977 0,-28.06464 -2.04457,0 -4.08914,0 -6.1337,0 0,0.0769 0,0.15402 0,0.23105 z m -3.09755,11.57425 c 0.83664,-0.0149 1.79002,0.23404 2.34967,0.93769 0.57534,0.65088 0.73749,1.51821 0.74667,2.35133 -0.009,1.68812 0.0233,3.37752 -0.0161,5.06492 -0.0536,0.91576 -0.41509,1.93105 -1.2451,2.45284 -0.84729,0.51859 -1.92798,0.53645 -2.84979,0.33689 -0.8297,-0.18466 -1.53858,-0.80697 -1.78913,-1.62462 -0.35289,-1.05281 -0.17021,-2.1807 -0.21623,-3.26888 0.0203,-1.23204 -0.0422,-2.46737 0.0342,-3.69731 0.0737,-0.92957 0.56501,-1.88368 1.46021,-2.25618 0.5123,-0.22977 0.98451,-0.29014 1.52561,-0.29668 z m -17.65168,-4.94176 c -1.74131,0.0288 -3.50968,0.80241 -4.53446,2.24367 -0.17233,0.23343 -0.32272,0.48317 -0.45162,0.74304 0,-0.87365 0,-1.74728 0,-2.62094 -1.94454,0 -3.88906,0 -5.8336,0 0,6.94511 0,13.89022 0,20.83533 2.00621,0 4.01241,0 6.01862,0 0.007,-4.38248 -0.0131,-8.76547 0.01,-13.14766 0.025,-0.98015 0.48103,-2.01264 1.40128,-2.45517 0.73527,-0.36287 1.5452,-0.38813 2.31486,-0.2447 1.13373,0.21023 1.97451,1.26162 2.06889,2.38945 0.0895,1.09656 0.0171,2.20069 0.0404,3.30021 0,3.38596 0,6.77192 0,10.15787 2.00592,0 4.01184,0 6.01776,0 -0.006,-4.62059 0.0122,-9.2415 -0.009,-13.86191 -0.0562,-1.96625 -0.67874,-3.98289 -2.07005,-5.41972 -1.16102,-1.27547 -2.89096,-1.92973 -4.59868,-1.92156 -0.12473,-0.005 -0.24944,8.8e-4 -0.37418,0.002 z m -21.18227,-8.01287 c -1.15535,0.054 -2.38807,0.62406 -2.86436,1.73605 -0.49146,1.16286 -0.31588,2.68764 0.67577,3.54073 1.02609,0.87154 1.96877,0.98052 3.23512,0.68635 1.16374,-0.27863 2.16775,-1.28112 2.26103,-2.50383 0.13528,-1.01562 -0.22075,-2.12197 -1.06872,-2.73945 -0.77216,-0.62401 -1.27448,-0.77679 -2.23884,-0.71985 z m -8.203,9.03345 v 5.12762 h 5.87622 v 9.69424 h -6.60179 v 5.35866 h 18.23572 v -5.35866 h -5.73129 V 581.38587 H 321.7799 Z m -23.00809,-9.27986 c 0,9.82013 0,19.64027 0,29.46038 1.9826,0 3.96522,0 5.94783,0 -0.01,-4.37055 0.0203,-8.74137 -0.0163,-13.11174 -0.035,-2.92384 -0.28456,-5.83888 -0.60915,-8.7434 -0.0389,-0.36533 -0.0831,-0.73085 -0.12394,-1.09639 0.90055,3.51309 1.80177,7.02599 2.70192,10.53918 1.72086,0 3.44173,0 5.16259,0 0.95272,-3.72826 1.90592,-7.45638 2.85882,-11.1846 -0.36059,3.129 -0.64332,6.26932 -0.70947,9.41985 -0.0732,3.48664 -0.0207,6.97457 -0.0366,10.46175 0,1.23846 0,2.47691 0,3.71535 1.98235,0 3.96465,0 5.947,0 0,-9.89714 0,-19.79429 0,-29.69143 -2.60674,0 -5.21347,0 -7.82018,0 -0.92813,3.90671 -1.85398,7.81396 -2.78123,11.72089 -0.92697,-3.90693 -1.85251,-7.81419 -2.78038,-11.72089 -2.5803,0 -5.16059,0 -7.74089,0 0,0.0769 0,0.15404 0,0.23105 z" /></g></g><style
     type="text/css"
     id="style1941">&#10;	.st0{fill:none;stroke:#000000;stroke-width:2;stroke-linecap:round;stroke-linejoin:round;stroke-miterlimit:10;}&#10;</style><style
     type="text/css"
     id="style1941-0">&#10;	.st0{fill:none;stroke:#000000;stroke-width:2;stroke-linecap:round;stroke-linejoin:round;stroke-miterlimit:10;}&#10;</style><style
     type="text/css"
     id="style1941-7">&#10;	.st0{fill:none;stroke:#000000;stroke-width:2;stroke-linecap:round;stroke-linejoin:round;stroke-miterlimit:10;}&#10;</style><style
     type="text/css"
     id="style22485">&#10;	.st0{fill:none;stroke:#6C3DB7;stroke-width:4;stroke-linecap:round;stroke-linejoin:round;stroke-miterlimit:10;}&#10;	.st1{fill:none;stroke:#1F992A;stroke-width:4;stroke-linecap:round;stroke-linejoin:round;stroke-miterlimit:10;}&#10;	.st2{fill:none;stroke:#6A83BA;stroke-width:4;stroke-linecap:round;stroke-linejoin:round;stroke-miterlimit:10;}&#10;	.st3{fill:#8A8AFF;stroke:#8A8AFF;stroke-width:2;stroke-linecap:round;stroke-linejoin:round;stroke-miterlimit:10;}&#10;	.st4{fill:#6C3DB7;stroke:#6C3DB7;stroke-width:2;stroke-linecap:round;stroke-linejoin:round;stroke-miterlimit:10;}&#10;	.st5{fill:#A576FF;stroke:#A576FF;stroke-width:2;stroke-linecap:round;stroke-linejoin:round;stroke-miterlimit:10;}&#10;	.st6{fill:#F2BB41;stroke:#F2BB41;stroke-width:2;stroke-linecap:round;stroke-linejoin:round;stroke-miterlimit:10;}&#10;	.st7{fill:#E08838;stroke:#E08838;stroke-width:2;stroke-linecap:round;stroke-linejoin:round;stroke-miterlimit:10;}&#10;	.st8{fill:#1F992A;stroke:#1F992A;stroke-width:2;stroke-linecap:round;stroke-linejoin:round;stroke-miterlimit:10;}&#10;	.st9{fill:#5EC11E;stroke:#5EC11E;stroke-width:2;stroke-linecap:round;stroke-linejoin:round;stroke-miterlimit:10;}&#10;	.st10{fill:#E3FAFF;stroke:#E3FAFF;stroke-width:2;stroke-linecap:round;stroke-linejoin:round;stroke-miterlimit:10;}&#10;	.st11{fill:#FF5093;stroke:#FF5093;stroke-width:2;stroke-linecap:round;stroke-linejoin:round;stroke-miterlimit:10;}&#10;	.st12{fill:#B7257F;stroke:#B7257F;stroke-width:2;stroke-linecap:round;stroke-linejoin:round;stroke-miterlimit:10;}&#10;	.st13{fill:#5189E5;stroke:#5189E5;stroke-width:2;stroke-linecap:round;stroke-linejoin:round;stroke-miterlimit:10;}&#10;	.st14{fill:#6EBAFF;stroke:#6EBAFF;stroke-width:2;stroke-linecap:round;stroke-linejoin:round;stroke-miterlimit:10;}&#10;	.st15{fill:#EDD977;stroke:#EDD977;stroke-width:2;stroke-linecap:round;stroke-linejoin:round;stroke-miterlimit:10;}&#10;	.st16{fill:#8C43FF;stroke:#8C43FF;stroke-width:2;stroke-linecap:round;stroke-linejoin:round;stroke-miterlimit:10;}&#10;	.st17{fill:#5252BA;stroke:#5252BA;stroke-width:2;stroke-linecap:round;stroke-linejoin:round;stroke-miterlimit:10;}&#10;	.st18{fill:none;stroke:#E3FAFF;stroke-width:4;stroke-linecap:round;stroke-linejoin:round;stroke-miterlimit:10;}&#10;	.st19{fill:#354C75;stroke:#354C75;stroke-width:2;stroke-linecap:round;stroke-linejoin:round;stroke-miterlimit:10;}&#10;</style><style
     type="text/css"
     id="style23106">&#10;	.st0{fill:none;stroke:#000000;stroke-width:2;stroke-linecap:round;stroke-linejoin:round;stroke-miterlimit:10;}&#10;	.st1{fill:none;stroke:#000000;stroke-width:2;stroke-linejoin:round;stroke-miterlimit:10;}&#10;</style><style
     type="text/css"
     id="style1941-1">&#10;	.st0{fill:none;stroke:#000000;stroke-width:2;stroke-linecap:round;stroke-linejoin:round;stroke-miterlimit:10;}&#10;</style><style
     type="text/css"
     id="style1941-0-8">&#10;	.st0{fill:none;stroke:#000000;stroke-width:2;stroke-linecap:round;stroke-linejoin:round;stroke-miterlimit:10;}&#10;</style><style
     type="text/css"
     id="style1941-7-7">&#10;	.st0{fill:none;stroke:#000000;stroke-width:2;stroke-linecap:round;stroke-linejoin:round;stroke-miterlimit:10;}&#10;</style><style
     type="text/css"
     id="style22485-9">&#10;	.st0{fill:none;stroke:#6C3DB7;stroke-width:4;stroke-linecap:round;stroke-linejoin:round;stroke-miterlimit:10;}&#10;	.st1{fill:none;stroke:#1F992A;stroke-width:4;stroke-linecap:round;stroke-linejoin:round;stroke-miterlimit:10;}&#10;	.st2{fill:none;stroke:#6A83BA;stroke-width:4;stroke-linecap:round;stroke-linejoin:round;stroke-miterlimit:10;}&#10;	.st3{fill:#8A8AFF;stroke:#8A8AFF;stroke-width:2;stroke-linecap:round;stroke-linejoin:round;stroke-miterlimit:10;}&#10;	.st4{fill:#6C3DB7;stroke:#6C3DB7;stroke-width:2;stroke-linecap:round;stroke-linejoin:round;stroke-miterlimit:10;}&#10;	.st5{fill:#A576FF;stroke:#A576FF;stroke-width:2;stroke-linecap:round;stroke-linejoin:round;stroke-miterlimit:10;}&#10;	.st6{fill:#F2BB41;stroke:#F2BB41;stroke-width:2;stroke-linecap:round;stroke-linejoin:round;stroke-miterlimit:10;}&#10;	.st7{fill:#E08838;stroke:#E08838;stroke-width:2;stroke-linecap:round;stroke-linejoin:round;stroke-miterlimit:10;}&#10;	.st8{fill:#1F992A;stroke:#1F992A;stroke-width:2;stroke-linecap:round;stroke-linejoin:round;stroke-miterlimit:10;}&#10;	.st9{fill:#5EC11E;stroke:#5EC11E;stroke-width:2;stroke-linecap:round;stroke-linejoin:round;stroke-miterlimit:10;}&#10;	.st10{fill:#E3FAFF;stroke:#E3FAFF;stroke-width:2;stroke-linecap:round;stroke-linejoin:round;stroke-miterlimit:10;}&#10;	.st11{fill:#FF5093;stroke:#FF5093;stroke-width:2;stroke-linecap:round;stroke-linejoin:round;stroke-miterlimit:10;}&#10;	.st12{fill:#B7257F;stroke:#B7257F;stroke-width:2;stroke-linecap:round;stroke-linejoin:round;stroke-miterlimit:10;}&#10;	.st13{fill:#5189E5;stroke:#5189E5;stroke-width:2;stroke-linecap:round;stroke-linejoin:round;stroke-miterlimit:10;}&#10;	.st14{fill:#6EBAFF;stroke:#6EBAFF;stroke-width:2;stroke-linecap:round;stroke-linejoin:round;stroke-miterlimit:10;}&#10;	.st15{fill:#EDD977;stroke:#EDD977;stroke-width:2;stroke-linecap:round;stroke-linejoin:round;stroke-miterlimit:10;}&#10;	.st16{fill:#8C43FF;stroke:#8C43FF;stroke-width:2;stroke-linecap:round;stroke-linejoin:round;stroke-miterlimit:10;}&#10;	.st17{fill:#5252BA;stroke:#5252BA;stroke-width:2;stroke-linecap:round;stroke-linejoin:round;stroke-miterlimit:10;}&#10;	.st18{fill:none;stroke:#E3FAFF;stroke-width:4;stroke-linecap:round;stroke-linejoin:round;stroke-miterlimit:10;}&#10;	.st19{fill:#354C75;stroke:#354C75;stroke-width:2;stroke-linecap:round;stroke-linejoin:round;stroke-miterlimit:10;}&#10;</style><style
     type="text/css"
     id="style23106-2">&#10;	.st0{fill:none;stroke:#000000;stroke-width:2;stroke-linecap:round;stroke-linejoin:round;stroke-miterlimit:10;}&#10;	.st1{fill:none;stroke:#000000;stroke-width:2;stroke-linejoin:round;stroke-miterlimit:10;}&#10;</style><style
     type="text/css"
     id="style4736">&#10;<![CDATA[
	.st0{fill:#D1D1D1;}
	.st1{fill:#454545;}
]]>&#10;</style><style
     type="text/css"
     id="style1">&#10;	.st0{fill:none;stroke:#000000;stroke-width:2;stroke-linecap:round;stroke-linejoin:round;stroke-miterlimit:10;}&#10;</style><style
     type="text/css"
     id="style1-4">&#10;	.linesandangles_een{fill:#111918;}&#10;</style><style
     type="text/css"
     id="style1-2">&#10;	.st0{fill:#000000;}&#10;</style><style
     type="text/css"
     id="style1-5">&#10;	.st0{fill:#000000;}&#10;</style><style
     type="text/css"
     id="style1-1">&#10;	.st0{fill:#000000;}&#10;</style></svg>
