<?xml version="1.0" encoding="UTF-8" standalone="no"?>
<!-- Created with Inkscape (http://www.inkscape.org/) -->

<svg
   width="1024"
   height="260"
   viewBox="0 0 270.93335 68.791666"
   version="1.1"
   id="svg5"
   xml:space="preserve"
   xmlns:xlink="http://www.w3.org/1999/xlink"
   xmlns="http://www.w3.org/2000/svg"
   xmlns:svg="http://www.w3.org/2000/svg"><defs
     id="defs2"><linearGradient
       id="linearGradient205"><stop
         style="stop-color:#006633;stop-opacity:1;"
         offset="0.0001"
         id="stop204" /><stop
         style="stop-color:#3cdd56;stop-opacity:1;"
         offset="0.99989998"
         id="stop205" /></linearGradient><style
       id="style6568">.cls-1{fill:none;}.cls-2{clip-path:url(#clip-path);}</style><style
       id="style6568-5">.cls-1{fill:none;}.cls-2{clip-path:url(#clip-path);}</style><style
       id="style6568-9">.cls-1{fill:none;}.cls-2{clip-path:url(#clip-path);}</style><style
       id="style22571">.cls-1{fill:#84d0f7;}.cls-2{fill:#aa392d;}.cls-3{fill:#7c211a;}.cls-4{fill:#e59973;}.cls-5{fill:#2d2d2d;}.cls-6{opacity:0.2;}.cls-7{opacity:0.3;}</style><style
       id="style23309">&#10;      .cls-1 {&#10;        fill: none;&#10;      }&#10;    </style><style
       id="style6568-7">.cls-1{fill:none;}.cls-2{clip-path:url(#clip-path);}</style><style
       id="style6568-5-5">.cls-1{fill:none;}.cls-2{clip-path:url(#clip-path);}</style><style
       id="style6568-9-3">.cls-1{fill:none;}.cls-2{clip-path:url(#clip-path);}</style><style
       id="style22571-5">.cls-1{fill:#84d0f7;}.cls-2{fill:#aa392d;}.cls-3{fill:#7c211a;}.cls-4{fill:#e59973;}.cls-5{fill:#2d2d2d;}.cls-6{opacity:0.2;}.cls-7{opacity:0.3;}</style><style
       id="style23309-6">&#10;      .cls-1 {&#10;        fill: none;&#10;      }&#10;    </style><style
       id="style1-9">&#10;      .cls-1 {&#10;        fill: none;&#10;      }&#10;    </style><linearGradient
       xlink:href="#linearGradient205"
       id="linearGradient220"
       gradientUnits="userSpaceOnUse"
       gradientTransform="matrix(0.6451905,0,0,0.6451905,88.84633,129.92333)"
       x1="211.29193"
       y1="762.6239"
       x2="301.67172"
       y2="672.24414" /></defs><g
     id="layer1"
     transform="translate(-219.94423,-557.90675)"><rect
       style="fill:url(#linearGradient220);fill-opacity:1;stroke-width:4.14699"
       id="rect219"
       width="66.145836"
       height="66.145836"
       x="220.36176"
       y="558.83795"
       rx="13.229166"
       ry="13.229166" /><g
       id="g220"
       transform="matrix(0.60857323,0,0,0.60857323,2106.7992,-212.23039)"><g
         id="g219"
         style="fill:#ffffff;fill-opacity:0.6"
         transform="matrix(-0.16246368,0,0,0.16246368,-3003.2119,1279.8715)">&#10;	<path
   d="m 269.36074,12.589841 c -27.89076,0 -65.68192,6.126798 -89.32181,17.165929 -62.53795,29.203372 -94.462167,83.5311 -94.462167,137.30069 0,23.20963 2.772193,17.2112 2.772193,43.55191 l -37.187687,67.57307 c -9.394784,17.90881 -0.421233,30.93276 19.670329,32.58816 l 23.626108,1.94662 c 2.983305,24.8589 2.637648,48.16678 4.377302,73.16267 1.460832,20.98963 17.223762,38.36203 38.362032,38.36203 l 53.8078,-3.31711 c 0,12.19485 0.63752,26.02848 0.63752,48.40796 0,8.09296 6.42036,13.02489 14.66065,12.90723 l 177.94454,-2.12438 c 7.14395,-1.27221 13.01569,-8.22044 13.01569,-15.46225 v -8.3183 -6.65464 l 1.60747,-75.9953 C 445.29154,293.28088 451.874,310.95484 451.874,195.00523 451.77614,94.207028 370.06109,12.589841 269.36074,12.589841 Z"
   id="path219"
   style="fill:#ffffff;fill-opacity:0.6;stroke-width:0.978623" />&#10;</g><path
         d="m -3047.2357,1289.1003 c -12.1238,0 -21.9871,9.8631 -21.9871,21.9867 0,7.0191 5.7102,12.7293 12.7295,12.7293 5.8159,0 10.5428,-3.5271 12.2479,-9.8906 0,0 8.1319,0.031 15.0517,0.031 3.2994,0 4.6512,-2.8697 4.6512,-2.8697 3.0364,-11.3313 -6.8279,-21.9867 -22.6932,-21.9867 z"
         id="path220"
         style="fill:#ffffff;fill-opacity:1;stroke-width:0.185335" /></g><g
       id="text255"
       style="font-weight:bold;font-size:85.2062px;font-family:'Courier Prime';-inkscape-font-specification:'Courier Prime Bold';letter-spacing:-6.25678px;stroke-width:0"
       transform="scale(0.99039436,1.0096988)"
       aria-label="Mindgarden"><path
         id="path258"
         style="font-weight:800;font-size:86.6174px;font-family:'JetBrains Mono';-inkscape-font-specification:'JetBrains Mono Ultra-Bold';letter-spacing:-1.32292px;fill:#090b10;fill-opacity:1;stroke-width:0"
         d="m 371.9144,573.96385 c 0.0138,2.66409 -0.0455,5.32934 0.0732,7.99176 0.0134,0.42482 0.0268,0.84963 0.0404,1.27446 -0.92815,-1.74009 -2.78869,-2.9263 -4.75677,-3.0423 -1.79815,-0.16668 -3.69235,0.34722 -5.02902,1.59424 -1.59062,1.40714 -2.38198,3.51869 -2.5307,5.60036 -0.0992,1.55565 -0.0253,3.11701 -0.0482,4.67498 -0.005,1.71225 -0.0698,3.46475 0.46122,5.11674 0.57847,1.98009 1.9867,3.77617 3.94053,4.53553 1.54313,0.59383 3.30723,0.62644 4.8705,0.0866 1.38493,-0.47708 2.5085,-1.55729 3.16826,-2.85075 0,0.95067 0,1.90133 0,2.85198 1.98146,0 3.96295,0 5.94442,0 0,-9.35487 0,-18.70977 0,-28.06464 -2.04457,0 -4.08914,0 -6.1337,0 0,0.0769 0,0.15402 0,0.23105 z m -3.09755,11.57425 c 0.83664,-0.0149 1.79002,0.23404 2.34967,0.93769 0.57534,0.65088 0.73749,1.51821 0.74667,2.35133 -0.009,1.68812 0.0233,3.37752 -0.0161,5.06492 -0.0536,0.91576 -0.41509,1.93105 -1.2451,2.45284 -0.84729,0.51859 -1.92798,0.53645 -2.84979,0.33689 -0.8297,-0.18466 -1.53858,-0.80697 -1.78913,-1.62462 -0.35289,-1.05281 -0.17021,-2.1807 -0.21623,-3.26888 0.0203,-1.23204 -0.0422,-2.46737 0.0342,-3.69731 0.0737,-0.92957 0.56501,-1.88368 1.46021,-2.25618 0.5123,-0.22977 0.98451,-0.29014 1.52561,-0.29668 z m -17.65168,-4.94176 c -1.74131,0.0288 -3.50968,0.80241 -4.53446,2.24367 -0.17233,0.23343 -0.32272,0.48317 -0.45162,0.74304 0,-0.87365 0,-1.74728 0,-2.62094 -1.94454,0 -3.88906,0 -5.8336,0 0,6.94511 0,13.89022 0,20.83533 2.00621,0 4.01241,0 6.01862,0 0.007,-4.38248 -0.0131,-8.76547 0.01,-13.14766 0.025,-0.98015 0.48103,-2.01264 1.40128,-2.45517 0.73527,-0.36287 1.5452,-0.38813 2.31486,-0.2447 1.13373,0.21023 1.97451,1.26162 2.06889,2.38945 0.0895,1.09656 0.0171,2.20069 0.0404,3.30021 0,3.38596 0,6.77192 0,10.15787 2.00592,0 4.01184,0 6.01776,0 -0.006,-4.62059 0.0122,-9.2415 -0.009,-13.86191 -0.0562,-1.96625 -0.67874,-3.98289 -2.07005,-5.41972 -1.16102,-1.27547 -2.89096,-1.92973 -4.59868,-1.92156 -0.12473,-0.005 -0.24944,8.8e-4 -0.37418,0.002 z m -21.18227,-8.01287 c -1.15535,0.054 -2.38807,0.62406 -2.86436,1.73605 -0.49146,1.16286 -0.31588,2.68764 0.67577,3.54073 1.02609,0.87154 1.96877,0.98052 3.23512,0.68635 1.16374,-0.27863 2.16775,-1.28112 2.26103,-2.50383 0.13528,-1.01562 -0.22075,-2.12197 -1.06872,-2.73945 -0.77216,-0.62401 -1.27448,-0.77679 -2.23884,-0.71985 z m -8.203,9.03345 v 5.12762 h 5.87622 v 9.69424 h -6.60179 v 5.35866 h 18.23572 v -5.35866 h -5.73129 V 581.38587 H 321.7799 Z m -23.00809,-9.27986 c 0,9.82013 0,19.64027 0,29.46038 1.9826,0 3.96522,0 5.94783,0 -0.01,-4.37055 0.0203,-8.74137 -0.0163,-13.11174 -0.035,-2.92384 -0.28456,-5.83888 -0.60915,-8.7434 -0.0389,-0.36533 -0.0831,-0.73085 -0.12394,-1.09639 0.90055,3.51309 1.80177,7.02599 2.70192,10.53918 1.72086,0 3.44173,0 5.16259,0 0.95272,-3.72826 1.90592,-7.45638 2.85882,-11.1846 -0.36059,3.129 -0.64332,6.26932 -0.70947,9.41985 -0.0732,3.48664 -0.0207,6.97457 -0.0366,10.46175 0,1.23846 0,2.47691 0,3.71535 1.98235,0 3.96465,0 5.947,0 0,-9.89714 0,-19.79429 0,-29.69143 -2.60674,0 -5.21347,0 -7.82018,0 -0.92813,3.90671 -1.85398,7.81396 -2.78123,11.72089 -0.92697,-3.90693 -1.85251,-7.81419 -2.78038,-11.72089 -2.5803,0 -5.16059,0 -7.74089,0 0,0.0769 0,0.15404 0,0.23105 z" /><path
         id="path259"
         style="font-weight:normal;font-size:86.6173px;font-family:'JetBrains Mono';-inkscape-font-specification:'JetBrains Mono';letter-spacing:-10.5833px;fill:#090b10;fill-opacity:1;stroke-width:0"
         d="m 450.22186,573.34823 c 0.004,3.19083 -0.0216,6.38188 0.0529,9.57214 -0.83466,-1.79805 -2.74406,-2.91773 -4.67908,-3.09743 -2.02685,-0.22923 -4.22508,0.20135 -5.77374,1.5996 -1.60114,1.3844 -2.38502,3.49495 -2.52243,5.56734 -0.0876,1.62706 -0.0196,3.25899 -0.0412,4.88798 0.0244,1.92484 -0.14947,3.905 0.4696,5.76331 0.61203,2.02474 2.15454,3.78277 4.1698,4.48788 1.61782,0.55646 3.41801,0.58762 5.05873,0.10799 1.41358,-0.41549 2.67504,-1.41736 3.2652,-2.78465 0,0.90845 0,1.81688 0,2.72531 1.33439,0 2.6688,0 4.00319,0 0,-9.68959 0,-19.37921 0,-29.06878 -1.33439,0 -2.6688,0 -4.00319,0 0,0.0796 0,0.15952 0,0.23931 z m -62.07455,6.42734 c -1.82724,0.0516 -3.67865,0.74628 -4.91655,2.12535 -1.51802,1.60824 -2.08068,3.88236 -2.07263,6.04418 0.0151,1.8221 -0.0352,3.6458 0.0275,5.46691 0.11439,2.04756 0.8466,4.1478 2.40993,5.53909 1.46277,1.36084 3.53778,1.8375 5.48944,1.72487 1.70828,-0.0767 3.53043,-0.68651 4.5644,-2.12572 0.17302,-0.23616 0.32066,-0.49136 0.44133,-0.75812 -0.0522,1.49746 -0.0412,2.996 -0.0606,4.49365 -0.0358,0.9032 -0.4452,1.88746 -1.2011,2.46767 -0.8642,0.73565 -2.05475,0.82492 -3.14044,0.78365 -1.89079,0 -3.78163,0 -5.67244,0 0,1.23018 0,2.46037 0,3.69055 2.29763,-0.0114 4.59613,0.0231 6.89322,-0.0174 1.90325,-0.0739 3.84802,-0.72949 5.18902,-2.12738 1.36485,-1.31183 1.9618,-3.2412 1.94623,-5.10073 0.002,-7.27438 2.6e-4,-14.54881 9.1e-4,-21.8232 -1.32145,0 -2.6429,0 -3.96433,0 0,0.86573 0,1.73149 0,2.59724 -0.75763,-1.69207 -2.55106,-2.69812 -4.33906,-2.91235 -0.52809,-0.0727 -1.06215,-0.0882 -1.59464,-0.0681 z m 19.85607,-0.002 c -2.14189,0.0493 -4.36452,0.64366 -5.97151,2.12452 -1.17736,1.02756 -1.9002,2.53359 -1.97778,4.09339 -0.0165,0.26981 0.4939,0.0634 0.70417,0.1282 1.09743,0 2.19485,0 3.29228,0 -0.009,-0.77934 0.36238,-1.5539 1.02867,-1.97537 1.24223,-0.8299 2.81664,-0.91569 4.26279,-0.79825 1.17606,0.10378 2.43161,0.61738 2.98985,1.72472 0.59702,1.11177 0.44275,2.41187 0.46334,3.62497 -2.31537,0.0104 -4.63187,-0.0202 -6.94662,0.015 -2.31474,0.0981 -4.66218,1.24927 -5.86831,3.27814 -1.03708,1.7322 -1.15444,3.90265 -0.63296,5.8214 0.56571,2.02692 2.21038,3.6839 4.21172,4.31456 1.70208,0.54804 3.55234,0.56189 5.29558,0.21011 1.62599,-0.33233 3.19597,-1.29902 3.93,-2.83073 0.10679,-0.21125 0.0228,0.4571 0.0494,0.61483 0,0.68613 0,1.37225 0,2.05837 1.32145,0 2.64289,0 3.96435,0 -0.006,-5.15796 0.0118,-10.31632 -0.009,-15.47401 -0.0518,-1.83182 -0.72825,-3.7031 -2.12397,-4.93768 -1.59029,-1.48491 -3.83815,-1.97021 -5.95391,-1.9955 -0.23614,-0.007 -0.47215,-1.1e-4 -0.70829,0.003 z m 20.80723,-0.003 c -1.63484,0.0305 -3.34641,0.5711 -4.43713,1.84582 -0.35527,0.39877 -0.63851,0.86014 -0.84572,1.35196 0,-0.9367 0,-1.87339 0,-2.81008 -1.33469,0 -2.66937,0 -4.00405,0 0,7.33961 0,14.67924 0,22.01884 1.33468,0 2.66936,0 4.00405,0 0.006,-4.78065 -0.0118,-9.56168 0.009,-14.34212 0.0406,-1.40907 0.49747,-2.94312 1.71003,-3.78064 0.90669,-0.63777 2.03884,-0.79063 3.10404,-0.74799 1.25535,0.0288 2.62842,0.46105 3.32507,1.57868 0.79515,1.22711 0.69596,2.74783 0.69389,4.1447 0,0.27007 0,0.54012 0,0.81017 1.33471,0 2.66939,0 4.00407,0 -0.007,-1.89428 0.11787,-3.85073 -0.54805,-5.66222 -0.64931,-1.92032 -2.22689,-3.53763 -4.20136,-4.07707 -0.90974,-0.27169 -1.86763,-0.35212 -2.81362,-0.33005 z m 35.26919,0.005 c -2.1113,0.0622 -4.24872,0.80161 -5.77012,2.303 -1.59342,1.48904 -2.34461,3.67957 -2.43354,5.8206 -0.0482,1.98387 -0.0112,3.97004 -0.0194,5.95476 0.002,2.21909 0.62982,4.53146 2.18752,6.17284 1.5247,1.63899 3.76499,2.46179 5.97367,2.52942 2.43302,0.10429 5.01864,-0.41809 6.91305,-2.03346 1.23866,-1.03592 2.01337,-2.56547 2.1825,-4.16549 0.08,-0.29299 -0.43903,-0.0718 -0.61901,-0.14147 -1.117,0 -2.23396,0 -3.35092,0 -0.15346,1.05005 -0.94163,1.90233 -1.89424,2.31376 -1.15901,0.51357 -2.50207,0.59249 -3.71657,0.42691 -1.47146,-0.20508 -2.81509,-1.2035 -3.35168,-2.60174 -0.54336,-1.27947 -0.37373,-2.69513 -0.40124,-4.04676 4.49066,0 8.98135,0 13.472,0 -0.018,-1.63005 0.037,-3.2623 -0.0296,-4.89097 -0.12098,-2.1668 -1.07979,-4.31433 -2.77614,-5.70029 -1.61965,-1.35582 -3.75455,-1.9652 -5.84466,-1.94931 -0.17391,-9.1e-4 -0.34787,0.006 -0.52176,0.008 z m 20.01504,-0.005 c -1.66372,0.0312 -3.41745,0.58551 -4.50303,1.90932 -0.28937,0.34918 -0.528,0.74048 -0.70738,1.15689 0,-0.89286 0,-1.78569 0,-2.67851 -1.33437,0 -2.66879,0 -4.00318,0 0,7.33961 0,14.67924 0,22.01884 1.33439,0 2.66881,0 4.00318,0 0.006,-4.78064 -0.0129,-9.56172 0.0104,-14.34212 0.043,-1.04557 0.27505,-2.09962 0.90084,-2.97587 0.84019,-1.19284 2.35883,-1.70517 3.77427,-1.63415 1.20851,0.006 2.43128,0.5122 3.17626,1.48632 0.91985,1.12601 1.02004,2.65098 0.98167,4.04416 0,4.47389 0,8.94779 0,13.42166 1.3344,0 2.66879,0 4.00318,0 -0.006,-5.07087 0.0127,-10.14208 -0.009,-15.21273 -0.0566,-1.95308 -0.72005,-3.96195 -2.17308,-5.3225 -1.43246,-1.40866 -3.48763,-1.94445 -5.45292,-1.87131 z m -19.5417,3.37264 c 1.17963,-0.0118 2.47568,0.30017 3.35409,1.17632 1.10925,1.02299 1.45166,2.59605 1.42005,4.05054 -0.0664,0.21777 0.14757,0.71625 -0.13563,0.71744 -3.13724,0 -6.27451,0 -9.41177,0 -0.0341,-1.40789 0.0174,-2.92591 0.84284,-4.12941 0.73715,-1.11968 2.0633,-1.71857 3.37406,-1.79369 0.14578,-0.0123 0.38027,-0.0203 0.55636,-0.0213 z m -74.93193,0.15632 c 1.32044,-0.0296 2.7053,0.47593 3.49978,1.57063 0.88111,1.14291 1.00377,2.64928 0.95999,4.0416 -0.0223,1.425 0.0479,2.85329 -0.0416,4.27607 -0.11999,1.41015 -0.8134,2.84801 -2.09511,3.54231 -1.2061,0.65155 -2.67833,0.67235 -3.97888,0.31749 -1.2811,-0.35029 -2.28636,-1.43676 -2.60426,-2.71688 -0.33202,-1.229 -0.15562,-2.5149 -0.20063,-3.77073 0.0256,-1.1928 -0.0574,-2.39099 0.0534,-3.58007 0.14205,-1.3607 0.9326,-2.70241 2.22246,-3.25463 0.68046,-0.31574 1.44014,-0.42242 2.18461,-0.42579 z m 56.13913,0 c 1.32102,-0.03 2.70635,0.47551 3.50144,1.57072 0.88028,1.14331 1.00328,2.64997 0.96008,4.0424 -0.0125,1.92359 0.0251,3.84826 -0.0195,5.77117 -0.0725,1.42864 -0.679,2.92235 -1.93469,3.70005 -1.24338,0.77128 -2.81851,0.7843 -4.20123,0.4374 -1.12289,-0.29437 -2.12414,-1.11947 -2.47335,-2.24813 -0.49963,-1.45974 -0.28277,-3.02506 -0.33143,-4.5369 0.0193,-1.6041 -0.0408,-3.21059 0.0339,-4.81312 0.0845,-1.16229 0.47555,-2.41233 1.4867,-3.09567 0.85368,-0.62689 1.93896,-0.82775 2.97802,-0.82792 z m -38.98891,8.6166 c 2.00792,0 4.01584,0 6.02376,0 -0.024,1.1538 0.0514,2.31242 -0.0444,3.46304 -0.13682,1.33173 -1.03966,2.5018 -2.23129,3.07966 -1.3403,0.66218 -2.90494,0.77375 -4.36648,0.54906 -1.14514,-0.18269 -2.28486,-0.84797 -2.72797,-1.96471 -0.35174,-0.84597 -0.37636,-1.80196 -0.1534,-2.70375 0.34588,-1.38337 1.70415,-2.34267 3.09886,-2.4074 0.0973,-0.0104 0.27523,-0.0157 0.40094,-0.016 z" /></g></g><style
     type="text/css"
     id="style1941">&#10;	.st0{fill:none;stroke:#000000;stroke-width:2;stroke-linecap:round;stroke-linejoin:round;stroke-miterlimit:10;}&#10;</style><style
     type="text/css"
     id="style1941-0">&#10;	.st0{fill:none;stroke:#000000;stroke-width:2;stroke-linecap:round;stroke-linejoin:round;stroke-miterlimit:10;}&#10;</style><style
     type="text/css"
     id="style1941-7">&#10;	.st0{fill:none;stroke:#000000;stroke-width:2;stroke-linecap:round;stroke-linejoin:round;stroke-miterlimit:10;}&#10;</style><style
     type="text/css"
     id="style22485">&#10;	.st0{fill:none;stroke:#6C3DB7;stroke-width:4;stroke-linecap:round;stroke-linejoin:round;stroke-miterlimit:10;}&#10;	.st1{fill:none;stroke:#1F992A;stroke-width:4;stroke-linecap:round;stroke-linejoin:round;stroke-miterlimit:10;}&#10;	.st2{fill:none;stroke:#6A83BA;stroke-width:4;stroke-linecap:round;stroke-linejoin:round;stroke-miterlimit:10;}&#10;	.st3{fill:#8A8AFF;stroke:#8A8AFF;stroke-width:2;stroke-linecap:round;stroke-linejoin:round;stroke-miterlimit:10;}&#10;	.st4{fill:#6C3DB7;stroke:#6C3DB7;stroke-width:2;stroke-linecap:round;stroke-linejoin:round;stroke-miterlimit:10;}&#10;	.st5{fill:#A576FF;stroke:#A576FF;stroke-width:2;stroke-linecap:round;stroke-linejoin:round;stroke-miterlimit:10;}&#10;	.st6{fill:#F2BB41;stroke:#F2BB41;stroke-width:2;stroke-linecap:round;stroke-linejoin:round;stroke-miterlimit:10;}&#10;	.st7{fill:#E08838;stroke:#E08838;stroke-width:2;stroke-linecap:round;stroke-linejoin:round;stroke-miterlimit:10;}&#10;	.st8{fill:#1F992A;stroke:#1F992A;stroke-width:2;stroke-linecap:round;stroke-linejoin:round;stroke-miterlimit:10;}&#10;	.st9{fill:#5EC11E;stroke:#5EC11E;stroke-width:2;stroke-linecap:round;stroke-linejoin:round;stroke-miterlimit:10;}&#10;	.st10{fill:#E3FAFF;stroke:#E3FAFF;stroke-width:2;stroke-linecap:round;stroke-linejoin:round;stroke-miterlimit:10;}&#10;	.st11{fill:#FF5093;stroke:#FF5093;stroke-width:2;stroke-linecap:round;stroke-linejoin:round;stroke-miterlimit:10;}&#10;	.st12{fill:#B7257F;stroke:#B7257F;stroke-width:2;stroke-linecap:round;stroke-linejoin:round;stroke-miterlimit:10;}&#10;	.st13{fill:#5189E5;stroke:#5189E5;stroke-width:2;stroke-linecap:round;stroke-linejoin:round;stroke-miterlimit:10;}&#10;	.st14{fill:#6EBAFF;stroke:#6EBAFF;stroke-width:2;stroke-linecap:round;stroke-linejoin:round;stroke-miterlimit:10;}&#10;	.st15{fill:#EDD977;stroke:#EDD977;stroke-width:2;stroke-linecap:round;stroke-linejoin:round;stroke-miterlimit:10;}&#10;	.st16{fill:#8C43FF;stroke:#8C43FF;stroke-width:2;stroke-linecap:round;stroke-linejoin:round;stroke-miterlimit:10;}&#10;	.st17{fill:#5252BA;stroke:#5252BA;stroke-width:2;stroke-linecap:round;stroke-linejoin:round;stroke-miterlimit:10;}&#10;	.st18{fill:none;stroke:#E3FAFF;stroke-width:4;stroke-linecap:round;stroke-linejoin:round;stroke-miterlimit:10;}&#10;	.st19{fill:#354C75;stroke:#354C75;stroke-width:2;stroke-linecap:round;stroke-linejoin:round;stroke-miterlimit:10;}&#10;</style><style
     type="text/css"
     id="style23106">&#10;	.st0{fill:none;stroke:#000000;stroke-width:2;stroke-linecap:round;stroke-linejoin:round;stroke-miterlimit:10;}&#10;	.st1{fill:none;stroke:#000000;stroke-width:2;stroke-linejoin:round;stroke-miterlimit:10;}&#10;</style><style
     type="text/css"
     id="style1941-1">&#10;	.st0{fill:none;stroke:#000000;stroke-width:2;stroke-linecap:round;stroke-linejoin:round;stroke-miterlimit:10;}&#10;</style><style
     type="text/css"
     id="style1941-0-8">&#10;	.st0{fill:none;stroke:#000000;stroke-width:2;stroke-linecap:round;stroke-linejoin:round;stroke-miterlimit:10;}&#10;</style><style
     type="text/css"
     id="style1941-7-7">&#10;	.st0{fill:none;stroke:#000000;stroke-width:2;stroke-linecap:round;stroke-linejoin:round;stroke-miterlimit:10;}&#10;</style><style
     type="text/css"
     id="style22485-9">&#10;	.st0{fill:none;stroke:#6C3DB7;stroke-width:4;stroke-linecap:round;stroke-linejoin:round;stroke-miterlimit:10;}&#10;	.st1{fill:none;stroke:#1F992A;stroke-width:4;stroke-linecap:round;stroke-linejoin:round;stroke-miterlimit:10;}&#10;	.st2{fill:none;stroke:#6A83BA;stroke-width:4;stroke-linecap:round;stroke-linejoin:round;stroke-miterlimit:10;}&#10;	.st3{fill:#8A8AFF;stroke:#8A8AFF;stroke-width:2;stroke-linecap:round;stroke-linejoin:round;stroke-miterlimit:10;}&#10;	.st4{fill:#6C3DB7;stroke:#6C3DB7;stroke-width:2;stroke-linecap:round;stroke-linejoin:round;stroke-miterlimit:10;}&#10;	.st5{fill:#A576FF;stroke:#A576FF;stroke-width:2;stroke-linecap:round;stroke-linejoin:round;stroke-miterlimit:10;}&#10;	.st6{fill:#F2BB41;stroke:#F2BB41;stroke-width:2;stroke-linecap:round;stroke-linejoin:round;stroke-miterlimit:10;}&#10;	.st7{fill:#E08838;stroke:#E08838;stroke-width:2;stroke-linecap:round;stroke-linejoin:round;stroke-miterlimit:10;}&#10;	.st8{fill:#1F992A;stroke:#1F992A;stroke-width:2;stroke-linecap:round;stroke-linejoin:round;stroke-miterlimit:10;}&#10;	.st9{fill:#5EC11E;stroke:#5EC11E;stroke-width:2;stroke-linecap:round;stroke-linejoin:round;stroke-miterlimit:10;}&#10;	.st10{fill:#E3FAFF;stroke:#E3FAFF;stroke-width:2;stroke-linecap:round;stroke-linejoin:round;stroke-miterlimit:10;}&#10;	.st11{fill:#FF5093;stroke:#FF5093;stroke-width:2;stroke-linecap:round;stroke-linejoin:round;stroke-miterlimit:10;}&#10;	.st12{fill:#B7257F;stroke:#B7257F;stroke-width:2;stroke-linecap:round;stroke-linejoin:round;stroke-miterlimit:10;}&#10;	.st13{fill:#5189E5;stroke:#5189E5;stroke-width:2;stroke-linecap:round;stroke-linejoin:round;stroke-miterlimit:10;}&#10;	.st14{fill:#6EBAFF;stroke:#6EBAFF;stroke-width:2;stroke-linecap:round;stroke-linejoin:round;stroke-miterlimit:10;}&#10;	.st15{fill:#EDD977;stroke:#EDD977;stroke-width:2;stroke-linecap:round;stroke-linejoin:round;stroke-miterlimit:10;}&#10;	.st16{fill:#8C43FF;stroke:#8C43FF;stroke-width:2;stroke-linecap:round;stroke-linejoin:round;stroke-miterlimit:10;}&#10;	.st17{fill:#5252BA;stroke:#5252BA;stroke-width:2;stroke-linecap:round;stroke-linejoin:round;stroke-miterlimit:10;}&#10;	.st18{fill:none;stroke:#E3FAFF;stroke-width:4;stroke-linecap:round;stroke-linejoin:round;stroke-miterlimit:10;}&#10;	.st19{fill:#354C75;stroke:#354C75;stroke-width:2;stroke-linecap:round;stroke-linejoin:round;stroke-miterlimit:10;}&#10;</style><style
     type="text/css"
     id="style23106-2">&#10;	.st0{fill:none;stroke:#000000;stroke-width:2;stroke-linecap:round;stroke-linejoin:round;stroke-miterlimit:10;}&#10;	.st1{fill:none;stroke:#000000;stroke-width:2;stroke-linejoin:round;stroke-miterlimit:10;}&#10;</style><style
     type="text/css"
     id="style4736">&#10;<![CDATA[
	.st0{fill:#D1D1D1;}
	.st1{fill:#454545;}
]]>&#10;</style><style
     type="text/css"
     id="style1">&#10;	.st0{fill:none;stroke:#000000;stroke-width:2;stroke-linecap:round;stroke-linejoin:round;stroke-miterlimit:10;}&#10;</style><style
     type="text/css"
     id="style1-4">&#10;	.linesandangles_een{fill:#111918;}&#10;</style><style
     type="text/css"
     id="style1-2">&#10;	.st0{fill:#000000;}&#10;</style><style
     type="text/css"
     id="style1-5">&#10;	.st0{fill:#000000;}&#10;</style><style
     type="text/css"
     id="style1-1">&#10;	.st0{fill:#000000;}&#10;</style></svg>
