<?xml version="1.0" encoding="UTF-8" standalone="no"?>
<!-- Created with Inkscape (http://www.inkscape.org/) -->

<svg
   width="1135.0287"
   height="343.07309"
   viewBox="0 0 300.30965 90.771419"
   version="1.1"
   id="svg5"
   inkscape:version="1.2.1 (9c6d41e410, 2022-07-14)"
   sodipodi:docname="DERS-T.svg"
   xml:space="preserve"
   inkscape:export-filename="main.png"
   inkscape:export-xdpi="96"
   inkscape:export-ydpi="96"
   xmlns:inkscape="http://www.inkscape.org/namespaces/inkscape"
   xmlns:sodipodi="http://sodipodi.sourceforge.net/DTD/sodipodi-0.dtd"
   xmlns:xlink="http://www.w3.org/1999/xlink"
   xmlns="http://www.w3.org/2000/svg"
   xmlns:svg="http://www.w3.org/2000/svg"><sodipodi:namedview
     id="namedview7"
     pagecolor="#ffffff"
     bordercolor="#cccccc"
     borderopacity="1"
     inkscape:showpageshadow="0"
     inkscape:pageopacity="0"
     inkscape:pagecheckerboard="false"
     inkscape:deskcolor="#ffffff"
     inkscape:document-units="px"
     showgrid="false"
     inkscape:zoom="0.35355339"
     inkscape:cx="349.31075"
     inkscape:cy="-494.97474"
     inkscape:window-width="1920"
     inkscape:window-height="1016"
     inkscape:window-x="0"
     inkscape:window-y="0"
     inkscape:window-maximized="1"
     inkscape:current-layer="layer1"
     showguides="false"><inkscape:grid
       type="xygrid"
       id="grid106283"
       originx="-7.3326974"
       originy="-7.0890182" /><inkscape:page
       x="0"
       y="0"
       width="300.30966"
       height="90.771416"
       id="page108810"
       inkscape:label="main" /><inkscape:page
       x="-2.6448851"
       y="-134.26787"
       width="312.70837"
       height="101.29884"
       id="page108812"
       inkscape:label="block_simplified" /><inkscape:page
       x="-1.8278724"
       y="-250.4315"
       width="278.90677"
       height="99.13266"
       id="page108866"
       inkscape:label="block" /><inkscape:page
       x="-5.4840398"
       y="-361.14252"
       width="312.84344"
       height="90.771416"
       id="page108868"
       inkscape:label="main_simplified" /></sodipodi:namedview><defs
     id="defs2"><linearGradient
       inkscape:collect="always"
       id="linearGradient43531"><stop
         style="stop-color:#2060df;stop-opacity:1;"
         offset="0"
         id="stop43527" /><stop
         style="stop-color:#a8e4f0;stop-opacity:1;"
         offset="1"
         id="stop43529" /></linearGradient><linearGradient
       inkscape:collect="always"
       id="linearGradient10692"><stop
         style="stop-color:#2060df;stop-opacity:1;"
         offset="0"
         id="stop10688" /><stop
         style="stop-color:#a6d9f2;stop-opacity:1;"
         offset="1"
         id="stop10690" /></linearGradient><linearGradient
       id="linearGradient53173"><stop
         style="stop-color:#171a1c;stop-opacity:1;"
         offset="0"
         id="stop53169" /><stop
         style="stop-color:#000000;stop-opacity:0;"
         offset="1"
         id="stop53171" /></linearGradient><linearGradient
       id="linearGradient19172"
       inkscape:swatch="gradient"><stop
         style="stop-color:#000000;stop-opacity:1;"
         offset="0"
         id="stop38996" /><stop
         style="stop-color:#000000;stop-opacity:0;"
         offset="1"
         id="stop38998" /></linearGradient><rect
       x="1271.9746"
       y="917.7583"
       width="1512.8881"
       height="519.16003"
       id="rect36172" /><linearGradient
       id="linearGradient19172-1"><stop
         style="stop-color:#000000;stop-opacity:1;"
         offset="0"
         id="stop19168" /><stop
         style="stop-color:#000000;stop-opacity:0;"
         offset="1"
         id="stop19170" /></linearGradient><linearGradient
       id="linear-gradient"
       x1="0.38600001"
       y1="0.35600001"
       x2="0.58999997"
       y2="0.61400002"
       gradientUnits="objectBoundingBox"><stop
         offset="0"
         stop-color="#face00"
         id="stop4419" /><stop
         offset="1"
         stop-color="#f68600"
         id="stop4421" /></linearGradient><linearGradient
       id="linear-gradient-2"
       x1="481.19022"
       y1="243.45332"
       x2="513.01984"
       y2="270.56314"
       xlink:href="#linear-gradient"
       gradientTransform="scale(1.0001042,0.99989576)"
       gradientUnits="userSpaceOnUse" /><style
       id="style5220">.cls-1{fill:#c8c2e9;}.cls-2{fill:#dfdafd;}.cls-3{fill:#b9b1e0;}.cls-4{fill:#4d4c78;}.cls-5{fill:#67baeb;}.cls-6{fill:#de3226;}.cls-7{fill:#231f20;}.cls-8{fill:#f4c23f;}.cls-9{fill:#46a1f8;}.cls-10{fill:#b11a31;}.cls-11{fill:#f4a93f;}.cls-12{fill:#8a87b2;}.cls-13{fill:#83d0fb;}.cls-14{fill:#fad564;}.cls-15{fill:#f44533;}</style><linearGradient
       inkscape:collect="always"
       xlink:href="#linearGradient53173"
       id="linearGradient47963"
       gradientUnits="userSpaceOnUse"
       gradientTransform="matrix(0.30334529,0,0,0.30334528,-11.874109,-4.8694964)"
       x1="406.5416"
       y1="159.73495"
       x2="352.82047"
       y2="159.73495" /><linearGradient
       inkscape:collect="always"
       xlink:href="#linearGradient43531"
       id="linearGradient6229"
       x1="1328.9302"
       y1="-2408.9868"
       x2="2259.928"
       y2="-3339.9846"
       gradientUnits="userSpaceOnUse" /><linearGradient
       inkscape:collect="always"
       xlink:href="#linearGradient10692"
       id="linearGradient49473"
       gradientUnits="userSpaceOnUse"
       x1="1965.4796"
       y1="-1865.1597"
       x2="2838.3682"
       y2="-3377.0469" /><linearGradient
       inkscape:collect="always"
       xlink:href="#linearGradient10692"
       id="linearGradient16342"
       gradientUnits="userSpaceOnUse"
       x1="1965.4796"
       y1="-1865.1597"
       x2="2838.3682"
       y2="-3377.0469" /><linearGradient
       inkscape:collect="always"
       xlink:href="#linearGradient43531"
       id="linearGradient92470"
       gradientUnits="userSpaceOnUse"
       x1="1328.9302"
       y1="-2408.9868"
       x2="2259.928"
       y2="-3339.9846" /></defs><g
     inkscape:label="Layer 1"
     inkscape:groupmode="layer"
     id="layer1"
     transform="translate(-7.3326976,-7.0890181)"><text
       xml:space="preserve"
       style="font-size:3.175px;font-family:Rubik;-inkscape-font-specification:Rubik;opacity:0.35568;fill:#eff5fa;fill-opacity:1;stroke-width:0.264583"
       x="53.013325"
       y="-247.31952"
       id="text11518"><tspan
         sodipodi:role="line"
         id="tspan11516"
         style="stroke-width:0.264583"
         x="53.013325"
         y="-247.31952" /></text><text
       xml:space="preserve"
       style="font-size:3.175px;font-family:Rubik;-inkscape-font-specification:Rubik;opacity:0.35568;fill:#eff5fa;fill-opacity:1;stroke-width:0.264583"
       x="-63.762154"
       y="-264.61349"
       id="text11522"><tspan
         sodipodi:role="line"
         id="tspan11520"
         style="stroke-width:0.264583"
         x="-63.762154"
         y="-264.61349" /></text><text
       xml:space="preserve"
       transform="scale(0.26458332)"
       id="text36170"
       style="font-style:normal;font-variant:normal;font-weight:bold;font-stretch:normal;font-size:85.3333px;font-family:Rubik;-inkscape-font-specification:'Rubik Bold';white-space:pre;shape-inside:url(#rect36172);display:inline;opacity:1;fill:#eff5fa;fill-opacity:1;stroke:#000000;stroke-width:100;stroke-linecap:round;stroke-linejoin:round;stroke-dasharray:none;stroke-dashoffset:0;stroke-opacity:1;paint-order:stroke fill markers" /><g
       id="g54440"
       transform="matrix(0.90695038,0,0,0.90695038,0.43994453,-18.762067)" /><g
       id="g105510"><g
         aria-label="DERS-T"
         id="g64833"
         style="font-weight:bold;font-size:22.5778px;font-family:Rubik;-inkscape-font-specification:'Rubik Bold';opacity:1;stroke:#29293d;stroke-width:0;stroke-linecap:round;stroke-linejoin:round;stroke-opacity:1;paint-order:stroke fill markers"
         transform="matrix(0.358934,0,0,0.358934,27.145454,-253.78469)"><path
           id="path64831"
           style="font-weight:300;-inkscape-font-specification:'Rubik Light';fill:#ffffff;fill-opacity:1;stroke:#29293d;stroke-width:31.5755;stroke-linecap:round;stroke-linejoin:round;stroke-dasharray:none;stroke-opacity:1"
           d="m 583.47858,-208.74483 c -0.98257,0.005 -1.96687,0.0271 -2.94775,0.0216 -15.69877,-0.1623 -32.72135,9.68995 -35.88866,25.9312 -3.19361,13.41762 3.53031,28.91905 16.55249,34.31652 4.14338,2.27546 8.4632,3.88864 12.80244,5.36545 8.02794,2.73221 15.46723,3.60591 21.98644,10.12512 9.6144,9.6144 -17.64222,18.24969 -27.60971,4.62626 -3.29083,-4.49786 -3.149,-10.51659 -8.94602,-12.86194 -7.71858,-3.27232 -18.39578,2.52495 -17.92269,11.63236 0.26707,15.86895 14.54062,28.18223 29.39999,30.874769 14.2765,3.090307 30.51322,1.594815 42.49991,-7.310789 13.79386,-10.48221 16.16665,-32.91395 4.089,-45.57567 -8.93011,-8.74985 -21.70363,-11.45329 -33.11038,-15.55728 -4.63435,-1.93141 -11.53509,-3.13585 -13.60834,-6.89972 -1.67861,-3.54394 1.80118,-6.50857 5.10042,-7.77233 6.64113,-1.83296 15.23404,-1.71548 19.82116,4.19897 3.15202,5.08673 3.18978,10.24228 12.15339,12.42203 7.65045,1.31451 16.47656,-5.36057 14.61616,-13.5831 -1.85271,-17.4365 -19.23279,-29.71308 -36.04551,-29.87055 -0.97896,-0.0757 -1.95977,-0.0876 -2.94234,-0.0829 z m -103.04331,2.12383 c -1.93023,0.0113 -3.89953,0.0332 -5.90632,0.0451 -10.65087,0.0632 -23.39167,-1.03011 -27.57546,6.21642 -2.76802,6.6101 -0.82188,15.13869 -1.50182,22.68958 0.0568,23.66028 -0.30505,46.13691 0.39304,69.77247 0,13.85169 25.30199,14.12043 25.30199,0.33534 0.70275,-9.44859 0.0927,-15.80687 0.78426,-24.71965 0,-2.89894 3.29356,-3.38699 6.54094,-3.39126 3.16538,0.10742 6.10765,-0.95713 8.69001,3.51567 6.24752,10.821 11.21908,21.59895 19.04771,31.34533 7.23691,6.491369 21.67626,2.3016 21.93776,-8.17258 -1.10318,-9.26019 -8.22869,-16.20513 -12.09389,-24.3807 -1.22783,-2.89652 -4.64965,-6.3352 -4.56676,-8.90816 18.63947,-11.5166 20.20272,-41.36064 3.90509,-55.54214 -9.80764,-8.4206 -21.44498,-8.88444 -34.95655,-8.80539 z m -108.76213,0.0847 c -4.66367,0.002 -6.02944,0.0152 -10.1738,0.009 -9.0558,-0.20004 -12.55003,9.14032 -12.55003,16.52183 0.0807,27.76588 -0.32406,54.32248 0.35878,82.06289 3.2704,12.205325 11.97377,10.253129 17.57653,10.253129 16.37479,-0.208749 32.72604,0.506272 49.15264,-0.522842 11.26165,-2.905187 11.35822,-21.438577 0.42007,-24.890927 -7.60732,-1.19335 -15.06501,-0.58349 -23.17636,-0.58234 -5.98796,8.5e-4 -11.97619,0.005 -17.96416,0.0108 v -16.10536 c 12.49925,-0.25405 24.33543,1.26709 36.73422,-0.19832 12.95099,-3.47021 11.67493,-22.74257 -0.37681,-25.46245 -12.07036,-0.64402 -24.24678,-0.1692 -36.35741,-0.31371 v -14.81989 c 13.43465,-0.26494 35.45852,0.52298 40.35265,-0.73738 13.03199,-3.49191 10.27377,-24.84225 -2.41048,-24.84225 -14.60626,0 -27.27121,-0.2096 -41.58584,-0.38222 z m -92.25472,0.19291 c -7.18859,0.005 -14.41532,0.4057 -21.55555,0.0234 l -0.57513,0.005 -0.31551,0.005 c -5.37166,-0.37505 -11.21415,1.97025 -12.99174,7.44961 -2.34359,7.35348 -0.4122,15.18245 -1.01864,22.75087 0.0459,23.22531 -0.23264,39.87269 0.36779,63.07288 0,15.049713 12.48289,15.584323 18.36621,15.584323 19.80497,-0.574365 34.39214,2.406284 49.37259,-6.275913 12.18852,-7.64172 16.47897,-22.88162 16.37039,-36.52869 0.45918,-12.60638 0.82731,-25.4497 -1.70555,-37.86103 -2.98907,-12.21441 -12.3454,-23.25681 -24.99189,-25.87892 -6.98532,-1.96319 -14.13438,-2.35251 -21.32297,-2.34739 z m 457.26934,0.52285 c -10.25958,0.007 -28.54899,0.0395 -38.80551,0.018 v -0.002 c -10.20516,-0.25692 -15.13013,13.48692 -9.39495,21.0273 4.49037,6.36606 14.325,5.3943 21.76469,5.3943 3.41901,0 12.47406,-0.14924 12.47406,-0.14924 0,20.04293 -0.40598,46.25183 0.40205,70.37922 0,6.96993 6.05219,11.570864 12.09431,11.570864 7.86591,0 14.08706,-2.234005 14.08706,-11.532414 0,-8.82513 -0.67307,-13.82287 -0.20689,-22.74563 v -48.00238 c 14.69306,-0.60164 24.90386,0.39307 29.73976,-2.39894 10.08053,-5.87601 8.29966,-21.90499 -4.45523,-23.42949 -10.25328,-0.119 -27.43977,-0.13698 -37.69935,-0.12981 z m -246.61235,22.44438 c 5.38436,0 10.1143,4.27105 10.1143,10.10709 0,2.40423 0.1306,10.86071 -7.6299,10.86071 -6.83932,0 -13.82887,0.13032 -20.74063,0.16587 0.22073,-6.15165 -0.11035,-14.72673 -0.0234,-20.87946 8.29536,-0.004 10.94358,-0.25421 18.27967,-0.25421 z m -208.41237,2.87203 c 4.01468,-0.003 7.81588,0.20236 11.04641,1.03487 4.74265,1.83345 6.69449,5.64044 7.79757,13.16482 0,12.22436 0.067,17.23631 0.29026,27.8567 -0.44537,5.31868 -3.52856,12.54054 -9.58605,14.16364 -7.13792,1.9126 -14.65137,0.74186 -21.97382,0.78246 0.2669,-18.92834 0.0173,-37.85869 0.10096,-56.78795 4.08275,0 8.30998,-0.2113 12.32467,-0.21454 z m 368.99183,16.28385 c -7.09444,0 -12.80604,5.7116 -12.80604,12.80604 v 0.96275 c 0,7.09444 5.7116,12.80605 12.80604,12.80605 h 38.11885 c 7.09444,0 12.80605,-5.71161 12.80605,-12.80605 v -0.96275 c 0,-7.09444 -5.71161,-12.80604 -12.80605,-12.80604 z"
           sodipodi:nodetypes="ccccssscccccccccccccssccccccscccccsssccccccscccccccsssccccccccccccccccccsscscccccccsssccssccccscccsssssssss" /></g><g
         id="g92404"
         transform="matrix(0.07297233,0,0,0.07297233,-92.847282,-107.28171)"
         style="fill:#4080bf;fill-opacity:1"><g
           id="g92372"
           style="fill:#4080bf;fill-opacity:1">
</g><g
           id="g92374"
           style="fill:#4080bf;fill-opacity:1">
</g><g
           id="g92376"
           style="fill:#4080bf;fill-opacity:1">
</g><g
           id="g92378"
           style="fill:#4080bf;fill-opacity:1">
</g><g
           id="g92380"
           style="fill:#4080bf;fill-opacity:1">
</g><g
           id="g92382"
           style="fill:#4080bf;fill-opacity:1">
</g><g
           id="g92384"
           style="fill:#4080bf;fill-opacity:1">
</g><g
           id="g92386"
           style="fill:#4080bf;fill-opacity:1">
</g><g
           id="g92388"
           style="fill:#4080bf;fill-opacity:1">
</g><g
           id="g92390"
           style="fill:#4080bf;fill-opacity:1">
</g><g
           id="g92392"
           style="fill:#4080bf;fill-opacity:1">
</g><g
           id="g92394"
           style="fill:#4080bf;fill-opacity:1">
</g><g
           id="g92396"
           style="fill:#4080bf;fill-opacity:1">
</g><g
           id="g92398"
           style="fill:#4080bf;fill-opacity:1">
</g><g
           id="g92400"
           style="fill:#4080bf;fill-opacity:1">
</g><rect
           style="opacity:1;fill:url(#linearGradient92470);fill-opacity:1;stroke:#000000;stroke-width:0;stroke-linecap:round;stroke-linejoin:round;stroke-dasharray:none;stroke-dashoffset:0;stroke-opacity:1;paint-order:stroke fill markers"
           id="rect92402"
           width="1243.9155"
           height="1243.9155"
           x="1297.6965"
           y="-3381.717"
           ry="236.31879" /></g><g
         id="g92468"
         transform="matrix(1.0357303,0,0,1.0357303,-7.0070117,-362.33306)"><g
           id="g92412"
           data-name="pencil ruler"
           transform="matrix(0.70317061,0,0,0.70317061,-254.60876,-127.11706)"><g
             id="g92410"
             transform="matrix(0.51296235,0.51296235,-0.51296235,0.51296235,267.32808,-160.26291)"><path
               id="path92406"
               data-name="Path 109"
               d="m 532.80229,217.31481 c -1.60917,1.61484 -1.65634,4.17977 -0.10549,5.73649 l 69.35781,69.35989 c 1.55736,1.54658 4.11812,1.49948 5.73344,-0.10544 l 7.02578,-7.02778 -74.98581,-74.98789 z"
               fill="#e1e5f5"
               sodipodi:nodetypes="ccccccc"
               style="fill:#d1d6e0;fill-opacity:1;stroke-width:1.01856" /><path
               id="path92408"
               data-name="Path 110"
               d="m 546.23676,203.87634 -6.772,6.773 74.98585,74.98785 6.773,-6.773 c 1.54798,-1.55706 1.54798,-4.07194 0,-5.629 l -69.35985,-69.35885 c -1.55705,-1.54611 -4.06995,-1.54611 -5.627,0 z"
               fill="#f2f3f7"
               sodipodi:nodetypes="ccccccc"
               style="fill:#e0e4eb;fill-opacity:1" /></g></g><g
           id="g92446"
           transform="matrix(0.12689674,0,0,0.12689674,22.434868,21.633165)"
           style="fill:#2c2e4a;fill-opacity:1"><path
             d="M 458.319,43.582 258.32,3.462 C 243.104,0.407 227.438,0.399 212.223,3.431 L 10.773,43.598 C 4.512,44.842 0,50.338 0,56.729 V 76.327 C 0,83.72 6.001,89.72 13.392,89.72 h 225.33967 c 108.11725,-0.001 92.24094,-0.001 216.95533,-0.001 7.39,0 13.39,-6 13.39,-13.393 V 56.715 c 0,-6.377 -4.505,-11.873 -10.758,-13.133 z"
             id="path92414"
             style="fill:#2c2e4a;fill-opacity:1"
             sodipodi:nodetypes="ccccsssccssc" /><g
             id="g92416"
             style="fill:#2c2e4a;fill-opacity:1">
</g><g
             id="g92418"
             style="fill:#2c2e4a;fill-opacity:1">
</g><g
             id="g92420"
             style="fill:#2c2e4a;fill-opacity:1">
</g><g
             id="g92422"
             style="fill:#2c2e4a;fill-opacity:1">
</g><g
             id="g92424"
             style="fill:#2c2e4a;fill-opacity:1">
</g><g
             id="g92426"
             style="fill:#2c2e4a;fill-opacity:1">
</g><g
             id="g92428"
             style="fill:#2c2e4a;fill-opacity:1">
</g><g
             id="g92430"
             style="fill:#2c2e4a;fill-opacity:1">
</g><g
             id="g92432"
             style="fill:#2c2e4a;fill-opacity:1">
</g><g
             id="g92434"
             style="fill:#2c2e4a;fill-opacity:1">
</g><g
             id="g92436"
             style="fill:#2c2e4a;fill-opacity:1">
</g><g
             id="g92438"
             style="fill:#2c2e4a;fill-opacity:1">
</g><g
             id="g92440"
             style="fill:#2c2e4a;fill-opacity:1">
</g><g
             id="g92442"
             style="fill:#2c2e4a;fill-opacity:1">
</g><g
             id="g92444"
             style="fill:#2c2e4a;fill-opacity:1">
</g></g><g
           id="g92466"
           transform="matrix(0.10165627,0,0,0.10165627,36.109689,35.331034)"
           style="fill:#8592ad;fill-opacity:1">
	<path
   style="fill:#8592ad;fill-opacity:1"
   d="m 88,128 h 56 c 4.416,0 8,3.584 8,8 v 0 c 0,4.416 -3.584,8 -8,8 H 88 v 0 z"
   id="path92448" />
	<path
   style="fill:#8592ad;fill-opacity:1"
   d="m 88,32 h 56 c 4.416,0 8,3.584 8,8 v 0 c 0,4.416 -3.584,8 -8,8 H 88 v 0 z"
   id="path92450" />
	<path
   style="fill:#8592ad;fill-opacity:1"
   d="m 88,416 h 56 c 4.416,0 8,3.584 8,8 v 0 c 0,4.416 -3.584,8 -8,8 H 88 v 0 z"
   id="path92452" />
	<path
   style="fill:#8592ad;fill-opacity:1"
   d="m 88,80 h 32 c 4.416,0 8,3.584 8,8 v 0 c 0,4.416 -3.584,8 -8,8 H 88 v 0 z"
   id="path92454" />
	<path
   style="fill:#8592ad;fill-opacity:1"
   d="m 88,224 h 56 c 4.416,0 8,3.584 8,8 v 0 c 0,4.416 -3.584,8 -8,8 H 88 v 0 z"
   id="path92456" />
	<path
   style="fill:#8592ad;fill-opacity:1"
   d="m 88,176 h 32 c 4.416,0 8,3.584 8,8 v 0 c 0,4.416 -3.584,8 -8,8 H 88 v 0 z"
   id="path92458" />
	<path
   style="fill:#8592ad;fill-opacity:1"
   d="m 88,320 h 56 c 4.416,0 8,3.584 8,8 v 0 c 0,4.416 -3.584,8 -8,8 H 88 v 0 z"
   id="path92460" />
	<path
   style="fill:#8592ad;fill-opacity:1"
   d="m 88,272 h 32 c 4.416,0 8,3.584 8,8 v 0 c 0,4.416 -3.584,8 -8,8 H 88 v 0 z"
   id="path92462" />
	<path
   style="fill:#8592ad;fill-opacity:1"
   d="m 88,368 h 32 c 4.416,0 8,3.584 8,8 v 0 c 0,4.416 -3.584,8 -8,8 H 88 v 0 z"
   id="path92464" />
</g></g></g><g
       id="g106281"
       transform="translate(4.0307615,1.6123046)"><g
         id="g49363"
         transform="matrix(0.07297233,0,0,0.07297233,-93.221876,1.8169887)"
         style="fill:#4080bf;fill-opacity:1"><g
           id="g49331"
           style="fill:#4080bf;fill-opacity:1">
</g><g
           id="g49333"
           style="fill:#4080bf;fill-opacity:1">
</g><g
           id="g49335"
           style="fill:#4080bf;fill-opacity:1">
</g><g
           id="g49337"
           style="fill:#4080bf;fill-opacity:1">
</g><g
           id="g49339"
           style="fill:#4080bf;fill-opacity:1">
</g><g
           id="g49341"
           style="fill:#4080bf;fill-opacity:1">
</g><g
           id="g49343"
           style="fill:#4080bf;fill-opacity:1">
</g><g
           id="g49345"
           style="fill:#4080bf;fill-opacity:1">
</g><g
           id="g49347"
           style="fill:#4080bf;fill-opacity:1">
</g><g
           id="g49349"
           style="fill:#4080bf;fill-opacity:1">
</g><g
           id="g49351"
           style="fill:#4080bf;fill-opacity:1">
</g><g
           id="g49353"
           style="fill:#4080bf;fill-opacity:1">
</g><g
           id="g49355"
           style="fill:#4080bf;fill-opacity:1">
</g><g
           id="g49357"
           style="fill:#4080bf;fill-opacity:1">
</g><g
           id="g49359"
           style="fill:#4080bf;fill-opacity:1">
</g><rect
           style="opacity:1;fill:url(#linearGradient49473);fill-opacity:1;stroke:#000000;stroke-width:0;stroke-linecap:round;stroke-linejoin:round;stroke-dasharray:none;stroke-dashoffset:0;stroke-opacity:1;paint-order:stroke fill markers"
           id="rect49361"
           width="3822.0896"
           height="1358.4966"
           x="1297.6965"
           y="-3381.717"
           ry="264.45868" /></g><g
         aria-label="EĞİTİM ve YAYINCILIK"
         id="g49401"
         style="font-weight:300;font-size:20.3516px;font-family:Rubik;-inkscape-font-specification:'Rubik Light';letter-spacing:-0.72581px;opacity:1;fill:#29293d;fill-opacity:1;stroke:#29293d;stroke-width:0;stroke-linecap:round;stroke-linejoin:round;stroke-opacity:1;paint-order:stroke fill markers"
         transform="matrix(0.89158691,0,0,0.89158691,4.6646048,-244.27866)"><path
           id="path49365"
           d="m 111.51172,74.859375 c -0.83241,-0.0092 -1.04959,0.932131 -0.93555,1.596094 0.0186,4.321259 -0.037,8.649343 0.0273,12.966406 0.20603,0.947785 1.33786,0.731606 2.05117,0.740234 2.43775,-0.03055 4.88706,0.0599 7.31797,-0.04297 1.07144,-0.301553 0.87652,-2.311205 -0.31836,-2.236329 -2.24545,0 -4.49089,10e-7 -6.73633,0 0,-1.444661 0,-2.889322 0,-4.333984 2.11916,-0.01687 4.24292,0.03295 6.35937,-0.02344 1.15749,-0.206569 0.99913,-2.337806 -0.23437,-2.25586 -2.04167,0 -4.08333,0 -6.125,0 0,-1.376953 0,-2.753906 0,-4.130859 2.26958,-0.01652 4.54364,0.03247 6.81055,-0.02344 1.15371,-0.212883 0.99387,-2.337316 -0.23829,-2.257812 -2.65947,0.0013 -5.31918,-0.0026 -7.97851,0.002 z"
           style="fill:#29293d;fill-opacity:1;stroke:#29293d;stroke-opacity:1" /><path
           id="path49367"
           d="m 125.26953,71.298828 c -0.86454,0.02392 -1.00458,1.039002 -0.78025,1.695095 0.13175,0.743231 0.5825,1.429459 1.25486,1.787327 -2.16892,0.335067 -3.9671,2.120023 -4.34701,4.277491 -0.35479,1.879313 -0.17256,3.814146 -0.17018,5.71533 0.0821,2.247269 1.405,4.574076 3.64823,5.250435 2.47916,0.771656 5.63204,0.322902 7.21662,-1.919037 1.2222,-1.667506 1.16651,-3.827681 1.08008,-5.791016 -0.19361,-0.973498 -1.35344,-0.750413 -2.07461,-0.759765 -1.20695,0.04659 -2.43617,-0.09051 -3.63047,0.0625 -1.02088,0.407618 -0.73324,2.375084 0.475,2.216796 0.97057,0 1.94114,0 2.91172,0 0.1149,1.446465 -0.28898,3.171085 -1.72081,3.837393 -1.59969,0.715407 -3.86786,0.594792 -4.96474,-0.92333 -0.90933,-1.588138 -0.57647,-3.500808 -0.63999,-5.250357 -0.0151,-1.496482 0.13049,-3.403178 1.67657,-4.128609 1.71764,-0.824366 4.22974,-0.560627 5.22709,1.240294 0.25235,0.553419 0.45597,1.403141 1.2543,1.275391 0.66835,0.146274 1.48292,-0.341092 1.28841,-1.097327 -0.35429,-2.058539 -2.24435,-3.572767 -4.2224,-3.978845 1.05753,-0.534506 1.61112,-1.927025 1.2793,-3.033203 -0.45611,-0.857144 -2.12217,-0.563877 -2.03224,0.502109 0.0526,0.576368 -0.47326,0.887505 -0.98924,0.728359 -0.74656,-0.167548 -0.21003,-1.26866 -0.88868,-1.568359 -0.24805,-0.176706 -0.56507,-0.13958 -0.85156,-0.138672 z"
           style="fill:#29293d;fill-opacity:1;stroke:#29293d;stroke-opacity:1" /><path
           id="path49369"
           d="m 135.16406,71.949219 c -0.86829,0.02282 -1.0338,1.014303 -0.92578,1.696094 -0.16393,0.63107 0.43014,1.307557 0.96289,1.260937 -0.97728,0.342658 -0.57591,1.554083 -0.65625,2.329688 0.016,4.058141 -0.0317,8.120828 0.0234,12.176171 0.2301,1.137899 2.36721,1.004513 2.31641,-0.226562 -0.0159,-4.524812 0.0316,-9.054156 -0.0234,-13.576172 0.11846,-0.370968 -0.77956,-0.719184 -0.5293,-0.720703 0.87324,-0.08129 0.94344,-1.087263 0.85938,-1.766797 0.13076,-0.83741 -0.75564,-1.352329 -1.49805,-1.174609 -0.17636,0.002 -0.35308,-0.0035 -0.5293,0.002 z"
           style="fill:#29293d;fill-opacity:1;stroke:#29293d;stroke-opacity:1" /><path
           id="path49371"
           d="m 138.49805,74.859375 c -1.29394,-0.0023 -1.26277,2.336738 0.043,2.279297 1.16666,0 2.33333,0 3.5,0 0.0159,4.090563 -0.0317,8.185672 0.0234,12.273437 0.22738,1.128087 2.33921,1.00797 2.31641,-0.205078 0,-4.022786 0,-8.045573 0,-12.068359 1.28427,-0.0459 2.58777,0.08865 3.86133,-0.06055 1.00556,-0.373064 0.7882,-2.291619 -0.38086,-2.220703 -3.12107,0.0013 -6.24237,-0.0026 -9.36328,0.002 z"
           style="fill:#29293d;fill-opacity:1;stroke:#29293d;stroke-opacity:1" /><path
           id="path49373"
           d="m 150.15625,71.949219 c -0.8701,0.0229 -1.03073,1.014185 -0.92383,1.696094 -0.16542,0.631066 0.42731,1.307527 0.96094,1.260937 -0.977,0.342929 -0.57586,1.55382 -0.65625,2.329688 0.0186,4.061102 -0.037,8.129032 0.0273,12.185937 0.23803,1.128793 2.36406,0.990351 2.3125,-0.236328 -0.0159,-4.524812 0.0316,-9.054156 -0.0234,-13.576172 0.11756,-0.374233 -0.78655,-0.72276 -0.5293,-0.720703 0.87381,-0.08119 0.94358,-1.086742 0.85937,-1.766797 0.1317,-0.838025 -0.75528,-1.351954 -1.49804,-1.174609 -0.17636,0.002 -0.35308,-0.0035 -0.5293,0.002 z"
           style="fill:#29293d;fill-opacity:1;stroke:#29293d;stroke-opacity:1" /><path
           id="path49375"
           d="m 154.87305,74.859375 c -0.78639,-0.01694 -1.0759,0.841271 -0.95313,1.496094 0.0159,4.351631 -0.0317,8.707807 0.0234,13.05664 0.23359,1.132191 2.36725,1.006301 2.31641,-0.226562 0,-2.939453 0,-5.878906 0,-8.818359 1.04905,1.989555 1.98264,4.053137 3.10156,5.998046 0.52885,0.532151 1.52194,0.513688 2.12109,0.109375 0.66538,-0.820163 0.9934,-1.905974 1.54105,-2.835023 0.55402,-1.0908 1.10805,-2.181599 1.66208,-3.272398 0.019,3.017314 -0.0375,6.041582 0.0273,9.054687 0.23533,1.119087 2.33615,0.993472 2.3125,-0.214844 -0.0146,-4.524839 0.0291,-9.053977 -0.0215,-13.576172 -0.16854,-0.917443 -1.43948,-0.954111 -2.08203,-0.568359 -0.74531,0.987339 -1.16941,2.205598 -1.79214,3.280459 -0.88504,1.715758 -1.77009,3.431517 -2.65513,5.147275 -1.42868,-2.750643 -2.81,-5.531385 -4.26758,-8.263672 -0.30696,-0.438476 -0.86657,-0.372248 -1.33398,-0.367187 z"
           style="fill:#29293d;fill-opacity:1;stroke:#29293d;stroke-opacity:1" /><path
           id="path49377"
           d="m 172.74609,78.523438 c -0.8623,0.03427 -1.09764,1.105382 -0.65726,1.725355 1.26148,3.108305 2.4257,6.263762 3.74711,9.343004 0.47773,0.732601 1.62863,0.736185 2.30078,0.294922 0.67378,-0.700968 0.77725,-1.764541 1.21552,-2.61138 0.98672,-2.555148 2.06898,-5.081489 2.99737,-7.654245 0.15825,-0.781665 -0.70762,-1.270375 -1.39258,-1.097656 -1.05229,0.08921 -1.08076,1.392987 -1.4793,2.128745 -0.78815,2.015028 -1.5763,4.030055 -2.36445,6.045083 -1.02461,-2.578179 -1.99445,-5.1813 -3.05273,-7.744141 -0.32201,-0.440199 -0.81002,-0.469519 -1.31446,-0.429687 z"
           style="fill:#29293d;fill-opacity:1;stroke:#29293d;stroke-opacity:1" /><path
           id="path49379"
           d="m 186.71484,78.326172 c -2.01883,0.02603 -3.79301,1.534985 -4.32617,3.451172 -0.50774,1.808283 -0.50219,3.817404 0.17474,5.579947 0.65857,1.793065 2.46121,3.065403 4.38307,3.006208 1.89413,0.05523 4.0345,-0.853333 4.78204,-2.69553 0.28899,-0.776212 -0.56089,-1.404761 -1.2793,-1.228516 -0.91751,-0.03298 -1.12778,1.107659 -1.9336,1.357422 -1.22489,0.666561 -2.97978,0.355776 -3.63399,-0.966601 -0.16003,-0.38224 -0.72511,-1.313758 -0.28319,-1.449415 2.23793,-0.01772 4.48146,0.03493 6.71601,-0.02539 0.92313,-0.198372 0.79207,-1.277383 0.73416,-1.992709 -0.0948,-2.125553 -1.37127,-4.374581 -3.56423,-4.876432 -0.57727,-0.144829 -1.17614,-0.185942 -1.76954,-0.160156 z m 0.33789,2.230469 c 1.45663,-0.08696 2.646,1.218534 2.70313,2.625 -1.78571,-0.0052 -3.59816,0.01043 -5.36719,-0.0078 0.0692,-1.420709 1.18493,-2.691171 2.66406,-2.617187 z"
           style="fill:#29293d;fill-opacity:1;stroke:#29293d;stroke-opacity:1" /><path
           id="path49381"
           d="m 196.86328,74.859375 c -0.86795,0.03023 -1.14532,1.165122 -0.56834,1.730699 1.57746,2.58521 3.15493,5.170419 4.7324,7.755629 0.0332,1.715645 -0.0644,3.444036 0.0449,5.152344 0.27762,0.863657 1.66856,0.900557 2.16406,0.234375 0.33961,-0.858237 0.0629,-1.840613 0.15234,-2.746875 0.0362,-0.903102 -0.0715,-1.846656 0.0521,-2.725216 1.64623,-2.723413 3.33679,-5.42209 4.95574,-8.160722 0.26718,-0.806758 -0.60203,-1.437217 -1.3457,-1.242187 -1.0041,0.124832 -1.21244,1.333914 -1.76923,2.006804 -1.02484,1.667003 -2.04968,3.334006 -3.07452,5.001008 -1.4062,-2.233046 -2.72512,-4.539191 -4.18359,-6.728515 -0.31318,-0.307478 -0.75301,-0.295085 -1.16016,-0.277344 z"
           style="fill:#29293d;fill-opacity:1;stroke:#29293d;stroke-opacity:1" /><path
           id="path49383"
           d="m 212.73633,74.861328 c -1.07261,0.0104 -1.16063,1.305881 -1.52997,2.046581 -1.55797,4.057254 -3.20074,8.090041 -4.70636,12.162403 -0.15273,0.83827 0.8021,1.281728 1.50524,1.071796 0.93153,-0.166302 0.93237,-1.339831 1.31024,-2.021215 0.30211,-0.449247 0.27442,-1.380016 0.78882,-1.519331 2.09218,0 4.18437,10e-7 6.27656,0 0.4838,1.086805 0.76002,2.28351 1.37891,3.298829 0.64955,0.552707 2.10079,0.308816 2.03515,-0.730469 -0.41998,-1.488826 -1.11532,-2.903899 -1.63651,-4.365526 -1.26036,-3.163165 -2.43016,-6.368189 -3.7463,-9.505568 -0.38532,-0.555406 -1.0938,-0.435803 -1.67578,-0.4375 z m 2.74609,9.460938 c -1.55989,0 -3.11979,0 -4.67969,0 0.77995,-2.008464 1.5599,-4.016927 2.33985,-6.025391 0.77995,2.008464 1.55989,4.016927 2.33984,6.025391 z"
           style="fill:#29293d;fill-opacity:1;stroke:#29293d;stroke-opacity:1" /><path
           id="path49385"
           d="m 218.73438,74.859375 c -0.86732,0.02999 -1.14543,1.165779 -0.56835,1.730699 1.57747,2.58521 3.15494,5.170419 4.73241,7.755629 0.0332,1.715645 -0.0644,3.444036 0.0449,5.152344 0.27746,0.862878 1.66941,0.901144 2.16406,0.234375 0.33962,-0.858237 0.0629,-1.840613 0.15235,-2.746875 0.0362,-0.903102 -0.0715,-1.846656 0.0521,-2.725216 1.64623,-2.723413 3.33678,-5.42209 4.95574,-8.160722 0.26725,-0.807066 -0.60217,-1.436638 -1.3457,-1.242187 -1.00361,0.125204 -1.21289,1.33411 -1.76924,2.006804 -1.02484,1.667003 -2.04968,3.334006 -3.07452,5.001008 -1.40619,-2.233046 -2.72512,-4.539191 -4.18359,-6.728515 -0.31318,-0.307478 -0.75301,-0.295085 -1.16015,-0.277344 z"
           style="fill:#29293d;fill-opacity:1;stroke:#29293d;stroke-opacity:1" /><path
           id="path49387"
           d="m 232.10156,74.859375 c -0.82197,-0.0096 -1.05314,0.91624 -0.93359,1.576562 0.0159,4.324811 -0.0316,8.654159 0.0234,12.976172 0.22998,1.137818 2.36723,1.004901 2.3164,-0.226562 -0.0159,-4.524812 0.0316,-9.054156 -0.0234,-13.576172 -0.11708,-0.659714 -0.80866,-0.826538 -1.38282,-0.75 z"
           style="fill:#29293d;fill-opacity:1;stroke:#29293d;stroke-opacity:1" /><path
           id="path49389"
           d="m 236.48438,74.859375 c -0.83365,-0.0094 -1.04688,0.932326 -0.9336,1.596094 0.0159,4.318298 -0.0317,8.64114 0.0234,12.95664 0.22769,1.128914 2.33887,1.006864 2.3164,-0.205078 0,-3.160807 0,-6.321614 0,-9.482422 2.24691,3.389559 4.42053,6.833847 6.7129,10.189453 0.63783,0.477537 1.99627,0.370416 2.08984,-0.607421 0.007,-4.560484 0.0349,-9.12708 -0.0137,-13.685547 -0.21434,-1.1389 -2.34343,-1.028832 -2.31641,0.195312 -0.005,3.172331 -6.5e-4,6.345085 -0.002,9.517578 -2.25522,-3.403527 -4.43384,-6.864066 -6.73633,-10.232422 -0.30529,-0.296662 -0.75159,-0.243286 -1.14062,-0.242187 z"
           style="fill:#29293d;fill-opacity:1;stroke:#29293d;stroke-opacity:1" /><path
           id="path49391"
           d="m 253.63086,74.666016 c -2.02326,0.0081 -4.06699,1.15569 -4.82064,3.088008 -0.94269,2.137459 -0.59756,4.533724 -0.62246,6.799133 0.074,2.195325 1.16012,4.57264 3.33372,5.380437 2.05227,0.702407 4.50457,0.621143 6.34879,-0.601324 1.33528,-0.915822 2.2587,-2.553397 2.15512,-4.183832 -0.36847,-1.007094 -2.24496,-0.858607 -2.31471,0.282698 -0.18594,1.199273 -1.03304,2.298526 -2.27318,2.506364 -1.59276,0.381807 -3.72652,0.125427 -4.47656,-1.546875 -0.70421,-1.764307 -0.42327,-3.719601 -0.44532,-5.574219 -0.003,-1.463865 0.55902,-3.177206 2.10157,-3.65039 1.47555,-0.424019 3.39432,-0.35347 4.45898,0.896484 0.58997,0.649289 0.44603,1.651164 1.02149,2.28125 0.69282,0.398932 2.05527,0.202089 1.95898,-0.820312 -0.1339,-2.457149 -2.24014,-4.519344 -4.6579,-4.775444 -0.58505,-0.08564 -1.17748,-0.106198 -1.76788,-0.08198 z"
           style="fill:#29293d;fill-opacity:1;stroke:#29293d;stroke-opacity:1" /><path
           id="path49393"
           d="m 262.20117,74.859375 c -0.82119,-0.0082 -1.05316,0.915501 -0.93359,1.576562 0.0186,4.327774 -0.0369,8.66236 0.0273,12.985938 0.23977,1.129804 2.36264,0.989039 2.31446,-0.236328 -0.0186,-4.527776 0.0369,-9.062356 -0.0274,-13.585938 -0.12312,-0.653717 -0.80994,-0.815428 -1.38086,-0.740234 z"
           style="fill:#29293d;fill-opacity:1;stroke:#29293d;stroke-opacity:1" /><path
           id="path49395"
           d="m 266.58398,74.859375 c -0.82197,-0.0096 -1.05314,0.91624 -0.93359,1.576562 0.0159,4.324811 -0.0316,8.654159 0.0234,12.976172 0.19768,0.955901 1.3375,0.743193 2.05312,0.75 2.35634,-0.0311 4.72428,0.06066 7.07383,-0.04297 1.07379,-0.299465 0.87674,-2.31279 -0.31836,-2.236329 -2.16406,0 -4.32812,10e-7 -6.49219,0 -0.0159,-4.090562 0.0317,-8.185672 -0.0234,-12.273437 -0.11708,-0.659714 -0.80866,-0.826538 -1.38282,-0.75 z"
           style="fill:#29293d;fill-opacity:1;stroke:#29293d;stroke-opacity:1" /><path
           id="path49397"
           d="m 277.01172,74.859375 c -0.82044,-0.009 -1.0559,0.915566 -0.93555,1.576562 0.0186,4.327774 -0.0369,8.66236 0.0274,12.985938 0.2416,1.128963 2.36331,0.98953 2.31445,-0.236328 -0.0186,-4.527776 0.0369,-9.062356 -0.0274,-13.585938 -0.1195,-0.653367 -0.81087,-0.814978 -1.3789,-0.740234 z"
           style="fill:#29293d;fill-opacity:1;stroke:#29293d;stroke-opacity:1" /><path
           id="path49399"
           d="m 281.39258,74.859375 c -0.83155,-0.0074 -1.04743,0.932547 -0.9336,1.596094 0.0186,4.321259 -0.037,8.649343 0.0274,12.966406 0.23797,1.119323 2.33637,0.992798 2.31445,-0.214844 0,-1.567057 0,-3.134114 0,-4.701172 2.019,1.799936 3.95677,3.701799 6.02539,5.439453 0.68976,0.413459 2.01762,0.344288 2.0918,-0.666015 -0.0255,-0.888878 -1.04657,-1.256681 -1.54237,-1.877267 -1.88171,-1.730364 -3.76342,-3.460728 -5.64513,-5.191092 2.18031,-1.958407 4.39685,-3.885363 6.55469,-5.863282 0.57005,-0.693949 -0.22264,-1.708646 -1.04805,-1.490234 -1.11573,-0.005 -1.74535,1.118925 -2.57248,1.698151 -1.28795,1.139027 -2.5759,2.278055 -3.86385,3.417083 -0.0455,-1.495304 0.0872,-3.008948 -0.0586,-4.49414 -0.19392,-0.579598 -0.82135,-0.671698 -1.34961,-0.619141 z"
           style="fill:#29293d;fill-opacity:1;stroke:#29293d;stroke-opacity:1" /></g><g
         id="g49465"
         transform="matrix(1.1176635,0,0,1.1176635,-6.0113371,-255.55117)"><g
           id="g49409"
           data-name="pencil ruler"
           transform="matrix(0.70317061,0,0,0.70317061,-254.60876,-127.11706)"><g
             id="g49407"
             transform="matrix(0.51296235,0.51296235,-0.51296235,0.51296235,267.32808,-160.26291)"><path
               id="path49403"
               data-name="Path 109"
               d="m 532.80229,217.31481 c -1.60917,1.61484 -1.65634,4.17977 -0.10549,5.73649 l 69.35781,69.35989 c 1.55736,1.54658 4.11812,1.49948 5.73344,-0.10544 l 7.02578,-7.02778 -74.98581,-74.98789 z"
               fill="#e1e5f5"
               sodipodi:nodetypes="ccccccc"
               style="fill:#d1d6e0;fill-opacity:1;stroke-width:1.01856" /><path
               id="path49405"
               data-name="Path 110"
               d="m 546.23676,203.87634 -6.772,6.773 74.98585,74.98785 6.773,-6.773 c 1.54798,-1.55706 1.54798,-4.07194 0,-5.629 l -69.35985,-69.35885 c -1.55705,-1.54611 -4.06995,-1.54611 -5.627,0 z"
               fill="#f2f3f7"
               sodipodi:nodetypes="ccccccc"
               style="fill:#e0e4eb;fill-opacity:1" /></g></g><g
           id="g49443"
           transform="matrix(0.12689674,0,0,0.12689674,22.434868,21.633165)"
           style="fill:#2c2e4a;fill-opacity:1"><path
             d="M 458.319,43.582 258.32,3.462 C 243.104,0.407 227.438,0.399 212.223,3.431 L 10.773,43.598 C 4.512,44.842 0,50.338 0,56.729 V 76.327 C 0,83.72 6.001,89.72 13.392,89.72 h 225.33967 c 108.11725,-0.001 92.24094,-0.001 216.95533,-0.001 7.39,0 13.39,-6 13.39,-13.393 V 56.715 c 0,-6.377 -4.505,-11.873 -10.758,-13.133 z"
             id="path49411"
             style="fill:#2c2e4a;fill-opacity:1"
             sodipodi:nodetypes="ccccsssccssc" /><g
             id="g49413"
             style="fill:#2c2e4a;fill-opacity:1">
</g><g
             id="g49415"
             style="fill:#2c2e4a;fill-opacity:1">
</g><g
             id="g49417"
             style="fill:#2c2e4a;fill-opacity:1">
</g><g
             id="g49419"
             style="fill:#2c2e4a;fill-opacity:1">
</g><g
             id="g49421"
             style="fill:#2c2e4a;fill-opacity:1">
</g><g
             id="g49423"
             style="fill:#2c2e4a;fill-opacity:1">
</g><g
             id="g49425"
             style="fill:#2c2e4a;fill-opacity:1">
</g><g
             id="g49427"
             style="fill:#2c2e4a;fill-opacity:1">
</g><g
             id="g49429"
             style="fill:#2c2e4a;fill-opacity:1">
</g><g
             id="g49431"
             style="fill:#2c2e4a;fill-opacity:1">
</g><g
             id="g49433"
             style="fill:#2c2e4a;fill-opacity:1">
</g><g
             id="g49435"
             style="fill:#2c2e4a;fill-opacity:1">
</g><g
             id="g49437"
             style="fill:#2c2e4a;fill-opacity:1">
</g><g
             id="g49439"
             style="fill:#2c2e4a;fill-opacity:1">
</g><g
             id="g49441"
             style="fill:#2c2e4a;fill-opacity:1">
</g></g><g
           id="g49463"
           transform="matrix(0.10165627,0,0,0.10165627,36.109689,35.331034)"
           style="fill:#8592ad;fill-opacity:1">
	<path
   style="fill:#8592ad;fill-opacity:1"
   d="m 88,128 h 56 c 4.416,0 8,3.584 8,8 v 0 c 0,4.416 -3.584,8 -8,8 H 88 v 0 z"
   id="path49445" />
	<path
   style="fill:#8592ad;fill-opacity:1"
   d="m 88,32 h 56 c 4.416,0 8,3.584 8,8 v 0 c 0,4.416 -3.584,8 -8,8 H 88 v 0 z"
   id="path49447" />
	<path
   style="fill:#8592ad;fill-opacity:1"
   d="m 88,416 h 56 c 4.416,0 8,3.584 8,8 v 0 c 0,4.416 -3.584,8 -8,8 H 88 v 0 z"
   id="path49449" />
	<path
   style="fill:#8592ad;fill-opacity:1"
   d="m 88,80 h 32 c 4.416,0 8,3.584 8,8 v 0 c 0,4.416 -3.584,8 -8,8 H 88 v 0 z"
   id="path49451" />
	<path
   style="fill:#8592ad;fill-opacity:1"
   d="m 88,224 h 56 c 4.416,0 8,3.584 8,8 v 0 c 0,4.416 -3.584,8 -8,8 H 88 v 0 z"
   id="path49453" />
	<path
   style="fill:#8592ad;fill-opacity:1"
   d="m 88,176 h 32 c 4.416,0 8,3.584 8,8 v 0 c 0,4.416 -3.584,8 -8,8 H 88 v 0 z"
   id="path49455" />
	<path
   style="fill:#8592ad;fill-opacity:1"
   d="m 88,320 h 56 c 4.416,0 8,3.584 8,8 v 0 c 0,4.416 -3.584,8 -8,8 H 88 v 0 z"
   id="path49457" />
	<path
   style="fill:#8592ad;fill-opacity:1"
   d="m 88,272 h 32 c 4.416,0 8,3.584 8,8 v 0 c 0,4.416 -3.584,8 -8,8 H 88 v 0 z"
   id="path49459" />
	<path
   style="fill:#8592ad;fill-opacity:1"
   d="m 88,368 h 32 c 4.416,0 8,3.584 8,8 v 0 c 0,4.416 -3.584,8 -8,8 H 88 v 0 z"
   id="path49461" />
</g></g><g
         aria-label="DERS-T"
         id="g100430"
         style="font-weight:bold;font-size:22.5778px;font-family:Rubik;-inkscape-font-specification:'Rubik Bold';opacity:1;stroke:#29293d;stroke-width:0;stroke-linecap:round;stroke-linejoin:round;stroke-opacity:1;paint-order:stroke fill markers"
         transform="matrix(0.29099151,0,0,0.29099151,34.609672,-162.45492)"><path
           id="path100428"
           style="font-weight:300;-inkscape-font-specification:'Rubik Light';fill:#ffffff;fill-opacity:1;stroke:#29293d;stroke-width:31.5755;stroke-linecap:round;stroke-linejoin:round;stroke-dasharray:none;stroke-opacity:1"
           d="m 583.47858,-208.74483 c -0.98257,0.005 -1.96687,0.0271 -2.94775,0.0216 -15.69877,-0.1623 -32.72135,9.68995 -35.88866,25.9312 -3.19361,13.41762 3.53031,28.91905 16.55249,34.31652 4.14338,2.27546 8.4632,3.88864 12.80244,5.36545 8.02794,2.73221 15.46723,3.60591 21.98644,10.12512 9.6144,9.6144 -17.64222,18.24969 -27.60971,4.62626 -3.29083,-4.49786 -3.149,-10.51659 -8.94602,-12.86194 -7.71858,-3.27232 -18.39578,2.52495 -17.92269,11.63236 0.26707,15.86895 14.54062,28.18223 29.39999,30.874769 14.2765,3.090307 30.51322,1.594815 42.49991,-7.310789 13.79386,-10.48221 16.16665,-32.91395 4.089,-45.57567 -8.93011,-8.74985 -21.70363,-11.45329 -33.11038,-15.55728 -4.63435,-1.93141 -11.53509,-3.13585 -13.60834,-6.89972 -1.67861,-3.54394 1.80118,-6.50857 5.10042,-7.77233 6.64113,-1.83296 15.23404,-1.71548 19.82116,4.19897 3.15202,5.08673 3.18978,10.24228 12.15339,12.42203 7.65045,1.31451 16.47656,-5.36057 14.61616,-13.5831 -1.85271,-17.4365 -19.23279,-29.71308 -36.04551,-29.87055 -0.97896,-0.0757 -1.95977,-0.0876 -2.94234,-0.0829 z m -103.04331,2.12383 c -1.93023,0.0113 -3.89953,0.0332 -5.90632,0.0451 -10.65087,0.0632 -23.39167,-1.03011 -27.57546,6.21642 -2.76802,6.6101 -0.82188,15.13869 -1.50182,22.68958 0.0568,23.66028 -0.30505,46.13691 0.39304,69.77247 0,13.85169 25.30199,14.12043 25.30199,0.33534 0.70275,-9.44859 0.0927,-15.80687 0.78426,-24.71965 0,-2.89894 3.29356,-3.38699 6.54094,-3.39126 3.16538,0.10742 6.10765,-0.95713 8.69001,3.51567 6.24752,10.821 11.21908,21.59895 19.04771,31.34533 7.23691,6.491369 21.67626,2.3016 21.93776,-8.17258 -1.10318,-9.26019 -8.22869,-16.20513 -12.09389,-24.3807 -1.22783,-2.89652 -4.64965,-6.3352 -4.56676,-8.90816 18.63947,-11.5166 20.20272,-41.36064 3.90509,-55.54214 -9.80764,-8.4206 -21.44498,-8.88444 -34.95655,-8.80539 z m -108.76213,0.0847 c -4.66367,0.002 -6.02944,0.0152 -10.1738,0.009 -9.0558,-0.20004 -12.55003,9.14032 -12.55003,16.52183 0.0807,27.76588 -0.32406,54.32248 0.35878,82.06289 3.2704,12.205325 11.97377,10.253129 17.57653,10.253129 16.37479,-0.208749 32.72604,0.506272 49.15264,-0.522842 11.26165,-2.905187 11.35822,-21.438577 0.42007,-24.890927 -7.60732,-1.19335 -15.06501,-0.58349 -23.17636,-0.58234 -5.98796,8.5e-4 -11.97619,0.005 -17.96416,0.0108 v -16.10536 c 12.49925,-0.25405 24.33543,1.26709 36.73422,-0.19832 12.95099,-3.47021 11.67493,-22.74257 -0.37681,-25.46245 -12.07036,-0.64402 -24.24678,-0.1692 -36.35741,-0.31371 v -14.81989 c 13.43465,-0.26494 35.45852,0.52298 40.35265,-0.73738 13.03199,-3.49191 10.27377,-24.84225 -2.41048,-24.84225 -14.60626,0 -27.27121,-0.2096 -41.58584,-0.38222 z m -92.25472,0.19291 c -7.18859,0.005 -14.41532,0.4057 -21.55555,0.0234 l -0.57513,0.005 -0.31551,0.005 c -5.37166,-0.37505 -11.21415,1.97025 -12.99174,7.44961 -2.34359,7.35348 -0.4122,15.18245 -1.01864,22.75087 0.0459,23.22531 -0.23264,39.87269 0.36779,63.07288 0,15.049713 12.48289,15.584323 18.36621,15.584323 19.80497,-0.574365 34.39214,2.406284 49.37259,-6.275913 12.18852,-7.64172 16.47897,-22.88162 16.37039,-36.52869 0.45918,-12.60638 0.82731,-25.4497 -1.70555,-37.86103 -2.98907,-12.21441 -12.3454,-23.25681 -24.99189,-25.87892 -6.98532,-1.96319 -14.13438,-2.35251 -21.32297,-2.34739 z m 457.26934,0.52285 c -10.25958,0.007 -28.54899,0.0395 -38.80551,0.018 v -0.002 c -10.20516,-0.25692 -15.13013,13.48692 -9.39495,21.0273 4.49037,6.36606 14.325,5.3943 21.76469,5.3943 3.41901,0 12.47406,-0.14924 12.47406,-0.14924 0,20.04293 -0.40598,46.25183 0.40205,70.37922 0,6.96993 6.05219,11.570864 12.09431,11.570864 7.86591,0 14.08706,-2.234005 14.08706,-11.532414 0,-8.82513 -0.67307,-13.82287 -0.20689,-22.74563 v -48.00238 c 14.69306,-0.60164 24.90386,0.39307 29.73976,-2.39894 10.08053,-5.87601 8.29966,-21.90499 -4.45523,-23.42949 -10.25328,-0.119 -27.43977,-0.13698 -37.69935,-0.12981 z m -246.61235,22.44438 c 5.38436,0 10.1143,4.27105 10.1143,10.10709 0,2.40423 0.1306,10.86071 -7.6299,10.86071 -6.83932,0 -13.82887,0.13032 -20.74063,0.16587 0.22073,-6.15165 -0.11035,-14.72673 -0.0234,-20.87946 8.29536,-0.004 10.94358,-0.25421 18.27967,-0.25421 z m -208.41237,2.87203 c 4.01468,-0.003 7.81588,0.20236 11.04641,1.03487 4.74265,1.83345 6.69449,5.64044 7.79757,13.16482 0,12.22436 0.067,17.23631 0.29026,27.8567 -0.44537,5.31868 -3.52856,12.54054 -9.58605,14.16364 -7.13792,1.9126 -14.65137,0.74186 -21.97382,0.78246 0.2669,-18.92834 0.0173,-37.85869 0.10096,-56.78795 4.08275,0 8.30998,-0.2113 12.32467,-0.21454 z m 368.99183,16.28385 c -7.09444,0 -12.80604,5.7116 -12.80604,12.80604 v 0.96275 c 0,7.09444 5.7116,12.80605 12.80604,12.80605 h 38.11885 c 7.09444,0 12.80605,-5.71161 12.80605,-12.80605 v -0.96275 c 0,-7.09444 -5.71161,-12.80604 -12.80605,-12.80604 z"
           sodipodi:nodetypes="ccccssscccccccccccccssccccccscccccsssccccccscccccccsssccccccccccccccccccsscscccccccsssccssccccscccsssssssss" /></g></g><g
       id="g106209"
       transform="translate(5.3667548,-2.5602531)"><g
         id="g16340"
         transform="matrix(0.07456687,0,0,0.07456687,-97.444111,127.54546)"
         style="fill:#4080bf;fill-opacity:1"><g
           id="g16308"
           style="fill:#4080bf;fill-opacity:1">
</g><g
           id="g16310"
           style="fill:#4080bf;fill-opacity:1">
</g><g
           id="g16312"
           style="fill:#4080bf;fill-opacity:1">
</g><g
           id="g16314"
           style="fill:#4080bf;fill-opacity:1">
</g><g
           id="g16316"
           style="fill:#4080bf;fill-opacity:1">
</g><g
           id="g16318"
           style="fill:#4080bf;fill-opacity:1">
</g><g
           id="g16320"
           style="fill:#4080bf;fill-opacity:1">
</g><g
           id="g16322"
           style="fill:#4080bf;fill-opacity:1">
</g><g
           id="g16324"
           style="fill:#4080bf;fill-opacity:1">
</g><g
           id="g16326"
           style="fill:#4080bf;fill-opacity:1">
</g><g
           id="g16328"
           style="fill:#4080bf;fill-opacity:1">
</g><g
           id="g16330"
           style="fill:#4080bf;fill-opacity:1">
</g><g
           id="g16332"
           style="fill:#4080bf;fill-opacity:1">
</g><g
           id="g16334"
           style="fill:#4080bf;fill-opacity:1">
</g><g
           id="g16336"
           style="fill:#4080bf;fill-opacity:1">
</g><rect
           style="opacity:1;fill:url(#linearGradient16342);fill-opacity:1;stroke:#000000;stroke-width:0;stroke-linecap:round;stroke-linejoin:round;stroke-dasharray:none;stroke-dashoffset:0;stroke-opacity:1;paint-order:stroke fill markers"
           id="rect16338"
           width="4193.6636"
           height="1358.4966"
           x="1297.6965"
           y="-3381.717"
           ry="265.89841" /></g><g
         id="g27257"
         transform="matrix(1.1420859,0,0,1.1420859,-8.3279125,-135.44652)"><g
           id="g27201"
           data-name="pencil ruler"
           transform="matrix(0.70317061,0,0,0.70317061,-254.60876,-127.11706)"><g
             id="g27199"
             transform="matrix(0.51296235,0.51296235,-0.51296235,0.51296235,267.32808,-160.26291)"><path
               id="path27195"
               data-name="Path 109"
               d="m 532.80229,217.31481 c -1.60917,1.61484 -1.65634,4.17977 -0.10549,5.73649 l 69.35781,69.35989 c 1.55736,1.54658 4.11812,1.49948 5.73344,-0.10544 l 7.02578,-7.02778 -74.98581,-74.98789 z"
               fill="#e1e5f5"
               sodipodi:nodetypes="ccccccc"
               style="fill:#d1d6e0;fill-opacity:1;stroke-width:1.01856" /><path
               id="path27197"
               data-name="Path 110"
               d="m 546.23676,203.87634 -6.772,6.773 74.98585,74.98785 6.773,-6.773 c 1.54798,-1.55706 1.54798,-4.07194 0,-5.629 l -69.35985,-69.35885 c -1.55705,-1.54611 -4.06995,-1.54611 -5.627,0 z"
               fill="#f2f3f7"
               sodipodi:nodetypes="ccccccc"
               style="fill:#e0e4eb;fill-opacity:1" /></g></g><g
           id="g27235"
           transform="matrix(0.12689674,0,0,0.12689674,22.434868,21.633165)"
           style="fill:#2c2e4a;fill-opacity:1"><path
             d="M 458.319,43.582 258.32,3.462 C 243.104,0.407 227.438,0.399 212.223,3.431 L 10.773,43.598 C 4.512,44.842 0,50.338 0,56.729 V 76.327 C 0,83.72 6.001,89.72 13.392,89.72 h 225.33967 c 108.11725,-0.001 92.24094,-0.001 216.95533,-0.001 7.39,0 13.39,-6 13.39,-13.393 V 56.715 c 0,-6.377 -4.505,-11.873 -10.758,-13.133 z"
             id="path27203"
             style="fill:#2c2e4a;fill-opacity:1"
             sodipodi:nodetypes="ccccsssccssc" /><g
             id="g27205"
             style="fill:#2c2e4a;fill-opacity:1">
</g><g
             id="g27207"
             style="fill:#2c2e4a;fill-opacity:1">
</g><g
             id="g27209"
             style="fill:#2c2e4a;fill-opacity:1">
</g><g
             id="g27211"
             style="fill:#2c2e4a;fill-opacity:1">
</g><g
             id="g27213"
             style="fill:#2c2e4a;fill-opacity:1">
</g><g
             id="g27215"
             style="fill:#2c2e4a;fill-opacity:1">
</g><g
             id="g27217"
             style="fill:#2c2e4a;fill-opacity:1">
</g><g
             id="g27219"
             style="fill:#2c2e4a;fill-opacity:1">
</g><g
             id="g27221"
             style="fill:#2c2e4a;fill-opacity:1">
</g><g
             id="g27223"
             style="fill:#2c2e4a;fill-opacity:1">
</g><g
             id="g27225"
             style="fill:#2c2e4a;fill-opacity:1">
</g><g
             id="g27227"
             style="fill:#2c2e4a;fill-opacity:1">
</g><g
             id="g27229"
             style="fill:#2c2e4a;fill-opacity:1">
</g><g
             id="g27231"
             style="fill:#2c2e4a;fill-opacity:1">
</g><g
             id="g27233"
             style="fill:#2c2e4a;fill-opacity:1">
</g></g><g
           id="g27255"
           transform="matrix(0.10165627,0,0,0.10165627,36.109689,35.331034)"
           style="fill:#8592ad;fill-opacity:1">
	<path
   style="fill:#8592ad;fill-opacity:1"
   d="m 88,128 h 56 c 4.416,0 8,3.584 8,8 v 0 c 0,4.416 -3.584,8 -8,8 H 88 v 0 z"
   id="path27237" />
	<path
   style="fill:#8592ad;fill-opacity:1"
   d="m 88,32 h 56 c 4.416,0 8,3.584 8,8 v 0 c 0,4.416 -3.584,8 -8,8 H 88 v 0 z"
   id="path27239" />
	<path
   style="fill:#8592ad;fill-opacity:1"
   d="m 88,416 h 56 c 4.416,0 8,3.584 8,8 v 0 c 0,4.416 -3.584,8 -8,8 H 88 v 0 z"
   id="path27241" />
	<path
   style="fill:#8592ad;fill-opacity:1"
   d="m 88,80 h 32 c 4.416,0 8,3.584 8,8 v 0 c 0,4.416 -3.584,8 -8,8 H 88 v 0 z"
   id="path27243" />
	<path
   style="fill:#8592ad;fill-opacity:1"
   d="m 88,224 h 56 c 4.416,0 8,3.584 8,8 v 0 c 0,4.416 -3.584,8 -8,8 H 88 v 0 z"
   id="path27245" />
	<path
   style="fill:#8592ad;fill-opacity:1"
   d="m 88,176 h 32 c 4.416,0 8,3.584 8,8 v 0 c 0,4.416 -3.584,8 -8,8 H 88 v 0 z"
   id="path27247" />
	<path
   style="fill:#8592ad;fill-opacity:1"
   d="m 88,320 h 56 c 4.416,0 8,3.584 8,8 v 0 c 0,4.416 -3.584,8 -8,8 H 88 v 0 z"
   id="path27249" />
	<path
   style="fill:#8592ad;fill-opacity:1"
   d="m 88,272 h 32 c 4.416,0 8,3.584 8,8 v 0 c 0,4.416 -3.584,8 -8,8 H 88 v 0 z"
   id="path27251" />
	<path
   style="fill:#8592ad;fill-opacity:1"
   d="m 88,368 h 32 c 4.416,0 8,3.584 8,8 v 0 c 0,4.416 -3.584,8 -8,8 H 88 v 0 z"
   id="path27253" />
</g></g><g
         aria-label="DERS-T"
         id="g101002"
         style="font-weight:bold;font-size:22.5778px;font-family:Rubik;-inkscape-font-specification:'Rubik Bold';opacity:1;stroke:#29293d;stroke-width:0;stroke-linecap:round;stroke-linejoin:round;stroke-opacity:1;paint-order:stroke fill markers"
         transform="matrix(0.3403744,0,0,0.3403744,23.417183,-20.584319)"><path
           id="path101000"
           style="font-weight:300;-inkscape-font-specification:'Rubik Light';fill:#ffffff;fill-opacity:1;stroke:#29293d;stroke-width:31.5755;stroke-linecap:round;stroke-linejoin:round;stroke-dasharray:none;stroke-opacity:1"
           d="m 583.47858,-208.74483 c -0.98257,0.005 -1.96687,0.0271 -2.94775,0.0216 -15.69877,-0.1623 -32.72135,9.68995 -35.88866,25.9312 -3.19361,13.41762 3.53031,28.91905 16.55249,34.31652 4.14338,2.27546 8.4632,3.88864 12.80244,5.36545 8.02794,2.73221 15.46723,3.60591 21.98644,10.12512 9.6144,9.6144 -17.64222,18.24969 -27.60971,4.62626 -3.29083,-4.49786 -3.149,-10.51659 -8.94602,-12.86194 -7.71858,-3.27232 -18.39578,2.52495 -17.92269,11.63236 0.26707,15.86895 14.54062,28.18223 29.39999,30.874769 14.2765,3.090307 30.51322,1.594815 42.49991,-7.310789 13.79386,-10.48221 16.16665,-32.91395 4.089,-45.57567 -8.93011,-8.74985 -21.70363,-11.45329 -33.11038,-15.55728 -4.63435,-1.93141 -11.53509,-3.13585 -13.60834,-6.89972 -1.67861,-3.54394 1.80118,-6.50857 5.10042,-7.77233 6.64113,-1.83296 15.23404,-1.71548 19.82116,4.19897 3.15202,5.08673 3.18978,10.24228 12.15339,12.42203 7.65045,1.31451 16.47656,-5.36057 14.61616,-13.5831 -1.85271,-17.4365 -19.23279,-29.71308 -36.04551,-29.87055 -0.97896,-0.0757 -1.95977,-0.0876 -2.94234,-0.0829 z m -103.04331,2.12383 c -1.93023,0.0113 -3.89953,0.0332 -5.90632,0.0451 -10.65087,0.0632 -23.39167,-1.03011 -27.57546,6.21642 -2.76802,6.6101 -0.82188,15.13869 -1.50182,22.68958 0.0568,23.66028 -0.30505,46.13691 0.39304,69.77247 0,13.85169 25.30199,14.12043 25.30199,0.33534 0.70275,-9.44859 0.0927,-15.80687 0.78426,-24.71965 0,-2.89894 3.29356,-3.38699 6.54094,-3.39126 3.16538,0.10742 6.10765,-0.95713 8.69001,3.51567 6.24752,10.821 11.21908,21.59895 19.04771,31.34533 7.23691,6.491369 21.67626,2.3016 21.93776,-8.17258 -1.10318,-9.26019 -8.22869,-16.20513 -12.09389,-24.3807 -1.22783,-2.89652 -4.64965,-6.3352 -4.56676,-8.90816 18.63947,-11.5166 20.20272,-41.36064 3.90509,-55.54214 -9.80764,-8.4206 -21.44498,-8.88444 -34.95655,-8.80539 z m -108.76213,0.0847 c -4.66367,0.002 -6.02944,0.0152 -10.1738,0.009 -9.0558,-0.20004 -12.55003,9.14032 -12.55003,16.52183 0.0807,27.76588 -0.32406,54.32248 0.35878,82.06289 3.2704,12.205325 11.97377,10.253129 17.57653,10.253129 16.37479,-0.208749 32.72604,0.506272 49.15264,-0.522842 11.26165,-2.905187 11.35822,-21.438577 0.42007,-24.890927 -7.60732,-1.19335 -15.06501,-0.58349 -23.17636,-0.58234 -5.98796,8.5e-4 -11.97619,0.005 -17.96416,0.0108 v -16.10536 c 12.49925,-0.25405 24.33543,1.26709 36.73422,-0.19832 12.95099,-3.47021 11.67493,-22.74257 -0.37681,-25.46245 -12.07036,-0.64402 -24.24678,-0.1692 -36.35741,-0.31371 v -14.81989 c 13.43465,-0.26494 35.45852,0.52298 40.35265,-0.73738 13.03199,-3.49191 10.27377,-24.84225 -2.41048,-24.84225 -14.60626,0 -27.27121,-0.2096 -41.58584,-0.38222 z m -92.25472,0.19291 c -7.18859,0.005 -14.41532,0.4057 -21.55555,0.0234 l -0.57513,0.005 -0.31551,0.005 c -5.37166,-0.37505 -11.21415,1.97025 -12.99174,7.44961 -2.34359,7.35348 -0.4122,15.18245 -1.01864,22.75087 0.0459,23.22531 -0.23264,39.87269 0.36779,63.07288 0,15.049713 12.48289,15.584323 18.36621,15.584323 19.80497,-0.574365 34.39214,2.406284 49.37259,-6.275913 12.18852,-7.64172 16.47897,-22.88162 16.37039,-36.52869 0.45918,-12.60638 0.82731,-25.4497 -1.70555,-37.86103 -2.98907,-12.21441 -12.3454,-23.25681 -24.99189,-25.87892 -6.98532,-1.96319 -14.13438,-2.35251 -21.32297,-2.34739 z m 457.26934,0.52285 c -10.25958,0.007 -28.54899,0.0395 -38.80551,0.018 v -0.002 c -10.20516,-0.25692 -15.13013,13.48692 -9.39495,21.0273 4.49037,6.36606 14.325,5.3943 21.76469,5.3943 3.41901,0 12.47406,-0.14924 12.47406,-0.14924 0,20.04293 -0.40598,46.25183 0.40205,70.37922 0,6.96993 6.05219,11.570864 12.09431,11.570864 7.86591,0 14.08706,-2.234005 14.08706,-11.532414 0,-8.82513 -0.67307,-13.82287 -0.20689,-22.74563 v -48.00238 c 14.69306,-0.60164 24.90386,0.39307 29.73976,-2.39894 10.08053,-5.87601 8.29966,-21.90499 -4.45523,-23.42949 -10.25328,-0.119 -27.43977,-0.13698 -37.69935,-0.12981 z m -246.61235,22.44438 c 5.38436,0 10.1143,4.27105 10.1143,10.10709 0,2.40423 0.1306,10.86071 -7.6299,10.86071 -6.83932,0 -13.82887,0.13032 -20.74063,0.16587 0.22073,-6.15165 -0.11035,-14.72673 -0.0234,-20.87946 8.29536,-0.004 10.94358,-0.25421 18.27967,-0.25421 z m -208.41237,2.87203 c 4.01468,-0.003 7.81588,0.20236 11.04641,1.03487 4.74265,1.83345 6.69449,5.64044 7.79757,13.16482 0,12.22436 0.067,17.23631 0.29026,27.8567 -0.44537,5.31868 -3.52856,12.54054 -9.58605,14.16364 -7.13792,1.9126 -14.65137,0.74186 -21.97382,0.78246 0.2669,-18.92834 0.0173,-37.85869 0.10096,-56.78795 4.08275,0 8.30998,-0.2113 12.32467,-0.21454 z m 368.99183,16.28385 c -7.09444,0 -12.80604,5.7116 -12.80604,12.80604 v 0.96275 c 0,7.09444 5.7116,12.80605 12.80604,12.80605 h 38.11885 c 7.09444,0 12.80605,-5.71161 12.80605,-12.80605 v -0.96275 c 0,-7.09444 -5.71161,-12.80604 -12.80605,-12.80604 z"
           sodipodi:nodetypes="ccccssscccccccccccccssccccccscccccsssccccccscccccccsssccccccccccccccccccsscscccccccsssccssccccscccsssssssss" /></g></g><g
       id="g106156"><g
         id="g4303"
         transform="matrix(0.07297233,0,0,0.07297233,-87.363242,253.86079)"
         style="fill:#4080bf;fill-opacity:1"><g
           id="g4245"
           style="fill:#4080bf;fill-opacity:1">
</g><g
           id="g4247"
           style="fill:#4080bf;fill-opacity:1">
</g><g
           id="g4249"
           style="fill:#4080bf;fill-opacity:1">
</g><g
           id="g4251"
           style="fill:#4080bf;fill-opacity:1">
</g><g
           id="g4253"
           style="fill:#4080bf;fill-opacity:1">
</g><g
           id="g4255"
           style="fill:#4080bf;fill-opacity:1">
</g><g
           id="g4257"
           style="fill:#4080bf;fill-opacity:1">
</g><g
           id="g4259"
           style="fill:#4080bf;fill-opacity:1">
</g><g
           id="g4261"
           style="fill:#4080bf;fill-opacity:1">
</g><g
           id="g4263"
           style="fill:#4080bf;fill-opacity:1">
</g><g
           id="g4265"
           style="fill:#4080bf;fill-opacity:1">
</g><g
           id="g4267"
           style="fill:#4080bf;fill-opacity:1">
</g><g
           id="g4269"
           style="fill:#4080bf;fill-opacity:1">
</g><g
           id="g4271"
           style="fill:#4080bf;fill-opacity:1">
</g><g
           id="g4273"
           style="fill:#4080bf;fill-opacity:1">
</g><rect
           style="opacity:1;fill:url(#linearGradient6229);fill-opacity:1;stroke:#000000;stroke-width:0;stroke-linecap:round;stroke-linejoin:round;stroke-dasharray:none;stroke-dashoffset:0;stroke-opacity:1;paint-order:stroke fill markers"
           id="rect39399"
           width="1243.9155"
           height="1243.9155"
           x="1297.6965"
           y="-3381.717"
           ry="236.31879" /></g><g
         id="g16458"
         transform="matrix(1.0357303,0,0,1.0357303,-1.522971,-1.190568)"><g
           id="g16402"
           data-name="pencil ruler"
           transform="matrix(0.70317061,0,0,0.70317061,-254.60876,-127.11706)"><g
             id="g16400"
             transform="matrix(0.51296235,0.51296235,-0.51296235,0.51296235,267.32808,-160.26291)"><path
               id="path16396"
               data-name="Path 109"
               d="m 532.80229,217.31481 c -1.60917,1.61484 -1.65634,4.17977 -0.10549,5.73649 l 69.35781,69.35989 c 1.55736,1.54658 4.11812,1.49948 5.73344,-0.10544 l 7.02578,-7.02778 -74.98581,-74.98789 z"
               fill="#e1e5f5"
               sodipodi:nodetypes="ccccccc"
               style="fill:#d1d6e0;fill-opacity:1;stroke-width:1.01856" /><path
               id="path16398"
               data-name="Path 110"
               d="m 546.23676,203.87634 -6.772,6.773 74.98585,74.98785 6.773,-6.773 c 1.54798,-1.55706 1.54798,-4.07194 0,-5.629 l -69.35985,-69.35885 c -1.55705,-1.54611 -4.06995,-1.54611 -5.627,0 z"
               fill="#f2f3f7"
               sodipodi:nodetypes="ccccccc"
               style="fill:#e0e4eb;fill-opacity:1" /></g></g><g
           id="g16436"
           transform="matrix(0.12689674,0,0,0.12689674,22.434868,21.633165)"
           style="fill:#2c2e4a;fill-opacity:1"><path
             d="M 458.319,43.582 258.32,3.462 C 243.104,0.407 227.438,0.399 212.223,3.431 L 10.773,43.598 C 4.512,44.842 0,50.338 0,56.729 V 76.327 C 0,83.72 6.001,89.72 13.392,89.72 h 225.33967 c 108.11725,-0.001 92.24094,-0.001 216.95533,-0.001 7.39,0 13.39,-6 13.39,-13.393 V 56.715 c 0,-6.377 -4.505,-11.873 -10.758,-13.133 z"
             id="path16404"
             style="fill:#2c2e4a;fill-opacity:1"
             sodipodi:nodetypes="ccccsssccssc" /><g
             id="g16406"
             style="fill:#2c2e4a;fill-opacity:1">
</g><g
             id="g16408"
             style="fill:#2c2e4a;fill-opacity:1">
</g><g
             id="g16410"
             style="fill:#2c2e4a;fill-opacity:1">
</g><g
             id="g16412"
             style="fill:#2c2e4a;fill-opacity:1">
</g><g
             id="g16414"
             style="fill:#2c2e4a;fill-opacity:1">
</g><g
             id="g16416"
             style="fill:#2c2e4a;fill-opacity:1">
</g><g
             id="g16418"
             style="fill:#2c2e4a;fill-opacity:1">
</g><g
             id="g16420"
             style="fill:#2c2e4a;fill-opacity:1">
</g><g
             id="g16422"
             style="fill:#2c2e4a;fill-opacity:1">
</g><g
             id="g16424"
             style="fill:#2c2e4a;fill-opacity:1">
</g><g
             id="g16426"
             style="fill:#2c2e4a;fill-opacity:1">
</g><g
             id="g16428"
             style="fill:#2c2e4a;fill-opacity:1">
</g><g
             id="g16430"
             style="fill:#2c2e4a;fill-opacity:1">
</g><g
             id="g16432"
             style="fill:#2c2e4a;fill-opacity:1">
</g><g
             id="g16434"
             style="fill:#2c2e4a;fill-opacity:1">
</g></g><g
           id="g16456"
           transform="matrix(0.10165627,0,0,0.10165627,36.109689,35.331034)"
           style="fill:#8592ad;fill-opacity:1">
	<path
   style="fill:#8592ad;fill-opacity:1"
   d="m 88,128 h 56 c 4.416,0 8,3.584 8,8 v 0 c 0,4.416 -3.584,8 -8,8 H 88 v 0 z"
   id="path16438" />
	<path
   style="fill:#8592ad;fill-opacity:1"
   d="m 88,32 h 56 c 4.416,0 8,3.584 8,8 v 0 c 0,4.416 -3.584,8 -8,8 H 88 v 0 z"
   id="path16440" />
	<path
   style="fill:#8592ad;fill-opacity:1"
   d="m 88,416 h 56 c 4.416,0 8,3.584 8,8 v 0 c 0,4.416 -3.584,8 -8,8 H 88 v 0 z"
   id="path16442" />
	<path
   style="fill:#8592ad;fill-opacity:1"
   d="m 88,80 h 32 c 4.416,0 8,3.584 8,8 v 0 c 0,4.416 -3.584,8 -8,8 H 88 v 0 z"
   id="path16444" />
	<path
   style="fill:#8592ad;fill-opacity:1"
   d="m 88,224 h 56 c 4.416,0 8,3.584 8,8 v 0 c 0,4.416 -3.584,8 -8,8 H 88 v 0 z"
   id="path16446" />
	<path
   style="fill:#8592ad;fill-opacity:1"
   d="m 88,176 h 32 c 4.416,0 8,3.584 8,8 v 0 c 0,4.416 -3.584,8 -8,8 H 88 v 0 z"
   id="path16448" />
	<path
   style="fill:#8592ad;fill-opacity:1"
   d="m 88,320 h 56 c 4.416,0 8,3.584 8,8 v 0 c 0,4.416 -3.584,8 -8,8 H 88 v 0 z"
   id="path16450" />
	<path
   style="fill:#8592ad;fill-opacity:1"
   d="m 88,272 h 32 c 4.416,0 8,3.584 8,8 v 0 c 0,4.416 -3.584,8 -8,8 H 88 v 0 z"
   id="path16452" />
	<path
   style="fill:#8592ad;fill-opacity:1"
   d="m 88,368 h 32 c 4.416,0 8,3.584 8,8 v 0 c 0,4.416 -3.584,8 -8,8 H 88 v 0 z"
   id="path16454" />
</g></g><g
         aria-label="EĞİTİM ve YAYINCILIK"
         id="g34774"
         style="font-weight:300;font-size:20.3516px;font-family:Rubik;-inkscape-font-specification:'Rubik Light';letter-spacing:-0.72581px;opacity:1;fill:#858fad;fill-opacity:1;stroke:#000000;stroke-width:0;stroke-linecap:round;stroke-linejoin:round;paint-order:stroke fill markers"
         transform="matrix(1.0486838,0,0,1.0486838,2.5613558,-156.14071)"><path
           id="path34738"
           d="m 111.51172,216.0789 c -0.83241,-0.009 -1.04959,0.93213 -0.93555,1.5961 0.0186,4.32125 -0.037,8.64934 0.0273,12.9664 0.20603,0.94779 1.33786,0.73161 2.05117,0.74024 2.43775,-0.0306 4.88706,0.0599 7.31797,-0.043 1.07144,-0.30156 0.87652,-2.31121 -0.31836,-2.23633 -2.24545,0 -4.49089,0 -6.73633,0 0,-1.44466 0,-2.88933 0,-4.33399 2.11916,-0.0169 4.24292,0.0329 6.35937,-0.0234 1.15749,-0.20657 0.99913,-2.3378 -0.23437,-2.25586 -2.04167,0 -4.08333,0 -6.125,0 0,-1.37695 0,-2.7539 0,-4.13086 2.26958,-0.0165 4.54364,0.0325 6.81055,-0.0234 1.15371,-0.21288 0.99387,-2.33731 -0.23829,-2.25781 -2.65947,0.001 -5.31918,-0.003 -7.97851,0.002 z"
           style="fill:#858fad;fill-opacity:1" /><path
           id="path34740"
           d="m 125.26953,212.51835 c -0.86454,0.0239 -1.00458,1.03901 -0.78025,1.6951 0.13175,0.74323 0.5825,1.42946 1.25486,1.78733 -2.16892,0.33506 -3.9671,2.12002 -4.34701,4.27749 -0.35479,1.87931 -0.17256,3.81414 -0.17018,5.71533 0.0821,2.24727 1.405,4.57407 3.64823,5.25043 2.47916,0.77166 5.63204,0.3229 7.21662,-1.91903 1.2222,-1.66751 1.16651,-3.82769 1.08008,-5.79102 -0.19361,-0.9735 -1.35344,-0.75041 -2.07461,-0.75977 -1.20695,0.0466 -2.43617,-0.0905 -3.63047,0.0625 -1.02088,0.40762 -0.73324,2.37509 0.475,2.2168 0.97057,0 1.94114,0 2.91172,0 0.1149,1.44647 -0.28898,3.17109 -1.72081,3.83739 -1.59969,0.71541 -3.86786,0.5948 -4.96474,-0.92333 -0.90933,-1.58813 -0.57647,-3.5008 -0.63999,-5.25035 -0.0151,-1.49649 0.13049,-3.40318 1.67657,-4.12861 1.71764,-0.82437 4.22974,-0.56063 5.22709,1.24029 0.25235,0.55342 0.45597,1.40314 1.2543,1.27539 0.66835,0.14628 1.48292,-0.34109 1.28841,-1.09732 -0.35429,-2.05854 -2.24435,-3.57277 -4.2224,-3.97885 1.05753,-0.53451 1.61112,-1.92702 1.2793,-3.0332 -0.45611,-0.85715 -2.12217,-0.56388 -2.03224,0.50211 0.0526,0.57636 -0.47326,0.8875 -0.98924,0.72836 -0.74656,-0.16755 -0.21003,-1.26866 -0.88868,-1.56836 -0.24805,-0.17671 -0.56507,-0.13958 -0.85156,-0.13868 z"
           style="fill:#858fad;fill-opacity:1" /><path
           id="path34744"
           d="m 138.49805,216.0789 c -1.29394,-0.002 -1.26277,2.33674 0.043,2.2793 1.16666,0 2.33333,0 3.5,0 0.0159,4.09056 -0.0317,8.18567 0.0234,12.27344 0.22738,1.12808 2.33921,1.00797 2.31641,-0.20508 0,-4.02279 0,-8.04558 0,-12.06836 1.28427,-0.0459 2.58777,0.0887 3.86133,-0.0606 1.00556,-0.37307 0.7882,-2.29162 -0.38086,-2.2207 -3.12107,0.001 -6.24237,-0.003 -9.36328,0.002 z"
           style="fill:#858fad;fill-opacity:1" /><path
           id="path34748"
           d="m 154.87305,216.0789 c -0.78639,-0.0169 -1.0759,0.84127 -0.95313,1.4961 0.0159,4.35163 -0.0317,8.7078 0.0234,13.05664 0.23359,1.13219 2.36725,1.0063 2.31641,-0.22657 0,-2.93945 0,-5.8789 0,-8.81836 1.04905,1.98956 1.98264,4.05314 3.10156,5.99805 0.52885,0.53215 1.52194,0.51369 2.12109,0.10938 0.66538,-0.82017 0.9934,-1.90598 1.54105,-2.83503 0.55402,-1.0908 1.10805,-2.1816 1.66208,-3.2724 0.019,3.01732 -0.0375,6.04159 0.0273,9.05469 0.23533,1.11909 2.33615,0.99347 2.3125,-0.21484 -0.0146,-4.52484 0.0291,-9.05398 -0.0215,-13.57617 -0.16854,-0.91745 -1.43948,-0.95412 -2.08203,-0.56836 -0.74531,0.98734 -1.16941,2.20559 -1.79214,3.28046 -0.88504,1.71575 -1.77009,3.43151 -2.65513,5.14727 -1.42868,-2.75064 -2.81,-5.53138 -4.26758,-8.26367 -0.30696,-0.43848 -0.86657,-0.37225 -1.33398,-0.36719 z"
           style="fill:#858fad;fill-opacity:1" /><path
           id="path34750"
           d="m 172.74609,219.74296 c -0.8623,0.0343 -1.09764,1.10539 -0.65726,1.72536 1.26148,3.1083 2.4257,6.26376 3.74711,9.343 0.47773,0.7326 1.62863,0.73619 2.30078,0.29493 0.67378,-0.70097 0.77725,-1.76455 1.21552,-2.61138 0.98672,-2.55515 2.06898,-5.08149 2.99737,-7.65425 0.15825,-0.78166 -0.70762,-1.27037 -1.39258,-1.09766 -1.05229,0.0892 -1.08076,1.39299 -1.4793,2.12875 -0.78815,2.01503 -1.5763,4.03005 -2.36445,6.04508 -1.02461,-2.57818 -1.99445,-5.1813 -3.05273,-7.74414 -0.32201,-0.4402 -0.81002,-0.46952 -1.31446,-0.42969 z"
           style="fill:#858fad;fill-opacity:1" /><path
           id="path34752"
           d="m 186.71484,219.5457 c -2.01883,0.026 -3.79301,1.53498 -4.32617,3.45117 -0.50774,1.80828 -0.50219,3.8174 0.17474,5.57995 0.65857,1.79306 2.46121,3.0654 4.38307,3.00621 1.89413,0.0552 4.0345,-0.85334 4.78204,-2.69553 0.28899,-0.77622 -0.56089,-1.40477 -1.2793,-1.22852 -0.91751,-0.033 -1.12778,1.10766 -1.9336,1.35742 -1.22489,0.66656 -2.97978,0.35578 -3.63399,-0.9666 -0.16003,-0.38224 -0.72511,-1.31376 -0.28319,-1.44941 2.23793,-0.0177 4.48146,0.0349 6.71601,-0.0254 0.92313,-0.19838 0.79207,-1.27739 0.73416,-1.99271 -0.0948,-2.12556 -1.37127,-4.37458 -3.56423,-4.87644 -0.57727,-0.14482 -1.17614,-0.18594 -1.76954,-0.16015 z m 0.33789,2.23047 c 1.45663,-0.087 2.646,1.21853 2.70313,2.625 -1.78571,-0.005 -3.59816,0.0104 -5.36719,-0.008 0.0692,-1.42071 1.18493,-2.69117 2.66406,-2.61719 z"
           style="fill:#858fad;fill-opacity:1" /><path
           id="path34754"
           d="m 196.86328,216.0789 c -0.86795,0.0302 -1.14532,1.16512 -0.56834,1.7307 1.57746,2.58521 3.15493,5.17042 4.7324,7.75563 0.0332,1.71564 -0.0644,3.44404 0.0449,5.15234 0.27762,0.86366 1.66856,0.90056 2.16406,0.23438 0.33961,-0.85824 0.0629,-1.84061 0.15234,-2.74688 0.0362,-0.9031 -0.0715,-1.84665 0.0521,-2.72521 1.64623,-2.72342 3.33679,-5.42209 4.95574,-8.16072 0.26718,-0.80676 -0.60203,-1.43722 -1.3457,-1.24219 -1.0041,0.12483 -1.21244,1.33391 -1.76923,2.0068 -1.02484,1.66701 -2.04968,3.33401 -3.07452,5.00101 -1.4062,-2.23305 -2.72512,-4.53919 -4.18359,-6.72851 -0.31318,-0.30748 -0.75301,-0.29509 -1.16016,-0.27735 z"
           style="fill:#858fad;fill-opacity:1" /><path
           id="path34756"
           d="m 212.73633,216.08085 c -1.07261,0.0104 -1.16063,1.30589 -1.52997,2.04659 -1.55797,4.05725 -3.20074,8.09004 -4.70636,12.1624 -0.15273,0.83827 0.8021,1.28173 1.50524,1.07179 0.93153,-0.1663 0.93237,-1.33983 1.31024,-2.02121 0.30211,-0.44925 0.27442,-1.38002 0.78882,-1.51933 2.09218,0 4.18437,0 6.27656,0 0.4838,1.0868 0.76002,2.28351 1.37891,3.29883 0.64955,0.5527 2.10079,0.30881 2.03515,-0.73047 -0.41998,-1.48883 -1.11532,-2.9039 -1.63651,-4.36553 -1.26036,-3.16316 -2.43016,-6.36819 -3.7463,-9.50557 -0.38532,-0.5554 -1.0938,-0.4358 -1.67578,-0.4375 z m 2.74609,9.46094 c -1.55989,0 -3.11979,0 -4.67969,0 0.77995,-2.00846 1.5599,-4.01692 2.33985,-6.02539 0.77995,2.00847 1.55989,4.01693 2.33984,6.02539 z"
           style="fill:#858fad;fill-opacity:1" /><path
           id="path34758"
           d="m 218.73438,216.0789 c -0.86732,0.03 -1.14543,1.16578 -0.56835,1.7307 1.57747,2.58521 3.15494,5.17042 4.73241,7.75563 0.0332,1.71564 -0.0644,3.44404 0.0449,5.15234 0.27746,0.86288 1.66941,0.90115 2.16406,0.23438 0.33962,-0.85824 0.0629,-1.84061 0.15235,-2.74688 0.0362,-0.9031 -0.0715,-1.84665 0.0521,-2.72521 1.64623,-2.72342 3.33678,-5.42209 4.95574,-8.16072 0.26725,-0.80707 -0.60217,-1.43664 -1.3457,-1.24219 -1.00361,0.1252 -1.21289,1.33411 -1.76924,2.0068 -1.02484,1.66701 -2.04968,3.33401 -3.07452,5.00101 -1.40619,-2.23305 -2.72512,-4.53919 -4.18359,-6.72851 -0.31318,-0.30748 -0.75301,-0.29509 -1.16015,-0.27735 z"
           style="fill:#858fad;fill-opacity:1" /><path
           id="path34760"
           d="m 232.10156,216.0789 c -0.82197,-0.01 -1.05314,0.91624 -0.93359,1.57656 0.0159,4.32481 -0.0316,8.65416 0.0234,12.97618 0.22998,1.13781 2.36723,1.0049 2.3164,-0.22657 -0.0159,-4.52481 0.0316,-9.05415 -0.0234,-13.57617 -0.11708,-0.65971 -0.80866,-0.82654 -1.38282,-0.75 z"
           style="fill:#858fad;fill-opacity:1" /><path
           id="path34762"
           d="m 236.48438,216.0789 c -0.83365,-0.009 -1.04688,0.93233 -0.9336,1.5961 0.0159,4.31829 -0.0317,8.64114 0.0234,12.95664 0.22769,1.12891 2.33887,1.00686 2.3164,-0.20508 0,-3.16081 0,-6.32162 0,-9.48242 2.24691,3.38955 4.42053,6.83384 6.7129,10.18945 0.63783,0.47754 1.99627,0.37041 2.08984,-0.60742 0.007,-4.56049 0.0349,-9.12708 -0.0137,-13.68555 -0.21434,-1.1389 -2.34343,-1.02883 -2.31641,0.19531 -0.005,3.17233 -6.5e-4,6.34509 -0.002,9.51758 -2.25522,-3.40353 -4.43384,-6.86407 -6.73633,-10.23242 -0.30529,-0.29666 -0.75159,-0.24329 -1.14062,-0.24219 z"
           style="fill:#858fad;fill-opacity:1" /><path
           id="path34764"
           d="m 253.63086,215.88554 c -2.02326,0.008 -4.06699,1.15569 -4.82064,3.08801 -0.94269,2.13746 -0.59756,4.53372 -0.62246,6.79913 0.074,2.19533 1.16012,4.57264 3.33372,5.38044 2.05227,0.70241 4.50457,0.62114 6.34879,-0.60132 1.33528,-0.91583 2.2587,-2.5534 2.15512,-4.18384 -0.36847,-1.00709 -2.24496,-0.8586 -2.31471,0.2827 -0.18594,1.19928 -1.03304,2.29853 -2.27318,2.50637 -1.59276,0.3818 -3.72652,0.12542 -4.47656,-1.54688 -0.70421,-1.76431 -0.42327,-3.7196 -0.44532,-5.57422 -0.003,-1.46386 0.55902,-3.1772 2.10157,-3.65039 1.47555,-0.42402 3.39432,-0.35347 4.45898,0.89649 0.58997,0.64929 0.44603,1.65116 1.02149,2.28125 0.69282,0.39893 2.05527,0.20209 1.95898,-0.82032 -0.1339,-2.45714 -2.24014,-4.51934 -4.6579,-4.77544 -0.58505,-0.0856 -1.17748,-0.1062 -1.76788,-0.082 z"
           style="fill:#858fad;fill-opacity:1" /><path
           id="path34766"
           d="m 262.20117,216.0789 c -0.82119,-0.008 -1.05316,0.9155 -0.93359,1.57656 0.0186,4.32778 -0.0369,8.66236 0.0273,12.98594 0.23977,1.12981 2.36264,0.98904 2.31446,-0.23633 -0.0186,-4.52777 0.0369,-9.06235 -0.0274,-13.58593 -0.12312,-0.65372 -0.80994,-0.81543 -1.38086,-0.74024 z"
           style="fill:#858fad;fill-opacity:1" /><path
           id="path34768"
           d="m 266.58398,216.0789 c -0.82197,-0.01 -1.05314,0.91624 -0.93359,1.57656 0.0159,4.32481 -0.0316,8.65416 0.0234,12.97618 0.19768,0.9559 1.3375,0.74319 2.05312,0.75 2.35634,-0.0311 4.72428,0.0607 7.07383,-0.043 1.07379,-0.29947 0.87674,-2.31279 -0.31836,-2.23633 -2.16406,0 -4.32812,0 -6.49219,0 -0.0159,-4.09057 0.0317,-8.18568 -0.0234,-12.27344 -0.11708,-0.65971 -0.80866,-0.82654 -1.38282,-0.75 z"
           style="fill:#858fad;fill-opacity:1" /><path
           id="path34770"
           d="m 277.01172,216.0789 c -0.82044,-0.009 -1.0559,0.91557 -0.93555,1.57656 0.0186,4.32778 -0.0369,8.66236 0.0274,12.98594 0.2416,1.12896 2.36331,0.98953 2.31445,-0.23633 -0.0186,-4.52777 0.0369,-9.06235 -0.0274,-13.58593 -0.1195,-0.65337 -0.81087,-0.81498 -1.3789,-0.74024 z"
           style="fill:#858fad;fill-opacity:1" /><path
           id="path34772"
           d="m 281.39258,216.0789 c -0.83155,-0.007 -1.04743,0.93255 -0.9336,1.5961 0.0186,4.32125 -0.037,8.64934 0.0274,12.9664 0.23797,1.11932 2.33637,0.9928 2.31445,-0.21484 0,-1.56706 0,-3.13412 0,-4.70117 2.019,1.79993 3.95677,3.70179 6.02539,5.43945 0.68976,0.41346 2.01762,0.34429 2.0918,-0.66602 -0.0255,-0.88887 -1.04657,-1.25668 -1.54237,-1.87726 -1.88171,-1.73037 -3.76342,-3.46073 -5.64513,-5.1911 2.18031,-1.9584 4.39685,-3.88536 6.55469,-5.86328 0.57005,-0.69395 -0.22264,-1.70864 -1.04805,-1.49023 -1.11573,-0.005 -1.74535,1.11892 -2.57248,1.69815 -1.28795,1.13903 -2.5759,2.27805 -3.86385,3.41708 -0.0455,-1.4953 0.0872,-3.00895 -0.0586,-4.49414 -0.19392,-0.5796 -0.82135,-0.6717 -1.34961,-0.61914 z"
           style="fill:#858fad;fill-opacity:1" /><path
           id="path51111"
           d="m 135.46212,216.24093 c -0.82197,-0.01 -0.95182,0.90575 -0.93359,1.57656 0.11747,4.32325 -0.0316,8.65416 0.0234,12.97618 0.22998,1.13781 2.36723,1.0049 2.3164,-0.22657 -0.0159,-4.52481 0.0316,-9.05415 -0.0234,-13.57617 -0.11708,-0.65972 -0.80866,-0.82654 -1.38282,-0.75 z"
           style="fill:#858fad;fill-opacity:1"
           sodipodi:nodetypes="sscccss" /><rect
           style="fill:#858fad;fill-opacity:1;stroke-width:0;stroke-dasharray:none"
           id="rect51115"
           width="2.6328979"
           height="2.6328979"
           x="134.37508"
           y="213.34967"
           ry="1.0681514"
           rx="0" /><path
           id="path51221"
           d="m 150.86551,216.15474 c -0.82197,-0.01 -0.95182,0.90576 -0.93359,1.57657 0.11747,4.32324 -0.0316,8.65415 0.0234,12.97617 0.22998,1.13781 2.36723,1.0049 2.3164,-0.22657 -0.0159,-4.52481 0.0316,-9.05415 -0.0234,-13.57617 -0.11708,-0.65971 -0.80866,-0.82653 -1.38282,-0.75 z"
           style="fill:#858fad;fill-opacity:1"
           sodipodi:nodetypes="sscccss" /><rect
           style="fill:#858fad;fill-opacity:1;stroke-width:0;stroke-dasharray:none"
           id="rect51223"
           width="2.6328979"
           height="2.6328979"
           x="149.77847"
           y="213.24948"
           ry="1.0681514"
           rx="0" /></g><g
         aria-label="DERS-T"
         id="g103791"
         style="font-weight:bold;font-size:22.5778px;font-family:Rubik;-inkscape-font-specification:'Rubik Bold';opacity:1;stroke:#29293d;stroke-width:0;stroke-linecap:round;stroke-linejoin:round;stroke-opacity:1;paint-order:stroke fill markers"
         transform="matrix(0.27791474,0,0,0.27791474,53.732753,83.690785)"><path
           id="path103789"
           style="font-weight:300;-inkscape-font-specification:'Rubik Light';fill:#ffffff;fill-opacity:1;stroke:#29293d;stroke-width:31.5755;stroke-linecap:round;stroke-linejoin:round;stroke-dasharray:none;stroke-opacity:1"
           d="m 583.47858,-208.74483 c -0.98257,0.005 -1.96687,0.0271 -2.94775,0.0216 -15.69877,-0.1623 -32.72135,9.68995 -35.88866,25.9312 -3.19361,13.41762 3.53031,28.91905 16.55249,34.31652 4.14338,2.27546 8.4632,3.88864 12.80244,5.36545 8.02794,2.73221 15.46723,3.60591 21.98644,10.12512 9.6144,9.6144 -17.64222,18.24969 -27.60971,4.62626 -3.29083,-4.49786 -3.149,-10.51659 -8.94602,-12.86194 -7.71858,-3.27232 -18.39578,2.52495 -17.92269,11.63236 0.26707,15.86895 14.54062,28.18223 29.39999,30.874769 14.2765,3.090307 30.51322,1.594815 42.49991,-7.310789 13.79386,-10.48221 16.16665,-32.91395 4.089,-45.57567 -8.93011,-8.74985 -21.70363,-11.45329 -33.11038,-15.55728 -4.63435,-1.93141 -11.53509,-3.13585 -13.60834,-6.89972 -1.67861,-3.54394 1.80118,-6.50857 5.10042,-7.77233 6.64113,-1.83296 15.23404,-1.71548 19.82116,4.19897 3.15202,5.08673 3.18978,10.24228 12.15339,12.42203 7.65045,1.31451 16.47656,-5.36057 14.61616,-13.5831 -1.85271,-17.4365 -19.23279,-29.71308 -36.04551,-29.87055 -0.97896,-0.0757 -1.95977,-0.0876 -2.94234,-0.0829 z m -103.04331,2.12383 c -1.93023,0.0113 -3.89953,0.0332 -5.90632,0.0451 -10.65087,0.0632 -23.39167,-1.03011 -27.57546,6.21642 -2.76802,6.6101 -0.82188,15.13869 -1.50182,22.68958 0.0568,23.66028 -0.30505,46.13691 0.39304,69.77247 0,13.85169 25.30199,14.12043 25.30199,0.33534 0.70275,-9.44859 0.0927,-15.80687 0.78426,-24.71965 0,-2.89894 3.29356,-3.38699 6.54094,-3.39126 3.16538,0.10742 6.10765,-0.95713 8.69001,3.51567 6.24752,10.821 11.21908,21.59895 19.04771,31.34533 7.23691,6.491369 21.67626,2.3016 21.93776,-8.17258 -1.10318,-9.26019 -8.22869,-16.20513 -12.09389,-24.3807 -1.22783,-2.89652 -4.64965,-6.3352 -4.56676,-8.90816 18.63947,-11.5166 20.20272,-41.36064 3.90509,-55.54214 -9.80764,-8.4206 -21.44498,-8.88444 -34.95655,-8.80539 z m -108.76213,0.0847 c -4.66367,0.002 -6.02944,0.0152 -10.1738,0.009 -9.0558,-0.20004 -12.55003,9.14032 -12.55003,16.52183 0.0807,27.76588 -0.32406,54.32248 0.35878,82.06289 3.2704,12.205325 11.97377,10.253129 17.57653,10.253129 16.37479,-0.208749 32.72604,0.506272 49.15264,-0.522842 11.26165,-2.905187 11.35822,-21.438577 0.42007,-24.890927 -7.60732,-1.19335 -15.06501,-0.58349 -23.17636,-0.58234 -5.98796,8.5e-4 -11.97619,0.005 -17.96416,0.0108 v -16.10536 c 12.49925,-0.25405 24.33543,1.26709 36.73422,-0.19832 12.95099,-3.47021 11.67493,-22.74257 -0.37681,-25.46245 -12.07036,-0.64402 -24.24678,-0.1692 -36.35741,-0.31371 v -14.81989 c 13.43465,-0.26494 35.45852,0.52298 40.35265,-0.73738 13.03199,-3.49191 10.27377,-24.84225 -2.41048,-24.84225 -14.60626,0 -27.27121,-0.2096 -41.58584,-0.38222 z m -92.25472,0.19291 c -7.18859,0.005 -14.41532,0.4057 -21.55555,0.0234 l -0.57513,0.005 -0.31551,0.005 c -5.37166,-0.37505 -11.21415,1.97025 -12.99174,7.44961 -2.34359,7.35348 -0.4122,15.18245 -1.01864,22.75087 0.0459,23.22531 -0.23264,39.87269 0.36779,63.07288 0,15.049713 12.48289,15.584323 18.36621,15.584323 19.80497,-0.574365 34.39214,2.406284 49.37259,-6.275913 12.18852,-7.64172 16.47897,-22.88162 16.37039,-36.52869 0.45918,-12.60638 0.82731,-25.4497 -1.70555,-37.86103 -2.98907,-12.21441 -12.3454,-23.25681 -24.99189,-25.87892 -6.98532,-1.96319 -14.13438,-2.35251 -21.32297,-2.34739 z m 457.26934,0.52285 c -10.25958,0.007 -28.54899,0.0395 -38.80551,0.018 v -0.002 c -10.20516,-0.25692 -15.13013,13.48692 -9.39495,21.0273 4.49037,6.36606 14.325,5.3943 21.76469,5.3943 3.41901,0 12.47406,-0.14924 12.47406,-0.14924 0,20.04293 -0.40598,46.25183 0.40205,70.37922 0,6.96993 6.05219,11.570864 12.09431,11.570864 7.86591,0 14.08706,-2.234005 14.08706,-11.532414 0,-8.82513 -0.67307,-13.82287 -0.20689,-22.74563 v -48.00238 c 14.69306,-0.60164 24.90386,0.39307 29.73976,-2.39894 10.08053,-5.87601 8.29966,-21.90499 -4.45523,-23.42949 -10.25328,-0.119 -27.43977,-0.13698 -37.69935,-0.12981 z m -246.61235,22.44438 c 5.38436,0 10.1143,4.27105 10.1143,10.10709 0,2.40423 0.1306,10.86071 -7.6299,10.86071 -6.83932,0 -13.82887,0.13032 -20.74063,0.16587 0.22073,-6.15165 -0.11035,-14.72673 -0.0234,-20.87946 8.29536,-0.004 10.94358,-0.25421 18.27967,-0.25421 z m -208.41237,2.87203 c 4.01468,-0.003 7.81588,0.20236 11.04641,1.03487 4.74265,1.83345 6.69449,5.64044 7.79757,13.16482 0,12.22436 0.067,17.23631 0.29026,27.8567 -0.44537,5.31868 -3.52856,12.54054 -9.58605,14.16364 -7.13792,1.9126 -14.65137,0.74186 -21.97382,0.78246 0.2669,-18.92834 0.0173,-37.85869 0.10096,-56.78795 4.08275,0 8.30998,-0.2113 12.32467,-0.21454 z m 368.99183,16.28385 c -7.09444,0 -12.80604,5.7116 -12.80604,12.80604 v 0.96275 c 0,7.09444 5.7116,12.80605 12.80604,12.80605 h 38.11885 c 7.09444,0 12.80605,-5.71161 12.80605,-12.80605 v -0.96275 c 0,-7.09444 -5.71161,-12.80604 -12.80605,-12.80604 z"
           sodipodi:nodetypes="ccccssscccccccccccccssccccccscccccsssccccccscccccccsssccccccccccccccccccsscscccccccsssccssccccscccsssssssss" /></g></g></g></svg>
