<?xml version="1.0" encoding="UTF-8" standalone="no"?>
<!-- Created with Inkscape (http://www.inkscape.org/) -->

<svg
   width="360mm"
   height="100mm"
   viewBox="0 0 360 100"
   version="1.1"
   id="svg5"
   inkscape:version="1.1.2 (0a00cf5339, 2022-02-04)"
   sodipodi:docname="prism.svg"
   inkscape:export-filename="/home/doruk/Desktop/Artwork/Branding &amp; Logo Designs/Prism/prism-L.png"
   inkscape:export-xdpi="76.199997"
   inkscape:export-ydpi="76.199997"
   xmlns:inkscape="http://www.inkscape.org/namespaces/inkscape"
   xmlns:sodipodi="http://sodipodi.sourceforge.net/DTD/sodipodi-0.dtd"
   xmlns:xlink="http://www.w3.org/1999/xlink"
   xmlns="http://www.w3.org/2000/svg"
   xmlns:svg="http://www.w3.org/2000/svg">
  <sodipodi:namedview
     id="namedview7"
     pagecolor="#ffffff"
     bordercolor="#666666"
     borderopacity="1.0"
     inkscape:pageshadow="2"
     inkscape:pageopacity="0"
     inkscape:pagecheckerboard="0"
     inkscape:document-units="mm"
     showgrid="false"
     inkscape:zoom="0.70710678"
     inkscape:cx="826.60783"
     inkscape:cy="345.06811"
     inkscape:window-width="1920"
     inkscape:window-height="970"
     inkscape:window-x="0"
     inkscape:window-y="0"
     inkscape:window-maximized="1"
     inkscape:current-layer="layer1"
     showguides="false"
     inkscape:guide-bbox="true">
    <sodipodi:guide
       position="38.577471,50.356338"
       orientation="0,-1"
       id="guide8317" />
    <sodipodi:guide
       position="12.406329,125.56456"
       orientation="1,0"
       id="guide49301" />
    <sodipodi:guide
       position="65.438562,71.615041"
       orientation="0,-1"
       id="guide968" />
    <sodipodi:guide
       position="65.950034,28.464804"
       orientation="0,-1"
       id="guide970" />
    <sodipodi:guide
       position="231.3922,16.031802"
       orientation="0,-1"
       id="guide49628" />
    <sodipodi:guide
       position="337.74064,45.495833"
       orientation="0,-1"
       id="guide34717" />
    <sodipodi:guide
       position="200.55906,59.588847"
       orientation="1,0"
       id="guide36873" />
  </sodipodi:namedview>
  <defs
     id="defs2">
    <rect
       x="1076.5725"
       y="-87.137299"
       width="1315.8315"
       height="412.76636"
       id="rect61069" />
    <symbol
       id="w"
       overflow="visible">
      <path
         d="m 18.766,-1.125 c -0.96875,0.5 -1.9805,0.875 -3.0312,1.125 -1.043,0.25781 -2.1367,0.39062 -3.2812,0.39062 -3.3984,0 -6.0898,-0.94531 -8.0781,-2.8438 -1.9922,-1.9062 -2.9844,-4.4844 -2.9844,-7.7344 0,-3.2578 0.99219,-5.8359 2.9844,-7.7344 1.9883,-1.9062 4.6797,-2.8594 8.0781,-2.8594 1.1445,0 2.2383,0.13281 3.2812,0.39062 1.0508,0.25 2.0625,0.625 3.0312,1.125 v 4.2188 c -0.98047,-0.65625 -1.9453,-1.1406 -2.8906,-1.4531 -0.94922,-0.3125 -1.9492,-0.46875 -3,-0.46875 -1.875,0 -3.3516,0.60547 -4.4219,1.8125 -1.0742,1.1992 -1.6094,2.8555 -1.6094,4.9688 0,2.1055 0.53516,3.7617 1.6094,4.9688 1.0703,1.1992 2.5469,1.7969 4.4219,1.7969 1.0508,0 2.0508,-0.14844 3,-0.45312 0.94531,-0.3125 1.9102,-0.80078 2.8906,-1.4688 z"
         id="path824" />
    </symbol>
    <symbol
       id="b"
       overflow="visible">
      <path
         d="m 13.734,-11.141 c -0.4375,-0.19531 -0.87109,-0.34375 -1.2969,-0.4375 -0.41797,-0.10156 -0.83984,-0.15625 -1.2656,-0.15625 -1.2617,0 -2.2305,0.40625 -2.9062,1.2188 -0.67969,0.80469 -1.0156,1.9531 -1.0156,3.4531 v 7.0625 H 2.3591 v -15.312 h 4.8906 v 2.5156 c 0.625,-1 1.3438,-1.7266 2.1562,-2.1875 0.82031,-0.46875 1.8008,-0.70312 2.9375,-0.70312 0.16406,0 0.34375,0.01172 0.53125,0.03125 0.19531,0.01172 0.47656,0.03906 0.84375,0.07813 z"
         id="path827" />
    </symbol>
    <symbol
       id="a"
       overflow="visible">
      <path
         d="m 17.641,-7.7031 v 1.4062 H 6.188 c 0.125,1.1484 0.53906,2.0078 1.25,2.5781 0.70703,0.57422 1.7031,0.85938 2.9844,0.85938 1.0312,0 2.082,-0.14844 3.1562,-0.45312 1.082,-0.3125 2.1914,-0.77344 3.3281,-1.3906 v 3.7656 c -1.1562,0.4375 -2.3125,0.76562 -3.4688,0.98438 -1.1562,0.22656 -2.3125,0.34375 -3.4688,0.34375 -2.7734,0 -4.9297,-0.70312 -6.4688,-2.1094 -1.5312,-1.4062 -2.2969,-3.3789 -2.2969,-5.9219 0,-2.5 0.75391,-4.4609 2.2656,-5.8906 1.5078,-1.4375 3.582,-2.1562 6.2188,-2.1562 2.4062,0 4.332,0.73047 5.7812,2.1875 1.4453,1.4492 2.1719,3.3828 2.1719,5.7969 z m -5.0312,-1.625 c 0,-0.92578 -0.27344,-1.6719 -0.8125,-2.2344 -0.54297,-0.57031 -1.25,-0.85938 -2.125,-0.85938 -0.94922,0 -1.7188,0.26562 -2.3125,0.79688 -0.5937,0.53126 -0.96484,1.2969 -1.1094,2.2969 z"
         id="path830" />
    </symbol>
    <symbol
       id="e"
       overflow="visible">
      <path
         d="m 9.2188,-6.8906 c -1.0234,0 -1.793,0.17188 -2.3125,0.51562 -0.51172,0.34375 -0.76562,0.85547 -0.76562,1.5312 0,0.625 0.20703,1.1172 0.625,1.4688 0.41406,0.34375 0.98828,0.51562 1.7188,0.51562 0.92578,0 1.7031,-0.32812 2.3281,-0.98438 0.63281,-0.66406 0.95312,-1.4922 0.95312,-2.4844 v -0.5625 z m 7.4688,-1.8438 V 0 h -4.9219 v -2.2656 c -0.65625,0.92969 -1.3984,1.6055 -2.2188,2.0312 -0.82422,0.41406 -1.8242,0.625 -3,0.625 -1.5859,0 -2.8711,-0.45703 -3.8594,-1.375 -0.99219,-0.92578 -1.4844,-2.1289 -1.4844,-3.6094 0,-1.7891 0.61328,-3.1016 1.8438,-3.9375 1.2383,-0.84375 3.1797,-1.2656 5.8281,-1.2656 h 2.8906 v -0.39062 c 0,-0.76953 -0.30859,-1.332 -0.92188,-1.6875 -0.61719,-0.36328 -1.5703,-0.54688 -2.8594,-0.54688 -1.0547,0 -2.0312,0.10547 -2.9375,0.3125 -0.89844,0.21094 -1.7305,0.52344 -2.5,0.9375 v -3.7344 c 1.0391,-0.25 2.0859,-0.44141 3.1406,-0.57812 1.0625,-0.13281 2.125,-0.20312 3.1875,-0.20312 2.7578,0 4.75,0.54688 5.9688,1.6406 1.2266,1.0859 1.8438,2.8555 1.8438,5.3125 z"
         id="path833" />
    </symbol>
    <symbol
       id="c"
       overflow="visible">
      <path
         d="m 7.7031,-19.656 v 4.3438 H 12.75 v 3.5 H 7.7031 v 6.5 c 0,0.71094 0.14062,1.1875 0.42188,1.4375 0.28126,0.25 0.83594,0.375 1.6719,0.375 h 2.5156 v 3.5 h -4.1875 c -1.9375,0 -3.3125,-0.39844 -4.125,-1.2031 -0.80469,-0.8125 -1.2031,-2.1797 -1.2031,-4.1094 v -6.5 h -2.4219 v -3.5 h 2.4219 v -4.3438 z"
         id="path836" />
    </symbol>
    <symbol
       id="j"
       overflow="visible">
      <path
         d="m 12.766,-13.078 v -8.2031 h 4.9219 V -1e-4 H 12.766 v -2.2188 c -0.66797,0.90625 -1.4062,1.5703 -2.2188,1.9844 -0.8126,0.4141 -1.7578,0.625 -2.8281,0.625 -1.8867,0 -3.4336,-0.75 -4.6406,-2.25 -1.2109,-1.5 -1.8125,-3.4258 -1.8125,-5.7812 0,-2.3633 0.60156,-4.2969 1.8125,-5.7969 1.207,-1.5 2.7539,-2.25 4.6406,-2.25 1.0625,0 2,0.21484 2.8125,0.64062 0.82031,0.42969 1.5664,1.0859 2.2344,1.9688 z m -3.2188,9.9219 c 1.0391,0 1.8359,-0.37891 2.3906,-1.1406 0.55078,-0.76953 0.82812,-1.8828 0.82812,-3.3438 0,-1.457 -0.27734,-2.5664 -0.82812,-3.3281 -0.55469,-0.76953 -1.3516,-1.1562 -2.3906,-1.1562 -1.043,0 -1.8398,0.38672 -2.3906,1.1562 -0.55469,0.76172 -0.82812,1.8711 -0.82812,3.3281 0,1.4609 0.27344,2.5742 0.82812,3.3438 0.55078,0.76172 1.3477,1.1406 2.3906,1.1406 z"
         id="path839" />
    </symbol>
    <symbol
       id="i"
       overflow="visible">
      <path
         d="m 10.5,-3.1562 c 1.0508,0 1.8516,-0.37891 2.4062,-1.1406 0.55078,-0.76953 0.82812,-1.8828 0.82812,-3.3438 0,-1.457 -0.27734,-2.5664 -0.82812,-3.3281 -0.55469,-0.76953 -1.3555,-1.1562 -2.4062,-1.1562 -1.0547,0 -1.8594,0.38672 -2.4219,1.1562 -0.55469,0.77344 -0.82812,1.8828 -0.82812,3.3281 0,1.4492 0.27344,2.5586 0.82812,3.3281 0.5625,0.77344 1.3672,1.1562 2.4219,1.1562 z m -3.25,-9.9219 c 0.67578,-0.88281 1.4219,-1.5391 2.2344,-1.9688 0.82031,-0.42578 1.7656,-0.64062 2.8281,-0.64062 1.8945,0 3.4453,0.75 4.6562,2.25 1.207,1.5 1.8125,3.4336 1.8125,5.7969 0,2.3555 -0.60547,4.2812 -1.8125,5.7812 -1.2109,1.5 -2.7617,2.25 -4.6562,2.25 -1.0625,0 -2.0078,-0.21094 -2.8281,-0.625 C 8.6719,-0.6602 7.9258,-1.32032 7.25,-2.21882 V -2e-5 H 2.3594 v -21.281 H 7.25 Z"
         id="path842" />
    </symbol>
    <symbol
       id="h"
       overflow="visible">
      <path
         d="m 0.34375,-15.312 h 4.8906 l 4.125,10.391 3.5,-10.391 h 4.8906 l -6.4375,16.766 c -0.64844,1.6953 -1.4023,2.8828 -2.2656,3.5625 -0.86719,0.6875 -2,1.0312 -3.4062,1.0312 H 2.79685 V 2.8289 h 1.5312 c 0.83203,0 1.4375,-0.13672 1.8125,-0.40625 C 6.52336,2.16093 6.82024,1.69218 7.03117,1.01645 L 7.17179,0.59457 Z"
         id="path845" />
    </symbol>
    <symbol
       id="g"
       overflow="visible">
      <path
         d="m 0.82812,-20.406 h 5.0469 l 3.5312,14.828 3.5,-14.828 h 5.0781 l 3.5,14.828 3.5156,-14.828 h 5.0156 L 25.20302,0 h -6.0781 L 15.42182,-15.516 11.76562,0 h -6.0781 z"
         id="path848" />
    </symbol>
    <symbol
       id="v"
       overflow="visible">
      <path
         d="m 14.312,-14.828 v 3.7188 c -1.043,-0.4375 -2.0547,-0.76562 -3.0312,-0.98438 -0.98047,-0.21875 -1.9023,-0.32812 -2.7656,-0.32812 -0.92969,0 -1.6211,0.11719 -2.0781,0.34375 -0.44922,0.23047 -0.67188,0.58984 -0.67188,1.0781 0,0.38672 0.17188,0.68359 0.51562,0.89062 0.34375,0.21094 0.95703,0.36719 1.8438,0.46875 l 0.85938,0.125 c 2.5078,0.32422 4.1953,0.85156 5.0625,1.5781 0.86328,0.73047 1.2969,1.8711 1.2969,3.4219 0,1.6367 -0.60547,2.8672 -1.8125,3.6875 -1.1992,0.8125 -2.9922,1.2188 -5.375,1.2188 -1.0234,0 -2.0742,-0.078125 -3.1562,-0.23438 -1.0742,-0.15625 -2.1797,-0.39453 -3.3125,-0.71875 v -3.7188 c 0.96875,0.48047 1.9609,0.83984 2.9844,1.0781 1.0312,0.23047 2.0781,0.34375 3.1406,0.34375 0.95703,0 1.6758,-0.12891 2.1562,-0.39062 0.47656,-0.26953 0.71875,-0.66406 0.71875,-1.1875 0,-0.4375 -0.16797,-0.75781 -0.5,-0.96875 -0.33594,-0.21875 -0.99609,-0.38281 -1.9844,-0.5 L 7.34339,-6.01551 c -2.1797,-0.26953 -3.7031,-0.77344 -4.5781,-1.5156 -0.875,-0.73828 -1.3125,-1.8594 -1.3125,-3.3594 0,-1.625 0.55078,-2.8281 1.6562,-3.6094 1.1133,-0.78906 2.8203,-1.1875 5.125,-1.1875 0.89453,0 1.8359,0.07422 2.8281,0.21875 1,0.13672 2.082,0.35156 3.25,0.64062 z"
         id="path851" />
    </symbol>
    <symbol
       id="u"
       overflow="visible">
      <path
         d="m 10.75,-12.516 c 0.82031,0 1.4453,-0.17969 1.875,-0.54688 0.4375,-0.36328 0.65625,-0.89844 0.65625,-1.6094 0,-0.69531 -0.21875,-1.2266 -0.65625,-1.5938 -0.42969,-0.375 -1.0547,-0.5625 -1.875,-0.5625 H 7.8281 v 4.3125 z m 0.17188,8.9375 c 1.0625,0 1.8594,-0.22266 2.3906,-0.67188 0.53125,-0.44531 0.79688,-1.125 0.79688,-2.0312 0,-0.88281 -0.26562,-1.5469 -0.79688,-1.9844 -0.52344,-0.4375 -1.3203,-0.65625 -2.3906,-0.65625 h -3.0938 v 5.3438 z m 4.8906,-7.3438 c 1.1328,0.32422 2.0078,0.92969 2.625,1.8125 0.625,0.88672 0.9375,1.9688 0.9375,3.25 0,1.9688 -0.66797,3.4375 -2,4.4062 -1.3359,0.96875 -3.3555,1.4531 -6.0625,1.4531 h -8.7344 v -20.406 h 7.8906 c 2.832,0 4.8828,0.42969 6.1562,1.2812 1.2812,0.85547 1.9219,2.2266 1.9219,4.1094 0,1 -0.23438,1.8516 -0.70312,2.5469 -0.46875,0.6875 -1.1484,1.2031 -2.0312,1.5469 z"
         id="path854" />
    </symbol>
    <symbol
       id="t"
       overflow="visible">
      <path
         d="m 1.5938,-15.312 h 13.359 v 3.4219 l -8.0625,8.3906 h 8.0625 v 3.5 H 1.2648 V -3.4214 L 9.3273,-11.812 H 1.5929 Z"
         id="path857" />
    </symbol>
    <symbol
       id="f"
       overflow="visible">
      <path
         d="M 2.3594,-21.281 H 7.25 V 0 H 2.3594 Z"
         id="path860" />
    </symbol>
    <symbol
       id="s"
       overflow="visible">
      <path
         d="m 12.422,-21.281 v 3.2188 H 9.7189 c -0.6875,0 -1.1719,0.125 -1.4531,0.375 -0.27344,0.25 -0.40625,0.6875 -0.40625,1.3125 v 1.0625 h 4.1875 v 3.5 H 7.85955 V -2e-4 h -4.8906 v -11.812 h -2.4375 v -3.5 h 2.4375 v -1.0625 c 0,-1.6641 0.46094,-2.8984 1.3906,-3.7031 0.92578,-0.80078 2.3672,-1.2031 4.3281,-1.2031 z"
         id="path863" />
    </symbol>
    <symbol
       id="d"
       overflow="visible">
      <path
         d="m 9.6406,-12.188 c -1.0859,0 -1.9141,0.39062 -2.4844,1.1719 -0.57422,0.78125 -0.85938,1.9062 -0.85938,3.375 0,1.4688 0.28516,2.5938 0.85938,3.375 0.57031,0.77344 1.3984,1.1562 2.4844,1.1562 1.0625,0 1.875,-0.38281 2.4375,-1.1562 0.57031,-0.78125 0.85938,-1.9062 0.85938,-3.375 0,-1.4688 -0.28906,-2.5938 -0.85938,-3.375 -0.5625,-0.78125 -1.375,-1.1719 -2.4375,-1.1719 z m 0,-3.5 c 2.6328,0 4.6914,0.71484 6.1719,2.1406 1.4766,1.418 2.2188,3.3867 2.2188,5.9062 0,2.5117 -0.74219,4.4805 -2.2188,5.9062 C 14.332,-0.317 12.2734,0.39 9.6406,0.39 6.9922,0.39 4.9258,-0.31703 3.4375,-1.735 1.9453,-3.1608 1.2031,-5.1295 1.2031,-7.6412 c 0,-2.5195 0.74219,-4.4883 2.2344,-5.9062 1.4883,-1.4258 3.5547,-2.1406 6.2031,-2.1406 z"
         id="path866" />
    </symbol>
    <symbol
       id="r"
       overflow="visible">
      <path
         d="m 16.547,-12.766 c 0.61328,-0.94531 1.3477,-1.6719 2.2031,-2.1719 0.85156,-0.5 1.7891,-0.75 2.8125,-0.75 1.7578,0 3.0977,0.54688 4.0156,1.6406 0.92578,1.0859 1.3906,2.6562 1.3906,4.7188 V -4e-4 h -4.9219 v -7.9844 -0.35938 c 0.0078,-0.13281 0.01563,-0.32031 0.01563,-0.5625 0,-1.082 -0.16406,-1.8633 -0.48438,-2.3438 -0.3125,-0.48828 -0.82422,-0.73438 -1.5312,-0.73438 -0.92969,0 -1.6484,0.38672 -2.1562,1.1562 -0.51172,0.76172 -0.77344,1.8672 -0.78125,3.3125 v 7.5156 h -4.9219 v -7.9844 c 0,-1.6953 -0.14844,-2.7852 -0.4375,-3.2656 -0.29297,-0.48828 -0.8125,-0.73438 -1.5625,-0.73438 -0.9375,0 -1.6641,0.38672 -2.1719,1.1562 -0.51172,0.76172 -0.76562,1.8594 -0.76562,3.2969 v 7.5312 h -4.9219 v -15.312 h 4.9219 v 2.2344 c 0.60156,-0.86328 1.2891,-1.5156 2.0625,-1.9531 0.78125,-0.4375 1.6406,-0.65625 2.5781,-0.65625 1.0625,0 2,0.25781 2.8125,0.76562 0.8125,0.51172 1.4258,1.2305 1.8438,2.1562 z"
         id="path869" />
    </symbol>
    <symbol
       id="q"
       overflow="visible">
      <path
         d="M 17.75,-9.3281 V 0 h -4.9219 v -7.1094 c 0,-1.3438 -0.03125,-2.2656 -0.09375,-2.7656 -0.0625,-0.5 -0.16797,-0.86719 -0.3125,-1.1094 -0.1875,-0.3125 -0.44922,-0.55469 -0.78125,-0.73438 -0.32422,-0.17578 -0.69531,-0.26562 -1.1094,-0.26562 -1.0234,0 -1.8242,0.39844 -2.4062,1.1875 -0.58594,0.78125 -0.875,1.8711 -0.875,3.2656 V -1e-4 H 2.3594 v -21.281 H 7.25 v 8.2031 c 0.73828,-0.88281 1.5195,-1.5391 2.3438,-1.9688 0.83203,-0.42578 1.75,-0.64062 2.75,-0.64062 1.7695,0 3.1133,0.54688 4.0312,1.6406 0.91406,1.0859 1.375,2.6562 1.375,4.7188 z"
         id="path872" />
    </symbol>
    <symbol
       id="p"
       overflow="visible">
      <path
         d="m 2.5781,-20.406 h 5.875 l 7.4219,14 v -14 h 4.9844 V 0 h -5.875 L 7.5625,-14 V 0 H 2.5781 Z"
         id="path875" />
    </symbol>
    <symbol
       id="o"
       overflow="visible">
      <path
         d="m 2.1875,-5.9688 v -9.3438 h 4.9219 v 1.5312 c 0,0.83594 -0.00781,1.875 -0.015625,3.125 -0.011719,1.25 -0.015625,2.0859 -0.015625,2.5 0,1.2422 0.03125,2.1328 0.09375,2.6719 0.070313,0.54297 0.17969,0.93359 0.32812,1.1719 0.20703,0.32422 0.47266,0.57422 0.79688,0.75 0.32031,0.16797 0.69141,0.25 1.1094,0.25 1.0195,0 1.8203,-0.39062 2.4062,-1.1719 0.58203,-0.78125 0.875,-1.8672 0.875,-3.2656 v -7.5625 h 4.8906 V -6e-4 H 12.6875 V -2.2194 C 11.94531,-1.32096 11.1641,-0.6608 10.3437,-0.235 9.51948,0.17906 8.6093,0.39 7.6093,0.39 5.8476,0.39 4.5038,-0.14906 3.5781,-1.235 2.64841,-2.317 2.1875,-3.8952 2.1875,-5.9694 Z"
         id="path878" />
    </symbol>
    <symbol
       id="n"
       overflow="visible">
      <path
         d="M 17.75,-9.3281 V 0 h -4.9219 v -7.1406 c 0,-1.3203 -0.03125,-2.2344 -0.09375,-2.7344 -0.0625,-0.5 -0.16797,-0.86719 -0.3125,-1.1094 -0.1875,-0.3125 -0.44922,-0.55469 -0.78125,-0.73438 -0.32422,-0.17578 -0.69531,-0.26562 -1.1094,-0.26562 -1.0234,0 -1.8242,0.39844 -2.4062,1.1875 -0.58594,0.78125 -0.875,1.8711 -0.875,3.2656 V -1e-4 H 2.3594 v -15.312 H 7.25 v 2.2344 c 0.73828,-0.88281 1.5195,-1.5391 2.3438,-1.9688 0.83203,-0.42578 1.75,-0.64062 2.75,-0.64062 1.7695,0 3.1133,0.54688 4.0312,1.6406 0.91406,1.0859 1.375,2.6562 1.375,4.7188 z"
         id="path881" />
    </symbol>
    <symbol
       id="m"
       overflow="visible">
      <path
         d="m 2.5781,-20.406 h 8.7344 c 2.5938,0 4.582,0.57812 5.9688,1.7344 1.3945,1.1484 2.0938,2.7891 2.0938,4.9219 0,2.1367 -0.69922,3.7812 -2.0938,4.9375 -1.3867,1.1562 -3.375,1.7344 -5.9688,1.7344 H 7.8281 V 3e-4 h -5.25 z m 5.25,3.8125 v 5.7031 H 10.75 c 1.0195,0 1.8047,-0.25 2.3594,-0.75 0.5625,-0.5 0.84375,-1.2031 0.84375,-2.1094 0,-0.91406 -0.28125,-1.6172 -0.84375,-2.1094 -0.55469,-0.48828 -1.3398,-0.73438 -2.3594,-0.73438 z"
         id="path884" />
    </symbol>
    <symbol
       id="l"
       overflow="visible">
      <path
         d="M 2.3594,-15.312 H 7.25 v 15.031 c 0,2.0508 -0.49609,3.6172 -1.4844,4.7031 -0.98047,1.082 -2.4062,1.625 -4.2812,1.625 H -0.9375 V 2.8283 h 0.85938 c 0.92578,0 1.5625,-0.21094 1.9062,-0.625 0.35156,-0.41797 0.53125,-1.2461 0.53125,-2.4844 z m 0,-5.9688 H 7.25 v 4 H 2.3594 Z"
         id="path887" />
    </symbol>
    <symbol
       id="k"
       overflow="visible">
      <path
         d="m 14.719,-14.828 v 3.9844 c -0.65625,-0.45703 -1.3242,-0.79688 -2,-1.0156 -0.66797,-0.21875 -1.3594,-0.32812 -2.0781,-0.32812 -1.3672,0 -2.4336,0.40234 -3.2031,1.2031 -0.76172,0.79297 -1.1406,1.9062 -1.1406,3.3438 0,1.4297 0.37891,2.543 1.1406,3.3438 0.76953,0.79297 1.8359,1.1875 3.2031,1.1875 0.75781,0 1.4844,-0.10938 2.1719,-0.32812 0.6875,-0.22656 1.3203,-0.56641 1.9062,-1.0156 v 4 c -0.76172,0.28125 -1.5391,0.48828 -2.3281,0.625 -0.78125,0.14453 -1.5742,0.21875 -2.375,0.21875 -2.7617,0 -4.9219,-0.70703 -6.4844,-2.125 -1.5547,-1.4141 -2.3281,-3.3828 -2.3281,-5.9062 0,-2.5312 0.77344,-4.5039 2.3281,-5.9219 1.5625,-1.4141 3.7227,-2.125 6.4844,-2.125 0.80078,0 1.5938,0.07422 2.375,0.21875 0.78125,0.13672 1.5547,0.35156 2.3281,0.64062 z"
         id="path890" />
    </symbol>
    <symbol
       id="o-2"
       overflow="visible">
      <path
         d="m 31.266,-1.875 c -1.6172,0.84375 -3.2969,1.4766 -5.0469,1.8906 -1.7422,0.42578 -3.5586,0.64062 -5.4531,0.64062 -5.668,0 -10.156,-1.582 -13.469,-4.75 -3.3125,-3.1641 -4.9688,-7.4609 -4.9688,-12.891 0,-5.4375 1.6562,-9.7383 4.9688,-12.906 3.3125,-3.1641 7.8008,-4.75 13.469,-4.75 1.8945,0 3.7109,0.21484 5.4531,0.64062 1.75,0.42969 3.4297,1.0586 5.0469,1.8906 v 7.0469 c -1.625,-1.1133 -3.2305,-1.9258 -4.8125,-2.4375 -1.5742,-0.51953 -3.2344,-0.78125 -4.9844,-0.78125 -3.1367,0 -5.6016,1.0078 -7.3906,3.0156 -1.793,2 -2.6875,4.7617 -2.6875,8.2812 0,3.5117 0.89453,6.2734 2.6875,8.2812 1.7891,2 4.2539,3 7.3906,3 1.75,0 3.4102,-0.25391 4.9844,-0.76562 1.582,-0.51953 3.1875,-1.332 4.8125,-2.4375 z"
         id="path132659" />
    </symbol>
    <symbol
       id="b-6"
       overflow="visible">
      <path
         d="m 22.875,-18.578 c -0.71094,-0.33203 -1.418,-0.57812 -2.125,-0.73438 -0.71094,-0.15625 -1.418,-0.23438 -2.125,-0.23438 -2.1055,0 -3.7266,0.67188 -4.8594,2.0156 -1.125,1.3438 -1.6875,3.2656 -1.6875,5.7656 V 4.4e-4 H 3.9219 v -25.531 h 8.1562 v 4.2031 c 1.0508,-1.6758 2.2539,-2.8945 3.6094,-3.6562 1.3633,-0.76953 2.9922,-1.1562 4.8906,-1.1562 0.26953,0 0.56641,0.01172 0.89062,0.03125 0.32031,0.02344 0.78516,0.07422 1.3906,0.15625 z"
         id="path132662" />
    </symbol>
    <symbol
       id="a-1"
       overflow="visible">
      <path
         d="m 29.391,-12.828 v 2.3281 H 10.329 c 0.19531,1.9062 0.88281,3.3398 2.0625,4.2969 1.1875,0.96094 2.8438,1.4375 4.9688,1.4375 1.7188,0 3.4766,-0.25391 5.2812,-0.76562 1.8008,-0.50781 3.6484,-1.2812 5.5469,-2.3125 v 6.2969 c -1.9297,0.73047 -3.8594,1.2773 -5.7969,1.6406 -1.9297,0.375 -3.8555,0.5625 -5.7812,0.5625 -4.6172,0 -8.2031,-1.1719 -10.766,-3.5156 -2.5629,-2.3437 -3.8438,-5.6328 -3.8438,-9.875 0,-4.1641 1.2539,-7.4414 3.7656,-9.8281 2.5195,-2.3828 5.9844,-3.5781 10.391,-3.5781 4.0078,0 7.2188,1.2109 9.625,3.625 2.4062,2.418 3.6094,5.6484 3.6094,9.6875 z m -8.375,-2.7188 c 0,-1.5391 -0.45312,-2.7852 -1.3594,-3.7344 -0.90625,-0.95703 -2.0898,-1.4375 -3.5469,-1.4375 -1.5859,0 -2.8711,0.44922 -3.8594,1.3438 -0.98047,0.88672 -1.5898,2.1641 -1.8281,3.8281 z"
         id="path132665" />
    </symbol>
    <symbol
       id="d-0"
       overflow="visible">
      <path
         d="m 15.359,-11.484 c -1.6992,0 -2.9805,0.29297 -3.8438,0.875 -0.85547,0.57422 -1.2812,1.4219 -1.2812,2.5469 0,1.0312 0.34375,1.8398 1.0312,2.4219 0.69531,0.58594 1.6602,0.875 2.8906,0.875 1.5312,0 2.8164,-0.54688 3.8594,-1.6406 1.0508,-1.1016 1.5781,-2.4844 1.5781,-4.1406 v -0.9375 z m 12.469,-3.0781 V -1e-4 h -8.2344 v -3.7812 c -1.0938,1.5547 -2.3242,2.6836 -3.6875,3.3906 -1.3672,0.69531 -3.0273,1.0469 -4.9844,1.0469 -2.6484,0 -4.7969,-0.76953 -6.4531,-2.3125 -1.6484,-1.5391 -2.4688,-3.5391 -2.4688,-6 0,-2.9883 1.0312,-5.1797 3.0938,-6.5781 2.0625,-1.4062 5.2969,-2.1094 9.7031,-2.1094 h 4.7969 v -0.64062 c 0,-1.2891 -0.51172,-2.2344 -1.5312,-2.8281 -1.0117,-0.60156 -2.5938,-0.90625 -4.75,-0.90625 -1.75,0 -3.3828,0.17969 -4.8906,0.53125 -1.5,0.34375 -2.8984,0.86719 -4.1875,1.5625 v -6.2188 c 1.75,-0.42578 3.5039,-0.75 5.2656,-0.96875 1.7578,-0.21875 3.5234,-0.32812 5.2969,-0.32812 4.5938,0 7.9102,0.91406 9.9531,2.7344 2.0508,1.8125 3.0781,4.7617 3.0781,8.8438 z"
         id="path132668" />
    </symbol>
    <symbol
       id="h-6"
       overflow="visible">
      <path
         d="m 12.828,-32.766 v 7.2344 h 8.4062 v 5.8438 H 12.828 v 10.828 c 0,1.1797 0.23438,1.9805 0.70312,2.4062 0.47656,0.41797 1.4141,0.625 2.8125,0.625 h 4.1875 V -5e-4 h -7 c -3.2188,0 -5.5,-0.67188 -6.8438,-2.0156 -1.3438,-1.34372 -2.0156,-3.625 -2.0156,-6.8438 v -10.828 h -4.0625 v -5.8438 h 4.0625 v -7.2344 z"
         id="path132671" />
    </symbol>
    <symbol
       id="c-1"
       overflow="visible">
      <path
         d="m 21.281,-21.781 v -13.672 h 8.2031 V 0 H 21.281 v -3.6875 c -1.125,1.5 -2.3672,2.6016 -3.7188,3.2969 -1.3438,0.69531 -2.9062,1.0469 -4.6875,1.0469 -3.1484,0 -5.7305,-1.25 -7.75,-3.75 -2.0234,-2.5 -3.0312,-5.7109 -3.0312,-9.6406 0,-3.9375 1.0078,-7.1562 3.0312,-9.6562 2.0195,-2.5 4.6016,-3.75 7.75,-3.75 1.7578,0 3.3164,0.35547 4.6719,1.0625 1.3633,0.71094 2.6094,1.8086 3.7344,3.2969 z m -5.375,16.516 c 1.75,0 3.082,-0.63281 4,-1.9062 0.91406,-1.2812 1.375,-3.1328 1.375,-5.5625 0,-2.4375 -0.46094,-4.2891 -1.375,-5.5625 -0.91797,-1.2812 -2.25,-1.9219 -4,-1.9219 -1.7305,0 -3.0586,0.64062 -3.9844,1.9219 -0.91797,1.2734 -1.375,3.125 -1.375,5.5625 0,2.4297 0.45703,4.2812 1.375,5.5625 0.92578,1.2734 2.2539,1.9062 3.9844,1.9062 z"
         id="path132674" />
    </symbol>
    <symbol
       id="g-5"
       overflow="visible">
      <path
         d="m 17.5,-5.2656 c 1.75,0 3.082,-0.63281 4,-1.9062 0.91406,-1.2812 1.375,-3.1328 1.375,-5.5625 0,-2.4375 -0.46094,-4.2891 -1.375,-5.5625 -0.91797,-1.2812 -2.25,-1.9219 -4,-1.9219 -1.75,0 -3.0938,0.64844 -4.0312,1.9375 -0.92969,1.2812 -1.3906,3.1328 -1.3906,5.5469 0,2.418 0.46094,4.2656 1.3906,5.5469 0.9375,1.2812 2.2812,1.9219 4.0312,1.9219 z m -5.4219,-16.516 c 1.125,-1.4883 2.3672,-2.5859 3.7344,-3.2969 1.3633,-0.70703 2.9375,-1.0625 4.7188,-1.0625 3.1445,0 5.7266,1.25 7.75,3.75 2.0195,2.5 3.0312,5.7188 3.0312,9.6562 0,3.9297 -1.0117,7.1406 -3.0312,9.6406 -2.0234,2.5 -4.6055,3.75 -7.75,3.75 -1.7812,0 -3.3555,-0.35156 -4.7188,-1.0469 -1.3672,-0.70703 -2.6094,-1.8047 -3.7344,-3.2969 V -5e-4 H 3.9219 v -35.453 h 8.1562 z"
         id="path132677" />
    </symbol>
    <symbol
       id="f-9"
       overflow="visible">
      <path
         d="m 0.5625,-25.531 h 8.1719 l 6.8594,17.328 5.8281,-17.328 h 8.1562 L 18.8441,2.422 C 17.7699,5.254 16.516,7.2384 15.0785,8.3751 13.641,9.5079 11.7426,10.0782 9.391,10.0782 H 4.6722 V 4.7188 h 2.5469 c 1.3828,0 2.3906,-0.22656 3.0156,-0.67188 0.63281,-0.4375 1.1289,-1.2266 1.4844,-2.3594 L 11.93785,0.9844 Z"
         id="path132680" />
    </symbol>
    <symbol
       id="e-4"
       overflow="visible">
      <path
         d="M 24.938,-6.2031 H 11.219 L 9.0471,0 H 0.2346 l 12.594,-34.031 h 10.469 L 35.8916,0 h -8.8125 z m -11.531,-6.3125 h 9.3125 l -4.6406,-13.531 z"
         id="path132683" />
    </symbol>
    <symbol
       id="n-9"
       overflow="visible">
      <path
         d="M 29.578,-15.547 V 0 h -8.2031 v -11.891 c 0,-2.207 -0.05469,-3.7266 -0.15625,-4.5625 -0.09375,-0.83203 -0.26172,-1.4453 -0.5,-1.8438 -0.32422,-0.53125 -0.76172,-0.94141 -1.3125,-1.2344 -0.54297,-0.30078 -1.1641,-0.45312 -1.8594,-0.45312 -1.6992,0 -3.0391,0.65625 -4.0156,1.9688 -0.96875,1.3125 -1.4531,3.1328 -1.4531,5.4531 v 12.562 h -8.1562 v -25.531 h 8.1562 v 3.75 c 1.2266,-1.4883 2.5352,-2.5859 3.9219,-3.2969 1.3828,-0.70703 2.9102,-1.0625 4.5781,-1.0625 2.9453,0 5.1797,0.90625 6.7031,2.7188 1.5312,1.8047 2.2969,4.4297 2.2969,7.875 z"
         id="path132686" />
    </symbol>
    <symbol
       id="m-0"
       overflow="visible">
      <path
         d="m 3.9219,-25.531 h 8.1562 v 25.078 c 0,3.4141 -0.82422,6.0234 -2.4688,7.8281 -1.6367,1.8008 -4.0117,2.7031 -7.125,2.7031 H -1.5469 V 4.7188 h 1.4062 c 1.5508,0 2.6133,-0.35156 3.1875,-1.0469 0.58203,-0.69922 0.875,-2.0742 0.875,-4.125 z m 0,-9.9219 h 8.1562 v 6.6406 H 3.9219 Z"
         id="path132689" />
    </symbol>
    <symbol
       id="l-9"
       overflow="visible">
      <path
         d="m 23.859,-24.719 v 6.1875 c -1.75,-0.72656 -3.4375,-1.2734 -5.0625,-1.6406 -1.625,-0.36328 -3.1562,-0.54688 -4.5938,-0.54688 -1.5547,0 -2.7109,0.19922 -3.4688,0.59375 -0.75,0.38672 -1.125,0.98047 -1.125,1.7812 0,0.65625 0.28516,1.1641 0.85938,1.5156 0.57031,0.34375 1.5938,0.60156 3.0625,0.76562 l 1.4375,0.20312 c 4.1758,0.53125 6.9844,1.4062 8.4219,2.625 1.4453,1.2109 2.1719,3.1172 2.1719,5.7188 0,2.7188 -1.0078,4.7617 -3.0156,6.125 -2,1.3672 -4.9922,2.0469 -8.9688,2.0469 -1.6875,0 -3.4336,-0.13672 -5.2344,-0.40625 -1.793,-0.25781 -3.6406,-0.65625 -5.5469,-1.1875 v -6.2031 c 1.625,0.79297 3.2891,1.3867 5,1.7812 1.7188,0.39844 3.457,0.59375 5.2188,0.59375 1.5938,0 2.7891,-0.21875 3.5938,-0.65625 0.8125,-0.4375 1.2188,-1.0938 1.2188,-1.9688 0,-0.72656 -0.28125,-1.2695 -0.84375,-1.625 -0.55469,-0.35156 -1.6562,-0.62891 -3.3125,-0.82812 l -1.4375,-0.1875 c -3.625,-0.44531 -6.168,-1.2852 -7.625,-2.5156 -1.4609,-1.2383 -2.1875,-3.1094 -2.1875,-5.6094 0,-2.707 0.92188,-4.7109 2.7656,-6.0156 1.8516,-1.3125 4.6953,-1.9688 8.5312,-1.9688 1.5,0 3.0781,0.11719 4.7344,0.34375 1.6562,0.23047 3.457,0.58984 5.4062,1.0781 z"
         id="path132692" />
    </symbol>
    <symbol
       id="k-1"
       overflow="visible">
      <path
         d="m 4.2812,-34.031 h 8.7812 v 12.422 l 12.641,-12.422 h 10.188 L 19.5004,-17.906 37.5784,0 H 26.5944 L 13.0634,-13.406 V 0 H 4.2822 Z"
         id="path132695" />
    </symbol>
    <symbol
       id="j-7"
       overflow="visible">
      <path
         d="m 3.9219,-25.531 h 8.1562 V 0 H 3.9219 Z m 0,-9.9219 h 8.1562 v 6.6406 H 3.9219 Z"
         id="path132698" />
    </symbol>
    <symbol
       id="i-7"
       overflow="visible">
      <path
         d="m 27.578,-21.281 c 1.0312,-1.582 2.2539,-2.7852 3.6719,-3.6094 1.4258,-0.83203 2.9883,-1.25 4.6875,-1.25 2.9375,0 5.1719,0.90625 6.7031,2.7188 1.5312,1.8047 2.2969,4.4297 2.2969,7.875 V 4e-4 h -8.2031 v -13.312 c 0.01953,-0.19531 0.03125,-0.39844 0.03125,-0.60938 0.0078,-0.21875 0.01563,-0.51953 0.01563,-0.90625 0,-1.8125 -0.26562,-3.125 -0.79688,-3.9375 -0.53126,-0.8125 -1.3906,-1.2188 -2.5781,-1.2188 -1.5547,0 -2.75,0.64062 -3.5938,1.9219 -0.84375,1.2734 -1.2773,3.1172 -1.2969,5.5312 v 12.531 h -8.2031 v -13.312 c 0,-2.8203 -0.24609,-4.6406 -0.73438,-5.4531 -0.49219,-0.8125 -1.3555,-1.2188 -2.5938,-1.2188 -1.5742,0 -2.7891,0.64062 -3.6406,1.9219 -0.84375,1.2812 -1.2656,3.1172 -1.2656,5.5 v 12.562 h -8.2031 v -25.531 h 8.2031 v 3.75 c 1,-1.4453 2.1484,-2.5352 3.4531,-3.2656 1.3008,-0.72656 2.7344,-1.0938 4.2969,-1.0938 1.7578,0 3.3164,0.42969 4.6719,1.2812 1.3516,0.84375 2.3789,2.0391 3.0781,3.5781 z"
         id="path132701" />
    </symbol>
    <symbol
       id="g-1"
       overflow="visible">
      <path
         d="m 38.453,-2.2969 c -1.9805,1.0312 -4.0469,1.8086 -6.2031,2.3281 -2.1484,0.51953 -4.3867,0.78125 -6.7188,0.78125 -6.9688,0 -12.492,-1.9453 -16.562,-5.8438 -4.0742,-3.8945 -6.1094,-9.1758 -6.1094,-15.844 0,-6.6875 2.0352,-11.977 6.1094,-15.875 4.0703,-3.8945 9.5938,-5.8438 16.562,-5.8438 2.332,0 4.5703,0.26172 6.7188,0.78125 2.1562,0.52344 4.2227,1.2969 6.2031,2.3281 v 8.6562 c -2,-1.3633 -3.9766,-2.3633 -5.9219,-3 -1.9375,-0.63281 -3.9844,-0.95312 -6.1406,-0.95312 -3.8438,0 -6.8711,1.2344 -9.0781,3.7031 -2.1992,2.4688 -3.2969,5.8711 -3.2969,10.203 0,4.3125 1.0977,7.7031 3.2969,10.172 2.207,2.4688 5.2344,3.7031 9.0781,3.7031 2.1562,0 4.2031,-0.31641 6.1406,-0.95312 1.9453,-0.63281 3.9219,-1.6328 5.9219,-3 z"
         id="path133232" />
    </symbol>
    <symbol
       id="f-1"
       overflow="visible">
      <path
         d="m 15.781,-40.297 v 8.9062 h 10.344 v 7.1719 H 15.781 v 13.312 c 0,1.4609 0.28516,2.4492 0.85938,2.9688 0.58203,0.51172 1.7344,0.76562 3.4531,0.76562 h 5.1562 v 7.1719 h -8.6094 c -3.9609,0 -6.7656,-0.82031 -8.4219,-2.4688 -1.6484,-1.6562 -2.4688,-4.4688 -2.4688,-8.4375 v -13.312 h -5 v -7.1719 h 5 v -8.9062 z"
         id="path133235" />
    </symbol>
    <symbol
       id="b-5"
       overflow="visible">
      <path
         d="M 26.172,-26.797 V -43.609 H 36.266 V 0 H 26.172 v -4.5469 c -1.3867,1.8555 -2.9141,3.2148 -4.5781,4.0781 -1.6562,0.85156 -3.5781,1.2812 -5.7656,1.2812 -3.8672,0 -7.043,-1.5352 -9.5312,-4.6094 -2.4805,-3.0703 -3.7188,-7.0312 -3.7188,-11.875 0,-4.832 1.2383,-8.7852 3.7188,-11.859 2.4883,-3.0703 5.6641,-4.6094 9.5312,-4.6094 2.1641,0 4.082,0.4375 5.75,1.3125 1.6758,0.86719 3.207,2.2109 4.5938,4.0312 z m -6.6094,20.328 c 2.1445,0 3.7812,-0.78516 4.9062,-2.3594 1.1328,-1.5703 1.7031,-3.8516 1.7031,-6.8438 0,-2.9766 -0.57031,-5.2539 -1.7031,-6.8281 -1.125,-1.5703 -2.7617,-2.3594 -4.9062,-2.3594 -2.1367,0 -3.7734,0.78906 -4.9062,2.3594 -1.125,1.5742 -1.6875,3.8516 -1.6875,6.8281 0,2.9922 0.5625,5.2734 1.6875,6.8438 1.1328,1.5742 2.7695,2.3594 4.9062,2.3594 z"
         id="path133238" />
    </symbol>
    <symbol
       id="a-9"
       overflow="visible">
      <path
         d="m 21.516,-6.4688 c 2.1562,0 3.7969,-0.78516 4.9219,-2.3594 1.1328,-1.5703 1.7031,-3.8516 1.7031,-6.8438 0,-2.9766 -0.57031,-5.2539 -1.7031,-6.8281 -1.125,-1.5703 -2.7656,-2.3594 -4.9219,-2.3594 -2.1484,0 -3.793,0.79297 -4.9375,2.375 -1.1484,1.5742 -1.7188,3.8438 -1.7188,6.8125 0,2.9805 0.57031,5.2617 1.7188,6.8438 1.1445,1.5742 2.7891,2.3594 4.9375,2.3594 z m -6.6562,-20.328 c 1.375,-1.8203 2.8984,-3.1641 4.5781,-4.0312 1.6875,-0.875 3.625,-1.3125 5.8125,-1.3125 3.8633,0 7.0352,1.5391 9.5156,4.6094 2.4883,3.0742 3.7344,7.0273 3.7344,11.859 0,4.8438 -1.2461,8.8047 -3.7344,11.875 -2.4805,3.0742 -5.6523,4.6094 -9.5156,4.6094 -2.1875,0 -4.125,-0.43359 -5.8125,-1.2969 -1.6797,-0.875 -3.2031,-2.2266 -4.5781,-4.0625 V -2e-4 H 4.8128 v -43.609 h 10.047 z"
         id="path133241" />
    </symbol>
    <symbol
       id="e-7"
       overflow="visible">
      <path
         d="m 16.062,-33.688 v 25.531 h 3.8594 c 4.4062,0 7.7695,-1.0938 10.094,-3.2812 2.332,-2.1875 3.5,-5.3633 3.5,-9.5312 0,-4.1445 -1.1641,-7.3008 -3.4844,-9.4688 -2.3125,-2.1641 -5.6836,-3.25 -10.109,-3.25 z M 5.265,-41.8442 H 16.64 c 6.3516,0 11.082,0.45312 14.188,1.3594 3.1133,0.90625 5.7852,2.4453 8.0156,4.6094 1.957,1.8984 3.4102,4.0781 4.3594,6.5469 0.95703,2.4609 1.4375,5.2461 1.4375,8.3594 0,3.168 -0.48047,5.9922 -1.4375,8.4688 -0.94922,2.4688 -2.4023,4.6484 -4.3594,6.5312 -2.2422,2.168 -4.9336,3.7031 -8.0781,4.6094 -3.1367,0.90625 -7.8438,1.3594 -14.125,1.3594 H 5.2655 Z"
         id="path133244" />
    </symbol>
    <symbol
       id="d-7"
       overflow="visible">
      <path
         d="m 4.8125,-31.391 h 10.047 V 0 H 4.8125 Z m 0,-12.219 h 10.047 v 8.1875 H 4.8125 Z"
         id="path133247" />
    </symbol>
    <symbol
       id="c-6"
       overflow="visible">
      <path
         d="m 5.2656,-41.844 h 10.797 v 37.781 c 0,5.207 -1.418,9.0977 -4.25,11.672 -2.8359,2.582 -7.1172,3.875 -12.844,3.875 H -3.2189 V 3.3278 h 1.6719 c 2.25,0 3.9453,-0.625 5.0938,-1.875 1.1445,-1.25 1.7188,-3.0859 1.7188,-5.5156 z"
         id="path133250" />
    </symbol>
    <symbol
       id="u-7"
       overflow="visible">
      <path
         d="m 18.766,-1.125 c -0.96875,0.5 -1.9805,0.875 -3.0312,1.125 -1.043,0.25781 -2.1367,0.39062 -3.2812,0.39062 -3.3984,0 -6.0898,-0.94531 -8.0781,-2.8438 -1.9922,-1.9062 -2.9844,-4.4844 -2.9844,-7.7344 0,-3.2578 0.99219,-5.8359 2.9844,-7.7344 1.9883,-1.9062 4.6797,-2.8594 8.0781,-2.8594 1.1445,0 2.2383,0.13281 3.2812,0.39062 1.0508,0.25 2.0625,0.625 3.0312,1.125 v 4.2188 c -0.98047,-0.65625 -1.9453,-1.1406 -2.8906,-1.4531 -0.94922,-0.3125 -1.9492,-0.46875 -3,-0.46875 -1.875,0 -3.3516,0.60547 -4.4219,1.8125 -1.0742,1.1992 -1.6094,2.8555 -1.6094,4.9688 0,2.1055 0.53516,3.7617 1.6094,4.9688 1.0703,1.1992 2.5469,1.7969 4.4219,1.7969 1.0508,0 2.0508,-0.14844 3,-0.45312 0.94531,-0.3125 1.9102,-0.80078 2.8906,-1.4688 z"
         id="path135805" />
    </symbol>
    <symbol
       id="b-3"
       overflow="visible">
      <path
         d="m 13.734,-11.141 c -0.4375,-0.19531 -0.87109,-0.34375 -1.2969,-0.4375 -0.41797,-0.10156 -0.83984,-0.15625 -1.2656,-0.15625 -1.2617,0 -2.2305,0.40625 -2.9062,1.2188 -0.67969,0.80469 -1.0156,1.9531 -1.0156,3.4531 v 7.0625 H 2.3591 v -15.312 h 4.8906 v 2.5156 c 0.625,-1 1.3438,-1.7266 2.1562,-2.1875 0.82031,-0.46875 1.8008,-0.70312 2.9375,-0.70312 0.16406,0 0.34375,0.01172 0.53125,0.03125 0.19531,0.01172 0.47656,0.03906 0.84375,0.07813 z"
         id="path135808" />
    </symbol>
    <symbol
       id="a-6"
       overflow="visible">
      <path
         d="m 17.641,-7.7031 v 1.4062 H 6.188 c 0.125,1.1484 0.53906,2.0078 1.25,2.5781 0.70703,0.57422 1.7031,0.85938 2.9844,0.85938 1.0312,0 2.082,-0.14844 3.1562,-0.45312 1.082,-0.3125 2.1914,-0.77344 3.3281,-1.3906 v 3.7656 c -1.1562,0.4375 -2.3125,0.76562 -3.4688,0.98438 -1.1562,0.22656 -2.3125,0.34375 -3.4688,0.34375 -2.7734,0 -4.9297,-0.70312 -6.4688,-2.1094 -1.5312,-1.4062 -2.2969,-3.3789 -2.2969,-5.9219 0,-2.5 0.75391,-4.4609 2.2656,-5.8906 1.5078,-1.4375 3.582,-2.1562 6.2188,-2.1562 2.4062,0 4.332,0.73047 5.7812,2.1875 1.4453,1.4492 2.1719,3.3828 2.1719,5.7969 z m -5.0312,-1.625 c 0,-0.92578 -0.27344,-1.6719 -0.8125,-2.2344 -0.54297,-0.57031 -1.25,-0.85938 -2.125,-0.85938 -0.94922,0 -1.7188,0.26562 -2.3125,0.79688 -0.5937,0.53126 -0.96484,1.2969 -1.1094,2.2969 z"
         id="path135811" />
    </symbol>
    <symbol
       id="e-5"
       overflow="visible">
      <path
         d="m 9.2188,-6.8906 c -1.0234,0 -1.793,0.17188 -2.3125,0.51562 -0.51172,0.34375 -0.76562,0.85547 -0.76562,1.5312 0,0.625 0.20703,1.1172 0.625,1.4688 0.41406,0.34375 0.98828,0.51562 1.7188,0.51562 0.92578,0 1.7031,-0.32812 2.3281,-0.98438 0.63281,-0.66406 0.95312,-1.4922 0.95312,-2.4844 v -0.5625 z m 7.4688,-1.8438 V 0 h -4.9219 v -2.2656 c -0.65625,0.92969 -1.3984,1.6055 -2.2188,2.0312 -0.82422,0.41406 -1.8242,0.625 -3,0.625 -1.5859,0 -2.8711,-0.45703 -3.8594,-1.375 -0.99219,-0.92578 -1.4844,-2.1289 -1.4844,-3.6094 0,-1.7891 0.61328,-3.1016 1.8438,-3.9375 1.2383,-0.84375 3.1797,-1.2656 5.8281,-1.2656 h 2.8906 v -0.39062 c 0,-0.76953 -0.30859,-1.332 -0.92188,-1.6875 -0.61719,-0.36328 -1.5703,-0.54688 -2.8594,-0.54688 -1.0547,0 -2.0312,0.10547 -2.9375,0.3125 -0.89844,0.21094 -1.7305,0.52344 -2.5,0.9375 v -3.7344 c 1.0391,-0.25 2.0859,-0.44141 3.1406,-0.57812 1.0625,-0.13281 2.125,-0.20312 3.1875,-0.20312 2.7578,0 4.75,0.54688 5.9688,1.6406 1.2266,1.0859 1.8438,2.8555 1.8438,5.3125 z"
         id="path135814" />
    </symbol>
    <symbol
       id="d-6"
       overflow="visible">
      <path
         d="m 7.7031,-19.656 v 4.3438 H 12.75 v 3.5 H 7.7031 v 6.5 c 0,0.71094 0.14062,1.1875 0.42188,1.4375 0.28126,0.25 0.83594,0.375 1.6719,0.375 h 2.5156 v 3.5 h -4.1875 c -1.9375,0 -3.3125,-0.39844 -4.125,-1.2031 -0.80469,-0.8125 -1.2031,-2.1797 -1.2031,-4.1094 v -6.5 h -2.4219 v -3.5 h 2.4219 v -4.3438 z"
         id="path135817" />
    </symbol>
    <symbol
       id="k-3"
       overflow="visible">
      <path
         d="m 12.766,-13.078 v -8.2031 h 4.9219 V -1e-4 H 12.766 v -2.2188 c -0.66797,0.90625 -1.4062,1.5703 -2.2188,1.9844 -0.8126,0.4141 -1.7578,0.625 -2.8281,0.625 -1.8867,0 -3.4336,-0.75 -4.6406,-2.25 -1.2109,-1.5 -1.8125,-3.4258 -1.8125,-5.7812 0,-2.3633 0.60156,-4.2969 1.8125,-5.7969 1.207,-1.5 2.7539,-2.25 4.6406,-2.25 1.0625,0 2,0.21484 2.8125,0.64062 0.82031,0.42969 1.5664,1.0859 2.2344,1.9688 z m -3.2188,9.9219 c 1.0391,0 1.8359,-0.37891 2.3906,-1.1406 0.55078,-0.76953 0.82812,-1.8828 0.82812,-3.3438 0,-1.457 -0.27734,-2.5664 -0.82812,-3.3281 -0.55469,-0.76953 -1.3516,-1.1562 -2.3906,-1.1562 -1.043,0 -1.8398,0.38672 -2.3906,1.1562 -0.55469,0.76172 -0.82812,1.8711 -0.82812,3.3281 0,1.4609 0.27344,2.5742 0.82812,3.3438 0.55078,0.76172 1.3477,1.1406 2.3906,1.1406 z"
         id="path135820" />
    </symbol>
    <symbol
       id="j-9"
       overflow="visible">
      <path
         d="m 10.5,-3.1562 c 1.0508,0 1.8516,-0.37891 2.4062,-1.1406 0.55078,-0.76953 0.82812,-1.8828 0.82812,-3.3438 0,-1.457 -0.27734,-2.5664 -0.82812,-3.3281 -0.55469,-0.76953 -1.3555,-1.1562 -2.4062,-1.1562 -1.0547,0 -1.8594,0.38672 -2.4219,1.1562 -0.55469,0.77344 -0.82812,1.8828 -0.82812,3.3281 0,1.4492 0.27344,2.5586 0.82812,3.3281 0.5625,0.77344 1.3672,1.1562 2.4219,1.1562 z m -3.25,-9.9219 c 0.67578,-0.88281 1.4219,-1.5391 2.2344,-1.9688 0.82031,-0.42578 1.7656,-0.64062 2.8281,-0.64062 1.8945,0 3.4453,0.75 4.6562,2.25 1.207,1.5 1.8125,3.4336 1.8125,5.7969 0,2.3555 -0.60547,4.2812 -1.8125,5.7812 -1.2109,1.5 -2.7617,2.25 -4.6562,2.25 -1.0625,0 -2.0078,-0.21094 -2.8281,-0.625 C 8.6719,-0.6602 7.9258,-1.32032 7.25,-2.21882 V -2e-5 H 2.3594 v -21.281 H 7.25 Z"
         id="path135823" />
    </symbol>
    <symbol
       id="i-4"
       overflow="visible">
      <path
         d="m 0.34375,-15.312 h 4.8906 l 4.125,10.391 3.5,-10.391 h 4.8906 l -6.4375,16.766 c -0.64844,1.6953 -1.4023,2.8828 -2.2656,3.5625 -0.86719,0.6875 -2,1.0312 -3.4062,1.0312 H 2.79685 V 2.8289 h 1.5312 c 0.83203,0 1.4375,-0.13672 1.8125,-0.40625 C 6.52336,2.16093 6.82024,1.69218 7.03117,1.01645 L 7.17179,0.59457 Z"
         id="path135826" />
    </symbol>
    <symbol
       id="h-8"
       overflow="visible">
      <path
         d="m 2.5781,-20.406 h 5.25 V 0 h -5.25 z"
         id="path135829" />
    </symbol>
    <symbol
       id="g-12"
       overflow="visible">
      <path
         d="m 14.719,-14.828 v 3.9844 c -0.65625,-0.45703 -1.3242,-0.79688 -2,-1.0156 -0.66797,-0.21875 -1.3594,-0.32812 -2.0781,-0.32812 -1.3672,0 -2.4336,0.40234 -3.2031,1.2031 -0.76172,0.79297 -1.1406,1.9062 -1.1406,3.3438 0,1.4297 0.37891,2.543 1.1406,3.3438 0.76953,0.79297 1.8359,1.1875 3.2031,1.1875 0.75781,0 1.4844,-0.10938 2.1719,-0.32812 0.6875,-0.22656 1.3203,-0.56641 1.9062,-1.0156 v 4 c -0.76172,0.28125 -1.5391,0.48828 -2.3281,0.625 -0.78125,0.14453 -1.5742,0.21875 -2.375,0.21875 -2.7617,0 -4.9219,-0.70703 -6.4844,-2.125 -1.5547,-1.4141 -2.3281,-3.3828 -2.3281,-5.9062 0,-2.5312 0.77344,-4.5039 2.3281,-5.9219 1.5625,-1.4141 3.7227,-2.125 6.4844,-2.125 0.80078,0 1.5938,0.07422 2.375,0.21875 0.78125,0.13672 1.5547,0.35156 2.3281,0.64062 z"
         id="path135832" />
    </symbol>
    <symbol
       id="c-9"
       overflow="visible">
      <path
         d="m 9.6406,-12.188 c -1.0859,0 -1.9141,0.39062 -2.4844,1.1719 -0.57422,0.78125 -0.85938,1.9062 -0.85938,3.375 0,1.4688 0.28516,2.5938 0.85938,3.375 0.57031,0.77344 1.3984,1.1562 2.4844,1.1562 1.0625,0 1.875,-0.38281 2.4375,-1.1562 0.57031,-0.78125 0.85938,-1.9062 0.85938,-3.375 0,-1.4688 -0.28906,-2.5938 -0.85938,-3.375 -0.5625,-0.78125 -1.375,-1.1719 -2.4375,-1.1719 z m 0,-3.5 c 2.6328,0 4.6914,0.71484 6.1719,2.1406 1.4766,1.418 2.2188,3.3867 2.2188,5.9062 0,2.5117 -0.74219,4.4805 -2.2188,5.9062 C 14.332,-0.317 12.2734,0.39 9.6406,0.39 6.9922,0.39 4.9258,-0.31703 3.4375,-1.735 1.9453,-3.1608 1.2031,-5.1295 1.2031,-7.6412 c 0,-2.5195 0.74219,-4.4883 2.2344,-5.9062 1.4883,-1.4258 3.5547,-2.1406 6.2031,-2.1406 z"
         id="path135835" />
    </symbol>
    <symbol
       id="f-3"
       overflow="visible">
      <path
         d="M 17.75,-9.3281 V 0 h -4.9219 v -7.1406 c 0,-1.3203 -0.03125,-2.2344 -0.09375,-2.7344 -0.0625,-0.5 -0.16797,-0.86719 -0.3125,-1.1094 -0.1875,-0.3125 -0.44922,-0.55469 -0.78125,-0.73438 -0.32422,-0.17578 -0.69531,-0.26562 -1.1094,-0.26562 -1.0234,0 -1.8242,0.39844 -2.4062,1.1875 -0.58594,0.78125 -0.875,1.8711 -0.875,3.2656 V -1e-4 H 2.3594 v -15.312 H 7.25 v 2.2344 c 0.73828,-0.88281 1.5195,-1.5391 2.3438,-1.9688 0.83203,-0.42578 1.75,-0.64062 2.75,-0.64062 1.7695,0 3.1133,0.54688 4.0312,1.6406 0.91406,1.0859 1.375,2.6562 1.375,4.7188 z"
         id="path135838" />
    </symbol>
    <symbol
       id="t-9"
       overflow="visible">
      <path
         d="m 2.5781,-20.406 h 6.6875 l 4.6562,10.922 4.6719,-10.922 h 6.6875 V 0 H 20.2968 V -14.938 L 15.5937,-3.922 H 12.2656 L 7.5625,-14.938 V 0 H 2.5781 Z"
         id="path135841" />
    </symbol>
    <symbol
       id="s-0"
       overflow="visible">
      <path
         d="M 2.3594,-21.281 H 7.25 v 11.594 l 5.625,-5.625 h 5.6875 L 11.0937,-8.2808 19.1562,4e-4 H 13.2187 L 7.2499,-6.3902 V 4e-4 H 2.3593 Z"
         id="path135844" />
    </symbol>
    <symbol
       id="r-8"
       overflow="visible">
      <path
         d="m 12.422,-21.281 v 3.2188 H 9.7189 c -0.6875,0 -1.1719,0.125 -1.4531,0.375 -0.27344,0.25 -0.40625,0.6875 -0.40625,1.3125 v 1.0625 h 4.1875 v 3.5 H 7.85955 V -2e-4 h -4.8906 v -11.812 h -2.4375 v -3.5 h 2.4375 v -1.0625 c 0,-1.6641 0.46094,-2.8984 1.3906,-3.7031 0.92578,-0.80078 2.3672,-1.2031 4.3281,-1.2031 z"
         id="path135847" />
    </symbol>
    <symbol
       id="q-8"
       overflow="visible">
      <path
         d="m 16.547,-12.766 c 0.61328,-0.94531 1.3477,-1.6719 2.2031,-2.1719 0.85156,-0.5 1.7891,-0.75 2.8125,-0.75 1.7578,0 3.0977,0.54688 4.0156,1.6406 0.92578,1.0859 1.3906,2.6562 1.3906,4.7188 V -4e-4 h -4.9219 v -7.9844 -0.35938 c 0.0078,-0.13281 0.01563,-0.32031 0.01563,-0.5625 0,-1.082 -0.16406,-1.8633 -0.48438,-2.3438 -0.3125,-0.48828 -0.82422,-0.73438 -1.5312,-0.73438 -0.92969,0 -1.6484,0.38672 -2.1562,1.1562 -0.51172,0.76172 -0.77344,1.8672 -0.78125,3.3125 v 7.5156 h -4.9219 v -7.9844 c 0,-1.6953 -0.14844,-2.7852 -0.4375,-3.2656 -0.29297,-0.48828 -0.8125,-0.73438 -1.5625,-0.73438 -0.9375,0 -1.6641,0.38672 -2.1719,1.1562 -0.51172,0.76172 -0.76562,1.8594 -0.76562,3.2969 v 7.5312 h -4.9219 v -15.312 h 4.9219 v 2.2344 c 0.60156,-0.86328 1.2891,-1.5156 2.0625,-1.9531 0.78125,-0.4375 1.6406,-0.65625 2.5781,-0.65625 1.0625,0 2,0.25781 2.8125,0.76562 0.8125,0.51172 1.4258,1.2305 1.8438,2.1562 z"
         id="path135850" />
    </symbol>
    <symbol
       id="p-5"
       overflow="visible">
      <path
         d="M 17.75,-9.3281 V 0 h -4.9219 v -7.1094 c 0,-1.3438 -0.03125,-2.2656 -0.09375,-2.7656 -0.0625,-0.5 -0.16797,-0.86719 -0.3125,-1.1094 -0.1875,-0.3125 -0.44922,-0.55469 -0.78125,-0.73438 -0.32422,-0.17578 -0.69531,-0.26562 -1.1094,-0.26562 -1.0234,0 -1.8242,0.39844 -2.4062,1.1875 -0.58594,0.78125 -0.875,1.8711 -0.875,3.2656 V -1e-4 H 2.3594 v -21.281 H 7.25 v 8.2031 c 0.73828,-0.88281 1.5195,-1.5391 2.3438,-1.9688 0.83203,-0.42578 1.75,-0.64062 2.75,-0.64062 1.7695,0 3.1133,0.54688 4.0312,1.6406 0.91406,1.0859 1.375,2.6562 1.375,4.7188 z"
         id="path135853" />
    </symbol>
    <symbol
       id="o-0"
       overflow="visible">
      <path
         d="m 2.5781,-20.406 h 5.875 l 7.4219,14 v -14 h 4.9844 V 0 h -5.875 L 7.5625,-14 V 0 H 2.5781 Z"
         id="path135856" />
    </symbol>
    <symbol
       id="n-96"
       overflow="visible">
      <path
         d="m 2.1875,-5.9688 v -9.3438 h 4.9219 v 1.5312 c 0,0.83594 -0.00781,1.875 -0.015625,3.125 -0.011719,1.25 -0.015625,2.0859 -0.015625,2.5 0,1.2422 0.03125,2.1328 0.09375,2.6719 0.070313,0.54297 0.17969,0.93359 0.32812,1.1719 0.20703,0.32422 0.47266,0.57422 0.79688,0.75 0.32031,0.16797 0.69141,0.25 1.1094,0.25 1.0195,0 1.8203,-0.39062 2.4062,-1.1719 0.58203,-0.78125 0.875,-1.8672 0.875,-3.2656 v -7.5625 h 4.8906 V -6e-4 H 12.6875 V -2.2194 C 11.94531,-1.32096 11.1641,-0.6608 10.3437,-0.235 9.51948,0.17906 8.6093,0.39 7.6093,0.39 5.8476,0.39 4.5038,-0.14906 3.5781,-1.235 2.64841,-2.317 2.1875,-3.8952 2.1875,-5.9694 Z"
         id="path135859" />
    </symbol>
    <symbol
       id="m-3"
       overflow="visible">
      <path
         d="m 2.5781,-20.406 h 8.7344 c 2.5938,0 4.582,0.57812 5.9688,1.7344 1.3945,1.1484 2.0938,2.7891 2.0938,4.9219 0,2.1367 -0.69922,3.7812 -2.0938,4.9375 -1.3867,1.1562 -3.375,1.7344 -5.9688,1.7344 H 7.8281 V 3e-4 h -5.25 z m 5.25,3.8125 v 5.7031 H 10.75 c 1.0195,0 1.8047,-0.25 2.3594,-0.75 0.5625,-0.5 0.84375,-1.2031 0.84375,-2.1094 0,-0.91406 -0.28125,-1.6172 -0.84375,-2.1094 -0.55469,-0.48828 -1.3398,-0.73438 -2.3594,-0.73438 z"
         id="path135862" />
    </symbol>
    <symbol
       id="l-8"
       overflow="visible">
      <path
         d="M 2.3594,-15.312 H 7.25 v 15.031 c 0,2.0508 -0.49609,3.6172 -1.4844,4.7031 -0.98047,1.082 -2.4062,1.625 -4.2812,1.625 H -0.9375 V 2.8283 h 0.85938 c 0.92578,0 1.5625,-0.21094 1.9062,-0.625 0.35156,-0.41797 0.53125,-1.2461 0.53125,-2.4844 z m 0,-5.9688 H 7.25 v 4 H 2.3594 Z"
         id="path135865" />
    </symbol>
    <symbol
       id="g-3"
       overflow="visible">
      <path
         d="m 18.766,-1.125 c -0.96875,0.5 -1.9805,0.875 -3.0312,1.125 -1.043,0.25781 -2.1367,0.39062 -3.2812,0.39062 -3.3984,0 -6.0898,-0.94531 -8.0781,-2.8438 -1.9922,-1.9062 -2.9844,-4.4844 -2.9844,-7.7344 0,-3.2578 0.99219,-5.8359 2.9844,-7.7344 1.9883,-1.9062 4.6797,-2.8594 8.0781,-2.8594 1.1445,0 2.2383,0.13281 3.2812,0.39062 1.0508,0.25 2.0625,0.625 3.0312,1.125 v 4.2188 c -0.98047,-0.65625 -1.9453,-1.1406 -2.8906,-1.4531 -0.94922,-0.3125 -1.9492,-0.46875 -3,-0.46875 -1.875,0 -3.3516,0.60547 -4.4219,1.8125 -1.0742,1.1992 -1.6094,2.8555 -1.6094,4.9688 0,2.1055 0.53516,3.7617 1.6094,4.9688 1.0703,1.1992 2.5469,1.7969 4.4219,1.7969 1.0508,0 2.0508,-0.14844 3,-0.45312 0.94531,-0.3125 1.9102,-0.80078 2.8906,-1.4688 z"
         id="path969" />
    </symbol>
    <symbol
       id="a-67"
       overflow="visible">
      <path
         d="m 13.734,-11.141 c -0.4375,-0.19531 -0.87109,-0.34375 -1.2969,-0.4375 -0.41797,-0.10156 -0.83984,-0.15625 -1.2656,-0.15625 -1.2617,0 -2.2305,0.40625 -2.9062,1.2188 -0.67969,0.80469 -1.0156,1.9531 -1.0156,3.4531 v 7.0625 H 2.3591 v -15.312 h 4.8906 v 2.5156 c 0.625,-1 1.3438,-1.7266 2.1562,-2.1875 0.82031,-0.46875 1.8008,-0.70312 2.9375,-0.70312 0.16406,0 0.34375,0.01172 0.53125,0.03125 0.19531,0.01172 0.47656,0.03906 0.84375,0.07813 z"
         id="path972" />
    </symbol>
    <symbol
       id="b-53"
       overflow="visible">
      <path
         d="m 17.641,-7.7031 v 1.4062 H 6.188 c 0.125,1.1484 0.53906,2.0078 1.25,2.5781 0.70703,0.57422 1.7031,0.85938 2.9844,0.85938 1.0312,0 2.082,-0.14844 3.1562,-0.45312 1.082,-0.3125 2.1914,-0.77344 3.3281,-1.3906 v 3.7656 c -1.1562,0.4375 -2.3125,0.76562 -3.4688,0.98438 -1.1562,0.22656 -2.3125,0.34375 -3.4688,0.34375 -2.7734,0 -4.9297,-0.70312 -6.4688,-2.1094 -1.5312,-1.4062 -2.2969,-3.3789 -2.2969,-5.9219 0,-2.5 0.75391,-4.4609 2.2656,-5.8906 1.5078,-1.4375 3.582,-2.1562 6.2188,-2.1562 2.4062,0 4.332,0.73047 5.7812,2.1875 1.4453,1.4492 2.1719,3.3828 2.1719,5.7969 z m -5.0312,-1.625 c 0,-0.92578 -0.27344,-1.6719 -0.8125,-2.2344 -0.54297,-0.57031 -1.25,-0.85938 -2.125,-0.85938 -0.94922,0 -1.7188,0.26562 -2.3125,0.79688 -0.5937,0.53126 -0.96484,1.2969 -1.1094,2.2969 z"
         id="path975" />
    </symbol>
    <symbol
       id="e-56"
       overflow="visible">
      <path
         d="m 9.2188,-6.8906 c -1.0234,0 -1.793,0.17188 -2.3125,0.51562 -0.51172,0.34375 -0.76562,0.85547 -0.76562,1.5312 0,0.625 0.20703,1.1172 0.625,1.4688 0.41406,0.34375 0.98828,0.51562 1.7188,0.51562 0.92578,0 1.7031,-0.32812 2.3281,-0.98438 0.63281,-0.66406 0.95312,-1.4922 0.95312,-2.4844 v -0.5625 z m 7.4688,-1.8438 V 0 h -4.9219 v -2.2656 c -0.65625,0.92969 -1.3984,1.6055 -2.2188,2.0312 -0.82422,0.41406 -1.8242,0.625 -3,0.625 -1.5859,0 -2.8711,-0.45703 -3.8594,-1.375 -0.99219,-0.92578 -1.4844,-2.1289 -1.4844,-3.6094 0,-1.7891 0.61328,-3.1016 1.8438,-3.9375 1.2383,-0.84375 3.1797,-1.2656 5.8281,-1.2656 h 2.8906 v -0.39062 c 0,-0.76953 -0.30859,-1.332 -0.92188,-1.6875 -0.61719,-0.36328 -1.5703,-0.54688 -2.8594,-0.54688 -1.0547,0 -2.0312,0.10547 -2.9375,0.3125 -0.89844,0.21094 -1.7305,0.52344 -2.5,0.9375 v -3.7344 c 1.0391,-0.25 2.0859,-0.44141 3.1406,-0.57812 1.0625,-0.13281 2.125,-0.20312 3.1875,-0.20312 2.7578,0 4.75,0.54688 5.9688,1.6406 1.2266,1.0859 1.8438,2.8555 1.8438,5.3125 z"
         id="path978" />
    </symbol>
    <symbol
       id="d-2"
       overflow="visible">
      <path
         d="m 7.7031,-19.656 v 4.3438 H 12.75 v 3.5 H 7.7031 v 6.5 c 0,0.71094 0.14062,1.1875 0.42188,1.4375 0.28126,0.25 0.83594,0.375 1.6719,0.375 h 2.5156 v 3.5 h -4.1875 c -1.9375,0 -3.3125,-0.39844 -4.125,-1.2031 -0.80469,-0.8125 -1.2031,-2.1797 -1.2031,-4.1094 v -6.5 h -2.4219 v -3.5 h 2.4219 v -4.3438 z"
         id="path981" />
    </symbol>
    <symbol
       id="k-9"
       overflow="visible">
      <path
         d="m 12.766,-13.078 v -8.2031 h 4.9219 V -1e-4 H 12.766 v -2.2188 c -0.66797,0.90625 -1.4062,1.5703 -2.2188,1.9844 -0.8126,0.4141 -1.7578,0.625 -2.8281,0.625 -1.8867,0 -3.4336,-0.75 -4.6406,-2.25 -1.2109,-1.5 -1.8125,-3.4258 -1.8125,-5.7812 0,-2.3633 0.60156,-4.2969 1.8125,-5.7969 1.207,-1.5 2.7539,-2.25 4.6406,-2.25 1.0625,0 2,0.21484 2.8125,0.64062 0.82031,0.42969 1.5664,1.0859 2.2344,1.9688 z m -3.2188,9.9219 c 1.0391,0 1.8359,-0.37891 2.3906,-1.1406 0.55078,-0.76953 0.82812,-1.8828 0.82812,-3.3438 0,-1.457 -0.27734,-2.5664 -0.82812,-3.3281 -0.55469,-0.76953 -1.3516,-1.1562 -2.3906,-1.1562 -1.043,0 -1.8398,0.38672 -2.3906,1.1562 -0.55469,0.76172 -0.82812,1.8711 -0.82812,3.3281 0,1.4609 0.27344,2.5742 0.82812,3.3438 0.55078,0.76172 1.3477,1.1406 2.3906,1.1406 z"
         id="path984" />
    </symbol>
    <symbol
       id="j-1"
       overflow="visible">
      <path
         d="m 10.5,-3.1562 c 1.0508,0 1.8516,-0.37891 2.4062,-1.1406 0.55078,-0.76953 0.82812,-1.8828 0.82812,-3.3438 0,-1.457 -0.27734,-2.5664 -0.82812,-3.3281 -0.55469,-0.76953 -1.3555,-1.1562 -2.4062,-1.1562 -1.0547,0 -1.8594,0.38672 -2.4219,1.1562 -0.55469,0.77344 -0.82812,1.8828 -0.82812,3.3281 0,1.4492 0.27344,2.5586 0.82812,3.3281 0.5625,0.77344 1.3672,1.1562 2.4219,1.1562 z m -3.25,-9.9219 c 0.67578,-0.88281 1.4219,-1.5391 2.2344,-1.9688 0.82031,-0.42578 1.7656,-0.64062 2.8281,-0.64062 1.8945,0 3.4453,0.75 4.6562,2.25 1.207,1.5 1.8125,3.4336 1.8125,5.7969 0,2.3555 -0.60547,4.2812 -1.8125,5.7812 -1.2109,1.5 -2.7617,2.25 -4.6562,2.25 -1.0625,0 -2.0078,-0.21094 -2.8281,-0.625 C 8.6719,-0.6602 7.9258,-1.32032 7.25,-2.21882 V -2e-5 H 2.3594 v -21.281 H 7.25 Z"
         id="path987" />
    </symbol>
    <symbol
       id="i-2"
       overflow="visible">
      <path
         d="m 0.34375,-15.312 h 4.8906 l 4.125,10.391 3.5,-10.391 h 4.8906 l -6.4375,16.766 c -0.64844,1.6953 -1.4023,2.8828 -2.2656,3.5625 -0.86719,0.6875 -2,1.0312 -3.4062,1.0312 H 2.79685 V 2.8289 h 1.5312 c 0.83203,0 1.4375,-0.13672 1.8125,-0.40625 C 6.52336,2.16093 6.82024,1.69218 7.03117,1.01645 L 7.17179,0.59457 Z"
         id="path990" />
    </symbol>
    <symbol
       id="h-7"
       overflow="visible">
      <path
         d="m 20.922,-1.5156 c -1.3125,0.63672 -2.6797,1.1172 -4.0938,1.4375 -1.4062,0.3125 -2.8672,0.46875 -4.375,0.46875 -3.3984,0 -6.0898,-0.94531 -8.0781,-2.8438 -1.9922,-1.9062 -2.9844,-4.4844 -2.9844,-7.7344 0,-3.2891 1.0078,-5.8789 3.0312,-7.7656 2.0312,-1.8828 4.8047,-2.8281 8.3281,-2.8281 1.3516,0 2.6484,0.13281 3.8906,0.39062 1.25,0.25 2.4258,0.625 3.5312,1.125 v 4.2188 c -1.1484,-0.64453 -2.2812,-1.125 -3.4062,-1.4375 -1.125,-0.32031 -2.25,-0.48438 -3.375,-0.48438 -2.1055,0 -3.7266,0.58984 -4.8594,1.7656 -1.125,1.168 -1.6875,2.8398 -1.6875,5.0156 0,2.1562 0.54688,3.8242 1.6406,5 1.0938,1.1797 2.6445,1.7656 4.6562,1.7656 0.53906,0 1.0469,-0.03125 1.5156,-0.09375 0.47656,-0.070313 0.89844,-0.17969 1.2656,-0.32812 v -3.9688 h -3.2031 v -3.5156 h 8.2031 z"
         id="path993" />
    </symbol>
    <symbol
       id="u-0"
       overflow="visible">
      <path
         d="m 12.766,-2.5938 c -0.66797,0.88672 -1.4062,1.543 -2.2188,1.9688 C 9.7347,-0.20703 8.7894,0 7.7191,0 5.8519,0 4.3129,-0.73438 3.0941,-2.2031 1.8753,-3.6797 1.266,-5.5547 1.266,-7.8281 c 0,-2.2891 0.60938,-4.1641 1.8281,-5.625 1.2188,-1.4688 2.7578,-2.2031 4.625,-2.2031 1.0703,0 2.0156,0.21484 2.8281,0.64062 0.8125,0.41797 1.5508,1.0742 2.2188,1.9688 v -2.2656 h 4.9219 v 13.766 c 0,2.457 -0.77734,4.3359 -2.3281,5.6406 -1.5547,1.3008 -3.8086,1.9531 -6.7656,1.9531 -0.94922,0 -1.8711,-0.074219 -2.7656,-0.21875 C 4.93016,5.68013 4.0317,5.45748 3.1255,5.15669 v -3.8125 c 0.86328,0.48828 1.7031,0.85156 2.5156,1.0938 0.82031,0.23828 1.6484,0.35938 2.4844,0.35938 1.6016,0 2.7734,-0.35156 3.5156,-1.0469 0.75,-0.69922 1.125,-1.7969 1.125,-3.2969 z M 9.5472,-12.125 c -1.0117,0 -1.8047,0.375 -2.375,1.125 -0.5625,0.74219 -0.84375,1.7969 -0.84375,3.1719 0,1.3984 0.26953,2.4609 0.8125,3.1875 0.55078,0.71875 1.3516,1.0781 2.4062,1.0781 1.0195,0 1.8125,-0.36719 2.375,-1.1094 0.5625,-0.75 0.84375,-1.8008 0.84375,-3.1562 0,-1.375 -0.28125,-2.4297 -0.84375,-3.1719 -0.5625,-0.75 -1.3555,-1.125 -2.375,-1.125 z"
         id="path996" />
    </symbol>
    <symbol
       id="c-93"
       overflow="visible">
      <path
         d="m 9.6406,-12.188 c -1.0859,0 -1.9141,0.39062 -2.4844,1.1719 -0.57422,0.78125 -0.85938,1.9062 -0.85938,3.375 0,1.4688 0.28516,2.5938 0.85938,3.375 0.57031,0.77344 1.3984,1.1562 2.4844,1.1562 1.0625,0 1.875,-0.38281 2.4375,-1.1562 0.57031,-0.78125 0.85938,-1.9062 0.85938,-3.375 0,-1.4688 -0.28906,-2.5938 -0.85938,-3.375 -0.5625,-0.78125 -1.375,-1.1719 -2.4375,-1.1719 z m 0,-3.5 c 2.6328,0 4.6914,0.71484 6.1719,2.1406 1.4766,1.418 2.2188,3.3867 2.2188,5.9062 0,2.5117 -0.74219,4.4805 -2.2188,5.9062 C 14.332,-0.317 12.2734,0.39 9.6406,0.39 6.9922,0.39 4.9258,-0.31703 3.4375,-1.735 1.9453,-3.1608 1.2031,-5.1295 1.2031,-7.6412 c 0,-2.5195 0.74219,-4.4883 2.2344,-5.9062 1.4883,-1.4258 3.5547,-2.1406 6.2031,-2.1406 z"
         id="path999" />
    </symbol>
    <symbol
       id="t-6"
       overflow="visible">
      <path
         d="m 14.312,-14.828 v 3.7188 c -1.043,-0.4375 -2.0547,-0.76562 -3.0312,-0.98438 -0.98047,-0.21875 -1.9023,-0.32812 -2.7656,-0.32812 -0.92969,0 -1.6211,0.11719 -2.0781,0.34375 -0.44922,0.23047 -0.67188,0.58984 -0.67188,1.0781 0,0.38672 0.17188,0.68359 0.51562,0.89062 0.34375,0.21094 0.95703,0.36719 1.8438,0.46875 l 0.85938,0.125 c 2.5078,0.32422 4.1953,0.85156 5.0625,1.5781 0.86328,0.73047 1.2969,1.8711 1.2969,3.4219 0,1.6367 -0.60547,2.8672 -1.8125,3.6875 -1.1992,0.8125 -2.9922,1.2188 -5.375,1.2188 -1.0234,0 -2.0742,-0.078125 -3.1562,-0.23438 -1.0742,-0.15625 -2.1797,-0.39453 -3.3125,-0.71875 v -3.7188 c 0.96875,0.48047 1.9609,0.83984 2.9844,1.0781 1.0312,0.23047 2.0781,0.34375 3.1406,0.34375 0.95703,0 1.6758,-0.12891 2.1562,-0.39062 0.47656,-0.26953 0.71875,-0.66406 0.71875,-1.1875 0,-0.4375 -0.16797,-0.75781 -0.5,-0.96875 -0.33594,-0.21875 -0.99609,-0.38281 -1.9844,-0.5 L 7.34339,-6.01551 c -2.1797,-0.26953 -3.7031,-0.77344 -4.5781,-1.5156 -0.875,-0.73828 -1.3125,-1.8594 -1.3125,-3.3594 0,-1.625 0.55078,-2.8281 1.6562,-3.6094 1.1133,-0.78906 2.8203,-1.1875 5.125,-1.1875 0.89453,0 1.8359,0.07422 2.8281,0.21875 1,0.13672 2.082,0.35156 3.25,0.64062 z"
         id="path1002" />
    </symbol>
    <symbol
       id="f-0"
       overflow="visible">
      <path
         d="M 17.75,-9.3281 V 0 h -4.9219 v -7.1406 c 0,-1.3203 -0.03125,-2.2344 -0.09375,-2.7344 -0.0625,-0.5 -0.16797,-0.86719 -0.3125,-1.1094 -0.1875,-0.3125 -0.44922,-0.55469 -0.78125,-0.73438 -0.32422,-0.17578 -0.69531,-0.26562 -1.1094,-0.26562 -1.0234,0 -1.8242,0.39844 -2.4062,1.1875 -0.58594,0.78125 -0.875,1.8711 -0.875,3.2656 V -1e-4 H 2.3594 v -15.312 H 7.25 v 2.2344 c 0.73828,-0.88281 1.5195,-1.5391 2.3438,-1.9688 0.83203,-0.42578 1.75,-0.64062 2.75,-0.64062 1.7695,0 3.1133,0.54688 4.0312,1.6406 0.91406,1.0859 1.375,2.6562 1.375,4.7188 z"
         id="path1005" />
    </symbol>
    <symbol
       id="s-6"
       overflow="visible">
      <path
         d="m 12.422,-21.281 v 3.2188 H 9.7189 c -0.6875,0 -1.1719,0.125 -1.4531,0.375 -0.27344,0.25 -0.40625,0.6875 -0.40625,1.3125 v 1.0625 h 4.1875 v 3.5 H 7.85955 V -2e-4 h -4.8906 v -11.812 h -2.4375 v -3.5 h 2.4375 v -1.0625 c 0,-1.6641 0.46094,-2.8984 1.3906,-3.7031 0.92578,-0.80078 2.3672,-1.2031 4.3281,-1.2031 z"
         id="path1008" />
    </symbol>
    <symbol
       id="r-2"
       overflow="visible">
      <path
         d="m 16.547,-12.766 c 0.61328,-0.94531 1.3477,-1.6719 2.2031,-2.1719 0.85156,-0.5 1.7891,-0.75 2.8125,-0.75 1.7578,0 3.0977,0.54688 4.0156,1.6406 0.92578,1.0859 1.3906,2.6562 1.3906,4.7188 V -4e-4 h -4.9219 v -7.9844 -0.35938 c 0.0078,-0.13281 0.01563,-0.32031 0.01563,-0.5625 0,-1.082 -0.16406,-1.8633 -0.48438,-2.3438 -0.3125,-0.48828 -0.82422,-0.73438 -1.5312,-0.73438 -0.92969,0 -1.6484,0.38672 -2.1562,1.1562 -0.51172,0.76172 -0.77344,1.8672 -0.78125,3.3125 v 7.5156 h -4.9219 v -7.9844 c 0,-1.6953 -0.14844,-2.7852 -0.4375,-3.2656 -0.29297,-0.48828 -0.8125,-0.73438 -1.5625,-0.73438 -0.9375,0 -1.6641,0.38672 -2.1719,1.1562 -0.51172,0.76172 -0.76562,1.8594 -0.76562,3.2969 v 7.5312 h -4.9219 v -15.312 h 4.9219 v 2.2344 c 0.60156,-0.86328 1.2891,-1.5156 2.0625,-1.9531 0.78125,-0.4375 1.6406,-0.65625 2.5781,-0.65625 1.0625,0 2,0.25781 2.8125,0.76562 0.8125,0.51172 1.4258,1.2305 1.8438,2.1562 z"
         id="path1011" />
    </symbol>
    <symbol
       id="q-6"
       overflow="visible">
      <path
         d="M 17.75,-9.3281 V 0 h -4.9219 v -7.1094 c 0,-1.3438 -0.03125,-2.2656 -0.09375,-2.7656 -0.0625,-0.5 -0.16797,-0.86719 -0.3125,-1.1094 -0.1875,-0.3125 -0.44922,-0.55469 -0.78125,-0.73438 -0.32422,-0.17578 -0.69531,-0.26562 -1.1094,-0.26562 -1.0234,0 -1.8242,0.39844 -2.4062,1.1875 -0.58594,0.78125 -0.875,1.8711 -0.875,3.2656 V -1e-4 H 2.3594 v -21.281 H 7.25 v 8.2031 c 0.73828,-0.88281 1.5195,-1.5391 2.3438,-1.9688 0.83203,-0.42578 1.75,-0.64062 2.75,-0.64062 1.7695,0 3.1133,0.54688 4.0312,1.6406 0.91406,1.0859 1.375,2.6562 1.375,4.7188 z"
         id="path1014" />
    </symbol>
    <symbol
       id="p-1"
       overflow="visible">
      <path
         d="m 2.5781,-20.406 h 5.875 l 7.4219,14 v -14 h 4.9844 V 0 h -5.875 L 7.5625,-14 V 0 H 2.5781 Z"
         id="path1017" />
    </symbol>
    <symbol
       id="o-8"
       overflow="visible">
      <path
         d="m 2.1875,-5.9688 v -9.3438 h 4.9219 v 1.5312 c 0,0.83594 -0.00781,1.875 -0.015625,3.125 -0.011719,1.25 -0.015625,2.0859 -0.015625,2.5 0,1.2422 0.03125,2.1328 0.09375,2.6719 0.070313,0.54297 0.17969,0.93359 0.32812,1.1719 0.20703,0.32422 0.47266,0.57422 0.79688,0.75 0.32031,0.16797 0.69141,0.25 1.1094,0.25 1.0195,0 1.8203,-0.39062 2.4062,-1.1719 0.58203,-0.78125 0.875,-1.8672 0.875,-3.2656 v -7.5625 h 4.8906 V -6e-4 H 12.6875 V -2.2194 C 11.94531,-1.32096 11.1641,-0.6608 10.3437,-0.235 9.51948,0.17906 8.6093,0.39 7.6093,0.39 5.8476,0.39 4.5038,-0.14906 3.5781,-1.235 2.64841,-2.317 2.1875,-3.8952 2.1875,-5.9694 Z"
         id="path1020" />
    </symbol>
    <symbol
       id="n-7"
       overflow="visible">
      <path
         d="m 2.5781,-20.406 h 8.7344 c 2.5938,0 4.582,0.57812 5.9688,1.7344 1.3945,1.1484 2.0938,2.7891 2.0938,4.9219 0,2.1367 -0.69922,3.7812 -2.0938,4.9375 -1.3867,1.1562 -3.375,1.7344 -5.9688,1.7344 H 7.8281 V 3e-4 h -5.25 z m 5.25,3.8125 v 5.7031 H 10.75 c 1.0195,0 1.8047,-0.25 2.3594,-0.75 0.5625,-0.5 0.84375,-1.2031 0.84375,-2.1094 0,-0.91406 -0.28125,-1.6172 -0.84375,-2.1094 -0.55469,-0.48828 -1.3398,-0.73438 -2.3594,-0.73438 z"
         id="path1023" />
    </symbol>
    <symbol
       id="m-9"
       overflow="visible">
      <path
         d="M 2.3594,-15.312 H 7.25 v 15.031 c 0,2.0508 -0.49609,3.6172 -1.4844,4.7031 -0.98047,1.082 -2.4062,1.625 -4.2812,1.625 H -0.9375 V 2.8283 h 0.85938 c 0.92578,0 1.5625,-0.21094 1.9062,-0.625 0.35156,-0.41797 0.53125,-1.2461 0.53125,-2.4844 z m 0,-5.9688 H 7.25 v 4 H 2.3594 Z"
         id="path1026" />
    </symbol>
    <symbol
       id="l-2"
       overflow="visible">
      <path
         d="m 14.719,-14.828 v 3.9844 c -0.65625,-0.45703 -1.3242,-0.79688 -2,-1.0156 -0.66797,-0.21875 -1.3594,-0.32812 -2.0781,-0.32812 -1.3672,0 -2.4336,0.40234 -3.2031,1.2031 -0.76172,0.79297 -1.1406,1.9062 -1.1406,3.3438 0,1.4297 0.37891,2.543 1.1406,3.3438 0.76953,0.79297 1.8359,1.1875 3.2031,1.1875 0.75781,0 1.4844,-0.10938 2.1719,-0.32812 0.6875,-0.22656 1.3203,-0.56641 1.9062,-1.0156 v 4 c -0.76172,0.28125 -1.5391,0.48828 -2.3281,0.625 -0.78125,0.14453 -1.5742,0.21875 -2.375,0.21875 -2.7617,0 -4.9219,-0.70703 -6.4844,-2.125 -1.5547,-1.4141 -2.3281,-3.3828 -2.3281,-5.9062 0,-2.5312 0.77344,-4.5039 2.3281,-5.9219 1.5625,-1.4141 3.7227,-2.125 6.4844,-2.125 0.80078,0 1.5938,0.07422 2.375,0.21875 0.78125,0.13672 1.5547,0.35156 2.3281,0.64062 z"
         id="path1029" />
    </symbol>
    <radialGradient
       inkscape:collect="always"
       xlink:href="#linearGradient59582"
       id="radialGradient59584-8"
       cx="3.1341121"
       cy="-11.802048"
       fx="3.1341121"
       fy="-11.802048"
       r="59.040707"
       gradientTransform="matrix(1.2169714,-0.3260865,0.35250371,1.3155617,81.72936,74.176922)"
       gradientUnits="userSpaceOnUse" />
    <linearGradient
       inkscape:collect="always"
       id="linearGradient59582">
      <stop
         style="stop-color:#ffffff;stop-opacity:0.99607843"
         offset="0"
         id="stop59578" />
      <stop
         style="stop-color:#b2d1e1;stop-opacity:1"
         offset="1"
         id="stop59580" />
    </linearGradient>
  </defs>
  <g
     inkscape:label="Layer 1"
     inkscape:groupmode="layer"
     id="layer1">
    <g
       aria-label="pikt"
       id="text10667"
       style="font-weight:bold;font-size:61.8398px;line-height:1.25;font-family:Caladea;-inkscape-font-specification:'Caladea Bold';letter-spacing:2.64583px;fill:#171a1c;fill-opacity:1;stroke-width:1.546"
       transform="matrix(0.89618685,-0.01925264,0.02062254,0.95995431,81.274272,67.256245)">
      <g
         id="g48412"
         transform="matrix(0.32370103,0,0,0.30219835,-144.13784,-1.8403781)" />
      <path
         id="path57580"
         style="font-weight:bold;font-size:61.8398px;line-height:1.25;font-family:Caladea;-inkscape-font-specification:'Caladea Bold';letter-spacing:2.64583px;fill:#ebf3f5;fill-opacity:0.996078;stroke-width:3.176"
         d="m -13.494497,-29.041345 c -23.25304,3.773492 -46.506949,7.542734 -69.758781,11.322497 -2.093083,0.382745 -3.840995,2.011774 -4.267452,3.961463 -0.453557,1.90477 0.371517,4.0199411 2.056096,5.1828719 1.26742,0.9135725 2.988307,1.2557585 4.537977,0.9358056 l 58.530591,-9.4954875 c 20.1095576,-3.313394 25.4535349,-14.634365 8.901569,-11.90715 z"
         sodipodi:nodetypes="ccccccc" />
      <path
         id="path61075"
         style="font-weight:bold;font-size:61.8398px;line-height:1.25;font-family:Caladea;-inkscape-font-specification:'Caladea Bold';letter-spacing:2.64583px;fill:#e1583c;fill-opacity:1;stroke-width:3.02691"
         d="m 26.282993,-50.935246 c 21.940932,4.62712 53.884062,10.692018 75.624677,16.080508 1.95327,0.52541 3.46813,2.20738 3.69987,4.09151 0.26146,1.84358 -0.70975,3.78795 -2.41245,4.76169 -1.28448,0.76928 -2.94876,0.96096 -4.391666,0.53723 l -64.998129,-13.54602 c -18.798605,-4.702469 -59.4085,-22.867191 -7.522302,-11.924918 z"
         sodipodi:nodetypes="scccccs" />
      <path
         id="path61077"
         style="font-weight:bold;font-size:61.8398px;line-height:1.25;font-family:Caladea;-inkscape-font-specification:'Caladea Bold';letter-spacing:2.64583px;fill:#e19c3c;fill-opacity:1;stroke-width:3.02691"
         d="m 26.539535,-41.375084 c 21.742299,5.38263 53.755783,10.76129 75.496395,16.14978 1.95327,0.52541 3.46813,2.20738 3.69987,4.09151 0.26146,1.84358 -0.70975,3.78795 -2.41245,4.76169 -1.28448,0.76928 -2.94875,0.96096 -4.391666,0.53723 L 33.933558,-29.380894 C 15.134953,-34.083363 11.0666,-45.245635 26.539535,-41.375084 Z"
         sodipodi:nodetypes="ccccccc" />
      <path
         id="path61675"
         style="font-weight:bold;font-size:61.8398px;line-height:1.25;font-family:Caladea;-inkscape-font-specification:'Caladea Bold';letter-spacing:2.64583px;fill:#e1d63c;fill-opacity:1;stroke-width:3.02691"
         d="m 26.539535,-31.77358 c 21.742299,5.38263 53.755783,10.76129 75.496395,16.14978 1.95327,0.52541 3.46813,2.20738 3.69987,4.09151 0.26146,1.8435796 -0.70975,3.7879484 -2.41245,4.7616876 -1.28448,0.7692796 -2.94875,0.9609596 -4.391666,0.5372296 L 33.933558,-19.77939 C 15.134953,-24.481859 11.0666,-35.644131 26.539535,-31.77358 Z"
         sodipodi:nodetypes="ccccccc" />
      <path
         id="path61699"
         style="font-weight:bold;font-size:61.8398px;line-height:1.25;font-family:Caladea;-inkscape-font-specification:'Caladea Bold';letter-spacing:2.64583px;fill:#41dd41;fill-opacity:1;stroke-width:3.02691"
         d="m 26.539535,-22.172076 c 21.742299,5.38263 53.755783,10.76129 75.496395,16.1497772 1.95327,0.5254096 3.46813,2.2073784 3.69987,4.0915072 0.26146,1.84357892 -0.70975,3.7879478 -2.41245,4.7616874 -1.28448,0.7692796 -2.94875,0.9609596 -4.391666,0.537229 L 33.933558,-10.177886 C 15.134953,-14.880355 11.0666,-26.042627 26.539535,-22.172076 Z"
         sodipodi:nodetypes="ccccccc" />
      <path
         id="path61755"
         style="font-weight:bold;font-size:61.8398px;line-height:1.25;font-family:Caladea;-inkscape-font-specification:'Caladea Bold';letter-spacing:2.64583px;fill:#43b4da;fill-opacity:1;stroke-width:3.02691"
         d="m 26.539535,-12.570572 c 21.742299,5.382628 53.755783,10.7612844 75.496395,16.1497714 1.95327,0.5254096 3.46813,2.2073778 3.69987,4.0915072 0.26146,1.8435788 -0.70975,3.7879484 -2.41245,4.7616884 -1.28448,0.76928 -2.94875,0.96096 -4.391666,0.537229 L 33.933558,-0.57638832 C 15.134953,-5.2788542 11.0666,-16.441123 26.539535,-12.570572 Z"
         sodipodi:nodetypes="ccccccc" />
      <path
         id="path76818"
         style="font-weight:bold;font-size:61.8398px;line-height:1.25;font-family:Caladea;-inkscape-font-specification:'Caladea Bold';letter-spacing:2.64583px;fill:#445dda;fill-opacity:1;stroke-width:3.02691"
         d="m 26.539535,-2.9690728 c 21.742299,5.3826266 53.755783,10.7612834 75.496395,16.1497718 1.95327,0.52541 3.46813,2.207379 3.69987,4.09151 0.26146,1.84358 -0.70975,3.78795 -2.41245,4.76169 -1.28448,0.76928 -2.94875,0.96096 -4.391666,0.537229 L 33.933558,9.0251098 C 15.134953,4.322644 11.0666,-6.8396214 26.539535,-2.9690728 Z"
         sodipodi:nodetypes="ccccccc" />
    </g>
    <text
       xml:space="preserve"
       transform="scale(0.26458333)"
       id="text61067"
       style="font-style:normal;font-weight:normal;font-size:40px;line-height:1.25;font-family:sans-serif;white-space:pre;shape-inside:url(#rect61069);fill:#000000;fill-opacity:1;stroke:none" />
    <text
       xml:space="preserve"
       style="font-style:normal;font-variant:normal;font-weight:bold;font-stretch:normal;font-size:65.6167px;line-height:1.25;font-family:Caladea;-inkscape-font-specification:'Caladea Bold';stroke-width:1.53944"
       x="248.13985"
       y="66.437347"
       id="text99089"><tspan
         sodipodi:role="line"
         id="tspan99087"
         style="font-style:normal;font-variant:normal;font-weight:bold;font-stretch:normal;font-size:65.6167px;font-family:Caladea;-inkscape-font-specification:'Caladea Bold';stroke-width:1.53944"
         x="248.13985"
         y="66.437347" /></text>
    <g
       aria-label="prism"
       id="text2957"
       style="font-weight:bold;font-size:105.44px;line-height:1.25;font-family:Rubik;-inkscape-font-specification:Rubik;letter-spacing:0px;fill:#070808;fill-opacity:1;stroke-width:4.07527"
       transform="matrix(0.88199569,0,0,0.88199569,34.782321,18.498348)">
      <path
         id="path6820"
         style="font-weight:normal;font-family:'Just Me Again Down Here';-inkscape-font-specification:'Just Me Again Down Here';fill:#151b1e;fill-opacity:1"
         d="m 202.37921,30.393174 c -2.06492,-0.0029 -3.97435,1.179177 -6.04162,1.19712 -1.5705,0.01363 -3.6507,-1.406323 -5.15688,-0.836943 -1.84588,0.6978 -3.2945,2.530986 -3.11651,4.530158 0.54001,6.065262 0.45859,12.360773 0.39887,18.350694 -0.11047,11.080711 -0.46481,22.165471 -0.23579,33.243496 0.0618,2.990236 1.94803,4.820642 5.64143,4.588786 3.97149,-0.249314 4.93551,-3.404854 4.89711,-6.219107 -0.083,-6.080236 -1.31809,-11.80953 0.47202,-17.69558 0.73976,-2.432384 3.42623,-0.969317 8.28291,-3.392039 5.23218,-2.610041 8.1438,-6.285839 9.37876,-12.074648 0.82393,-3.071499 0.81466,-6.34684 -0.0403,-9.411212 -0.9936,-4.207246 -3.58059,-7.928186 -7.20145,-10.512957 -2.65552,-1.895663 -4.76455,-1.74586 -7.2785,-1.767773 z m 0.60593,10.351015 c 1.21767,-0.04128 2.40967,0.567798 2.93381,1.71339 0.84363,1.84391 1.14225,3.921818 0.98781,5.918594 -0.42224,2.433935 -1.36848,4.879956 -3.07116,6.693638 -1.24205,1.323007 -4.77097,2.509859 -5.05227,0.746561 -0.23594,-1.479035 -0.1656,-3.040531 0.01,-4.855779 0.26563,-2.747937 0.15738,-5.519313 0.5132,-8.253366 0.11443,-0.879298 0.58769,-1.798499 1.5673,-1.91842 0.70281,-0.08604 1.40829,-0.02078 2.11144,-0.04462 z"
         sodipodi:nodetypes="ssssssssssccssssscssssss" />
      <path
         id="path6822"
         style="font-weight:normal;font-family:'Just Me Again Down Here';-inkscape-font-specification:'Just Me Again Down Here';fill:#151b1e;fill-opacity:1"
         d="m 237.46376,27.76412 c -3.64181,-0.04453 -6.79857,2.362147 -8.89124,5.161115 -0.73413,0.88519 -1.29305,1.952977 -1.98146,2.830382 -2.31193,0.816984 -3.87471,3.294695 -3.59301,5.73602 -0.0454,3.267971 0.20477,6.563359 0.0769,9.802612 -0.56294,1.867951 -1.65262,3.583447 -1.44845,5.507403 0.8579,5.537715 1.5457,5.705992 1.00992,10.461942 -0.11504,3.421068 -0.93986,7.177683 0.24664,10.437884 0.61706,1.484298 2.13824,2.70105 3.81259,2.438823 2.47367,-0.171355 4.27146,-2.37 4.9349,-4.611622 0.92493,-2.596285 0.55374,-11.144946 2.90545,-8.502446 3.51194,3.946155 12.984,7.443459 19.65716,5.925566 1.79977,-0.409377 3.83086,-1.667496 4.08869,-3.734053 0.30326,-2.430809 -1.22455,-5.204579 -3.78078,-5.447594 -1.77376,-0.168626 -3.19947,-0.245859 -5.31621,-0.553395 -3.29709,-0.479026 -6.84482,-1.44795 -9.27361,-3.728572 -0.60858,-0.571456 -1.09997,-1.425817 -1.0785,-2.260364 0.13237,-5.14424 5.95441,-7.609236 7.35568,-13.572787 0.91388,-3.889305 0.62213,-8.178668 -1.36391,-11.695388 -1.30867,-2.317287 -3.75149,-3.927017 -6.41055,-4.129099 -0.31441,-0.04304 -0.63384,-0.04615 -0.95022,-0.06643 z m 0.63512,11.795423 c 0.009,1.289453 -0.18597,2.594725 -0.78633,3.787683 -1.05625,2.099078 -2.27484,6.487336 -3.08274,5.33687 -1.96742,-2.801682 -0.73793,-6.477333 0.58952,-9.277237 0.44529,-0.939185 1.2664,-2.33414 2.28408,-2.122758 0.81058,0.168367 0.98525,1.585841 0.99545,2.275441 z"
         sodipodi:nodetypes="scccccccccsasssaasscsscssaacc" />
      <path
         id="path6824"
         style="font-weight:normal;font-family:'Just Me Again Down Here';-inkscape-font-specification:'Just Me Again Down Here';fill:#151b1e;fill-opacity:1"
         d="m 266.74592,31.985618 c 2.45417,0.02314 4.36643,2.042605 5.20476,4.202911 1.55155,4.359535 1.60036,9.069428 1.53925,13.645114 -0.15519,7.652497 -0.38342,15.436675 -2.63453,22.812102 -0.52365,1.772311 -1.69286,3.575137 -3.61697,3.987087 -2.17135,0.604767 -4.82866,-0.238308 -5.97729,-2.240601 -0.75159,-1.790424 -0.15114,-3.772617 0.0691,-5.612847 1.18546,-7.451138 1.79805,-14.951461 1.46716,-22.496944 -0.21468,-2.718729 -0.93443,-5.361957 -1.3659,-8.047338 -0.56061,-1.845109 -0.003,-4.058583 1.5325,-5.267513 1.07615,-0.802321 2.47923,-0.964722 3.78192,-0.981962 z" />
      <path
         id="path16897"
         style="font-weight:normal;font-family:'Just Me Again Down Here';-inkscape-font-specification:'Just Me Again Down Here';fill:#151b1e;fill-opacity:1;stroke-width:1.20922"
         d="m 264.4935,19.632869 c -3.07465,0.177778 -5.81064,3.467161 -4.84427,6.52482 1.05633,3.370128 5.4439,5.474592 8.59991,3.627173 1.69947,-1.081973 2.96967,-3.084961 2.83211,-5.138441 -0.3115,-2.529819 -2.66734,-4.228194 -5.00284,-4.777543 -0.57387,-0.11695 -1.00508,-0.25529 -1.58491,-0.236009 z" />
      <path
         id="path6826"
         style="font-weight:normal;font-family:'Just Me Again Down Here';-inkscape-font-specification:'Just Me Again Down Here';fill:#151b1e;fill-opacity:1"
         d="m 300.37978,28.887723 c -3.01198,-0.02075 -5.9782,0.864745 -8.67065,2.165779 -4.24809,2.264675 -8.47141,5.184994 -10.70011,9.593591 -1.74309,3.461383 -1.28756,8.03983 1.51361,10.823316 2.1257,2.337081 5.01939,3.885305 8.09251,4.556482 3.36361,0.933081 6.9248,1.709459 9.77709,3.823336 0.31129,0.964331 -0.33708,1.962517 -0.84613,2.752426 -1.70202,2.27084 -4.50744,3.4167 -7.07833,4.25969 -1.09205,0.351983 -2.62783,0.298127 -3.15907,-0.912031 -0.66297,-1.272888 -1.2602,-2.804594 -2.72452,-3.34446 -1.85976,-0.884224 -4.38291,-0.561247 -5.60944,1.211678 -1.74842,2.328963 -1.49602,5.596194 -0.34734,8.128758 1.18336,2.606945 3.77826,4.349035 6.54976,4.859726 2.20247,0.505348 4.50616,0.636009 6.71718,0.10197 2.30259,-0.423803 4.64047,-0.988876 6.59688,-2.338288 3.48133,-2.079592 7.08777,-4.532031 8.85094,-8.326289 1.74008,-3.976541 1.35165,-8.702945 -0.54732,-12.550877 -1.30627,-2.527404 -3.71505,-4.440255 -6.49066,-5.092404 -3.35545,-1.024548 -6.85029,-1.398598 -10.07485,-2.784361 -0.62338,-0.349441 -1.58073,-0.741722 -1.60538,-1.557873 0.59638,-1.311481 1.99202,-2.010756 3.15321,-2.757606 1.5531,-0.811958 3.11259,-1.787383 4.87908,-2.018443 1.57085,-0.106096 3.19723,0.03174 4.59568,0.817766 1.41361,0.738007 3.12292,1.195125 4.65015,0.508067 1.39327,-0.40745 2.55191,-1.596809 2.66939,-3.081746 0.23386,-1.813489 0.1992,-3.965378 -1.2996,-5.261222 -2.07102,-1.812593 -4.59771,-3.219901 -7.37894,-3.480216 -0.50142,-0.06512 -1.00784,-0.08605 -1.5131,-0.09677 z" />
      <path
         id="path6828"
         style="font-weight:normal;font-family:'Just Me Again Down Here';-inkscape-font-specification:'Just Me Again Down Here';fill:#151b1e;fill-opacity:1;stroke-width:4.25676"
         d="m 315.59419,34.884548 c 0.90145,4.883377 2.78428,6.441969 2.73957,11.415249 -0.0425,4.726865 -0.16624,9.382537 -0.46981,14.219035 -0.19943,3.177254 -0.57608,5.529009 -0.35637,8.702309 0.20811,3.005827 2.00643,5.107486 4.2968,5.472638 2.36766,0.377474 5.43393,-0.683161 5.98076,-3.995653 0.41299,-2.501725 0.20758,-5.725043 0.28918,-8.260965 0.17415,-5.40885 0.15968,-10.822763 0.28381,-16.231696 0.0361,-1.574408 -0.32282,-4.233381 1.21597,-4.559636 2.00775,-0.425685 3.66214,2.751144 3.86424,4.79355 0.44541,4.501376 0.0302,6.312358 0.56811,8.822256 0.42578,1.986602 1.40381,3.213497 2.95666,3.863024 1.21944,0.51007 3.38624,0.479919 4.7204,-0.362958 1.1839,-0.747948 1.94832,-2.033266 2.08978,-3.644485 0.19669,-2.240398 0.32546,-4.405293 0.46617,-6.730924 0.0885,-1.463661 0.074,-3.019333 0.70749,-4.341747 0.43688,-0.911926 1.16558,-2.058031 2.02749,-2.256444 1.36683,-0.314645 1.91963,0.92468 2.2417,1.835055 1.22271,3.45615 0.90758,6.420478 0.65187,10.24787 -0.36066,5.398052 -0.92602,10.813146 -0.98518,16.24057 -0.0296,2.708285 0.0991,6.329428 2.39694,7.762275 1.86453,1.162651 4.90274,0.47118 6.51176,-1.025248 1.36021,-1.265029 1.34047,-3.518314 1.26308,-5.427601 -0.64415,-15.892819 0.66338,-15.119025 0.89356,-21.753629 0.10603,-3.05621 0.0578,-6.194639 -0.75326,-9.143172 -1.20699,-4.387885 -3.59906,-6.754595 -6.64089,-8.831515 -1.66808,-1.138938 -3.82009,-1.746032 -5.83649,-1.628577 -1.75018,0.101947 -3.38416,0.812644 -4.86754,1.992184 -1.13186,0.900027 -1.87952,2.43667 -3.44957,2.236533 -2.27506,-0.290004 -1.74078,-2.632523 -5.99148,-3.75496 -4.02711,-1.063397 -5.11677,1.752168 -6.27002,0.409723 -1.49322,-1.738188 -2.50481,-2.07168 -3.68516,-2.26722 -3.39521,-0.190558 -7.801,2.690705 -6.85957,6.204159 z"
         sodipodi:nodetypes="csssasssasssassassssaasssaasssscc" />
    </g>
    <path
       id="path48397-9"
       style="font-weight:bold;font-size:61.8398px;line-height:1.25;font-family:Caladea;-inkscape-font-specification:'Caladea Bold';letter-spacing:2.64583px;fill:url(#radialGradient59584-8);fill-opacity:1;stroke-width:2.80816"
       d="M 88.129715,3.1421943 C 85.94585,3.1937298 83.847494,4.4990365 82.831219,6.4322926 66.975488,33.985068 50.574234,62.458737 36.213769,87.429984 c -1.077793,1.988784 -0.935923,4.566637 0.355229,6.424516 1.17391,1.739159 3.272916,2.809064 5.372072,2.714573 12.094629,0.0099 24.189268,10e-4 36.283896,0.0044 19.027322,-8.18e-4 38.054724,10e-4 57.082014,-0.0032 2.26367,-0.04779 4.43574,-1.449725 5.40924,-3.494608 0.92875,-1.882596 0.81825,-4.238797 -0.30943,-6.013923 C 124.87797,60.214231 109.18609,32.969665 93.583854,6.0309331 92.440362,4.1986922 90.288682,3.0568004 88.129715,3.1422487 Z"
       sodipodi:nodetypes="cccccccccccc" />
    <g
       aria-label="dorkodu's"
       id="text16681"
       style="font-size:48.3118px;line-height:1.25;font-family:'Just Me Again Down Here';-inkscape-font-specification:'Just Me Again Down Here';fill:#b6c2c9;fill-opacity:1;stroke-width:0.416747"
       transform="matrix(1.0339992,0,0,1.0339992,-6.2360253,-0.92898036)" />
    <g
       id="g42801"
       transform="matrix(1.1248028,0,0,1.1248028,-25.607192,-0.37348456)">
      <path
         id="path20225"
         style="font-weight:normal;font-size:105.44px;line-height:1.25;font-family:'Just Me Again Down Here';-inkscape-font-specification:'Just Me Again Down Here';letter-spacing:0px;fill:#b6c2c9;fill-opacity:1;stroke-width:1.64135"
         d="m 228.03039,-2.2074705 c -1.46678,-0.017935 -2.73819,0.9513763 -3.58103,2.07868603 -0.29568,0.35651817 -0.52079,0.7865798 -0.79805,1.13996247 -0.93116,0.329047 -1.56058,1.326968 -1.44712,2.3102338 -0.0183,1.3162051 0.0825,2.6434519 0.031,3.9480904 -0.22674,0.7523347 -0.66562,1.443266 -0.58338,2.2181569 0.34552,2.2303649 0.62254,2.2981389 0.40676,4.2136399 -0.0464,1.377867 -0.37854,2.890879 0.0993,4.203954 0.24852,0.597814 0.86119,1.087872 1.53555,0.982257 0.9963,-0.06902 1.72037,-0.954539 1.98758,-1.857371 0.37252,-1.045679 0.22302,-4.488729 1.17019,-3.424438 1.41447,1.589349 5.22943,2.997921 7.9171,2.386575 0.72488,-0.16488 1.54292,-0.6716 1.64677,-1.503923 0.12213,-0.979031 -0.49321,-2.096192 -1.52275,-2.194069 -0.7144,-0.06791 -1.28862,-0.09902 -2.14115,-0.222884 -1.32793,-0.192932 -2.75681,-0.583174 -3.73503,-1.501716 -0.24512,-0.230159 -0.44303,-0.5742599 -0.43439,-0.9103819 0.0534,-2.0718889 2.3982,-3.0646881 2.96257,-5.4665624 0.36809,-1.5664533 0.25057,-3.29403307 -0.54932,-4.71042341 -0.52708,-0.93330879 -1.51095,-1.58164209 -2.58191,-1.66303239 -0.12663,-0.017333 -0.25528,-0.018584 -0.3827,-0.026755 z m 0.25579,4.7507134 c 0.004,0.5193388 -0.0749,1.045049 -0.3167,1.5255239 -0.42541,0.8454231 -0.9162,2.6128337 -1.2416,2.1494728 -0.79239,-1.1284026 -0.29721,-2.6088049 0.23743,-3.7364916 0.17934,-0.3782653 0.51006,-0.9400952 0.91995,-0.8549594 0.32646,0.067807 0.3968,0.6387121 0.40091,0.9164543 z"
         sodipodi:nodetypes="scccccccccsasssaasscsscssaacc"
         transform="matrix(0.89326299,0,0,0.89326299,32.663511,14.240599)" />
      <path
         id="path40256"
         style="font-size:48.6833px;line-height:1.25;font-family:'Just Me Again Down Here';-inkscape-font-specification:'Just Me Again Down Here';fill:#b6c2c9;fill-opacity:1;stroke-width:0.440076"
         d="m 213.36271,4.537236 c -1.36828,0.1310836 -1.95837,1.3711601 -2.18875,2.6354865 -0.40648,2.2306862 -0.77852,4.5336495 -1.0674,6.7893645 -0.15804,1.234062 -0.31947,1.933345 -0.84564,2.810165 -0.47409,0.790047 -1.18862,1.171406 -1.8286,1.633304 -3.12324,2.254177 -5.53038,5.923386 -6.2012,9.702666 -0.30377,1.711399 0.19037,3.600018 1.12446,5.091765 1.18513,1.925004 4.05012,2.186331 5.73186,0.776327 1.00035,-0.777299 1.50193,-1.82916 1.82072,-1.510368 1.16481,1.164809 2.06913,2.15094 4.00984,2.395163 1.15321,0.04944 2.7768,-0.395579 2.91219,-1.757214 0.13728,-1.269631 -1.19645,-1.868971 -2.1697,-2.49351 -1.24111,-0.796429 -0.96592,-2.797921 -1.02916,-4.145538 -0.091,-1.939601 -0.0994,-3.897565 0.0371,-5.831156 0.73838,-4.668514 0.9227,-9.218506 1.6841,-13.7931315 0.15848,-1.2402591 -0.43869,-2.2852676 -1.98982,-2.3033235 z m -7.18342,25.887163 c -0.37026,0.632373 -0.88279,-0.06386 -0.90504,-0.5103 -0.12366,-2.480669 1.34934,-4.586412 2.85023,-6.371591 0.36245,-0.427947 1.02077,-1.011721 0.65078,-0.01382 -0.69284,2.365471 -1.50555,4.951333 -2.59597,6.895712 z"
         sodipodi:nodetypes="cssssaccsccssccccscccc"
         transform="matrix(0.95048292,0,0,0.95048292,10.473473,-1.5114693)" />
      <path
         id="path40258"
         style="font-size:48.6833px;line-height:1.25;font-family:'Just Me Again Down Here';-inkscape-font-specification:'Just Me Again Down Here';fill:#b6c2c9;fill-opacity:1;stroke-width:0.372517"
         d="m 224.70123,16.604918 c -1.13621,0.01448 -2.17418,0.554264 -2.96348,1.348986 -2.64916,2.240383 -4.0223,5.693281 -4.13685,9.11383 -0.1364,2.233255 0.15309,4.783668 1.90948,6.366743 1.59229,1.432005 4.12279,1.1177 5.7113,-0.157103 1.32185,-0.986555 2.23666,-2.409301 3.14929,-3.760228 1.28269,-2.088976 2.35306,-4.537657 2.08065,-7.010554 -0.17888,-1.623817 -1.05588,-3.146273 -2.12973,-4.376907 -0.90798,-1.023558 -2.24519,-1.619882 -3.62066,-1.524767 z m 0.17808,3.559767 c 1.24122,0.10846 1.95714,1.441425 2.05659,2.55521 -0.0457,1.088327 -0.50783,2.088833 -0.7961,3.104801 -0.65298,1.718404 -1.33418,3.624635 -2.89984,4.724242 -0.58177,0.391233 -1.64883,0.553029 -1.88551,-0.312505 -0.43339,-1.329771 -0.24611,-2.794845 -0.0937,-4.200978 0.17214,-1.25321 0.55262,-2.54508 1.19894,-3.686725 0.87164,-0.205898 2.00221,-0.73038 1.90995,-1.792978 -0.0107,-0.319004 0.20887,-0.468791 0.50979,-0.391067 z"
         sodipodi:nodetypes="ccccccscccccccccccc"
         transform="matrix(0.95048292,0,0,0.95048292,10.473473,-1.5114693)" />
      <path
         id="path40262"
         style="font-size:48.6833px;line-height:1.25;font-family:'Just Me Again Down Here';-inkscape-font-specification:'Just Me Again Down Here';fill:#b6c2c9;fill-opacity:1;stroke-width:0.431879"
         d="m 246.61396,7.0199879 c -0.35783,3.6094941 0.006,7.2466501 0.0418,10.8667151 0.01,1.623382 0.15564,3.278405 0.0803,4.882325 -0.27302,0.686756 -0.85618,1.145215 -0.6457,1.875626 0.15366,0.533235 0.73035,0.966248 0.81248,1.45744 0.33882,2.026254 0.13665,4.098584 0.0468,6.148054 -0.0796,1.815771 2.72983,2.225708 3.71098,0.789047 0.81743,-1.196943 0.6372,-2.637541 0.50328,-3.9621 -0.0507,-0.501435 -0.20436,-1.727227 0.0406,-1.465407 2.09606,2.240341 3.11586,3.581871 5.17109,4.657899 0.85286,0.44652 1.91922,0.740307 2.81106,0.66233 0.89588,-0.07833 1.85268,-0.576776 2.05115,-1.752537 0.19272,-1.141688 -0.70984,-2.286132 -1.78535,-2.464015 -0.69485,-0.114924 -1.42609,-0.206036 -2.03942,-0.552219 -1.41254,-0.797277 -1.74105,-1.464159 -3.51607,-3.363843 -0.43044,-0.460669 -0.89208,-1.167416 -0.59686,-1.724504 1.447,-2.730519 3.92536,-5.097984 4.30415,-7.943598 0.20276,-1.523218 -0.56791,-2.123258 -1.4631,-2.384081 -0.73658,-0.214611 -1.60274,0.09822 -2.06913,1.008045 -1.09693,2.139897 -3.23827,6.001621 -3.30678,3.569151 -0.10016,-3.556064 -0.0758,-5.837731 -0.0758,-10.4623016 0,-1.5450735 -0.58281,-2.1654052 -1.24997,-2.5106257 -1.6255,-0.6202702 -2.6157,0.5524841 -2.82548,2.6686022 z"
         sodipodi:nodetypes="sccssssssasssasssassscss"
         transform="matrix(0.95048292,0,0,0.95048292,10.473473,-1.5114693)" />
      <path
         id="path40268"
         style="font-size:48.6833px;line-height:1.25;font-family:'Just Me Again Down Here';-inkscape-font-specification:'Just Me Again Down Here';fill:#b6c2c9;fill-opacity:1;stroke-width:0.440076"
         d="m 294.09455,14.127249 c -0.95815,-0.136442 -1.58005,-0.0062 -2.24064,1.846524 -0.69958,1.962011 -1.27256,6.402496 -0.71658,9.740679 0.37248,2.236398 1.03664,4.693126 2.884,6.19065 1.23453,1.008191 3.61931,0.696905 4.70871,-0.451166 0.81137,-0.749836 1.05721,-1.133997 1.5785,-0.612707 0.37638,0.376376 1.79624,1.166355 3.58244,1.116631 1.4271,-0.03973 2.3107,-0.845836 2.54286,-2.165356 0.24793,-1.409183 -0.64732,-2.268714 -1.70249,-2.49609 -0.59857,-0.128983 -0.88991,-0.36811 -1.15473,-0.84841 -0.98323,-1.783283 -0.90458,-4.320786 -0.87822,-6.902765 0.0199,-1.944094 0.19282,-3.07735 -1.10307,-3.662817 -1.06624,-0.481715 -2.22645,0.24546 -2.44556,1.294628 -0.71701,3.433295 0.61605,8.911555 -1.39378,10.071931 -0.54882,0.316864 -1.42637,0.45786 -1.93864,-0.517222 -0.9755,-1.856785 -0.97313,-3.17525 -0.8197,-5.166902 0.12169,-1.742856 0.45822,-3.326354 0.46388,-5.073164 0.004,-1.170305 -0.29753,-2.212154 -1.36698,-2.364444 z"
         sodipodi:nodetypes="sssccsssssssscscss"
         transform="matrix(0.95048292,0,0,0.95048292,10.473473,-1.5114693)" />
      <path
         id="path40270"
         d="m 309.23102,8.7274903 c -1.29029,-0.00137 -2.46032,1.4231927 -2.03932,2.6728537 0.0953,0.496655 0.49245,0.843878 0.39473,1.379651 0.0597,1.175339 0.49389,2.752106 1.87353,2.916536 1.14426,0.19124 2.35273,-0.6373 2.39039,-1.839712 0.0604,-1.423987 -0.22899,-2.921708 -0.94874,-4.1640995 -0.36018,-0.5683959 -0.97763,-0.9961419 -1.67059,-0.9652292 z"
         style="font-size:48.3118px;line-height:1.25;font-family:'Just Me Again Down Here';-inkscape-font-specification:'Just Me Again Down Here';fill:#b6c2c9;fill-opacity:1;stroke-width:0.440076"
         transform="matrix(0.95048292,0,0,0.95048292,10.473473,-1.5114693)" />
      <path
         id="path19608"
         style="font-size:48.6833px;line-height:1.25;font-family:'Just Me Again Down Here';-inkscape-font-specification:'Just Me Again Down Here';fill:#b6c2c9;fill-opacity:1;stroke-width:0.376462"
         d="m 268.98309,14.605458 c -1.14825,0.01464 -2.19721,0.560132 -2.99486,1.363269 -2.67721,2.264104 -4.06489,5.75356 -4.18066,9.210326 -0.13784,2.2569 0.15472,4.834317 1.9297,6.434153 1.60915,1.447166 4.16645,1.129534 5.77178,-0.158767 1.33584,-0.997 2.26034,-2.43481 3.18263,-3.80004 1.29627,-2.111094 2.37798,-4.585701 2.10268,-7.08478 -0.18077,-1.641011 -1.06706,-3.179586 -2.15228,-4.42325 -0.9176,-1.034395 -2.26896,-1.637033 -3.65899,-1.540911 z m 0.17995,3.597457 c 1.25437,0.109609 1.97787,1.456686 2.07837,2.582264 -0.0461,1.099851 -0.5132,2.110949 -0.80453,3.137675 -0.65989,1.736598 -1.3483,3.663011 -2.93054,4.774261 -0.58793,0.395375 -1.66628,0.558884 -1.90547,-0.315814 -0.43798,-1.343851 -0.24871,-2.824436 -0.0947,-4.245457 0.17396,-1.266478 0.55846,-2.572027 1.21163,-3.72576 0.88087,-0.208077 2.02341,-0.738113 1.93018,-1.811961 -0.0108,-0.322381 0.21107,-0.473755 0.51518,-0.395208 z"
         sodipodi:nodetypes="ccccccscccccccccccc"
         transform="matrix(0.95048292,0,0,0.95048292,10.473473,-1.5114693)" />
      <path
         id="path22371"
         style="font-size:48.6833px;line-height:1.25;font-family:'Just Me Again Down Here';-inkscape-font-specification:'Just Me Again Down Here';fill:#b6c2c9;fill-opacity:1;stroke-width:0.440076"
         d="m 287.02855,2.4575345 c -1.36828,0.1310836 -1.95837,1.3711601 -2.18875,2.6354865 -0.40648,2.2306862 -0.77852,4.5336495 -1.0674,6.789365 -0.15804,1.234062 -0.31947,1.933345 -0.84564,2.810165 -0.47409,0.790047 -1.18862,1.171406 -1.8286,1.633304 -3.12324,2.254177 -5.53038,5.923386 -6.2012,9.702666 -0.30377,1.711399 0.19037,3.600018 1.12446,5.091765 1.18513,1.925004 4.05012,2.186331 5.73186,0.776327 1.00035,-0.777299 1.50193,-1.82916 1.82072,-1.510368 1.16481,1.164809 2.06913,2.15094 4.00984,2.395163 1.15321,0.04944 2.7768,-0.395579 2.91219,-1.757214 0.13728,-1.269631 -1.19645,-1.868971 -2.1697,-2.49351 -1.24111,-0.796429 -0.96592,-2.797921 -1.02916,-4.145538 -0.091,-1.939601 -0.0994,-3.897565 0.0371,-5.831156 0.73838,-4.668514 0.9227,-9.2185065 1.6841,-13.793132 0.15848,-1.2402591 -0.43869,-2.2852676 -1.98982,-2.3033235 z m -7.18342,25.8871635 c -0.37026,0.632373 -0.88279,-0.06386 -0.90504,-0.5103 -0.12366,-2.480669 1.34934,-4.586412 2.85023,-6.371591 0.36245,-0.427947 1.02077,-1.011721 0.65078,-0.01382 -0.69284,2.365471 -1.50555,4.951333 -2.59597,6.895712 z"
         sodipodi:nodetypes="cssssaccsccssccccscccc"
         transform="matrix(0.95048292,0,0,0.95048292,10.473473,-1.5114693)" />
      <path
         id="path30760"
         style="font-weight:normal;font-size:105.44px;line-height:1.25;font-family:'Just Me Again Down Here';-inkscape-font-specification:'Just Me Again Down Here';letter-spacing:0px;fill:#b6c2c9;fill-opacity:1;stroke-width:1.54022"
         d="m 314.74369,11.918218 c -1.13836,-0.0078 -2.25942,0.326824 -3.27701,0.81854 -1.60553,0.855918 -3.2017,1.959631 -4.04403,3.625829 -0.65879,1.308205 -0.48663,3.038595 0.57206,4.090594 0.80339,0.883283 1.89704,1.468423 3.0585,1.722089 1.27125,0.352652 2.61718,0.646078 3.69519,1.445003 0.11764,0.364462 -0.1274,0.741719 -0.31979,1.040259 -0.64327,0.858248 -1.70356,1.291318 -2.67521,1.609919 -0.41273,0.13303 -0.99316,0.112676 -1.19394,-0.344695 -0.25057,-0.481079 -0.47629,-1.059976 -1.02971,-1.264015 -0.70289,-0.334186 -1.6565,-0.212119 -2.12005,0.457945 -0.66081,0.880215 -0.56541,2.115042 -0.13128,3.072206 0.44725,0.985276 1.42797,1.643686 2.47544,1.836699 0.8324,0.190992 1.70307,0.240374 2.5387,0.03854 0.87025,-0.160174 1.75384,-0.373739 2.49325,-0.883739 1.31574,-0.785967 2.67877,-1.712849 3.34515,-3.146861 0.65765,-1.502905 0.51085,-3.289216 -0.20686,-4.743514 -0.49369,-0.955214 -1.40407,-1.678162 -2.4531,-1.924637 -1.26816,-0.387221 -2.58902,-0.52859 -3.80771,-1.052329 -0.2356,-0.132069 -0.59743,-0.280329 -0.60675,-0.588787 0.2254,-0.495665 0.75288,-0.759951 1.19174,-1.042218 0.58698,-0.306873 1.17638,-0.675528 1.84401,-0.762855 0.59369,-0.0401 1.20837,0.01199 1.73691,0.309068 0.53426,0.278925 1.18028,0.451689 1.75749,0.192021 0.52657,-0.153993 0.96448,-0.603503 1.00888,-1.164724 0.0884,-0.685395 0.0753,-1.498686 -0.49118,-1.988441 -0.78273,-0.685056 -1.73767,-1.216938 -2.78882,-1.315322 -0.18951,-0.02461 -0.38091,-0.03252 -0.57186,-0.03657 z" />
    </g>
  </g>
</svg>
