<?xml version="1.0" encoding="UTF-8" standalone="no"?>
<!-- Created with Inkscape (http://www.inkscape.org/) -->

<svg
   width="200mm"
   height="100mm"
   viewBox="0 0 200 100"
   version="1.1"
   id="svg5"
   inkscape:version="1.1.2 (0a00cf5339, 2022-02-04)"
   sodipodi:docname="pikt.svg"
   inkscape:export-filename="/home/doruk/Desktop/Artwork/Branding &amp; Logo Designs/Pikt/pikt-S.png"
   inkscape:export-xdpi="25.4"
   inkscape:export-ydpi="25.4"
   xmlns:inkscape="http://www.inkscape.org/namespaces/inkscape"
   xmlns:sodipodi="http://sodipodi.sourceforge.net/DTD/sodipodi-0.dtd"
   xmlns="http://www.w3.org/2000/svg"
   xmlns:svg="http://www.w3.org/2000/svg">
  <sodipodi:namedview
     id="namedview7"
     pagecolor="#ffffff"
     bordercolor="#666666"
     borderopacity="1.0"
     inkscape:pageshadow="2"
     inkscape:pageopacity="0"
     inkscape:pagecheckerboard="0"
     inkscape:document-units="mm"
     showgrid="false"
     inkscape:zoom="0.90509668"
     inkscape:cx="335.32329"
     inkscape:cy="165.72815"
     inkscape:window-width="1920"
     inkscape:window-height="968"
     inkscape:window-x="0"
     inkscape:window-y="0"
     inkscape:window-maximized="1"
     inkscape:current-layer="text10667"
     showguides="false"
     inkscape:guide-bbox="true">
    <sodipodi:guide
       position="38.577471,50.356338"
       orientation="0,-1"
       id="guide8317" />
    <sodipodi:guide
       position="12.406329,125.56456"
       orientation="1,0"
       id="guide49301" />
    <sodipodi:guide
       position="65.438562,71.615041"
       orientation="0,-1"
       id="guide968" />
    <sodipodi:guide
       position="65.950034,28.464804"
       orientation="0,-1"
       id="guide970" />
  </sodipodi:namedview>
  <defs
     id="defs2">
    <rect
       x="1076.5725"
       y="-87.137299"
       width="1315.8315"
       height="412.76636"
       id="rect61069" />
    <symbol
       id="w"
       overflow="visible">
      <path
         d="m 18.766,-1.125 c -0.96875,0.5 -1.9805,0.875 -3.0312,1.125 -1.043,0.25781 -2.1367,0.39062 -3.2812,0.39062 -3.3984,0 -6.0898,-0.94531 -8.0781,-2.8438 -1.9922,-1.9062 -2.9844,-4.4844 -2.9844,-7.7344 0,-3.2578 0.99219,-5.8359 2.9844,-7.7344 1.9883,-1.9062 4.6797,-2.8594 8.0781,-2.8594 1.1445,0 2.2383,0.13281 3.2812,0.39062 1.0508,0.25 2.0625,0.625 3.0312,1.125 v 4.2188 c -0.98047,-0.65625 -1.9453,-1.1406 -2.8906,-1.4531 -0.94922,-0.3125 -1.9492,-0.46875 -3,-0.46875 -1.875,0 -3.3516,0.60547 -4.4219,1.8125 -1.0742,1.1992 -1.6094,2.8555 -1.6094,4.9688 0,2.1055 0.53516,3.7617 1.6094,4.9688 1.0703,1.1992 2.5469,1.7969 4.4219,1.7969 1.0508,0 2.0508,-0.14844 3,-0.45312 0.94531,-0.3125 1.9102,-0.80078 2.8906,-1.4688 z"
         id="path824" />
    </symbol>
    <symbol
       id="b"
       overflow="visible">
      <path
         d="m 13.734,-11.141 c -0.4375,-0.19531 -0.87109,-0.34375 -1.2969,-0.4375 -0.41797,-0.10156 -0.83984,-0.15625 -1.2656,-0.15625 -1.2617,0 -2.2305,0.40625 -2.9062,1.2188 -0.67969,0.80469 -1.0156,1.9531 -1.0156,3.4531 v 7.0625 H 2.3591 v -15.312 h 4.8906 v 2.5156 c 0.625,-1 1.3438,-1.7266 2.1562,-2.1875 0.82031,-0.46875 1.8008,-0.70312 2.9375,-0.70312 0.16406,0 0.34375,0.01172 0.53125,0.03125 0.19531,0.01172 0.47656,0.03906 0.84375,0.07813 z"
         id="path827" />
    </symbol>
    <symbol
       id="a"
       overflow="visible">
      <path
         d="m 17.641,-7.7031 v 1.4062 H 6.188 c 0.125,1.1484 0.53906,2.0078 1.25,2.5781 0.70703,0.57422 1.7031,0.85938 2.9844,0.85938 1.0312,0 2.082,-0.14844 3.1562,-0.45312 1.082,-0.3125 2.1914,-0.77344 3.3281,-1.3906 v 3.7656 c -1.1562,0.4375 -2.3125,0.76562 -3.4688,0.98438 -1.1562,0.22656 -2.3125,0.34375 -3.4688,0.34375 -2.7734,0 -4.9297,-0.70312 -6.4688,-2.1094 -1.5312,-1.4062 -2.2969,-3.3789 -2.2969,-5.9219 0,-2.5 0.75391,-4.4609 2.2656,-5.8906 1.5078,-1.4375 3.582,-2.1562 6.2188,-2.1562 2.4062,0 4.332,0.73047 5.7812,2.1875 1.4453,1.4492 2.1719,3.3828 2.1719,5.7969 z m -5.0312,-1.625 c 0,-0.92578 -0.27344,-1.6719 -0.8125,-2.2344 -0.54297,-0.57031 -1.25,-0.85938 -2.125,-0.85938 -0.94922,0 -1.7188,0.26562 -2.3125,0.79688 -0.5937,0.53126 -0.96484,1.2969 -1.1094,2.2969 z"
         id="path830" />
    </symbol>
    <symbol
       id="e"
       overflow="visible">
      <path
         d="m 9.2188,-6.8906 c -1.0234,0 -1.793,0.17188 -2.3125,0.51562 -0.51172,0.34375 -0.76562,0.85547 -0.76562,1.5312 0,0.625 0.20703,1.1172 0.625,1.4688 0.41406,0.34375 0.98828,0.51562 1.7188,0.51562 0.92578,0 1.7031,-0.32812 2.3281,-0.98438 0.63281,-0.66406 0.95312,-1.4922 0.95312,-2.4844 v -0.5625 z m 7.4688,-1.8438 V 0 h -4.9219 v -2.2656 c -0.65625,0.92969 -1.3984,1.6055 -2.2188,2.0312 -0.82422,0.41406 -1.8242,0.625 -3,0.625 -1.5859,0 -2.8711,-0.45703 -3.8594,-1.375 -0.99219,-0.92578 -1.4844,-2.1289 -1.4844,-3.6094 0,-1.7891 0.61328,-3.1016 1.8438,-3.9375 1.2383,-0.84375 3.1797,-1.2656 5.8281,-1.2656 h 2.8906 v -0.39062 c 0,-0.76953 -0.30859,-1.332 -0.92188,-1.6875 -0.61719,-0.36328 -1.5703,-0.54688 -2.8594,-0.54688 -1.0547,0 -2.0312,0.10547 -2.9375,0.3125 -0.89844,0.21094 -1.7305,0.52344 -2.5,0.9375 v -3.7344 c 1.0391,-0.25 2.0859,-0.44141 3.1406,-0.57812 1.0625,-0.13281 2.125,-0.20312 3.1875,-0.20312 2.7578,0 4.75,0.54688 5.9688,1.6406 1.2266,1.0859 1.8438,2.8555 1.8438,5.3125 z"
         id="path833" />
    </symbol>
    <symbol
       id="c"
       overflow="visible">
      <path
         d="m 7.7031,-19.656 v 4.3438 H 12.75 v 3.5 H 7.7031 v 6.5 c 0,0.71094 0.14062,1.1875 0.42188,1.4375 0.28126,0.25 0.83594,0.375 1.6719,0.375 h 2.5156 v 3.5 h -4.1875 c -1.9375,0 -3.3125,-0.39844 -4.125,-1.2031 -0.80469,-0.8125 -1.2031,-2.1797 -1.2031,-4.1094 v -6.5 h -2.4219 v -3.5 h 2.4219 v -4.3438 z"
         id="path836" />
    </symbol>
    <symbol
       id="j"
       overflow="visible">
      <path
         d="m 12.766,-13.078 v -8.2031 h 4.9219 V -1e-4 H 12.766 v -2.2188 c -0.66797,0.90625 -1.4062,1.5703 -2.2188,1.9844 -0.8126,0.4141 -1.7578,0.625 -2.8281,0.625 -1.8867,0 -3.4336,-0.75 -4.6406,-2.25 -1.2109,-1.5 -1.8125,-3.4258 -1.8125,-5.7812 0,-2.3633 0.60156,-4.2969 1.8125,-5.7969 1.207,-1.5 2.7539,-2.25 4.6406,-2.25 1.0625,0 2,0.21484 2.8125,0.64062 0.82031,0.42969 1.5664,1.0859 2.2344,1.9688 z m -3.2188,9.9219 c 1.0391,0 1.8359,-0.37891 2.3906,-1.1406 0.55078,-0.76953 0.82812,-1.8828 0.82812,-3.3438 0,-1.457 -0.27734,-2.5664 -0.82812,-3.3281 -0.55469,-0.76953 -1.3516,-1.1562 -2.3906,-1.1562 -1.043,0 -1.8398,0.38672 -2.3906,1.1562 -0.55469,0.76172 -0.82812,1.8711 -0.82812,3.3281 0,1.4609 0.27344,2.5742 0.82812,3.3438 0.55078,0.76172 1.3477,1.1406 2.3906,1.1406 z"
         id="path839" />
    </symbol>
    <symbol
       id="i"
       overflow="visible">
      <path
         d="m 10.5,-3.1562 c 1.0508,0 1.8516,-0.37891 2.4062,-1.1406 0.55078,-0.76953 0.82812,-1.8828 0.82812,-3.3438 0,-1.457 -0.27734,-2.5664 -0.82812,-3.3281 -0.55469,-0.76953 -1.3555,-1.1562 -2.4062,-1.1562 -1.0547,0 -1.8594,0.38672 -2.4219,1.1562 -0.55469,0.77344 -0.82812,1.8828 -0.82812,3.3281 0,1.4492 0.27344,2.5586 0.82812,3.3281 0.5625,0.77344 1.3672,1.1562 2.4219,1.1562 z m -3.25,-9.9219 c 0.67578,-0.88281 1.4219,-1.5391 2.2344,-1.9688 0.82031,-0.42578 1.7656,-0.64062 2.8281,-0.64062 1.8945,0 3.4453,0.75 4.6562,2.25 1.207,1.5 1.8125,3.4336 1.8125,5.7969 0,2.3555 -0.60547,4.2812 -1.8125,5.7812 -1.2109,1.5 -2.7617,2.25 -4.6562,2.25 -1.0625,0 -2.0078,-0.21094 -2.8281,-0.625 C 8.6719,-0.6602 7.9258,-1.32032 7.25,-2.21882 V -2e-5 H 2.3594 v -21.281 H 7.25 Z"
         id="path842" />
    </symbol>
    <symbol
       id="h"
       overflow="visible">
      <path
         d="m 0.34375,-15.312 h 4.8906 l 4.125,10.391 3.5,-10.391 h 4.8906 l -6.4375,16.766 c -0.64844,1.6953 -1.4023,2.8828 -2.2656,3.5625 -0.86719,0.6875 -2,1.0312 -3.4062,1.0312 H 2.79685 V 2.8289 h 1.5312 c 0.83203,0 1.4375,-0.13672 1.8125,-0.40625 C 6.52336,2.16093 6.82024,1.69218 7.03117,1.01645 L 7.17179,0.59457 Z"
         id="path845" />
    </symbol>
    <symbol
       id="g"
       overflow="visible">
      <path
         d="m 0.82812,-20.406 h 5.0469 l 3.5312,14.828 3.5,-14.828 h 5.0781 l 3.5,14.828 3.5156,-14.828 h 5.0156 L 25.20302,0 h -6.0781 L 15.42182,-15.516 11.76562,0 h -6.0781 z"
         id="path848" />
    </symbol>
    <symbol
       id="v"
       overflow="visible">
      <path
         d="m 14.312,-14.828 v 3.7188 c -1.043,-0.4375 -2.0547,-0.76562 -3.0312,-0.98438 -0.98047,-0.21875 -1.9023,-0.32812 -2.7656,-0.32812 -0.92969,0 -1.6211,0.11719 -2.0781,0.34375 -0.44922,0.23047 -0.67188,0.58984 -0.67188,1.0781 0,0.38672 0.17188,0.68359 0.51562,0.89062 0.34375,0.21094 0.95703,0.36719 1.8438,0.46875 l 0.85938,0.125 c 2.5078,0.32422 4.1953,0.85156 5.0625,1.5781 0.86328,0.73047 1.2969,1.8711 1.2969,3.4219 0,1.6367 -0.60547,2.8672 -1.8125,3.6875 -1.1992,0.8125 -2.9922,1.2188 -5.375,1.2188 -1.0234,0 -2.0742,-0.078125 -3.1562,-0.23438 -1.0742,-0.15625 -2.1797,-0.39453 -3.3125,-0.71875 v -3.7188 c 0.96875,0.48047 1.9609,0.83984 2.9844,1.0781 1.0312,0.23047 2.0781,0.34375 3.1406,0.34375 0.95703,0 1.6758,-0.12891 2.1562,-0.39062 0.47656,-0.26953 0.71875,-0.66406 0.71875,-1.1875 0,-0.4375 -0.16797,-0.75781 -0.5,-0.96875 -0.33594,-0.21875 -0.99609,-0.38281 -1.9844,-0.5 L 7.34339,-6.01551 c -2.1797,-0.26953 -3.7031,-0.77344 -4.5781,-1.5156 -0.875,-0.73828 -1.3125,-1.8594 -1.3125,-3.3594 0,-1.625 0.55078,-2.8281 1.6562,-3.6094 1.1133,-0.78906 2.8203,-1.1875 5.125,-1.1875 0.89453,0 1.8359,0.07422 2.8281,0.21875 1,0.13672 2.082,0.35156 3.25,0.64062 z"
         id="path851" />
    </symbol>
    <symbol
       id="u"
       overflow="visible">
      <path
         d="m 10.75,-12.516 c 0.82031,0 1.4453,-0.17969 1.875,-0.54688 0.4375,-0.36328 0.65625,-0.89844 0.65625,-1.6094 0,-0.69531 -0.21875,-1.2266 -0.65625,-1.5938 -0.42969,-0.375 -1.0547,-0.5625 -1.875,-0.5625 H 7.8281 v 4.3125 z m 0.17188,8.9375 c 1.0625,0 1.8594,-0.22266 2.3906,-0.67188 0.53125,-0.44531 0.79688,-1.125 0.79688,-2.0312 0,-0.88281 -0.26562,-1.5469 -0.79688,-1.9844 -0.52344,-0.4375 -1.3203,-0.65625 -2.3906,-0.65625 h -3.0938 v 5.3438 z m 4.8906,-7.3438 c 1.1328,0.32422 2.0078,0.92969 2.625,1.8125 0.625,0.88672 0.9375,1.9688 0.9375,3.25 0,1.9688 -0.66797,3.4375 -2,4.4062 -1.3359,0.96875 -3.3555,1.4531 -6.0625,1.4531 h -8.7344 v -20.406 h 7.8906 c 2.832,0 4.8828,0.42969 6.1562,1.2812 1.2812,0.85547 1.9219,2.2266 1.9219,4.1094 0,1 -0.23438,1.8516 -0.70312,2.5469 -0.46875,0.6875 -1.1484,1.2031 -2.0312,1.5469 z"
         id="path854" />
    </symbol>
    <symbol
       id="t"
       overflow="visible">
      <path
         d="m 1.5938,-15.312 h 13.359 v 3.4219 l -8.0625,8.3906 h 8.0625 v 3.5 H 1.2648 V -3.4214 L 9.3273,-11.812 H 1.5929 Z"
         id="path857" />
    </symbol>
    <symbol
       id="f"
       overflow="visible">
      <path
         d="M 2.3594,-21.281 H 7.25 V 0 H 2.3594 Z"
         id="path860" />
    </symbol>
    <symbol
       id="s"
       overflow="visible">
      <path
         d="m 12.422,-21.281 v 3.2188 H 9.7189 c -0.6875,0 -1.1719,0.125 -1.4531,0.375 -0.27344,0.25 -0.40625,0.6875 -0.40625,1.3125 v 1.0625 h 4.1875 v 3.5 H 7.85955 V -2e-4 h -4.8906 v -11.812 h -2.4375 v -3.5 h 2.4375 v -1.0625 c 0,-1.6641 0.46094,-2.8984 1.3906,-3.7031 0.92578,-0.80078 2.3672,-1.2031 4.3281,-1.2031 z"
         id="path863" />
    </symbol>
    <symbol
       id="d"
       overflow="visible">
      <path
         d="m 9.6406,-12.188 c -1.0859,0 -1.9141,0.39062 -2.4844,1.1719 -0.57422,0.78125 -0.85938,1.9062 -0.85938,3.375 0,1.4688 0.28516,2.5938 0.85938,3.375 0.57031,0.77344 1.3984,1.1562 2.4844,1.1562 1.0625,0 1.875,-0.38281 2.4375,-1.1562 0.57031,-0.78125 0.85938,-1.9062 0.85938,-3.375 0,-1.4688 -0.28906,-2.5938 -0.85938,-3.375 -0.5625,-0.78125 -1.375,-1.1719 -2.4375,-1.1719 z m 0,-3.5 c 2.6328,0 4.6914,0.71484 6.1719,2.1406 1.4766,1.418 2.2188,3.3867 2.2188,5.9062 0,2.5117 -0.74219,4.4805 -2.2188,5.9062 C 14.332,-0.317 12.2734,0.39 9.6406,0.39 6.9922,0.39 4.9258,-0.31703 3.4375,-1.735 1.9453,-3.1608 1.2031,-5.1295 1.2031,-7.6412 c 0,-2.5195 0.74219,-4.4883 2.2344,-5.9062 1.4883,-1.4258 3.5547,-2.1406 6.2031,-2.1406 z"
         id="path866" />
    </symbol>
    <symbol
       id="r"
       overflow="visible">
      <path
         d="m 16.547,-12.766 c 0.61328,-0.94531 1.3477,-1.6719 2.2031,-2.1719 0.85156,-0.5 1.7891,-0.75 2.8125,-0.75 1.7578,0 3.0977,0.54688 4.0156,1.6406 0.92578,1.0859 1.3906,2.6562 1.3906,4.7188 V -4e-4 h -4.9219 v -7.9844 -0.35938 c 0.0078,-0.13281 0.01563,-0.32031 0.01563,-0.5625 0,-1.082 -0.16406,-1.8633 -0.48438,-2.3438 -0.3125,-0.48828 -0.82422,-0.73438 -1.5312,-0.73438 -0.92969,0 -1.6484,0.38672 -2.1562,1.1562 -0.51172,0.76172 -0.77344,1.8672 -0.78125,3.3125 v 7.5156 h -4.9219 v -7.9844 c 0,-1.6953 -0.14844,-2.7852 -0.4375,-3.2656 -0.29297,-0.48828 -0.8125,-0.73438 -1.5625,-0.73438 -0.9375,0 -1.6641,0.38672 -2.1719,1.1562 -0.51172,0.76172 -0.76562,1.8594 -0.76562,3.2969 v 7.5312 h -4.9219 v -15.312 h 4.9219 v 2.2344 c 0.60156,-0.86328 1.2891,-1.5156 2.0625,-1.9531 0.78125,-0.4375 1.6406,-0.65625 2.5781,-0.65625 1.0625,0 2,0.25781 2.8125,0.76562 0.8125,0.51172 1.4258,1.2305 1.8438,2.1562 z"
         id="path869" />
    </symbol>
    <symbol
       id="q"
       overflow="visible">
      <path
         d="M 17.75,-9.3281 V 0 h -4.9219 v -7.1094 c 0,-1.3438 -0.03125,-2.2656 -0.09375,-2.7656 -0.0625,-0.5 -0.16797,-0.86719 -0.3125,-1.1094 -0.1875,-0.3125 -0.44922,-0.55469 -0.78125,-0.73438 -0.32422,-0.17578 -0.69531,-0.26562 -1.1094,-0.26562 -1.0234,0 -1.8242,0.39844 -2.4062,1.1875 -0.58594,0.78125 -0.875,1.8711 -0.875,3.2656 V -1e-4 H 2.3594 v -21.281 H 7.25 v 8.2031 c 0.73828,-0.88281 1.5195,-1.5391 2.3438,-1.9688 0.83203,-0.42578 1.75,-0.64062 2.75,-0.64062 1.7695,0 3.1133,0.54688 4.0312,1.6406 0.91406,1.0859 1.375,2.6562 1.375,4.7188 z"
         id="path872" />
    </symbol>
    <symbol
       id="p"
       overflow="visible">
      <path
         d="m 2.5781,-20.406 h 5.875 l 7.4219,14 v -14 h 4.9844 V 0 h -5.875 L 7.5625,-14 V 0 H 2.5781 Z"
         id="path875" />
    </symbol>
    <symbol
       id="o"
       overflow="visible">
      <path
         d="m 2.1875,-5.9688 v -9.3438 h 4.9219 v 1.5312 c 0,0.83594 -0.00781,1.875 -0.015625,3.125 -0.011719,1.25 -0.015625,2.0859 -0.015625,2.5 0,1.2422 0.03125,2.1328 0.09375,2.6719 0.070313,0.54297 0.17969,0.93359 0.32812,1.1719 0.20703,0.32422 0.47266,0.57422 0.79688,0.75 0.32031,0.16797 0.69141,0.25 1.1094,0.25 1.0195,0 1.8203,-0.39062 2.4062,-1.1719 0.58203,-0.78125 0.875,-1.8672 0.875,-3.2656 v -7.5625 h 4.8906 V -6e-4 H 12.6875 V -2.2194 C 11.94531,-1.32096 11.1641,-0.6608 10.3437,-0.235 9.51948,0.17906 8.6093,0.39 7.6093,0.39 5.8476,0.39 4.5038,-0.14906 3.5781,-1.235 2.64841,-2.317 2.1875,-3.8952 2.1875,-5.9694 Z"
         id="path878" />
    </symbol>
    <symbol
       id="n"
       overflow="visible">
      <path
         d="M 17.75,-9.3281 V 0 h -4.9219 v -7.1406 c 0,-1.3203 -0.03125,-2.2344 -0.09375,-2.7344 -0.0625,-0.5 -0.16797,-0.86719 -0.3125,-1.1094 -0.1875,-0.3125 -0.44922,-0.55469 -0.78125,-0.73438 -0.32422,-0.17578 -0.69531,-0.26562 -1.1094,-0.26562 -1.0234,0 -1.8242,0.39844 -2.4062,1.1875 -0.58594,0.78125 -0.875,1.8711 -0.875,3.2656 V -1e-4 H 2.3594 v -15.312 H 7.25 v 2.2344 c 0.73828,-0.88281 1.5195,-1.5391 2.3438,-1.9688 0.83203,-0.42578 1.75,-0.64062 2.75,-0.64062 1.7695,0 3.1133,0.54688 4.0312,1.6406 0.91406,1.0859 1.375,2.6562 1.375,4.7188 z"
         id="path881" />
    </symbol>
    <symbol
       id="m"
       overflow="visible">
      <path
         d="m 2.5781,-20.406 h 8.7344 c 2.5938,0 4.582,0.57812 5.9688,1.7344 1.3945,1.1484 2.0938,2.7891 2.0938,4.9219 0,2.1367 -0.69922,3.7812 -2.0938,4.9375 -1.3867,1.1562 -3.375,1.7344 -5.9688,1.7344 H 7.8281 V 3e-4 h -5.25 z m 5.25,3.8125 v 5.7031 H 10.75 c 1.0195,0 1.8047,-0.25 2.3594,-0.75 0.5625,-0.5 0.84375,-1.2031 0.84375,-2.1094 0,-0.91406 -0.28125,-1.6172 -0.84375,-2.1094 -0.55469,-0.48828 -1.3398,-0.73438 -2.3594,-0.73438 z"
         id="path884" />
    </symbol>
    <symbol
       id="l"
       overflow="visible">
      <path
         d="M 2.3594,-15.312 H 7.25 v 15.031 c 0,2.0508 -0.49609,3.6172 -1.4844,4.7031 -0.98047,1.082 -2.4062,1.625 -4.2812,1.625 H -0.9375 V 2.8283 h 0.85938 c 0.92578,0 1.5625,-0.21094 1.9062,-0.625 0.35156,-0.41797 0.53125,-1.2461 0.53125,-2.4844 z m 0,-5.9688 H 7.25 v 4 H 2.3594 Z"
         id="path887" />
    </symbol>
    <symbol
       id="k"
       overflow="visible">
      <path
         d="m 14.719,-14.828 v 3.9844 c -0.65625,-0.45703 -1.3242,-0.79688 -2,-1.0156 -0.66797,-0.21875 -1.3594,-0.32812 -2.0781,-0.32812 -1.3672,0 -2.4336,0.40234 -3.2031,1.2031 -0.76172,0.79297 -1.1406,1.9062 -1.1406,3.3438 0,1.4297 0.37891,2.543 1.1406,3.3438 0.76953,0.79297 1.8359,1.1875 3.2031,1.1875 0.75781,0 1.4844,-0.10938 2.1719,-0.32812 0.6875,-0.22656 1.3203,-0.56641 1.9062,-1.0156 v 4 c -0.76172,0.28125 -1.5391,0.48828 -2.3281,0.625 -0.78125,0.14453 -1.5742,0.21875 -2.375,0.21875 -2.7617,0 -4.9219,-0.70703 -6.4844,-2.125 -1.5547,-1.4141 -2.3281,-3.3828 -2.3281,-5.9062 0,-2.5312 0.77344,-4.5039 2.3281,-5.9219 1.5625,-1.4141 3.7227,-2.125 6.4844,-2.125 0.80078,0 1.5938,0.07422 2.375,0.21875 0.78125,0.13672 1.5547,0.35156 2.3281,0.64062 z"
         id="path890" />
    </symbol>
    <symbol
       id="o-2"
       overflow="visible">
      <path
         d="m 31.266,-1.875 c -1.6172,0.84375 -3.2969,1.4766 -5.0469,1.8906 -1.7422,0.42578 -3.5586,0.64062 -5.4531,0.64062 -5.668,0 -10.156,-1.582 -13.469,-4.75 -3.3125,-3.1641 -4.9688,-7.4609 -4.9688,-12.891 0,-5.4375 1.6562,-9.7383 4.9688,-12.906 3.3125,-3.1641 7.8008,-4.75 13.469,-4.75 1.8945,0 3.7109,0.21484 5.4531,0.64062 1.75,0.42969 3.4297,1.0586 5.0469,1.8906 v 7.0469 c -1.625,-1.1133 -3.2305,-1.9258 -4.8125,-2.4375 -1.5742,-0.51953 -3.2344,-0.78125 -4.9844,-0.78125 -3.1367,0 -5.6016,1.0078 -7.3906,3.0156 -1.793,2 -2.6875,4.7617 -2.6875,8.2812 0,3.5117 0.89453,6.2734 2.6875,8.2812 1.7891,2 4.2539,3 7.3906,3 1.75,0 3.4102,-0.25391 4.9844,-0.76562 1.582,-0.51953 3.1875,-1.332 4.8125,-2.4375 z"
         id="path132659" />
    </symbol>
    <symbol
       id="b-6"
       overflow="visible">
      <path
         d="m 22.875,-18.578 c -0.71094,-0.33203 -1.418,-0.57812 -2.125,-0.73438 -0.71094,-0.15625 -1.418,-0.23438 -2.125,-0.23438 -2.1055,0 -3.7266,0.67188 -4.8594,2.0156 -1.125,1.3438 -1.6875,3.2656 -1.6875,5.7656 V 4.4e-4 H 3.9219 v -25.531 h 8.1562 v 4.2031 c 1.0508,-1.6758 2.2539,-2.8945 3.6094,-3.6562 1.3633,-0.76953 2.9922,-1.1562 4.8906,-1.1562 0.26953,0 0.56641,0.01172 0.89062,0.03125 0.32031,0.02344 0.78516,0.07422 1.3906,0.15625 z"
         id="path132662" />
    </symbol>
    <symbol
       id="a-1"
       overflow="visible">
      <path
         d="m 29.391,-12.828 v 2.3281 H 10.329 c 0.19531,1.9062 0.88281,3.3398 2.0625,4.2969 1.1875,0.96094 2.8438,1.4375 4.9688,1.4375 1.7188,0 3.4766,-0.25391 5.2812,-0.76562 1.8008,-0.50781 3.6484,-1.2812 5.5469,-2.3125 v 6.2969 c -1.9297,0.73047 -3.8594,1.2773 -5.7969,1.6406 -1.9297,0.375 -3.8555,0.5625 -5.7812,0.5625 -4.6172,0 -8.2031,-1.1719 -10.766,-3.5156 -2.5629,-2.3437 -3.8438,-5.6328 -3.8438,-9.875 0,-4.1641 1.2539,-7.4414 3.7656,-9.8281 2.5195,-2.3828 5.9844,-3.5781 10.391,-3.5781 4.0078,0 7.2188,1.2109 9.625,3.625 2.4062,2.418 3.6094,5.6484 3.6094,9.6875 z m -8.375,-2.7188 c 0,-1.5391 -0.45312,-2.7852 -1.3594,-3.7344 -0.90625,-0.95703 -2.0898,-1.4375 -3.5469,-1.4375 -1.5859,0 -2.8711,0.44922 -3.8594,1.3438 -0.98047,0.88672 -1.5898,2.1641 -1.8281,3.8281 z"
         id="path132665" />
    </symbol>
    <symbol
       id="d-0"
       overflow="visible">
      <path
         d="m 15.359,-11.484 c -1.6992,0 -2.9805,0.29297 -3.8438,0.875 -0.85547,0.57422 -1.2812,1.4219 -1.2812,2.5469 0,1.0312 0.34375,1.8398 1.0312,2.4219 0.69531,0.58594 1.6602,0.875 2.8906,0.875 1.5312,0 2.8164,-0.54688 3.8594,-1.6406 1.0508,-1.1016 1.5781,-2.4844 1.5781,-4.1406 v -0.9375 z m 12.469,-3.0781 V -1e-4 h -8.2344 v -3.7812 c -1.0938,1.5547 -2.3242,2.6836 -3.6875,3.3906 -1.3672,0.69531 -3.0273,1.0469 -4.9844,1.0469 -2.6484,0 -4.7969,-0.76953 -6.4531,-2.3125 -1.6484,-1.5391 -2.4688,-3.5391 -2.4688,-6 0,-2.9883 1.0312,-5.1797 3.0938,-6.5781 2.0625,-1.4062 5.2969,-2.1094 9.7031,-2.1094 h 4.7969 v -0.64062 c 0,-1.2891 -0.51172,-2.2344 -1.5312,-2.8281 -1.0117,-0.60156 -2.5938,-0.90625 -4.75,-0.90625 -1.75,0 -3.3828,0.17969 -4.8906,0.53125 -1.5,0.34375 -2.8984,0.86719 -4.1875,1.5625 v -6.2188 c 1.75,-0.42578 3.5039,-0.75 5.2656,-0.96875 1.7578,-0.21875 3.5234,-0.32812 5.2969,-0.32812 4.5938,0 7.9102,0.91406 9.9531,2.7344 2.0508,1.8125 3.0781,4.7617 3.0781,8.8438 z"
         id="path132668" />
    </symbol>
    <symbol
       id="h-6"
       overflow="visible">
      <path
         d="m 12.828,-32.766 v 7.2344 h 8.4062 v 5.8438 H 12.828 v 10.828 c 0,1.1797 0.23438,1.9805 0.70312,2.4062 0.47656,0.41797 1.4141,0.625 2.8125,0.625 h 4.1875 V -5e-4 h -7 c -3.2188,0 -5.5,-0.67188 -6.8438,-2.0156 -1.3438,-1.34372 -2.0156,-3.625 -2.0156,-6.8438 v -10.828 h -4.0625 v -5.8438 h 4.0625 v -7.2344 z"
         id="path132671" />
    </symbol>
    <symbol
       id="c-1"
       overflow="visible">
      <path
         d="m 21.281,-21.781 v -13.672 h 8.2031 V 0 H 21.281 v -3.6875 c -1.125,1.5 -2.3672,2.6016 -3.7188,3.2969 -1.3438,0.69531 -2.9062,1.0469 -4.6875,1.0469 -3.1484,0 -5.7305,-1.25 -7.75,-3.75 -2.0234,-2.5 -3.0312,-5.7109 -3.0312,-9.6406 0,-3.9375 1.0078,-7.1562 3.0312,-9.6562 2.0195,-2.5 4.6016,-3.75 7.75,-3.75 1.7578,0 3.3164,0.35547 4.6719,1.0625 1.3633,0.71094 2.6094,1.8086 3.7344,3.2969 z m -5.375,16.516 c 1.75,0 3.082,-0.63281 4,-1.9062 0.91406,-1.2812 1.375,-3.1328 1.375,-5.5625 0,-2.4375 -0.46094,-4.2891 -1.375,-5.5625 -0.91797,-1.2812 -2.25,-1.9219 -4,-1.9219 -1.7305,0 -3.0586,0.64062 -3.9844,1.9219 -0.91797,1.2734 -1.375,3.125 -1.375,5.5625 0,2.4297 0.45703,4.2812 1.375,5.5625 0.92578,1.2734 2.2539,1.9062 3.9844,1.9062 z"
         id="path132674" />
    </symbol>
    <symbol
       id="g-5"
       overflow="visible">
      <path
         d="m 17.5,-5.2656 c 1.75,0 3.082,-0.63281 4,-1.9062 0.91406,-1.2812 1.375,-3.1328 1.375,-5.5625 0,-2.4375 -0.46094,-4.2891 -1.375,-5.5625 -0.91797,-1.2812 -2.25,-1.9219 -4,-1.9219 -1.75,0 -3.0938,0.64844 -4.0312,1.9375 -0.92969,1.2812 -1.3906,3.1328 -1.3906,5.5469 0,2.418 0.46094,4.2656 1.3906,5.5469 0.9375,1.2812 2.2812,1.9219 4.0312,1.9219 z m -5.4219,-16.516 c 1.125,-1.4883 2.3672,-2.5859 3.7344,-3.2969 1.3633,-0.70703 2.9375,-1.0625 4.7188,-1.0625 3.1445,0 5.7266,1.25 7.75,3.75 2.0195,2.5 3.0312,5.7188 3.0312,9.6562 0,3.9297 -1.0117,7.1406 -3.0312,9.6406 -2.0234,2.5 -4.6055,3.75 -7.75,3.75 -1.7812,0 -3.3555,-0.35156 -4.7188,-1.0469 -1.3672,-0.70703 -2.6094,-1.8047 -3.7344,-3.2969 V -5e-4 H 3.9219 v -35.453 h 8.1562 z"
         id="path132677" />
    </symbol>
    <symbol
       id="f-9"
       overflow="visible">
      <path
         d="m 0.5625,-25.531 h 8.1719 l 6.8594,17.328 5.8281,-17.328 h 8.1562 L 18.8441,2.422 C 17.7699,5.254 16.516,7.2384 15.0785,8.3751 13.641,9.5079 11.7426,10.0782 9.391,10.0782 H 4.6722 V 4.7188 h 2.5469 c 1.3828,0 2.3906,-0.22656 3.0156,-0.67188 0.63281,-0.4375 1.1289,-1.2266 1.4844,-2.3594 L 11.93785,0.9844 Z"
         id="path132680" />
    </symbol>
    <symbol
       id="e-4"
       overflow="visible">
      <path
         d="M 24.938,-6.2031 H 11.219 L 9.0471,0 H 0.2346 l 12.594,-34.031 h 10.469 L 35.8916,0 h -8.8125 z m -11.531,-6.3125 h 9.3125 l -4.6406,-13.531 z"
         id="path132683" />
    </symbol>
    <symbol
       id="n-9"
       overflow="visible">
      <path
         d="M 29.578,-15.547 V 0 h -8.2031 v -11.891 c 0,-2.207 -0.05469,-3.7266 -0.15625,-4.5625 -0.09375,-0.83203 -0.26172,-1.4453 -0.5,-1.8438 -0.32422,-0.53125 -0.76172,-0.94141 -1.3125,-1.2344 -0.54297,-0.30078 -1.1641,-0.45312 -1.8594,-0.45312 -1.6992,0 -3.0391,0.65625 -4.0156,1.9688 -0.96875,1.3125 -1.4531,3.1328 -1.4531,5.4531 v 12.562 h -8.1562 v -25.531 h 8.1562 v 3.75 c 1.2266,-1.4883 2.5352,-2.5859 3.9219,-3.2969 1.3828,-0.70703 2.9102,-1.0625 4.5781,-1.0625 2.9453,0 5.1797,0.90625 6.7031,2.7188 1.5312,1.8047 2.2969,4.4297 2.2969,7.875 z"
         id="path132686" />
    </symbol>
    <symbol
       id="m-0"
       overflow="visible">
      <path
         d="m 3.9219,-25.531 h 8.1562 v 25.078 c 0,3.4141 -0.82422,6.0234 -2.4688,7.8281 -1.6367,1.8008 -4.0117,2.7031 -7.125,2.7031 H -1.5469 V 4.7188 h 1.4062 c 1.5508,0 2.6133,-0.35156 3.1875,-1.0469 0.58203,-0.69922 0.875,-2.0742 0.875,-4.125 z m 0,-9.9219 h 8.1562 v 6.6406 H 3.9219 Z"
         id="path132689" />
    </symbol>
    <symbol
       id="l-9"
       overflow="visible">
      <path
         d="m 23.859,-24.719 v 6.1875 c -1.75,-0.72656 -3.4375,-1.2734 -5.0625,-1.6406 -1.625,-0.36328 -3.1562,-0.54688 -4.5938,-0.54688 -1.5547,0 -2.7109,0.19922 -3.4688,0.59375 -0.75,0.38672 -1.125,0.98047 -1.125,1.7812 0,0.65625 0.28516,1.1641 0.85938,1.5156 0.57031,0.34375 1.5938,0.60156 3.0625,0.76562 l 1.4375,0.20312 c 4.1758,0.53125 6.9844,1.4062 8.4219,2.625 1.4453,1.2109 2.1719,3.1172 2.1719,5.7188 0,2.7188 -1.0078,4.7617 -3.0156,6.125 -2,1.3672 -4.9922,2.0469 -8.9688,2.0469 -1.6875,0 -3.4336,-0.13672 -5.2344,-0.40625 -1.793,-0.25781 -3.6406,-0.65625 -5.5469,-1.1875 v -6.2031 c 1.625,0.79297 3.2891,1.3867 5,1.7812 1.7188,0.39844 3.457,0.59375 5.2188,0.59375 1.5938,0 2.7891,-0.21875 3.5938,-0.65625 0.8125,-0.4375 1.2188,-1.0938 1.2188,-1.9688 0,-0.72656 -0.28125,-1.2695 -0.84375,-1.625 -0.55469,-0.35156 -1.6562,-0.62891 -3.3125,-0.82812 l -1.4375,-0.1875 c -3.625,-0.44531 -6.168,-1.2852 -7.625,-2.5156 -1.4609,-1.2383 -2.1875,-3.1094 -2.1875,-5.6094 0,-2.707 0.92188,-4.7109 2.7656,-6.0156 1.8516,-1.3125 4.6953,-1.9688 8.5312,-1.9688 1.5,0 3.0781,0.11719 4.7344,0.34375 1.6562,0.23047 3.457,0.58984 5.4062,1.0781 z"
         id="path132692" />
    </symbol>
    <symbol
       id="k-1"
       overflow="visible">
      <path
         d="m 4.2812,-34.031 h 8.7812 v 12.422 l 12.641,-12.422 h 10.188 L 19.5004,-17.906 37.5784,0 H 26.5944 L 13.0634,-13.406 V 0 H 4.2822 Z"
         id="path132695" />
    </symbol>
    <symbol
       id="j-7"
       overflow="visible">
      <path
         d="m 3.9219,-25.531 h 8.1562 V 0 H 3.9219 Z m 0,-9.9219 h 8.1562 v 6.6406 H 3.9219 Z"
         id="path132698" />
    </symbol>
    <symbol
       id="i-7"
       overflow="visible">
      <path
         d="m 27.578,-21.281 c 1.0312,-1.582 2.2539,-2.7852 3.6719,-3.6094 1.4258,-0.83203 2.9883,-1.25 4.6875,-1.25 2.9375,0 5.1719,0.90625 6.7031,2.7188 1.5312,1.8047 2.2969,4.4297 2.2969,7.875 V 4e-4 h -8.2031 v -13.312 c 0.01953,-0.19531 0.03125,-0.39844 0.03125,-0.60938 0.0078,-0.21875 0.01563,-0.51953 0.01563,-0.90625 0,-1.8125 -0.26562,-3.125 -0.79688,-3.9375 -0.53126,-0.8125 -1.3906,-1.2188 -2.5781,-1.2188 -1.5547,0 -2.75,0.64062 -3.5938,1.9219 -0.84375,1.2734 -1.2773,3.1172 -1.2969,5.5312 v 12.531 h -8.2031 v -13.312 c 0,-2.8203 -0.24609,-4.6406 -0.73438,-5.4531 -0.49219,-0.8125 -1.3555,-1.2188 -2.5938,-1.2188 -1.5742,0 -2.7891,0.64062 -3.6406,1.9219 -0.84375,1.2812 -1.2656,3.1172 -1.2656,5.5 v 12.562 h -8.2031 v -25.531 h 8.2031 v 3.75 c 1,-1.4453 2.1484,-2.5352 3.4531,-3.2656 1.3008,-0.72656 2.7344,-1.0938 4.2969,-1.0938 1.7578,0 3.3164,0.42969 4.6719,1.2812 1.3516,0.84375 2.3789,2.0391 3.0781,3.5781 z"
         id="path132701" />
    </symbol>
    <symbol
       id="g-1"
       overflow="visible">
      <path
         d="m 38.453,-2.2969 c -1.9805,1.0312 -4.0469,1.8086 -6.2031,2.3281 -2.1484,0.51953 -4.3867,0.78125 -6.7188,0.78125 -6.9688,0 -12.492,-1.9453 -16.562,-5.8438 -4.0742,-3.8945 -6.1094,-9.1758 -6.1094,-15.844 0,-6.6875 2.0352,-11.977 6.1094,-15.875 4.0703,-3.8945 9.5938,-5.8438 16.562,-5.8438 2.332,0 4.5703,0.26172 6.7188,0.78125 2.1562,0.52344 4.2227,1.2969 6.2031,2.3281 v 8.6562 c -2,-1.3633 -3.9766,-2.3633 -5.9219,-3 -1.9375,-0.63281 -3.9844,-0.95312 -6.1406,-0.95312 -3.8438,0 -6.8711,1.2344 -9.0781,3.7031 -2.1992,2.4688 -3.2969,5.8711 -3.2969,10.203 0,4.3125 1.0977,7.7031 3.2969,10.172 2.207,2.4688 5.2344,3.7031 9.0781,3.7031 2.1562,0 4.2031,-0.31641 6.1406,-0.95312 1.9453,-0.63281 3.9219,-1.6328 5.9219,-3 z"
         id="path133232" />
    </symbol>
    <symbol
       id="f-1"
       overflow="visible">
      <path
         d="m 15.781,-40.297 v 8.9062 h 10.344 v 7.1719 H 15.781 v 13.312 c 0,1.4609 0.28516,2.4492 0.85938,2.9688 0.58203,0.51172 1.7344,0.76562 3.4531,0.76562 h 5.1562 v 7.1719 h -8.6094 c -3.9609,0 -6.7656,-0.82031 -8.4219,-2.4688 -1.6484,-1.6562 -2.4688,-4.4688 -2.4688,-8.4375 v -13.312 h -5 v -7.1719 h 5 v -8.9062 z"
         id="path133235" />
    </symbol>
    <symbol
       id="b-5"
       overflow="visible">
      <path
         d="M 26.172,-26.797 V -43.609 H 36.266 V 0 H 26.172 v -4.5469 c -1.3867,1.8555 -2.9141,3.2148 -4.5781,4.0781 -1.6562,0.85156 -3.5781,1.2812 -5.7656,1.2812 -3.8672,0 -7.043,-1.5352 -9.5312,-4.6094 -2.4805,-3.0703 -3.7188,-7.0312 -3.7188,-11.875 0,-4.832 1.2383,-8.7852 3.7188,-11.859 2.4883,-3.0703 5.6641,-4.6094 9.5312,-4.6094 2.1641,0 4.082,0.4375 5.75,1.3125 1.6758,0.86719 3.207,2.2109 4.5938,4.0312 z m -6.6094,20.328 c 2.1445,0 3.7812,-0.78516 4.9062,-2.3594 1.1328,-1.5703 1.7031,-3.8516 1.7031,-6.8438 0,-2.9766 -0.57031,-5.2539 -1.7031,-6.8281 -1.125,-1.5703 -2.7617,-2.3594 -4.9062,-2.3594 -2.1367,0 -3.7734,0.78906 -4.9062,2.3594 -1.125,1.5742 -1.6875,3.8516 -1.6875,6.8281 0,2.9922 0.5625,5.2734 1.6875,6.8438 1.1328,1.5742 2.7695,2.3594 4.9062,2.3594 z"
         id="path133238" />
    </symbol>
    <symbol
       id="a-9"
       overflow="visible">
      <path
         d="m 21.516,-6.4688 c 2.1562,0 3.7969,-0.78516 4.9219,-2.3594 1.1328,-1.5703 1.7031,-3.8516 1.7031,-6.8438 0,-2.9766 -0.57031,-5.2539 -1.7031,-6.8281 -1.125,-1.5703 -2.7656,-2.3594 -4.9219,-2.3594 -2.1484,0 -3.793,0.79297 -4.9375,2.375 -1.1484,1.5742 -1.7188,3.8438 -1.7188,6.8125 0,2.9805 0.57031,5.2617 1.7188,6.8438 1.1445,1.5742 2.7891,2.3594 4.9375,2.3594 z m -6.6562,-20.328 c 1.375,-1.8203 2.8984,-3.1641 4.5781,-4.0312 1.6875,-0.875 3.625,-1.3125 5.8125,-1.3125 3.8633,0 7.0352,1.5391 9.5156,4.6094 2.4883,3.0742 3.7344,7.0273 3.7344,11.859 0,4.8438 -1.2461,8.8047 -3.7344,11.875 -2.4805,3.0742 -5.6523,4.6094 -9.5156,4.6094 -2.1875,0 -4.125,-0.43359 -5.8125,-1.2969 -1.6797,-0.875 -3.2031,-2.2266 -4.5781,-4.0625 V -2e-4 H 4.8128 v -43.609 h 10.047 z"
         id="path133241" />
    </symbol>
    <symbol
       id="e-7"
       overflow="visible">
      <path
         d="m 16.062,-33.688 v 25.531 h 3.8594 c 4.4062,0 7.7695,-1.0938 10.094,-3.2812 2.332,-2.1875 3.5,-5.3633 3.5,-9.5312 0,-4.1445 -1.1641,-7.3008 -3.4844,-9.4688 -2.3125,-2.1641 -5.6836,-3.25 -10.109,-3.25 z M 5.265,-41.8442 H 16.64 c 6.3516,0 11.082,0.45312 14.188,1.3594 3.1133,0.90625 5.7852,2.4453 8.0156,4.6094 1.957,1.8984 3.4102,4.0781 4.3594,6.5469 0.95703,2.4609 1.4375,5.2461 1.4375,8.3594 0,3.168 -0.48047,5.9922 -1.4375,8.4688 -0.94922,2.4688 -2.4023,4.6484 -4.3594,6.5312 -2.2422,2.168 -4.9336,3.7031 -8.0781,4.6094 -3.1367,0.90625 -7.8438,1.3594 -14.125,1.3594 H 5.2655 Z"
         id="path133244" />
    </symbol>
    <symbol
       id="d-7"
       overflow="visible">
      <path
         d="m 4.8125,-31.391 h 10.047 V 0 H 4.8125 Z m 0,-12.219 h 10.047 v 8.1875 H 4.8125 Z"
         id="path133247" />
    </symbol>
    <symbol
       id="c-6"
       overflow="visible">
      <path
         d="m 5.2656,-41.844 h 10.797 v 37.781 c 0,5.207 -1.418,9.0977 -4.25,11.672 -2.8359,2.582 -7.1172,3.875 -12.844,3.875 H -3.2189 V 3.3278 h 1.6719 c 2.25,0 3.9453,-0.625 5.0938,-1.875 1.1445,-1.25 1.7188,-3.0859 1.7188,-5.5156 z"
         id="path133250" />
    </symbol>
    <symbol
       id="u-7"
       overflow="visible">
      <path
         d="m 18.766,-1.125 c -0.96875,0.5 -1.9805,0.875 -3.0312,1.125 -1.043,0.25781 -2.1367,0.39062 -3.2812,0.39062 -3.3984,0 -6.0898,-0.94531 -8.0781,-2.8438 -1.9922,-1.9062 -2.9844,-4.4844 -2.9844,-7.7344 0,-3.2578 0.99219,-5.8359 2.9844,-7.7344 1.9883,-1.9062 4.6797,-2.8594 8.0781,-2.8594 1.1445,0 2.2383,0.13281 3.2812,0.39062 1.0508,0.25 2.0625,0.625 3.0312,1.125 v 4.2188 c -0.98047,-0.65625 -1.9453,-1.1406 -2.8906,-1.4531 -0.94922,-0.3125 -1.9492,-0.46875 -3,-0.46875 -1.875,0 -3.3516,0.60547 -4.4219,1.8125 -1.0742,1.1992 -1.6094,2.8555 -1.6094,4.9688 0,2.1055 0.53516,3.7617 1.6094,4.9688 1.0703,1.1992 2.5469,1.7969 4.4219,1.7969 1.0508,0 2.0508,-0.14844 3,-0.45312 0.94531,-0.3125 1.9102,-0.80078 2.8906,-1.4688 z"
         id="path135805" />
    </symbol>
    <symbol
       id="b-3"
       overflow="visible">
      <path
         d="m 13.734,-11.141 c -0.4375,-0.19531 -0.87109,-0.34375 -1.2969,-0.4375 -0.41797,-0.10156 -0.83984,-0.15625 -1.2656,-0.15625 -1.2617,0 -2.2305,0.40625 -2.9062,1.2188 -0.67969,0.80469 -1.0156,1.9531 -1.0156,3.4531 v 7.0625 H 2.3591 v -15.312 h 4.8906 v 2.5156 c 0.625,-1 1.3438,-1.7266 2.1562,-2.1875 0.82031,-0.46875 1.8008,-0.70312 2.9375,-0.70312 0.16406,0 0.34375,0.01172 0.53125,0.03125 0.19531,0.01172 0.47656,0.03906 0.84375,0.07813 z"
         id="path135808" />
    </symbol>
    <symbol
       id="a-6"
       overflow="visible">
      <path
         d="m 17.641,-7.7031 v 1.4062 H 6.188 c 0.125,1.1484 0.53906,2.0078 1.25,2.5781 0.70703,0.57422 1.7031,0.85938 2.9844,0.85938 1.0312,0 2.082,-0.14844 3.1562,-0.45312 1.082,-0.3125 2.1914,-0.77344 3.3281,-1.3906 v 3.7656 c -1.1562,0.4375 -2.3125,0.76562 -3.4688,0.98438 -1.1562,0.22656 -2.3125,0.34375 -3.4688,0.34375 -2.7734,0 -4.9297,-0.70312 -6.4688,-2.1094 -1.5312,-1.4062 -2.2969,-3.3789 -2.2969,-5.9219 0,-2.5 0.75391,-4.4609 2.2656,-5.8906 1.5078,-1.4375 3.582,-2.1562 6.2188,-2.1562 2.4062,0 4.332,0.73047 5.7812,2.1875 1.4453,1.4492 2.1719,3.3828 2.1719,5.7969 z m -5.0312,-1.625 c 0,-0.92578 -0.27344,-1.6719 -0.8125,-2.2344 -0.54297,-0.57031 -1.25,-0.85938 -2.125,-0.85938 -0.94922,0 -1.7188,0.26562 -2.3125,0.79688 -0.5937,0.53126 -0.96484,1.2969 -1.1094,2.2969 z"
         id="path135811" />
    </symbol>
    <symbol
       id="e-5"
       overflow="visible">
      <path
         d="m 9.2188,-6.8906 c -1.0234,0 -1.793,0.17188 -2.3125,0.51562 -0.51172,0.34375 -0.76562,0.85547 -0.76562,1.5312 0,0.625 0.20703,1.1172 0.625,1.4688 0.41406,0.34375 0.98828,0.51562 1.7188,0.51562 0.92578,0 1.7031,-0.32812 2.3281,-0.98438 0.63281,-0.66406 0.95312,-1.4922 0.95312,-2.4844 v -0.5625 z m 7.4688,-1.8438 V 0 h -4.9219 v -2.2656 c -0.65625,0.92969 -1.3984,1.6055 -2.2188,2.0312 -0.82422,0.41406 -1.8242,0.625 -3,0.625 -1.5859,0 -2.8711,-0.45703 -3.8594,-1.375 -0.99219,-0.92578 -1.4844,-2.1289 -1.4844,-3.6094 0,-1.7891 0.61328,-3.1016 1.8438,-3.9375 1.2383,-0.84375 3.1797,-1.2656 5.8281,-1.2656 h 2.8906 v -0.39062 c 0,-0.76953 -0.30859,-1.332 -0.92188,-1.6875 -0.61719,-0.36328 -1.5703,-0.54688 -2.8594,-0.54688 -1.0547,0 -2.0312,0.10547 -2.9375,0.3125 -0.89844,0.21094 -1.7305,0.52344 -2.5,0.9375 v -3.7344 c 1.0391,-0.25 2.0859,-0.44141 3.1406,-0.57812 1.0625,-0.13281 2.125,-0.20312 3.1875,-0.20312 2.7578,0 4.75,0.54688 5.9688,1.6406 1.2266,1.0859 1.8438,2.8555 1.8438,5.3125 z"
         id="path135814" />
    </symbol>
    <symbol
       id="d-6"
       overflow="visible">
      <path
         d="m 7.7031,-19.656 v 4.3438 H 12.75 v 3.5 H 7.7031 v 6.5 c 0,0.71094 0.14062,1.1875 0.42188,1.4375 0.28126,0.25 0.83594,0.375 1.6719,0.375 h 2.5156 v 3.5 h -4.1875 c -1.9375,0 -3.3125,-0.39844 -4.125,-1.2031 -0.80469,-0.8125 -1.2031,-2.1797 -1.2031,-4.1094 v -6.5 h -2.4219 v -3.5 h 2.4219 v -4.3438 z"
         id="path135817" />
    </symbol>
    <symbol
       id="k-3"
       overflow="visible">
      <path
         d="m 12.766,-13.078 v -8.2031 h 4.9219 V -10e-5 H 12.766 v -2.2188 c -0.66797,0.90625 -1.4062,1.5703 -2.2188,1.9844 -0.8126,0.4141 -1.7578,0.625 -2.8281,0.625 -1.8867,0 -3.4336,-0.75 -4.6406,-2.25 -1.2109,-1.5 -1.8125,-3.4258 -1.8125,-5.7812 0,-2.3633 0.60156,-4.2969 1.8125,-5.7969 1.207,-1.5 2.7539,-2.25 4.6406,-2.25 1.0625,0 2,0.21484 2.8125,0.64062 0.82031,0.42969 1.5664,1.0859 2.2344,1.9688 z m -3.2188,9.9219 c 1.0391,0 1.8359,-0.37891 2.3906,-1.1406 0.55078,-0.76953 0.82812,-1.8828 0.82812,-3.3438 0,-1.457 -0.27734,-2.5664 -0.82812,-3.3281 -0.55469,-0.76953 -1.3516,-1.1562 -2.3906,-1.1562 -1.043,0 -1.8398,0.38672 -2.3906,1.1562 -0.55469,0.76172 -0.82812,1.8711 -0.82812,3.3281 0,1.4609 0.27344,2.5742 0.82812,3.3438 0.55078,0.76172 1.3477,1.1406 2.3906,1.1406 z"
         id="path135820" />
    </symbol>
    <symbol
       id="j-9"
       overflow="visible">
      <path
         d="m 10.5,-3.1562 c 1.0508,0 1.8516,-0.37891 2.4062,-1.1406 0.55078,-0.76953 0.82812,-1.8828 0.82812,-3.3438 0,-1.457 -0.27734,-2.5664 -0.82812,-3.3281 -0.55469,-0.76953 -1.3555,-1.1562 -2.4062,-1.1562 -1.0547,0 -1.8594,0.38672 -2.4219,1.1562 -0.55469,0.77344 -0.82812,1.8828 -0.82812,3.3281 0,1.4492 0.27344,2.5586 0.82812,3.3281 0.5625,0.77344 1.3672,1.1562 2.4219,1.1562 z m -3.25,-9.9219 c 0.67578,-0.88281 1.4219,-1.5391 2.2344,-1.9688 0.82031,-0.42578 1.7656,-0.64062 2.8281,-0.64062 1.8945,0 3.4453,0.75 4.6562,2.25 1.207,1.5 1.8125,3.4336 1.8125,5.7969 0,2.3555 -0.60547,4.2812 -1.8125,5.7812 -1.2109,1.5 -2.7617,2.25 -4.6562,2.25 -1.0625,0 -2.0078,-0.21094 -2.8281,-0.625 C 8.6719,-0.6602 7.9258,-1.32032 7.25,-2.21882 V -2e-5 H 2.3594 v -21.281 H 7.25 Z"
         id="path135823" />
    </symbol>
    <symbol
       id="i-4"
       overflow="visible">
      <path
         d="m 0.34375,-15.312 h 4.8906 l 4.125,10.391 3.5,-10.391 h 4.8906 l -6.4375,16.766 c -0.64844,1.6953 -1.4023,2.8828 -2.2656,3.5625 -0.86719,0.6875 -2,1.0312 -3.4062,1.0312 H 2.79685 V 2.8289 h 1.5312 c 0.83203,0 1.4375,-0.13672 1.8125,-0.40625 C 6.52336,2.16093 6.82024,1.69218 7.03117,1.01645 L 7.17179,0.59457 Z"
         id="path135826" />
    </symbol>
    <symbol
       id="h-8"
       overflow="visible">
      <path
         d="m 2.5781,-20.406 h 5.25 V 0 h -5.25 z"
         id="path135829" />
    </symbol>
    <symbol
       id="g-12"
       overflow="visible">
      <path
         d="m 14.719,-14.828 v 3.9844 c -0.65625,-0.45703 -1.3242,-0.79688 -2,-1.0156 -0.66797,-0.21875 -1.3594,-0.32812 -2.0781,-0.32812 -1.3672,0 -2.4336,0.40234 -3.2031,1.2031 -0.76172,0.79297 -1.1406,1.9062 -1.1406,3.3438 0,1.4297 0.37891,2.543 1.1406,3.3438 0.76953,0.79297 1.8359,1.1875 3.2031,1.1875 0.75781,0 1.4844,-0.10938 2.1719,-0.32812 0.6875,-0.22656 1.3203,-0.56641 1.9062,-1.0156 v 4 c -0.76172,0.28125 -1.5391,0.48828 -2.3281,0.625 -0.78125,0.14453 -1.5742,0.21875 -2.375,0.21875 -2.7617,0 -4.9219,-0.70703 -6.4844,-2.125 -1.5547,-1.4141 -2.3281,-3.3828 -2.3281,-5.9062 0,-2.5312 0.77344,-4.5039 2.3281,-5.9219 1.5625,-1.4141 3.7227,-2.125 6.4844,-2.125 0.80078,0 1.5938,0.07422 2.375,0.21875 0.78125,0.13672 1.5547,0.35156 2.3281,0.64062 z"
         id="path135832" />
    </symbol>
    <symbol
       id="c-9"
       overflow="visible">
      <path
         d="m 9.6406,-12.188 c -1.0859,0 -1.9141,0.39062 -2.4844,1.1719 -0.57422,0.78125 -0.85938,1.9062 -0.85938,3.375 0,1.4688 0.28516,2.5938 0.85938,3.375 0.57031,0.77344 1.3984,1.1562 2.4844,1.1562 1.0625,0 1.875,-0.38281 2.4375,-1.1562 0.57031,-0.78125 0.85938,-1.9062 0.85938,-3.375 0,-1.4688 -0.28906,-2.5938 -0.85938,-3.375 -0.5625,-0.78125 -1.375,-1.1719 -2.4375,-1.1719 z m 0,-3.5 c 2.6328,0 4.6914,0.71484 6.1719,2.1406 1.4766,1.418 2.2188,3.3867 2.2188,5.9062 0,2.5117 -0.74219,4.4805 -2.2188,5.9062 C 14.332,-0.317 12.2734,0.39 9.6406,0.39 6.9922,0.39 4.9258,-0.31703 3.4375,-1.735 1.9453,-3.1608 1.2031,-5.1295 1.2031,-7.6412 c 0,-2.5195 0.74219,-4.4883 2.2344,-5.9062 1.4883,-1.4258 3.5547,-2.1406 6.2031,-2.1406 z"
         id="path135835" />
    </symbol>
    <symbol
       id="f-3"
       overflow="visible">
      <path
         d="M 17.75,-9.3281 V 0 h -4.9219 v -7.1406 c 0,-1.3203 -0.03125,-2.2344 -0.09375,-2.7344 -0.0625,-0.5 -0.16797,-0.86719 -0.3125,-1.1094 -0.1875,-0.3125 -0.44922,-0.55469 -0.78125,-0.73438 -0.32422,-0.17578 -0.69531,-0.26562 -1.1094,-0.26562 -1.0234,0 -1.8242,0.39844 -2.4062,1.1875 -0.58594,0.78125 -0.875,1.8711 -0.875,3.2656 V -1e-4 H 2.3594 v -15.312 H 7.25 v 2.2344 c 0.73828,-0.88281 1.5195,-1.5391 2.3438,-1.9688 0.83203,-0.42578 1.75,-0.64062 2.75,-0.64062 1.7695,0 3.1133,0.54688 4.0312,1.6406 0.91406,1.0859 1.375,2.6562 1.375,4.7188 z"
         id="path135838" />
    </symbol>
    <symbol
       id="t-9"
       overflow="visible">
      <path
         d="m 2.5781,-20.406 h 6.6875 l 4.6562,10.922 4.6719,-10.922 h 6.6875 V 0 H 20.2968 V -14.938 L 15.5937,-3.922 H 12.2656 L 7.5625,-14.938 V 0 H 2.5781 Z"
         id="path135841" />
    </symbol>
    <symbol
       id="s-0"
       overflow="visible">
      <path
         d="M 2.3594,-21.281 H 7.25 v 11.594 l 5.625,-5.625 h 5.6875 L 11.0937,-8.2808 19.1562,4e-4 H 13.2187 L 7.2499,-6.3902 V 4e-4 H 2.3593 Z"
         id="path135844" />
    </symbol>
    <symbol
       id="r-8"
       overflow="visible">
      <path
         d="m 12.422,-21.281 v 3.2188 H 9.7189 c -0.6875,0 -1.1719,0.125 -1.4531,0.375 -0.27344,0.25 -0.40625,0.6875 -0.40625,1.3125 v 1.0625 h 4.1875 v 3.5 H 7.85955 V -2e-4 h -4.8906 v -11.812 h -2.4375 v -3.5 h 2.4375 v -1.0625 c 0,-1.6641 0.46094,-2.8984 1.3906,-3.7031 0.92578,-0.80078 2.3672,-1.2031 4.3281,-1.2031 z"
         id="path135847" />
    </symbol>
    <symbol
       id="q-8"
       overflow="visible">
      <path
         d="m 16.547,-12.766 c 0.61328,-0.94531 1.3477,-1.6719 2.2031,-2.1719 0.85156,-0.5 1.7891,-0.75 2.8125,-0.75 1.7578,0 3.0977,0.54688 4.0156,1.6406 0.92578,1.0859 1.3906,2.6562 1.3906,4.7188 V -4e-4 h -4.9219 v -7.9844 -0.35938 c 0.0078,-0.13281 0.01563,-0.32031 0.01563,-0.5625 0,-1.082 -0.16406,-1.8633 -0.48438,-2.3438 -0.3125,-0.48828 -0.82422,-0.73438 -1.5312,-0.73438 -0.92969,0 -1.6484,0.38672 -2.1562,1.1562 -0.51172,0.76172 -0.77344,1.8672 -0.78125,3.3125 v 7.5156 h -4.9219 v -7.9844 c 0,-1.6953 -0.14844,-2.7852 -0.4375,-3.2656 -0.29297,-0.48828 -0.8125,-0.73438 -1.5625,-0.73438 -0.9375,0 -1.6641,0.38672 -2.1719,1.1562 -0.51172,0.76172 -0.76562,1.8594 -0.76562,3.2969 v 7.5312 h -4.9219 v -15.312 h 4.9219 v 2.2344 c 0.60156,-0.86328 1.2891,-1.5156 2.0625,-1.9531 0.78125,-0.4375 1.6406,-0.65625 2.5781,-0.65625 1.0625,0 2,0.25781 2.8125,0.76562 0.8125,0.51172 1.4258,1.2305 1.8438,2.1562 z"
         id="path135850" />
    </symbol>
    <symbol
       id="p-5"
       overflow="visible">
      <path
         d="M 17.75,-9.3281 V 0 h -4.9219 v -7.1094 c 0,-1.3438 -0.03125,-2.2656 -0.09375,-2.7656 -0.0625,-0.5 -0.16797,-0.86719 -0.3125,-1.1094 -0.1875,-0.3125 -0.44922,-0.55469 -0.78125,-0.73438 -0.32422,-0.17578 -0.69531,-0.26562 -1.1094,-0.26562 -1.0234,0 -1.8242,0.39844 -2.4062,1.1875 -0.58594,0.78125 -0.875,1.8711 -0.875,3.2656 V -1e-4 H 2.3594 v -21.281 H 7.25 v 8.2031 c 0.73828,-0.88281 1.5195,-1.5391 2.3438,-1.9688 0.83203,-0.42578 1.75,-0.64062 2.75,-0.64062 1.7695,0 3.1133,0.54688 4.0312,1.6406 0.91406,1.0859 1.375,2.6562 1.375,4.7188 z"
         id="path135853" />
    </symbol>
    <symbol
       id="o-0"
       overflow="visible">
      <path
         d="m 2.5781,-20.406 h 5.875 l 7.4219,14 v -14 h 4.9844 V 0 h -5.875 L 7.5625,-14 V 0 H 2.5781 Z"
         id="path135856" />
    </symbol>
    <symbol
       id="n-96"
       overflow="visible">
      <path
         d="m 2.1875,-5.9688 v -9.3438 h 4.9219 v 1.5312 c 0,0.83594 -0.00781,1.875 -0.015625,3.125 -0.011719,1.25 -0.015625,2.0859 -0.015625,2.5 0,1.2422 0.03125,2.1328 0.09375,2.6719 0.070313,0.54297 0.17969,0.93359 0.32812,1.1719 0.20703,0.32422 0.47266,0.57422 0.79688,0.75 0.32031,0.16797 0.69141,0.25 1.1094,0.25 1.0195,0 1.8203,-0.39062 2.4062,-1.1719 0.58203,-0.78125 0.875,-1.8672 0.875,-3.2656 v -7.5625 h 4.8906 V -6e-4 H 12.6875 V -2.2194 C 11.94531,-1.32096 11.1641,-0.6608 10.3437,-0.235 9.51948,0.17906 8.6093,0.39 7.6093,0.39 5.8476,0.39 4.5038,-0.14906 3.5781,-1.235 2.64841,-2.317 2.1875,-3.8952 2.1875,-5.9694 Z"
         id="path135859" />
    </symbol>
    <symbol
       id="m-3"
       overflow="visible">
      <path
         d="m 2.5781,-20.406 h 8.7344 c 2.5938,0 4.582,0.57812 5.9688,1.7344 1.3945,1.1484 2.0938,2.7891 2.0938,4.9219 0,2.1367 -0.69922,3.7812 -2.0938,4.9375 -1.3867,1.1562 -3.375,1.7344 -5.9688,1.7344 H 7.8281 V 3e-4 h -5.25 z m 5.25,3.8125 v 5.7031 H 10.75 c 1.0195,0 1.8047,-0.25 2.3594,-0.75 0.5625,-0.5 0.84375,-1.2031 0.84375,-2.1094 0,-0.91406 -0.28125,-1.6172 -0.84375,-2.1094 -0.55469,-0.48828 -1.3398,-0.73438 -2.3594,-0.73438 z"
         id="path135862" />
    </symbol>
    <symbol
       id="l-8"
       overflow="visible">
      <path
         d="M 2.3594,-15.312 H 7.25 v 15.031 c 0,2.0508 -0.49609,3.6172 -1.4844,4.7031 -0.98047,1.082 -2.4062,1.625 -4.2812,1.625 H -0.9375 V 2.8283 h 0.85938 c 0.92578,0 1.5625,-0.21094 1.9062,-0.625 0.35156,-0.41797 0.53125,-1.2461 0.53125,-2.4844 z m 0,-5.9688 H 7.25 v 4 H 2.3594 Z"
         id="path135865" />
    </symbol>
  </defs>
  <g
     inkscape:label="Layer 1"
     inkscape:groupmode="layer"
     id="layer1">
    <g
       aria-label="pikt"
       id="text10667"
       style="font-weight:bold;font-size:61.8398px;line-height:1.25;font-family:Caladea;-inkscape-font-specification:'Caladea Bold';letter-spacing:2.64583px;fill:#171a1c;fill-opacity:1;stroke-width:1.546"
       transform="matrix(0.81736944,0,0,0.87552871,0.82835618,106.59165)">
      <path
         id="path68071"
         d="m 128.26172,-79.457031 c -2.61039,0.08132 -5.29606,0.920113 -7.11747,2.841138 -0.46621,0.491702 -0.35713,-0.753689 -0.40115,-1.07408 -0.0827,-0.601977 -0.28499,-0.944664 -0.78021,-1.175261 -0.76247,-0.355038 -1.47076,-0.414005 -2.36501,-0.414005 -2.16332,0 -7.29289,0.296143 -10.32054,2.081973 -1.22892,0.724869 -1.13253,3.087856 -0.33007,4.267578 0.68145,1.001824 3.37938,-0.313482 3.5625,1.044922 0.27824,2.063978 0.32719,3.757367 0.34961,5.633985 0.10647,8.90978 0.82974,17.859549 0,26.73125 -0.10654,1.139194 -2.72101,0.194825 -3.65359,1.193359 -1.01625,1.088108 -1.19553,4.445313 0.0813,4.445313 h 18.63672 c 1.44832,0 1.37413,-3.212632 0.44336,-4.322266 -1.04664,-1.247772 -4.286,0.203257 -4.66992,-1.431641 0,0 -0.63259,-4.967143 0,-7.328016 0.43191,-1.611927 8.66621,0.782127 12.45507,-1.173937 3.95736,-2.043057 6.31936,-6.31479 7.00477,-10.63146 0.6192,-3.89971 0.52393,-7.942308 -0.45099,-11.766776 -0.86303,-3.385545 -3.1128,-6.560925 -6.44143,-7.904808 -1.90021,-0.76718 -3.96169,-1.080855 -6.00297,-1.017268 z m -2.05469,5.814453 c 1.77559,-0.121388 2.91191,1.574 3.3328,3.10028 0.96752,3.508509 0.92957,7.111553 0.59695,10.705239 -0.19127,2.06659 -0.65405,3.333243 -1.83429,5.163724 -1.22433,1.898864 -4.05144,2.296642 -5.51986,0.886734 -1.6628,-1.59654 -1.08347,-11.32857 -0.97376,-13.148944 0.14358,-2.244301 0.68387,-4.821767 2.65753,-6.190477 0.50451,-0.34987 1.13127,-0.474897 1.74063,-0.516556 z"
         sodipodi:nodetypes="ssssssssssssssssssssssssssscss"
         style="fill:#0b0e0f;fill-opacity:1" />
      <path
         id="path68073"
         d="m 154.56275,-91.699219 c -2.19144,0.04251 -4.54016,1.304176 -5.08789,3.576172 -0.5395,2.237865 -0.13768,5.055567 1.99024,6.294922 2.03042,1.18257 4.61256,1.14795 6.76959,0.38039 1.83442,-0.652759 2.87742,-2.611414 2.95107,-4.533174 0.0817,-2.130944 -0.88202,-4.473549 -3.00191,-5.231982 -1.16164,-0.415598 -2.39857,-0.510041 -3.6211,-0.486328 z m 3.67579,12.236328 c -4.03471,0.854689 -8.54572,0.269368 -12.14649,2.273438 -1.24442,0.692604 -1.13198,3.082804 -0.33008,4.259765 0.68222,1.001302 3.29474,-0.299359 3.5625,1.044922 0.36046,1.809696 0.34961,3.756087 0.34961,5.632422 v 13.687891 c 0,1.143992 -2.37763,0.430368 -3.13672,1.189453 -1.05278,1.052785 -1.53182,4.445312 -0.043,4.445312 h 17.62499 c 1.44106,0 1.28911,-3.136844 0.43946,-4.300781 -0.84173,-1.153089 -4.04688,0.04892 -4.04688,-1.398437 v -25.869141 c 0,-0.810252 -1.45733,-1.137722 -2.27343,-0.964844 z"
         sodipodi:nodetypes="ssssssssssssssssssss"
         style="fill:#0b0e0f;fill-opacity:1" />
      <path
         id="path68075"
         d="m 181.11719,-92.142578 c -4.74442,0.4983 -8.18107,0.616194 -12.15039,2.267578 -1.31732,0.548053 -1.13116,3.086921 -0.33008,4.267578 0.67899,1.000712 3.23207,-0.285454 3.55859,1.044922 0.43172,1.759034 0.35352,3.799571 0.35352,5.696484 v 26.309375 c -0.8916,0.720218 -2.4942,0.265653 -3.13672,1.175782 -0.85979,1.217898 -1.92636,4.451171 -0.43555,4.451171 h 18.10352 c 1.43911,0 1.17415,-3.139106 0.33008,-4.304687 -0.81942,-1.131549 -3.96289,0.04995 -3.96289,-1.375 V -57.75 c 0,-0.986999 1.37264,-2.767682 2.09375,-2.09375 2.77325,2.591821 4.13592,6.373513 6.0332,9.660156 0.45991,1.019704 -0.53668,3.253906 0.56836,3.253906 h 13.52734 c 1.48656,0 1.75527,-3.303156 0.74805,-4.396484 -1.38486,-1.503258 -4.34247,-0.997831 -5.37261,-2.964856 -2.73843,-4.279292 -5.47686,-8.558585 -8.21528,-12.837878 2.14518,-2.057455 4.16478,-4.257078 6.39766,-6.215627 1.29954,-0.880484 3.26391,-0.173548 4.44414,-1.159373 1.16798,-0.975591 2.43784,-4.472656 0.91601,-4.472656 h -16.56836 c -1.52081,0 -2.03787,3.131384 -1.10149,4.329757 0.6329,0.809999 2.57756,0.09745 3.46282,0.652664 0.37639,0.236061 -0.54252,1.017567 -0.88672,1.41211 -2.00497,1.957418 -4.03316,3.891296 -6.04687,5.839843 v -24.361328 c 0,-0.836255 -1.47702,-1.128658 -2.33008,-1.039062 z"
         sodipodi:nodetypes="ssssscssssssscssscccsssssccss"
         style="fill:#0b0e0f;fill-opacity:1" />
      <path
         id="path68077"
         d="m 207.20703,-77.232422 c -0.9839,0.263635 -0.67849,1.34681 -0.68185,2.760156 0,0 -0.13999,1.531283 0.33224,2.003516 1.03488,1.034881 4.33258,-0.0047 4.33258,1.498114 0,3.787124 0.14015,5.906958 -0.21759,17.267511 -0.0832,2.641417 2.17549,5.128259 4.65428,6.170786 3.0759,1.293658 6.58244,0.827577 9.67176,-0.0948 2.1993,-0.656643 5.07238,-1.528155 5.79526,-3.718562 0.46881,-1.420564 -0.74641,-3.679752 -2.22656,-3.896485 -2.72548,-0.399083 -4.43394,1.92807 -6.15708,0.783033 -0.58394,-0.38803 -0.56363,-0.988697 -0.56363,-2.026392 0,0 8.8e-4,-13.615937 0,-14.444071 -8.8e-4,-0.828134 5.3215,-0.02662 7.82348,-1.125141 1.29354,-0.567945 1.14287,-4.519922 0.43528,-6.021238 -0.70759,-1.501316 -4.53004,-1.057699 -7.45293,-1.057699 -1.20517,0 0.10133,-4.109584 -1.33114,-5.187531 -1.43247,-1.077948 -5.33182,-1.399602 -6.56063,0.355335 -2.79723,3.994883 -0.92626,4.877329 -7.85347,6.733468 z"
         sodipodi:nodetypes="ssssssassaszszszss"
         style="fill:#0b0e0f;fill-opacity:1" />
    </g>
    <text
       xml:space="preserve"
       transform="scale(0.26458333)"
       id="text61067"
       style="font-style:normal;font-weight:normal;font-size:40px;line-height:1.25;font-family:sans-serif;white-space:pre;shape-inside:url(#rect61069);fill:#000000;fill-opacity:1;stroke:none" />
    <text
       xml:space="preserve"
       style="font-style:normal;font-variant:normal;font-weight:bold;font-stretch:normal;font-size:65.6167px;line-height:1.25;font-family:Caladea;-inkscape-font-specification:'Caladea Bold';stroke-width:1.53944"
       x="248.13985"
       y="66.437347"
       id="text99089"><tspan
         sodipodi:role="line"
         id="tspan99087"
         style="font-style:normal;font-variant:normal;font-weight:bold;font-stretch:normal;font-size:65.6167px;font-family:Caladea;-inkscape-font-specification:'Caladea Bold';stroke-width:1.53944"
         x="248.13985"
         y="66.437347" /></text>
    <path
       id="path133255"
       style="fill:#64d22d;fill-opacity:1;stroke-width:0.0673378"
       d="m 47.878378,30.062391 c -1.695483,-0.41286 -3.510503,-0.329712 -5.154964,0.258436 -1.709113,0.596471 -3.217067,1.747799 -4.243494,3.238778 -1.09677,1.57577 -1.657176,3.539172 -1.457129,5.456525 0.166421,1.662943 0.890384,3.274931 2.068763,4.466492 1.272014,1.306306 3.048356,2.141201 4.880927,2.176436 1.832401,0.04246 3.682684,-0.756089 4.859843,-2.170328 0.993788,-1.180578 1.539669,-2.765883 1.348959,-4.309646 -0.155466,-1.31481 -0.857114,-2.564595 -1.923866,-3.354005 -0.814936,-0.588767 -1.861584,-0.79093 -2.849569,-0.673007 -0.514196,0.06267 -1.025478,0.185095 -1.500934,0.392769 -0.701214,0.330572 -1.1899,1.057629 -1.23573,1.830927 -0.05824,0.778721 0.3368,1.570708 0.997379,1.988445 0.573081,0.377247 1.323913,0.456008 1.965209,0.214684 0.06236,-0.01266 0.166663,-0.08746 0.16909,0.02225 0.08697,0.361267 -0.08417,0.730224 -0.29645,1.015228 -0.39032,0.512258 -1.085447,0.717884 -1.707365,0.626259 -1.008654,-0.149143 -1.881297,-0.910657 -2.220503,-1.864768 -0.319198,-0.846981 -0.246082,-1.810575 0.123729,-2.629131 0.477037,-1.093539 1.440025,-1.957958 2.576253,-2.320144 1.13933,-0.382051 2.413752,-0.274091 3.500788,0.223081 1.434405,0.639551 2.572922,1.90875 3.04287,3.408581 0.428547,1.318365 0.359375,2.777865 -0.140087,4.06661 -0.486068,1.278186 -1.398284,2.34804 -2.428906,3.225952 -0.72464,0.619176 -1.530721,1.134065 -2.360989,1.598856 -1.306861,0.754515 -2.613723,1.509031 -3.920596,2.263549 -1.546667,-0.890091 -3.088966,-1.787912 -4.638392,-2.673143 -1.912625,-1.057876 -4.026675,-1.812163 -6.218138,-1.967072 -2.489715,-0.184116 -5.048641,0.500806 -7.073738,1.97111 -1.645927,1.185885 -2.936553,2.868939 -3.612903,4.784832 -0.850314,2.360702 -0.785539,5.053479 0.253481,7.344942 0.929726,2.075088 2.676204,3.779996 4.79625,4.614193 2.134027,0.851424 4.622044,0.821562 6.707384,-0.161254 1.850635,-0.861414 3.342836,-2.493053 3.972313,-4.441565 0.569386,-1.729093 0.491056,-3.683939 -0.312271,-5.32742 -0.765894,-1.598836 -2.238093,-2.855227 -3.95697,-3.309595 -1.572597,-0.420219 -3.336913,-0.19365 -4.696085,0.723779 -1.151759,0.768012 -1.961283,2.037633 -2.146728,3.411656 -0.125409,0.987074 0.194525,1.992718 0.766417,2.794611 0.321364,0.448019 0.704293,0.856424 1.146371,1.18701 0.657887,0.463849 1.574908,0.515987 2.280947,0.129573 0.710784,-0.369785 1.177627,-1.155694 1.160034,-1.957015 -0.0025,-0.622036 -0.28707,-1.235524 -0.760317,-1.639182 -0.02721,-0.04206 -0.147614,-0.09965 -0.137363,-0.156575 0.225234,-0.260373 0.600439,-0.314774 0.926823,-0.301141 0.620418,0.02108 1.164432,0.452609 1.442223,0.989591 0.380725,0.738495 0.339239,1.647922 -0.0018,2.392946 -0.425529,0.917661 -1.319944,1.572933 -2.300143,1.784552 -1.264875,0.286811 -2.651042,-0.05755 -3.637205,-0.899468 -0.930566,-0.768283 -1.513947,-1.914738 -1.656303,-3.107083 -0.206273,-1.58531 0.308841,-3.248152 1.381869,-4.434389 0.945018,-1.068994 2.286593,-1.759639 3.69474,-1.961488 1.311773,-0.197293 2.651443,0.04936 3.89145,0.48488 0.76591,0.270468 1.502174,0.621073 2.205335,1.026858 0.111586,0.06395 0.257016,0.148181 0.381602,0.219921 1.315929,0.759239 2.63187,1.518478 3.9478,2.277732 0.0017,1.78033 -0.0047,3.560761 0.002,5.341031 0.04095,2.185296 0.441662,4.393401 1.400498,6.370199 1.087784,2.265381 2.97865,4.148225 5.282675,5.165276 1.799659,0.801992 3.835008,1.07878 5.779786,0.746656 2.323158,-0.386103 4.507026,-1.612104 6.004466,-3.435762 1.119226,-1.35345 1.829948,-3.039021 2.010952,-4.786408 0.22335,-2.091101 -0.354474,-4.254067 -1.588541,-5.956669 -1.005208,-1.401036 -2.465578,-2.482596 -4.122849,-2.976384 -1.30205,-0.394763 -2.713443,-0.435572 -4.029424,-0.08137 -1.697719,0.444844 -3.245229,1.509398 -4.189468,2.998618 -0.97154,1.509229 -1.264127,3.45229 -0.717671,5.168517 0.47028,1.495501 1.537489,2.823645 2.96702,3.495786 1.220878,0.580537 2.684114,0.642123 3.940201,0.135093 0.921942,-0.379415 1.63985,-1.156211 2.053023,-2.052623 0.233713,-0.507163 0.397963,-1.049752 0.466543,-1.604416 0.07044,-0.77782 -0.314263,-1.573963 -0.96688,-2.002712 -0.674877,-0.458864 -1.608727,-0.49298 -2.313156,-0.07925 -0.577139,0.324262 -0.982083,0.922879 -1.08274,1.575755 -0.0054,0.08465 -0.0362,0.148882 -0.125972,0.09864 -0.360152,-0.1261 -0.591086,-0.472716 -0.723757,-0.81424 -0.220326,-0.592814 -0.03875,-1.277916 0.349897,-1.758796 0.646718,-0.79371 1.751321,-1.159089 2.749359,-0.959693 0.947436,0.169127 1.779452,0.783911 2.294648,1.586771 0.635319,0.960449 0.849141,2.18392 0.58193,3.303714 -0.259413,1.160079 -0.994708,2.186884 -1.964719,2.863625 -1.28328,0.915141 -2.962662,1.251178 -4.497538,0.886892 -1.368368,-0.305108 -2.600406,-1.123519 -3.458628,-2.226226 -0.825242,-1.052811 -1.275624,-2.350152 -1.5131,-3.654006 -0.112572,-0.626515 -0.173988,-1.261754 -0.19402,-1.897841 -9.76e-4,-0.03752 -0.0039,-0.155498 -0.0054,-0.224153 -0.0036,-1.74148 4.68e-4,-3.482976 -1.33e-4,-5.224481 1.540735,-0.892324 3.085783,-1.777277 4.62379,-2.674232 1.872382,-1.126997 3.583778,-2.578436 4.81614,-4.39685 1.413337,-2.069428 2.100772,-4.639341 1.834901,-7.137041 -0.207911,-2.023115 -1.026934,-3.985681 -2.355466,-5.52963 -1.344858,-1.580186 -3.189437,-2.731258 -5.208458,-3.218549 z" />
    <g
       id="g133845"
       transform="matrix(0.36689537,0,0,0.36689537,79.069824,-15.905912)"
       style="fill:#64d22d;fill-opacity:1">
      <path
         id="path133841"
         style="fill:#95db71;fill-opacity:1;stroke-width:0.611026"
         d="m -178.64726,60.327502 c -3.06072,-0.0348 -5.81884,2.59207 -5.9577,5.64482 -0.0441,5.69628 -0.006,11.39449 -0.0189,17.09151 -1.95536,1.19996 -2.96346,3.55953 -2.77149,5.80938 0.004,61.441328 -0.009,122.882958 0.007,184.324108 0.0549,1.94315 1.11587,3.82568 2.7649,4.86066 0.0197,5.74454 -0.0393,11.49106 0.0293,17.23437 0.24822,3.07861 3.14136,5.62674 6.22878,5.4618 3.0982,-0.0119 5.85666,-2.73721 5.90143,-5.83564 0.0243,-5.29478 0.003,-10.59071 0.0104,-15.88593 3.96094,0 7.92188,0 11.88282,0 0.0209,5.42225 -0.0419,10.84673 0.0312,16.26758 0.26621,3.14088 3.28328,5.71635 6.43047,5.44382 3.14256,-0.12453 5.82596,-3.02484 5.7082,-6.16882 0,-5.18086 0,-10.36172 0,-15.54258 3.95052,0 7.90104,0 11.85156,0 0.0197,5.41968 -0.0393,10.84133 0.0293,16.25977 0.23916,2.9564 2.90394,5.46312 5.87997,5.46333 3.17427,0.15222 6.14539,-2.55245 6.24525,-5.7373 0.036,-5.32782 0.005,-10.65733 0.0154,-15.9858 3.95052,0 7.90104,0 11.85156,0 0.0197,5.42098 -0.0392,10.84393 0.0293,16.26368 0.26493,3.11988 3.24066,5.672 6.36382,5.4529 3.05839,-0.0581 5.72701,-2.77971 5.7664,-5.83065 0.0243,-5.29478 0.003,-10.59071 0.0104,-15.88593 3.835938,0 7.671875,0 11.507813,0 0.01966,5.42098 -0.03925,10.84393 0.0293,16.26368 0.2651,3.1198 3.240037,5.673 6.3638,5.45264 3.173174,-0.0777 5.891447,-3.00932 5.776837,-6.17374 6.47e-4,-5.18086 0.0013,-10.36172 0.0019,-15.54258 3.972656,0 7.945312,0 11.917968,0 0.01967,5.41968 -0.03925,10.84133 0.0293,16.25977 0.239194,2.95579 2.902424,5.46252 5.878009,5.46342 3.17429,0.15228 6.14759,-2.55177 6.24721,-5.73739 0.036,-5.32782 0.005,-10.65733 0.0154,-15.9858 3.95053,0 7.90105,0 11.85157,0 0.0197,5.42098 -0.0393,10.84393 0.0293,16.26368 0.26509,3.11921 3.23872,5.67178 6.36186,5.4529 3.09674,-0.0563 5.78022,-2.84316 5.77335,-5.93053 0.0127,-5.60093 0.002,-11.20246 0.005,-16.80362 1.89642,-1.27356 2.86834,-3.61893 2.66797,-5.86641 -0.004,-61.37792 0.008,-122.75622 -0.006,-184.133908 -0.0299,-1.97902 -1.12975,-3.88904 -2.79889,-4.94304 -0.0196,-5.75952 0.0392,-11.52102 -0.0293,-17.2793 -0.23972,-2.98127 -2.94762,-5.49659 -5.94726,-5.46485 -3.02393,-0.10308 -5.83598,2.3724 -6.11914,5.38477 -0.0958,4.26247 -0.0136,8.53207 -0.041,12.79727 0,1.18086 0,2.36171 0,3.54257 -3.95052,0 -7.90104,0 -11.85156,0 -0.0197,-5.42097 0.0393,-10.84392 -0.0293,-16.26367 -0.26546,-3.11845 -3.23885,-5.67165 -6.36186,-5.45095 -3.057511,0.052 -5.699175,2.78813 -5.735149,5.8287 -0.02435,5.29478 -0.0034,10.59071 -0.01041,15.88592 -3.972005,0 -7.94401,0 -11.916016,0 -0.02096,-5.42094 0.04185,-10.84413 -0.03125,-16.26367 -0.251763,-3.09727 -3.183745,-5.6717 -6.295453,-5.45095 -3.140316,0.0589 -5.885729,2.88817 -5.845172,6.03103 0,5.22787 0,10.45573 0,15.68359 -3.824218,0 -7.648437,0 -11.472657,0 -0.0197,-5.41967 0.0392,-10.84132 -0.0293,-16.25976 -0.2401,-2.98217 -2.94912,-5.49588 -5.94922,-5.46485 -3.1506,-0.11068 -6.07546,2.57851 -6.176,5.73882 -0.036,5.32782 -0.005,10.65733 -0.0154,15.98579 -3.93945,0 -7.87891,0 -11.81836,0 -0.0197,-5.42097 0.0392,-10.84392 -0.0293,-16.26367 -0.2654,-3.11967 -3.24188,-5.67308 -6.36576,-5.45091 -3.09481,0.0563 -5.77727,2.84293 -5.76945,5.92854 -0.0126,5.26174 -0.002,10.52408 -0.005,15.78604 -3.97266,0 -7.94531,0 -11.91797,0 -0.0197,-5.42097 0.0392,-10.84392 -0.0293,-16.26367 -0.26551,-3.1043 -3.21391,-5.66931 -6.3306,-5.45082 -3.14311,0.0654 -5.84578,2.9387 -5.77682,6.07192 0,5.21419 0,10.42838 0,15.64257 -3.96094,0 -7.92187,0 -11.88281,0 -0.021,-5.42094 0.0418,-10.84413 -0.0312,-16.26367 -0.27109,-3.06425 -3.0501,-5.54886 -6.12891,-5.46094 z m 140.605467,33.89258 c 0,3.76693 0,7.533858 0,11.300778 -45.739581,0.001 -91.479167,0.003 -137.218747,0.004 0,-3.76823 0,-7.536458 0,-11.304688 45.73958,0 91.479166,0 137.218747,0 z m 0.006,23.474608 c -0.002,41.90821 -0.004,83.81641 -0.006,125.72461 -45.739581,0 -91.479167,0 -137.218747,0 0,-41.9082 0,-83.8164 0,-125.72461 45.74154,0 91.483072,0 137.224607,0 z m 0,137.89649 c 0,3.76758 0,7.53515 0,11.30273 -45.741535,6.5e-4 -91.483067,10e-4 -137.224607,0.002 0,-3.76823 0,-7.53646 0,-11.30468 45.74154,0 91.483072,0 137.224607,0 z" />
    </g>
  </g>
</svg>
