<?xml version="1.0" encoding="UTF-8" standalone="no"?>
<!-- Created with Inkscape (http://www.inkscape.org/) -->

<svg
   width="8.4666748mm"
   height="8.4666748mm"
   viewBox="0 0 8.4666748 8.466675"
   version="1.1"
   id="svg5"
   xml:space="preserve"
   xmlns:xlink="http://www.w3.org/1999/xlink"
   xmlns="http://www.w3.org/2000/svg"
   xmlns:svg="http://www.w3.org/2000/svg"><defs
     id="defs2"><linearGradient
       id="linearGradient45366"><stop
         style="stop-color:#aaaaaa;stop-opacity:1;"
         offset="0"
         id="stop45364" /></linearGradient><linearGradient
       id="id"><stop
         style="stop-color:#0ac247;stop-opacity:1;"
         offset="0"
         id="stop23041" /><stop
         style="stop-color:#75f075;stop-opacity:1;"
         offset="1"
         id="stop23043" /></linearGradient><style
       id="style22571">.cls-1{fill:#84d0f7;}.cls-2{fill:#aa392d;}.cls-3{fill:#7c211a;}.cls-4{fill:#e59973;}.cls-5{fill:#2d2d2d;}.cls-6{opacity:0.2;}.cls-7{opacity:0.3;}</style><style
       id="style23309">
      .cls-1 {
        fill: none;
      }
    </style><linearGradient
       xlink:href="#id"
       id="linearGradient7102"
       gradientUnits="userSpaceOnUse"
       gradientTransform="matrix(0,3.6501243,-3.6501243,0,-570.23775,3667.4976)"
       x1="-161.08073"
       y1="-123.59392"
       x2="-56.793404"
       y2="-123.59392" /></defs><g
     id="layer1"
     transform="translate(-1563.4198,-511.23837)"><g
       id="g7100"
       transform="matrix(0,-0.02224057,0.02224057,0,1494.933,512.81441)"><path
         id="path7096"
         style="fill:url(#linearGradient7102);fill-opacity:1;stroke-width:10.8984"
         d="m -57.413051,3096.6045 c 30.1763,18.1218 51.9007997,49.2286 57.04999967,86.2588 8.23900003,59.2495 -28.48119967,115.5137 -86.04479967,131.8319 l 8e-4,72.4761 c -4e-4,0.1643 0,0.3175 0,0.4796 l -4e-4,39.3337 c -1.86e-4,18.2926 -14.724999,33.0187 -33.016799,33.0187 -18.2926,0 -33.0202,-14.7257 -33.0202,-33.018 l -7e-4,-13.9255 h -29.1787 c -18.1104,0 -32.6897,-14.5793 -32.6897,-32.6898 0,-18.1104 14.5801,-32.6916 32.6905,-32.6916 h 29.179 l -7e-4,-32.3825 c 0,-0.2628 0,-0.5255 0.037,-0.7888 -57.1945,-16.5529 -93.6135,-72.6155 -85.4052,-131.6446 8.2384,-59.2484 58.9109,-103.3295 118.7392,-103.3295 22.435899,0 43.583999,6.1983 61.689699,17.0712 z" /><path
         d="m -164.12485,3240.728 12.1398,-20.8623 -24.1375,0.084 a 19.041417,19.041417 0 1 1 0.021,-38.0488 l 24.1375,-0.084 -12.0914,-20.9429 a 19.041433,19.041433 0 0 1 32.9806,-19.0413 l 12.0916,20.9425 12.143,-20.8605 a 19.041417,19.041417 0 0 1 32.969299,18.9933 l -12.14,20.8627 24.1371,-0.084 a 19.041417,19.041417 0 0 1 -0.02,38.0489 l -24.1375,0.084 12.0912,20.9427 a 19.041576,19.041576 0 1 1 -32.980899,19.0417 l -12.0909,-20.943 -12.1432,20.8609 a 19.041417,19.041417 0 0 1 -32.9692,-18.9933 z"
         id="path7098"
         style="fill:#ffffff;fill-opacity:1;stroke-width:19.0413" /></g></g><style
     type="text/css"
     id="style22485">
	.st0{fill:none;stroke:#6C3DB7;stroke-width:4;stroke-linecap:round;stroke-linejoin:round;stroke-miterlimit:10;}
	.st1{fill:none;stroke:#1F992A;stroke-width:4;stroke-linecap:round;stroke-linejoin:round;stroke-miterlimit:10;}
	.st2{fill:none;stroke:#6A83BA;stroke-width:4;stroke-linecap:round;stroke-linejoin:round;stroke-miterlimit:10;}
	.st3{fill:#8A8AFF;stroke:#8A8AFF;stroke-width:2;stroke-linecap:round;stroke-linejoin:round;stroke-miterlimit:10;}
	.st4{fill:#6C3DB7;stroke:#6C3DB7;stroke-width:2;stroke-linecap:round;stroke-linejoin:round;stroke-miterlimit:10;}
	.st5{fill:#A576FF;stroke:#A576FF;stroke-width:2;stroke-linecap:round;stroke-linejoin:round;stroke-miterlimit:10;}
	.st6{fill:#F2BB41;stroke:#F2BB41;stroke-width:2;stroke-linecap:round;stroke-linejoin:round;stroke-miterlimit:10;}
	.st7{fill:#E08838;stroke:#E08838;stroke-width:2;stroke-linecap:round;stroke-linejoin:round;stroke-miterlimit:10;}
	.st8{fill:#1F992A;stroke:#1F992A;stroke-width:2;stroke-linecap:round;stroke-linejoin:round;stroke-miterlimit:10;}
	.st9{fill:#5EC11E;stroke:#5EC11E;stroke-width:2;stroke-linecap:round;stroke-linejoin:round;stroke-miterlimit:10;}
	.st10{fill:#E3FAFF;stroke:#E3FAFF;stroke-width:2;stroke-linecap:round;stroke-linejoin:round;stroke-miterlimit:10;}
	.st11{fill:#FF5093;stroke:#FF5093;stroke-width:2;stroke-linecap:round;stroke-linejoin:round;stroke-miterlimit:10;}
	.st12{fill:#B7257F;stroke:#B7257F;stroke-width:2;stroke-linecap:round;stroke-linejoin:round;stroke-miterlimit:10;}
	.st13{fill:#5189E5;stroke:#5189E5;stroke-width:2;stroke-linecap:round;stroke-linejoin:round;stroke-miterlimit:10;}
	.st14{fill:#6EBAFF;stroke:#6EBAFF;stroke-width:2;stroke-linecap:round;stroke-linejoin:round;stroke-miterlimit:10;}
	.st15{fill:#EDD977;stroke:#EDD977;stroke-width:2;stroke-linecap:round;stroke-linejoin:round;stroke-miterlimit:10;}
	.st16{fill:#8C43FF;stroke:#8C43FF;stroke-width:2;stroke-linecap:round;stroke-linejoin:round;stroke-miterlimit:10;}
	.st17{fill:#5252BA;stroke:#5252BA;stroke-width:2;stroke-linecap:round;stroke-linejoin:round;stroke-miterlimit:10;}
	.st18{fill:none;stroke:#E3FAFF;stroke-width:4;stroke-linecap:round;stroke-linejoin:round;stroke-miterlimit:10;}
	.st19{fill:#354C75;stroke:#354C75;stroke-width:2;stroke-linecap:round;stroke-linejoin:round;stroke-miterlimit:10;}
</style><style
     type="text/css"
     id="style23106">
	.st0{fill:none;stroke:#000000;stroke-width:2;stroke-linecap:round;stroke-linejoin:round;stroke-miterlimit:10;}
	.st1{fill:none;stroke:#000000;stroke-width:2;stroke-linejoin:round;stroke-miterlimit:10;}
</style></svg>
