<?xml version="1.0" encoding="UTF-8" standalone="no"?>
<!-- Created with Inkscape (http://www.inkscape.org/) -->

<svg
   width="8.4667015mm"
   height="8.4666719mm"
   viewBox="0 0 8.4667015 8.4666721"
   version="1.1"
   id="svg5"
   xml:space="preserve"
   xmlns:xlink="http://www.w3.org/1999/xlink"
   xmlns="http://www.w3.org/2000/svg"
   xmlns:svg="http://www.w3.org/2000/svg"><defs
     id="defs2"><linearGradient
       id="linearGradient45366"><stop
         style="stop-color:#aaaaaa;stop-opacity:1;"
         offset="0"
         id="stop45364" /></linearGradient><linearGradient
       id="id"><stop
         style="stop-color:#0ac247;stop-opacity:1;"
         offset="0"
         id="stop23041" /><stop
         style="stop-color:#75f075;stop-opacity:1;"
         offset="1"
         id="stop23043" /></linearGradient><style
       id="style22571">.cls-1{fill:#84d0f7;}.cls-2{fill:#aa392d;}.cls-3{fill:#7c211a;}.cls-4{fill:#e59973;}.cls-5{fill:#2d2d2d;}.cls-6{opacity:0.2;}.cls-7{opacity:0.3;}</style><style
       id="style23309">
      .cls-1 {
        fill: none;
      }
    </style><linearGradient
       xlink:href="#id"
       id="linearGradient37464"
       gradientUnits="userSpaceOnUse"
       gradientTransform="matrix(0.12810891,0,0,0.12811192,1534.7164,550.62587)"
       x1="223.16394"
       y1="-199.27264"
       x2="288.60455"
       y2="-199.27264" /></defs><g
     id="layer1"
     transform="translate(-1563.3056,-520.86335)"><path
       id="path37456"
       style="fill:url(#linearGradient37464);fill-opacity:1;stroke:#1cb835;stroke-width:0;stroke-linecap:round;stroke-linejoin:round;paint-order:stroke fill markers"
       d="m 1565.3364,520.86335 h 4.405 c 1.125,0 2.0309,0.90578 2.0309,2.03084 v 4.40499 c 0,1.1251 -0.9059,2.03084 -2.0309,2.03084 h -4.405 c -1.1251,0 -2.0308,-0.90574 -2.0308,-2.03084 v -4.40499 c 0,-1.12506 0.9057,-2.03084 2.0308,-2.03084 z" /><g
       aria-label="ID"
       id="g37462"
       style="font-weight:800;font-size:44.5779px;font-family:Rubik;-inkscape-font-specification:'Rubik Ultra-Bold';fill:#ffffff;stroke:#1cb835;stroke-width:0;stroke-linecap:round;stroke-linejoin:round;paint-order:stroke fill markers"
       transform="matrix(0.12793844,0,0,0.12793844,1534.8056,550.58559)"><path
         d="m 237.14952,-184.19307 q -0.44577,0 -0.8024,-0.31204 -0.35662,-0.35663 -0.35662,-0.84698 v -28.88648 q 0,-0.49036 0.35662,-0.80241 0.35663,-0.35662 0.8024,-0.35662 h 7.57825 q 0.49035,0 0.8024,0.35662 0.35662,0.31205 0.35662,0.80241 v 28.88648 q 0,0.49035 -0.35662,0.84698 -0.31205,0.31204 -0.8024,0.31204 z"
         id="path37458" /><path
         d="m 252.57342,-184.19307 q -0.44578,0 -0.8024,-0.31204 -0.35662,-0.35663 -0.35662,-0.84698 v -28.88648 q 0,-0.49036 0.35662,-0.80241 0.35662,-0.35662 0.8024,-0.35662 h 12.21435 q 4.32405,0 7.48908,1.42649 3.16504,1.38192 4.99273,4.10117 1.82769,2.71925 1.96143,6.68669 0.0891,1.91684 0.0891,3.38792 0,1.47107 -0.0891,3.34334 -0.17831,4.19032 -1.91685,6.90957 -1.69396,2.71925 -4.81442,4.05659 -3.12045,1.29276 -7.48908,1.29276 z m 8.42523,-7.57824 h 3.78912 q 1.47107,0 2.49636,-0.49036 1.02529,-0.49036 1.6048,-1.51565 0.57952,-1.06987 0.6241,-2.71925 0.0446,-1.29276 0.0446,-2.31805 0.0446,-1.02529 0,-2.05058 0,-1.0253 -0.0446,-2.27348 -0.0892,-2.45178 -1.4265,-3.56623 -1.29276,-1.11445 -3.52165,-1.11445 h -3.56623 z"
         id="path37460" /></g></g><style
     type="text/css"
     id="style22485">
	.st0{fill:none;stroke:#6C3DB7;stroke-width:4;stroke-linecap:round;stroke-linejoin:round;stroke-miterlimit:10;}
	.st1{fill:none;stroke:#1F992A;stroke-width:4;stroke-linecap:round;stroke-linejoin:round;stroke-miterlimit:10;}
	.st2{fill:none;stroke:#6A83BA;stroke-width:4;stroke-linecap:round;stroke-linejoin:round;stroke-miterlimit:10;}
	.st3{fill:#8A8AFF;stroke:#8A8AFF;stroke-width:2;stroke-linecap:round;stroke-linejoin:round;stroke-miterlimit:10;}
	.st4{fill:#6C3DB7;stroke:#6C3DB7;stroke-width:2;stroke-linecap:round;stroke-linejoin:round;stroke-miterlimit:10;}
	.st5{fill:#A576FF;stroke:#A576FF;stroke-width:2;stroke-linecap:round;stroke-linejoin:round;stroke-miterlimit:10;}
	.st6{fill:#F2BB41;stroke:#F2BB41;stroke-width:2;stroke-linecap:round;stroke-linejoin:round;stroke-miterlimit:10;}
	.st7{fill:#E08838;stroke:#E08838;stroke-width:2;stroke-linecap:round;stroke-linejoin:round;stroke-miterlimit:10;}
	.st8{fill:#1F992A;stroke:#1F992A;stroke-width:2;stroke-linecap:round;stroke-linejoin:round;stroke-miterlimit:10;}
	.st9{fill:#5EC11E;stroke:#5EC11E;stroke-width:2;stroke-linecap:round;stroke-linejoin:round;stroke-miterlimit:10;}
	.st10{fill:#E3FAFF;stroke:#E3FAFF;stroke-width:2;stroke-linecap:round;stroke-linejoin:round;stroke-miterlimit:10;}
	.st11{fill:#FF5093;stroke:#FF5093;stroke-width:2;stroke-linecap:round;stroke-linejoin:round;stroke-miterlimit:10;}
	.st12{fill:#B7257F;stroke:#B7257F;stroke-width:2;stroke-linecap:round;stroke-linejoin:round;stroke-miterlimit:10;}
	.st13{fill:#5189E5;stroke:#5189E5;stroke-width:2;stroke-linecap:round;stroke-linejoin:round;stroke-miterlimit:10;}
	.st14{fill:#6EBAFF;stroke:#6EBAFF;stroke-width:2;stroke-linecap:round;stroke-linejoin:round;stroke-miterlimit:10;}
	.st15{fill:#EDD977;stroke:#EDD977;stroke-width:2;stroke-linecap:round;stroke-linejoin:round;stroke-miterlimit:10;}
	.st16{fill:#8C43FF;stroke:#8C43FF;stroke-width:2;stroke-linecap:round;stroke-linejoin:round;stroke-miterlimit:10;}
	.st17{fill:#5252BA;stroke:#5252BA;stroke-width:2;stroke-linecap:round;stroke-linejoin:round;stroke-miterlimit:10;}
	.st18{fill:none;stroke:#E3FAFF;stroke-width:4;stroke-linecap:round;stroke-linejoin:round;stroke-miterlimit:10;}
	.st19{fill:#354C75;stroke:#354C75;stroke-width:2;stroke-linecap:round;stroke-linejoin:round;stroke-miterlimit:10;}
</style><style
     type="text/css"
     id="style23106">
	.st0{fill:none;stroke:#000000;stroke-width:2;stroke-linecap:round;stroke-linejoin:round;stroke-miterlimit:10;}
	.st1{fill:none;stroke:#000000;stroke-width:2;stroke-linejoin:round;stroke-miterlimit:10;}
</style></svg>
