<?xml version="1.0" encoding="UTF-8" standalone="no"?>
<!-- Created with Inkscape (http://www.inkscape.org/) -->

<svg
   width="499.96289"
   height="250.00002"
   viewBox="0 0 132.28185 66.145837"
   version="1.1"
   id="svg5"
   xml:space="preserve"
   xmlns:xlink="http://www.w3.org/1999/xlink"
   xmlns="http://www.w3.org/2000/svg"
   xmlns:svg="http://www.w3.org/2000/svg"><defs
     id="defs2"><linearGradient
       id="linearGradient997"><stop
         style="stop-color:#008040;stop-opacity:1;"
         offset="0.0001"
         id="stop993" /><stop
         style="stop-color:#3df54c;stop-opacity:1;"
         offset="0.99989998"
         id="stop995" /></linearGradient><linearGradient
       id="linearGradient22527"><stop
         style="stop-color:#a6d9f2;stop-opacity:1;"
         offset="0"
         id="stop22523" /><stop
         style="stop-color:#ffffff;stop-opacity:1;"
         offset="0.29517469"
         id="stop22525" /></linearGradient><style
       id="style6568">.cls-1{fill:none;}.cls-2{clip-path:url(#clip-path);}</style><style
       id="style6568-5">.cls-1{fill:none;}.cls-2{clip-path:url(#clip-path);}</style><style
       id="style6568-9">.cls-1{fill:none;}.cls-2{clip-path:url(#clip-path);}</style><style
       id="style22571">.cls-1{fill:#84d0f7;}.cls-2{fill:#aa392d;}.cls-3{fill:#7c211a;}.cls-4{fill:#e59973;}.cls-5{fill:#2d2d2d;}.cls-6{opacity:0.2;}.cls-7{opacity:0.3;}</style><style
       id="style23309">
      .cls-1 {
        fill: none;
      }
    </style><linearGradient
       xlink:href="#linearGradient52032"
       id="linearGradient22517"
       x1="317.94406"
       y1="562.14478"
       x2="371.94727"
       y2="562.14478"
       gradientUnits="userSpaceOnUse" /><linearGradient
       xlink:href="#linearGradient22527"
       id="linearGradient22521"
       gradientUnits="userSpaceOnUse"
       x1="342.17624"
       y1="581.11816"
       x2="342.17624"
       y2="543.6944" /><linearGradient
       xlink:href="#linearGradient997"
       id="linearGradient19380"
       gradientUnits="userSpaceOnUse"
       gradientTransform="matrix(0.64519054,0,0,0.64519057,88.661826,230.74431)"
       x1="211.29193"
       y1="762.6239"
       x2="301.67172"
       y2="672.24414" /><linearGradient
       id="linearGradient52032"><stop
         style="stop-color:#9fcadf;stop-opacity:1;"
         offset="0"
         id="stop52028" /><stop
         style="stop-color:#ffffff;stop-opacity:1;"
         offset="0.3992942"
         id="stop52030" /></linearGradient><style
       id="style6568-3">.cls-1{fill:none;}.cls-2{clip-path:url(#clip-path);}</style><style
       id="style6568-5-6">.cls-1{fill:none;}.cls-2{clip-path:url(#clip-path);}</style><style
       id="style6568-9-1">.cls-1{fill:none;}.cls-2{clip-path:url(#clip-path);}</style><style
       id="style22571-2">.cls-1{fill:#84d0f7;}.cls-2{fill:#aa392d;}.cls-3{fill:#7c211a;}.cls-4{fill:#e59973;}.cls-5{fill:#2d2d2d;}.cls-6{opacity:0.2;}.cls-7{opacity:0.3;}</style><style
       id="style23309-9">
      .cls-1 {
        fill: none;
      }
    </style></defs><g
     id="layer1"
     transform="translate(-220.1774,-659.65882)"><g
       aria-label="ID"
       transform="matrix(0.94760548,0,0,1.0552915,0,101.28098)"
       id="g22507"
       style="font-weight:900;font-size:53.7023px;font-family:Rubik;-inkscape-font-specification:'Rubik Heavy';letter-spacing:-0.719445px;fill:url(#linearGradient22517);fill-opacity:1;stroke-width:108.716"><path
         id="path22503"
         style="fill:url(#linearGradient22521);fill-opacity:1"
         d="m 319.39421,543.34883 c -0.39382,0 -0.73391,0.14353 -1.02033,0.42994 -0.28641,0.28642 -0.42972,0.62621 -0.42972,1.02003 v 34.69199 c 0,0.39381 0.14331,0.73361 0.42972,1.02002 0.28642,0.28642 0.62651,0.42995 1.02033,0.42995 h 10.95527 c 0.39382,0 0.73392,-0.14353 1.02033,-0.42995 0.28641,-0.28641 0.42972,-0.62621 0.42972,-1.02002 V 544.7988 c 0,-0.39382 -0.14331,-0.73361 -0.42972,-1.02003 -0.28641,-0.28641 -0.62651,-0.42994 -1.02033,-0.42994 z m 19.04262,0 c -0.39381,0 -0.73391,0.14353 -1.02032,0.42994 -0.28642,0.28642 -0.42918,0.62621 -0.42918,1.02003 v 34.69199 c 0,0.39381 0.14276,0.73361 0.42918,1.02002 0.28641,0.28642 0.62651,0.42995 1.02032,0.42995 h 15.73515 c 3.43695,0 6.44436,-0.51946 9.02206,-1.5577 2.61351,-1.07405 4.67173,-2.70271 6.1754,-4.8866 1.50365,-2.2197 2.32717,-5.01226 2.47037,-8.3776 0.0716,-1.46786 0.10743,-2.7748 0.10743,-3.92045 0,-1.18145 -0.0358,-2.54209 -0.10743,-4.08155 -0.1074,-3.22213 -0.96673,-5.92486 -2.57781,-8.10876 -1.57526,-2.18389 -3.6875,-3.83061 -6.33681,-4.94047 -2.64931,-1.14564 -5.65671,-1.7188 -9.02206,-1.7188 z m 11.9756,10.47199 h 3.2224 c 1.21725,0 2.25572,0.34029 3.11496,1.02051 0.89503,0.68023 1.3779,1.77187 1.44951,3.27553 0.0716,0.96664 0.10743,1.8796 0.10743,2.73883 0.0358,0.82343 0.0358,1.64704 0,2.47048 0,0.82343 -0.0358,1.75445 -0.10743,2.79269 -0.0358,1.00244 -0.25023,1.82557 -0.64404,2.46999 -0.39382,0.64443 -0.91305,1.12776 -1.55749,1.44997 -0.60862,0.28641 -1.307,0.42995 -2.09464,0.42995 h -3.4907 z" /></g><rect
       style="fill:url(#linearGradient19380);fill-opacity:1;stroke-width:4.14696"
       id="rect19368"
       width="66.145836"
       height="66.145836"
       x="220.1774"
       y="659.65881"
       rx="13.229167"
       ry="13.229167" /><g
       id="g19374"
       transform="matrix(0,-0.13402478,0.13402478,0,-138.78693,622.97383)"><path
         id="path19370"
         style="fill:#ffffff;fill-opacity:0.5;stroke-width:10.8984"
         d="m -447.02733,2759.6877 c 30.1763,18.1218 51.9008,49.2286 57.05,86.2588 8.239,59.2495 -28.4812,115.5137 -86.0448,131.8319 l 8e-4,72.4761 c -4e-4,0.1643 0,0.3175 0,0.4796 l -4e-4,39.3337 c -1.9e-4,18.2926 -14.725,33.0187 -33.0168,33.0187 -18.2926,0 -33.0202,-14.7257 -33.0202,-33.018 l -7e-4,-13.9255 h -29.1787 c -18.1104,0 -32.6897,-14.5793 -32.6897,-32.6898 0,-18.1104 14.5801,-32.6916 32.6905,-32.6916 h 29.179 l -7e-4,-32.3825 c 0,-0.2628 0,-0.5255 0.037,-0.7888 -57.1945,-16.5529 -93.6135,-72.6155 -85.4052,-131.6446 8.2384,-59.2484 58.9109,-103.3295 118.7392,-103.3295 22.4359,0 43.584,6.1983 61.6897,17.0712 z" /><path
         d="m -553.73913,2903.8112 12.1398,-20.8623 -24.1375,0.084 a 19.041417,19.041417 0 1 1 0.021,-38.0488 l 24.1375,-0.084 -12.0914,-20.9429 a 19.041433,19.041433 0 0 1 32.9806,-19.0413 l 12.0916,20.9425 12.143,-20.8605 a 19.041417,19.041417 0 0 1 32.9693,18.9933 l -12.14,20.8627 24.1371,-0.084 a 19.041417,19.041417 0 0 1 -0.02,38.0489 l -24.1375,0.084 12.0912,20.9427 a 19.041576,19.041576 0 1 1 -32.9809,19.0417 l -12.0909,-20.943 -12.1432,20.8609 a 19.041417,19.041417 0 0 1 -32.9692,-18.9933 z"
         id="path19372"
         style="fill:#ffffff;fill-opacity:1;stroke-width:19.0413" /></g><g
       id="g19378"
       transform="matrix(0,-0.13402478,0.13402478,0,-138.78693,622.97383)"><path
         d="m -553.73913,2903.8112 12.1398,-20.8623 -24.1375,0.084 a 19.041417,19.041417 0 1 1 0.021,-38.0488 l 24.1375,-0.084 -12.0914,-20.9429 a 19.041433,19.041433 0 0 1 32.9806,-19.0413 l 12.0916,20.9425 12.143,-20.8605 a 19.041417,19.041417 0 0 1 32.9693,18.9933 l -12.14,20.8627 24.1371,-0.084 a 19.041417,19.041417 0 0 1 -0.02,38.0489 l -24.1375,0.084 12.0912,20.9427 a 19.041576,19.041576 0 1 1 -32.9809,19.0417 l -12.0909,-20.943 -12.1432,20.8609 a 19.041417,19.041417 0 0 1 -32.9692,-18.9933 z"
         id="path19376"
         style="fill:#ffffff;fill-opacity:1;stroke-width:19.0413" /></g></g><style
     type="text/css"
     id="style1941">
	.st0{fill:none;stroke:#000000;stroke-width:2;stroke-linecap:round;stroke-linejoin:round;stroke-miterlimit:10;}
</style><style
     type="text/css"
     id="style1941-0">
	.st0{fill:none;stroke:#000000;stroke-width:2;stroke-linecap:round;stroke-linejoin:round;stroke-miterlimit:10;}
</style><style
     type="text/css"
     id="style1941-7">
	.st0{fill:none;stroke:#000000;stroke-width:2;stroke-linecap:round;stroke-linejoin:round;stroke-miterlimit:10;}
</style><style
     type="text/css"
     id="style22485">
	.st0{fill:none;stroke:#6C3DB7;stroke-width:4;stroke-linecap:round;stroke-linejoin:round;stroke-miterlimit:10;}
	.st1{fill:none;stroke:#1F992A;stroke-width:4;stroke-linecap:round;stroke-linejoin:round;stroke-miterlimit:10;}
	.st2{fill:none;stroke:#6A83BA;stroke-width:4;stroke-linecap:round;stroke-linejoin:round;stroke-miterlimit:10;}
	.st3{fill:#8A8AFF;stroke:#8A8AFF;stroke-width:2;stroke-linecap:round;stroke-linejoin:round;stroke-miterlimit:10;}
	.st4{fill:#6C3DB7;stroke:#6C3DB7;stroke-width:2;stroke-linecap:round;stroke-linejoin:round;stroke-miterlimit:10;}
	.st5{fill:#A576FF;stroke:#A576FF;stroke-width:2;stroke-linecap:round;stroke-linejoin:round;stroke-miterlimit:10;}
	.st6{fill:#F2BB41;stroke:#F2BB41;stroke-width:2;stroke-linecap:round;stroke-linejoin:round;stroke-miterlimit:10;}
	.st7{fill:#E08838;stroke:#E08838;stroke-width:2;stroke-linecap:round;stroke-linejoin:round;stroke-miterlimit:10;}
	.st8{fill:#1F992A;stroke:#1F992A;stroke-width:2;stroke-linecap:round;stroke-linejoin:round;stroke-miterlimit:10;}
	.st9{fill:#5EC11E;stroke:#5EC11E;stroke-width:2;stroke-linecap:round;stroke-linejoin:round;stroke-miterlimit:10;}
	.st10{fill:#E3FAFF;stroke:#E3FAFF;stroke-width:2;stroke-linecap:round;stroke-linejoin:round;stroke-miterlimit:10;}
	.st11{fill:#FF5093;stroke:#FF5093;stroke-width:2;stroke-linecap:round;stroke-linejoin:round;stroke-miterlimit:10;}
	.st12{fill:#B7257F;stroke:#B7257F;stroke-width:2;stroke-linecap:round;stroke-linejoin:round;stroke-miterlimit:10;}
	.st13{fill:#5189E5;stroke:#5189E5;stroke-width:2;stroke-linecap:round;stroke-linejoin:round;stroke-miterlimit:10;}
	.st14{fill:#6EBAFF;stroke:#6EBAFF;stroke-width:2;stroke-linecap:round;stroke-linejoin:round;stroke-miterlimit:10;}
	.st15{fill:#EDD977;stroke:#EDD977;stroke-width:2;stroke-linecap:round;stroke-linejoin:round;stroke-miterlimit:10;}
	.st16{fill:#8C43FF;stroke:#8C43FF;stroke-width:2;stroke-linecap:round;stroke-linejoin:round;stroke-miterlimit:10;}
	.st17{fill:#5252BA;stroke:#5252BA;stroke-width:2;stroke-linecap:round;stroke-linejoin:round;stroke-miterlimit:10;}
	.st18{fill:none;stroke:#E3FAFF;stroke-width:4;stroke-linecap:round;stroke-linejoin:round;stroke-miterlimit:10;}
	.st19{fill:#354C75;stroke:#354C75;stroke-width:2;stroke-linecap:round;stroke-linejoin:round;stroke-miterlimit:10;}
</style><style
     type="text/css"
     id="style23106">
	.st0{fill:none;stroke:#000000;stroke-width:2;stroke-linecap:round;stroke-linejoin:round;stroke-miterlimit:10;}
	.st1{fill:none;stroke:#000000;stroke-width:2;stroke-linejoin:round;stroke-miterlimit:10;}
</style><style
     type="text/css"
     id="style1941-1">
	.st0{fill:none;stroke:#000000;stroke-width:2;stroke-linecap:round;stroke-linejoin:round;stroke-miterlimit:10;}
</style><style
     type="text/css"
     id="style1941-0-9">
	.st0{fill:none;stroke:#000000;stroke-width:2;stroke-linecap:round;stroke-linejoin:round;stroke-miterlimit:10;}
</style><style
     type="text/css"
     id="style1941-7-4">
	.st0{fill:none;stroke:#000000;stroke-width:2;stroke-linecap:round;stroke-linejoin:round;stroke-miterlimit:10;}
</style><style
     type="text/css"
     id="style22485-7">
	.st0{fill:none;stroke:#6C3DB7;stroke-width:4;stroke-linecap:round;stroke-linejoin:round;stroke-miterlimit:10;}
	.st1{fill:none;stroke:#1F992A;stroke-width:4;stroke-linecap:round;stroke-linejoin:round;stroke-miterlimit:10;}
	.st2{fill:none;stroke:#6A83BA;stroke-width:4;stroke-linecap:round;stroke-linejoin:round;stroke-miterlimit:10;}
	.st3{fill:#8A8AFF;stroke:#8A8AFF;stroke-width:2;stroke-linecap:round;stroke-linejoin:round;stroke-miterlimit:10;}
	.st4{fill:#6C3DB7;stroke:#6C3DB7;stroke-width:2;stroke-linecap:round;stroke-linejoin:round;stroke-miterlimit:10;}
	.st5{fill:#A576FF;stroke:#A576FF;stroke-width:2;stroke-linecap:round;stroke-linejoin:round;stroke-miterlimit:10;}
	.st6{fill:#F2BB41;stroke:#F2BB41;stroke-width:2;stroke-linecap:round;stroke-linejoin:round;stroke-miterlimit:10;}
	.st7{fill:#E08838;stroke:#E08838;stroke-width:2;stroke-linecap:round;stroke-linejoin:round;stroke-miterlimit:10;}
	.st8{fill:#1F992A;stroke:#1F992A;stroke-width:2;stroke-linecap:round;stroke-linejoin:round;stroke-miterlimit:10;}
	.st9{fill:#5EC11E;stroke:#5EC11E;stroke-width:2;stroke-linecap:round;stroke-linejoin:round;stroke-miterlimit:10;}
	.st10{fill:#E3FAFF;stroke:#E3FAFF;stroke-width:2;stroke-linecap:round;stroke-linejoin:round;stroke-miterlimit:10;}
	.st11{fill:#FF5093;stroke:#FF5093;stroke-width:2;stroke-linecap:round;stroke-linejoin:round;stroke-miterlimit:10;}
	.st12{fill:#B7257F;stroke:#B7257F;stroke-width:2;stroke-linecap:round;stroke-linejoin:round;stroke-miterlimit:10;}
	.st13{fill:#5189E5;stroke:#5189E5;stroke-width:2;stroke-linecap:round;stroke-linejoin:round;stroke-miterlimit:10;}
	.st14{fill:#6EBAFF;stroke:#6EBAFF;stroke-width:2;stroke-linecap:round;stroke-linejoin:round;stroke-miterlimit:10;}
	.st15{fill:#EDD977;stroke:#EDD977;stroke-width:2;stroke-linecap:round;stroke-linejoin:round;stroke-miterlimit:10;}
	.st16{fill:#8C43FF;stroke:#8C43FF;stroke-width:2;stroke-linecap:round;stroke-linejoin:round;stroke-miterlimit:10;}
	.st17{fill:#5252BA;stroke:#5252BA;stroke-width:2;stroke-linecap:round;stroke-linejoin:round;stroke-miterlimit:10;}
	.st18{fill:none;stroke:#E3FAFF;stroke-width:4;stroke-linecap:round;stroke-linejoin:round;stroke-miterlimit:10;}
	.st19{fill:#354C75;stroke:#354C75;stroke-width:2;stroke-linecap:round;stroke-linejoin:round;stroke-miterlimit:10;}
</style><style
     type="text/css"
     id="style23106-8">
	.st0{fill:none;stroke:#000000;stroke-width:2;stroke-linecap:round;stroke-linejoin:round;stroke-miterlimit:10;}
	.st1{fill:none;stroke:#000000;stroke-width:2;stroke-linejoin:round;stroke-miterlimit:10;}
</style></svg>
