<svg id="Layer_1" enable-background="new 0 0 510 510" height="512" viewBox="0 0 510 510" width="512" xmlns="http://www.w3.org/2000/svg"><g><path d="m489.097 154.94-89.08-54.441 29.638-29.638c5.858-5.857 5.858-15.355 0-21.213l-45.254-45.255c-5.857-5.857-15.355-5.857-21.213 0l-45.68 45.68-32.059-19.593c-5.912-3.613-13.531-2.707-18.43 2.193l-67.881 67.89c-4.898 4.899-5.805 12.516-2.191 18.428l19.589 32.053-198.416 198.417c-5.858 5.857-5.858 15.355 0 21.213l45.255 45.255c5.859 5.858 15.355 5.858 21.213 0l182.375-182.375c23.689 38.761 18.1 29.614 28.382 46.445h-26.618c-8.284 0-15 6.716-15 15v200c0 8.284 6.716 15 15 15h176c8.284 0 15-6.716 15-15v-199.999c0-8.284-6.716-15-15-15h-54.504l101.66-101.652c6.851-6.852 5.505-18.342-2.786-23.408zm-115.302-118.728 24.042 24.042-24.152 24.152-29.845-18.239zm-93.912 26.026 121.135 74.032-98.288 98.288c-14.741-24.123-57.507-94.103-74.026-121.133zm-205.902 321.872-24.042-24.042 182.69-182.691 18.24 29.845zm355.745 95.89h-146v-170h34v121c0 8.284 6.716 15 15 15s15-6.716 15-15v-121h82zm-81.933-200h-17.294l-11.677-19.108 108.528-108.529 29.847 18.242z"/></g></svg>