<?xml version="1.0" encoding="UTF-8" standalone="no"?>
<!-- Created with Inkscape (http://www.inkscape.org/) -->

<svg
   width="3592.5828"
   height="1007.3691"
   viewBox="0 0 950.53754 266.53308"
   version="1.1"
   id="svg5"
   xml:space="preserve"
   inkscape:version="1.4.2 (ebf0e940d0, 2025-05-08)"
   sodipodi:docname="index.svg"
   inkscape:export-batch-path="/home/doruk/Code/wanderia/design"
   inkscape:export-batch-name="wanderia"
   xmlns:inkscape="http://www.inkscape.org/namespaces/inkscape"
   xmlns:sodipodi="http://sodipodi.sourceforge.net/DTD/sodipodi-0.dtd"
   xmlns="http://www.w3.org/2000/svg"
   xmlns:svg="http://www.w3.org/2000/svg"><sodipodi:namedview
     id="namedview7"
     pagecolor="#ffffff"
     bordercolor="#ebebeb"
     borderopacity="1"
     inkscape:showpageshadow="false"
     inkscape:pageopacity="0"
     inkscape:pagecheckerboard="false"
     inkscape:deskcolor="#ffffff"
     inkscape:document-units="px"
     showgrid="false"
     showguides="true"
     inkscape:zoom="0.079999995"
     inkscape:cx="-2293.7501"
     inkscape:cy="8225.0005"
     inkscape:window-width="1920"
     inkscape:window-height="1014"
     inkscape:window-x="0"
     inkscape:window-y="0"
     inkscape:window-maximized="1"
     inkscape:current-layer="g15"
     inkscape:export-bgcolor="#ffffff00"><inkscape:page
       x="5.6088479e-06"
       y="-9.4009709e-05"
       width="950.53754"
       height="266.53308"
       id="page1"
       margin="0"
       bleed="0" /></sodipodi:namedview><defs
     id="defs2"><style
       id="style6568">.cls-1{fill:none;}.cls-2{clip-path:url(#clip-path);}</style><style
       id="style6568-5">.cls-1{fill:none;}.cls-2{clip-path:url(#clip-path);}</style><style
       id="style6568-9">.cls-1{fill:none;}.cls-2{clip-path:url(#clip-path);}</style><style
       id="style22571">.cls-1{fill:#84d0f7;}.cls-2{fill:#aa392d;}.cls-3{fill:#7c211a;}.cls-4{fill:#e59973;}.cls-5{fill:#2d2d2d;}.cls-6{opacity:0.2;}.cls-7{opacity:0.3;}</style><style
       id="style23309">
      .cls-1 {
        fill: none;
      }
    </style><style
       id="style6568-7">.cls-1{fill:none;}.cls-2{clip-path:url(#clip-path);}</style><style
       id="style6568-5-5">.cls-1{fill:none;}.cls-2{clip-path:url(#clip-path);}</style><style
       id="style6568-9-3">.cls-1{fill:none;}.cls-2{clip-path:url(#clip-path);}</style><style
       id="style22571-5">.cls-1{fill:#84d0f7;}.cls-2{fill:#aa392d;}.cls-3{fill:#7c211a;}.cls-4{fill:#e59973;}.cls-5{fill:#2d2d2d;}.cls-6{opacity:0.2;}.cls-7{opacity:0.3;}</style><style
       id="style23309-6">
      .cls-1 {
        fill: none;
      }
    </style><style
       id="style1-9">
      .cls-1 {
        fill: none;
      }
    </style></defs><g
     inkscape:label="Layer 1"
     inkscape:groupmode="layer"
     id="layer1"
     transform="translate(1282.2894,-2470.1786)"><path
       style="font-size:136.65px;font-family:Ruchill;-inkscape-font-specification:Ruchill;letter-spacing:0px;fill:#1c1f3e;stroke-width:10.6267"
       d="m -935.33609,2625.739 c -11.73181,0.063 -20.53067,5.2283 -26.07778,15.3024 -8.67135,15.8761 -7.33238,42.0815 -0.6376,56.5549 4.90951,10.5842 15.42989,15.6212 26.71538,15.6212 16.13122,-0.1275 24.16501,-5.2283 29.45711,-18.9367 4.84575,-12.3694 6.56719,-35.0042 1.33893,-47.7561 -5.73843,-13.9635 -15.68497,-20.7857 -30.79604,-20.7857 z m 11.85938,54.8335 c -1.59406,9.3726 -5.54713,14.1546 -11.85938,14.1546 -10.39285,0 -12.17813,-11.4768 -12.43317,-16.45 -0.19128,-4.0806 -0.3188,-16.3225 1.65776,-24.165 1.65775,-6.5673 5.8659,-10.4566 11.15802,-10.4566 h 0.0634 c 5.22827,0.063 9.75524,3.8893 11.09417,9.3727 1.78528,7.5874 1.91285,18.1078 0.31887,27.5443 z m 91.62292,-24.2926 c 0.12747,11.4768 0.31877,27.2892 14.40968,30.541 3.69812,0.8927 7.97006,1.2752 11.92312,1.2752 3.76186,0 7.20484,-0.3825 9.6915,-1.1476 13.58083,-4.1445 14.91986,-23.0812 15.30237,-29.3296 l 0.12757,-0.9564 c 0.44625,-5.6109 1.08389,-16.7689 1.21136,-22.1247 0.12757,-5.1645 -2.29535,-7.3324 -8.67134,-7.7149 -6.24842,-0.3188 -9.62767,1.7215 -10.20158,6.1209 -0.12747,1.0202 -0.19121,6.6311 -0.25504,13.1345 -0.12747,7.7788 -0.19121,16.5776 -0.44625,18.2991 -0.70138,5.6746 -3.1243,8.1613 -7.58744,8.0338 -5.03706,-0.1913 -7.52372,-2.8054 -7.52372,-7.97 0,-0.7013 0.25504,-9.564 0.51008,-17.4065 0.12757,-5.9296 0.31887,-11.3492 0.31887,-12.4332 0.0635,-2.1677 -0.57391,-3.953 -1.8491,-5.292 -2.04032,-2.0403 -5.16453,-2.4866 -7.45989,-2.4866 -4.33567,0 -9.56393,1.6577 -9.75523,6.2484 -0.12757,2.8054 0,11.6043 0.1913,20.3394 0.0635,0.8927 0.0635,1.849 0.0635,2.8692 z m 52.60187,45.0783 c -0.38251,-2.6779 -1.40267,-4.6545 -3.06048,-5.866 -2.29535,-1.5939 -5.73834,-1.9765 -10.52035,-1.0201 -0.82886,0.1276 -1.72154,0.4463 -2.80544,0.7651 -3.57055,1.1477 -8.99011,2.8054 -19.19169,2.3591 -22.25227,-1.0202 -34.30286,-10.3291 -34.43034,-10.4566 -4.14446,-3.3155 -10.01037,-9.9466 -12.24189,-12.6244 -0.82895,-1.0202 -0.82895,-2.0403 -0.0635,-2.9968 7.33241,-8.5437 15.81245,-19.7017 18.36285,-23.5911 4.27193,-6.3122 7.71501,-13.007 0.12756,-18.2991 -2.48666,-1.7215 -4.71828,-2.3591 -7.01363,-1.9128 -2.93291,0.5101 -5.73834,2.8054 -8.73508,7.0773 -1.97658,2.8692 -7.07737,9.5641 -11.98686,16.0675 -1.65771,2.2317 -3.37925,4.527 -4.84575,6.6311 0.19131,-2.4867 0.38261,-4.8458 0.63765,-7.2049 0.31878,-3.9531 0.63755,-7.6512 0.89259,-11.5405 0.25504,-4.527 -0.63755,-7.7787 -2.7417,-9.9465 -1.84901,-1.9766 -4.59071,-2.9968 -8.28873,-2.9968 -7.14111,0 -10.52036,3.8256 -10.71166,11.9869 -0.0635,4.527 0.51008,10.5203 1.08389,16.3225 0.57382,5.9934 1.14773,11.6043 0.95642,15.4937 -0.12756,3.2517 -0.3826,7.9062 -0.70138,12.8794 -0.44634,7.1411 -0.95642,14.5373 -1.02016,19.128 -0.12747,6.8861 2.61414,9.9465 9.62777,10.4566 7.26858,0.5101 10.71166,-4.782 11.09417,-8.2887 0.1913,-1.4028 -0.12747,-5.9935 -0.51008,-11.7957 -0.19121,-2.3591 -0.31878,-4.9095 -0.51008,-7.4599 0.12757,0.1913 0.25504,0.3188 0.38261,0.5101 l 0.12747,0.1276 c 0.25504,0.3825 0.51008,1.0839 0.89268,1.9127 1.21147,2.5504 3.12422,6.7586 7.20485,10.8393 5.80217,5.8659 18.23537,12.9431 33.02766,15.7486 7.39614,1.339 14.91976,2.0403 22.25217,2.0403 6.37599,0 12.62441,-0.5101 18.36284,-1.594 13.64457,-2.4866 14.79229,-9.0538 14.34595,-12.7519 z m 42.01768,-8.7989 c -2.55039,0.1275 -3.95306,0.3825 -5.35583,0.7013 -1.27519,0.2551 -2.48665,0.5739 -4.65444,0.6377 -1.21146,0.063 -2.29536,-0.2551 -3.06048,-0.9565 -1.78527,-1.7852 -2.04031,-5.8021 -2.04031,-9.1176 0,-1.9765 0,-3.3793 0.0634,-4.5907 0,-0.1275 0,-0.9564 0.12757,-2.2954 0.51008,-8.3525 2.04032,-33.984 1.33893,-40.36 -0.25503,-2.6141 -1.84901,-11.0941 -9.75523,-10.5841 -6.94981,0.5101 -10.90296,4.8458 -10.7754,11.8593 0.0635,2.1041 0.0635,4.9733 0,8.3526 -0.0635,6.6947 -0.12756,15.8762 0.31878,24.6751 0.1913,4.7182 0.1913,10.3928 0.12747,15.4298 -0.0635,2.8055 -0.0635,5.2921 0,7.5237 0.0635,6.121 0.12757,12.5607 5.03705,15.3661 3.18804,1.8491 8.28883,1.9766 12.81572,2.1041 1.97658,0.063 3.82559,0.063 5.41965,0.255 1.21137,0.1913 2.42283,0.2551 3.50673,0.2551 4.52697,0 8.225,-1.2115 10.77539,-3.5068 3.63439,-3.3156 3.88943,-8.1613 2.61423,-11.3493 -1.21146,-2.8691 -3.57056,-4.5269 -6.50356,-4.3994 z m 76.32055,-66.8203 c -0.0635,0 -0.12747,0 -0.25504,0 -11.73181,0.063 -20.53063,5.2283 -26.07777,15.3024 -8.67134,15.8761 -7.3324,42.0815 -0.63755,56.5549 4.52688,9.7553 14.47343,15.6212 26.52411,15.6212 0.0635,0 0.12748,0 0.19121,0 16.13132,-0.1275 24.16502,-5.2283 29.45711,-18.9367 4.84575,-12.3694 6.56729,-35.0042 1.33894,-47.7561 -5.73835,-13.9635 -15.74872,-20.7857 -30.54101,-20.7857 z m 11.60435,54.8335 c -1.59398,9.3726 -5.54714,14.1546 -11.85939,14.1546 -10.39279,0 -12.17806,-11.4768 -12.4331,-16.45 -0.19131,-4.0806 -0.31887,-16.3225 1.65771,-24.165 1.6578,-6.5673 5.86591,-10.4566 11.158,-10.4566 0,0 0.0635,0 0.0635,0 5.22836,0.063 9.75524,3.8893 11.09427,9.3727 1.78528,7.5874 1.91275,18.1078 0.31878,27.5443 z m -18.93666,-59.0417 c 0,0 0.0635,0 0.0635,0 2.04032,0 3.95307,-0.7014 5.22827,-2.0403 1.27519,-1.2115 1.97658,-2.9329 1.97658,-4.8458 0,-4.1443 -2.86918,-6.8223 -7.33241,-6.8223 0,0 0,0 0,0 -1.72145,0 -3.57056,0.7651 -4.78192,2.0403 -1.33903,1.339 -2.04032,3.1243 -1.97658,5.2284 0.0635,4.7182 3.57055,6.4397 6.82233,6.4397 z m 15.49358,0 c 0,0 0,0 0,0 2.10414,0 3.95316,-0.7014 5.29209,-2.0403 1.2752,-1.2115 1.97658,-2.9329 1.97658,-4.8458 0,-4.1443 -2.86917,-6.8223 -7.33241,-6.8223 0,0 -0.0635,0 -0.0635,0 -1.72154,0 -3.50682,0.7651 -4.78201,2.0403 -1.33894,1.339 -1.97658,3.1243 -1.97658,5.2284 0.0635,4.7182 3.57055,6.4397 6.88606,6.4397 z m 97.80769,28.692 c 0.31877,-3.8894 0.63764,-7.6512 0.89268,-11.4768 0.25504,-4.527 -0.63764,-7.7787 -2.67796,-9.9465 -1.84901,-1.9766 -4.65445,-2.9968 -8.28873,-2.9968 -7.14111,0 -10.58419,3.8256 -10.77549,11.9869 -0.0635,4.527 0.51008,10.5203 1.08398,16.3225 0.63756,5.9934 1.14764,11.6043 1.02016,15.4937 l -0.0635,0.7013 c 0,0.8289 -0.0635,2.6779 -0.25504,2.933 -0.70129,-0.2551 -2.10405,-3.3155 -2.86917,-4.9733 -0.44634,-0.9564 -0.82885,-1.8491 -1.21146,-2.5504 -5.54704,-10.3291 -10.39279,-19.2555 -14.79229,-28.2456 -5.22826,-10.6479 -12.17806,-10.5204 -16.76878,-10.4566 -0.3826,0.063 -0.76511,0.063 -1.14772,0.063 -7.14111,0 -10.52036,3.7619 -10.71166,11.9232 -0.12747,4.4631 0.38261,10.1377 0.82886,15.6211 0.44634,5.7384 0.89268,11.0942 0.76512,14.9836 -0.19121,3.2517 -0.44625,7.9062 -0.76512,12.8794 -0.44625,7.1412 -0.89259,14.5373 -1.02016,19.128 -0.12747,6.8861 2.61422,9.9466 9.62776,10.4566 0.31878,0 0.63765,0 1.02016,0 6.63103,0 9.6915,-4.9732 10.13784,-8.2887 0.12748,-1.4028 -0.1913,-5.9935 -0.57381,-11.7318 -0.51008,-7.205 -1.08399,-16.1951 -0.95642,-21.8697 0,-1.0201 0,-2.1679 -0.0635,-3.2518 -0.0635,-2.6141 -0.12757,-5.6108 0.63755,-6.1846 0,0 0,0 0.0635,0 0.70138,0 2.61422,2.104 7.71501,12.0505 l 0.51008,1.0839 c 1.53024,2.933 3.57056,7.0774 5.73834,11.5407 3.12421,6.4397 6.37599,13.0707 8.60761,17.0876 0.0635,0.255 0.1913,0.5101 0.38251,0.7651 1.4665,2.9329 4.71828,9.0539 13.07085,8.7988 6.9498,-0.255 10.64783,-4.4631 11.09417,-8.2887 0.12756,-1.4028 -0.1913,-5.9935 -0.57382,-11.7957 -0.51008,-7.2048 -1.08389,-16.1312 -0.95642,-21.8058 0.1913,-7.5237 0.70138,-13.8359 1.2752,-19.9568 z m 57.7664,29.5207 c -5.92964,0 -8.16126,4.9733 -10.77539,10.7117 -1.65771,3.5705 -5.16453,5.3558 -8.99012,5.3558 -2.29536,0 -4.39941,-0.7013 -5.61087,-1.5302 -5.22836,-3.698 -7.01363,-12.8157 -6.9498,-19.5105 0.0635,-9.0539 0.95632,-31.2424 14.02717,-31.2424 4.84575,0 9.11759,3.4431 9.88271,8.2889 0.82895,5.2282 5.73843,7.5236 9.94654,7.0135 4.3994,-0.5738 8.6076,-4.2718 7.90622,-11.2217 -1.21146,-12.5607 -12.94327,-21.8696 -27.03418,-21.8696 -0.63756,0 -1.2752,0 -1.91275,0.063 -19.25553,1.2115 -29.90336,15.5575 -31.56116,42.6554 -1.40267,22.6348 8.92638,41.6352 23.97371,44.1855 2.23162,0.3827 4.39941,0.5101 6.56729,0.5101 13.64457,0 25.2489,-7.2048 29.45701,-18.9366 1.4665,-4.0807 1.40276,-7.4599 -0.25504,-10.074 -1.78528,-2.8693 -5.35583,-4.3995 -8.67134,-4.3995 z m 73.06886,4.3995 c -1.78527,-2.8054 -5.35583,-4.3995 -8.6076,-4.3995 -6.24852,0 -8.60761,5.4197 -10.90297,10.7117 -1.53023,3.6344 -4.3994,5.4196 -8.225,5.4196 -2.67796,0 -5.41956,-0.8926 -7.07737,-2.1041 -4.2081,-2.9966 -6.05721,-8.7988 -5.6746,-17.7889 v -0.3189 c 0.0635,-4.3994 0.76511,-4.8458 0.82885,-4.8458 0.44634,-0.1274 1.78528,0.2551 3.12421,0.7014 3.31552,1.0839 6.56729,1.7853 10.01037,1.7853 9.05386,0 17.27886,-3.0605 22.12461,-8.225 4.14446,-4.4632 5.92974,-10.3929 5.16462,-17.534 -1.40276,-12.752 -12.8158,-21.8058 -27.03419,-21.8058 -24.61136,0 -31.11482,22.1246 -32.39001,42.7828 -1.4665,23.1449 8.16126,41.6353 22.82599,44.1218 2.23162,0.3826 4.46323,0.5101 6.56729,0.5101 13.64456,0 25.31264,-7.2048 29.52084,-18.9367 1.40267,-4.0806 1.33894,-7.4598 -0.25504,-10.074 z m -36.85325,-30.9236 c 1.84901,-6.7585 5.16453,-10.1377 12.11442,-10.1377 3.37925,0 6.24842,0.8926 8.0337,2.5504 1.2752,1.2752 1.84901,2.8691 1.72154,4.6544 -0.57382,6.0572 -4.97332,8.225 -10.58419,8.225 -1.84901,0 -3.50672,-0.255 -4.52688,-0.4463 l -0.82895,-0.1275 c -2.16779,-0.3826 -4.84575,-0.8927 -5.80208,-2.3591 -0.3826,-0.5739 -0.3826,-1.339 -0.12756,-2.3592 z m 71.53853,6.1848 c -3.76186,-2.1679 -7.01363,-4.0169 -8.60761,-5.6109 -1.84901,-1.7852 -2.42283,-3.7618 -1.84901,-5.7384 1.08389,-3.5068 5.54713,-6.376 9.24516,-7.0774 5.41956,-1.0839 8.35256,1.6578 13.32579,7.715 3.06047,3.6981 7.84249,2.9967 11.28557,0.7013 3.37925,-2.2315 6.05711,-6.5034 3.88932,-10.4566 -5.80217,-10.9667 -18.23537,-16.1312 -33.09139,-13.8359 -13.96344,2.1041 -24.61127,15.2387 -23.2086,28.5645 0.89269,8.8626 12.36947,14.4735 19.1917,17.8527 1.08399,0.5101 1.97658,0.9565 2.80544,1.339 10.13784,5.3558 13.96343,9.6915 13.13458,14.8561 -0.38261,2.6141 -2.04032,4.9732 -4.52698,6.5034 -2.9329,1.7216 -6.56729,2.1041 -9.6915,0.9565 -2.04031,-0.7014 -3.88933,-1.9129 -5.73834,-3.1242 -2.80543,-1.7216 -5.41966,-3.4431 -8.28883,-3.5069 -2.86917,-0.063 -5.61087,1.9766 -7.07737,5.2921 -1.65771,3.8894 -1.08389,8.0337 1.40276,10.6479 2.61414,2.6142 11.47678,9.2452 22.06087,9.2452 0.31887,0 0.70139,0 1.08399,-0.063 22.95356,-0.9564 31.11482,-15.2386 30.98725,-24.6113 -0.1913,-14.7923 -15.87618,-23.7187 -26.3328,-29.6483 z m 56.36372,14.856 c 0.38251,-1.6578 0.82885,-3.3155 1.08389,-7.8425 0.25504,-4.5269 -0.76512,-7.9699 -2.86917,-10.2653 -1.91284,-2.0403 -4.71828,-3.0604 -8.35257,-3.0604 -7.20484,0 -11.09417,4.3356 -11.28547,12.4332 -0.0635,4.6544 0.57381,7.5873 1.14763,10.5203 0.57391,2.7417 1.08399,5.2921 0.95642,9.0539 -0.1913,3.8256 -0.51008,5.9297 -0.89259,7.97 -0.38261,2.2954 -0.76512,4.4632 -0.89268,8.5438 -0.0635,3.6343 0.76511,6.2485 2.61413,8.0975 1.78527,1.7853 4.52697,2.7417 8.16126,2.7417 0.0635,0 0.12757,0 0.1913,0 7.39615,-0.063 10.39289,-2.8692 10.58419,-9.9465 0.12747,-3.6981 -0.25504,-5.6747 -0.70138,-7.7788 -0.44635,-2.2953 -0.95642,-4.7182 -0.82886,-10.0103 0.19121,-6.6947 0.63755,-8.5438 1.0839,-10.4566 z m -11.158,-27.2892 c 0.0634,0 0.0634,0 0.12756,0 3.69803,0 6.88607,-1.2115 9.05386,-3.3155 1.97658,-2.0403 3.06047,-4.782 3.06047,-8.0975 0,-5.8022 -4.97322,-9.6915 -12.30563,-9.7553 -0.0635,0 -0.0635,0 -0.0635,0 -2.80543,0 -5.73843,1.2752 -7.71501,3.2518 -1.91275,1.9765 -2.93291,4.5907 -2.86917,7.6512 0.12756,7.0135 5.6746,10.2016 10.71166,10.2653 z"
       id="text12"
       aria-label="OkuL ÖNcesi"
       inkscape:export-filename="../../artwork/pred/index.svg"
       inkscape:export-xdpi="29.83"
       inkscape:export-ydpi="29.83" /><g
       id="g15"
       style="fill:#195ab5;fill-opacity:1"
       transform="matrix(0.9528769,0,0,0.9528769,-1910.8615,998.84431)"><path
         style="font-size:124.593px;font-family:Ruchill;-inkscape-font-specification:Ruchill;letter-spacing:0px;stroke-width:10.3828"
         d="m 1042.0241,1626.1217 c -1.9312,-0.1246 -2.4295,-0.6229 -2.4295,-0.7475 0,-0.062 0.2492,-0.5607 1.3705,-0.9345 8.7215,-2.9902 11.774,-12.4593 10.9642,-20.4955 -1.3706,-13.1446 -10.3412,-16.6955 -19.8726,-18.5644 -9.5314,-1.8689 -14.8889,0.4361 -18.066,1.8689 -1.2459,0.5607 -2.305,0.9968 -3.0525,0.9345 -0.4984,-0.062 -1.1837,-0.4984 -1.9935,-1.0591 -1.4328,-0.9344 -3.364,-2.2427 -6.1051,-2.2427 -6.97718,0 -10.27889,3.7378 -10.46578,11.7118 -0.1246,4.423 0.49837,10.2789 1.05904,15.9479 0.56067,5.8559 1.12133,11.338 0.93444,15.138 -0.12459,3.1772 -0.43607,7.7248 -0.74755,12.5216 -0.43608,6.9772 -0.87215,14.2036 -0.93445,18.7513 -0.12459,3.6755 0.62296,6.1673 2.24267,7.8493 1.55742,1.5575 3.92468,2.3673 7.16413,2.3673 4.7968,0 6.728,-2.2427 7.9739,-3.7378 0.4361,-0.4984 0.8099,-0.9967 1.1214,-1.059 0.6229,-0.062 1.2459,0.4361 2.3672,1.3705 1.9935,1.6197 4.9215,4.1739 10.9642,4.4231 0.7476,0.062 1.4328,0.062 2.1804,0.062 12.2724,0 21.43,-5.4821 25.9776,-15.6365 2.8034,-6.2919 3.8001,-15.9479 0.1869,-22.0529 -2.305,-3.8624 -5.9181,-5.9805 -10.8396,-6.4166 z m -12.7085,-8.4723 c -4.423,3.1148 -12.8953,4.0493 -15.138,1.6197 -2.2427,-2.305 -2.3673,-4.5476 -2.2427,-7.6625 v -0.5606 c 0,-3.0526 0,-6.2297 2.6788,-8.1609 1.5574,-1.1213 4.2984,-1.6197 7.1018,-1.6197 3.4886,0 7.1641,0.7476 8.9707,2.0558 1.8689,1.3082 2.8656,3.4263 2.8656,5.9805 0,3.2394 -1.682,6.6034 -4.2362,8.3477 z m -16.5708,21.3677 c 0.4983,-1.1213 2.2426,-1.9935 4.7968,-2.4919 5.046,-0.9344 12.5839,-0.062 15.3249,2.6165 2.4296,3.364 3.1149,6.728 1.9312,9.9051 -2.118,5.9182 -8.41,6.3543 -11.0264,6.2297 -5.2952,-0.1869 -10.5282,-2.8034 -11.338,-5.7313 -0.3738,-1.1836 -1.3082,-6.728 0.3115,-10.5281 z m 78.0576,-54.198 c -11.4626,0.062 -20.0595,5.1084 -25.4793,14.9512 -8.4723,15.5118 -7.1641,41.1157 -0.623,55.257 4.7969,10.3412 15.0758,15.2626 26.1023,15.2626 15.761,-0.1245 23.6103,-5.1083 28.7809,-18.502 4.7346,-12.0855 6.4166,-34.2008 1.3083,-46.6601 -5.6067,-13.6429 -15.325,-20.3087 -30.0892,-20.3087 z m 11.5871,53.575 c -1.5574,9.1576 -5.4198,13.8299 -11.5871,13.8299 -10.1544,0 -11.8987,-11.2134 -12.1479,-16.0725 -0.1868,-3.987 -0.3114,-15.9479 1.6198,-23.6104 1.6197,-6.4165 5.7312,-10.2166 10.9018,-10.2166 h 0.062 c 5.1083,0.062 9.5314,3.8001 10.8396,9.1576 1.7443,7.4132 1.8689,17.6922 0.3115,26.912 z m 75.3165,-12.1478 c -4.2362,-1.1213 -8.0986,-1.682 -11.4626,-1.682 -3.987,0 -7.2887,0.7476 -9.656,2.3673 -2.4295,1.682 -2.9902,5.4198 -2.741,8.3477 0.3738,4.9214 2.4919,8.0363 7.5379,8.0363 1.7443,0 3.364,-0.4361 4.7345,-0.7476 0.9967,-0.1869 1.8689,-0.4361 2.4919,-0.4361 0.8098,0 1.1836,0.4984 1.4328,1.246 0.4984,1.4328 0.1246,3.8623 -1.4328,5.6689 -2.6165,3.1772 -6.1674,4.3608 -9.3445,4.3608 -2.305,0 -4.4231,-0.623 -5.8559,-1.6197 -5.046,-3.6132 -6.7903,-12.5216 -6.7903,-19.0627 0.062,-8.8461 0.9344,-30.5253 13.7675,-30.5253 4.6723,0 8.9084,3.4263 9.656,8.0985 0.7475,5.1083 5.5444,7.351 9.6559,6.8526 4.3608,-0.5606 8.4101,-4.1738 7.7248,-10.9642 -1.1836,-12.2724 -12.6462,-21.3677 -26.4137,-21.3677 -0.623,0 -1.2459,0 -1.8689,0.062 -18.8135,1.1837 -29.2171,15.2004 -30.8368,41.6764 -1.3705,22.1153 8.7215,40.6796 23.4235,43.1715 1.9935,0.3115 3.987,0.4984 5.9182,0.4984 12.397,0 23.2989,-6.7281 29.2793,-18.4398 1.3706,-2.6788 3.3018,-10.7773 0.3115,-17.5676 -1.8066,-4.0493 -4.9837,-6.728 -9.5313,-7.974 z m 73.0116,17.8791 c -2.8034,-6.2296 -5.7313,-12.7085 -8.5346,-20.0595 -2.0558,-5.4198 -4.5477,-14.3282 -6.5412,-21.4922 -1.6197,-5.7313 -2.8656,-10.279 -3.4886,-11.5872 -1.4328,-2.8656 -5.1083,-5.669 -9.7805,-5.046 -5.046,0.1869 -8.0363,2.8656 -10.4658,9.2199 -1.6197,4.2984 -3.2394,10.092 -4.7346,15.761 -1.6197,5.8559 -3.1148,11.4002 -4.6099,15.2003 -1.3705,3.4263 -3.5509,8.2232 -5.8559,13.3315 -2.8033,6.105 -5.669,12.4593 -7.2264,16.5708 -1.4951,3.9247 -1.5574,7.4756 -0.3115,10.1544 1.6821,3.7378 6.5412,4.9837 10.3413,4.9837 4.2361,0 7.351,-2.1804 9.4067,-6.5411 0.2492,-0.5607 0.623,-2.1804 1.246,-4.9838 0.5606,-2.5541 1.2459,-5.7312 1.9935,-8.1608 0.062,-0.2492 0.2491,-0.3738 0.4983,-0.3115 3.6132,0.8099 7.351,1.1837 11.0265,1.1837 2.4919,0 5.6067,-0.2492 8.4723,-0.8099 0.3115,-0.062 0.623,0.1246 0.6853,0.4361 0.3115,1.059 0.623,2.9279 0.8721,4.7345 0.3738,2.305 0.6853,4.4854 1.1214,5.6067 2.1804,5.7313 5.1083,8.2231 10.2166,8.2231 3.987,0 8.4723,-0.9967 10.4658,-4.8591 1.5574,-2.8656 1.5574,-6.8526 0.062,-10.5281 -1.4951,-3.5509 -3.1148,-7.1641 -4.8591,-11.0265 z m -21.5546,-7.351 c 0,0.1869 0,0.3738 -0.1246,0.4984 -0.062,0.1246 -0.1869,0.2492 -0.4361,0.2492 -2.2426,0.062 -4.5476,0.1246 -6.9772,0 -1.682,-0.062 -3.5509,-0.1246 -5.4821,-0.1246 -0.1246,0 -0.2492,-0.062 -0.2492,-0.1246 -0.062,0 -0.1245,-0.1246 -0.062,-0.3115 1.1836,-3.8624 2.1803,-6.8526 3.0525,-9.0953 0.4361,-1.1213 0.9344,-2.4918 1.3705,-3.8001 0.8099,-2.3672 1.9935,-5.7935 2.6165,-6.6657 1.1213,0.7476 1.7443,3.4886 2.1803,5.4821 0.2492,1.1213 0.4984,2.1804 0.8099,2.9279 1.1836,2.928 2.305,7.1641 3.3017,10.9642 z m 79.1789,11.5249 c -2.1803,-0.1869 -5.046,0.2492 -8.0985,0.7475 -3.1771,0.5607 -6.728,1.1214 -10.0297,0.9968 -0.5607,0 -1.1837,0 -1.8066,0 -1.682,0 -4.1116,0 -4.4231,-0.6853 -0.3115,-1.4328 5.2329,-10.5904 7.2887,-14.079 l 1.1836,-1.9312 c 7.1641,-12.0232 12.1479,-20.0595 18.066,-28.0334 1.8066,-2.4919 3.1771,-5.8559 3.4886,-8.5346 0.6853,-7.2264 -3.3017,-9.9052 -5.4821,-10.3412 -0.9344,-0.1869 -2.8656,0.062 -6.2296,0.4983 -3.8001,0.4361 -8.4723,0.9968 -12.0855,0.8722 -4.7969,-0.1869 -8.7838,-0.7476 -12.6462,-1.2459 -2.5542,-0.3115 -4.9215,-0.6853 -7.351,-0.8722 -2.3673,-0.1869 -4.2985,0.3738 -5.669,1.6197 -1.8689,1.7443 -2.8656,4.7968 -2.8656,9.0953 0,6.9772 2.4918,10.2789 7.8493,10.4658 2.928,0.1246 7.974,-0.5607 12.397,-1.1836 3.3017,-0.4984 7.2887,-0.9968 8.2855,-0.8722 0.062,0.5607 -0.2492,3.6132 -9.4068,18.4398 -1.8066,2.9902 -4.4231,7.1018 -7.2264,11.5248 -4.1116,6.4166 -8.3477,13.02 -10.8396,17.2562 -0.4361,0.7475 -0.8099,1.4951 -1.1836,2.2426 -0.1246,0.2492 -0.1869,0.4361 -0.3115,0.7476 -0.6853,1.5574 -0.9968,2.9902 -1.0591,4.2985 0,0.062 0,0.1246 0,0.1869 v 0.3737 c -0.1868,4.1739 1.9312,7.351 5.7936,8.5969 0.9345,0.4984 1.9935,0.7476 2.9903,0.7476 0.3737,0 0.7475,0 1.1213,-0.1246 2.9279,0 6.2296,-0.4361 9.6559,-0.9344 3.3641,-0.4984 6.8527,-0.9968 10.0921,-1.0591 3.6132,-0.062 6.9149,0.5607 10.092,1.1214 2.4919,0.436 4.7968,0.8721 7.0395,0.9344 3.1771,0.1246 7.1018,-1.6197 7.5379,-10.2166 0.3738,-7.4133 -3.1148,-10.4035 -6.1674,-10.6527 z m 33.827,-16.0725 c 0.3737,-1.6197 0.8098,-3.2394 1.059,-7.6625 0.2492,-4.423 -0.7476,-7.787 -2.8033,-10.0297 -1.8689,-1.9935 -4.61,-2.9903 -8.1609,-2.9903 -7.0395,0 -10.8396,4.2362 -11.0265,12.1479 -0.062,4.5476 0.5607,7.4132 1.1214,10.2789 0.5606,2.6787 1.059,5.1706 0.9344,8.8461 -0.1869,3.7378 -0.4984,5.7936 -0.8721,7.7871 -0.3738,2.2426 -0.7476,4.3607 -0.8722,8.3477 -0.062,3.5509 0.7476,6.105 2.5542,7.9116 1.7443,1.7443 4.423,2.6788 7.9739,2.6788 0.062,0 0.1246,0 0.1869,0 7.2264,-0.062 10.1543,-2.8034 10.3412,-9.7183 0.1246,-3.6132 -0.2492,-5.5444 -0.6852,-7.6001 -0.4361,-2.2427 -0.9345,-4.61 -0.8099,-9.7806 0.1869,-6.5411 0.623,-8.3477 1.0591,-10.2166 z m -10.9019,-26.6629 c 0.062,0 0.062,0 0.1246,0 3.6132,0 6.728,-1.1837 8.8461,-3.2394 1.9312,-1.9935 2.9902,-4.6723 2.9902,-7.9117 0,-5.669 -4.8591,-9.4691 -12.0232,-9.5314 -0.062,0 -0.062,0 -0.062,0 -2.7411,0 -5.6067,1.246 -7.5379,3.1772 -1.8689,1.9312 -2.8656,4.4853 -2.8033,7.4755 0.1245,6.8527 5.5443,9.9675 10.4658,10.0298 z m 68.2146,32.0204 c -5.7936,0 -7.9739,4.8591 -10.5281,10.4658 -1.6197,3.4886 -5.046,5.2329 -8.7838,5.2329 -2.2427,0 -4.2985,-0.6853 -5.4821,-1.4951 -5.1083,-3.6132 -6.8526,-12.5216 -6.7903,-19.0627 0.062,-8.8461 0.9344,-30.5253 13.7052,-30.5253 4.7345,0 8.9084,3.364 9.656,8.0985 0.8098,5.1083 5.6067,7.351 9.7182,6.8526 4.2985,-0.5606 8.4101,-4.1738 7.7248,-10.9642 -1.1836,-12.2724 -12.6462,-21.3677 -26.4137,-21.3677 -0.623,0 -1.246,0 -1.8689,0.062 -18.8136,1.1837 -29.2171,15.2004 -30.8368,41.6764 -1.3705,22.1153 8.7215,40.6796 23.4235,43.1715 2.1804,0.3738 4.2985,0.4984 6.4165,0.4984 13.3315,0 24.6694,-7.0396 28.781,-18.5021 1.4328,-3.987 1.3705,-7.2887 -0.2492,-9.8429 -1.7443,-2.8033 -5.2329,-4.2984 -8.4723,-4.2984 z m 37.1287,-5.3575 c 0.3738,-1.6197 0.8098,-3.2394 1.059,-7.6625 0.2492,-4.423 -0.7475,-7.787 -2.8033,-10.0297 -1.8689,-1.9935 -4.61,-2.9903 -8.1609,-2.9903 -7.0395,0 -10.8395,4.2362 -11.0264,12.1479 -0.062,4.5476 0.5606,7.4132 1.1213,10.2789 0.5607,2.6787 1.059,5.1706 0.9345,8.8461 -0.1869,3.7378 -0.4984,5.7936 -0.8722,7.7871 -0.3738,2.2426 -0.7476,4.3607 -0.8722,8.3477 -0.062,3.5509 0.7476,6.105 2.5542,7.9116 1.7443,1.7443 4.4231,2.6788 7.974,2.6788 0.062,0 0.1246,0 0.1868,0 7.2264,-0.062 10.1544,-2.8034 10.3413,-9.7183 0.1246,-3.6132 -0.2492,-5.5444 -0.6853,-7.6001 -0.4361,-2.2427 -0.9344,-4.61 -0.8098,-9.7806 0.1868,-6.5411 0.6229,-8.3477 1.059,-10.2166 z m -10.9019,-26.6629 c 0.062,0 0.062,0 0.1246,0 3.6132,0 6.728,-1.1837 8.8461,-3.2394 1.9312,-1.9935 2.9902,-4.6723 2.9902,-7.9117 0,-5.669 -4.8591,-9.4691 -12.0232,-9.5314 -0.062,0 -0.062,0 -0.062,0 -2.741,0 -5.6067,1.246 -7.5379,3.1772 -1.8689,1.9312 -2.8656,4.4853 -2.8033,7.4755 0.1246,6.8527 5.5444,9.9675 10.4658,10.0298 z m 98.4908,-20.6202 c -6.9772,-0.4983 -9.9675,3.5509 -10.4036,7.2264 -0.1868,1.4329 -0.2491,10.279 -0.3737,20.4956 -0.062,10.4658 -0.1869,22.3021 -0.3738,24.6694 -0.6853,6.6657 -1.1214,11.4626 -7.974,11.4626 -5.9181,0 -7.787,-2.7411 -7.8493,-11.4003 0,-1.682 0.6852,-40.555 0.7475,-44.6043 0.062,-2.1804 -0.5606,-3.987 -1.8689,-5.2952 -2.1803,-2.2427 -5.6689,-2.5542 -7.5378,-2.5542 -3.5509,0 -9.0953,1.6198 -9.7183,6.0428 -0.3738,2.4919 -0.3115,9.2822 -0.2492,17.0692 0.062,4.4854 0.1246,9.2822 0.062,13.8299 0,5.9804 -0.1246,13.0199 -0.1869,17.5676 0,2.0558 -0.062,3.6132 -0.062,4.3607 -0.1246,13.643 3.7378,20.994 12.397,23.8596 3.7378,1.2459 8.7838,1.8689 13.7053,1.8689 3.1148,0 6.105,-0.2492 8.7215,-0.7476 15.6364,-3.2394 17.6922,-14.5773 17.8791,-22.8005 0.1869,-8.5346 0.3738,-13.1445 0.8098,-19.6234 0.4984,-8.0362 1.1214,-24.4825 1.246,-31.7712 0.1245,-5.8559 -1.246,-9.0953 -8.9707,-9.656 z m -26.1646,-3.2394 c 0,0 0.062,0 0.062,0 1.9935,0 3.8624,-0.6852 5.1083,-1.9935 1.246,-1.1836 1.9312,-2.8656 1.9312,-4.7345 0,-4.0493 -2.8033,-6.6657 -7.1641,-6.6657 0,0 0,0 0,0 -1.682,0 -3.4886,0.7475 -4.6722,1.9935 -1.3082,1.3082 -1.9935,3.0525 -1.9312,5.1083 0.062,4.6099 3.4886,6.2919 6.6657,6.2919 z m 15.1381,0 c 0,0 0,0 0,0 2.0558,0 3.8624,-0.6852 5.1706,-1.9935 1.2459,-1.1836 1.9312,-2.8656 1.9312,-4.7345 0,-4.0493 -2.8034,-6.6657 -7.1641,-6.6657 0,0 -0.062,0 -0.062,0 -1.682,0 -3.4263,0.7475 -4.6723,1.9935 -1.3082,1.3082 -1.9311,3.0525 -1.9311,5.1083 0.062,4.6099 3.4886,6.2919 6.728,6.2919 z m 70.7688,5.5444 c -5.1706,-1.8689 -15.3249,-1.9935 -20.4332,5.9805 -1.7443,2.741 -2.4919,2.741 -2.4919,2.741 -0.062,-0.062 -0.1869,-0.3738 -0.1869,-0.7475 l 0.062,-0.5607 c 0.1246,-2.1181 0.3738,-5.2329 -1.682,-7.4756 -1.4328,-1.4951 -3.7378,-2.305 -6.9149,-2.305 -7.1018,0 -10.5904,3.8001 -10.7773,11.6495 -0.1246,5.4198 0.1246,12.5839 0.4361,19.4988 0.1246,4.2985 0.3115,8.7215 0.3738,12.7708 0.2492,11.1511 0,21.3677 -0.1246,28.781 l -0.062,1.8689 c -0.1246,5.8558 1.3082,9.1575 8.9707,9.7182 0.3738,0 0.8098,0 1.1836,0 6.1674,0 8.8461,-3.8001 9.2822,-7.2264 0.1869,-1.4328 0.2492,-10.2789 0.3115,-20.4955 0.062,-10.4658 0.1869,-22.3645 0.436,-24.7317 0.623,-6.6035 4.9838,-9.4691 7.4756,-10.1544 2.4296,-0.6852 4.3608,-0.5606 5.7313,0.4984 1.682,1.2459 2.5542,3.9247 2.5542,7.8494 0,1.682 -0.6853,42.7977 -0.7476,46.4109 -0.062,2.1803 0.5607,3.9869 1.8689,5.2952 2.1804,2.1803 5.669,2.5541 7.6002,2.5541 3.5509,0 9.033,-1.6197 9.7182,-6.105 0.3115,-2.4296 0.2492,-9.2199 0.1869,-17.0693 -0.062,-4.423 -0.062,-9.2199 -0.062,-13.7675 0.062,-8.4723 0.623,-18.1906 0.8099,-20.9316 0.8721,-12.3347 -3.6755,-20.371 -13.5184,-24.0465 z m 43.2962,44.9781 c 0.3738,-1.6197 0.8098,-3.2394 1.059,-7.6625 0.2492,-4.423 -0.7475,-7.787 -2.8033,-10.0297 -1.8689,-1.9935 -4.61,-2.9903 -8.1609,-2.9903 -7.0395,0 -10.8396,4.2362 -11.0265,12.1479 -0.062,4.5476 0.5607,7.4132 1.1214,10.2789 0.5607,2.6787 1.059,5.1706 0.9344,8.8461 -0.1869,3.7378 -0.4983,5.7936 -0.8721,7.7871 -0.3738,2.2426 -0.7476,4.3607 -0.8722,8.3477 -0.062,3.5509 0.7476,6.105 2.5542,7.9116 1.7443,1.7443 4.423,2.6788 7.9739,2.6788 0.062,0 0.1246,0 0.1869,0 7.2264,-0.062 10.1544,-2.8034 10.3412,-9.7183 0.1246,-3.6132 -0.2491,-5.5444 -0.6852,-7.6001 -0.4361,-2.2427 -0.9345,-4.61 -0.8099,-9.7806 0.1869,-6.5411 0.623,-8.3477 1.0591,-10.2166 z m -10.9019,-26.6629 c 0.062,0 0.062,0 0.1246,0 3.6132,0 6.728,-1.1837 8.8461,-3.2394 1.9312,-1.9935 2.9902,-4.6723 2.9902,-7.9117 0,-5.669 -4.8591,-9.4691 -12.0232,-9.5314 -0.062,0 -0.062,0 -0.062,0 -2.7411,0 -5.6067,1.246 -7.5379,3.1772 -1.8689,1.9312 -2.8656,4.4853 -2.8033,7.4755 0.1246,6.8527 5.5444,9.9675 10.4658,10.0298 z m 30.2137,44.6043 c -0.062,0 -0.062,0 -0.062,0 -2.4918,0 -5.1706,1.1213 -6.9772,2.9902 -1.9312,1.9312 -2.9279,4.5477 -2.8656,7.6002 0.1246,6.9149 5.2329,9.3445 9.9674,9.4068 0,0 0.062,0 0.062,0 3.0526,0 5.7313,-1.0591 7.6625,-2.9903 1.8689,-1.8066 2.8656,-4.2984 2.8656,-7.0395 0,-6.0427 -4.1738,-9.9674 -10.6527,-9.9674 z"
         id="text13"
         aria-label="BOGAZiCi Üni." /><path
         style="font-size:124.593px;font-family:Ruchill;-inkscape-font-specification:Ruchill;letter-spacing:0px;stroke-width:10.3828"
         d="m 1176.8917,1560.7604 c -1.8066,-0.1246 -3.4886,0.2492 -5.4198,0.6852 -2.6164,0.5607 -5.7935,1.246 -10.5281,1.1214 -5.5444,-0.1246 -7.2264,-0.4984 -9.033,-0.9345 -1.4951,-0.3115 -3.0525,-0.6229 -6.728,-0.8721 -3.6755,-0.1869 -6.4165,0.5606 -8.2231,2.2426 -1.682,1.5575 -2.4919,3.987 -2.4919,7.1018 0,6.1051 3.1148,8.9707 9.9052,9.1576 3.8623,0.062 6.5411,-0.436 9.1575,-0.9344 2.5542,-0.4984 4.9215,-0.9345 8.0363,-0.8099 3.3017,0.1246 5.046,0.4984 6.9149,0.8722 1.7443,0.3115 3.5509,0.6852 6.728,0.8721 0.3115,0 0.5607,0 0.8099,0 5.2329,0 8.1608,-2.8656 8.5969,-8.41 0.2492,-3.8001 -1.059,-6.1674 -2.1804,-7.4756 -1.4328,-1.5574 -3.364,-2.5541 -5.5444,-2.6164 z"
         id="text14"
         aria-label="-" /><path
         style="font-size:124.593px;font-family:Ruchill;-inkscape-font-specification:Ruchill;letter-spacing:0px;stroke-width:10.3828"
         d="m 1381.32,1673.2136 c -0.062,0 -0.062,0 -0.062,0 -2.4919,0 -5.1706,1.1213 -6.9772,2.9902 -1.9312,1.9312 -2.928,4.5477 -2.8657,7.6002 0.1246,6.9149 5.2329,9.3445 9.9675,9.4068 0,0 0.062,0 0.062,0 3.0525,0 5.7312,-1.0591 7.6624,-2.9903 1.8689,-1.8066 2.8657,-4.2984 2.8657,-7.0395 0,-6.0427 -4.1739,-9.9674 -10.6527,-9.9674 z"
         id="text15"
         aria-label="." /></g><g
       id="g16"
       transform="matrix(5.8796298,0,0,5.8796298,137.66846,1979.3103)"><g
         id="g51"
         transform="translate(-20.161771,10.269765)"><path
           fill="#ffcc4d"
           d="m -195.1432,117.08533 a 4.9987353,4.9987353 0 0 1 -7.06664,0 l -17.66918,-17.669175 a 4.9961823,4.9961823 0 0 1 0,-7.066649 l 17.66789,-17.669177 a 4.9961823,4.9961823 0 0 1 7.06666,0 l 17.67045,17.669177 a 4.9987353,4.9987353 0 0 1 0,7.066649 z"
           id="path1-3"
           style="fill:#16357b;fill-opacity:1;stroke-width:1.27649"
           inkscape:export-filename="/home/doruk/Downloads/bounpred-logo.png"
           inkscape:export-xdpi="97.317261"
           inkscape:export-ydpi="97.317261" /><path
           d="m -196.77455,114.91146 a 2.6921176,2.6921176 0 0 1 -3.80395,0 l -17.12539,-17.126659 a 2.6870117,2.6870117 0 0 1 0,-3.803941 l 17.12539,-17.125392 a 2.6870117,2.6870117 0 0 1 3.80395,0 l 17.12666,17.125392 a 2.6921176,2.6921176 0 0 1 0,3.803941 z"
           fill="#000000"
           id="path2"
           style="fill:#ffffff;fill-opacity:1;stroke-width:1.27649" /><path
           fill="#ffcc4d"
           d="m -197.72554,112.05596 a 1.3403146,1.3403146 0 0 1 -1.90197,0 l -15.22341,-15.222145 a 1.3454206,1.3454206 0 0 1 0,-1.90197 l 15.22341,-15.223421 a 1.3454206,1.3454206 0 0 1 1.90197,0 l 15.22215,15.223421 a 1.3428676,1.3428676 0 0 1 0,1.90197 z"
           id="path3"
           style="fill:#008ad8;fill-opacity:1;stroke-width:1.27649" /><path
           d="m -188.51722,94.660044 -4.22148,-4.222645 c 0.63941,-0.41538 1.06295,-1.132963 1.06295,-1.952057 a 2.3335988,2.3335988 0 0 0 -4.66719,0 c 0,0.820261 0.42355,1.537842 1.06296,1.953223 l -3.75478,3.755928 -2.58678,-0.647574 a 2.3102627,2.3102627 0 0 0 0.6114,-1.561178 2.3336026,2.3336026 0 0 0 -4.6672,0 c 0,0.780588 0.38737,1.469001 0.97661,1.892549 l -4.01146,3.008008 a 1.1667993,1.1667993 0 1 0 1.40016,1.866878 l 2.0244,-1.519171 -1.62768,4.884225 a 1.1667993,1.1667993 0 0 0 1.10845,1.5355 c 0.4889,0 0.94394,-0.30919 1.1073,-0.79808 l 1.25664,-3.769935 1.33249,3.787435 a 1.1667993,1.1667993 0 1 0 2.20058,-0.77476 l -2.20641,-6.270379 3.15618,0.789923 a 1.1632989,1.1632989 0 0 0 1.10846,-0.306867 l 2.16792,-2.166748 -1.79804,8.090591 a 1.1670497,1.1670497 0 0 0 2.27876,0.50522 l 1.19363,-5.376611 1.19364,5.375441 a 1.1691329,1.1691329 0 0 0 2.27993,-0.50405 l -1.79804,-8.090591 2.16791,2.166748 a 1.166625,1.166625 0 1 0 1.64869,-1.651023 z"
           fill="#000000"
           id="path4"
           style="fill:#ffffff;fill-opacity:1;stroke-width:1.1668" /></g></g></g><style
     type="text/css"
     id="style1941">
	.st0{fill:none;stroke:#000000;stroke-width:2;stroke-linecap:round;stroke-linejoin:round;stroke-miterlimit:10;}
</style><style
     type="text/css"
     id="style1941-0">
	.st0{fill:none;stroke:#000000;stroke-width:2;stroke-linecap:round;stroke-linejoin:round;stroke-miterlimit:10;}
</style><style
     type="text/css"
     id="style1941-7">
	.st0{fill:none;stroke:#000000;stroke-width:2;stroke-linecap:round;stroke-linejoin:round;stroke-miterlimit:10;}
</style><style
     type="text/css"
     id="style22485">
	.st0{fill:none;stroke:#6C3DB7;stroke-width:4;stroke-linecap:round;stroke-linejoin:round;stroke-miterlimit:10;}
	.st1{fill:none;stroke:#1F992A;stroke-width:4;stroke-linecap:round;stroke-linejoin:round;stroke-miterlimit:10;}
	.st2{fill:none;stroke:#6A83BA;stroke-width:4;stroke-linecap:round;stroke-linejoin:round;stroke-miterlimit:10;}
	.st3{fill:#8A8AFF;stroke:#8A8AFF;stroke-width:2;stroke-linecap:round;stroke-linejoin:round;stroke-miterlimit:10;}
	.st4{fill:#6C3DB7;stroke:#6C3DB7;stroke-width:2;stroke-linecap:round;stroke-linejoin:round;stroke-miterlimit:10;}
	.st5{fill:#A576FF;stroke:#A576FF;stroke-width:2;stroke-linecap:round;stroke-linejoin:round;stroke-miterlimit:10;}
	.st6{fill:#F2BB41;stroke:#F2BB41;stroke-width:2;stroke-linecap:round;stroke-linejoin:round;stroke-miterlimit:10;}
	.st7{fill:#E08838;stroke:#E08838;stroke-width:2;stroke-linecap:round;stroke-linejoin:round;stroke-miterlimit:10;}
	.st8{fill:#1F992A;stroke:#1F992A;stroke-width:2;stroke-linecap:round;stroke-linejoin:round;stroke-miterlimit:10;}
	.st9{fill:#5EC11E;stroke:#5EC11E;stroke-width:2;stroke-linecap:round;stroke-linejoin:round;stroke-miterlimit:10;}
	.st10{fill:#E3FAFF;stroke:#E3FAFF;stroke-width:2;stroke-linecap:round;stroke-linejoin:round;stroke-miterlimit:10;}
	.st11{fill:#FF5093;stroke:#FF5093;stroke-width:2;stroke-linecap:round;stroke-linejoin:round;stroke-miterlimit:10;}
	.st12{fill:#B7257F;stroke:#B7257F;stroke-width:2;stroke-linecap:round;stroke-linejoin:round;stroke-miterlimit:10;}
	.st13{fill:#5189E5;stroke:#5189E5;stroke-width:2;stroke-linecap:round;stroke-linejoin:round;stroke-miterlimit:10;}
	.st14{fill:#6EBAFF;stroke:#6EBAFF;stroke-width:2;stroke-linecap:round;stroke-linejoin:round;stroke-miterlimit:10;}
	.st15{fill:#EDD977;stroke:#EDD977;stroke-width:2;stroke-linecap:round;stroke-linejoin:round;stroke-miterlimit:10;}
	.st16{fill:#8C43FF;stroke:#8C43FF;stroke-width:2;stroke-linecap:round;stroke-linejoin:round;stroke-miterlimit:10;}
	.st17{fill:#5252BA;stroke:#5252BA;stroke-width:2;stroke-linecap:round;stroke-linejoin:round;stroke-miterlimit:10;}
	.st18{fill:none;stroke:#E3FAFF;stroke-width:4;stroke-linecap:round;stroke-linejoin:round;stroke-miterlimit:10;}
	.st19{fill:#354C75;stroke:#354C75;stroke-width:2;stroke-linecap:round;stroke-linejoin:round;stroke-miterlimit:10;}
</style><style
     type="text/css"
     id="style23106">
	.st0{fill:none;stroke:#000000;stroke-width:2;stroke-linecap:round;stroke-linejoin:round;stroke-miterlimit:10;}
	.st1{fill:none;stroke:#000000;stroke-width:2;stroke-linejoin:round;stroke-miterlimit:10;}
</style><style
     type="text/css"
     id="style1941-1">
	.st0{fill:none;stroke:#000000;stroke-width:2;stroke-linecap:round;stroke-linejoin:round;stroke-miterlimit:10;}
</style><style
     type="text/css"
     id="style1941-0-8">
	.st0{fill:none;stroke:#000000;stroke-width:2;stroke-linecap:round;stroke-linejoin:round;stroke-miterlimit:10;}
</style><style
     type="text/css"
     id="style1941-7-7">
	.st0{fill:none;stroke:#000000;stroke-width:2;stroke-linecap:round;stroke-linejoin:round;stroke-miterlimit:10;}
</style><style
     type="text/css"
     id="style22485-9">
	.st0{fill:none;stroke:#6C3DB7;stroke-width:4;stroke-linecap:round;stroke-linejoin:round;stroke-miterlimit:10;}
	.st1{fill:none;stroke:#1F992A;stroke-width:4;stroke-linecap:round;stroke-linejoin:round;stroke-miterlimit:10;}
	.st2{fill:none;stroke:#6A83BA;stroke-width:4;stroke-linecap:round;stroke-linejoin:round;stroke-miterlimit:10;}
	.st3{fill:#8A8AFF;stroke:#8A8AFF;stroke-width:2;stroke-linecap:round;stroke-linejoin:round;stroke-miterlimit:10;}
	.st4{fill:#6C3DB7;stroke:#6C3DB7;stroke-width:2;stroke-linecap:round;stroke-linejoin:round;stroke-miterlimit:10;}
	.st5{fill:#A576FF;stroke:#A576FF;stroke-width:2;stroke-linecap:round;stroke-linejoin:round;stroke-miterlimit:10;}
	.st6{fill:#F2BB41;stroke:#F2BB41;stroke-width:2;stroke-linecap:round;stroke-linejoin:round;stroke-miterlimit:10;}
	.st7{fill:#E08838;stroke:#E08838;stroke-width:2;stroke-linecap:round;stroke-linejoin:round;stroke-miterlimit:10;}
	.st8{fill:#1F992A;stroke:#1F992A;stroke-width:2;stroke-linecap:round;stroke-linejoin:round;stroke-miterlimit:10;}
	.st9{fill:#5EC11E;stroke:#5EC11E;stroke-width:2;stroke-linecap:round;stroke-linejoin:round;stroke-miterlimit:10;}
	.st10{fill:#E3FAFF;stroke:#E3FAFF;stroke-width:2;stroke-linecap:round;stroke-linejoin:round;stroke-miterlimit:10;}
	.st11{fill:#FF5093;stroke:#FF5093;stroke-width:2;stroke-linecap:round;stroke-linejoin:round;stroke-miterlimit:10;}
	.st12{fill:#B7257F;stroke:#B7257F;stroke-width:2;stroke-linecap:round;stroke-linejoin:round;stroke-miterlimit:10;}
	.st13{fill:#5189E5;stroke:#5189E5;stroke-width:2;stroke-linecap:round;stroke-linejoin:round;stroke-miterlimit:10;}
	.st14{fill:#6EBAFF;stroke:#6EBAFF;stroke-width:2;stroke-linecap:round;stroke-linejoin:round;stroke-miterlimit:10;}
	.st15{fill:#EDD977;stroke:#EDD977;stroke-width:2;stroke-linecap:round;stroke-linejoin:round;stroke-miterlimit:10;}
	.st16{fill:#8C43FF;stroke:#8C43FF;stroke-width:2;stroke-linecap:round;stroke-linejoin:round;stroke-miterlimit:10;}
	.st17{fill:#5252BA;stroke:#5252BA;stroke-width:2;stroke-linecap:round;stroke-linejoin:round;stroke-miterlimit:10;}
	.st18{fill:none;stroke:#E3FAFF;stroke-width:4;stroke-linecap:round;stroke-linejoin:round;stroke-miterlimit:10;}
	.st19{fill:#354C75;stroke:#354C75;stroke-width:2;stroke-linecap:round;stroke-linejoin:round;stroke-miterlimit:10;}
</style><style
     type="text/css"
     id="style23106-2">
	.st0{fill:none;stroke:#000000;stroke-width:2;stroke-linecap:round;stroke-linejoin:round;stroke-miterlimit:10;}
	.st1{fill:none;stroke:#000000;stroke-width:2;stroke-linejoin:round;stroke-miterlimit:10;}
</style><style
     type="text/css"
     id="style4736">
<![CDATA[
	.st0{fill:#D1D1D1;}
	.st1{fill:#454545;}
]]>
</style><style
     type="text/css"
     id="style1">
	.st0{fill:none;stroke:#000000;stroke-width:2;stroke-linecap:round;stroke-linejoin:round;stroke-miterlimit:10;}
</style><style
     type="text/css"
     id="style1-4">
	.linesandangles_een{fill:#111918;}
</style><style
     type="text/css"
     id="style1-2">
	.st0{fill:#000000;}
</style><style
     type="text/css"
     id="style1-5">
	.st0{fill:#000000;}
</style><style
     type="text/css"
     id="style1-1">
	.st0{fill:#000000;}
</style><style
     type="text/css"
     id="style1-0">
	.st0{fill:#F26E91;}
	.st1{fill:#00A779;}
	.st2{fill:#C4FFC9;}
	.st3{fill:#AB630A;}
	.st4{fill:#C98C40;}
	.st5{fill:#15AA78;}
	.st6{fill:#FF9000;}
	.st7{fill:#FCEECF;}
	.st8{fill:#FFE940;}
	.st9{fill:#F0E3CE;}
	.st10{fill:#FFB5C5;}
	.st11{fill:#91EDFF;}
	.st12{fill:#7191F0;}
	.st13{fill:#363636;}
	.st14{fill:#565656;}
	.st15{fill:#F3DF4D;}
	.st16{fill:#CD4A77;}
	.st17{fill:#577AE6;}
	.st18{fill:#F4D100;}
</style><style
     type="text/css"
     id="style1-56">
	.st0{fill:#000000;}
</style></svg>
