<?xml version="1.0" encoding="UTF-8" standalone="no"?>
<svg
   xmlns:dc="http://purl.org/dc/elements/1.1/"
   xmlns:cc="http://creativecommons.org/ns#"
   xmlns:rdf="http://www.w3.org/1999/02/22-rdf-syntax-ns#"
   xmlns:svg="http://www.w3.org/2000/svg"
   xmlns="http://www.w3.org/2000/svg"
   xmlns:sodipodi="http://sodipodi.sourceforge.net/DTD/sodipodi-0.dtd"
   xmlns:inkscape="http://www.inkscape.org/namespaces/inkscape"
   version="1.1"
   id="Capa_1"
   x="0px"
   y="0px"
   viewBox="0 0 511.999 511.999"
   style="enable-background:new 0 0 511.999 511.999;"
   xml:space="preserve"
   sodipodi:docname="book-repo.svg"
   inkscape:version="1.0.1 (1.0.1+r74)"><metadata
   id="metadata61"><rdf:RDF><cc:Work
       rdf:about=""><dc:format>image/svg+xml</dc:format><dc:type
         rdf:resource="http://purl.org/dc/dcmitype/StillImage" /></cc:Work></rdf:RDF></metadata><defs
   id="defs59" /><sodipodi:namedview
   pagecolor="#ffffff"
   bordercolor="#666666"
   borderopacity="1"
   objecttolerance="10"
   gridtolerance="10"
   guidetolerance="10"
   inkscape:pageopacity="0"
   inkscape:pageshadow="2"
   inkscape:window-width="1920"
   inkscape:window-height="1008"
   id="namedview57"
   showgrid="false"
   inkscape:zoom="1.1670047"
   inkscape:cx="159.36348"
   inkscape:cy="279.20929"
   inkscape:window-x="0"
   inkscape:window-y="0"
   inkscape:window-maximized="1"
   inkscape:current-layer="Capa_1"
   showguides="true"
   inkscape:guide-bbox="true" />
<g
   id="g6">
	<g
   id="g4">
		<path
   id="path2"
   d="m 412.25,4 c -90.17012,-3.551e-4 -180.34049,-0.00467 -270.51045,0.029548 -0.6634,0.023246 -1.10908,0.024727 -1.69018,0.064431 -4.56328,0.2437152 -9.09381,1.0488321 -13.46929,2.3650054 -0.46502,0.1433959 -1.27457,0.3927818 -1.86472,0.5979437 -12.20822,4.0697739 -22.95089,12.3232339 -30.062815,23.0443829 -5.912385,8.819801 -9.382757,19.270093 -9.781317,29.88969 -0.200253,4.971823 -0.0032,9.948901 -0.0724,14.923061 2.03e-4,99.030808 -0.0044,198.061818 0.02297,297.092508 0.26615,15.51179 7.114978,30.7571 18.465418,41.32146 9.92717,9.34554 23.1851,15.14146 36.82741,15.79033 5.0948,0.25527 10.19783,0.032 15.29631,0.10625 3.68594,0 7.37187,0 11.05781,0 0.0108,22.19192 -0.0417,44.38549 0.0546,66.57635 0.44036,6.03286 5.49266,11.4116 11.53604,12.06899 3.91193,0.52127 7.97278,-0.79059 10.927,-3.38747 17.60914,-13.16568 35.22006,-26.32898 52.82808,-39.49615 18.32025,13.68325 36.60203,27.42089 54.97603,41.03017 5.13986,3.26783 12.53591,2.38047 16.65334,-2.14786 2.70039,-2.81688 4.02488,-6.81656 3.71829,-10.69012 0,-21.31732 0,-42.63464 0,-63.95196 27.56765,-0.0125 55.13662,0.0446 82.70343,-0.051 6.32537,-0.39783 11.97463,-5.94038 12.20282,-12.3299 0.21268,-3.63235 0.002,-7.27233 0.0781,-10.9082 0,-22.40885 0,-44.81771 0,-67.22656 3.30559,-0.45224 6.81113,-0.90146 9.54947,-2.98287 3.79228,-2.72774 5.88417,-7.52087 5.50326,-12.15502 -0.002,-102.32647 0.003,-204.65332 -0.023,-306.979545 C 426.9163,10.378564 421.72857,4.7137888 415.49474,4.1268985 414.41934,3.9908516 413.33265,3.9647191 412.25,4 Z M 143.3418,30.75 c 7.1276,0 14.25521,0 21.38281,0 0,93.59701 0,187.19401 0,280.79102 -8.37674,0.0811 -16.75953,-0.16145 -25.13167,0.17567 -8.3897,0.56102 -16.57018,3.11693 -24.00772,6.99155 -1.3456,0.65362 -2.69094,1.30776 -4.03639,1.96168 0.002,-86.41543 -0.003,-172.83119 0.0273,-259.246407 0.28799,-11.414344 7.34397,-22.353512 17.61823,-27.333445 4.37644,-2.178287 9.25728,-3.340019 14.14743,-3.340068 z m 50.13281,0 c 68.99154,0 137.98307,0 206.97461,0 0,93.59831 0,187.19661 0,280.79492 -69.6582,0 -139.31641,0 -208.97461,0 0,-93.59831 0,-187.19661 0,-280.79492 0.66667,0 1.33333,0 2,0 z m -49.55469,307.54297 c 80.49219,0 160.98438,0 241.47656,0 0,21.39388 0,42.78776 0,64.18164 -22.74479,0 -45.48958,0 -68.23437,0 -0.0465,-8.05495 0.1,-16.11297 -0.0978,-24.1657 -0.6624,-6.17187 -6.17967,-11.50684 -12.43565,-11.68119 -3.35706,-0.18403 -6.72006,0.0211 -10.07982,-0.0613 -38.55207,0.006 -77.10474,-0.018 -115.65642,0.038 -6.39141,0.33445 -12.13717,5.92152 -12.34395,12.37669 -0.22138,3.45394 0.001,6.91709 -0.0797,10.37518 0,4.37279 0,8.74557 0,13.11836 -8.58232,-0.0511 -17.16837,0.11091 -25.74809,-0.10895 -11.34483,-0.84106 -21.90267,-8.34326 -26.43415,-18.77831 -4.02856,-9.00521 -3.58261,-19.88246 1.26364,-28.48864 4.59402,-8.40247 13.06342,-14.61421 22.51977,-16.26314 1.9276,-0.35982 3.88955,-0.53387 5.85,-0.5426 z m 51.29297,55.02344 c 31.73112,0 63.46224,0 95.19336,0 0,24.86849 0,49.73698 0,74.60547 -13.8492,-10.3408 -27.65151,-20.72155 -41.53582,-30.9888 -4.70827,-3.03361 -11.34511,-2.57962 -15.6014,1.06365 -13.37153,9.9489 -26.70409,19.95009 -40.05614,29.92515 0,-24.86849 0,-49.73698 0,-74.60547 0.66667,0 1.33333,0 2,0 z"
   style="fill:#9fe4d5;fill-opacity:1" />
	</g>
</g>
<g
   id="g12">
	<g
   id="g10">
		
	</g>
</g>
<g
   id="g18">
	<g
   id="g16">
		
	</g>
</g>
<g
   id="g24">
	<g
   id="g22">
		
	</g>
</g>
<g
   id="g26">
</g>
<g
   id="g28">
</g>
<g
   id="g30">
</g>
<g
   id="g32">
</g>
<g
   id="g34">
</g>
<g
   id="g36">
</g>
<g
   id="g38">
</g>
<g
   id="g40">
</g>
<g
   id="g42">
</g>
<g
   id="g44">
</g>
<g
   id="g46">
</g>
<g
   id="g48">
</g>
<g
   id="g50">
</g>
<g
   id="g52">
</g>
<g
   id="g54">
</g>
<g
   id="g1000"
   transform="matrix(0.29578893,0,0,0.29578893,-289.31919,32.818739)"><g
     id="g934">
	<g
   id="Layer_1_28_">
		<g
   id="g931">
			<path
   d="m 503.625,121.125 c -7.65,-12.75 -22.95,-16.575 -35.7,-8.925 -12.75,7.65 -16.575,24.225 -8.925,35.7 17.85,30.6 28.05,65.025 28.05,102 v 300.901 c 0,14.023 11.476,26.773 26.775,26.773 15.299,0 26.775,-11.474 26.775,-26.773 V 249.9 C 539.326,204 526.576,159.375 503.625,121.125 Z"
   id="path913" />
			<path
   d="m 290.701,52.275 c 35.7,0 70.125,10.2 100.725,28.05 12.75,7.65 28.05,3.825 35.7,-8.925 7.65,-12.75 3.825,-28.05 -8.925,-35.7 C 379.951,12.75 335.326,0 290.701,0 153,0 40.8,112.2 40.8,249.9 v 98.174 c 0,14.025 11.475,26.775 26.775,26.775 15.3,0 26.775,-11.475 26.775,-26.775 V 249.9 C 93.076,141.525 182.326,52.275 290.701,52.275 Z"
   id="path915" />
			<path
   d="m 430.951,415.65 c -14.025,0 -26.775,11.475 -26.775,26.775 v 109.648 c 0,14.025 11.476,26.775 26.775,26.775 14.024,0 26.774,-11.475 26.774,-26.775 V 442.426 c 0,-15.301 -11.475,-26.776 -26.774,-26.776 z"
   id="path917" />
			<path
   d="M 175.951,415.65 V 332.775 C 175.951,318.75 164.476,306 149.176,306 c -15.3,0 -26.775,11.475 -26.775,26.775 v 82.875 c 0,14.025 11.475,26.775 26.775,26.775 15.3,10e-4 26.775,-12.749 26.775,-26.775 z"
   id="path919" />
			<path
   d="m 290.701,84.15 c -91.8,0 -167.025,75.225 -167.025,167.025 0,14.025 11.475,26.775 26.775,26.775 14.025,0 26.775,-11.475 26.775,-26.775 0,-63.75 51,-114.75 114.75,-114.75 63.75,0 114.75,51 114.75,114.75 v 96.899 c 0,14.025 11.476,26.775 26.775,26.775 14.025,0 26.775,-11.475 26.775,-26.775 V 251.175 C 457.725,159.375 382.5,84.15 290.701,84.15 Z"
   id="path921" />
			<path
   d="m 344.25,504.9 c -16.575,8.924 -34.425,12.75 -53.55,12.75 -33.15,0 -65.025,-15.301 -87.975,-40.801 -8.925,-11.475 -25.5,-12.75 -36.975,-2.549 -11.475,8.924 -12.75,25.5 -2.55,36.975 31.875,36.975 77.775,58.65 127.5,58.65 26.774,0 53.55,-6.375 77.774,-19.125 12.75,-6.375 17.851,-22.951 11.476,-35.701 C 372.3,502.35 357,498.525 344.25,504.9 Z"
   id="path923" />
			<path
   d="m 346.8,328.949 c 14.025,0 26.775,-11.475 26.775,-26.773 v -38.25 c 0,-45.9 -36.976,-82.875 -82.875,-82.875 -45.9,0 -82.875,36.975 -82.875,82.875 0,14.025 11.475,26.775 26.775,26.775 14.025,0 26.775,-11.475 26.775,-26.775 0,-16.575 14.025,-30.6 30.6,-30.6 16.575,0 30.601,14.025 30.601,30.6 v 38.25 c -1.276,15.299 10.2,26.773 24.224,26.773 z"
   id="path925" />
			<path
   d="m 207.826,390.15 c 0,45.9 36.975,82.875 82.875,82.875 45.899,0 82.875,-36.975 82.875,-82.875 0,-14.025 -11.476,-26.775 -26.775,-26.775 -14.024,0 -26.774,11.475 -26.774,26.775 0,16.574 -14.025,30.6 -30.601,30.6 -16.575,0 -30.6,-14.025 -30.6,-30.6 V 351.9 c 0,-14.025 -11.475,-26.775 -26.775,-26.775 -14.025,0 -26.775,11.475 -26.775,26.775 z"
   id="path927" />
			<path
   d="m 67.576,409.275 c -14.025,0 -26.775,11.475 -26.775,26.775 v 118.574 c 0,14.025 11.475,26.775 26.775,26.775 14.025,0 26.775,-11.475 26.775,-26.775 V 436.051 C 93.076,422.025 81.601,409.275 67.576,409.275 Z"
   id="path929" />
		</g>
	</g>
</g><g
     id="g936">
</g><g
     id="g938">
</g><g
     id="g940">
</g><g
     id="g942">
</g><g
     id="g944">
</g><g
     id="g946">
</g><g
     id="g948">
</g><g
     id="g950">
</g><g
     id="g952">
</g><g
     id="g954">
</g><g
     id="g956">
</g><g
     id="g958">
</g><g
     id="g960">
</g><g
     id="g962">
</g><g
     id="g964">
</g></g><g
   id="g1075"
   transform="matrix(0.29449354,0,0,0.29449354,218.2226,90.72249)"><g
     id="g1015">
	<g
   id="g1013">
		<g
   id="g1011">
			
			
			
		</g>
	</g>
</g><g
     id="g1017">
</g><g
     id="g1019">
</g><g
     id="g1021">
</g><g
     id="g1023">
</g><g
     id="g1025">
</g><g
     id="g1027">
</g><g
     id="g1029">
</g><g
     id="g1031">
</g><g
     id="g1033">
</g><g
     id="g1035">
</g><g
     id="g1037">
</g><g
     id="g1039">
</g><g
     id="g1041">
</g><g
     id="g1043">
</g><g
     id="g1045">
</g></g><g
   inkscape:groupmode="layer"
   id="layer1"
   inkscape:label="Layer 1" /></svg>
