<?xml version='1.0' encoding='utf-8'?>
<!DOCTYPE svg PUBLIC '-//W3C//DTD SVG 1.1//EN' 'http://www.w3.org/Graphics/SVG/1.1/DTD/svg11.dtd'>
<svg version="1.1" xmlns="http://www.w3.org/2000/svg" viewBox="0 0 512 512" xmlns:xlink="http://www.w3.org/1999/xlink" enable-background="new 0 0 512 512">
  <g>
    <path d="m495,179.8l-162.9-162.9c-7.7-7.7-21.2-7.7-28.9-7.10543e-15l-21.7,21.7c-45.7,45.7-63.7,114.5-51,191.9-16.1-2.6-31.9-4-47.2-4-58.7,0-108.7,19-144.6,54.9l-21.7,21.7c-11.2,12.1-4.2,25.1 0,28.9l162.9,162.9c10.5,10.3 24.3,5.1 28.9,0l21.7-21.7c45.7-45.7 63.7-114.5 51-191.9 16.1,2.6 31.9,4 47.2,4 58.7,0 108.7-19 144.6-54.9l21.7-21.7c8-8 8-21 5.68434e-14-28.9zm-256.6,93.7c4.1,19 6.2,37.5 6.2,55l-136.9-45.9c22-10.1 47.5-15.3 75.6-15.3 17.7,0 36.2,2.1 55.1,6.2zm-36.8,170.8l-7.3,7.3-134-134 5.8-5.8 174.2,58.4c-6.1,29.2-19.2,54.6-38.7,74.1zm242.8-242.8c-28.1,28.1-68.1,43-115.8,43-17.7,0-36.1-2.1-55.1-6.2-15.2-70.2-2.1-132 36.8-170.8l7.3-7.3 134,134-7.2,7.3z"/>
  </g>
</svg>
