<svg id="Layer_1" enable-background="new 0 0 511.999 511.999" height="512" viewBox="0 0 511.999 511.999" width="512" xmlns="http://www.w3.org/2000/svg"><path d="m441.312 109.803c-17.86-17.86-42.544-24.992-65.948-21.405 3.586-23.404-3.546-48.088-21.405-65.948-26.609-26.609-68.055-29.564-97.959-8.866-29.905-20.698-71.35-17.744-97.959 8.866-17.86 17.86-24.992 42.544-21.405 65.948-23.404-3.586-48.088 3.546-65.948 21.405-26.609 26.609-29.563 68.054-8.866 97.959-20.698 29.905-17.744 71.35 8.866 97.959 17.86 17.86 42.544 24.992 65.948 21.405-3.586 23.404 3.546 48.088 21.405 65.948 22.369 22.37 55.222 28.015 82.891 16.952v22.786c0 27.122-22.065 49.187-49.187 49.187h-.008c-8.284 0-14.996 6.716-14.996 15s6.72 15 15.004 15c43.664 0 79.187-35.523 79.187-79.187v-22.838c27.697 11.137 60.621 5.507 83.027-16.9 17.86-17.86 24.992-42.544 21.405-65.948 23.404 3.586 48.088-3.546 65.948-21.405 26.609-26.609 29.563-68.054 8.866-97.959 20.697-29.904 17.743-71.35-8.866-97.959zm-262.059-66.14c18.24-18.24 47.915-18.234 66.15 0 2.813 2.813 6.618 4.394 10.596 4.394s7.783-1.58 10.596-4.394c18.235-18.234 47.91-18.24 66.15 0 18.121 18.121 18.091 47.826-.067 66.217l-76.678 76.67-76.679-76.67c-18.158-18.391-18.188-48.096-.068-66.217zm-87.353 240.845c-18.24-18.24-18.234-47.915 0-66.15 2.813-2.813 4.394-6.618 4.394-10.596s-1.58-7.783-4.394-10.596c-18.234-18.235-18.24-47.91 0-66.15 18.121-18.121 47.826-18.091 66.217.067l76.67 76.679-76.67 76.679c-18.391 18.158-48.096 18.188-66.217.067zm240.846 87.354c-18.24 18.24-47.915 18.234-66.15 0-2.813-2.813-6.618-4.394-10.596-4.394s-7.783 1.58-10.596 4.394c-18.235 18.234-47.91 18.24-66.15 0-18.121-18.121-18.091-47.826.067-66.217l76.679-76.67 76.679 76.67c18.157 18.391 18.187 48.096.067 66.217zm87.353-153.503c18.234 18.235 18.24 47.91 0 66.15-18.121 18.121-47.826 18.091-66.217-.067l-76.67-76.679 76.67-76.679c18.391-18.158 48.096-18.188 66.217-.067 18.24 18.24 18.234 47.915 0 66.15-2.813 2.813-4.394 6.618-4.394 10.596s1.581 7.783 4.394 10.596z"/></svg>