<svg id="Capa_1" enable-background="new 0 0 512 512" height="512" viewBox="0 0 512 512" width="512" xmlns="http://www.w3.org/2000/svg"><g><path d="m256 512c140.96 0 256-115.049 256-256 0-140.96-115.049-256-256-256-140.96 0-256 115.049-256 256 0 140.96 115.049 256 256 256zm0-482c124.617 0 226 101.383 226 226s-101.383 226-226 226-226-101.383-226-226 101.383-226 226-226z"/><path d="m223.503 448.081c9.106 1.538 17.497-5.475 17.497-14.791v-354.58c0-9.263-8.336-16.337-17.497-14.791-69.68 11.764-127.669 60.45-151.337 127.058-3.463 9.747 3.767 20.023 14.134 20.023h79.7c8.284 0 15-6.716 15-15v-30c0-8.284-6.716-15-15-15s-15 6.716-15 15v15h-41.923c20.864-40.702 57.826-71.064 101.923-83.556v143.556h-135c-8.284 0-15 6.716-15 15s6.716 15 15 15h135v143.556c-44.097-12.493-81.059-42.854-101.923-83.556h41.923v15c0 8.284 6.716 15 15 15s15-6.716 15-15v-30c0-8.284-6.716-15-15-15h-79.7c-10.342 0-17.605 10.254-14.134 20.022 23.668 66.608 81.657 115.294 151.337 127.059z"/><path d="m288.497 448.081c69.68-11.765 127.669-60.45 151.337-127.058 3.463-9.747-3.767-20.023-14.134-20.023h-79.701c-8.279 0-14.999 6.717-14.999 15l.001 30c0 8.284 6.715 15 15 15 8.284 0 14.999-6.716 14.999-15l-.001-15h41.924c-20.864 40.702-57.826 71.064-101.923 83.557v-143.557h135c8.284 0 15-6.716 15-15s-6.716-15-15-15h-135v-143.556c44.097 12.493 81.059 42.854 101.924 83.556h-41.924v-15c0-8.284-6.716-15-15-15s-15 6.716-15 15v30c0 8.284 6.716 15 15 15h79.701c10.343 0 17.605-10.254 14.134-20.023-23.669-66.608-81.658-115.294-151.338-127.058-9.115-1.54-17.497 5.482-17.497 14.791v354.58c0 9.306 8.379 16.331 17.497 14.791z"/></g></svg>