<?xml version="1.0" encoding="UTF-8" standalone="no"?>
<!-- Created with Inkscape (http://www.inkscape.org/) -->

<svg
   width="800mm"
   height="200mm"
   viewBox="0 0 800 200"
   version="1.1"
   id="svg5"
   inkscape:version="1.1 (c4e8f9e, 2021-05-24)"
   sodipodi:docname="superbook-logo.svg"
   inkscape:export-filename="/media/doruk/DorkoduStorage/Tasarım/Projeler/Superbook/superbook-logo-s.png"
   inkscape:export-xdpi="12.7"
   inkscape:export-ydpi="12.7"
   xmlns:inkscape="http://www.inkscape.org/namespaces/inkscape"
   xmlns:sodipodi="http://sodipodi.sourceforge.net/DTD/sodipodi-0.dtd"
   xmlns="http://www.w3.org/2000/svg"
   xmlns:svg="http://www.w3.org/2000/svg">
  <sodipodi:namedview
     id="namedview7"
     pagecolor="#ffffff"
     bordercolor="#111111"
     borderopacity="1"
     inkscape:pageshadow="0"
     inkscape:pageopacity="0"
     inkscape:pagecheckerboard="1"
     inkscape:document-units="mm"
     showgrid="false"
     width="750mm"
     inkscape:zoom="0.25134134"
     inkscape:cx="1647.1624"
     inkscape:cy="680.34967"
     inkscape:window-width="1920"
     inkscape:window-height="970"
     inkscape:window-x="0"
     inkscape:window-y="0"
     inkscape:window-maximized="1"
     inkscape:current-layer="g1006" />
  <defs
     id="defs2">
    <rect
       x="3410.6216"
       y="702.75388"
       width="3153.888"
       height="1089.67"
       id="rect140997" />
    <rect
       x="1216.0161"
       y="341.08645"
       width="1071.2115"
       height="322.04749"
       id="rect79519" />
    <rect
       x="2928.0091"
       y="364.39061"
       width="1900.9682"
       height="383.09033"
       id="rect49392" />
    <rect
       x="2128.8402"
       y="276.26748"
       width="1117.001"
       height="337.75593"
       id="rect48960" />
    <rect
       x="3179.2903"
       y="912.9185"
       width="2144.316"
       height="998.07671"
       id="rect46500" />
    <rect
       x="1795.4638"
       y="237.75415"
       width="1368.9277"
       height="567.01755"
       id="rect45484" />
    <rect
       x="1898.0708"
       y="23.878596"
       width="1525.9761"
       height="1095.3791"
       id="rect41816" />
  </defs>
  <g
     inkscape:label="Layer 1"
     inkscape:groupmode="layer"
     id="layer1">
    <g
       id="g1006"
       transform="matrix(0.3563015,0,0,0.3563015,5.3640937,9.081042)">
      <path
         id="path996"
         style="fill:#56dc56;fill-opacity:1"
         d="m 434.65625,-2.96875 c -104.89841,0.00323 -209.79693,-0.00781 -314.69527,0.012389 C 105.11007,-2.7798496 90.424541,2.9518518 79.333244,12.82118 68.19772,22.640238 60.644289,36.481536 58.646337,51.212081 c -0.714763,4.799868 -0.637458,9.661232 -0.615087,14.499638 0.003,129.075881 -0.0074,258.151871 0.01214,387.227691 0.150838,14.73786 5.772931,29.3226 15.489279,40.39739 9.692616,11.16169 23.41068,18.77236 38.047893,20.93154 6.2635,0.98431 12.61897,0.64462 18.93194,0.70041 102.05035,-0.004 204.10087,0.008 306.15111,-0.013 6.83239,-0.16738 13.31101,-4.6557 15.9033,-10.97468 1.24824,-2.89954 1.5349,-6.10017 1.40184,-9.22482 -0.002,-160.10661 0.006,-320.21335 -0.0112,-480.319874 C 453.8323,7.568704 449.3313,1.0377736 442.98107,-1.5669097 440.36102,-2.6667435 437.4868,-3.0890254 434.65625,-2.96875 Z m -16.625,35.9375 c 0,118.6875 0,237.375 0,356.0625 -88.02083,0 -176.04167,0 -264.0625,0 0,-118.6875 0,-237.375 0,-356.0625 88.02083,0 176.04167,0 264.0625,0 z m -300,356.13477 c -8.31689,0.38405 -16.55444,2.45346 -24.0625,6.05273 0.0032,-111.95217 -0.0077,-223.90452 0.01231,-335.856571 0.151872,-8.980233 5.193746,-17.671288 12.870941,-22.318538 3.38177,-2.083048 7.22848,-3.419417 11.17925,-3.844422 0,118.655601 0,237.311201 0,355.966801 z m 3.00977,35.86523 c 98.99674,0 197.99349,0 296.99023,0 0,18.02083 0,36.04167 0,54.0625 -99.27703,-0.003 -198.55427,0.008 -297.83117,-0.0147 -8.76843,-0.1824 -17.2395,-5.02163 -21.940145,-12.41188 -1.569932,-2.43266 -2.725811,-5.12644 -3.447435,-7.92894 -0.104803,-0.44194 -0.223192,-0.8923 -0.327089,-1.44202 -1.421055,-6.97258 0.0939,-14.47896 4.125917,-20.34509 0.312769,-0.46598 0.824428,-1.1789 1.258719,-1.71448 0.719573,-0.90253 1.334113,-1.57763 2.139723,-2.39099 4.98969,-4.98336 11.98037,-7.8473 19.03125,-7.81445 z" />
      <path
         id="path998"
         style="fill:#94eb94;fill-opacity:1"
         d="m 285.09766,57.689453 c -6.70593,0.161087 -13.1385,4.437199 -15.79353,10.613263 -6.80072,13.913532 -13.52007,27.86926 -20.29168,41.799174 -1.01717,2.09755 -2.03434,4.19509 -3.05151,6.29264 -17.83952,2.60049 -35.68104,5.15829 -53.51341,7.80443 -6.66321,1.2707 -12.31505,6.6633 -13.88828,13.26468 -1.60748,6.27729 0.50256,13.36003 5.37376,17.65819 12.50227,12.25879 25.07219,24.44935 37.60215,36.6809 -3.04096,17.79923 -6.13513,35.58876 -9.12693,53.39394 -0.86565,6.79509 2.60826,13.89956 8.49408,17.40143 5.45522,3.3708 12.75421,3.51073 18.28899,0.23753 15.51702,-8.10631 30.9964,-16.28689 46.49815,-24.42352 16.01791,8.40619 32.00602,16.86893 48.04942,25.2221 6.11624,2.83862 13.79709,1.77711 18.92259,-2.60404 4.97038,-4.10902 7.4421,-11.03844 6.05628,-17.35571 -2.43477,-14.48159 -4.95745,-28.93827 -7.42684,-43.42241 -0.48303,-2.81644 -0.96607,-5.63288 -1.4491,-8.44932 12.91879,-12.60709 25.87416,-25.17711 38.75784,-37.81853 4.65206,-4.94356 6.05226,-12.63462 3.44278,-18.90212 -2.38418,-6.02653 -8.26273,-10.50793 -14.72627,-11.1281 -17.29626,-2.553 -34.59982,-5.03864 -51.90209,-7.55945 -8.02343,-16.515387 -15.9908,-33.059121 -24.06238,-49.550064 -3.16599,-5.754013 -9.69017,-9.431649 -16.25402,-9.155013 z m 12.13672,82.960937 c 2.58793,5.48068 8.19897,9.38977 14.17969,10.03139 8.44727,1.22652 16.89453,2.45303 25.34179,3.67955 -6.53645,6.39516 -13.12669,12.73434 -19.60947,19.18235 -3.90425,4.28196 -5.41964,10.50978 -4.13414,16.13662 1.41324,8.24003 2.82647,16.48006 4.2397,24.72009 -8.1023,-4.24261 -16.17145,-8.55104 -24.30691,-12.72737 -5.27993,-2.38602 -11.66958,-1.90646 -16.62393,1.0577 -7.3987,3.88989 -14.79741,7.77978 -22.19611,11.66967 1.53259,-9.05613 3.15556,-18.09782 4.60742,-27.16601 0.59143,-5.72293 -1.83513,-11.59433 -6.15488,-15.36467 -5.98548,-5.83548 -11.97097,-11.67095 -17.95645,-17.50643 9.0811,-1.33749 18.17167,-2.59112 27.24024,-4.00976 5.67465,-1.20934 10.54453,-5.39006 12.77672,-10.72335 3.68315,-7.59678 7.3663,-15.19355 11.04945,-22.79033 3.84896,7.93685 7.69792,15.8737 11.54688,23.81055 z" />
      <path
         id="path1000"
         style="fill:#bff2bf;fill-opacity:1"
         d="m 286.37109,260.35352 c -6.75989,-0.0602 -13.32467,4.10563 -16.17352,10.23344 -1.47394,3.02682 -1.90258,6.44742 -1.74254,9.78101 0.0101,19.98625 -0.0297,39.97335 0.0294,59.95906 0.29504,6.84009 4.9254,13.24025 11.3076,15.70467 6.09508,2.46462 13.50762,1.2296 18.42853,-3.14841 4.14874,-3.58044 6.46703,-9.12423 6.17201,-14.59032 -0.0101,-20.32505 0.0297,-40.65095 -0.0294,-60.97547 -0.2992,-6.98395 -5.12586,-13.51272 -11.71419,-15.85192 -2.00594,-0.7392 -4.14072,-1.11193 -6.27796,-1.11206 z" />
      <path
         id="path1002"
         style="fill:#bff2bf;fill-opacity:1"
         d="m 230.3457,283.77539 c -6.75243,-0.057 -13.31059,4.09875 -16.16336,10.21657 -1.47533,3.03231 -1.91298,6.45778 -1.75088,9.79788 0.0143,10.07658 -0.0461,20.15479 0.0438,30.23031 0.40395,6.77634 5.04516,13.06359 11.38956,15.47141 6.07714,2.41375 13.43667,1.16985 18.33239,-3.18444 4.14895,-3.5804 6.46684,-9.12604 6.17204,-14.59228 -0.0175,-10.41342 0.0465,-20.82848 -0.0436,-31.24085 -0.40689,-6.88717 -5.19733,-13.27955 -11.70408,-15.58597 -2.0044,-0.73824 -4.14027,-1.11239 -6.27579,-1.11263 z" />
      <path
         id="path1004"
         style="fill:#bff2bf;fill-opacity:1"
         d="m 341.57617,283.77539 c -6.78192,-0.0584 -13.36732,4.13363 -16.20024,10.29432 -1.45017,3.01224 -1.87421,6.40717 -1.71392,9.71857 0.0173,10.0758 -0.0461,20.15322 0.0437,30.22797 0.401,6.81171 5.0907,13.12723 11.48074,15.51173 6.05963,2.36526 13.36816,1.1108 18.23926,-3.22086 4.14985,-3.57995 6.46747,-9.12611 6.17399,-14.59228 -0.0175,-10.41472 0.0465,-20.83108 -0.0436,-31.24476 -0.40992,-6.88616 -5.19953,-13.27383 -11.70386,-15.58262 -2.00498,-0.73902 -4.14015,-1.10713 -6.27601,-1.11207 z" />
    </g>
    <text
       xml:space="preserve"
       style="font-size:119.062px;line-height:0;font-family:Rubik;-inkscape-font-specification:Rubik;letter-spacing:0px;stroke-width:0.264583"
       x="202.7126"
       y="136.69743"
       id="text10558"><tspan
         sodipodi:role="line"
         style="font-style:normal;font-variant:normal;font-weight:600;font-stretch:normal;font-size:119.062px;font-family:Rubik;-inkscape-font-specification:'Rubik Semi-Bold';stroke-width:0.264583"
         x="202.7126"
         y="136.69743"
         dx="0 0 0 0 -7 -6 -6 -6 -7"
         id="tspan128617"><tspan
   dx="-9 -6 -7 -7"
   id="tspan128633"
   style="font-style:normal;font-variant:normal;font-weight:600;font-stretch:normal;font-size:119.062px;font-family:Rubik;-inkscape-font-specification:'Rubik Semi-Bold';stroke-width:0.264583">Supe</tspan>rbook</tspan></text>
    <text
       xml:space="preserve"
       transform="scale(0.26458333)"
       id="text41814"
       style="line-height:1.25;font-family:Rubik;font-size:146.66666667px;-inkscape-font-specification:Rubik;white-space:pre;shape-inside:url(#rect41816)" />
    <text
       xml:space="preserve"
       transform="scale(0.26458333)"
       id="text45482"
       style="line-height:1.25;font-family:Rubik;font-size:146.66666667px;-inkscape-font-specification:Rubik;white-space:pre;shape-inside:url(#rect45484)" />
    <text
       xml:space="preserve"
       transform="scale(0.26458333)"
       id="text46498"
       style="line-height:1.25;font-family:Rubik;font-size:146.66666667px;-inkscape-font-specification:Rubik;white-space:pre;shape-inside:url(#rect46500)" />
    <text
       xml:space="preserve"
       transform="scale(0.26458333)"
       id="text48958"
       style="line-height:1.25;font-family:Rubik;font-size:146.66666667px;-inkscape-font-specification:Rubik;white-space:pre;shape-inside:url(#rect48960)" />
    <text
       xml:space="preserve"
       transform="scale(0.26458333)"
       id="text49390"
       style="line-height:1.25;font-family:Rubik;font-size:146.66666667px;-inkscape-font-specification:Rubik;white-space:pre;shape-inside:url(#rect49392)" />
    <text
       xml:space="preserve"
       transform="scale(0.26458333)"
       id="text79517"
       style="line-height:1.25;font-family:Rubik;font-size:146.66666667px;-inkscape-font-specification:Rubik;white-space:pre;shape-inside:url(#rect79519)" />
    <text
       xml:space="preserve"
       style="font-size:38.8056px;line-height:1.25;font-family:Rubik;-inkscape-font-specification:Rubik;stroke-width:0.264583"
       x="672.98657"
       y="108.59903"
       id="text119625"><tspan
         sodipodi:role="line"
         id="tspan119623"
         style="stroke-width:0.264583"
         x="672.98657"
         y="108.59903" /></text>
    <text
       xml:space="preserve"
       transform="scale(0.26458333)"
       id="text140995"
       style="line-height:1.25;font-family:Rubik;font-size:146.66666667px;-inkscape-font-specification:Rubik;white-space:pre;shape-inside:url(#rect140997)" />
  </g>
</svg>
