<svg id="Capa_1" enable-background="new 0 0 513.387 513.387" height="512" viewBox="0 0 513.387 513.387" width="512" xmlns="http://www.w3.org/2000/svg"><g><path d="m401.797 293.822v-148.718c0-80.01-65.093-145.104-145.104-145.104s-145.103 65.094-145.103 145.104v148.717c-10.417 11.761-35.028 43.632-35.028 82.243 0 47.929 37.938 85.494 39.554 87.069l10.475 10.22 10.476-10.22c1.614-1.575 39.552-39.141 39.552-87.069 0-38.612-24.611-70.482-35.027-82.243v-60.473c23.678 30.812 59.421 51.891 100.104 56.089v44.416c-10.417 11.761-35.028 43.632-35.028 82.244 0 47.928 37.938 85.494 39.553 87.069l10.476 10.221 10.476-10.221c1.614-1.575 39.553-39.142 39.553-87.069 0-38.612-24.612-70.483-35.028-82.244v-44.416c40.683-4.197 76.426-25.277 100.104-56.089v60.473c-10.417 11.761-35.027 43.632-35.027 82.243 0 47.929 37.938 85.494 39.552 87.069l10.476 10.22 10.475-10.22c1.615-1.575 39.554-39.141 39.554-87.069-.007-38.611-24.618-70.481-35.035-82.242zm-275.183 135.239c-8.831-12.138-20.053-31.744-20.053-52.996 0-21.364 11.18-40.902 20.003-52.996 8.832 12.138 20.053 31.744 20.053 52.996 0 21.362-11.179 40.902-20.003 52.996zm236.407-239.889-50.478-29.144v-29.848l50.478-29.143c5.65 13.581 8.776 28.466 8.776 44.068s-3.126 30.486-8.776 44.067zm-15.041-114.093-50.437 29.12-25.85-14.924v-58.298c30.974 4.049 58.109 20.461 76.287 44.102zm-91.287 99.874-25.85-14.925v-29.848l25.85-14.925 25.85 14.925v29.849zm-15-143.976v58.298l-25.85 14.924-50.437-29.12c18.179-23.641 45.314-40.053 76.287-44.102zm-91.327 70.059 50.478 29.143v29.849l-50.478 29.144c-5.65-13.581-8.776-28.465-8.776-44.067 0-15.603 3.126-30.488 8.776-44.069zm15.041 114.093 50.437-29.12 25.85 14.924v58.298c-30.974-4.049-58.109-20.46-76.287-44.102zm91.311 253.964c-8.831-12.138-20.053-31.744-20.053-52.996 0-21.384 11.2-40.938 20.027-53.03 8.833 12.099 20.029 31.651 20.029 53.03.001 21.363-11.179 40.902-20.003 52.996zm14.975-209.862v-58.298l25.85-14.924 50.437 29.12c-18.178 23.642-45.313 40.053-76.287 44.102zm115.129 169.83c-8.832-12.138-20.053-31.744-20.053-52.996 0-21.362 11.18-40.902 20.003-52.996 8.831 12.138 20.053 31.744 20.053 52.996 0 21.364-11.179 40.902-20.003 52.996z"/></g></svg>