<?xml version="1.0" encoding="UTF-8" standalone="no"?>
<!-- Created with Inkscape (http://www.inkscape.org/) -->

<svg
   width="1182.4005"
   height="343.07312"
   viewBox="0 0 312.84344 90.771427"
   version="1.1"
   id="svg5"
   xml:space="preserve"
   xmlns:xlink="http://www.w3.org/1999/xlink"
   xmlns="http://www.w3.org/2000/svg"
   xmlns:svg="http://www.w3.org/2000/svg"><defs
     id="defs2"><linearGradient
       id="linearGradient43531"><stop
         style="stop-color:#2060df;stop-opacity:1;"
         offset="0"
         id="stop43527" /><stop
         style="stop-color:#a6d9f2;stop-opacity:1;"
         offset="1"
         id="stop43529" /></linearGradient><linearGradient
       id="linearGradient19172"><stop
         style="stop-color:#000000;stop-opacity:1;"
         offset="0"
         id="stop38996" /><stop
         style="stop-color:#000000;stop-opacity:0;"
         offset="1"
         id="stop38998" /></linearGradient><style
       id="style5220">.cls-1{fill:#c8c2e9;}.cls-2{fill:#dfdafd;}.cls-3{fill:#b9b1e0;}.cls-4{fill:#4d4c78;}.cls-5{fill:#67baeb;}.cls-6{fill:#de3226;}.cls-7{fill:#231f20;}.cls-8{fill:#f4c23f;}.cls-9{fill:#46a1f8;}.cls-10{fill:#b11a31;}.cls-11{fill:#f4a93f;}.cls-12{fill:#8a87b2;}.cls-13{fill:#83d0fb;}.cls-14{fill:#fad564;}.cls-15{fill:#f44533;}</style><linearGradient
       xlink:href="#linearGradient43531"
       id="linearGradient92470"
       gradientUnits="userSpaceOnUse"
       x1="1327.7985"
       y1="-2407.8552"
       x2="2295.3359"
       y2="-3375.3926" /></defs><g
     id="layer1"
     transform="translate(-1.8486577,354.05349)"><g
       id="g105510"><g
         aria-label="DERS-T"
         id="g64833"
         style="font-weight:bold;font-size:22.5778px;font-family:Rubik;-inkscape-font-specification:'Rubik Bold';opacity:1;stroke:#29293d;stroke-width:0;stroke-linecap:round;stroke-linejoin:round;stroke-opacity:1;paint-order:stroke fill markers"
         transform="matrix(0.358934,0,0,0.358934,27.145454,-253.78469)"><path
           id="path64831"
           style="font-weight:300;-inkscape-font-specification:'Rubik Light';fill:#ffffff;fill-opacity:1;stroke:#29293d;stroke-width:31.5755;stroke-linecap:round;stroke-linejoin:round;stroke-dasharray:none;stroke-opacity:1"
           d="m 583.47858,-208.74483 c -0.98257,0.005 -1.96687,0.0271 -2.94775,0.0216 -15.69877,-0.1623 -32.72135,9.68995 -35.88866,25.9312 -3.19361,13.41762 3.53031,28.91905 16.55249,34.31652 4.14338,2.27546 8.4632,3.88864 12.80244,5.36545 8.02794,2.73221 15.46723,3.60591 21.98644,10.12512 9.6144,9.6144 -17.64222,18.24969 -27.60971,4.62626 -3.29083,-4.49786 -3.149,-10.51659 -8.94602,-12.86194 -7.71858,-3.27232 -18.39578,2.52495 -17.92269,11.63236 0.26707,15.86895 14.54062,28.18223 29.39999,30.874769 14.2765,3.090307 30.51322,1.594815 42.49991,-7.310789 13.79386,-10.48221 16.16665,-32.91395 4.089,-45.57567 -8.93011,-8.74985 -21.70363,-11.45329 -33.11038,-15.55728 -4.63435,-1.93141 -11.53509,-3.13585 -13.60834,-6.89972 -1.67861,-3.54394 1.80118,-6.50857 5.10042,-7.77233 6.64113,-1.83296 15.23404,-1.71548 19.82116,4.19897 3.15202,5.08673 3.18978,10.24228 12.15339,12.42203 7.65045,1.31451 16.47656,-5.36057 14.61616,-13.5831 -1.85271,-17.4365 -19.23279,-29.71308 -36.04551,-29.87055 -0.97896,-0.0757 -1.95977,-0.0876 -2.94234,-0.0829 z m -103.04331,2.12383 c -1.93023,0.0113 -3.89953,0.0332 -5.90632,0.0451 -10.65087,0.0632 -23.39167,-1.03011 -27.57546,6.21642 -2.76802,6.6101 -0.82188,15.13869 -1.50182,22.68958 0.0568,23.66028 -0.30505,46.13691 0.39304,69.77247 0,13.85169 25.30199,14.12043 25.30199,0.33534 0.70275,-9.44859 0.0927,-15.80687 0.78426,-24.71965 0,-2.89894 3.29356,-3.38699 6.54094,-3.39126 3.16538,0.10742 6.10765,-0.95713 8.69001,3.51567 6.24752,10.821 11.21908,21.59895 19.04771,31.34533 7.23691,6.491369 21.67626,2.3016 21.93776,-8.17258 -1.10318,-9.26019 -8.22869,-16.20513 -12.09389,-24.3807 -1.22783,-2.89652 -4.64965,-6.3352 -4.56676,-8.90816 18.63947,-11.5166 20.20272,-41.36064 3.90509,-55.54214 -9.80764,-8.4206 -21.44498,-8.88444 -34.95655,-8.80539 z m -108.76213,0.0847 c -4.66367,0.002 -6.02944,0.0152 -10.1738,0.009 -9.0558,-0.20004 -12.55003,9.14032 -12.55003,16.52183 0.0807,27.76588 -0.32406,54.32248 0.35878,82.06289 3.2704,12.205325 11.97377,10.253129 17.57653,10.253129 16.37479,-0.208749 32.72604,0.506272 49.15264,-0.522842 11.26165,-2.905187 11.35822,-21.438577 0.42007,-24.890927 -7.60732,-1.19335 -15.06501,-0.58349 -23.17636,-0.58234 -5.98796,8.5e-4 -11.97619,0.005 -17.96416,0.0108 v -16.10536 c 12.49925,-0.25405 24.33543,1.26709 36.73422,-0.19832 12.95099,-3.47021 11.67493,-22.74257 -0.37681,-25.46245 -12.07036,-0.64402 -24.24678,-0.1692 -36.35741,-0.31371 v -14.81989 c 13.43465,-0.26494 35.45852,0.52298 40.35265,-0.73738 13.03199,-3.49191 10.27377,-24.84225 -2.41048,-24.84225 -14.60626,0 -27.27121,-0.2096 -41.58584,-0.38222 z m -92.25472,0.19291 c -7.18859,0.005 -14.41532,0.4057 -21.55555,0.0234 l -0.57513,0.005 -0.31551,0.005 c -5.37166,-0.37505 -11.21415,1.97025 -12.99174,7.44961 -2.34359,7.35348 -0.4122,15.18245 -1.01864,22.75087 0.0459,23.22531 -0.23264,39.87269 0.36779,63.07288 0,15.049713 12.48289,15.584323 18.36621,15.584323 19.80497,-0.574365 34.39214,2.406284 49.37259,-6.275913 12.18852,-7.64172 16.47897,-22.88162 16.37039,-36.52869 0.45918,-12.60638 0.82731,-25.4497 -1.70555,-37.86103 -2.98907,-12.21441 -12.3454,-23.25681 -24.99189,-25.87892 -6.98532,-1.96319 -14.13438,-2.35251 -21.32297,-2.34739 z m 457.26934,0.52285 c -10.25958,0.007 -28.54899,0.0395 -38.80551,0.018 v -0.002 c -10.20516,-0.25692 -15.13013,13.48692 -9.39495,21.0273 4.49037,6.36606 14.325,5.3943 21.76469,5.3943 3.41901,0 12.47406,-0.14924 12.47406,-0.14924 0,20.04293 -0.40598,46.25183 0.40205,70.37922 0,6.96993 6.05219,11.570864 12.09431,11.570864 7.86591,0 14.08706,-2.234005 14.08706,-11.532414 0,-8.82513 -0.67307,-13.82287 -0.20689,-22.74563 v -48.00238 c 14.69306,-0.60164 24.90386,0.39307 29.73976,-2.39894 10.08053,-5.87601 8.29966,-21.90499 -4.45523,-23.42949 -10.25328,-0.119 -27.43977,-0.13698 -37.69935,-0.12981 z m -246.61235,22.44438 c 5.38436,0 10.1143,4.27105 10.1143,10.10709 0,2.40423 0.1306,10.86071 -7.6299,10.86071 -6.83932,0 -13.82887,0.13032 -20.74063,0.16587 0.22073,-6.15165 -0.11035,-14.72673 -0.0234,-20.87946 8.29536,-0.004 10.94358,-0.25421 18.27967,-0.25421 z m -208.41237,2.87203 c 4.01468,-0.003 7.81588,0.20236 11.04641,1.03487 4.74265,1.83345 6.69449,5.64044 7.79757,13.16482 0,12.22436 0.067,17.23631 0.29026,27.8567 -0.44537,5.31868 -3.52856,12.54054 -9.58605,14.16364 -7.13792,1.9126 -14.65137,0.74186 -21.97382,0.78246 0.2669,-18.92834 0.0173,-37.85869 0.10096,-56.78795 4.08275,0 8.30998,-0.2113 12.32467,-0.21454 z m 368.99183,16.28385 c -7.09444,0 -12.80604,5.7116 -12.80604,12.80604 v 0.96275 c 0,7.09444 5.7116,12.80605 12.80604,12.80605 h 38.11885 c 7.09444,0 12.80605,-5.71161 12.80605,-12.80605 v -0.96275 c 0,-7.09444 -5.71161,-12.80604 -12.80605,-12.80604 z" /></g><g
         id="g92404"
         transform="matrix(0.07297233,0,0,0.07297233,-92.847282,-107.28171)"
         style="fill:#4080bf;fill-opacity:1"><g
           id="g92372"
           style="fill:#4080bf;fill-opacity:1">
</g><g
           id="g92374"
           style="fill:#4080bf;fill-opacity:1">
</g><g
           id="g92376"
           style="fill:#4080bf;fill-opacity:1">
</g><g
           id="g92378"
           style="fill:#4080bf;fill-opacity:1">
</g><g
           id="g92380"
           style="fill:#4080bf;fill-opacity:1">
</g><g
           id="g92382"
           style="fill:#4080bf;fill-opacity:1">
</g><g
           id="g92384"
           style="fill:#4080bf;fill-opacity:1">
</g><g
           id="g92386"
           style="fill:#4080bf;fill-opacity:1">
</g><g
           id="g92388"
           style="fill:#4080bf;fill-opacity:1">
</g><g
           id="g92390"
           style="fill:#4080bf;fill-opacity:1">
</g><g
           id="g92392"
           style="fill:#4080bf;fill-opacity:1">
</g><g
           id="g92394"
           style="fill:#4080bf;fill-opacity:1">
</g><g
           id="g92396"
           style="fill:#4080bf;fill-opacity:1">
</g><g
           id="g92398"
           style="fill:#4080bf;fill-opacity:1">
</g><g
           id="g92400"
           style="fill:#4080bf;fill-opacity:1">
</g><rect
           style="opacity:1;fill:url(#linearGradient92470);fill-opacity:1;stroke:#000000;stroke-width:0;stroke-linecap:round;stroke-linejoin:round;stroke-dasharray:none;stroke-dashoffset:0;stroke-opacity:1;paint-order:stroke fill markers"
           id="rect92402"
           width="1243.9155"
           height="1243.9155"
           x="1297.6965"
           y="-3381.717"
           ry="236.31879" /></g><g
         id="g92468"
         transform="matrix(1.0357303,0,0,1.0357303,-7.0070117,-363.79654)"><g
           id="g92412"
           data-name="pencil ruler"
           transform="matrix(0.70317061,0,0,0.70317061,-254.60876,-127.11706)"><g
             id="g92410"
             transform="matrix(0.51296235,0.51296235,-0.51296235,0.51296235,267.32808,-160.26291)"><path
               id="path92406"
               data-name="Path 109"
               d="m 532.80229,217.31481 c -1.60917,1.61484 -1.65634,4.17977 -0.10549,5.73649 l 69.35781,69.35989 c 1.55736,1.54658 4.11812,1.49948 5.73344,-0.10544 l 7.02578,-7.02778 -74.98581,-74.98789 z"
               fill="#e1e5f5"
               style="fill:#d1d6e0;fill-opacity:1;stroke-width:1.01856" /><path
               id="path92408"
               data-name="Path 110"
               d="m 546.23676,203.87634 -6.772,6.773 74.98585,74.98785 6.773,-6.773 c 1.54798,-1.55706 1.54798,-4.07194 0,-5.629 l -69.35985,-69.35885 c -1.55705,-1.54611 -4.06995,-1.54611 -5.627,0 z"
               fill="#f2f3f7"
               style="fill:#e0e4eb;fill-opacity:1" /></g></g><g
           id="g92446"
           transform="matrix(0.12689674,0,0,0.12689674,22.434868,21.633165)"
           style="fill:#2c2e4a;fill-opacity:1"><path
             d="M 458.319,43.582 258.32,3.462 C 243.104,0.407 227.438,0.399 212.223,3.431 L 10.773,43.598 C 4.512,44.842 0,50.338 0,56.729 V 76.327 C 0,83.72 6.001,89.72 13.392,89.72 h 225.33967 c 108.11725,-0.001 92.24094,-0.001 216.95533,-0.001 7.39,0 13.39,-6 13.39,-13.393 V 56.715 c 0,-6.377 -4.505,-11.873 -10.758,-13.133 z"
             id="path92414"
             style="fill:#2c2e4a;fill-opacity:1" /><g
             id="g92416"
             style="fill:#2c2e4a;fill-opacity:1">
</g><g
             id="g92418"
             style="fill:#2c2e4a;fill-opacity:1">
</g><g
             id="g92420"
             style="fill:#2c2e4a;fill-opacity:1">
</g><g
             id="g92422"
             style="fill:#2c2e4a;fill-opacity:1">
</g><g
             id="g92424"
             style="fill:#2c2e4a;fill-opacity:1">
</g><g
             id="g92426"
             style="fill:#2c2e4a;fill-opacity:1">
</g><g
             id="g92428"
             style="fill:#2c2e4a;fill-opacity:1">
</g><g
             id="g92430"
             style="fill:#2c2e4a;fill-opacity:1">
</g><g
             id="g92432"
             style="fill:#2c2e4a;fill-opacity:1">
</g><g
             id="g92434"
             style="fill:#2c2e4a;fill-opacity:1">
</g><g
             id="g92436"
             style="fill:#2c2e4a;fill-opacity:1">
</g><g
             id="g92438"
             style="fill:#2c2e4a;fill-opacity:1">
</g><g
             id="g92440"
             style="fill:#2c2e4a;fill-opacity:1">
</g><g
             id="g92442"
             style="fill:#2c2e4a;fill-opacity:1">
</g><g
             id="g92444"
             style="fill:#2c2e4a;fill-opacity:1">
</g></g><g
           id="g92466"
           transform="matrix(0.10165627,0,0,0.10165627,36.109689,35.331034)"
           style="fill:#8592ad;fill-opacity:1">
	<path
   style="fill:#8592ad;fill-opacity:1"
   d="m 88,128 h 56 c 4.416,0 8,3.584 8,8 v 0 c 0,4.416 -3.584,8 -8,8 H 88 v 0 z"
   id="path92448" />
	<path
   style="fill:#8592ad;fill-opacity:1"
   d="m 88,32 h 56 c 4.416,0 8,3.584 8,8 v 0 c 0,4.416 -3.584,8 -8,8 H 88 v 0 z"
   id="path92450" />
	<path
   style="fill:#8592ad;fill-opacity:1"
   d="m 88,416 h 56 c 4.416,0 8,3.584 8,8 v 0 c 0,4.416 -3.584,8 -8,8 H 88 v 0 z"
   id="path92452" />
	<path
   style="fill:#8592ad;fill-opacity:1"
   d="m 88,80 h 32 c 4.416,0 8,3.584 8,8 v 0 c 0,4.416 -3.584,8 -8,8 H 88 v 0 z"
   id="path92454" />
	<path
   style="fill:#8592ad;fill-opacity:1"
   d="m 88,224 h 56 c 4.416,0 8,3.584 8,8 v 0 c 0,4.416 -3.584,8 -8,8 H 88 v 0 z"
   id="path92456" />
	<path
   style="fill:#8592ad;fill-opacity:1"
   d="m 88,176 h 32 c 4.416,0 8,3.584 8,8 v 0 c 0,4.416 -3.584,8 -8,8 H 88 v 0 z"
   id="path92458" />
	<path
   style="fill:#8592ad;fill-opacity:1"
   d="m 88,320 h 56 c 4.416,0 8,3.584 8,8 v 0 c 0,4.416 -3.584,8 -8,8 H 88 v 0 z"
   id="path92460" />
	<path
   style="fill:#8592ad;fill-opacity:1"
   d="m 88,272 h 32 c 4.416,0 8,3.584 8,8 v 0 c 0,4.416 -3.584,8 -8,8 H 88 v 0 z"
   id="path92462" />
	<path
   style="fill:#8592ad;fill-opacity:1"
   d="m 88,368 h 32 c 4.416,0 8,3.584 8,8 v 0 c 0,4.416 -3.584,8 -8,8 H 88 v 0 z"
   id="path92464" />
</g></g></g></g></svg>
