<?xml version="1.0" encoding="iso-8859-1"?>
<!-- Generator: Adobe Illustrator 16.0.0, SVG Export Plug-In . SVG Version: 6.00 Build 0)  -->
<!DOCTYPE svg PUBLIC "-//W3C//DTD SVG 1.1//EN" "http://www.w3.org/Graphics/SVG/1.1/DTD/svg11.dtd">
<svg version="1.1" id="Capa_1" xmlns="http://www.w3.org/2000/svg" xmlns:xlink="http://www.w3.org/1999/xlink" x="0px" y="0px"
	 width="581.4px" height="581.4px" viewBox="0 0 581.4 581.4" style="enable-background:new 0 0 581.4 581.4;" xml:space="preserve"
	>
<g>
	<g id="Layer_1_28_">
		<g>
			<path d="M503.625,121.125c-7.65-12.75-22.95-16.575-35.7-8.925S451.35,136.425,459,147.9c17.85,30.6,28.05,65.025,28.05,102
				v300.901c0,14.023,11.476,26.773,26.775,26.773S540.6,566.1,540.6,550.801V249.9C539.326,204,526.576,159.375,503.625,121.125z"
				/>
			<path d="M290.701,52.275c35.7,0,70.125,10.2,100.725,28.05c12.75,7.65,28.05,3.825,35.7-8.925s3.825-28.05-8.925-35.7
				C379.951,12.75,335.326,0,290.701,0C153,0,40.8,112.2,40.8,249.9v98.174c0,14.025,11.475,26.775,26.775,26.775
				c15.3,0,26.775-11.475,26.775-26.775V249.9C93.076,141.525,182.326,52.275,290.701,52.275z"/>
			<path d="M430.951,415.65c-14.025,0-26.775,11.475-26.775,26.775v109.648c0,14.025,11.476,26.775,26.775,26.775
				c14.024,0,26.774-11.475,26.774-26.775V442.426C457.725,427.125,446.25,415.65,430.951,415.65z"/>
			<path d="M175.951,415.65v-82.875c0-14.025-11.475-26.775-26.775-26.775c-15.3,0-26.775,11.475-26.775,26.775v82.875
				c0,14.025,11.475,26.775,26.775,26.775C164.476,442.426,175.951,429.676,175.951,415.65z"/>
			<path d="M290.701,84.15c-91.8,0-167.025,75.225-167.025,167.025c0,14.025,11.475,26.775,26.775,26.775
				c14.025,0,26.775-11.475,26.775-26.775c0-63.75,51-114.75,114.75-114.75c63.75,0,114.75,51,114.75,114.75v96.899
				c0,14.025,11.476,26.775,26.775,26.775c14.025,0,26.775-11.475,26.775-26.775v-96.899C457.725,159.375,382.5,84.15,290.701,84.15
				z"/>
			<path d="M344.25,504.9c-16.575,8.924-34.425,12.75-53.55,12.75c-33.15,0-65.025-15.301-87.975-40.801
				c-8.925-11.475-25.5-12.75-36.975-2.549c-11.475,8.924-12.75,25.5-2.55,36.975c31.875,36.975,77.775,58.65,127.5,58.65
				c26.774,0,53.55-6.375,77.774-19.125c12.75-6.375,17.851-22.951,11.476-35.701C372.3,502.35,357,498.525,344.25,504.9z"/>
			<path d="M346.8,328.949c14.025,0,26.775-11.475,26.775-26.773v-38.25c0-45.9-36.976-82.875-82.875-82.875
				c-45.9,0-82.875,36.975-82.875,82.875c0,14.025,11.475,26.775,26.775,26.775c14.025,0,26.775-11.475,26.775-26.775
				c0-16.575,14.025-30.6,30.6-30.6c16.575,0,30.601,14.025,30.601,30.6v38.25C321.3,317.475,332.776,328.949,346.8,328.949z"/>
			<path d="M207.826,390.15c0,45.9,36.975,82.875,82.875,82.875c45.899,0,82.875-36.975,82.875-82.875
				c0-14.025-11.476-26.775-26.775-26.775c-14.024,0-26.774,11.475-26.774,26.775c0,16.574-14.025,30.6-30.601,30.6
				c-16.575,0-30.6-14.025-30.6-30.6V351.9c0-14.025-11.475-26.775-26.775-26.775c-14.025,0-26.775,11.475-26.775,26.775
				L207.826,390.15L207.826,390.15z"/>
			<path d="M67.576,409.275c-14.025,0-26.775,11.475-26.775,26.775v118.574c0,14.025,11.475,26.775,26.775,26.775
				c14.025,0,26.775-11.475,26.775-26.775V436.051C93.076,422.025,81.601,409.275,67.576,409.275z"/>
		</g>
	</g>
</g>
<g>
</g>
<g>
</g>
<g>
</g>
<g>
</g>
<g>
</g>
<g>
</g>
<g>
</g>
<g>
</g>
<g>
</g>
<g>
</g>
<g>
</g>
<g>
</g>
<g>
</g>
<g>
</g>
<g>
</g>
</svg>
