<svg id="Layer_1" enable-background="new 0 0 512 512" height="512" viewBox="0 0 512 512" width="512" xmlns="http://www.w3.org/2000/svg"><path d="m181 512h150v-30h181v-30h-30v-60c-11.037 0-88.66 0-104.436 0-36.1 0-66.699-27.013-71.172-62.793l-3.447-28.207h28.055c49.626 0 90-40.374 90-90 0-25.753-11.212-50.245-30.4-67.25.256-2.481.4-5.813.4-7.75 0-36.655-26.432-67.253-61.236-73.734-6.256-34.338-36.329-62.266-73.764-62.266-37.431 0-67.507 27.924-73.764 62.266-34.804 6.481-61.236 37.079-61.236 73.734 0 1.939.144 5.27.4 7.75-19.188 17.005-30.4 41.497-30.4 67.25 0 49.626 40.374 90 90 90h30.208l-4.227 29.62c-5.104 34.993-35.619 61.38-70.981 61.38h-106v60h-30v30h181zm-60-301c0-12.73 4.152-24.992 11.529-35.117 13.291 21.076 36.765 35.117 63.471 35.117v-30c-24.902 0-45-20.302-45-45 0-20.273 13.478-37.452 31.942-43.062 3.21 13.88 10.144 26.214 20.024 36.094l21.213-21.213c-8.406-8.406-13.179-19.72-13.179-31.819 0-24.935 20.607-46 45-46s45 21.065 45 46c0 12.08-4.76 23.4-13.18 31.82l21.213 21.213c9.875-9.874 16.812-22.207 20.024-36.094 18.465 5.609 31.943 22.788 31.943 43.061 0 20.553-15.856 45-45 45v30c26.706 0 50.18-14.041 63.471-35.117 7.377 10.125 11.529 22.387 11.529 35.117 0 33.084-26.916 60-60 60h-150c-33.084 0-60-26.916-60-60zm115.673 123.904 4.838-33.904h31.21l3.898 31.887c2.888 23.103 13.455 43.605 28.915 59.113h-19.534c-11.517 0-22.032 4.354-30 11.495-7.968-7.141-18.483-11.495-30-11.495h-17.894c15.337-15.419 25.404-35.406 28.567-57.096zm-176.673 117.096v-30h166c8.271 0 15 6.729 15 15v15h30v-15c0-8.271 6.729-15 15-15h166v30h-151v30h-90v-30z"/></svg>