<?xml version="1.0" encoding="iso-8859-1"?>
<!-- Generator: Adobe Illustrator 19.0.0, SVG Export Plug-In . SVG Version: 6.00 Build 0)  -->
<svg version="1.1" id="Capa_1" xmlns="http://www.w3.org/2000/svg" xmlns:xlink="http://www.w3.org/1999/xlink" x="0px" y="0px"
	 viewBox="0 0 512 512" style="enable-background:new 0 0 512 512;" xml:space="preserve">
<g>
	<g>
		<g>
			<path d="M387.016,371.728l-47.472,54.256V512h32v-73.984l39.552-45.216c33.274-38.056,56.147-84.067,66.4-133.568l-31.344-6.4
				C437.011,296.896,416.641,337.852,387.016,371.728z"/>
			<path d="M115.544,336H74.632l40.912-109.088V200c-0.013-28.862,7.409-57.241,21.552-82.4l-27.872-15.728
				C92.382,131.834,83.538,165.628,83.544,200v21.088L28.456,368h55.088v80h80v64h32v-96h-80V336z"/>
			<path d="M173.976,72.64l-20.8-24.256c-8.814,7.565-16.956,15.878-24.336,24.848l24.752,20.288
				C159.771,85.984,166.591,78.998,173.976,72.64z"/>
			<path d="M195.544,0v224h48v77.888L360.344,224h123.2V0H195.544z M451.544,192h-100.8l-75.2,50.112V192h-48V32h224V192z"/>
			<rect x="259.544" y="64" width="160" height="32"/>
			<rect x="387.544" y="128" width="32" height="32"/>
			<rect x="259.544" y="128" width="96" height="32"/>
		</g>
	</g>
</g>
<g>
</g>
<g>
</g>
<g>
</g>
<g>
</g>
<g>
</g>
<g>
</g>
<g>
</g>
<g>
</g>
<g>
</g>
<g>
</g>
<g>
</g>
<g>
</g>
<g>
</g>
<g>
</g>
<g>
</g>
</svg>
