<svg xmlns="http://www.w3.org/2000/svg" viewBox="0 0 24 24"><g data-name="86-Hourglass"><path fill="none" stroke="#000" stroke-linecap="round" stroke-linejoin="round" stroke-width="2" d="M6 1H18a0 0 0 0 1 0 0V6a6 6 0 0 1-6 6h0A6 6 0 0 1 6 6V1A0 0 0 0 1 6 1zM12 12h0a6 6 0 0 1 6 6v5a0 0 0 0 1 0 0H6a0 0 0 0 1 0 0V18A6 6 0 0 1 12 12z"/><line x1="6" x2="18" y1="19" y2="19" fill="none" stroke="#000" stroke-linecap="round" stroke-linejoin="round" stroke-width="2"/><line x1="12" x2="12" y1="12" y2="15" fill="none" stroke="#000" stroke-linecap="round" stroke-linejoin="round" stroke-width="2"/></g></svg>