<?xml version="1.0"?>
<svg xmlns="http://www.w3.org/2000/svg" id="line" viewBox="0 0 64 64" width="512" height="512"><path d="M50,13H48V9a1,1,0,0,0-1-1H45V6a1,1,0,0,0-1-1H36V3a1,1,0,0,0-1-1H25a1,1,0,0,0-1,1V5H19a1,1,0,0,0-1,1V8H16a1,1,0,0,0-1,1v4H13a1,1,0,0,0-1,1v9a1,1,0,0,0,1,1h2v3a1,1,0,0,0,1,1h7v2a1,1,0,0,0,1,1h4v3.658c0,1.034.024,2.1.055,3.171l-4.5-.75L20.8,33.4l-1.6,1.2,1.533,2.043-2.288,1.525,1.11,1.664,2.38-1.587.265.355a1,1,0,0,0,.636.386l5.3.884c.037.816.068,1.626.123,2.455L25.1,45.489a27.877,27.877,0,0,1-8.419,5.782l-4.084,1.815A1,1,0,0,0,13,55a29.767,29.767,0,0,0,16.052-4.669c.492,3.688,1.155,7.345,1.973,10.894a1,1,0,0,0,1.95,0C33.823,57.543,34.5,53.764,35,49.969A29.878,29.878,0,0,0,50,54a1,1,0,0,0,.406-1.914l-4.084-1.815A27.877,27.877,0,0,1,37.9,44.489l-2.164-2.164c.1-1.571.166-3.11.208-4.627l8.9-3.561L48.4,36.8l1.2-1.6-3.243-2.432,1.475-2.213-1.664-1.11L44.34,32.187l-8.355,3.342c0-.287.015-.587.015-.871V31h4a1,1,0,0,0,1-1V27h6a1,1,0,0,0,1-1V24h2a1,1,0,0,0,1-1V14A1,1,0,0,0,50,13ZM36.489,45.9a29.852,29.852,0,0,0,7.417,5.426,28,28,0,0,1-9.163-3.863,1,1,0,0,0-1.539.722c-.31,2.65-.714,5.3-1.2,7.916-.47-2.515-.86-5.068-1.167-7.629a1,1,0,0,0-1.574-.7A27.9,27.9,0,0,1,19.08,52.336,29.84,29.84,0,0,0,26.511,46.9L30,43.418a1,1,0,0,0,.291-.776C30.1,39.9,30,37.21,30,34.658V31h4v3.658c0,2.552-.1,5.238-.287,7.984a1,1,0,0,0,.291.776ZM49,22H47a1,1,0,0,0-1,1v2H40a1,1,0,0,0-1,1v3H25V22h8v3h2V21a1,1,0,0,0-1-1H30V16h5a1,1,0,0,0,1-1V11h2V9H35a1,1,0,0,0-1,1v4H29a1,1,0,0,0-1,1v5H24a1,1,0,0,0-1,1v5H17V24h3V22H14V15h4v2a1,1,0,0,0,1,1h4V16H20V14a1,1,0,0,0-1-1H17V10h2a1,1,0,0,0,1-1V7h2v4a1,1,0,0,0,1,1h7a1,1,0,0,0,1-1V8H29v2H24V7h1a1,1,0,0,0,1-1V4h8V6a1,1,0,0,0,1,1h8V9a1,1,0,0,0,1,1h2v3H39a1,1,0,0,0-1,1v7a1,1,0,0,0,1,1h5a1,1,0,0,0,1-1V18H43v2H40V15h9Z"/></svg>
