<?xml version="1.0" encoding="UTF-8" standalone="no"?>
<!-- Created with Inkscape (http://www.inkscape.org/) -->

<svg
   width="1140.4755"
   height="391.6059"
   viewBox="0 0 301.75079 103.61239"
   version="1.1"
   id="svg5"
   xml:space="preserve"
   xmlns:xlink="http://www.w3.org/1999/xlink"
   xmlns="http://www.w3.org/2000/svg"
   xmlns:svg="http://www.w3.org/2000/svg"><defs
     id="defs2"><linearGradient
       id="linearGradient7354"><stop
         style="stop-color:#594931;stop-opacity:1;"
         offset="0"
         id="stop7350" /><stop
         style="stop-color:#a68253;stop-opacity:1;"
         offset="1"
         id="stop7352" /></linearGradient><rect
       x="2091.0645"
       y="-2056.8237"
       width="1310.9619"
       height="319.06738"
       id="rect38373" /><linearGradient
       id="linearGradient19172"><stop
         style="stop-color:#000000;stop-opacity:1;"
         offset="0"
         id="stop38996" /><stop
         style="stop-color:#000000;stop-opacity:0;"
         offset="1"
         id="stop38998" /></linearGradient><style
       id="style5220">.cls-1{fill:#c8c2e9;}.cls-2{fill:#dfdafd;}.cls-3{fill:#b9b1e0;}.cls-4{fill:#4d4c78;}.cls-5{fill:#67baeb;}.cls-6{fill:#de3226;}.cls-7{fill:#231f20;}.cls-8{fill:#f4c23f;}.cls-9{fill:#46a1f8;}.cls-10{fill:#b11a31;}.cls-11{fill:#f4a93f;}.cls-12{fill:#8a87b2;}.cls-13{fill:#83d0fb;}.cls-14{fill:#fad564;}.cls-15{fill:#f44533;}</style><linearGradient
       xlink:href="#linearGradient7354"
       id="linearGradient7356"
       x1="252.71631"
       y1="509.69827"
       x2="252.71631"
       y2="312.83084"
       gradientUnits="userSpaceOnUse"
       gradientTransform="matrix(1.068642,0,0,1.068642,-21.212973,-4.4012015)" /></defs><g
     id="layer1"
     transform="translate(-107.79055,613.57825)"><g
       aria-label="protocol"
       id="text3255"
       style="font-weight:300;font-size:50.0583px;font-family:Rubik;-inkscape-font-specification:'Rubik Light';fill:#8fa7b2;fill-opacity:1;stroke-width:0;stroke-linecap:round;stroke-linejoin:round;paint-order:stroke fill markers"
       transform="matrix(1.0223581,0,0,1.0223581,120.36398,-348.80188)"><g
         aria-label="PROTOCOL"
         id="text3550"
         style="font-size:37.9426px;fill:#8fa7b2;fill-opacity:1"
         transform="translate(-1.0677583,-113.81675)"><path
           id="path3552"
           d="m 106.30753,-83.818923 c -2.70093,0.07584 -5.41171,-0.07117 -8.107408,0.05664 -1.143524,0.267795 -1.573951,1.577543 -1.394571,2.626172 0.009,8.158133 -0.0274,16.318988 0.0293,24.475402 0.15036,1.251422 1.586118,1.706572 2.671872,1.535156 1.212827,-0.0062 2.040587,-1.298822 1.804677,-2.430469 0,-2.810288 0,-5.620576 0,-8.430863 3.0787,-0.06951 6.18135,0.190796 9.24219,-0.216798 2.91663,-0.496409 5.69336,-2.447271 6.60839,-5.34525 0.90308,-2.65107 0.71539,-5.728732 -0.67479,-8.178194 -1.58462,-2.624508 -4.67562,-3.933279 -7.64921,-4.040227 -0.84137,-0.06857 -1.687,-0.05694 -2.53048,-0.05157 z m 1.39258,4.402344 c 1.85225,-0.02186 4.13968,0.378658 5.01953,2.236329 0.79195,1.783704 0.68486,4.168635 -0.75744,5.590626 -1.79317,1.530485 -4.30509,1.155962 -6.48045,1.210221 -1.3901,0.0032 -2.78021,0.0015 -4.17032,0.0019 1e-5,-3.013022 0,-6.026045 0,-9.039066 2.12956,0 4.25912,0 6.38868,0 z"
           style="fill:#8fa7b2;fill-opacity:1" /><path
           id="path3554"
           d="m 130.26651,-83.809157 c -2.73326,0.0287 -5.47466,-0.05338 -8.20312,0.04101 -1.16576,0.241765 -1.61164,1.574305 -1.43169,2.632032 0.0108,8.161414 -0.0324,16.325366 0.0313,24.485168 0.16152,1.245042 1.5884,1.695023 2.67187,1.52539 1.2123,-0.0071 2.0409,-1.298185 1.80469,-2.430469 0,-2.935939 0,-5.871878 0,-8.807817 2.05208,0 4.10417,0 6.15625,0 2.08795,3.473045 4.06259,7.020205 6.24265,10.433496 0.91705,1.045529 2.87489,1.153011 3.76907,0.03721 0.64121,-0.889631 0.21325,-2.043004 -0.39616,-2.819391 -1.64774,-2.811098 -3.31583,-5.610379 -4.93783,-8.436474 2.73016,-0.9947 4.87049,-3.563899 5.08253,-6.500762 0.40549,-2.938004 -0.34468,-6.292116 -2.82862,-8.143775 -2.24724,-1.735508 -5.20357,-2.118227 -7.96094,-2.015625 z m 0.88477,4.392578 c 1.82589,-9.42e-4 4.0785,0.308365 5.02593,2.094862 0.72582,1.628186 0.6776,3.738765 -0.45562,5.16686 -1.58126,1.589789 -4.00525,1.374917 -6.05976,1.398767 -1.50743,0.0028 -3.01485,3.8e-4 -4.52227,-3.29e-4 0,-2.88672 0,-5.77344 0,-8.66016 2.00391,0 4.00781,0 6.01172,0 z"
           style="fill:#8fa7b2;fill-opacity:1" /><path
           id="path3556"
           d="m 154.21378,-84.170485 c -3.35234,0.09331 -6.83527,1.653005 -8.53569,4.657121 -1.98867,3.211447 -1.83027,7.135544 -1.82131,10.767102 -0.0268,3.527242 0.13875,7.356038 2.32814,10.300004 1.84245,2.475751 4.98375,3.615417 7.99038,3.665441 3.3369,0.197896 7.03326,-0.612417 9.26275,-3.288195 2.20031,-2.619631 2.66513,-6.179494 2.63794,-9.485937 0.0469,-3.009554 0.1497,-6.075611 -0.54971,-9.023739 -0.83155,-3.127326 -3.12228,-5.948363 -6.26953,-6.935547 -1.61753,-0.553931 -3.34089,-0.727304 -5.04297,-0.65625 z m 0.76758,4.375 c 2.42461,-0.08191 5.03518,1.214731 5.85678,3.612643 0.97057,2.45312 0.69233,5.149676 0.75273,7.729397 -0.0593,2.586425 -0.006,5.550007 -1.92362,7.549721 -1.99276,1.938608 -5.22428,2.233192 -7.70933,1.147312 -1.70005,-0.726872 -2.90039,-2.333285 -3.22488,-4.140143 -0.58961,-2.658016 -0.29761,-5.403226 -0.34543,-8.102052 0.0315,-2.392436 0.50609,-5.133435 2.56932,-6.6328 1.16287,-0.829277 2.61341,-1.15743 4.02443,-1.164078 z"
           style="fill:#8fa7b2;fill-opacity:1" /><path
           id="path3558"
           d="m 185.98722,-83.832595 c -5.84753,0.06314 -11.70065,-0.0066 -17.54883,0.03711 -1.19004,0.125467 -1.77581,1.444672 -1.60547,2.517578 -0.023,1.234695 1.28717,2.1085 2.44219,1.861328 1.97304,0 3.94609,0 5.91914,0 0.0101,7.586936 -0.0307,15.176401 0.0293,22.761731 0.15723,1.247566 1.58769,1.699886 2.67188,1.529296 1.21263,-0.0066 2.04206,-1.297939 1.80664,-2.430469 0,-7.287504 0,-14.575008 0,-21.862511 2.35132,-0.03689 4.71593,0.09204 7.05859,-0.08008 1.36853,-0.417155 1.58418,-2.233064 1.05664,-3.369141 -0.36433,-0.63824 -1.11371,-0.972777 -1.83007,-0.964844 z"
           style="fill:#8fa7b2;fill-opacity:1" /><path
           id="path3560"
           d="m 199.17472,-84.170485 c -3.35189,0.09294 -6.83096,1.654588 -8.53478,4.6545 -1.97267,3.193968 -1.83902,7.090817 -1.81767,10.702926 -0.0395,3.557424 0.13014,7.41879 2.33682,10.388678 1.84497,2.447084 4.95522,3.592075 7.94614,3.641454 3.31371,0.202409 6.98468,-0.580691 9.22415,-3.213981 2.2167,-2.557155 2.72334,-6.083641 2.7041,-9.355228 0.0536,-3.076728 0.16559,-6.21157 -0.54626,-9.226552 -0.83591,-3.160817 -3.17376,-6.005478 -6.36505,-6.96517 -1.58837,-0.534729 -3.27919,-0.695789 -4.94745,-0.626627 z m 0.75781,4.375 c 2.4045,-0.08521 4.99306,1.183182 5.84375,3.544922 1.00181,2.503815 0.71991,5.261223 0.77523,7.897093 -0.0532,2.561127 -0.032,5.494565 -1.93693,7.465437 -2.00791,1.93489 -5.25656,2.223006 -7.7405,1.106936 -1.69661,-0.73103 -2.86654,-2.353353 -3.18722,-4.152726 -0.33553,-1.448168 -0.35877,-2.787614 -0.35882,-4.318287 0.1,-3.006645 -0.3697,-6.293833 1.2705,-8.990641 1.12394,-1.775574 3.30304,-2.581489 5.33399,-2.552734 z"
           style="fill:#8fa7b2;fill-opacity:1" /><path
           id="path3562"
           d="m 224.17862,-84.168532 c -3.2755,0.06968 -6.6727,1.572089 -8.36522,4.483897 -1.84356,2.942442 -1.98469,6.533457 -1.91351,9.903212 -0.0396,3.433583 -0.0683,7.080161 1.68912,10.155413 1.54801,2.814793 4.62289,4.616277 7.80971,4.782326 3.68805,0.407446 7.81439,-0.417929 10.3749,-3.29085 1.53133,-1.710849 2.51086,-4.004243 2.42258,-6.31524 -0.3239,-1.374876 -2.04154,-1.602969 -3.19668,-1.279698 -1.11823,0.367976 -1.30368,1.663719 -1.54839,2.645862 -0.41788,1.53206 -1.5084,2.89843 -3.05855,3.378842 -2.133,0.778797 -4.59861,0.774932 -6.69805,-0.105884 -1.7382,-0.790517 -2.78204,-2.58222 -3.02449,-4.427666 -0.4339,-2.656483 -0.24808,-5.363403 -0.24121,-8.042788 0.05,-2.315282 0.47165,-5.014484 2.54957,-6.406116 2.057,-1.356708 4.74222,-1.326701 7.04519,-0.696075 1.71445,0.455319 3.033,1.89242 3.44264,3.604356 0.32165,0.922182 0.36533,2.223561 1.48815,2.544589 0.86854,0.205141 1.94261,0.250486 2.68518,-0.31699 0.99594,-0.928298 0.5005,-2.415977 0.2168,-3.546877 -1.00267,-3.38351 -3.96336,-6.047535 -7.41762,-6.740901 -1.39433,-0.318723 -2.83456,-0.379992 -4.26012,-0.329412 z"
           style="fill:#8fa7b2;fill-opacity:1" /><path
           id="path3564"
           d="m 248.99308,-84.170485 c -3.35169,0.09343 -6.83108,1.654441 -8.53478,4.6545 -1.97212,3.193919 -1.83842,7.090977 -1.81767,10.702926 -0.0366,3.557102 0.12913,7.419015 2.33682,10.388678 1.85317,2.460115 4.98197,3.597517 7.98522,3.644864 3.33568,0.193469 7.03332,-0.614667 9.25892,-3.293301 2.19577,-2.619869 2.66387,-6.176997 2.63565,-9.482131 0.0485,-3.008379 0.14472,-6.072262 -0.54971,-9.019832 -0.8342,-3.149454 -3.15464,-5.991801 -6.33361,-6.956001 -1.59596,-0.548491 -3.30184,-0.705427 -4.98084,-0.639703 z m 0.75781,4.375 c 2.40883,-0.08328 5.0027,1.186832 5.84784,3.557631 0.9986,2.499729 0.71493,5.252781 0.77114,7.884384 -0.0547,2.561781 -0.0298,5.495005 -1.93693,7.465437 -2.00791,1.93489 -5.25656,2.223006 -7.7405,1.106936 -1.697,-0.730558 -2.86642,-2.353484 -3.18722,-4.152726 -0.33553,-1.448168 -0.35877,-2.787614 -0.35882,-4.318287 0.10076,-3.007774 -0.37173,-6.29882 1.27441,-8.994547 1.12461,-1.773443 3.30056,-2.578321 5.33008,-2.548828 z"
           style="fill:#8fa7b2;fill-opacity:1" /><path
           id="path3566"
           d="m 266.96378,-83.828688 c -1.07464,-0.133455 -2.07677,0.706512 -2.15867,1.778682 0.0301,8.459918 -0.03,16.935639 0.0395,25.399064 0.16306,1.24786 1.60017,1.705762 2.68828,1.517359 4.78148,-0.03165 9.5708,0.06848 14.34723,-0.05867 1.2894,-0.255335 1.60809,-1.802327 1.35527,-2.90836 -0.22814,-1.155207 -1.55811,-1.606373 -2.60289,-1.425333 -3.77044,0 -7.54089,0 -11.31133,0 -0.0114,-7.590089 0.0333,-15.183534 -0.0312,-22.771495 -0.14337,-1.124051 -1.31209,-1.608079 -2.32617,-1.53125 z"
           style="fill:#8fa7b2;fill-opacity:1" /></g></g><g
       id="g8743"
       transform="matrix(2.326226,0,0,2.326226,68.197105,-621.75011)"><path
         style="fill:#6df278;fill-opacity:1;stroke-width:0.104439"
         d="M 52.475407,9.4782611 C 52.373475,8.5611812 51.712061,7.8044154 50.817019,7.5807068 50.654929,7.5401844 49.172415,7.1844647 47.124155,7.1844647 c -3.788737,0 -6.997003,1.2056452 -9.278058,3.4867003 -0.340472,0.340471 -0.778542,0.830317 -1.07045,1.210058 -2.656446,5.070418 -2.775327,6.959375 -2.059982,12.535728 l 4.388506,1.201539 c 0.300054,0.01588 0.617653,0.02559 0.950918,0.02559 h 6.24e-4 c 3.788319,0 6.996271,-1.205436 9.277118,-3.48649 3.981218,-3.981324 3.240118,-11.800784 3.142572,-12.6793259 z"
         id="path2058" /><path
         style="fill:#41d94e;fill-opacity:1;stroke-width:0.095844"
         d="m 33.320105,25.6288 c 0.625568,0 0.774977,-0.02802 1.302879,-0.07005 l 0.02101,9.193335 c 0,3.791598 5.205827,3.783749 5.205827,-0.05411 l 0.09022,-11.468133 c 0,-1.81604 0.870272,-10.39541 -4.227987,-15.4938463 -3.490633,-3.490431 -8.059412,-4.22307 -11.277377,-4.22307 -2.552608,0 -4.431534,0.462157 -4.510124,0.481911 -0.904571,0.226275 -1.573082,0.990921 -1.676025,1.917636 -0.01179,0.105907 -0.284461,2.625164 -0.0046,5.7057833 0.397373,4.371153 1.675452,7.664157 3.798589,9.787189 3.490435,3.490342 8.059313,4.223366 11.277463,4.223366 z"
         id="path13826" /></g><path
       id="path2959"
       style="font-style:normal;font-variant:normal;font-weight:normal;font-stretch:normal;font-size:192px;font-family:Rubik;-inkscape-font-specification:Rubik;letter-spacing:-0.537826px;word-spacing:0px;white-space:pre;shape-inside:url(#rect38373);fill:#1b2026;fill-opacity:1;stroke-width:0;stroke-dasharray:none"
       d="m 348.65071,-608.72447 c -2.271,4.2e-4 -4.09949,1.82892 -4.09949,4.10001 v 2.36161 c -0.005,0.49197 -0.003,0.99348 -0.003,1.49759 0,1.82951 0.005,3.02974 -0.0155,4.75786 -7.70422,-4.44805 -17.76931,-0.21972 -20.30573,7.03036 -2.14284,5.56104 -2.64152,17.01114 2.99645,23.46459 4.57511,4.52872 12.53726,5.13378 17.99038,1.89033 2.47652,2.89373 6.73867,1.88994 7.64604,-1.3839 0.43935,-2.50044 -0.11624,-5.06641 0.10904,-7.59699 -0.0159,-10.7458 0.0682,-17.40159 -0.21859,-28.06614 v -3.95531 c 0,-2.27109 -1.82801,-4.09959 -4.09898,-4.10001 z m -53.4789,10.75284 c -2.50728,0 -4.17184,1.27068 -4.17184,5.57282 0.0566,9.32167 -0.2165,17.30193 0.27492,26.58922 0,5.3843 8.15144,5.2992 8.15144,-0.42529 0,-0.78778 -0.009,-1.93321 -0.0155,-2.96057 -0.0147,-0.1519 -0.0222,-0.30572 -0.0222,-0.46095 v -13.24385 c 0,-3.04824 3.34291,-5.65217 6.47144,-5.65217 3.11392,0 5.91721,2.3476 5.91721,6.36966 v 14.03468 c 0,4.28963 1.618,5.76247 3.86747,5.82148 2.9749,0 4.32738,-1.81368 4.32738,-4.85087 0,-7.49276 0.97405,-18.48503 -0.83446,-23.04571 -2.47651,-5.00227 -5.65253,-6.99242 -12.90243,-6.99242 -2.83654,0 -5.29018,0.75749 -7.60522,2.01799 -0.49428,-1.8447 -1.26714,-2.77402 -3.45818,-2.77402 z m 96.55438,-0.33269 c -2.07502,0 -4.06058,0.96493 -3.73473,5.29687 0.0134,9.27638 -0.15799,17.19887 0.20877,26.46406 0,6.02694 8.1995,5.14216 8.1995,0.21446 0.11413,-2.79567 -0.0685,-17.93435 0.74672,-20.19734 1.12407,-3.12013 5.10447,-2.74675 7.9171,-2.74675 5.83598,0 6.05548,-7.89672 0.13976,-7.89672 -3.86228,0 -7.50149,-0.34542 -9.726,1.87911 -0.45117,-1.68383 -0.91795,-3.01369 -3.75112,-3.01369 z m -136.19227,0.95953 v 10e-4 c -1.77259,-0.007 -3.57619,0.97649 -4.25349,3.5042 -1.52121,5.20998 -3.05053,10.41727 -4.59765,15.61981 -1.86312,-5.70051 -2.76559,-8.25367 -5.52059,-15.93348 -1.67181,-4.66031 -7.03316,-4.12991 -8.12354,-0.0605 -0.47423,1.76988 -1.853,6.12196 -3.03599,9.10234 -0.73906,2.30418 -1.4784,4.60811 -2.21743,6.91228 -1.77,-5.76229 -2.88441,-11.35901 -5.29722,-16.882 -0.67507,-1.16928 -1.63657,-2.00841 -3.6645,-1.95727 -2.97681,0.075 -4.62327,1.95559 -3.66748,5.5227 2.70879,9.19488 4.71416,17.27067 8.49354,26.06767 1.93624,4.50686 8.13682,3.10862 9.2046,-0.8763 1.34651,-5.02527 2.92867,-9.28549 4.38784,-13.94497 1.81523,5.56549 3.17435,9.86266 5.42758,15.26478 1.57387,3.77329 8.0935,2.53131 9.37048,-2.2345 2.35539,-8.79044 5.36554,-16.84016 7.64657,-25.56395 0.59889,-2.23514 -1.3434,-4.5367 -3.98116,-4.5367 -0.0571,-0.003 -0.1144,-0.003 -0.17156,-0.005 z m 17.67127,0.10025 c -5.9841,0 -12.19845,3.75555 -12.72325,9.87181 0,3.55382 6.20869,4.18306 8.20311,0.72864 2.1706,-3.4584 8.5465,-3.30452 10.02316,0.66043 0.22084,0.82419 -0.88976,1.02418 -3.24269,1.21906 -5.59848,0.46363 -12.04908,1.75195 -15.40836,6.80375 -3.06636,4.55853 -1.28917,11.22158 3.34139,14.02402 4.71155,3.14067 11.22916,3.0842 16.03262,0.16485 3.58824,3.58824 8.2852,2.35823 7.65121,-2.50735 -0.17975,-7.77807 1.65069,-19.17239 -0.76636,-23.3589 -1.8696,-5.2233 -7.56085,-7.60527 -13.11083,-7.60527 z m 96.23391,0.0258 c -0.37612,-7.5e-4 -0.71929,0.008 -1.10897,0.0501 v 10e-4 c -7.20678,0.95663 -12.53651,7.90323 -12.66434,14.99659 -0.6849,6.63477 0.99067,14.33683 6.84971,18.26047 7.22015,4.72524 17.89852,2.85616 21.45915,-5.21882 1.08544,-3.92399 -3.53051,-7.18048 -7.15874,-3.55226 -1.95781,1.8472 -3.51795,3.33174 -6.5598,2.8045 -2.85937,-0.49564 -5.55552,-2.69729 -5.88956,-5.63638 6.22977,-0.0798 10.63724,-0.23461 16.86285,-0.23461 4.91541,0 4.58549,-5.13156 4.15137,-7.81817 -1.54018,-5.74803 -4.05206,-13.64008 -14.63425,-13.64008 -0.5219,0 -0.93129,-0.0124 -1.30742,-0.0124 z m -31.80891,7.84195 h 0.64803 c 3.66135,0 6.6089,3.63172 6.6089,8.14269 v 3.78377 c 0,4.511 -2.94755,8.14271 -6.6089,8.14271 h -0.64803 c -3.66134,0 -6.60889,-3.63171 -6.60889,-8.14271 v -3.78377 c 0,-4.51097 2.94755,-8.14269 6.60889,-8.14269 z m 32.65072,0.30437 c 0.0949,-0.002 0.19013,-3.5e-4 0.28577,0.003 v -5.1e-4 c 3.02523,0 5.82479,2.39961 6.38721,5.3568 -4.23399,0 -8.46755,0.0274 -12.70155,0.0274 0.53226,-2.82607 3.08692,-5.33607 6.02857,-5.38678 z m -93.13746,11.59057 c 0.82023,0.0171 1.36819,0.17214 1.51257,0.4222 0.44732,0.77478 -0.31624,2.62179 -0.85318,3.66698 -1.81619,3.53544 -7.85855,4.4224 -10.25725,2.02366 -1.33556,-1.33557 0.21926,-2.95002 1.63297,-3.76619 3.03843,-1.75426 6.16039,-2.38425 7.96489,-2.34665 z" /><g
       id="g6701"
       transform="matrix(0.19317043,0,0,0.19317043,106.48643,-614.00876)"><path
         style="fill:url(#linearGradient7356);fill-opacity:1;stroke-width:0.959407"
         d="m 368.44377,396.51658 c -20.00843,-34.72767 -54.47993,-58.57373 -93.75708,-65.19173 -7.2963,-1.2309 -14.76048,-1.86699 -22.32829,-1.86699 -7.5678,0 -15.03102,0.63609 -22.32828,1.86699 -39.27907,6.618 -73.74769,30.46406 -93.75708,65.19173 -71.819294,2.35341 -129.5218683,47.3804 -129.5218683,119.76191 0,12.33221 9.9970213,22.32827 22.3282803,22.32827 H 252.35937 475.63928 c 12.33125,0 22.32827,-9.9951 22.32827,-22.32827 0,-72.38151 -57.70353,-117.4085 -129.52378,-119.76191 z"
         id="path6641" /><g
         id="g6647">
</g><g
         id="g6649">
</g><g
         id="g6651">
</g><g
         id="g6653">
</g><g
         id="g6655">
</g><g
         id="g6657">
</g><g
         id="g6659">
</g><g
         id="g6661">
</g><g
         id="g6663">
</g><g
         id="g6665">
</g><g
         id="g6667">
</g><g
         id="g6669">
</g><g
         id="g6671">
</g><g
         id="g6673">
</g><g
         id="g6675">
</g></g></g></svg>
