<?xml version="1.0" encoding="UTF-8" standalone="no"?>
<!-- Created with Inkscape (http://www.inkscape.org/) -->

<svg
   width="1136.1499"
   height="305.00027"
   viewBox="0 0 300.60632 80.697987"
   version="1.1"
   id="svg5"
   xml:space="preserve"
   xmlns:xlink="http://www.w3.org/1999/xlink"
   xmlns="http://www.w3.org/2000/svg"
   xmlns:svg="http://www.w3.org/2000/svg"><defs
     id="defs2"><rect
       x="2091.0645"
       y="-2056.8237"
       width="1310.9619"
       height="319.06738"
       id="rect38373" /><linearGradient
       id="linearGradient19172"><stop
         style="stop-color:#000000;stop-opacity:1;"
         offset="0"
         id="stop38996" /><stop
         style="stop-color:#000000;stop-opacity:0;"
         offset="1"
         id="stop38998" /></linearGradient><style
       id="style5220">.cls-1{fill:#c8c2e9;}.cls-2{fill:#dfdafd;}.cls-3{fill:#b9b1e0;}.cls-4{fill:#4d4c78;}.cls-5{fill:#67baeb;}.cls-6{fill:#de3226;}.cls-7{fill:#231f20;}.cls-8{fill:#f4c23f;}.cls-9{fill:#46a1f8;}.cls-10{fill:#b11a31;}.cls-11{fill:#f4a93f;}.cls-12{fill:#8a87b2;}.cls-13{fill:#83d0fb;}.cls-14{fill:#fad564;}.cls-15{fill:#f44533;}</style><linearGradient
       id="silverline"><stop
         style="stop-color:#8cbff2;stop-opacity:1;"
         offset="0.04451345"
         id="stop15058" /><stop
         style="stop-color:#ffffff;stop-opacity:1;"
         offset="0.50488615"
         id="stop15060" /></linearGradient><style
       id="style6568">.cls-1{fill:none;}.cls-2{clip-path:url(#clip-path);}</style><style
       id="style6568-5">.cls-1{fill:none;}.cls-2{clip-path:url(#clip-path);}</style><style
       id="style6568-9">.cls-1{fill:none;}.cls-2{clip-path:url(#clip-path);}</style><style
       id="style22571">.cls-1{fill:#84d0f7;}.cls-2{fill:#aa392d;}.cls-3{fill:#7c211a;}.cls-4{fill:#e59973;}.cls-5{fill:#2d2d2d;}.cls-6{opacity:0.2;}.cls-7{opacity:0.3;}</style><style
       id="style23309">
      .cls-1 {
        fill: none;
      }
    </style><style
       id="style6568-7">.cls-1{fill:none;}.cls-2{clip-path:url(#clip-path);}</style><style
       id="style6568-5-5">.cls-1{fill:none;}.cls-2{clip-path:url(#clip-path);}</style><style
       id="style6568-9-3">.cls-1{fill:none;}.cls-2{clip-path:url(#clip-path);}</style><style
       id="style22571-5">.cls-1{fill:#84d0f7;}.cls-2{fill:#aa392d;}.cls-3{fill:#7c211a;}.cls-4{fill:#e59973;}.cls-5{fill:#2d2d2d;}.cls-6{opacity:0.2;}.cls-7{opacity:0.3;}</style><style
       id="style23309-6">
      .cls-1 {
        fill: none;
      }
    </style><linearGradient
       xlink:href="#silverline"
       id="linearGradient2604"
       x1="297.19287"
       y1="-584.2901"
       x2="297.19287"
       y2="-634.74341"
       gradientUnits="userSpaceOnUse"
       gradientTransform="translate(0,8.1814125)" /></defs><g
     id="layer1"
     transform="translate(-109.75216,645.72782)"><path
       id="path976"
       style="font-style:normal;font-variant:normal;font-weight:normal;font-stretch:normal;font-size:192px;font-family:Rubik;-inkscape-font-specification:Rubik;letter-spacing:-0.537826px;word-spacing:0px;white-space:pre;shape-inside:url(#rect38373);fill:url(#linearGradient2604);fill-opacity:1;stroke-width:0;stroke-dasharray:none"
       d="m 345.54458,-626.26603 c -2.41732,4.5e-4 -4.36363,1.94677 -4.36363,4.36418 v 2.51378 c -0.005,0.52366 -0.003,1.05748 -0.003,1.59407 0,1.9474 0.005,3.22494 -0.0165,5.0644 -8.20062,-4.73462 -18.91421,-0.23388 -21.61406,7.48329 -2.2809,5.91931 -2.81171,18.10708 3.18952,24.9763 4.86988,4.82051 13.34505,5.46456 19.14952,2.01213 2.63609,3.08018 7.17285,2.0117 8.13869,-1.47307 0.46765,-2.66154 -0.12374,-5.39282 0.11606,-8.08643 -0.017,-11.4381 0.0726,-18.52269 -0.23267,-29.87431 v -4.21016 c 0,-2.41741 -1.94579,-4.36373 -4.36309,-4.36418 z m -56.9246,11.44565 c -2.66884,0 -4.44064,1.35254 -4.44064,5.93186 0.0602,9.92221 -0.23046,18.4166 0.29263,28.30223 0,5.73121 8.67665,5.64062 8.67665,-0.45269 0,-0.83854 -0.009,-2.05776 -0.0165,-3.15131 -0.0157,-0.16169 -0.0237,-0.32541 -0.0237,-0.49065 v -14.09708 c 0,-3.24463 3.55829,-6.01631 6.8884,-6.01631 3.31456,0 6.29846,2.49883 6.29846,6.78002 v 14.93887 c 0,4.566 1.72225,6.13373 4.11666,6.19655 3.16657,0 4.60619,-1.93053 4.60619,-5.16341 0,-7.97549 1.03682,-19.67594 -0.88822,-24.53043 -2.63607,-5.32455 -6.01673,-7.44291 -13.73375,-7.44291 -3.0193,0 -5.63103,0.80629 -8.09523,2.14799 -0.52613,-1.96354 -1.34878,-2.95273 -3.68099,-2.95273 z m 102.77548,-0.35412 c -2.20871,0 -4.32221,1.0271 -3.97536,5.63812 0.0143,9.87401 -0.16817,18.3069 0.22222,28.169 0,6.41527 8.7278,5.47348 8.7278,0.22828 0.12149,-2.97578 -0.0729,-19.08977 0.79484,-21.49854 1.1965,-3.32116 5.43336,-2.92373 8.42721,-2.92373 6.212,0 6.44563,-8.40545 0.14876,-8.40545 -4.11113,0 -7.98482,-0.36768 -10.35266,2.00016 -0.48024,-1.79231 -0.97709,-3.20784 -3.99281,-3.20784 z m -144.96729,1.02135 v 10e-4 c -1.8868,-0.007 -3.80661,1.0394 -4.52755,3.72996 -1.61922,5.54563 -3.24707,11.0884 -4.89388,16.62611 -1.98316,-6.06776 -2.94378,-8.7854 -5.87628,-16.95999 -1.77953,-4.96055 -7.48633,-4.39598 -8.64696,-0.0644 -0.50478,1.88389 -1.97239,6.51636 -3.2316,9.68876 -0.78668,2.45263 -1.57366,4.90498 -2.3603,7.3576 -1.88404,-6.13353 -3.07025,-12.09083 -5.63854,-17.96963 -0.71856,-1.24462 -1.74201,-2.1378 -3.90061,-2.08336 -3.16861,0.0798 -4.92115,2.08157 -3.90377,5.87849 2.88331,9.78727 5.01789,18.38334 9.04078,27.74709 2.06101,4.79724 8.6611,3.30892 9.79768,-0.93276 1.43327,-5.34902 3.11737,-9.88371 4.67055,-14.84337 1.93219,5.92404 3.37888,10.49805 5.77729,16.24821 1.67527,4.01641 8.61497,2.69441 9.97423,-2.37846 2.50715,-9.35675 5.71124,-17.92509 8.13924,-27.21091 0.63748,-2.37914 -1.42995,-4.82898 -4.23767,-4.82898 -0.0607,-0.003 -0.12176,-0.003 -0.18261,-0.005 z m 18.80985,0.1067 c -6.36966,0 -12.98441,3.99751 -13.54302,10.50781 0,3.78277 6.60872,4.45256 8.73164,0.77558 2.31045,-3.68121 9.09716,-3.51742 10.66897,0.70298 0.23507,0.87729 -0.94709,1.09017 -3.45163,1.29758 -5.95919,0.49351 -12.82541,1.86484 -16.40113,7.2421 -3.26393,4.85221 -1.37224,11.94452 3.55668,14.92753 5.01512,3.34303 11.95266,3.28292 17.06562,0.17547 3.81943,3.81944 8.81902,2.51017 8.14418,-2.6689 -0.19133,-8.27917 1.75705,-20.40757 -0.81573,-24.8638 -1.99006,-5.55981 -8.04801,-8.09524 -13.95558,-8.09524 z m 102.43437,0.0275 c -0.40036,-8e-4 -0.76563,0.008 -1.18042,0.0534 v 10e-4 c -7.67113,1.01826 -13.34425,8.41239 -13.48032,15.96274 -0.72903,7.06221 1.0545,15.26049 7.29104,19.43692 7.68535,5.0297 19.05175,3.04018 22.84179,-5.55505 1.15538,-4.1768 -3.75798,-7.64309 -7.61998,-3.78112 -2.08396,1.96621 -3.74462,3.54639 -6.98246,2.98518 -3.0436,-0.52758 -5.91346,-2.87106 -6.26903,-5.99951 6.63116,-0.0849 11.32261,-0.24973 17.94934,-0.24973 5.23212,0 4.88094,-5.46216 4.41885,-8.32184 -1.63942,-6.11835 -4.31314,-14.51884 -15.57715,-14.51884 -0.55553,0 -0.9913,-0.0132 -1.39166,-0.0132 z m -33.8584,8.34716 h 0.68979 c 3.89726,0 7.03472,3.8657 7.03472,8.66729 v 4.02754 c 0,4.80162 -3.13746,8.6673 -7.03472,8.6673 h -0.68979 c -3.89724,0 -7.0347,-3.86568 -7.0347,-8.6673 v -4.02754 c 0,-4.80159 3.13746,-8.66729 7.0347,-8.66729 z m 34.75445,0.32399 c 0.10097,-0.002 0.20238,-3.8e-4 0.30419,0.003 v -5.5e-4 c 3.22014,0 6.20008,2.55422 6.79874,5.70191 -4.50679,0 -9.01313,0.0292 -13.51993,0.0292 0.56656,-3.00815 3.28582,-5.67985 6.417,-5.73384 z m -99.13841,12.33729 c 0.87307,0.0182 1.45634,0.18322 1.61003,0.4494 0.47613,0.82469 -0.33662,2.7907 -0.90816,3.90323 -1.9332,3.7632 -8.36488,4.70731 -10.91813,2.15403 -1.42161,-1.42161 0.23338,-3.14008 1.73818,-4.00883 3.2342,-1.86728 6.55731,-2.53785 8.47808,-2.49783 z" /><path
       fill="#a6d388"
       d="m 120.21365,-577.85656 c 6.80247,6.82102 15.62428,12.82491 29.37839,12.82674 8.20058,10e-4 18.77118,-1.49291 30.01001,-7.98169 6.78919,-3.91974 3.6809,-8.91014 -1.39981,-11.84353 -11.90404,-6.87278 -8.77032,-19.78456 -19.98799,-31.00222 -11.99129,-11.99371 -28.7232,-14.70526 -40.7169,-2.7139 -11.99136,11.99136 -9.26114,28.70456 2.7163,40.7146 z"
       id="path978"
       style="fill:#41d94e;fill-opacity:1;stroke-width:2.39541" /><path
       style="fill:#92ceec;fill-opacity:1;stroke-width:2.39541"
       d="m 182.22785,-618.44335 c -2.84137,0.62918 -2.58062,3.91725 -5.37846,6.52292 -2.38277,2.21918 -5.49209,3.22312 -6.78557,5.46348 -1.41932,2.45828 0.91871,6.1864 5.14287,3.74769 4.42071,-2.55234 8.50206,-5.38804 10.55697,-10.35569 1.12641,-2.7233 -0.11884,-5.03756 -2.45961,-5.3784 -0.36352,-0.0662 -0.7123,-0.0573 -1.0762,0 z"
       id="path980" /><path
       style="fill:#7dc4e8;fill-opacity:1;stroke-width:2.39541"
       d="m 180.2853,-641.75362 c -2.67855,0.49446 -2.79472,3.80478 -3.14941,5.8527 -1.44843,6.93625 -5.91478,13.55563 -12.6218,16.30009 -3.1055,1.79288 -1.60864,6.8685 2.36257,5.8434 4.11096,-1.05433 7.4162,-4.0732 10.18049,-7.15811 4.24741,-5.16463 6.91674,-10.67901 7.06368,-17.37027 0,-3.06437 -2.19848,-3.79466 -3.83553,-3.46781 z"
       id="path982" /><path
       style="fill:#bee2f4;fill-opacity:1;stroke-width:2.39541"
       d="m 168.75311,-645.72781 c -2.72621,0 -3.25523,3.0703 -3.57394,5.10893 -0.87728,5.61062 -5.45993,9.88063 -10.52654,12.37463 -3.32195,1.6353 -1.24226,6.7533 2.55444,5.736 4.35329,-1.31094 7.88859,-4.58333 10.60394,-8.12595 2.61436,-3.68376 4.08503,-7.07836 4.08503,-11.6453 0,-2.27057 -1.34973,-3.44831 -3.14293,-3.44831 z"
       id="path984" /><path
       fill="#77b255"
       d="m 156.60764,-577.80953 c 7.37846,1.81945 16.2748,1.46538 18.41176,0.35461 1.23114,-0.64014 0.82561,-1.34155 -0.075,-1.38125 -2.06425,-0.0915 -9.19269,0.50842 -16.44525,-3.54305 -2.65142,-1.38646 -2.65402,-2.14084 0.47791,-3.28433 1.91485,-0.69362 5.96378,-1.41411 7.16048,-2.03631 1.4272,-0.74195 0.75671,-1.64549 -0.32539,-1.7667 -2.16556,-0.24276 -6.62892,0.19386 -11.60865,0.79066 -2.99911,0.24977 -2.83368,0.38768 -6.05688,-2.33916 -2.65567,-3.38056 -3.62192,-3.36308 -1.22701,-5.09071 5.01087,-3.63005 9.94897,-5.00495 12.70811,-5.61517 1.81563,-0.40166 2.44308,-1.53061 0.53638,-2.13264 -3.30645,-1.04449 -10.37197,-1.00225 -17.93626,2.93059 -1.78163,1.23668 -1.49228,1.07163 -4.072,-2.64493 -2.43979,-3.58728 -2.29253,-4.04008 -0.12329,-5.54521 5.61652,-3.89731 13.49138,-4.15214 16.94445,-4.04583 0.69069,-0.0573 0.91973,-0.86469 0.0191,-1.35437 -4.05097,-2.18415 -14.3074,-3.66004 -21.71963,0.24469 -1.76238,1.22339 -2.15527,0.6776 -3.37522,-1.08045 l -12.26343,-17.67245 c -1.04652,-1.51021 -3.24111,-1.79689 -4.74693,-0.7517 -1.50823,1.04689 -2.00477,3.20145 -0.95793,4.70962 l 11.74001,16.91376 c 1.77229,2.55329 1.94432,2.97197 0.27455,4.57431 -5.40986,5.22067 -6.82695,14.44342 -6.79047,19.06324 0.15443,1.85116 1.69825,1.65834 2.08268,0.84273 1.57706,-3.57052 4.34261,-11.37898 9.23546,-14.77416 1.1707,-0.81246 1.55564,-0.52684 6.65428,6.80454 0.47283,0.68108 0.56619,1.34215 0.0318,2.14914 -4.37973,6.64308 -4.59308,15.34686 -2.89902,19.54579 0.67137,1.86857 2.12717,1.59257 2.11687,-0.0127 -0.0191,-2.97415 1.33464,-8.43965 4.2095,-13.04906 2.09044,-3.35184 1.52628,-1.84462 5.27741,1.57298 5.09266,4.30894 4.30436,4.18323 4.57071,7.37827 0.21035,3.2661 0.72691,6.9496 1.61595,8.65966 0.56561,1.08739 2.2326,1.53137 2.32202,-0.49317 0.0756,-1.72716 -0.0661,-4.2148 0.25802,-6.53948 0.59231,-3.28142 0.59422,-2.22099 3.9728,-1.38093 z"
       id="path986"
       style="fill:#1cb835;fill-opacity:1;stroke-width:2.07381" /></g><style
     type="text/css"
     id="style1941">
	.st0{fill:none;stroke:#000000;stroke-width:2;stroke-linecap:round;stroke-linejoin:round;stroke-miterlimit:10;}
</style><style
     type="text/css"
     id="style1941-0">
	.st0{fill:none;stroke:#000000;stroke-width:2;stroke-linecap:round;stroke-linejoin:round;stroke-miterlimit:10;}
</style><style
     type="text/css"
     id="style1941-7">
	.st0{fill:none;stroke:#000000;stroke-width:2;stroke-linecap:round;stroke-linejoin:round;stroke-miterlimit:10;}
</style><style
     type="text/css"
     id="style22485">
	.st0{fill:none;stroke:#6C3DB7;stroke-width:4;stroke-linecap:round;stroke-linejoin:round;stroke-miterlimit:10;}
	.st1{fill:none;stroke:#1F992A;stroke-width:4;stroke-linecap:round;stroke-linejoin:round;stroke-miterlimit:10;}
	.st2{fill:none;stroke:#6A83BA;stroke-width:4;stroke-linecap:round;stroke-linejoin:round;stroke-miterlimit:10;}
	.st3{fill:#8A8AFF;stroke:#8A8AFF;stroke-width:2;stroke-linecap:round;stroke-linejoin:round;stroke-miterlimit:10;}
	.st4{fill:#6C3DB7;stroke:#6C3DB7;stroke-width:2;stroke-linecap:round;stroke-linejoin:round;stroke-miterlimit:10;}
	.st5{fill:#A576FF;stroke:#A576FF;stroke-width:2;stroke-linecap:round;stroke-linejoin:round;stroke-miterlimit:10;}
	.st6{fill:#F2BB41;stroke:#F2BB41;stroke-width:2;stroke-linecap:round;stroke-linejoin:round;stroke-miterlimit:10;}
	.st7{fill:#E08838;stroke:#E08838;stroke-width:2;stroke-linecap:round;stroke-linejoin:round;stroke-miterlimit:10;}
	.st8{fill:#1F992A;stroke:#1F992A;stroke-width:2;stroke-linecap:round;stroke-linejoin:round;stroke-miterlimit:10;}
	.st9{fill:#5EC11E;stroke:#5EC11E;stroke-width:2;stroke-linecap:round;stroke-linejoin:round;stroke-miterlimit:10;}
	.st10{fill:#E3FAFF;stroke:#E3FAFF;stroke-width:2;stroke-linecap:round;stroke-linejoin:round;stroke-miterlimit:10;}
	.st11{fill:#FF5093;stroke:#FF5093;stroke-width:2;stroke-linecap:round;stroke-linejoin:round;stroke-miterlimit:10;}
	.st12{fill:#B7257F;stroke:#B7257F;stroke-width:2;stroke-linecap:round;stroke-linejoin:round;stroke-miterlimit:10;}
	.st13{fill:#5189E5;stroke:#5189E5;stroke-width:2;stroke-linecap:round;stroke-linejoin:round;stroke-miterlimit:10;}
	.st14{fill:#6EBAFF;stroke:#6EBAFF;stroke-width:2;stroke-linecap:round;stroke-linejoin:round;stroke-miterlimit:10;}
	.st15{fill:#EDD977;stroke:#EDD977;stroke-width:2;stroke-linecap:round;stroke-linejoin:round;stroke-miterlimit:10;}
	.st16{fill:#8C43FF;stroke:#8C43FF;stroke-width:2;stroke-linecap:round;stroke-linejoin:round;stroke-miterlimit:10;}
	.st17{fill:#5252BA;stroke:#5252BA;stroke-width:2;stroke-linecap:round;stroke-linejoin:round;stroke-miterlimit:10;}
	.st18{fill:none;stroke:#E3FAFF;stroke-width:4;stroke-linecap:round;stroke-linejoin:round;stroke-miterlimit:10;}
	.st19{fill:#354C75;stroke:#354C75;stroke-width:2;stroke-linecap:round;stroke-linejoin:round;stroke-miterlimit:10;}
</style><style
     type="text/css"
     id="style23106">
	.st0{fill:none;stroke:#000000;stroke-width:2;stroke-linecap:round;stroke-linejoin:round;stroke-miterlimit:10;}
	.st1{fill:none;stroke:#000000;stroke-width:2;stroke-linejoin:round;stroke-miterlimit:10;}
</style><style
     type="text/css"
     id="style1941-1">
	.st0{fill:none;stroke:#000000;stroke-width:2;stroke-linecap:round;stroke-linejoin:round;stroke-miterlimit:10;}
</style><style
     type="text/css"
     id="style1941-0-8">
	.st0{fill:none;stroke:#000000;stroke-width:2;stroke-linecap:round;stroke-linejoin:round;stroke-miterlimit:10;}
</style><style
     type="text/css"
     id="style1941-7-7">
	.st0{fill:none;stroke:#000000;stroke-width:2;stroke-linecap:round;stroke-linejoin:round;stroke-miterlimit:10;}
</style><style
     type="text/css"
     id="style22485-9">
	.st0{fill:none;stroke:#6C3DB7;stroke-width:4;stroke-linecap:round;stroke-linejoin:round;stroke-miterlimit:10;}
	.st1{fill:none;stroke:#1F992A;stroke-width:4;stroke-linecap:round;stroke-linejoin:round;stroke-miterlimit:10;}
	.st2{fill:none;stroke:#6A83BA;stroke-width:4;stroke-linecap:round;stroke-linejoin:round;stroke-miterlimit:10;}
	.st3{fill:#8A8AFF;stroke:#8A8AFF;stroke-width:2;stroke-linecap:round;stroke-linejoin:round;stroke-miterlimit:10;}
	.st4{fill:#6C3DB7;stroke:#6C3DB7;stroke-width:2;stroke-linecap:round;stroke-linejoin:round;stroke-miterlimit:10;}
	.st5{fill:#A576FF;stroke:#A576FF;stroke-width:2;stroke-linecap:round;stroke-linejoin:round;stroke-miterlimit:10;}
	.st6{fill:#F2BB41;stroke:#F2BB41;stroke-width:2;stroke-linecap:round;stroke-linejoin:round;stroke-miterlimit:10;}
	.st7{fill:#E08838;stroke:#E08838;stroke-width:2;stroke-linecap:round;stroke-linejoin:round;stroke-miterlimit:10;}
	.st8{fill:#1F992A;stroke:#1F992A;stroke-width:2;stroke-linecap:round;stroke-linejoin:round;stroke-miterlimit:10;}
	.st9{fill:#5EC11E;stroke:#5EC11E;stroke-width:2;stroke-linecap:round;stroke-linejoin:round;stroke-miterlimit:10;}
	.st10{fill:#E3FAFF;stroke:#E3FAFF;stroke-width:2;stroke-linecap:round;stroke-linejoin:round;stroke-miterlimit:10;}
	.st11{fill:#FF5093;stroke:#FF5093;stroke-width:2;stroke-linecap:round;stroke-linejoin:round;stroke-miterlimit:10;}
	.st12{fill:#B7257F;stroke:#B7257F;stroke-width:2;stroke-linecap:round;stroke-linejoin:round;stroke-miterlimit:10;}
	.st13{fill:#5189E5;stroke:#5189E5;stroke-width:2;stroke-linecap:round;stroke-linejoin:round;stroke-miterlimit:10;}
	.st14{fill:#6EBAFF;stroke:#6EBAFF;stroke-width:2;stroke-linecap:round;stroke-linejoin:round;stroke-miterlimit:10;}
	.st15{fill:#EDD977;stroke:#EDD977;stroke-width:2;stroke-linecap:round;stroke-linejoin:round;stroke-miterlimit:10;}
	.st16{fill:#8C43FF;stroke:#8C43FF;stroke-width:2;stroke-linecap:round;stroke-linejoin:round;stroke-miterlimit:10;}
	.st17{fill:#5252BA;stroke:#5252BA;stroke-width:2;stroke-linecap:round;stroke-linejoin:round;stroke-miterlimit:10;}
	.st18{fill:none;stroke:#E3FAFF;stroke-width:4;stroke-linecap:round;stroke-linejoin:round;stroke-miterlimit:10;}
	.st19{fill:#354C75;stroke:#354C75;stroke-width:2;stroke-linecap:round;stroke-linejoin:round;stroke-miterlimit:10;}
</style><style
     type="text/css"
     id="style23106-2">
	.st0{fill:none;stroke:#000000;stroke-width:2;stroke-linecap:round;stroke-linejoin:round;stroke-miterlimit:10;}
	.st1{fill:none;stroke:#000000;stroke-width:2;stroke-linejoin:round;stroke-miterlimit:10;}
</style><style
     type="text/css"
     id="style4736">
<![CDATA[
	.st0{fill:#D1D1D1;}
	.st1{fill:#454545;}
]]>
</style></svg>
