<?xml version="1.0" encoding="UTF-8" standalone="no"?>
<!-- Created with Inkscape (http://www.inkscape.org/) -->

<svg
   width="1136.1499"
   height="305.00027"
   viewBox="0 0 300.60632 80.697987"
   version="1.1"
   id="svg5"
   inkscape:version="1.2.2 (b0a8486541, 2022-12-01)"
   sodipodi:docname="wander.svg"
   xml:space="preserve"
   inkscape:export-filename="main.png"
   inkscape:export-xdpi="96"
   inkscape:export-ydpi="96"
   xmlns:inkscape="http://www.inkscape.org/namespaces/inkscape"
   xmlns:sodipodi="http://sodipodi.sourceforge.net/DTD/sodipodi-0.dtd"
   xmlns:xlink="http://www.w3.org/1999/xlink"
   xmlns="http://www.w3.org/2000/svg"
   xmlns:svg="http://www.w3.org/2000/svg"><sodipodi:namedview
     id="namedview7"
     pagecolor="#ffffff"
     bordercolor="#cccccc"
     borderopacity="1"
     inkscape:showpageshadow="0"
     inkscape:pageopacity="0"
     inkscape:pagecheckerboard="false"
     inkscape:deskcolor="#ffffff"
     inkscape:document-units="px"
     showgrid="false"
     inkscape:zoom="0.5"
     inkscape:cx="91"
     inkscape:cy="489"
     inkscape:window-width="1920"
     inkscape:window-height="1011"
     inkscape:window-x="0"
     inkscape:window-y="32"
     inkscape:window-maximized="1"
     inkscape:current-layer="layer1"
     showguides="false"><inkscape:grid
       type="xygrid"
       id="grid106283"
       originx="-109.75216"
       originy="740.69318" /><inkscape:page
       x="-1.9660842e-08"
       y="5.7573919e-07"
       width="300.60632"
       height="80.69799"
       id="page108868"
       inkscape:label="Logo_Dark" /><inkscape:page
       x="412.31003"
       y="140.5161"
       width="110.90741"
       height="121.10403"
       id="page5326"
       inkscape:label="Seed" /><inkscape:page
       x="412.08948"
       y="5.8294225"
       width="114.68613"
       height="121.0876"
       id="page5328"
       inkscape:label="Leaf" /><inkscape:page
       x="-1.9660842e-08"
       y="94.965294"
       width="300.60632"
       height="80.69799"
       id="page924"
       inkscape:label="Logo_Light" /></sodipodi:namedview><defs
     id="defs2"><linearGradient
       inkscape:collect="always"
       id="linearGradient7354"><stop
         style="stop-color:#594931;stop-opacity:1;"
         offset="0"
         id="stop7350" /><stop
         style="stop-color:#a68253;stop-opacity:1;"
         offset="1"
         id="stop7352" /></linearGradient><rect
       x="2091.0645"
       y="-2056.8237"
       width="1310.9619"
       height="319.06738"
       id="rect38373" /><rect
       x="3177.6611"
       y="-1000.1343"
       width="232.2876"
       height="152.89307"
       id="rect38367" /><rect
       x="707.52112"
       y="-1591.5771"
       width="40.690903"
       height="14.377844"
       id="rect36612" /><inkscape:path-effect
       effect="spiro"
       id="path-effect25737"
       is_visible="true"
       lpeversion="1" /><inkscape:path-effect
       effect="spiro"
       id="path-effect25727"
       is_visible="true"
       lpeversion="1" /><linearGradient
       id="linearGradient53173"><stop
         style="stop-color:#171a1c;stop-opacity:1;"
         offset="0"
         id="stop53169" /><stop
         style="stop-color:#000000;stop-opacity:0;"
         offset="1"
         id="stop53171" /></linearGradient><linearGradient
       id="linearGradient19172"
       inkscape:swatch="gradient"><stop
         style="stop-color:#000000;stop-opacity:1;"
         offset="0"
         id="stop38996" /><stop
         style="stop-color:#000000;stop-opacity:0;"
         offset="1"
         id="stop38998" /></linearGradient><rect
       x="1271.9746"
       y="917.7583"
       width="1512.8881"
       height="519.16003"
       id="rect36172" /><linearGradient
       id="linearGradient19172-1"><stop
         style="stop-color:#000000;stop-opacity:1;"
         offset="0"
         id="stop19168" /><stop
         style="stop-color:#000000;stop-opacity:0;"
         offset="1"
         id="stop19170" /></linearGradient><linearGradient
       id="linear-gradient"
       x1="0.38600001"
       y1="0.35600001"
       x2="0.58999997"
       y2="0.61400002"
       gradientUnits="objectBoundingBox"><stop
         offset="0"
         stop-color="#face00"
         id="stop4419" /><stop
         offset="1"
         stop-color="#f68600"
         id="stop4421" /></linearGradient><linearGradient
       id="linear-gradient-2"
       x1="481.19022"
       y1="243.45332"
       x2="513.01984"
       y2="270.56314"
       xlink:href="#linear-gradient"
       gradientTransform="scale(1.0001042,0.99989576)"
       gradientUnits="userSpaceOnUse" /><style
       id="style5220">.cls-1{fill:#c8c2e9;}.cls-2{fill:#dfdafd;}.cls-3{fill:#b9b1e0;}.cls-4{fill:#4d4c78;}.cls-5{fill:#67baeb;}.cls-6{fill:#de3226;}.cls-7{fill:#231f20;}.cls-8{fill:#f4c23f;}.cls-9{fill:#46a1f8;}.cls-10{fill:#b11a31;}.cls-11{fill:#f4a93f;}.cls-12{fill:#8a87b2;}.cls-13{fill:#83d0fb;}.cls-14{fill:#fad564;}.cls-15{fill:#f44533;}</style><linearGradient
       inkscape:collect="always"
       xlink:href="#linearGradient53173"
       id="linearGradient47963"
       gradientUnits="userSpaceOnUse"
       gradientTransform="matrix(0.30334529,0,0,0.30334528,-11.874109,-4.8694964)"
       x1="406.5416"
       y1="159.73495"
       x2="352.82047"
       y2="159.73495" /><linearGradient
       inkscape:collect="always"
       xlink:href="#linearGradient7354"
       id="linearGradient669"
       gradientUnits="userSpaceOnUse"
       gradientTransform="matrix(1.068642,0,0,1.068642,-21.212973,-4.4012015)"
       x1="252.71631"
       y1="509.69827"
       x2="252.71631"
       y2="312.83084" /><linearGradient
       id="silverline"><stop
         style="stop-color:#8cbff2;stop-opacity:1;"
         offset="0.04451345"
         id="stop15058" /><stop
         style="stop-color:#ffffff;stop-opacity:1;"
         offset="0.50488615"
         id="stop15060" /></linearGradient><linearGradient
       id="dorkodu"><stop
         style="stop-color:#006644;stop-opacity:1;"
         offset="0.0001"
         id="stop15052" /><stop
         style="stop-color:#36e236;stop-opacity:1;"
         offset="0.99989998"
         id="stop15054" /></linearGradient><linearGradient
       id="linearGradient11766"><stop
         style="stop-color:#7db2e8;stop-opacity:1;"
         offset="0.04451345"
         id="stop11762" /><stop
         style="stop-color:#ffffff;stop-opacity:1;"
         offset="0.50488615"
         id="stop11764" /></linearGradient><style
       id="style6568">.cls-1{fill:none;}.cls-2{clip-path:url(#clip-path);}</style><style
       id="style6568-5">.cls-1{fill:none;}.cls-2{clip-path:url(#clip-path);}</style><style
       id="style6568-9">.cls-1{fill:none;}.cls-2{clip-path:url(#clip-path);}</style><style
       id="style22571">.cls-1{fill:#84d0f7;}.cls-2{fill:#aa392d;}.cls-3{fill:#7c211a;}.cls-4{fill:#e59973;}.cls-5{fill:#2d2d2d;}.cls-6{opacity:0.2;}.cls-7{opacity:0.3;}</style><style
       id="style23309">
      .cls-1 {
        fill: none;
      }
    </style><linearGradient
       xlink:href="#dorkodu"
       id="linearGradient7511"
       gradientUnits="userSpaceOnUse"
       gradientTransform="matrix(0.6425786,0,0,0.64257862,91.64757,230.6564)"
       x1="211.29193"
       y1="762.6239"
       x2="301.67172"
       y2="672.24414" /><linearGradient
       xlink:href="#linearGradient11766"
       id="linearGradient7519"
       x1="183.2226"
       y1="668.23676"
       x2="244.85902"
       y2="668.23676"
       gradientUnits="userSpaceOnUse" /><linearGradient
       xlink:href="#silverline"
       id="linearGradient9162"
       x1="216.42819"
       y1="675.01855"
       x2="216.42819"
       y2="661.53064"
       gradientUnits="userSpaceOnUse"
       gradientTransform="translate(224.53669,29.278843)" /><style
       id="style6568-7">.cls-1{fill:none;}.cls-2{clip-path:url(#clip-path);}</style><style
       id="style6568-5-5">.cls-1{fill:none;}.cls-2{clip-path:url(#clip-path);}</style><style
       id="style6568-9-3">.cls-1{fill:none;}.cls-2{clip-path:url(#clip-path);}</style><style
       id="style22571-5">.cls-1{fill:#84d0f7;}.cls-2{fill:#aa392d;}.cls-3{fill:#7c211a;}.cls-4{fill:#e59973;}.cls-5{fill:#2d2d2d;}.cls-6{opacity:0.2;}.cls-7{opacity:0.3;}</style><style
       id="style23309-6">
      .cls-1 {
        fill: none;
      }
    </style><linearGradient
       inkscape:collect="always"
       xlink:href="#silverline"
       id="linearGradient2604"
       x1="297.19287"
       y1="-584.2901"
       x2="297.19287"
       y2="-634.74341"
       gradientUnits="userSpaceOnUse"
       gradientTransform="matrix(0.96487041,0,0,0.96487041,8.5948909,-14.987052)" /></defs><g
     inkscape:label="Layer 1"
     inkscape:groupmode="layer"
     id="layer1"
     transform="translate(-109.75216,740.69311)"><rect
       style="fill:#0a0b0d;fill-opacity:1;stroke-width:11.8758"
       id="rect2658"
       width="446.64346"
       height="276.04083"
       x="-380.43524"
       y="-522.69086"
       rx="19.843748"
       ry="19.843748" /><text
       xml:space="preserve"
       style="font-size:3.175px;font-family:Rubik;-inkscape-font-specification:Rubik;opacity:0.35568;fill:#eff5fa;fill-opacity:1;stroke-width:0.264583"
       x="53.013325"
       y="-247.31952"
       id="text11518"><tspan
         sodipodi:role="line"
         id="tspan11516"
         style="stroke-width:0.264583"
         x="53.013325"
         y="-247.31952" /></text><text
       xml:space="preserve"
       style="font-size:3.175px;font-family:Rubik;-inkscape-font-specification:Rubik;opacity:0.35568;fill:#eff5fa;fill-opacity:1;stroke-width:0.264583"
       x="-63.762154"
       y="-264.61349"
       id="text11522"><tspan
         sodipodi:role="line"
         id="tspan11520"
         style="stroke-width:0.264583"
         x="-63.762154"
         y="-264.61349" /></text><text
       xml:space="preserve"
       transform="scale(0.26458332)"
       id="text36170"
       style="font-style:normal;font-variant:normal;font-weight:bold;font-stretch:normal;font-size:85.3333px;font-family:Rubik;-inkscape-font-specification:'Rubik Bold';white-space:pre;shape-inside:url(#rect36172);display:inline;opacity:1;fill:#eff5fa;fill-opacity:1;stroke:#000000;stroke-width:100;stroke-linecap:round;stroke-linejoin:round;stroke-dasharray:none;stroke-dashoffset:0;stroke-opacity:1;paint-order:stroke fill markers" /><g
       id="g54440"
       transform="matrix(0.90695038,0,0,0.90695038,0.43994453,-18.762067)" /><path
       style="font-style:normal;font-variant:normal;font-weight:normal;font-stretch:normal;font-size:192px;font-family:Rubik;-inkscape-font-specification:Rubik;letter-spacing:-0.537826px;word-spacing:0px;white-space:pre;shape-inside:url(#rect38373);fill:#16181d;fill-opacity:1;stroke-width:0;stroke-dasharray:none"
       d="m 359.11771,-712.35414 c -0.3863,-7.6e-4 -0.73874,0.008 -1.13896,0.0515 v 9.6e-4 c -7.40164,0.98249 -12.87547,8.11687 -13.00676,15.40198 -0.70341,6.81412 1.01745,14.72439 7.03491,18.7541 7.41536,4.853 18.38247,2.93339 22.03937,-5.3599 1.11478,-4.03008 -3.62596,-7.37459 -7.3523,-3.6483 -2.01075,1.89716 -3.61307,3.42182 -6.73716,2.88031 -2.93668,-0.50903 -5.70573,-2.77018 -6.04881,-5.78874 6.39821,-0.0819 10.92486,-0.24094 17.31879,-0.24094 5.04832,0 4.70947,-5.27029 4.26362,-8.02952 -1.58183,-5.90342 -4.16162,-14.0088 -15.02994,-14.0088 -0.53601,0 -0.95647,-0.0128 -1.34276,-0.0128 z m 0.86457,8.36653 c 0.0974,-0.002 0.19527,-3.6e-4 0.2935,0.003 v -5.2e-4 c 3.10702,0 5.98227,2.46447 6.55991,5.5016 -4.34847,0 -8.69651,0.0282 -13.04499,0.0282 0.54666,-2.90245 3.1704,-5.48032 6.19158,-5.5324 z"
       id="path7079" /><path
       style="font-style:normal;font-variant:normal;font-weight:normal;font-stretch:normal;font-size:192px;font-family:Rubik;-inkscape-font-specification:Rubik;letter-spacing:-0.537826px;word-spacing:0px;white-space:pre;shape-inside:url(#rect38373);fill:#16181d;fill-opacity:1;stroke-width:0;stroke-dasharray:none"
       d="m 263.98601,-712.38064 c -6.1459,0 -12.52828,3.85707 -13.06727,10.13866 0,3.64988 6.37656,4.29614 8.4249,0.74834 2.22929,-3.5519 8.77759,-3.39386 10.29418,0.67827 0.22681,0.84649 -0.91382,1.05188 -3.33037,1.25202 -5.74986,0.47616 -12.37487,1.79931 -15.82497,6.98767 -3.14928,4.68177 -1.32403,11.52492 3.43173,14.40313 4.83895,3.2256 11.53277,3.1676 16.46611,0.1693 3.68526,3.68527 8.50921,2.422 7.85808,-2.57513 -0.1846,-7.98833 1.69533,-19.69065 -0.78707,-23.99035 -1.92015,-5.3645 -7.76528,-7.81085 -13.46532,-7.81085 z m 4.04474,20.29692 c 0.8424,0.0176 1.40518,0.17679 1.55347,0.43361 0.45941,0.79573 -0.32479,2.69268 -0.87626,3.76611 -1.86529,3.63101 -8.07102,4.54195 -10.53457,2.07836 -1.37168,-1.37166 0.22517,-3.02975 1.67711,-3.868 3.12058,-1.80167 6.32696,-2.44869 8.18025,-2.41008 z"
       id="path7077" /><path
       style="font-style:normal;font-variant:normal;font-weight:normal;font-stretch:normal;font-size:192px;font-family:Rubik;-inkscape-font-specification:Rubik;letter-spacing:-0.537826px;word-spacing:0px;white-space:pre;shape-inside:url(#rect38373);fill:#16181d;fill-opacity:1;stroke-width:0;stroke-dasharray:none"
       d="m 246.3661,-712.48361 v 9.6e-4 c -1.82051,-0.007 -3.67288,1.00288 -4.3685,3.59894 -1.56233,5.35081 -3.13299,10.69886 -4.72195,16.04203 -1.9135,-5.8546 -2.84037,-8.47678 -5.66985,-16.36419 -1.71702,-4.78629 -7.22334,-4.24155 -8.3432,-0.0621 -0.48704,1.81771 -1.9031,6.28745 -3.11807,9.34839 -0.75904,2.36647 -1.51838,4.73267 -2.27739,7.09913 -1.81785,-5.91805 -2.96239,-11.66607 -5.44046,-17.33836 -0.69332,-1.20088 -1.68081,-2.06269 -3.76358,-2.01018 -3.0573,0.0771 -4.74827,2.00845 -3.76663,5.67199 2.78202,9.44345 4.84161,17.73755 8.72318,26.77234 1.98861,4.62873 8.35684,3.19268 9.45349,-0.89998 1.38292,-5.16112 3.00786,-9.53651 4.50647,-14.32194 1.86432,5.71595 3.26018,10.12926 5.57434,15.67743 1.61642,3.87531 8.31234,2.59974 9.62384,-2.29491 2.41908,-9.02806 5.5106,-17.29539 7.85331,-26.255 0.61509,-2.29557 -1.37972,-4.65934 -4.0888,-4.65934 -0.0586,-0.003 -0.11748,-0.003 -0.1762,-0.005 z"
       id="path7075" /><path
       style="font-style:normal;font-variant:normal;font-weight:normal;font-stretch:normal;font-size:192px;font-family:Rubik;-inkscape-font-specification:Rubik;letter-spacing:-0.537826px;word-spacing:0px;white-space:pre;shape-inside:url(#rect38373);fill:#16181d;fill-opacity:1;stroke-width:0;stroke-dasharray:none"
       d="m 380.94905,-712.93991 c -2.13111,0 -4.17037,0.99101 -3.83571,5.44005 0.0138,9.52715 -0.16225,17.6638 0.21442,27.17944 0,6.1899 8.4212,5.28121 8.4212,0.22027 0.11722,-2.87124 -0.0704,-18.41915 0.76691,-20.74331 1.15447,-3.20449 5.24249,-2.821 8.13117,-2.821 5.99378,0 6.2192,-8.1102 0.14353,-8.1102 -3.96671,0 -7.70431,-0.35476 -9.98897,1.9299 -0.46337,-1.72933 -0.94276,-3.09515 -3.85255,-3.09515 z"
       id="path7073" /><path
       style="font-style:normal;font-variant:normal;font-weight:normal;font-stretch:normal;font-size:192px;font-family:Rubik;-inkscape-font-specification:Rubik;letter-spacing:-0.537826px;word-spacing:0px;white-space:pre;shape-inside:url(#rect38373);fill:#16181d;fill-opacity:1;stroke-width:0;stroke-dasharray:none"
       d="m 284.95905,-713.1274 c -2.57508,0 -4.28464,1.30502 -4.28464,5.72347 0.0581,9.57366 -0.22236,17.76964 0.28235,27.30799 0,5.52987 8.37184,5.44249 8.37184,-0.43678 0,-0.80908 -0.009,-1.98548 -0.0159,-3.04061 -0.0151,-0.156 -0.0229,-0.31398 -0.0229,-0.47342 v -13.60184 c 0,-3.13065 3.43328,-5.80497 6.64641,-5.80497 3.19812,0 6.0772,2.41106 6.0772,6.54185 v 14.41407 c 0,4.40559 1.66175,5.91827 3.97204,5.97886 3.05533,0 4.44438,-1.86271 4.44438,-4.98202 0,-7.6953 1.0004,-18.98472 -0.85702,-23.66869 -2.54347,-5.1375 -5.80536,-7.18143 -13.25129,-7.18143 -2.91323,0 -5.43321,0.77796 -7.81084,2.07252 -0.50765,-1.89455 -1.3014,-2.849 -3.55169,-2.849 z"
       id="path7071" /><path
       style="font-style:normal;font-variant:normal;font-weight:normal;font-stretch:normal;font-size:192px;font-family:Rubik;-inkscape-font-specification:Rubik;letter-spacing:-0.537826px;word-spacing:0px;white-space:pre;shape-inside:url(#rect38373);fill:#16181d;fill-opacity:1;stroke-width:0;stroke-dasharray:none"
       d="m 338.82558,-724.17096 c -2.3324,4.3e-4 -4.21034,1.87837 -4.21034,4.21087 v 2.42546 c -0.005,0.50527 -0.003,1.02034 -0.003,1.53807 0,1.87899 0.005,3.11166 -0.0159,4.88649 -7.91254,-4.56829 -18.24976,-0.22566 -20.85476,7.2204 -2.20078,5.71138 -2.71294,17.47099 3.07747,24.0989 4.6988,4.65117 12.87625,5.27259 18.4768,1.94144 2.54349,2.97197 6.92088,1.94104 7.85279,-1.42131 0.45122,-2.56804 -0.1194,-5.20338 0.11198,-7.80236 -0.0164,-11.03628 0.0701,-17.872 -0.2245,-28.82484 v -4.06225 c 0,-2.3325 -1.87743,-4.21044 -4.20981,-4.21087 z m -11.3185,19.87075 h 0.66556 c 3.76035,0 6.78759,3.72989 6.78759,8.36282 v 3.88605 c 0,4.63293 -3.02724,8.36282 -6.78759,8.36282 h -0.66556 c -3.76033,0 -6.78758,-3.72989 -6.78758,-8.36282 v -3.88605 c 0,-4.63293 3.02725,-8.36282 6.78758,-8.36282 z"
       id="path12407" /><path
       fill="#a6d388"
       d="m 537.53916,-633.0227 c 10.2071,10.23499 24.5369,19.24381 45.175,19.24658 12.305,0.002 27.0736,-2.2401 43.9375,-11.97657 10.1872,-5.88156 5.5232,-13.36968 -2.1004,-17.77124 -17.8621,-10.3126 -13.1599,-29.68679 -29.9921,-46.51893 -17.9929,-17.99658 -43.0992,-22.06526 -61.0959,-4.07218 -17.993,17.99306 -13.8963,43.07125 4.0759,61.09234 z"
       id="path237"
       style="fill:#41d94e;fill-opacity:1;stroke-width:3.59432"
       sodipodi:nodetypes="ssssccs" /><path
       style="fill:#92ceec;fill-opacity:1;stroke-width:3.59432"
       d="m 630.59166,-693.92328 c -4.2635,0.94407 -3.8722,5.87785 -8.0704,9.78765 -3.5753,3.3299 -8.2409,4.83632 -10.1817,8.19796 -2.1298,3.68867 1.3785,9.28273 7.7168,5.62344 6.6333,-3.82979 12.7574,-8.08479 15.8408,-15.53877 1.6902,-4.0863 -0.1783,-7.55885 -3.6907,-8.07028 -0.5454,-0.0993 -1.0688,-0.0859 -1.6148,0 z"
       id="path239"
       sodipodi:nodetypes="csssscc" /><path
       style="fill:#7dc4e8;fill-opacity:1;stroke-width:3.59432"
       d="m 627.67686,-728.90041 c -4.0192,0.74193 -4.1935,5.70907 -4.7257,8.782 -2.1734,10.40785 -8.8751,20.34026 -18.939,24.45834 -4.6598,2.6902 -2.4138,10.30621 3.545,8.76802 6.1685,-1.58203 11.128,-6.11187 15.2758,-10.74075 6.3733,-7.74952 10.3786,-16.02388 10.5991,-26.06415 0,-4.59811 -3.2988,-5.69389 -5.7552,-5.20346 z"
       id="path241" /><path
       style="fill:#bee2f4;fill-opacity:1;stroke-width:3.59432"
       d="m 610.37276,-734.86369 c -4.0907,0 -4.8845,4.60698 -5.3627,7.66596 -1.3164,8.41875 -8.1926,14.82594 -15.7951,18.56819 -4.9846,2.45373 -1.864,10.13332 3.833,8.6069 6.5321,-1.96713 11.8368,-6.87736 15.9112,-12.19303 3.9229,-5.52749 6.1296,-10.6211 6.1296,-17.47384 0,-3.40696 -2.0253,-5.17418 -4.716,-5.17418 z"
       id="path243" /><path
       fill="#77b255"
       d="m 592.14846,-632.95212 c 11.0714,2.73006 24.4204,2.1988 27.6269,0.5321 1.8473,-0.96057 1.2388,-2.01297 -0.1126,-2.07256 -3.0975,-0.13724 -13.7937,0.76287 -24.6762,-5.31639 -3.9784,-2.08037 -3.9823,-3.2123 0.7171,-4.92815 2.8732,-1.04076 8.9487,-2.12188 10.7443,-3.05544 2.1416,-1.11336 1.1355,-2.4691 -0.4882,-2.65095 -3.2494,-0.36428 -9.9467,0.29095 -17.4188,1.18639 -4.5002,0.37476 -4.252,0.5817 -9.0884,-3.50995 -3.9848,-5.07251 -5.4347,-5.04631 -1.8411,-7.63858 7.5188,-5.44693 14.9285,-7.50997 19.0685,-8.42563 2.7244,-0.60267 3.6659,-2.29667 0.8049,-3.20001 -4.9613,-1.56726 -15.5632,-1.50384 -26.9134,4.39736 -2.6734,1.85563 -2.2392,1.60799 -6.1101,-3.9687 -3.6609,-5.38277 -3.4399,-6.06221 -0.1848,-8.32064 8.4276,-5.84789 20.2439,-6.2303 25.4252,-6.07076 1.0364,-0.0859 1.38,-1.29749 0.028,-2.03223 -6.0785,-3.27737 -21.4683,-5.49192 -32.5904,0.36714 -2.6445,1.83568 -3.234,1.01674 -5.0645,-1.62125 l -18.4013,-26.51754 c -1.5704,-2.26606 -4.8634,-2.69624 -7.1228,-1.12793 -2.2632,1.57087 -3.0082,4.80381 -1.4374,7.06681 l 17.6159,25.37914 c 2.6593,3.83122 2.9175,4.45947 0.4119,6.86378 -8.1174,7.83363 -10.2438,21.67239 -10.1891,28.60445 0.2319,2.77768 2.5483,2.48834 3.1251,1.26447 2.3664,-5.35755 6.5161,-17.07415 13.8578,-22.1686 1.7567,-1.2191 2.3343,-0.79057 9.9848,10.21018 0.7095,1.02197 0.8497,2.01393 0.048,3.22482 -6.5718,9.96795 -6.8919,23.028 -4.3499,29.32851 1.0073,2.80378 3.1917,2.38963 3.1763,-0.0187 -0.028,-4.46271 2.0027,-12.66372 6.3164,-19.58016 3.1367,-5.02941 2.2902,-2.76784 7.9188,2.36028 7.6416,6.46556 6.4587,6.27692 6.8583,11.07111 0.3157,4.90079 1.0908,10.42788 2.4248,12.99386 0.8487,1.63164 3.35,2.29782 3.4842,-0.74 0.1136,-2.59162 -0.099,-6.32432 0.3872,-9.81252 0.8887,-4.92376 0.8916,-3.33258 5.9612,-2.07212 z"
       id="path245"
       style="fill:#1cb835;fill-opacity:1;stroke-width:3.11174"
       sodipodi:nodetypes="cssccsscccscccccccccsccccccccccsccssccc" /><g
       id="g633"
       transform="matrix(2.7189379,0,0,2.7189379,475.7847,-609.72843)"><path
         style="fill:#6df278;fill-opacity:1;stroke-width:0.104439"
         d="M 52.475407,9.4782611 C 52.373475,8.5611812 51.712061,7.8044154 50.817019,7.5807068 50.654929,7.5401844 49.172415,7.1844647 47.124155,7.1844647 c -3.788737,0 -6.997003,1.2056452 -9.278058,3.4867003 -0.340472,0.340471 -0.778542,0.830317 -1.07045,1.210058 -2.656446,5.070418 -2.775327,6.959375 -2.059982,12.535728 l 4.388506,1.201539 c 0.300054,0.01588 0.617653,0.02559 0.950918,0.02559 h 6.24e-4 c 3.788319,0 6.996271,-1.205436 9.277118,-3.48649 3.981218,-3.981324 3.240118,-11.800784 3.142572,-12.6793259 z"
         id="path629"
         sodipodi:nodetypes="cssscccssccc" /><path
         style="fill:#41d94e;fill-opacity:1;stroke-width:0.095844"
         d="m 33.320105,25.6288 c 0.625568,0 0.774977,-0.02802 1.302879,-0.07005 l 0.02101,9.193335 c 0,3.791598 5.205827,3.783749 5.205827,-0.05411 l 0.09022,-11.468133 c 0,-1.81604 0.870272,-10.39541 -4.227987,-15.4938463 -3.490633,-3.490431 -8.059412,-4.22307 -11.277377,-4.22307 -2.552608,0 -4.431534,0.462157 -4.510124,0.481911 -0.904571,0.226275 -1.573082,0.990921 -1.676025,1.917636 -0.01179,0.105907 -0.284461,2.625164 -0.0046,5.7057833 0.397373,4.371153 1.675452,7.664157 3.798589,9.787189 3.490435,3.490342 8.059313,4.223366 11.277463,4.223366 z"
         id="path631"
         sodipodi:nodetypes="scccccscscsss" /></g><g
       id="g667"
       transform="matrix(0.22578119,0,0,0.22578119,520.53793,-600.68021)"><path
         style="fill:url(#linearGradient669);fill-opacity:1;stroke-width:0.959407"
         d="m 368.44377,396.51658 c -20.00843,-34.72767 -54.47993,-58.57373 -93.75708,-65.19173 -7.2963,-1.2309 -14.76048,-1.86699 -22.32829,-1.86699 -7.5678,0 -15.03102,0.63609 -22.32828,1.86699 -39.27907,6.618 -73.74769,30.46406 -93.75708,65.19173 -71.819294,2.35341 -129.5218683,47.3804 -129.5218683,119.76191 0,12.33221 9.9970213,22.32827 22.3282803,22.32827 H 252.35937 475.63928 c 12.33125,0 22.32827,-9.9951 22.32827,-22.32827 0,-72.38151 -57.70353,-117.4085 -129.52378,-119.76191 z"
         id="path635"
         sodipodi:nodetypes="ccsccsscssc" /><g
         id="g637">
</g><g
         id="g639">
</g><g
         id="g641">
</g><g
         id="g643">
</g><g
         id="g645">
</g><g
         id="g647">
</g><g
         id="g649">
</g><g
         id="g651">
</g><g
         id="g653">
</g><g
         id="g655">
</g><g
         id="g657">
</g><g
         id="g659">
</g><g
         id="g661">
</g><g
         id="g663">
</g><g
         id="g665">
</g></g><path
       fill="#a6d388"
       d="m 120.21365,-672.82185 c 6.80247,6.82102 15.62428,12.82491 29.37839,12.82674 8.20058,10e-4 18.77118,-1.49291 30.01001,-7.98169 6.78919,-3.91974 3.6809,-8.91014 -1.39981,-11.84353 -11.90404,-6.87278 -8.77032,-19.78456 -19.98799,-31.00222 -11.99129,-11.99371 -28.7232,-14.70526 -40.7169,-2.7139 -11.99136,11.99136 -9.26114,28.70456 2.7163,40.7146 z"
       id="path1902"
       style="fill:#41d94e;fill-opacity:1;stroke-width:2.39541"
       sodipodi:nodetypes="ssssccs" /><path
       style="fill:#92ceec;fill-opacity:1;stroke-width:2.39541"
       d="m 182.22785,-713.40864 c -2.84137,0.62918 -2.58062,3.91725 -5.37846,6.52292 -2.38277,2.21918 -5.49209,3.22312 -6.78557,5.46348 -1.41932,2.45828 0.91871,6.1864 5.14287,3.74769 4.42071,-2.55234 8.50206,-5.38804 10.55697,-10.35569 1.12641,-2.7233 -0.11884,-5.03756 -2.45961,-5.3784 -0.36352,-0.0662 -0.7123,-0.0573 -1.0762,0 z"
       id="path1904"
       sodipodi:nodetypes="csssscc" /><path
       style="fill:#7dc4e8;fill-opacity:1;stroke-width:2.39541"
       d="m 180.2853,-736.71891 c -2.67855,0.49446 -2.79472,3.80478 -3.14941,5.8527 -1.44843,6.93625 -5.91478,13.55563 -12.6218,16.30009 -3.1055,1.79288 -1.60864,6.8685 2.36257,5.8434 4.11096,-1.05433 7.4162,-4.0732 10.18049,-7.15811 4.24741,-5.16463 6.91674,-10.67901 7.06368,-17.37027 0,-3.06437 -2.19848,-3.79466 -3.83553,-3.46781 z"
       id="path1906" /><path
       style="fill:#bee2f4;fill-opacity:1;stroke-width:2.39541"
       d="m 168.75311,-740.6931 c -2.72621,0 -3.25523,3.0703 -3.57394,5.10893 -0.87728,5.61062 -5.45993,9.88063 -10.52654,12.37463 -3.32195,1.6353 -1.24226,6.7533 2.55444,5.736 4.35329,-1.31094 7.88859,-4.58333 10.60394,-8.12595 2.61436,-3.68376 4.08503,-7.07836 4.08503,-11.6453 0,-2.27057 -1.34973,-3.44831 -3.14293,-3.44831 z"
       id="path1908" /><path
       fill="#77b255"
       d="m 156.60764,-672.77482 c 7.37846,1.81945 16.2748,1.46538 18.41176,0.35461 1.23114,-0.64014 0.82561,-1.34155 -0.075,-1.38125 -2.06425,-0.0915 -9.19269,0.50842 -16.44525,-3.54305 -2.65142,-1.38646 -2.65402,-2.14084 0.47791,-3.28433 1.91485,-0.69362 5.96378,-1.41411 7.16048,-2.03631 1.4272,-0.74195 0.75671,-1.64549 -0.32539,-1.7667 -2.16556,-0.24276 -6.62892,0.19386 -11.60865,0.79066 -2.99911,0.24977 -2.83368,0.38768 -6.05688,-2.33916 -2.65567,-3.38056 -3.62192,-3.36308 -1.22701,-5.09071 5.01087,-3.63005 9.94897,-5.00495 12.70811,-5.61517 1.81563,-0.40166 2.44308,-1.53061 0.53638,-2.13264 -3.30645,-1.04449 -10.37197,-1.00225 -17.93626,2.93059 -1.78163,1.23668 -1.49228,1.07163 -4.072,-2.64493 -2.43979,-3.58728 -2.29253,-4.04008 -0.12329,-5.54521 5.61652,-3.89731 13.49138,-4.15214 16.94445,-4.04583 0.69069,-0.0573 0.91973,-0.86469 0.0191,-1.35437 -4.05097,-2.18415 -14.3074,-3.66004 -21.71963,0.24469 -1.76238,1.22339 -2.15527,0.6776 -3.37522,-1.08045 l -12.26343,-17.67245 c -1.04652,-1.51021 -3.24111,-1.79689 -4.74693,-0.7517 -1.50823,1.04689 -2.00477,3.20145 -0.95793,4.70962 l 11.74001,16.91376 c 1.77229,2.55329 1.94432,2.97197 0.27455,4.57431 -5.40986,5.22067 -6.82695,14.44342 -6.79047,19.06324 0.15443,1.85116 1.69825,1.65834 2.08268,0.84273 1.57706,-3.57052 4.34261,-11.37898 9.23546,-14.77416 1.1707,-0.81246 1.55564,-0.52684 6.65428,6.80454 0.47283,0.68108 0.56619,1.34215 0.0318,2.14914 -4.37973,6.64308 -4.59308,15.34686 -2.89902,19.54579 0.67137,1.86857 2.12717,1.59257 2.11687,-0.0127 -0.0191,-2.97415 1.33464,-8.43965 4.2095,-13.04906 2.09044,-3.35184 1.52628,-1.84462 5.27741,1.57298 5.09266,4.30894 4.30436,4.18323 4.57071,7.37827 0.21035,3.2661 0.72691,6.9496 1.61595,8.65966 0.56561,1.08739 2.2326,1.53137 2.32202,-0.49317 0.0756,-1.72716 -0.0661,-4.2148 0.25802,-6.53948 0.59231,-3.28142 0.59422,-2.22099 3.9728,-1.38093 z"
       id="path1910"
       style="fill:#1cb835;fill-opacity:1;stroke-width:2.07381"
       sodipodi:nodetypes="cssccsscccscccccccccsccccccccccsccssccc" /><path
       id="path976"
       style="font-style:normal;font-variant:normal;font-weight:normal;font-stretch:normal;font-size:192px;font-family:Rubik;-inkscape-font-specification:Rubik;letter-spacing:-0.537826px;word-spacing:0px;white-space:pre;shape-inside:url(#rect38373);fill:url(#linearGradient2604);fill-opacity:1;stroke-width:0;stroke-dasharray:none"
       d="m 342.0006,-627.14662 c -2.3324,4.4e-4 -4.21034,1.87839 -4.21034,4.21088 v 2.42547 c -0.005,0.50526 -0.003,1.02033 -0.003,1.53807 0,1.87899 0.005,3.11165 -0.0159,4.88649 -7.91254,-4.5683 -18.24976,-0.22567 -20.85476,7.2204 -2.20078,5.71137 -2.71294,17.47099 3.07747,24.0989 4.6988,4.65116 12.87625,5.27259 18.4768,1.94145 2.54349,2.97197 6.92088,1.94102 7.85279,-1.42133 0.45122,-2.56804 -0.1194,-5.20337 0.11198,-7.80236 -0.0164,-11.03629 0.0701,-17.872 -0.2245,-28.82484 v -4.06225 c 0,-2.33249 -1.87743,-4.21044 -4.20981,-4.21088 z m -54.92487,11.04357 c -2.57508,0 -4.28464,1.30504 -4.28464,5.72349 0.0581,9.57364 -0.22236,17.76963 0.28235,27.30798 0,5.52988 8.37184,5.44247 8.37184,-0.43679 0,-0.80908 -0.009,-1.98547 -0.0159,-3.04061 -0.0151,-0.15601 -0.0229,-0.31397 -0.0229,-0.47341 v -13.60186 c 0,-3.13065 3.43328,-5.80495 6.64641,-5.80495 3.19812,0 6.0772,2.41104 6.0772,6.54184 v 14.41407 c 0,4.4056 1.66175,5.91826 3.97204,5.97886 3.05533,0 4.44438,-1.86271 4.44438,-4.98201 0,-7.69531 1.0004,-18.98473 -0.85702,-23.66869 -2.54347,-5.1375 -5.80536,-7.18145 -13.25129,-7.18145 -2.91323,0 -5.43321,0.77797 -7.81084,2.07254 -0.50765,-1.89457 -1.3014,-2.84901 -3.55169,-2.84901 z m 99.16502,-0.34168 c -2.13111,0 -4.17037,0.99103 -3.83571,5.44006 0.0138,9.52714 -0.16225,17.66379 0.21442,27.17944 0,6.1899 8.4212,5.28119 8.4212,0.22026 0.11722,-2.87124 -0.0704,-18.41916 0.76691,-20.74331 1.15447,-3.20448 5.24249,-2.82102 8.13117,-2.82102 5.99378,0 6.2192,-8.11017 0.14353,-8.11017 -3.96671,0 -7.70431,-0.35476 -9.98897,1.9299 -0.46337,-1.72935 -0.94276,-3.09516 -3.85255,-3.09516 z m -139.87465,0.98547 v 9.8e-4 c -1.82051,-0.007 -3.67288,1.00288 -4.3685,3.59892 -1.56233,5.35081 -3.13299,10.69887 -4.72195,16.04205 -1.9135,-5.85461 -2.84037,-8.47679 -5.66985,-16.3642 -1.71702,-4.78629 -7.22334,-4.24155 -8.3432,-0.0621 -0.48704,1.81771 -1.9031,6.28744 -3.11807,9.3484 -0.75904,2.36647 -1.51838,4.73267 -2.27739,7.09913 -1.81785,-5.91807 -2.96239,-11.66608 -5.44046,-17.33837 -0.69332,-1.20089 -1.68081,-2.06269 -3.76358,-2.01017 -3.0573,0.077 -4.74827,2.00845 -3.76663,5.67198 2.78202,9.44345 4.84161,17.73754 8.72318,26.77235 1.98861,4.62871 8.35684,3.19268 9.45349,-0.89999 1.38292,-5.16112 3.00786,-9.53651 4.50647,-14.32194 1.86432,5.71594 3.26018,10.12927 5.57434,15.67742 1.61642,3.87532 8.31234,2.59977 9.62384,-2.2949 2.41908,-9.02805 5.5106,-17.29539 7.85331,-26.255 0.61509,-2.29556 -1.37972,-4.65934 -4.0888,-4.65934 -0.0586,-0.003 -0.11748,-0.003 -0.1762,-0.005 z m 18.14908,0.10296 c -6.1459,0 -12.52828,3.85708 -13.06727,10.13868 0,3.64987 6.37656,4.29614 8.4249,0.74833 2.22929,-3.5519 8.77759,-3.39386 10.29418,0.67828 0.22681,0.84647 -0.91382,1.05187 -3.33037,1.252 -5.74986,0.47618 -12.37487,1.79933 -15.82497,6.98768 -3.14928,4.68176 -1.32403,11.52492 3.43173,14.40313 4.83895,3.2256 11.53277,3.1676 16.46611,0.16932 3.68526,3.68525 8.50921,2.42199 7.85808,-2.57515 -0.1846,-7.98833 1.69533,-19.69066 -0.78707,-23.99034 -1.92015,-5.36449 -7.76528,-7.81086 -13.46532,-7.81086 z m 98.83589,0.0265 c -0.3863,-7.8e-4 -0.73874,0.008 -1.13896,0.0515 v 9.6e-4 c -7.40164,0.98249 -12.87547,8.11687 -13.00676,15.40198 -0.70341,6.81412 1.01745,14.72439 7.03491,18.7541 7.41536,4.85302 18.38247,2.93339 22.03937,-5.3599 1.11478,-4.03006 -3.62596,-7.37459 -7.3523,-3.64828 -2.01075,1.89713 -3.61307,3.42179 -6.73716,2.8803 -2.93668,-0.50904 -5.70573,-2.7702 -6.04881,-5.78874 6.39821,-0.082 10.92486,-0.24096 17.31879,-0.24096 5.04832,0 4.70947,-5.27028 4.26362,-8.0295 -1.58183,-5.90341 -4.16162,-14.00879 -15.02994,-14.00879 -0.53601,0 -0.95647,-0.0128 -1.34276,-0.0128 z m -32.66897,8.05392 h 0.66556 c 3.76035,0 6.78759,3.7299 6.78759,8.36281 v 3.88606 c 0,4.63294 -3.02724,8.36282 -6.78759,8.36282 h -0.66556 c -3.76033,0 -6.78758,-3.72988 -6.78758,-8.36282 v -3.88606 c 0,-4.63291 3.02725,-8.36281 6.78758,-8.36281 z m 33.53354,0.31261 c 0.0974,-0.002 0.19527,-3.6e-4 0.2935,0.003 v -5.3e-4 c 3.10702,0 5.98227,2.4645 6.55991,5.5016 -4.34847,0 -8.69651,0.0282 -13.04499,0.0282 0.54666,-2.90248 3.1704,-5.48031 6.19158,-5.53241 z m -95.65572,11.90389 c 0.8424,0.0176 1.40518,0.17678 1.55347,0.4336 0.45941,0.79573 -0.32479,2.69267 -0.87626,3.76611 -1.86529,3.63101 -8.07102,4.54195 -10.53457,2.07837 -1.37168,-1.37167 0.22517,-3.02978 1.67711,-3.868 3.12058,-1.80169 6.32696,-2.4487 8.18025,-2.41008 z"
       sodipodi:nodetypes="sscscccccccssscccscssssccscscsccccsssccccccssscsccsscsscccccccscccccccccsccccscccscssscssssscccsccsssscssscc" /><path
       fill="#a6d388"
       d="m 120.21365,-577.85656 c 6.80247,6.82102 15.62428,12.82491 29.37839,12.82674 8.20058,10e-4 18.77118,-1.49291 30.01001,-7.98169 6.78919,-3.91974 3.6809,-8.91014 -1.39981,-11.84353 -11.90404,-6.87278 -8.77032,-19.78456 -19.98799,-31.00222 -11.99129,-11.99371 -28.7232,-14.70526 -40.7169,-2.7139 -11.99136,11.99136 -9.26114,28.70456 2.7163,40.7146 z"
       id="path978"
       style="fill:#41d94e;fill-opacity:1;stroke-width:2.39541"
       sodipodi:nodetypes="ssssccs" /><path
       style="fill:#92ceec;fill-opacity:1;stroke-width:2.39541"
       d="m 182.22785,-618.44335 c -2.84137,0.62918 -2.58062,3.91725 -5.37846,6.52292 -2.38277,2.21918 -5.49209,3.22312 -6.78557,5.46348 -1.41932,2.45828 0.91871,6.1864 5.14287,3.74769 4.42071,-2.55234 8.50206,-5.38804 10.55697,-10.35569 1.12641,-2.7233 -0.11884,-5.03756 -2.45961,-5.3784 -0.36352,-0.0662 -0.7123,-0.0573 -1.0762,0 z"
       id="path980"
       sodipodi:nodetypes="csssscc" /><path
       style="fill:#7dc4e8;fill-opacity:1;stroke-width:2.39541"
       d="m 180.2853,-641.75362 c -2.67855,0.49446 -2.79472,3.80478 -3.14941,5.8527 -1.44843,6.93625 -5.91478,13.55563 -12.6218,16.30009 -3.1055,1.79288 -1.60864,6.8685 2.36257,5.8434 4.11096,-1.05433 7.4162,-4.0732 10.18049,-7.15811 4.24741,-5.16463 6.91674,-10.67901 7.06368,-17.37027 0,-3.06437 -2.19848,-3.79466 -3.83553,-3.46781 z"
       id="path982" /><path
       style="fill:#bee2f4;fill-opacity:1;stroke-width:2.39541"
       d="m 168.75311,-645.72781 c -2.72621,0 -3.25523,3.0703 -3.57394,5.10893 -0.87728,5.61062 -5.45993,9.88063 -10.52654,12.37463 -3.32195,1.6353 -1.24226,6.7533 2.55444,5.736 4.35329,-1.31094 7.88859,-4.58333 10.60394,-8.12595 2.61436,-3.68376 4.08503,-7.07836 4.08503,-11.6453 0,-2.27057 -1.34973,-3.44831 -3.14293,-3.44831 z"
       id="path984" /><path
       fill="#77b255"
       d="m 156.60764,-577.80953 c 7.37846,1.81945 16.2748,1.46538 18.41176,0.35461 1.23114,-0.64014 0.82561,-1.34155 -0.075,-1.38125 -2.06425,-0.0915 -9.19269,0.50842 -16.44525,-3.54305 -2.65142,-1.38646 -2.65402,-2.14084 0.47791,-3.28433 1.91485,-0.69362 5.96378,-1.41411 7.16048,-2.03631 1.4272,-0.74195 0.75671,-1.64549 -0.32539,-1.7667 -2.16556,-0.24276 -6.62892,0.19386 -11.60865,0.79066 -2.99911,0.24977 -2.83368,0.38768 -6.05688,-2.33916 -2.65567,-3.38056 -3.62192,-3.36308 -1.22701,-5.09071 5.01087,-3.63005 9.94897,-5.00495 12.70811,-5.61517 1.81563,-0.40166 2.44308,-1.53061 0.53638,-2.13264 -3.30645,-1.04449 -10.37197,-1.00225 -17.93626,2.93059 -1.78163,1.23668 -1.49228,1.07163 -4.072,-2.64493 -2.43979,-3.58728 -2.29253,-4.04008 -0.12329,-5.54521 5.61652,-3.89731 13.49138,-4.15214 16.94445,-4.04583 0.69069,-0.0573 0.91973,-0.86469 0.0191,-1.35437 -4.05097,-2.18415 -14.3074,-3.66004 -21.71963,0.24469 -1.76238,1.22339 -2.15527,0.6776 -3.37522,-1.08045 l -12.26343,-17.67245 c -1.04652,-1.51021 -3.24111,-1.79689 -4.74693,-0.7517 -1.50823,1.04689 -2.00477,3.20145 -0.95793,4.70962 l 11.74001,16.91376 c 1.77229,2.55329 1.94432,2.97197 0.27455,4.57431 -5.40986,5.22067 -6.82695,14.44342 -6.79047,19.06324 0.15443,1.85116 1.69825,1.65834 2.08268,0.84273 1.57706,-3.57052 4.34261,-11.37898 9.23546,-14.77416 1.1707,-0.81246 1.55564,-0.52684 6.65428,6.80454 0.47283,0.68108 0.56619,1.34215 0.0318,2.14914 -4.37973,6.64308 -4.59308,15.34686 -2.89902,19.54579 0.67137,1.86857 2.12717,1.59257 2.11687,-0.0127 -0.0191,-2.97415 1.33464,-8.43965 4.2095,-13.04906 2.09044,-3.35184 1.52628,-1.84462 5.27741,1.57298 5.09266,4.30894 4.30436,4.18323 4.57071,7.37827 0.21035,3.2661 0.72691,6.9496 1.61595,8.65966 0.56561,1.08739 2.2326,1.53137 2.32202,-0.49317 0.0756,-1.72716 -0.0661,-4.2148 0.25802,-6.53948 0.59231,-3.28142 0.59422,-2.22099 3.9728,-1.38093 z"
       id="path986"
       style="fill:#1cb835;fill-opacity:1;stroke-width:2.07381"
       sodipodi:nodetypes="cssccsscccscccccccccsccccccccccsccssccc" /></g><style
     type="text/css"
     id="style1941">
	.st0{fill:none;stroke:#000000;stroke-width:2;stroke-linecap:round;stroke-linejoin:round;stroke-miterlimit:10;}
</style><style
     type="text/css"
     id="style1941-0">
	.st0{fill:none;stroke:#000000;stroke-width:2;stroke-linecap:round;stroke-linejoin:round;stroke-miterlimit:10;}
</style><style
     type="text/css"
     id="style1941-7">
	.st0{fill:none;stroke:#000000;stroke-width:2;stroke-linecap:round;stroke-linejoin:round;stroke-miterlimit:10;}
</style><style
     type="text/css"
     id="style22485">
	.st0{fill:none;stroke:#6C3DB7;stroke-width:4;stroke-linecap:round;stroke-linejoin:round;stroke-miterlimit:10;}
	.st1{fill:none;stroke:#1F992A;stroke-width:4;stroke-linecap:round;stroke-linejoin:round;stroke-miterlimit:10;}
	.st2{fill:none;stroke:#6A83BA;stroke-width:4;stroke-linecap:round;stroke-linejoin:round;stroke-miterlimit:10;}
	.st3{fill:#8A8AFF;stroke:#8A8AFF;stroke-width:2;stroke-linecap:round;stroke-linejoin:round;stroke-miterlimit:10;}
	.st4{fill:#6C3DB7;stroke:#6C3DB7;stroke-width:2;stroke-linecap:round;stroke-linejoin:round;stroke-miterlimit:10;}
	.st5{fill:#A576FF;stroke:#A576FF;stroke-width:2;stroke-linecap:round;stroke-linejoin:round;stroke-miterlimit:10;}
	.st6{fill:#F2BB41;stroke:#F2BB41;stroke-width:2;stroke-linecap:round;stroke-linejoin:round;stroke-miterlimit:10;}
	.st7{fill:#E08838;stroke:#E08838;stroke-width:2;stroke-linecap:round;stroke-linejoin:round;stroke-miterlimit:10;}
	.st8{fill:#1F992A;stroke:#1F992A;stroke-width:2;stroke-linecap:round;stroke-linejoin:round;stroke-miterlimit:10;}
	.st9{fill:#5EC11E;stroke:#5EC11E;stroke-width:2;stroke-linecap:round;stroke-linejoin:round;stroke-miterlimit:10;}
	.st10{fill:#E3FAFF;stroke:#E3FAFF;stroke-width:2;stroke-linecap:round;stroke-linejoin:round;stroke-miterlimit:10;}
	.st11{fill:#FF5093;stroke:#FF5093;stroke-width:2;stroke-linecap:round;stroke-linejoin:round;stroke-miterlimit:10;}
	.st12{fill:#B7257F;stroke:#B7257F;stroke-width:2;stroke-linecap:round;stroke-linejoin:round;stroke-miterlimit:10;}
	.st13{fill:#5189E5;stroke:#5189E5;stroke-width:2;stroke-linecap:round;stroke-linejoin:round;stroke-miterlimit:10;}
	.st14{fill:#6EBAFF;stroke:#6EBAFF;stroke-width:2;stroke-linecap:round;stroke-linejoin:round;stroke-miterlimit:10;}
	.st15{fill:#EDD977;stroke:#EDD977;stroke-width:2;stroke-linecap:round;stroke-linejoin:round;stroke-miterlimit:10;}
	.st16{fill:#8C43FF;stroke:#8C43FF;stroke-width:2;stroke-linecap:round;stroke-linejoin:round;stroke-miterlimit:10;}
	.st17{fill:#5252BA;stroke:#5252BA;stroke-width:2;stroke-linecap:round;stroke-linejoin:round;stroke-miterlimit:10;}
	.st18{fill:none;stroke:#E3FAFF;stroke-width:4;stroke-linecap:round;stroke-linejoin:round;stroke-miterlimit:10;}
	.st19{fill:#354C75;stroke:#354C75;stroke-width:2;stroke-linecap:round;stroke-linejoin:round;stroke-miterlimit:10;}
</style><style
     type="text/css"
     id="style23106">
	.st0{fill:none;stroke:#000000;stroke-width:2;stroke-linecap:round;stroke-linejoin:round;stroke-miterlimit:10;}
	.st1{fill:none;stroke:#000000;stroke-width:2;stroke-linejoin:round;stroke-miterlimit:10;}
</style><style
     type="text/css"
     id="style1941-1">
	.st0{fill:none;stroke:#000000;stroke-width:2;stroke-linecap:round;stroke-linejoin:round;stroke-miterlimit:10;}
</style><style
     type="text/css"
     id="style1941-0-8">
	.st0{fill:none;stroke:#000000;stroke-width:2;stroke-linecap:round;stroke-linejoin:round;stroke-miterlimit:10;}
</style><style
     type="text/css"
     id="style1941-7-7">
	.st0{fill:none;stroke:#000000;stroke-width:2;stroke-linecap:round;stroke-linejoin:round;stroke-miterlimit:10;}
</style><style
     type="text/css"
     id="style22485-9">
	.st0{fill:none;stroke:#6C3DB7;stroke-width:4;stroke-linecap:round;stroke-linejoin:round;stroke-miterlimit:10;}
	.st1{fill:none;stroke:#1F992A;stroke-width:4;stroke-linecap:round;stroke-linejoin:round;stroke-miterlimit:10;}
	.st2{fill:none;stroke:#6A83BA;stroke-width:4;stroke-linecap:round;stroke-linejoin:round;stroke-miterlimit:10;}
	.st3{fill:#8A8AFF;stroke:#8A8AFF;stroke-width:2;stroke-linecap:round;stroke-linejoin:round;stroke-miterlimit:10;}
	.st4{fill:#6C3DB7;stroke:#6C3DB7;stroke-width:2;stroke-linecap:round;stroke-linejoin:round;stroke-miterlimit:10;}
	.st5{fill:#A576FF;stroke:#A576FF;stroke-width:2;stroke-linecap:round;stroke-linejoin:round;stroke-miterlimit:10;}
	.st6{fill:#F2BB41;stroke:#F2BB41;stroke-width:2;stroke-linecap:round;stroke-linejoin:round;stroke-miterlimit:10;}
	.st7{fill:#E08838;stroke:#E08838;stroke-width:2;stroke-linecap:round;stroke-linejoin:round;stroke-miterlimit:10;}
	.st8{fill:#1F992A;stroke:#1F992A;stroke-width:2;stroke-linecap:round;stroke-linejoin:round;stroke-miterlimit:10;}
	.st9{fill:#5EC11E;stroke:#5EC11E;stroke-width:2;stroke-linecap:round;stroke-linejoin:round;stroke-miterlimit:10;}
	.st10{fill:#E3FAFF;stroke:#E3FAFF;stroke-width:2;stroke-linecap:round;stroke-linejoin:round;stroke-miterlimit:10;}
	.st11{fill:#FF5093;stroke:#FF5093;stroke-width:2;stroke-linecap:round;stroke-linejoin:round;stroke-miterlimit:10;}
	.st12{fill:#B7257F;stroke:#B7257F;stroke-width:2;stroke-linecap:round;stroke-linejoin:round;stroke-miterlimit:10;}
	.st13{fill:#5189E5;stroke:#5189E5;stroke-width:2;stroke-linecap:round;stroke-linejoin:round;stroke-miterlimit:10;}
	.st14{fill:#6EBAFF;stroke:#6EBAFF;stroke-width:2;stroke-linecap:round;stroke-linejoin:round;stroke-miterlimit:10;}
	.st15{fill:#EDD977;stroke:#EDD977;stroke-width:2;stroke-linecap:round;stroke-linejoin:round;stroke-miterlimit:10;}
	.st16{fill:#8C43FF;stroke:#8C43FF;stroke-width:2;stroke-linecap:round;stroke-linejoin:round;stroke-miterlimit:10;}
	.st17{fill:#5252BA;stroke:#5252BA;stroke-width:2;stroke-linecap:round;stroke-linejoin:round;stroke-miterlimit:10;}
	.st18{fill:none;stroke:#E3FAFF;stroke-width:4;stroke-linecap:round;stroke-linejoin:round;stroke-miterlimit:10;}
	.st19{fill:#354C75;stroke:#354C75;stroke-width:2;stroke-linecap:round;stroke-linejoin:round;stroke-miterlimit:10;}
</style><style
     type="text/css"
     id="style23106-2">
	.st0{fill:none;stroke:#000000;stroke-width:2;stroke-linecap:round;stroke-linejoin:round;stroke-miterlimit:10;}
	.st1{fill:none;stroke:#000000;stroke-width:2;stroke-linejoin:round;stroke-miterlimit:10;}
</style><style
     type="text/css"
     id="style4736">
<![CDATA[
	.st0{fill:#D1D1D1;}
	.st1{fill:#454545;}
]]>
</style></svg>
