<?xml version="1.0" encoding="UTF-8" standalone="no"?>
<!-- Created with Inkscape (http://www.inkscape.org/) -->

<svg
   width="433.45929"
   height="457.65393"
   viewBox="0 0 114.6861 121.0876"
   version="1.1"
   id="svg5"
   xml:space="preserve"
   xmlns="http://www.w3.org/2000/svg"
   xmlns:svg="http://www.w3.org/2000/svg"><defs
     id="defs2"><linearGradient
       id="linearGradient19172"><stop
         style="stop-color:#000000;stop-opacity:1;"
         offset="0"
         id="stop38996" /><stop
         style="stop-color:#000000;stop-opacity:0;"
         offset="1"
         id="stop38998" /></linearGradient><style
       id="style5220">.cls-1{fill:#c8c2e9;}.cls-2{fill:#dfdafd;}.cls-3{fill:#b9b1e0;}.cls-4{fill:#4d4c78;}.cls-5{fill:#67baeb;}.cls-6{fill:#de3226;}.cls-7{fill:#231f20;}.cls-8{fill:#f4c23f;}.cls-9{fill:#46a1f8;}.cls-10{fill:#b11a31;}.cls-11{fill:#f4a93f;}.cls-12{fill:#8a87b2;}.cls-13{fill:#83d0fb;}.cls-14{fill:#fad564;}.cls-15{fill:#f44533;}</style></defs><g
     id="layer1"
     transform="translate(-246.08793,403.55574)"><path
       fill="#a6d388"
       d="m 261.78545,-301.71477 c 10.2071,10.23499 24.5369,19.24381 45.175,19.24658 12.305,0.002 27.0736,-2.2401 43.9375,-11.97657 10.1872,-5.88156 5.5232,-13.36968 -2.1004,-17.77124 -17.8621,-10.3126 -13.1599,-29.68679 -29.9921,-46.51893 -17.9929,-17.99658 -43.0992,-22.06526 -61.0959,-4.07218 -17.993,17.99306 -13.8963,43.07125 4.0759,61.09234 z"
       id="path237"
       style="fill:#41d94e;fill-opacity:1;stroke-width:3.59432" /><path
       style="fill:#92ceec;fill-opacity:1;stroke-width:3.59432"
       d="m 354.83795,-362.61535 c -4.2635,0.94407 -3.8722,5.87785 -8.0704,9.78765 -3.5753,3.3299 -8.2409,4.83632 -10.1817,8.19796 -2.1298,3.68867 1.3785,9.28273 7.7168,5.62344 6.6333,-3.82979 12.7574,-8.08479 15.8408,-15.53877 1.6902,-4.0863 -0.1783,-7.55885 -3.6907,-8.07028 -0.5454,-0.0993 -1.0688,-0.0859 -1.6148,0 z"
       id="path239" /><path
       style="fill:#7dc4e8;fill-opacity:1;stroke-width:3.59432"
       d="m 351.92315,-397.59248 c -4.0192,0.74193 -4.1935,5.70907 -4.7257,8.782 -2.1734,10.40785 -8.8751,20.34026 -18.939,24.45834 -4.6598,2.6902 -2.4138,10.30621 3.545,8.76802 6.1685,-1.58203 11.128,-6.11187 15.2758,-10.74075 6.3733,-7.74952 10.3786,-16.02388 10.5991,-26.06415 0,-4.59811 -3.2988,-5.69389 -5.7552,-5.20346 z"
       id="path241" /><path
       style="fill:#bee2f4;fill-opacity:1;stroke-width:3.59432"
       d="m 334.61905,-403.55576 c -4.0907,0 -4.8845,4.60698 -5.3627,7.66596 -1.3164,8.41875 -8.1926,14.82594 -15.7951,18.56819 -4.9846,2.45373 -1.864,10.13332 3.833,8.6069 6.5321,-1.96713 11.8368,-6.87736 15.9112,-12.19303 3.9229,-5.52749 6.1296,-10.6211 6.1296,-17.47384 0,-3.40696 -2.0253,-5.17418 -4.716,-5.17418 z"
       id="path243" /><path
       fill="#77b255"
       d="m 316.39475,-301.64419 c 11.0714,2.73006 24.4204,2.1988 27.6269,0.5321 1.8473,-0.96057 1.2388,-2.01297 -0.1126,-2.07256 -3.0975,-0.13724 -13.7937,0.76287 -24.6762,-5.31639 -3.9784,-2.08037 -3.9823,-3.2123 0.7171,-4.92815 2.8732,-1.04076 8.9487,-2.12188 10.7443,-3.05544 2.1416,-1.11336 1.1355,-2.4691 -0.4882,-2.65095 -3.2494,-0.36428 -9.9467,0.29095 -17.4188,1.18639 -4.5002,0.37476 -4.252,0.5817 -9.0884,-3.50995 -3.9848,-5.07251 -5.4347,-5.04631 -1.8411,-7.63858 7.5188,-5.44693 14.9285,-7.50997 19.0685,-8.42563 2.7244,-0.60267 3.6659,-2.29667 0.8049,-3.20001 -4.9613,-1.56726 -15.5632,-1.50384 -26.9134,4.39736 -2.6734,1.85563 -2.2392,1.60799 -6.1101,-3.9687 -3.6609,-5.38277 -3.4399,-6.06221 -0.1848,-8.32064 8.4276,-5.84789 20.2439,-6.2303 25.4252,-6.07076 1.0364,-0.0859 1.38,-1.29749 0.028,-2.03223 -6.0785,-3.27737 -21.4683,-5.49192 -32.5904,0.36714 -2.6445,1.83568 -3.234,1.01674 -5.0645,-1.62125 l -18.4013,-26.51754 c -1.5704,-2.26606 -4.8634,-2.69624 -7.1228,-1.12793 -2.2632,1.57087 -3.0082,4.80381 -1.4374,7.06681 l 17.6159,25.37914 c 2.6593,3.83122 2.9175,4.45947 0.4119,6.86378 -8.1174,7.83363 -10.2438,21.67239 -10.1891,28.60445 0.2319,2.77768 2.5483,2.48834 3.1251,1.26447 2.3664,-5.35755 6.5161,-17.07415 13.8578,-22.1686 1.7567,-1.2191 2.3343,-0.79057 9.9848,10.21018 0.7095,1.02197 0.8497,2.01393 0.048,3.22482 -6.5718,9.96795 -6.8919,23.028 -4.3499,29.32851 1.0073,2.80378 3.1917,2.38963 3.1763,-0.0187 -0.028,-4.46271 2.0027,-12.66372 6.3164,-19.58016 3.1367,-5.02941 2.2902,-2.76784 7.9188,2.36028 7.6416,6.46556 6.4587,6.27692 6.8583,11.07111 0.3157,4.90079 1.0908,10.42788 2.4248,12.99386 0.8487,1.63164 3.35,2.29782 3.4842,-0.74 0.1136,-2.59162 -0.099,-6.32432 0.3872,-9.81252 0.8887,-4.92376 0.8916,-3.33258 5.9612,-2.07212 z"
       id="path245"
       style="fill:#1cb835;fill-opacity:1;stroke-width:3.11174" /></g></svg>
