<?xml version="1.0" encoding="UTF-8" standalone="no"?>
<!-- Created with Inkscape (http://www.inkscape.org/) -->

<svg
   width="1074.3662"
   height="304.99762"
   viewBox="0 0 284.25938 80.697284"
   version="1.1"
   id="svg5"
   xml:space="preserve"
   xmlns="http://www.w3.org/2000/svg"
   xmlns:svg="http://www.w3.org/2000/svg"><defs
     id="defs2"><rect
       x="2091.0645"
       y="-2056.8237"
       width="1310.9619"
       height="319.06738"
       id="rect38373" /><linearGradient
       id="linearGradient19172"><stop
         style="stop-color:#000000;stop-opacity:1;"
         offset="0"
         id="stop38996" /><stop
         style="stop-color:#000000;stop-opacity:0;"
         offset="1"
         id="stop38998" /></linearGradient><style
       id="style5220">.cls-1{fill:#c8c2e9;}.cls-2{fill:#dfdafd;}.cls-3{fill:#b9b1e0;}.cls-4{fill:#4d4c78;}.cls-5{fill:#67baeb;}.cls-6{fill:#de3226;}.cls-7{fill:#231f20;}.cls-8{fill:#f4c23f;}.cls-9{fill:#46a1f8;}.cls-10{fill:#b11a31;}.cls-11{fill:#f4a93f;}.cls-12{fill:#8a87b2;}.cls-13{fill:#83d0fb;}.cls-14{fill:#fad564;}.cls-15{fill:#f44533;}</style></defs><g
     id="layer1"
     transform="translate(-107.97677,499.60085)"><path
       id="path12407"
       style="font-style:normal;font-variant:normal;font-weight:normal;font-stretch:normal;font-size:192px;font-family:Rubik;-inkscape-font-specification:Rubik;letter-spacing:-0.537826px;word-spacing:0px;white-space:pre;shape-inside:url(#rect38373);fill:#1b2026;fill-opacity:1;stroke-width:0;stroke-dasharray:none"
       d="m 331.34556,-478.14212 c -2.271,4.2e-4 -4.09949,1.82892 -4.09949,4.10001 v 2.36161 c -0.005,0.49197 -0.003,0.99348 -0.003,1.49759 0,1.82951 0.005,3.02973 -0.0155,4.75784 -7.70422,-4.44803 -17.76931,-0.21972 -20.30573,7.03032 -2.14284,5.56101 -2.64152,17.01104 2.99645,23.46446 4.57511,4.52872 12.53726,5.13378 17.99038,1.89033 2.47652,2.89373 6.73867,1.88994 7.64604,-1.3839 0.43935,-2.50043 -0.11624,-5.06639 0.10904,-7.59695 -0.0159,-10.74574 0.0682,-17.4015 -0.21859,-28.06599 v -3.95531 c 0,-2.27109 -1.82801,-4.09959 -4.09898,-4.10001 z m -53.4789,10.75283 c -2.50728,0 -4.17184,1.27067 -4.17184,5.57279 0.0566,9.32162 -0.2165,17.30183 0.27492,26.58907 0,5.3843 8.15144,5.2992 8.15144,-0.42529 0,-0.78777 -0.009,-1.9332 -0.0155,-2.96055 -0.0147,-0.1519 -0.0222,-0.30572 -0.0222,-0.46095 v -13.24377 c 0,-3.04823 3.34291,-5.65214 6.47144,-5.65214 3.11392,0 5.91721,2.34758 5.91721,6.36962 v 14.0346 c 0,4.28962 1.618,5.76246 3.86747,5.82147 2.9749,0 4.32738,-1.81368 4.32738,-4.85086 0,-7.49272 0.97405,-18.48493 -0.83446,-23.04558 -2.47651,-5.00225 -5.65253,-6.99238 -12.90243,-6.99238 -2.83654,0 -5.29018,0.75748 -7.60522,2.01797 -0.49428,-1.84468 -1.26714,-2.774 -3.45818,-2.774 z m 96.55438,-0.33269 c -2.07502,0 -4.06058,0.96493 -3.73473,5.29684 0.0134,9.27633 -0.15799,17.19877 0.20877,26.46391 0,6.02694 8.1995,5.14216 8.1995,0.21446 0.11413,-2.79565 -0.0685,-17.93425 0.74672,-20.19722 1.12407,-3.12012 5.10447,-2.74674 7.9171,-2.74674 5.83598,0 6.05548,-7.89667 0.13976,-7.89667 -3.86228,0 -7.50149,-0.34542 -9.726,1.87909 -0.45117,-1.68382 -0.91795,-3.01367 -3.75112,-3.01367 z m -136.19227,0.95953 v 10e-4 c -1.77259,-0.007 -3.57619,0.97648 -4.25349,3.50418 -1.52121,5.20995 -3.05053,10.41721 -4.59765,15.61972 -1.86312,-5.70048 -2.76559,-8.25362 -5.52059,-15.93339 -1.67181,-4.66028 -7.03316,-4.12989 -8.12354,-0.0605 -0.47423,1.76987 -1.853,6.12193 -3.03599,9.10229 -0.73906,2.30417 -1.4784,4.60808 -2.21743,6.91224 -1.77,-5.76226 -2.88441,-11.35895 -5.29723,-16.88191 -0.67507,-1.16927 -1.63657,-2.00839 -3.6645,-1.95725 -2.97681,0.075 -4.62327,1.95557 -3.66748,5.52266 2.70879,9.19483 4.71416,17.27058 8.49354,26.06753 1.93625,4.50686 8.13683,3.10862 9.20461,-0.8763 1.34651,-5.02524 2.92867,-9.28544 4.38784,-13.94489 1.81523,5.56546 3.17435,9.8626 5.42758,15.2647 1.57387,3.77329 8.0935,2.53131 9.37048,-2.23449 2.35539,-8.79039 5.36554,-16.84007 7.64657,-25.56381 0.59889,-2.23513 -1.3434,-4.53667 -3.98116,-4.53667 -0.0571,-0.003 -0.1144,-0.003 -0.17156,-0.005 z m 17.67127,0.10025 c -5.9841,0 -12.19845,3.75553 -12.72325,9.87175 0,3.5538 6.20869,4.18304 8.20311,0.72864 2.1706,-3.45839 8.5465,-3.30451 10.02316,0.66042 0.22084,0.82419 -0.88976,1.02418 -3.24269,1.21905 -5.59848,0.46363 -12.04908,1.75195 -15.40836,6.80372 -3.06636,4.5585 -1.28917,11.22151 3.34139,14.02395 4.71155,3.14067 11.22916,3.0842 16.03262,0.16485 3.58824,3.58824 8.2852,2.35823 7.65121,-2.50735 -0.17975,-7.77803 1.65069,-19.17228 -0.76636,-23.35877 -1.8696,-5.22327 -7.56085,-7.60522 -13.11083,-7.60522 z m 96.23391,0.0258 c -0.37612,-7.5e-4 -0.71929,0.008 -1.10897,0.0501 v 10e-4 c -7.20678,0.95662 -12.53651,7.90318 -12.66434,14.9965 -0.6849,6.63473 0.99067,14.33675 6.84971,18.26038 7.22015,4.72524 17.89852,2.85616 21.45915,-5.2188 1.08544,-3.92397 -3.53051,-7.18044 -7.15874,-3.55224 -1.95781,1.84719 -3.51795,3.33172 -6.5598,2.80448 -2.85937,-0.49564 -5.55552,-2.69727 -5.88956,-5.63635 6.22977,-0.0798 10.63724,-0.23461 16.86285,-0.23461 4.91541,0 4.58549,-5.13153 4.15137,-7.81812 -1.54018,-5.748 -4.05206,-13.64 -14.63425,-13.64 -0.5219,0 -0.93129,-0.0124 -1.30742,-0.0124 z m -31.80891,7.8419 h 0.64803 c 3.66135,0 6.6089,3.6317 6.6089,8.14265 v 3.78375 c 0,4.51097 -2.94755,8.14266 -6.6089,8.14266 h -0.64803 c -3.66134,0 -6.60889,-3.63169 -6.60889,-8.14266 v -3.78375 c 0,-4.51095 2.94755,-8.14265 6.60889,-8.14265 z m 32.65072,0.30437 c 0.0949,-0.002 0.19013,-3.5e-4 0.28577,0.003 v -5.1e-4 c 3.02523,0 5.82479,2.3996 6.38721,5.35677 -4.23399,0 -8.46755,0.0274 -12.70155,0.0274 0.53226,-2.82605 3.08692,-5.33604 6.02857,-5.38675 z m -93.13746,11.59051 c 0.82023,0.0171 1.36819,0.17213 1.51257,0.42219 0.44732,0.77478 -0.31624,2.62178 -0.85318,3.66696 -1.81619,3.53542 -7.85855,4.42238 -10.25725,2.02365 -1.33556,-1.33556 0.21926,-2.95 1.63297,-3.76617 3.03843,-1.75425 6.16039,-2.38423 7.96489,-2.34663 z" /><path
       fill="#a6d388"
       d="m 118.46079,-431.7265 c 6.80247,6.82102 15.62428,12.82491 29.37839,12.82674 8.20058,0.001 18.77118,-1.49291 30.01001,-7.98169 6.78919,-3.91974 3.6809,-8.91014 -1.39981,-11.84353 -11.90404,-6.87278 -8.77032,-19.78456 -19.98799,-31.00222 -11.99129,-11.99371 -28.7232,-14.70526 -40.7169,-2.7139 -11.99136,11.99136 -9.26114,28.70456 2.7163,40.7146 z"
       id="path1902"
       style="fill:#41d94e;fill-opacity:1;stroke-width:2.39541" /><path
       style="fill:#92ceec;fill-opacity:1;stroke-width:2.39541"
       d="m 180.47499,-472.31329 c -2.84137,0.62918 -2.58062,3.91725 -5.37846,6.52292 -2.38277,2.21918 -5.49209,3.22312 -6.78557,5.46348 -1.41932,2.45828 0.91871,6.1864 5.14287,3.74769 4.42071,-2.55234 8.50206,-5.38804 10.55697,-10.35569 1.12641,-2.7233 -0.11884,-5.03756 -2.45961,-5.3784 -0.36352,-0.0662 -0.7123,-0.0573 -1.0762,0 z"
       id="path1904" /><path
       style="fill:#7dc4e8;fill-opacity:1;stroke-width:2.39541"
       d="m 178.53244,-495.62356 c -2.67855,0.49446 -2.79472,3.80478 -3.14941,5.8527 -1.44843,6.93625 -5.91478,13.55563 -12.6218,16.30009 -3.1055,1.79288 -1.60864,6.8685 2.36257,5.8434 4.11096,-1.05433 7.4162,-4.0732 10.18049,-7.15811 4.24741,-5.16463 6.91674,-10.67901 7.06368,-17.37027 0,-3.06437 -2.19848,-3.79466 -3.83553,-3.46781 z"
       id="path1906" /><path
       style="fill:#bee2f4;fill-opacity:1;stroke-width:2.39541"
       d="m 167.00025,-499.59775 c -2.72621,0 -3.25523,3.0703 -3.57394,5.10893 -0.87728,5.61062 -5.45993,9.88063 -10.52654,12.37463 -3.32195,1.6353 -1.24226,6.7533 2.55444,5.736 4.35329,-1.31094 7.88859,-4.58333 10.60394,-8.12595 2.61436,-3.68376 4.08503,-7.07836 4.08503,-11.6453 0,-2.27057 -1.34973,-3.44831 -3.14293,-3.44831 z"
       id="path1908" /><path
       fill="#77b255"
       d="m 154.85478,-431.67947 c 7.37846,1.81945 16.2748,1.46538 18.41176,0.35461 1.23114,-0.64014 0.82561,-1.34155 -0.075,-1.38125 -2.06425,-0.0915 -9.19269,0.50842 -16.44525,-3.54305 -2.65142,-1.38646 -2.65402,-2.14084 0.47791,-3.28433 1.91485,-0.69362 5.96378,-1.41411 7.16048,-2.03631 1.4272,-0.74195 0.75671,-1.64549 -0.32539,-1.7667 -2.16556,-0.24276 -6.62892,0.19386 -11.60865,0.79066 -2.99911,0.24977 -2.83368,0.38768 -6.05688,-2.33916 -2.65567,-3.38056 -3.62192,-3.36308 -1.22701,-5.09071 5.01087,-3.63005 9.94897,-5.00495 12.70811,-5.61517 1.81563,-0.40166 2.44308,-1.53061 0.53638,-2.13264 -3.30645,-1.04449 -10.37197,-1.00225 -17.93626,2.93059 -1.78163,1.23668 -1.49228,1.07163 -4.072,-2.64493 -2.43979,-3.58728 -2.29253,-4.04008 -0.12329,-5.54521 5.61652,-3.89731 13.49138,-4.15214 16.94445,-4.04583 0.69069,-0.0573 0.91973,-0.86469 0.0191,-1.35437 -4.05097,-2.18415 -14.3074,-3.66004 -21.71963,0.24469 -1.76238,1.22339 -2.15527,0.6776 -3.37522,-1.08045 l -12.26343,-17.67245 c -1.04652,-1.51021 -3.24111,-1.79689 -4.74693,-0.7517 -1.50823,1.04689 -2.00477,3.20145 -0.95793,4.70962 l 11.74001,16.91376 c 1.77229,2.55329 1.94432,2.97197 0.27455,4.57431 -5.40986,5.22067 -6.82695,14.44342 -6.79047,19.06324 0.15443,1.85116 1.69825,1.65834 2.08268,0.84273 1.57706,-3.57052 4.34261,-11.37898 9.23546,-14.77416 1.1707,-0.81246 1.55564,-0.52684 6.65428,6.80454 0.47283,0.68108 0.56619,1.34215 0.0318,2.14914 -4.37973,6.64308 -4.59308,15.34686 -2.89902,19.54579 0.67137,1.86857 2.12717,1.59257 2.11687,-0.0127 -0.0191,-2.97415 1.33464,-8.43965 4.2095,-13.04906 2.09044,-3.35184 1.52628,-1.84462 5.27741,1.57298 5.09266,4.30894 4.30436,4.18323 4.57071,7.37827 0.21035,3.2661 0.72691,6.9496 1.61595,8.65966 0.56561,1.08739 2.2326,1.53137 2.32202,-0.49317 0.0756,-1.72716 -0.0661,-4.2148 0.25802,-6.53948 0.59231,-3.28142 0.59422,-2.22099 3.9728,-1.38093 z"
       id="path1910"
       style="fill:#1cb835;fill-opacity:1;stroke-width:2.07381" /></g></svg>
