<?xml version="1.0" encoding="UTF-8" standalone="no"?>
<!-- Created with Inkscape (http://www.inkscape.org/) -->

<svg
   width="419.17764"
   height="457.71609"
   viewBox="0 0 110.90741 121.10405"
   version="1.1"
   id="svg5"
   xml:space="preserve"
   xmlns:xlink="http://www.w3.org/1999/xlink"
   xmlns="http://www.w3.org/2000/svg"
   xmlns:svg="http://www.w3.org/2000/svg"><defs
     id="defs2"><linearGradient
       id="linearGradient7354"><stop
         style="stop-color:#594931;stop-opacity:1;"
         offset="0"
         id="stop7350" /><stop
         style="stop-color:#a68253;stop-opacity:1;"
         offset="1"
         id="stop7352" /></linearGradient><linearGradient
       id="linearGradient19172"><stop
         style="stop-color:#000000;stop-opacity:1;"
         offset="0"
         id="stop38996" /><stop
         style="stop-color:#000000;stop-opacity:0;"
         offset="1"
         id="stop38998" /></linearGradient><style
       id="style5220">.cls-1{fill:#c8c2e9;}.cls-2{fill:#dfdafd;}.cls-3{fill:#b9b1e0;}.cls-4{fill:#4d4c78;}.cls-5{fill:#67baeb;}.cls-6{fill:#de3226;}.cls-7{fill:#231f20;}.cls-8{fill:#f4c23f;}.cls-9{fill:#46a1f8;}.cls-10{fill:#b11a31;}.cls-11{fill:#f4a93f;}.cls-12{fill:#8a87b2;}.cls-13{fill:#83d0fb;}.cls-14{fill:#fad564;}.cls-15{fill:#f44533;}</style><linearGradient
       xlink:href="#linearGradient7354"
       id="linearGradient669"
       gradientUnits="userSpaceOnUse"
       gradientTransform="matrix(1.068642,0,0,1.068642,-21.212973,-4.4012015)"
       x1="252.71631"
       y1="509.69827"
       x2="252.71631"
       y2="312.83084" /></defs><g
     id="layer1"
     transform="translate(-109.07997,403.67125)"><g
       id="g633"
       transform="matrix(2.7189379,0,0,2.7189379,62.802452,-413.22267)"><path
         style="fill:#6df278;fill-opacity:1;stroke-width:0.104439"
         d="M 52.475407,9.4782611 C 52.373475,8.5611812 51.712061,7.8044154 50.817019,7.5807068 50.654929,7.5401844 49.172415,7.1844647 47.124155,7.1844647 c -3.788737,0 -6.997003,1.2056452 -9.278058,3.4867003 -0.340472,0.340471 -0.778542,0.830317 -1.07045,1.210058 -2.656446,5.070418 -2.775327,6.959375 -2.059982,12.535728 l 4.388506,1.201539 c 0.300054,0.01588 0.617653,0.02559 0.950918,0.02559 h 6.24e-4 c 3.788319,0 6.996271,-1.205436 9.277118,-3.48649 3.981218,-3.981324 3.240118,-11.800784 3.142572,-12.6793259 z"
         id="path629" /><path
         style="fill:#41d94e;fill-opacity:1;stroke-width:0.095844"
         d="m 33.320105,25.6288 c 0.625568,0 0.774977,-0.02802 1.302879,-0.07005 l 0.02101,9.193335 c 0,3.791598 5.205827,3.783749 5.205827,-0.05411 l 0.09022,-11.468133 c 0,-1.81604 0.870272,-10.39541 -4.227987,-15.4938463 -3.490633,-3.490431 -8.059412,-4.22307 -11.277377,-4.22307 -2.552608,0 -4.431534,0.462157 -4.510124,0.481911 -0.904571,0.226275 -1.573082,0.990921 -1.676025,1.917636 -0.01179,0.105907 -0.284461,2.625164 -0.0046,5.7057833 0.397373,4.371153 1.675452,7.664157 3.798589,9.787189 3.490435,3.490342 8.059313,4.223366 11.277463,4.223366 z"
         id="path631" /></g><g
       id="g667"
       transform="matrix(0.22578119,0,0,0.22578119,107.55568,-404.17445)"><path
         style="fill:url(#linearGradient669);fill-opacity:1;stroke-width:0.959407"
         d="m 368.44377,396.51658 c -20.00843,-34.72767 -54.47993,-58.57373 -93.75708,-65.19173 -7.2963,-1.2309 -14.76048,-1.86699 -22.32829,-1.86699 -7.5678,0 -15.03102,0.63609 -22.32828,1.86699 -39.27907,6.618 -73.74769,30.46406 -93.75708,65.19173 -71.819294,2.35341 -129.5218683,47.3804 -129.5218683,119.76191 0,12.33221 9.9970213,22.32827 22.3282803,22.32827 H 252.35937 475.63928 c 12.33125,0 22.32827,-9.9951 22.32827,-22.32827 0,-72.38151 -57.70353,-117.4085 -129.52378,-119.76191 z"
         id="path635" /><g
         id="g637">
</g><g
         id="g639">
</g><g
         id="g641">
</g><g
         id="g643">
</g><g
         id="g645">
</g><g
         id="g647">
</g><g
         id="g649">
</g><g
         id="g651">
</g><g
         id="g653">
</g><g
         id="g655">
</g><g
         id="g657">
</g><g
         id="g659">
</g><g
         id="g661">
</g><g
         id="g663">
</g><g
         id="g665">
</g></g></g></svg>
