<?xml version="1.0" encoding="UTF-8" standalone="no"?>
<!-- Created with Inkscape (http://www.inkscape.org/) -->

<svg
   width="1074.3662"
   height="304.99762"
   viewBox="0 0 284.25938 80.697284"
   version="1.1"
   id="svg5"
   xml:space="preserve"
   xmlns="http://www.w3.org/2000/svg"
   xmlns:svg="http://www.w3.org/2000/svg"><defs
     id="defs2"><rect
       x="2091.0645"
       y="-2056.8237"
       width="1310.9619"
       height="319.06738"
       id="rect38373" /><linearGradient
       id="linearGradient19172"><stop
         style="stop-color:#000000;stop-opacity:1;"
         offset="0"
         id="stop38996" /><stop
         style="stop-color:#000000;stop-opacity:0;"
         offset="1"
         id="stop38998" /></linearGradient><style
       id="style5220">.cls-1{fill:#c8c2e9;}.cls-2{fill:#dfdafd;}.cls-3{fill:#b9b1e0;}.cls-4{fill:#4d4c78;}.cls-5{fill:#67baeb;}.cls-6{fill:#de3226;}.cls-7{fill:#231f20;}.cls-8{fill:#f4c23f;}.cls-9{fill:#46a1f8;}.cls-10{fill:#b11a31;}.cls-11{fill:#f4a93f;}.cls-12{fill:#8a87b2;}.cls-13{fill:#83d0fb;}.cls-14{fill:#fad564;}.cls-15{fill:#f44533;}</style></defs><g
     id="layer1"
     transform="translate(-8.1679068,351.3477)"><path
       fill="#a6d388"
       d="m 18.502521,-284.29987 c 10.726574,10.75589 28.943928,21.94728 58.667801,4.78619 6.706823,-3.87219 3.63628,-8.80199 -1.382855,-11.69978 -11.759546,-6.78935 -8.66384,-19.54455 -19.745322,-30.62602 -11.845896,-11.84825 -28.374789,-14.52697 -40.223051,-2.68105 -11.8458967,11.84588 -9.1486642,28.35626 2.683427,40.22066 z"
       id="path1903"
       style="fill:#41d94e;fill-opacity:1;stroke-width:2.36634" /><path
       style="fill:#92ceec;fill-opacity:1;stroke-width:2.36634"
       d="m 79.764394,-324.39421 c -2.806939,0.62179 -2.549373,3.86969 -5.313323,6.44383 -2.35383,2.1922 -5.425431,3.18389 -6.703241,5.39711 -1.402053,2.42843 0.907625,6.11137 5.080455,3.70218 4.36717,-2.52138 8.399024,-5.3227 10.428928,-10.23011 1.112819,-2.69029 -0.117839,-4.97643 -2.429817,-5.31301 -0.358996,-0.065 -0.703603,-0.0605 -1.063002,0 z"
       id="path39147" /><path
       style="fill:#7dc4e8;fill-opacity:1;stroke-width:2.36634"
       d="m 77.845347,-347.42179 c -2.646109,0.48815 -2.760893,3.75869 -3.111245,5.78168 -1.430798,6.85221 -5.842934,13.39133 -12.468681,16.10235 -3.067808,1.77122 -1.589009,6.78523 2.333985,5.77257 4.061114,-1.04154 7.326229,-4.02374 10.056948,-7.07128 4.195975,-5.10191 6.832814,-10.54943 6.977962,-17.15948 0,-3.02724 -2.171749,-3.74866 -3.788969,-3.42584 z"
       id="path39145" /><path
       style="fill:#bee2f4;fill-opacity:1;stroke-width:2.36634"
       d="m 66.453064,-351.34769 c -2.693138,0 -3.215698,3.03303 -3.530578,5.04695 -0.866655,5.54262 -5.39367,9.76077 -10.398889,12.22457 -3.28163,1.61534 -1.227137,6.67123 2.523464,5.66626 4.300518,-1.29501 7.792924,-4.52765 10.475298,-8.02723 2.582727,-3.63908 4.035512,-6.99249 4.035512,-11.50407 0,-2.24303 -1.333315,-3.40648 -3.104807,-3.40648 z"
       id="path1907" /><path
       fill="#77b255"
       d="m 54.454933,-284.25339 c 7.288965,1.7973 16.077236,1.44762 18.188337,0.3501 1.216229,-0.63234 0.815602,-1.32526 -0.07333,-1.36454 -2.0392,-0.0902 -9.081114,0.50303 -16.245696,-3.5 -2.619261,-1.36966 -2.621886,-2.11482 0.472747,-3.24451 1.891637,-0.68517 5.891341,-1.39689 7.073601,-2.01159 1.409835,-0.733 0.747642,-1.62551 -0.321766,-1.74518 -2.139163,-0.23942 -6.548446,0.19065 -11.467742,0.78097 -2.962729,0.24697 -2.799328,0.38343 -5.983439,-2.31069 -2.623387,-3.33957 -3.57799,-3.32238 -1.212056,-5.02892 4.949979,-3.58613 9.828276,-4.94431 12.553898,-5.54712 1.793565,-0.39667 2.413448,-1.51198 0.530281,-2.10679 -3.266451,-1.03174 -10.246215,-0.99002 -17.718657,2.89505 -1.760026,1.22166 -1.474337,1.05862 -4.022737,-2.61285 -2.410122,-3.54378 -2.264602,-3.9911 -0.122522,-5.47798 5.548401,-3.84993 13.327734,-4.10166 16.738875,-3.9967 0.682192,-0.0567 0.908589,-0.85419 0.02024,-1.33796 -4.001837,-2.15767 -14.133862,-3.61566 -21.456097,0.24187 -1.741074,1.2085 -2.129249,0.6693 -3.334389,-1.06737 l -12.114638,-17.45798 c -1.033801,-1.49196 -3.201813,-1.77515 -4.68933,-0.7427 -1.4899089,1.03417 -1.9804033,3.16266 -0.946261,4.65257 l 11.597527,16.70855 c 1.750781,2.52231 1.92074,2.93583 0.270863,4.51877 -5.344245,5.1573 -6.744133,14.26826 -6.708059,18.83198 0.152419,1.82867 1.677686,1.6382 2.057441,0.83247 1.557917,-3.52718 4.289836,-11.24094 9.123386,-14.59485 1.156434,-0.80269 1.536649,-0.52093 6.573499,6.72187 0.467035,0.67289 0.559106,1.32601 0.03218,2.12322 -4.32663,6.56234 -4.537362,15.16055 -2.863937,19.30859 0.663289,1.84587 2.1014,1.57311 2.091287,-0.0132 -0.01557,-2.93802 1.318447,-8.33722 4.158429,-12.89075 2.065089,-3.31109 1.507756,-1.82218 5.213404,1.55395 5.030828,4.25666 4.252159,4.13248 4.515247,7.2888 0.206974,3.22642 0.718048,6.86522 1.596346,8.55451 0.558514,1.07422 2.205545,1.51283 2.293884,-0.48713 0.07538,-1.70624 -0.06612,-4.16368 0.254603,-6.46022 0.58532,-3.24161 0.587146,-2.19392 3.924643,-1.36421 z"
       id="path68915"
       style="fill:#1cb835;fill-opacity:1;stroke-width:2.04863" /><path
       id="path12407"
       style="font-style:normal;font-variant:normal;font-weight:normal;font-stretch:normal;font-size:192px;font-family:Rubik;-inkscape-font-specification:Rubik;letter-spacing:-0.537826px;word-spacing:0px;white-space:pre;shape-inside:url(#rect38373);fill:#1b2026;fill-opacity:1;stroke-width:0;stroke-dasharray:none"
       d="m 231.53668,-329.88897 c -2.271,4.2e-4 -4.09949,1.82892 -4.09949,4.10001 v 2.36161 c -0.005,0.49197 -0.003,0.99348 -0.003,1.49759 0,1.82951 0.005,3.02973 -0.0155,4.75784 -7.70422,-4.44803 -17.76931,-0.21972 -20.30573,7.03032 -2.14284,5.56101 -2.64152,17.01104 2.99645,23.46446 4.57511,4.52872 12.53726,5.13378 17.99038,1.89033 2.47652,2.89373 6.73867,1.88994 7.64604,-1.3839 0.43935,-2.50043 -0.11624,-5.06639 0.10904,-7.59695 -0.0159,-10.74574 0.0682,-17.4015 -0.21859,-28.06599 v -3.95531 c 0,-2.27109 -1.82801,-4.09959 -4.09898,-4.10001 z m -53.4789,10.75283 c -2.50728,0 -4.17184,1.27067 -4.17184,5.57279 0.0566,9.32162 -0.2165,17.30183 0.27492,26.58907 0,5.3843 8.15144,5.2992 8.15144,-0.42529 0,-0.78777 -0.009,-1.9332 -0.0155,-2.96055 -0.0147,-0.1519 -0.0222,-0.30572 -0.0222,-0.46095 v -13.24377 c 0,-3.04823 3.34291,-5.65214 6.47144,-5.65214 3.11392,0 5.91721,2.34758 5.91721,6.36962 v 14.0346 c 0,4.28962 1.618,5.76246 3.86747,5.82147 2.9749,0 4.32738,-1.81368 4.32738,-4.85086 0,-7.49272 0.97405,-18.48493 -0.83446,-23.04558 -2.47651,-5.00225 -5.65253,-6.99238 -12.90243,-6.99238 -2.83654,0 -5.29018,0.75748 -7.60522,2.01797 -0.49428,-1.84468 -1.26714,-2.774 -3.45818,-2.774 z m 96.55438,-0.33269 c -2.07502,0 -4.06058,0.96493 -3.73473,5.29684 0.0134,9.27633 -0.15799,17.19877 0.20877,26.46391 0,6.02694 8.1995,5.14216 8.1995,0.21446 0.11413,-2.79565 -0.0685,-17.93425 0.74672,-20.19722 1.12407,-3.12012 5.10447,-2.74674 7.9171,-2.74674 5.83598,0 6.05548,-7.89667 0.13976,-7.89667 -3.86228,0 -7.50149,-0.34542 -9.726,1.87909 -0.45117,-1.68382 -0.91795,-3.01367 -3.75112,-3.01367 z m -136.19227,0.95953 v 10e-4 c -1.77259,-0.007 -3.57619,0.97648 -4.25349,3.50418 -1.52121,5.20995 -3.05053,10.41721 -4.59765,15.61972 -1.86312,-5.70048 -2.76559,-8.25362 -5.52059,-15.93339 -1.67181,-4.66028 -7.03316,-4.12989 -8.12354,-0.0605 -0.47423,1.76987 -1.853,6.12193 -3.03599,9.10229 -0.73906,2.30417 -1.4784,4.60808 -2.21743,6.91224 -1.77,-5.76226 -2.88441,-11.35895 -5.29723,-16.88191 -0.67507,-1.16927 -1.63657,-2.00839 -3.6645,-1.95725 -2.97681,0.075 -4.623266,1.95557 -3.667477,5.52266 2.708787,9.19483 4.714157,17.27058 8.493537,26.06753 1.93625,4.50686 8.13683,3.10862 9.20461,-0.8763 1.34651,-5.02524 2.92867,-9.28544 4.38784,-13.94489 1.81523,5.56546 3.17435,9.8626 5.42758,15.2647 1.57387,3.77329 8.0935,2.53131 9.37048,-2.23449 2.35539,-8.79039 5.36554,-16.84007 7.64657,-25.56381 0.59889,-2.23513 -1.3434,-4.53667 -3.98116,-4.53667 -0.0571,-0.003 -0.1144,-0.003 -0.17156,-0.005 z m 17.67127,0.10025 c -5.9841,0 -12.19845,3.75553 -12.72325,9.87175 0,3.5538 6.20869,4.18304 8.20311,0.72864 2.1706,-3.45839 8.5465,-3.30451 10.02316,0.66042 0.22084,0.82419 -0.88976,1.02418 -3.24269,1.21905 -5.59848,0.46363 -12.04908,1.75195 -15.40836,6.80372 -3.06636,4.5585 -1.28917,11.22151 3.34139,14.02395 4.71155,3.14067 11.22916,3.0842 16.03262,0.16485 3.58824,3.58824 8.2852,2.35823 7.65121,-2.50735 -0.17975,-7.77803 1.65069,-19.17228 -0.76636,-23.35877 -1.8696,-5.22327 -7.56085,-7.60522 -13.11083,-7.60522 z m 96.23391,0.0258 c -0.37612,-7.5e-4 -0.71929,0.008 -1.10897,0.0501 v 10e-4 c -7.20678,0.95662 -12.53651,7.90318 -12.66434,14.9965 -0.6849,6.63473 0.99067,14.33675 6.84971,18.26038 7.22015,4.72524 17.89852,2.85616 21.45915,-5.2188 1.08544,-3.92397 -3.53051,-7.18044 -7.15874,-3.55224 -1.95781,1.84719 -3.51795,3.33172 -6.5598,2.80448 -2.85937,-0.49564 -5.55552,-2.69727 -5.88956,-5.63635 6.22977,-0.0798 10.63724,-0.23461 16.86285,-0.23461 4.91541,0 4.58549,-5.13153 4.15137,-7.81812 -1.54018,-5.748 -4.05206,-13.64 -14.63425,-13.64 -0.5219,0 -0.93129,-0.0124 -1.30742,-0.0124 z m -31.80891,7.8419 h 0.64803 c 3.66135,0 6.6089,3.6317 6.6089,8.14265 v 3.78375 c 0,4.51097 -2.94755,8.14266 -6.6089,8.14266 h -0.64803 c -3.66134,0 -6.60889,-3.63169 -6.60889,-8.14266 v -3.78375 c 0,-4.51095 2.94755,-8.14265 6.60889,-8.14265 z m 32.65072,0.30437 c 0.0949,-0.002 0.19013,-3.5e-4 0.28577,0.003 v -5.1e-4 c 3.02523,0 5.82479,2.3996 6.38721,5.35677 -4.23399,0 -8.46755,0.0274 -12.70155,0.0274 0.53226,-2.82605 3.08692,-5.33604 6.02857,-5.38675 z m -93.13746,11.59051 c 0.82023,0.0171 1.36819,0.17213 1.51257,0.42219 0.44732,0.77478 -0.31624,2.62178 -0.85318,3.66696 -1.81619,3.53542 -7.85855,4.42238 -10.25725,2.02365 -1.33556,-1.33556 0.21926,-2.95 1.63297,-3.76617 3.03843,-1.75425 6.16039,-2.38423 7.96489,-2.34663 z" /></g></svg>
