<?xml version="1.0" encoding="UTF-8" standalone="no"?>
<svg
   xmlns:dc="http://purl.org/dc/elements/1.1/"
   xmlns:cc="http://creativecommons.org/ns#"
   xmlns:rdf="http://www.w3.org/1999/02/22-rdf-syntax-ns#"
   xmlns:svg="http://www.w3.org/2000/svg"
   xmlns="http://www.w3.org/2000/svg"
   xmlns:sodipodi="http://sodipodi.sourceforge.net/DTD/sodipodi-0.dtd"
   xmlns:inkscape="http://www.inkscape.org/namespaces/inkscape"
   id="Capa_1"
   enable-background="new 0 0 512 512"
   height="512"
   viewBox="0 0 512 512"
   width="512"
   version="1.1"
   sodipodi:docname="knowledge.svg"
   inkscape:version="1.0.1 (1.0.1+r74)">
  <metadata
     id="metadata13">
    <rdf:RDF>
      <cc:Work
         rdf:about="">
        <dc:format>image/svg+xml</dc:format>
        <dc:type
           rdf:resource="http://purl.org/dc/dcmitype/StillImage" />
        <dc:title />
      </cc:Work>
    </rdf:RDF>
  </metadata>
  <defs
     id="defs11" />
  <sodipodi:namedview
     pagecolor="#ffffff"
     bordercolor="#666666"
     borderopacity="1"
     objecttolerance="10"
     gridtolerance="10"
     guidetolerance="10"
     inkscape:pageopacity="0"
     inkscape:pageshadow="2"
     inkscape:window-width="1920"
     inkscape:window-height="1007"
     id="namedview9"
     showgrid="false"
     inkscape:zoom="0.89388969"
     inkscape:cx="341.36026"
     inkscape:cy="300.88751"
     inkscape:window-x="0"
     inkscape:window-y="0"
     inkscape:window-maximized="1"
     inkscape:current-layer="g4"
     showguides="true"
     inkscape:guide-bbox="true"
     inkscape:document-rotation="0">
    <sodipodi:guide
       position="261.74048,6.4897707"
       orientation="0,-1"
       id="guide835" />
  </sodipodi:namedview>
  <g
     id="g6">
    <g
       id="g4"
       transform="matrix(0.99964302,0,0,0.99964302,0.03679958,0.19370664)">
      <path
         id="path2"
         d="M 216.56834,2.6603538 C 169.8499,2.6598433 122.97801,2.6607838 76.196619,2.6608867 47.607126,2.6644533 40.030926,9.0126948 39.988526,38.795505 V 244.61217 c 0.21615,25.22813 8.567844,33.53307 36.022438,33.61306 47.267346,8.7e-4 95.990636,0.12333 143.257606,0.15429 9.25611,0.4056 17.81529,7.36766 20.02283,16.38037 1.14828,4.5976 0.59669,9.36929 0.71102,14.05222 v 75.14939 c -6.35754,-4.43567 -12.76503,-8.88412 -19.81161,-12.17514 -13.35423,-6.3883 -28.17223,-9.68627 -42.97735,-9.5251 -16.98477,-0.0127 -23.91918,0.44706 -40.90395,0.44806 -12.87443,0.58002 -16.29095,6.31707 -16.29095,13.01452 -0.0179,6.79935 0.0115,5.34872 0.42977,12.13702 1.49036,19.88565 9.32988,39.22253 22.06386,54.56443 12.88738,15.68108 30.74611,27.23168 50.38466,32.40376 8.33755,2.24315 16.97514,3.30005 25.6051,3.28249 7.07064,0.002 14.14136,-0.0102 21.21211,0.002 0.60655,0.0223 0.14354,1.11415 0.28835,1.59818 l 0.0256,23.84258 c 0.16151,5.04215 0.89553,6.44468 6.46004,6.41874 l 23.27629,0.0388 c 4.74118,0.008 6.17601,-1.32048 6.20594,-6.45699 l -0.009,-65.39545 c 9.53135,-0.0739 19.07053,0.19686 28.59574,-0.23056 21.47808,-1.38754 42.38799,-10.19059 58.40348,-24.56724 14.76354,-13.13709 25.5158,-30.7882 30.1069,-50.03266 2.13685,-8.57814 2.70037,-17.02099 2.56218,-25.84612 -0.0139,-10.02484 -4.50746,-14.27106 -14.32456,-14.66864 -14.00043,-0.009 -33.24992,-0.5406 -47.24956,-0.43729 -18.15733,0.65879 -36.06355,6.58965 -51.08456,16.8004 -1.48508,0.94379 -2.83672,2.14495 -4.45983,2.84202 -1.28228,0.3145 -2.67805,-0.76102 -2.57263,-2.11296 0.0542,-3.76723 0.009,-7.53945 0.0241,-11.30944 0.009,-10.11238 -0.0559,-20.22728 0.10007,-30.33787 0.75494,-9.36513 8.23856,-17.77503 17.50554,-19.4696 1.49472,-0.2915 3.12805,-0.40886 4.52559,-0.44912 4.54161,-0.0309 9.08397,0.0271 13.62612,0.002 h 127.79602 c 28.81512,-0.40436 36.14868,-6.46774 36.21595,-34.80106 V 38.469917 c 0.10405,-29.2671902 -7.2424,-35.8349358 -35.52626,-35.7389389 -49.828,0.0541 -100.97523,-0.059704 -144.19821,-0.028441 -12.53438,0.3755388 -24.89387,5.0212358 -34.58915,12.9730629 -1.16593,0.92925 -2.30919,1.886592 -3.43886,2.859389 C 252.48897,13.664187 246.32802,9.4481968 239.45589,6.7862175 232.21286,3.8704067 224.36767,2.5125743 216.56802,2.6603497 Z m 81.50813,35.9373182 c 47.2323,0.03446 94.46461,0.02028 141.69693,0.01951 V 242.38359 c -48.01019,0.0102 -91.61297,0.63933 -139.62277,0.71732 -5.6075,0.17356 -15.54858,0.64712 -20.89019,2.32265 -1.10147,0.32677 -2.19883,0.66784 -3.29925,0.99842 0.007,-62.35888 -0.0143,-124.71819 0.0388,-187.076798 0.40734,-9.320431 7.47389,-17.95083 16.58926,-20.051054 1.79386,-0.447563 3.64063,-0.656364 5.48723,-0.696411 z m -150.52276,0.02342 c 23.87126,0.01297 47.74333,-0.01027 71.61407,0.02534 9.03635,0.367166 17.4626,6.954691 19.92137,15.673078 1.10139,3.640438 0.96038,7.476864 0.91327,11.233593 V 246.41412 c -5.59894,-1.72208 -11.26557,-3.46279 -17.15053,-3.80871 -6.1928,-0.45279 -12.40631,-0.12674 -18.60848,-0.22182 H 76.190206 V 38.617181 l 71.363504,0.0039 z m 190.3482,319.629668 h 19.62593 c -1.36336,3.36825 -2.7435,6.73481 -4.36999,9.9866 -0.31765,0.63613 -0.78977,1.54304 -1.18897,2.26863 -7.18373,12.8975 -19.16328,23.00152 -33.03306,28.02949 -6.79001,2.50152 -14.03235,3.64565 -21.25685,3.66871 -6.46185,0.02 -12.92431,-0.0155 -19.38646,-0.004 1.02014,-2.50961 2.11316,-5.17209 3.20139,-7.53826 2.26855,-5.06472 5.238,-9.80537 8.80008,-14.06026 9.8423,-11.83385 24.19292,-19.88902 39.49189,-21.81381 2.03124,-0.2689 4.19914,-0.43481 6.13235,-0.49665 0.6609,-0.028 1.32238,-0.0303 1.98369,-0.0408 z m -163.17819,39.94443 c 2.1428,-0.004 4.48298,0.0247 6.50037,0.11316 1.10155,0.0531 2.26982,0.12995 3.19165,0.21656 16.42044,1.6223 31.99607,10.21689 42.18508,23.18681 4.3049,5.39717 7.57455,11.55531 10.05118,17.98378 0.34492,0.82228 0.68981,1.64458 1.03471,2.46688 -8.23626,-0.0817 -16.48088,0.17684 -24.71079,-0.2185 -6.26526,-0.47804 -12.44053,-1.98834 -18.25557,-4.36024 -0.33826,-0.14312 -1.0499,-0.43557 -1.53011,-0.64998 -11.2072,-4.9054 -20.90728,-13.19526 -27.42552,-23.55483 -2.6199,-4.0767 -4.66933,-8.48569 -6.43175,-12.99107 -0.30557,-0.72826 -0.61114,-1.45651 -0.91671,-2.18475 5.43581,-0.003 10.87166,8.4e-4 16.30746,-0.008 z"
         sodipodi:nodetypes="sccccccccccccccccccccscccccccccccccccccccccccccssccccccssscccccccccscccccccccccccccccccccccccccc"
         style="fill:#5cd65c;fill-opacity:1;stroke-width:0.998854" />
      <path
         id="path2-3"
         d="m 134.79208,197.40619 h 46.2825 c 15.34715,-0.0833 15.34715,-0.0833 15.20002,-11.05993 v -13.28405 c 0.14713,-11.651 0.14713,-11.651 -15.2802,-11.6148 h -46.29237 c -14.42368,-0.0362 -14.42368,-0.0362 -14.34038,11.40513 v 12.40799 c -0.0833,12.06237 -0.0833,12.06237 14.43043,12.14566 z"
         sodipodi:nodetypes="ccccccccc"
         style="fill:#adebad;fill-opacity:1;stroke-width:0.998854" />
      <path
         id="path2-3-6"
         d="m 334.11893,197.40619 h 46.2825 c 15.34715,-0.0833 15.34715,-0.0833 15.20002,-11.05993 v -13.28405 c 0.14713,-11.651 0.14713,-11.651 -15.2802,-11.6148 h -46.29237 c -14.42368,-0.0362 -14.42368,-0.0362 -14.34038,11.40513 v 12.40799 c -0.0833,12.06237 -0.0833,12.06237 14.43043,12.14566 z"
         sodipodi:nodetypes="ccccccccc"
         style="fill:#adebad;fill-opacity:1;stroke-width:0.998854" />
      <path
         id="path2-3-7"
         d="m 334.08829,118.57019 h 46.2825 c 15.34715,-0.0832 15.34715,-0.0832 15.20003,-11.05993 V 94.226199 c 0.14712,-11.650987 0.14712,-11.650987 -15.28021,-11.614796 h -46.29238 c -14.42367,-0.03618 -14.42367,-0.03618 -14.34037,11.405132 v 12.407985 c -0.0833,12.06237 -0.0833,12.06237 14.43043,12.14567 z"
         sodipodi:nodetypes="ccccccccc"
         style="fill:#adebad;fill-opacity:1;stroke-width:0.998854" />
      <path
         id="path2-3-3"
         d="m 134.30896,118.13168 46.28251,0 c 15.34714,-0.0833 15.34714,-0.0833 15.20003,-11.05993 V 93.787694 c 0.14711,-11.650991 0.14711,-11.650991 -15.28021,-11.614801 l -46.28799,0 c -13.71973,-0.03618 -13.71973,-0.03618 -13.64049,11.405127 v 12.40799 c -0.0791,12.06238 -0.0791,12.06238 13.72615,12.14567 z"
         sodipodi:nodetypes="ccccccccc"
         style="fill:#adebad;fill-opacity:1;stroke-width:0.998854" />
    </g>
  </g>
</svg>
