<?xml version="1.0" encoding="UTF-8" standalone="no"?>
<!-- Created with Inkscape (http://www.inkscape.org/) -->

<svg
   width="250"
   height="250.00005"
   viewBox="0 0 66.145836 66.145845"
   version="1.1"
   id="svg5"
   xml:space="preserve"
   xmlns:xlink="http://www.w3.org/1999/xlink"
   xmlns="http://www.w3.org/2000/svg"
   xmlns:svg="http://www.w3.org/2000/svg"><defs
     id="defs2"><linearGradient
       id="linearGradient122"><stop
         style="stop-color:#fa7938;stop-opacity:1;"
         offset="0"
         id="stop121" /><stop
         style="stop-color:#faca38;stop-opacity:1;"
         offset="1"
         id="stop122" /></linearGradient><linearGradient
       id="linearGradient114"><stop
         style="stop-color:#008040;stop-opacity:1;"
         offset="0.0001"
         id="stop113" /><stop
         style="stop-color:#63e963;stop-opacity:1;"
         offset="0.99989998"
         id="stop114" /></linearGradient><style
       id="style6568">.cls-1{fill:none;}.cls-2{clip-path:url(#clip-path);}</style><style
       id="style6568-5">.cls-1{fill:none;}.cls-2{clip-path:url(#clip-path);}</style><style
       id="style6568-9">.cls-1{fill:none;}.cls-2{clip-path:url(#clip-path);}</style><style
       id="style22571">.cls-1{fill:#84d0f7;}.cls-2{fill:#aa392d;}.cls-3{fill:#7c211a;}.cls-4{fill:#e59973;}.cls-5{fill:#2d2d2d;}.cls-6{opacity:0.2;}.cls-7{opacity:0.3;}</style><style
       id="style23309">
      .cls-1 {
        fill: none;
      }
    </style><style
       id="style6568-7">.cls-1{fill:none;}.cls-2{clip-path:url(#clip-path);}</style><style
       id="style6568-5-5">.cls-1{fill:none;}.cls-2{clip-path:url(#clip-path);}</style><style
       id="style6568-9-3">.cls-1{fill:none;}.cls-2{clip-path:url(#clip-path);}</style><style
       id="style22571-5">.cls-1{fill:#84d0f7;}.cls-2{fill:#aa392d;}.cls-3{fill:#7c211a;}.cls-4{fill:#e59973;}.cls-5{fill:#2d2d2d;}.cls-6{opacity:0.2;}.cls-7{opacity:0.3;}</style><style
       id="style23309-6">
      .cls-1 {
        fill: none;
      }
    </style><linearGradient
       xlink:href="#linearGradient114"
       id="linearGradient91660"
       gradientUnits="userSpaceOnUse"
       gradientTransform="matrix(0.64272444,0,0,0.64272446,92.118925,44.771838)"
       x1="211.29193"
       y1="762.6239"
       x2="301.67172"
       y2="672.24414" /><style
       id="style1-9">
      .cls-1 {
        fill: none;
      }
    </style><linearGradient
       xlink:href="#linearGradient122"
       id="linearGradient8"
       gradientUnits="userSpaceOnUse"
       gradientTransform="matrix(4.583455,0,0,4.583455,185.30118,446.46514)"
       x1="11.105691"
       y1="14.468366"
       x2="19.155231"
       y2="9.820961" /><linearGradient
       id="linearGradient9"><stop
         style="stop-color:#fa8938;stop-opacity:1;"
         offset="0"
         id="stop8" /><stop
         style="stop-color:#faca38;stop-opacity:1;"
         offset="1"
         id="stop9" /></linearGradient><linearGradient
       xlink:href="#linearGradient9"
       id="linearGradient22"
       gradientUnits="userSpaceOnUse"
       gradientTransform="matrix(4.583455,0,0,4.583455,185.30118,446.46514)"
       x1="11.105691"
       y1="14.468366"
       x2="19.155231"
       y2="9.820961" /><linearGradient
       xlink:href="#linearGradient9"
       id="linearGradient115"
       gradientUnits="userSpaceOnUse"
       gradientTransform="matrix(4.583455,0,0,4.583455,185.30118,446.46514)"
       x1="11.105691"
       y1="14.468366"
       x2="19.155231"
       y2="9.820961" /><linearGradient
       xlink:href="#linearGradient9"
       id="linearGradient116"
       gradientUnits="userSpaceOnUse"
       gradientTransform="matrix(4.583455,0,0,4.583455,185.30118,446.46514)"
       x1="11.105691"
       y1="14.468366"
       x2="19.155231"
       y2="9.820961" /><filter
       style="color-interpolation-filters:sRGB"
       id="filter101"
       x="-0.27486737"
       y="-0.27486737"
       width="1.5726403"
       height="1.5726403"><feFlood
         result="flood"
         in="SourceGraphic"
         flood-opacity="0.301961"
         flood-color="rgb(0,0,0)"
         id="feFlood99" /><feGaussianBlur
         result="blur"
         in="SourceGraphic"
         stdDeviation="5.000000"
         id="feGaussianBlur99" /><feOffset
         result="offset"
         in="blur"
         dx="1.000000"
         dy="1.000000"
         id="feOffset99" /><feComposite
         result="comp1"
         operator="in"
         in="flood"
         in2="offset"
         id="feComposite100" /><feComposite
         result="comp2"
         operator="over"
         in="SourceGraphic"
         in2="comp1"
         id="feComposite101" /></filter></defs><g
     id="layer1"
     transform="translate(-223.10684,-471.89671)"><rect
       style="fill:url(#linearGradient91660);stroke-width:4.13113"
       id="rect91646"
       width="65.892998"
       height="65.892998"
       x="223.13177"
       y="472.04697"
       rx="0"
       ry="0" /><path
       fill="#ffcc4d"
       d="m 277.90742,504.62584 c 0,12.05551 -9.7732,21.82871 -21.82871,21.82871 -12.05551,0 -21.82871,-9.7732 -21.82871,-21.82871 0,-12.05551 9.7732,-21.82871 21.82871,-21.82871 12.05551,0 21.82871,9.7732 21.82871,21.82871"
       id="path1"
       style="fill:url(#linearGradient115);fill-opacity:1;stroke:#ffffff;stroke-width:0;stroke-miterlimit:4;stroke-dasharray:none;stroke-opacity:1" /><path
       fill="#664500"
       d="m 256.07871,508.26396 c -4.39363,0 -7.30898,-0.51177 -10.91435,-1.2127 -0.82343,-0.15887 -2.42541,0 -2.42541,2.4254 0,4.85083 5.57238,10.91435 13.33976,10.91435 7.76617,0 13.33976,-6.06352 13.33976,-10.91435 0,-2.4254 -1.60198,-2.58548 -2.42541,-2.4254 -3.60537,0.70093 -6.52072,1.2127 -10.91435,1.2127 z"
       id="path6"
       style="fill:#3e270f;fill-opacity:1;stroke:none;stroke-width:0;stroke-miterlimit:4;stroke-dasharray:none" /><path
       fill="#ffffff"
       d="m 245.97552,509.6783 c 1.39576,0.34484 4.71009,1.01107 10.10319,1.01107 5.25572,0 8.6133,-0.63271 10.07275,-0.98411 0.47411,-0.12706 0.79993,0.14495 0.73006,0.5515 -0.27953,1.62616 -2.05248,5.50132 -10.64024,5.50132 -8.79253,0 -10.53163,-3.91559 -10.95271,-5.48714 -0.11403,-0.42557 0.28827,-0.69946 0.68695,-0.59264 z"
       id="path7"
       style="stroke-width:0;stroke-miterlimit:4;stroke-dasharray:none" /><path
       fill="#e95f28"
       d="m 253.26766,486.83369 -5.50811,0.97138 -2.83773,-5.15765 c -0.31287,-0.56875 -0.95561,-0.87314 -1.59107,-0.76157 -0.6391,0.11277 -1.13631,0.61969 -1.23575,1.26 l -0.90346,5.81736 -5.50811,0.97137 c -0.6488,0.11401 -1.14965,0.63668 -1.23817,1.29032 -0.0885,0.65365 0.25589,1.28911 0.85253,1.57288 l 4.9357,2.34296 -0.90709,5.83554 c -0.10066,0.65001 0.22922,1.29032 0.81614,1.58743 0.21708,0.10917 0.44991,0.16134 0.68155,0.16134 0.39656,0 0.78826,-0.15518 1.08052,-0.4511 l 4.25902,-4.31845 5.47901,2.60124 c 0.59422,0.28135 1.30244,0.14916 1.75357,-0.32987 0.45114,-0.47902 0.54086,-1.19329 0.22434,-1.76933 l -2.84741,-5.17586 3.8382,-3.89037 c 0.46328,-0.46932 0.56877,-1.18481 0.26317,-1.76934 -0.308,-0.58453 -0.96168,-0.90104 -1.60683,-0.78826 z m 5.6221,0 5.50811,0.97138 2.83774,-5.15765 c 0.31285,-0.56875 0.9556,-0.87314 1.59107,-0.76157 0.63788,0.11277 1.13508,0.61969 1.23453,1.26 l 0.90347,5.81736 5.5081,0.97137 c 0.65002,0.11401 1.15087,0.63546 1.23818,1.28911 0.0873,0.65366 -0.25591,1.2891 -0.85254,1.57288 l -4.93571,2.34295 0.9071,5.83554 c 0.10067,0.65002 -0.22923,1.29032 -0.81614,1.58744 -0.21708,0.10915 -0.44993,0.16137 -0.68154,0.16137 -0.39657,0 -0.78827,-0.15518 -1.08052,-0.45116 l -4.25903,-4.31845 -5.47901,2.60126 c -0.59423,0.28135 -1.30244,0.14915 -1.75357,-0.32988 -0.45115,-0.47902 -0.54086,-1.19331 -0.22436,-1.76934 l 2.84745,-5.17464 -3.83822,-3.89036 c -0.46326,-0.46932 -0.56876,-1.18481 -0.26314,-1.76934 0.30924,-0.58453 0.96288,-0.90104 1.60804,-0.78826 z"
       id="path8"
       style="fill:#009ae5;fill-opacity:1;stroke:#ffffff;stroke-width:1.77784;stroke-miterlimit:4;stroke-dasharray:none;stroke-opacity:1" /><path
       fill="#ffcc4d"
       d="m 277.90742,504.62584 c 0,12.05551 -9.7732,21.82871 -21.82871,21.82871 -12.05551,0 -21.82871,-9.7732 -21.82871,-21.82871 0,-12.05551 9.7732,-21.82871 21.82871,-21.82871 12.05551,0 21.82871,9.7732 21.82871,21.82871"
       id="path9"
       style="fill:url(#linearGradient116);fill-opacity:1;stroke:#ffffff;stroke-width:0;stroke-miterlimit:4;stroke-dasharray:none;stroke-opacity:1" /><path
       fill="#664500"
       d="m 256.07871,508.26396 c -4.39363,0 -7.30898,-0.51177 -10.91435,-1.2127 -0.82343,-0.15887 -2.42541,0 -2.42541,2.4254 0,4.85083 5.57238,10.91435 13.33976,10.91435 7.76617,0 13.33976,-6.06352 13.33976,-10.91435 0,-2.4254 -1.60198,-2.58548 -2.42541,-2.4254 -3.60537,0.70093 -6.52072,1.2127 -10.91435,1.2127 z"
       id="path10"
       style="fill:#3e270f;fill-opacity:1;stroke:none;stroke-width:0;stroke-miterlimit:4;stroke-dasharray:none" /><path
       fill="#ffffff"
       d="m 245.97552,509.6783 c 1.39576,0.34484 4.71009,1.01107 10.10319,1.01107 5.25572,0 8.6133,-0.63271 10.07275,-0.98411 0.47411,-0.12706 0.79993,0.14495 0.73006,0.5515 -0.27953,1.62616 -2.05248,5.50132 -10.64024,5.50132 -8.79253,0 -10.53163,-3.91559 -10.95271,-5.48714 -0.11403,-0.42557 0.28827,-0.69946 0.68695,-0.59264 z"
       id="path11"
       style="stroke-width:0;stroke-miterlimit:4;stroke-dasharray:none" /><path
       fill="#e95f28"
       d="m 253.26766,486.83369 -5.50811,0.97138 -2.83773,-5.15765 c -0.31287,-0.56875 -0.95561,-0.87314 -1.59107,-0.76157 -0.6391,0.11277 -1.13631,0.61969 -1.23575,1.26 l -0.90346,5.81736 -5.50811,0.97137 c -0.6488,0.11401 -1.14965,0.63668 -1.23817,1.29032 -0.0885,0.65365 0.25589,1.28911 0.85253,1.57288 l 4.9357,2.34296 -0.90709,5.83554 c -0.10066,0.65001 0.22922,1.29032 0.81614,1.58743 0.21708,0.10917 0.44991,0.16134 0.68155,0.16134 0.39656,0 0.78826,-0.15518 1.08052,-0.4511 l 4.25902,-4.31845 5.47901,2.60124 c 0.59422,0.28135 1.30244,0.14916 1.75357,-0.32987 0.45114,-0.47902 0.54086,-1.19329 0.22434,-1.76933 l -2.84741,-5.17586 3.8382,-3.89037 c 0.46328,-0.46932 0.56877,-1.18481 0.26317,-1.76934 -0.308,-0.58453 -0.96168,-0.90104 -1.60683,-0.78826 z m 5.6221,0 5.50811,0.97138 2.83774,-5.15765 c 0.31285,-0.56875 0.9556,-0.87314 1.59107,-0.76157 0.63788,0.11277 1.13508,0.61969 1.23453,1.26 l 0.90347,5.81736 5.5081,0.97137 c 0.65002,0.11401 1.15087,0.63546 1.23818,1.28911 0.0873,0.65366 -0.25591,1.2891 -0.85254,1.57288 l -4.93571,2.34295 0.9071,5.83554 c 0.10067,0.65002 -0.22923,1.29032 -0.81614,1.58744 -0.21708,0.10915 -0.44993,0.16137 -0.68154,0.16137 -0.39657,0 -0.78827,-0.15518 -1.08052,-0.45116 l -4.25903,-4.31845 -5.47901,2.60126 c -0.59423,0.28135 -1.30244,0.14915 -1.75357,-0.32988 -0.45115,-0.47902 -0.54086,-1.19331 -0.22436,-1.76934 l 2.84745,-5.17464 -3.83822,-3.89036 c -0.46326,-0.46932 -0.56876,-1.18481 -0.26314,-1.76934 0.30924,-0.58453 0.96288,-0.90104 1.60804,-0.78826 z"
       id="path12"
       style="fill:#009ae5;fill-opacity:1;stroke:#ffffff;stroke-width:1.77784;stroke-miterlimit:4;stroke-dasharray:none;stroke-opacity:1" /><path
       fill="#ffcc4d"
       d="m 277.90742,504.62584 c 0,12.05551 -9.7732,21.82871 -21.82871,21.82871 -12.05551,0 -21.82871,-9.7732 -21.82871,-21.82871 0,-12.05551 9.7732,-21.82871 21.82871,-21.82871 12.05551,0 21.82871,9.7732 21.82871,21.82871"
       id="path45"
       style="fill:url(#linearGradient22);fill-opacity:1;stroke:#ffffff;stroke-width:0;stroke-miterlimit:4;stroke-dasharray:none;stroke-opacity:1" /><path
       fill="#664500"
       d="m 256.07871,508.26396 c -4.39363,0 -7.30898,-0.51177 -10.91435,-1.2127 -0.82343,-0.15887 -2.42541,0 -2.42541,2.4254 0,4.85083 5.57238,10.91435 13.33976,10.91435 7.76617,0 13.33976,-6.06352 13.33976,-10.91435 0,-2.4254 -1.60198,-2.58548 -2.42541,-2.4254 -3.60537,0.70093 -6.52072,1.2127 -10.91435,1.2127 z"
       id="path46"
       style="fill:#3e270f;fill-opacity:1;stroke:none;stroke-width:0;stroke-miterlimit:4;stroke-dasharray:none" /><path
       fill="#ffffff"
       d="m 245.97552,509.6783 c 1.39576,0.34484 4.71009,1.01107 10.10319,1.01107 5.25572,0 8.6133,-0.63271 10.07275,-0.98411 0.47411,-0.12706 0.79993,0.14495 0.73006,0.5515 -0.27953,1.62616 -2.05248,5.50132 -10.64024,5.50132 -8.79253,0 -10.53163,-3.91559 -10.95271,-5.48714 -0.11403,-0.42557 0.28827,-0.69946 0.68695,-0.59264 z"
       id="path47"
       style="stroke-width:0;stroke-miterlimit:4;stroke-dasharray:none" /><path
       fill="#e95f28"
       d="m 253.26766,486.83369 -5.50811,0.97138 -2.83773,-5.15765 c -0.31287,-0.56875 -0.95561,-0.87314 -1.59107,-0.76157 -0.6391,0.11277 -1.13631,0.61969 -1.23575,1.26 l -0.90346,5.81736 -5.50811,0.97137 c -0.6488,0.11401 -1.14965,0.63668 -1.23817,1.29032 -0.0885,0.65365 0.25589,1.28911 0.85253,1.57288 l 4.9357,2.34296 -0.90709,5.83554 c -0.10066,0.65001 0.22922,1.29032 0.81614,1.58743 0.21708,0.10917 0.44991,0.16134 0.68155,0.16134 0.39656,0 0.78826,-0.15518 1.08052,-0.4511 l 4.25902,-4.31845 5.47901,2.60124 c 0.59422,0.28135 1.30244,0.14916 1.75357,-0.32987 0.45114,-0.47902 0.54086,-1.19329 0.22434,-1.76933 l -2.84741,-5.17586 3.8382,-3.89037 c 0.46328,-0.46932 0.56877,-1.18481 0.26317,-1.76934 -0.308,-0.58453 -0.96168,-0.90104 -1.60683,-0.78826 z m 5.6221,0 5.50811,0.97138 2.83774,-5.15765 c 0.31285,-0.56875 0.9556,-0.87314 1.59107,-0.76157 0.63788,0.11277 1.13508,0.61969 1.23453,1.26 l 0.90347,5.81736 5.5081,0.97137 c 0.65002,0.11401 1.15087,0.63546 1.23818,1.28911 0.0873,0.65366 -0.25591,1.2891 -0.85254,1.57288 l -4.93571,2.34295 0.9071,5.83554 c 0.10067,0.65002 -0.22923,1.29032 -0.81614,1.58744 -0.21708,0.10915 -0.44993,0.16137 -0.68154,0.16137 -0.39657,0 -0.78827,-0.15518 -1.08052,-0.45116 l -4.25903,-4.31845 -5.47901,2.60126 c -0.59423,0.28135 -1.30244,0.14915 -1.75357,-0.32988 -0.45115,-0.47902 -0.54086,-1.19331 -0.22436,-1.76934 l 2.84745,-5.17464 -3.83822,-3.89036 c -0.46326,-0.46932 -0.56876,-1.18481 -0.26314,-1.76934 0.30924,-0.58453 0.96288,-0.90104 1.60804,-0.78826 z"
       id="path48"
       style="fill:#009ae5;fill-opacity:1;stroke:#ffffff;stroke-width:1.77784;stroke-miterlimit:4;stroke-dasharray:none;stroke-opacity:1" /><path
       fill="#ffcc4d"
       d="m 277.90742,504.62584 c 0,12.05551 -9.7732,21.82871 -21.82871,21.82871 -12.05551,0 -21.82871,-9.7732 -21.82871,-21.82871 0,-12.05551 9.7732,-21.82871 21.82871,-21.82871 12.05551,0 21.82871,9.7732 21.82871,21.82871"
       id="path49"
       style="fill:url(#linearGradient8);fill-opacity:1;stroke:#ffffff;stroke-width:0;stroke-miterlimit:4;stroke-dasharray:none;stroke-opacity:1;filter:url(#filter101)" /><path
       fill="#664500"
       d="m 256.07871,508.26396 c -4.39363,0 -7.30898,-0.51177 -10.91435,-1.2127 -0.82343,-0.15887 -2.42541,0 -2.42541,2.4254 0,4.85083 5.57238,10.91435 13.33976,10.91435 7.76617,0 13.33976,-6.06352 13.33976,-10.91435 0,-2.4254 -1.60198,-2.58548 -2.42541,-2.4254 -3.60537,0.70093 -6.52072,1.2127 -10.91435,1.2127 z"
       id="path50"
       style="fill:#3e270f;fill-opacity:1;stroke:none;stroke-width:0;stroke-miterlimit:4;stroke-dasharray:none" /><path
       fill="#ffffff"
       d="m 245.97552,509.6783 c 1.39576,0.34484 4.71009,1.01107 10.10319,1.01107 5.25572,0 8.6133,-0.63271 10.07275,-0.98411 0.47411,-0.12706 0.79993,0.14495 0.73006,0.5515 -0.27953,1.62616 -2.05248,5.50132 -10.64024,5.50132 -8.79253,0 -10.53163,-3.91559 -10.95271,-5.48714 -0.11403,-0.42557 0.28827,-0.69946 0.68695,-0.59264 z"
       id="path51"
       style="stroke-width:0;stroke-miterlimit:4;stroke-dasharray:none" /><path
       fill="#e95f28"
       d="m 253.26766,486.83369 -5.50811,0.97138 -2.83773,-5.15765 c -0.31287,-0.56875 -0.95561,-0.87314 -1.59107,-0.76157 -0.6391,0.11277 -1.13631,0.61969 -1.23575,1.26 l -0.90346,5.81736 -5.50811,0.97137 c -0.6488,0.11401 -1.14965,0.63668 -1.23817,1.29032 -0.0885,0.65365 0.25589,1.28911 0.85253,1.57288 l 4.9357,2.34296 -0.90709,5.83554 c -0.10066,0.65001 0.22922,1.29032 0.81614,1.58743 0.21708,0.10917 0.44991,0.16134 0.68155,0.16134 0.39656,0 0.78826,-0.15518 1.08052,-0.4511 l 4.25902,-4.31845 5.47901,2.60124 c 0.59422,0.28135 1.30244,0.14916 1.75357,-0.32987 0.45114,-0.47902 0.54086,-1.19329 0.22434,-1.76933 l -2.84741,-5.17586 3.8382,-3.89037 c 0.46328,-0.46932 0.56877,-1.18481 0.26317,-1.76934 -0.308,-0.58453 -0.96168,-0.90104 -1.60683,-0.78826 z m 5.6221,0 5.50811,0.97138 2.83774,-5.15765 c 0.31285,-0.56875 0.9556,-0.87314 1.59107,-0.76157 0.63788,0.11277 1.13508,0.61969 1.23453,1.26 l 0.90347,5.81736 5.5081,0.97137 c 0.65002,0.11401 1.15087,0.63546 1.23818,1.28911 0.0873,0.65366 -0.25591,1.2891 -0.85254,1.57288 l -4.93571,2.34295 0.9071,5.83554 c 0.10067,0.65002 -0.22923,1.29032 -0.81614,1.58744 -0.21708,0.10915 -0.44993,0.16137 -0.68154,0.16137 -0.39657,0 -0.78827,-0.15518 -1.08052,-0.45116 l -4.25903,-4.31845 -5.47901,2.60126 c -0.59423,0.28135 -1.30244,0.14915 -1.75357,-0.32988 -0.45115,-0.47902 -0.54086,-1.19331 -0.22436,-1.76934 l 2.84745,-5.17464 -3.83822,-3.89036 c -0.46326,-0.46932 -0.56876,-1.18481 -0.26314,-1.76934 0.30924,-0.58453 0.96288,-0.90104 1.60804,-0.78826 z"
       id="path52"
       style="fill:#009ae5;fill-opacity:1;stroke:#ffffff;stroke-width:1.77784;stroke-miterlimit:4;stroke-dasharray:none;stroke-opacity:1" /></g><style
     type="text/css"
     id="style1941">
	.st0{fill:none;stroke:#000000;stroke-width:2;stroke-linecap:round;stroke-linejoin:round;stroke-miterlimit:10;}
</style><style
     type="text/css"
     id="style1941-0">
	.st0{fill:none;stroke:#000000;stroke-width:2;stroke-linecap:round;stroke-linejoin:round;stroke-miterlimit:10;}
</style><style
     type="text/css"
     id="style1941-7">
	.st0{fill:none;stroke:#000000;stroke-width:2;stroke-linecap:round;stroke-linejoin:round;stroke-miterlimit:10;}
</style><style
     type="text/css"
     id="style22485">
	.st0{fill:none;stroke:#6C3DB7;stroke-width:4;stroke-linecap:round;stroke-linejoin:round;stroke-miterlimit:10;}
	.st1{fill:none;stroke:#1F992A;stroke-width:4;stroke-linecap:round;stroke-linejoin:round;stroke-miterlimit:10;}
	.st2{fill:none;stroke:#6A83BA;stroke-width:4;stroke-linecap:round;stroke-linejoin:round;stroke-miterlimit:10;}
	.st3{fill:#8A8AFF;stroke:#8A8AFF;stroke-width:2;stroke-linecap:round;stroke-linejoin:round;stroke-miterlimit:10;}
	.st4{fill:#6C3DB7;stroke:#6C3DB7;stroke-width:2;stroke-linecap:round;stroke-linejoin:round;stroke-miterlimit:10;}
	.st5{fill:#A576FF;stroke:#A576FF;stroke-width:2;stroke-linecap:round;stroke-linejoin:round;stroke-miterlimit:10;}
	.st6{fill:#F2BB41;stroke:#F2BB41;stroke-width:2;stroke-linecap:round;stroke-linejoin:round;stroke-miterlimit:10;}
	.st7{fill:#E08838;stroke:#E08838;stroke-width:2;stroke-linecap:round;stroke-linejoin:round;stroke-miterlimit:10;}
	.st8{fill:#1F992A;stroke:#1F992A;stroke-width:2;stroke-linecap:round;stroke-linejoin:round;stroke-miterlimit:10;}
	.st9{fill:#5EC11E;stroke:#5EC11E;stroke-width:2;stroke-linecap:round;stroke-linejoin:round;stroke-miterlimit:10;}
	.st10{fill:#E3FAFF;stroke:#E3FAFF;stroke-width:2;stroke-linecap:round;stroke-linejoin:round;stroke-miterlimit:10;}
	.st11{fill:#FF5093;stroke:#FF5093;stroke-width:2;stroke-linecap:round;stroke-linejoin:round;stroke-miterlimit:10;}
	.st12{fill:#B7257F;stroke:#B7257F;stroke-width:2;stroke-linecap:round;stroke-linejoin:round;stroke-miterlimit:10;}
	.st13{fill:#5189E5;stroke:#5189E5;stroke-width:2;stroke-linecap:round;stroke-linejoin:round;stroke-miterlimit:10;}
	.st14{fill:#6EBAFF;stroke:#6EBAFF;stroke-width:2;stroke-linecap:round;stroke-linejoin:round;stroke-miterlimit:10;}
	.st15{fill:#EDD977;stroke:#EDD977;stroke-width:2;stroke-linecap:round;stroke-linejoin:round;stroke-miterlimit:10;}
	.st16{fill:#8C43FF;stroke:#8C43FF;stroke-width:2;stroke-linecap:round;stroke-linejoin:round;stroke-miterlimit:10;}
	.st17{fill:#5252BA;stroke:#5252BA;stroke-width:2;stroke-linecap:round;stroke-linejoin:round;stroke-miterlimit:10;}
	.st18{fill:none;stroke:#E3FAFF;stroke-width:4;stroke-linecap:round;stroke-linejoin:round;stroke-miterlimit:10;}
	.st19{fill:#354C75;stroke:#354C75;stroke-width:2;stroke-linecap:round;stroke-linejoin:round;stroke-miterlimit:10;}
</style><style
     type="text/css"
     id="style23106">
	.st0{fill:none;stroke:#000000;stroke-width:2;stroke-linecap:round;stroke-linejoin:round;stroke-miterlimit:10;}
	.st1{fill:none;stroke:#000000;stroke-width:2;stroke-linejoin:round;stroke-miterlimit:10;}
</style><style
     type="text/css"
     id="style1941-1">
	.st0{fill:none;stroke:#000000;stroke-width:2;stroke-linecap:round;stroke-linejoin:round;stroke-miterlimit:10;}
</style><style
     type="text/css"
     id="style1941-0-8">
	.st0{fill:none;stroke:#000000;stroke-width:2;stroke-linecap:round;stroke-linejoin:round;stroke-miterlimit:10;}
</style><style
     type="text/css"
     id="style1941-7-7">
	.st0{fill:none;stroke:#000000;stroke-width:2;stroke-linecap:round;stroke-linejoin:round;stroke-miterlimit:10;}
</style><style
     type="text/css"
     id="style22485-9">
	.st0{fill:none;stroke:#6C3DB7;stroke-width:4;stroke-linecap:round;stroke-linejoin:round;stroke-miterlimit:10;}
	.st1{fill:none;stroke:#1F992A;stroke-width:4;stroke-linecap:round;stroke-linejoin:round;stroke-miterlimit:10;}
	.st2{fill:none;stroke:#6A83BA;stroke-width:4;stroke-linecap:round;stroke-linejoin:round;stroke-miterlimit:10;}
	.st3{fill:#8A8AFF;stroke:#8A8AFF;stroke-width:2;stroke-linecap:round;stroke-linejoin:round;stroke-miterlimit:10;}
	.st4{fill:#6C3DB7;stroke:#6C3DB7;stroke-width:2;stroke-linecap:round;stroke-linejoin:round;stroke-miterlimit:10;}
	.st5{fill:#A576FF;stroke:#A576FF;stroke-width:2;stroke-linecap:round;stroke-linejoin:round;stroke-miterlimit:10;}
	.st6{fill:#F2BB41;stroke:#F2BB41;stroke-width:2;stroke-linecap:round;stroke-linejoin:round;stroke-miterlimit:10;}
	.st7{fill:#E08838;stroke:#E08838;stroke-width:2;stroke-linecap:round;stroke-linejoin:round;stroke-miterlimit:10;}
	.st8{fill:#1F992A;stroke:#1F992A;stroke-width:2;stroke-linecap:round;stroke-linejoin:round;stroke-miterlimit:10;}
	.st9{fill:#5EC11E;stroke:#5EC11E;stroke-width:2;stroke-linecap:round;stroke-linejoin:round;stroke-miterlimit:10;}
	.st10{fill:#E3FAFF;stroke:#E3FAFF;stroke-width:2;stroke-linecap:round;stroke-linejoin:round;stroke-miterlimit:10;}
	.st11{fill:#FF5093;stroke:#FF5093;stroke-width:2;stroke-linecap:round;stroke-linejoin:round;stroke-miterlimit:10;}
	.st12{fill:#B7257F;stroke:#B7257F;stroke-width:2;stroke-linecap:round;stroke-linejoin:round;stroke-miterlimit:10;}
	.st13{fill:#5189E5;stroke:#5189E5;stroke-width:2;stroke-linecap:round;stroke-linejoin:round;stroke-miterlimit:10;}
	.st14{fill:#6EBAFF;stroke:#6EBAFF;stroke-width:2;stroke-linecap:round;stroke-linejoin:round;stroke-miterlimit:10;}
	.st15{fill:#EDD977;stroke:#EDD977;stroke-width:2;stroke-linecap:round;stroke-linejoin:round;stroke-miterlimit:10;}
	.st16{fill:#8C43FF;stroke:#8C43FF;stroke-width:2;stroke-linecap:round;stroke-linejoin:round;stroke-miterlimit:10;}
	.st17{fill:#5252BA;stroke:#5252BA;stroke-width:2;stroke-linecap:round;stroke-linejoin:round;stroke-miterlimit:10;}
	.st18{fill:none;stroke:#E3FAFF;stroke-width:4;stroke-linecap:round;stroke-linejoin:round;stroke-miterlimit:10;}
	.st19{fill:#354C75;stroke:#354C75;stroke-width:2;stroke-linecap:round;stroke-linejoin:round;stroke-miterlimit:10;}
</style><style
     type="text/css"
     id="style23106-2">
	.st0{fill:none;stroke:#000000;stroke-width:2;stroke-linecap:round;stroke-linejoin:round;stroke-miterlimit:10;}
	.st1{fill:none;stroke:#000000;stroke-width:2;stroke-linejoin:round;stroke-miterlimit:10;}
</style><style
     type="text/css"
     id="style4736">
<![CDATA[
	.st0{fill:#D1D1D1;}
	.st1{fill:#454545;}
]]>
</style><style
     type="text/css"
     id="style1">
	.st0{fill:none;stroke:#000000;stroke-width:2;stroke-linecap:round;stroke-linejoin:round;stroke-miterlimit:10;}
</style><style
     type="text/css"
     id="style1-4">
	.linesandangles_een{fill:#111918;}
</style><style
     type="text/css"
     id="style1-2">
	.st0{fill:#000000;}
</style><style
     type="text/css"
     id="style1-5">
	.st0{fill:#000000;}
</style><style
     type="text/css"
     id="style1-1">
	.st0{fill:#000000;}
</style></svg>
