<?xml version="1.0" encoding="UTF-8" standalone="no"?>
<!-- Created with Inkscape (http://www.inkscape.org/) -->

<svg
   width="300"
   height="100"
   viewBox="0 0 79.374996 26.458333"
   version="1.1"
   id="svg5"
   inkscape:version="1.1.2 (0a00cf5339, 2022-02-04)"
   sodipodi:docname="trekie.svg"
   inkscape:export-filename="/home/doruk/GitHub/artwork/Branding &amp; Logo Designs/Trekie/trekie-L.png"
   inkscape:export-xdpi="288"
   inkscape:export-ydpi="288"
   xmlns:inkscape="http://www.inkscape.org/namespaces/inkscape"
   xmlns:sodipodi="http://sodipodi.sourceforge.net/DTD/sodipodi-0.dtd"
   xmlns:xlink="http://www.w3.org/1999/xlink"
   xmlns="http://www.w3.org/2000/svg"
   xmlns:svg="http://www.w3.org/2000/svg">
  <sodipodi:namedview
     id="namedview7"
     pagecolor="#ffffff"
     bordercolor="#999999"
     borderopacity="1"
     inkscape:showpageshadow="0"
     inkscape:pageopacity="0"
     inkscape:pagecheckerboard="0"
     inkscape:deskcolor="#d1d1d1"
     inkscape:document-units="px"
     showgrid="false"
     inkscape:zoom="2.8284271"
     inkscape:cx="173.59471"
     inkscape:cy="91.039998"
     inkscape:window-width="1920"
     inkscape:window-height="953"
     inkscape:window-x="0"
     inkscape:window-y="0"
     inkscape:window-maximized="1"
     inkscape:current-layer="layer1"
     showguides="true"
     inkscape:pageshadow="0" />
  <defs
     id="defs2">
    <rect
       x="223.75488"
       y="162.30469"
       width="120.36133"
       height="58.945312"
       id="rect24570" />
    <linearGradient
       inkscape:collect="always"
       id="linearGradient3351">
      <stop
         style="stop-color:#0ac238;stop-opacity:1"
         offset="0"
         id="stop3347" />
      <stop
         style="stop-color:#bfec93;stop-opacity:1"
         offset="0.99989998"
         id="stop9214" />
    </linearGradient>
    <linearGradient
       inkscape:collect="always"
       xlink:href="#linearGradient15455"
       id="linearGradient15457"
       x1="11.105691"
       y1="14.468366"
       x2="19.155231"
       y2="9.820961"
       gradientUnits="userSpaceOnUse"
       gradientTransform="matrix(1.5700553,0,0,1.5700553,-11.096072,27.641073)" />
    <linearGradient
       inkscape:collect="always"
       id="linearGradient15455">
      <stop
         style="stop-color:#fa7938;stop-opacity:1"
         offset="0"
         id="stop15451" />
      <stop
         style="stop-color:#ffe14c;stop-opacity:1"
         offset="1"
         id="stop15453" />
    </linearGradient>
    <linearGradient
       inkscape:collect="always"
       xlink:href="#linearGradient3351"
       id="linearGradient3095"
       gradientUnits="userSpaceOnUse"
       gradientTransform="matrix(1.4502264,0,0,1.4502264,-9.4852063,-5.5642687)"
       x1="8.4175129"
       y1="20.258657"
       x2="23.002991"
       y2="5.6731791" />
  </defs>
  <g
     inkscape:label="Layer 1"
     inkscape:groupmode="layer"
     id="layer1">
    <rect
       style="fill:url(#linearGradient3095);fill-opacity:1;stroke:none;stroke-width:0.382968;stroke-opacity:1"
       id="rect16911"
       width="24.904699"
       height="24.904881"
       x="0.83692044"
       y="0.78623343"
       rx="6.3601298"
       ry="6.3601298"
       inkscape:export-filename="/home/doruk/GitHub/artwork/Branding &amp; Logo Designs/Trekie/trekie-icon.png"
       inkscape:export-xdpi="509.94275"
       inkscape:export-ydpi="509.94275"
       inkscape:label="rect16911" />
    <g
       aria-label="trekie"
       id="text10316"
       style="font-size:10.5833px;line-height:1.25;fill:#21272c;fill-opacity:1;stroke-width:0.264583"
       transform="matrix(0.98042764,0,0,0.98042764,1.1506459,-25.304233)">
      <g
         aria-label="trekie"
         id="text20552"
         style="font-family:Rubik;-inkscape-font-specification:Rubik;fill:#21272c;fill-opacity:1;stroke-width:0.0700042" />
      <text
         xml:space="preserve"
         transform="scale(0.26458332)"
         id="text24568"
         style="font-size:40px;line-height:1.25;font-family:Rubik;-inkscape-font-specification:Rubik;white-space:pre;shape-inside:url(#rect24570);fill:#21272c;fill-opacity:1" />
      <path
         id="path1472"
         style="font-weight:300;-inkscape-font-specification:'Rubik Light';fill:#21272c;fill-opacity:1;stroke-width:0.0729388"
         d="m 50.134577,35.039708 c -0.922627,0 -1.771177,0.210806 -2.497101,0.64734 0.0035,-0.0019 -1.44e-4,-10e-4 -0.0096,0.004 a 0.13307617,0.13307617 0 0 0 -0.0061,0.0035 c -0.703475,0.434056 -1.262511,1.050771 -1.656164,1.808921 -0.390069,0.751254 -0.619122,1.609003 -0.688178,2.54802 a 0.13307617,0.13307617 0 0 0 0,0.0096 c -2e-6,0.0014 -2e-6,0.002 0,0.0035 -0.01432,0.220555 -0.01714,0.531537 -0.01714,0.794556 0,0.263041 0.0027,0.575454 0.01714,0.796066 -1.3e-5,0.0026 -10e-6,0.0033 0,0.0061 7.5e-5,0.001 -6.7e-5,0.0029 0,0.004 a 0.13307617,0.13307617 0 0 0 0,0.0056 c 0.110129,1.417829 0.574578,2.639026 1.408623,3.575495 a 0.13307617,0.13307617 0 0 0 0.004,0.0035 c 0.855227,0.945248 2.064419,1.428787 3.444414,1.428787 0.6598,0 1.271396,-0.09404 1.833629,-0.286363 a 0.13307617,0.13307617 0 0 0 0.0061,-0.0015 c 0.903108,-0.349021 1.731339,-0.813207 2.330727,-1.635493 a 0.13307617,0.13307617 0 0 0 0,-5.04e-4 0.13307617,0.13307617 0 0 0 0,-5.04e-4 0.13307617,0.13307617 0 0 0 0,-5.04e-4 0.13307617,0.13307617 0 0 0 0,-5.04e-4 c 0.210846,-0.297703 0.431562,-0.541138 0.431562,-1.021931 0,-0.319291 -0.128772,-0.666421 -0.381145,-0.879757 -0.193949,-0.163962 -0.449771,-0.342324 -0.769348,-0.342324 -0.330044,0 -0.633593,0.01562 -1.020417,0.379127 a 0.13307617,0.13307617 0 0 0 -0.0035,0.002 c -0.431757,0.433225 -0.846991,0.875522 -1.376354,1.076379 -0.336714,0.126057 -0.697574,0.204949 -1.043609,0.185531 -0.408671,-0.02292 -0.833131,-0.123012 -1.159567,-0.340307 -0.347011,-0.230993 -0.570631,-0.502222 -0.786487,-0.967986 -0.08561,-0.184725 -0.140499,-0.334189 -0.162843,-0.444668 -0.02234,-0.110481 -0.0115,-0.172899 0.0101,-0.210739 0.02159,-0.03783 0.0642,-0.07251 0.164357,-0.10033 0.100148,-0.02781 0.250266,-0.04285 0.448195,-0.04285 h 5.220063 c 0.26737,0 0.565015,-0.105415 0.782959,-0.311066 0.228664,-0.210576 0.367532,-0.522147 0.367532,-0.819762 V 40.63291 c 0,-1.082859 -0.180378,-2.058408 -0.570202,-2.901435 l -0.002,-0.0015 c -0.377084,-0.840041 -0.950008,-1.524633 -1.689439,-1.992436 -0.74799,-0.473216 -1.641982,-0.697756 -2.630196,-0.697756 z m 0,2.527853 c 0.516676,0 0.899632,0.114414 1.227124,0.332745 a 0.13307617,0.13307617 0 0 0 0.002,0.0015 c 0.01121,0.0072 0.01131,0.0077 0.0061,0.004 a 0.13307617,0.13307617 0 0 0 0.004,0.002 c 0.345034,0.220438 0.590984,0.499792 0.778423,0.89438 0.06514,0.137156 0.103832,0.303002 0.131584,0.483488 a 0.13307617,0.13307617 0 0 0 0.0015,0.01513 c 0.0026,0.0098 -8.41e-4,0.09464 -0.03832,0.153265 -0.0376,0.05864 -0.08785,0.10184 -0.199142,0.10184 h -3.819004 c -0.162071,0 -0.237142,-0.112746 -0.220319,-0.251072 0.02593,-0.18817 0.06117,-0.361308 0.123521,-0.502645 a 0.13307617,0.13307617 0 0 0 0.004,-0.0035 c 0.188646,-0.39526 0.434547,-0.674181 0.767331,-0.892865 a 0.13307617,0.13307617 0 0 0 0.01159,-0.0096 c 0.325923,-0.215261 0.70662,-0.328711 1.219562,-0.328711 z" />
      <path
         style="font-weight:300;-inkscape-font-specification:'Rubik Light';fill:#21272c;fill-opacity:1;stroke-width:0.0729389"
         d="m 66.849649,35.229207 c -0.269615,0 -0.582922,0.09382 -0.809645,0.320537 -0.226735,0.226729 -0.32104,0.540035 -0.32104,0.809643 v 8.997177 c 0,0.269604 0.09429,0.582917 0.32104,0.809646 0.219014,0.219011 0.527033,0.324562 0.809645,0.324562 h 0.321039 c 0.282616,0 0.590631,-0.105546 0.809646,-0.324562 0.226411,-0.226412 0.322549,-0.539304 0.322549,-0.809646 v -8.997177 c 0,-0.270341 -0.09615,-0.58323 -0.322549,-0.809643 -0.226726,-0.226728 -0.540033,-0.320537 -0.809646,-0.320537 z"
         id="path1470" />
      <path
         style="font-weight:300;-inkscape-font-specification:'Rubik Light';fill:#21272c;fill-opacity:1;stroke-width:0.0729389"
         d="m 40.192065,34.757207 c -0.434902,0.0024 -0.717379,0.01432 -0.958592,0.268035 -0.204118,0.215588 -0.315003,0.644952 -0.315003,0.922531 v 9.408791 c 0,0.282616 0.105554,0.590635 0.324564,0.809646 0.219008,0.219003 0.527028,0.324562 0.809645,0.324562 h 0.299906 c 0.278284,0 0.569237,-0.113199 0.784484,-0.317015 0.228324,-0.210254 0.367338,-0.519577 0.367334,-0.817193 v -5.858228 c 0,-0.618692 0.155132,-0.989937 0.454388,-1.289192 0.300802,-0.300802 0.666327,-0.453885 1.285166,-0.453885 h 1.089237 c 0.14312,0 0.337389,-0.04002 0.495146,-0.09862 0.169263,-0.06288 0.349131,-0.144331 0.471496,-0.266695 0.226376,-0.226371 0.322551,-0.423285 0.322551,-0.678582 0,-0.106005 0.0027,-0.295542 0.0018,-0.396247 -0.0026,-0.282604 -0.105559,-0.590632 -0.324563,-0.809645 -0.122674,-0.122671 -0.295629,-0.20629 -0.471497,-0.266694 -0.175866,-0.06041 -0.352744,-0.0946 -0.495145,-0.0946 h -1.332784 c -0.667892,0 -1.08431,0.18707 -1.559914,0.633527 -10e-4,-0.0062 -10e-4,-0.0074 -0.002,-0.01359 -0.02978,-0.17306 -0.09099,-0.504635 -0.285815,-0.699181 -0.244274,-0.244012 -0.583696,-0.30986 -0.960605,-0.307717 z"
         id="path1464"
         sodipodi:nodetypes="ccsssssccssssasssssssccccc" />
      <path
         style="font-weight:300;-inkscape-font-specification:'Rubik Light';fill:#21272c;fill-opacity:1;stroke-width:0.0729389"
         d="m 66.597545,31.881935 c -0.256889,0.0079 -0.539798,0.135984 -0.723094,0.335632 -0.190229,0.201369 -0.285312,0.48057 -0.285312,0.71907 v 0.74423 c 3e-6,0.245531 0.09012,0.537984 0.292359,0.740203 0.202218,0.202221 0.495171,0.29286 0.740706,0.292862 h 0.74423 c 0.238501,2e-6 0.51717,-0.09511 0.718565,-0.285313 0.206069,-0.189202 0.336139,-0.484436 0.336136,-0.747752 v -0.74423 c 0,-0.256593 -0.128517,-0.539767 -0.325065,-0.729636 -0.189873,-0.196557 -0.473046,-0.325063 -0.729636,-0.325066 h -0.74423 c -0.0082,0 -0.01636,-2.52e-4 -0.02466,0 z"
         id="path1462" />
      <path
         style="font-weight:300;-inkscape-font-specification:'Rubik Light';fill:#21272c;fill-opacity:1;stroke-width:0.0729389"
         d="m 57.10133,31.635871 c -0.284916,-5.3e-5 -0.593078,0.112009 -0.806123,0.325066 -0.219004,0.21901 -0.324563,0.527026 -0.32456,0.809646 v 12.585981 c -3e-6,0.28262 0.105556,0.590635 0.32456,0.809646 0.213051,0.213047 0.52124,0.324562 0.806123,0.324562 h 0.320538 c 0.282617,0 0.590633,-0.105556 0.809645,-0.324562 0.219012,-0.219012 0.325067,-0.527031 0.325067,-0.809646 v -2.369558 c 0,-0.07858 0.09584,-0.0838 0.195239,0.0156 l 3.356833,2.985977 c 0.204355,0.181692 0.425975,0.335743 0.638054,0.430736 0.184285,0.08257 0.420204,0.180159 0.722591,0.158508 0.295766,-0.02117 0.711931,-0.126707 0.980232,-0.392495 0.210259,-0.208292 0.324565,-0.51553 0.32456,-0.792032 8e-6,-0.458508 -0.264863,-0.710299 -0.475521,-0.90475 -0.0037,-0.0027 -0.0076,-0.0053 -0.01156,-0.0076 l -0.002,-0.002 -4.41257,-3.935318 c -0.129837,-0.129837 -0.121402,-0.187221 0.0101,-0.318717 l 3.847953,-2.922069 c 0.157688,-0.119717 0.333673,-0.295612 0.444324,-0.500682 v -5.15e-4 -5.15e-4 -5.15e-4 -5.16e-4 -5.15e-4 -5.15e-4 -5.17e-4 -5.14e-4 c 0.216843,-0.430827 0.08757,-0.926716 -0.210839,-1.232834 v -5.16e-4 -5.15e-4 -5.15e-4 -5.17e-4 c -0.187393,-0.186503 -0.434357,-0.37589 -0.730142,-0.427214 -0.47851,-0.08303 -0.803145,0.04061 -1.097975,0.21084 -0.199061,0.114925 -0.384334,0.25064 -0.521816,0.357271 v -0.0015 l -2.751997,2.085252 c -5e-6,6.73e-4 -5e-6,0.0013 0,0.002 -0.242661,0.177119 -0.305432,0.03292 -0.305432,-0.13909 v -4.880132 c 0,-0.282624 -0.106085,-0.59064 -0.325067,-0.809646 -0.219025,-0.219025 -0.527066,-0.325013 -0.809646,-0.325066 z"
         id="path1460"
         sodipodi:nodetypes="csccsssssccccssccccccccsssssssccssscsscccccsccc" />
      <path
         style="font-weight:300;-inkscape-font-specification:'Rubik Light';fill:#21272c;fill-opacity:1;stroke-width:0.0729389"
         d="m 33.697295,31.635871 c -0.282614,0 -0.591138,0.106059 -0.810148,0.325066 -0.219014,0.219013 -0.324562,0.527033 -0.324562,0.809646 v 1.928358 c 0,0.491315 0.01705,0.530266 -0.755803,0.530266 -0.269617,0 -0.582922,0.09382 -0.809645,0.320537 -0.226724,0.226725 -0.32104,0.540028 -0.32104,0.809643 v 0.265187 c 0,0.269617 0.09432,0.582921 0.32104,0.809645 0.226728,0.226734 0.540035,0.32104 0.809645,0.32104 0.539712,0 0.755803,0.210373 0.755803,0.644214 v 4.218185 c 0,0.653325 0.08414,1.259632 0.260657,1.818558 0.191659,0.606928 0.553262,1.131037 1.053697,1.498019 0.534648,0.392078 1.214635,0.556537 1.973038,0.556537 h 1.115084 c 0.282618,0 0.591139,-0.105558 0.810151,-0.324562 0.226731,-0.226728 0.320536,-0.540038 0.320536,-0.809646 v -0.263172 c 3e-6,-0.269617 -0.0938,-0.582921 -0.320536,-0.809646 -0.219017,-0.219019 -0.527538,-0.324562 -0.810151,-0.324562 h -1.021993 c -0.354456,0 -0.480942,-0.09734 -0.623314,-0.343939 -0.121177,-0.219277 -0.171237,-0.491503 -0.171237,-1.074585 v -4.378845 c 0,-0.230832 0.245023,-0.406564 0.40489,-0.406564 h 1.224465 c 0.269616,0 0.58292,-0.09432 0.809646,-0.321041 0.226733,-0.226729 0.321039,-0.540033 0.321039,-0.809645 v -0.265186 c 0,-0.269619 -0.09432,-0.58292 -0.321039,-0.809644 -0.226726,-0.226728 -0.54003,-0.320537 -0.809646,-0.320537 H 35.77198 c -0.509452,0 -0.623463,-0.185813 -0.623463,-0.785211 v -1.673413 c 0,-0.282625 -0.105582,-0.590639 -0.32456,-0.809646 -0.213053,-0.213049 -0.52124,-0.325066 -0.806124,-0.325066 z"
         id="path39665"
         sodipodi:nodetypes="csscccsssccscsssssscsccsccssssssccsccc" />
      <path
         id="path1992"
         style="font-weight:300;-inkscape-font-specification:'Rubik Light';fill:#21272c;fill-opacity:1;stroke-width:0.0729388"
         d="m 74.010529,35.039708 c -0.922626,0 -1.771175,0.210806 -2.497101,0.64734 0.0035,-0.0019 -1.43e-4,-10e-4 -0.0096,0.004 a 0.13307617,0.13307617 0 0 0 -0.0061,0.0035 c -0.703476,0.434056 -1.262512,1.050771 -1.656165,1.808921 -0.390069,0.751254 -0.619122,1.609003 -0.688176,2.54802 a 0.13307617,0.13307617 0 0 0 0,0.0096 c -3e-6,0.0014 -3e-6,0.002 0,0.0035 -0.01432,0.220555 -0.01714,0.531537 -0.01714,0.794556 0,0.263041 0.0027,0.575454 0.01714,0.796066 -1.4e-5,0.0026 -1.2e-5,0.0033 0,0.0061 7.4e-5,0.001 -6.8e-5,0.0029 0,0.004 a 0.13307617,0.13307617 0 0 0 0,0.0056 c 0.110127,1.417829 0.574577,2.639026 1.408622,3.575495 a 0.13307617,0.13307617 0 0 0 0.004,0.0035 c 0.855227,0.945248 2.064419,1.428787 3.444416,1.428787 0.659799,0 1.271395,-0.09404 1.833627,-0.286363 a 0.13307617,0.13307617 0 0 0 0.0061,-0.0015 c 0.903107,-0.349021 1.731338,-0.813207 2.330728,-1.635493 a 0.13307617,0.13307617 0 0 0 0,-5.04e-4 0.13307617,0.13307617 0 0 0 0,-5.04e-4 0.13307617,0.13307617 0 0 0 0,-5.04e-4 0.13307617,0.13307617 0 0 0 0,-5.04e-4 c 0.210845,-0.297703 0.431562,-0.541138 0.431562,-1.021931 0,-0.319291 -0.128774,-0.666421 -0.381147,-0.879757 -0.193949,-0.163962 -0.449771,-0.342324 -0.769348,-0.342324 -0.330044,0 -0.633593,0.01562 -1.020416,0.379127 a 0.13307617,0.13307617 0 0 0 -0.0035,0.002 c -0.431757,0.433225 -0.846992,0.875522 -1.376354,1.076379 -0.336714,0.126057 -0.697574,0.204949 -1.043609,0.185531 -0.408671,-0.02292 -0.833131,-0.123012 -1.159567,-0.340307 -0.347011,-0.230993 -0.570632,-0.502222 -0.786486,-0.967986 -0.08561,-0.184725 -0.140501,-0.334189 -0.162844,-0.444668 -0.02234,-0.110481 -0.0115,-0.172899 0.0101,-0.210739 0.02159,-0.03783 0.0642,-0.07251 0.164356,-0.10033 0.100148,-0.02781 0.250267,-0.04285 0.448195,-0.04285 h 5.220064 c 0.267371,0 0.565015,-0.105415 0.782959,-0.311066 0.228663,-0.210576 0.367532,-0.522147 0.367532,-0.819762 V 40.63291 c 0,-1.082859 -0.180379,-2.058408 -0.570203,-2.901435 l -0.002,-0.0015 c -0.377082,-0.840041 -0.950008,-1.524633 -1.689439,-1.992436 -0.74799,-0.473216 -1.641981,-0.697756 -2.630196,-0.697756 z m 0,2.527853 c 0.516677,0 0.899633,0.114414 1.227124,0.332745 a 0.13307617,0.13307617 0 0 0 0.002,0.0015 c 0.01121,0.0072 0.01131,0.0077 0.0061,0.004 a 0.13307617,0.13307617 0 0 0 0.004,0.002 c 0.345033,0.220438 0.590984,0.499792 0.778422,0.89438 0.06514,0.137156 0.103832,0.303002 0.131585,0.483488 a 0.13307617,0.13307617 0 0 0 0.0015,0.01513 c 0.0026,0.0098 -8.41e-4,0.09464 -0.03832,0.153265 -0.0376,0.05864 -0.08785,0.10184 -0.199142,0.10184 h -3.819003 c -0.162072,0 -0.237141,-0.112746 -0.220318,-0.251072 0.02593,-0.18817 0.06117,-0.361308 0.123519,-0.502645 a 0.13307617,0.13307617 0 0 0 0.004,-0.0035 c 0.188646,-0.39526 0.434548,-0.674181 0.767331,-0.892865 a 0.13307617,0.13307617 0 0 0 0.01159,-0.0096 c 0.325922,-0.215261 0.706618,-0.328711 1.21956,-0.328711 z" />
    </g>
    <g
       id="g15323"
       transform="matrix(1.1152173,0,0,1.1152173,-1.3395452,-39.748139)"
       style="stroke-width:0;stroke-miterlimit:4;stroke-dasharray:none">
      <path
         fill="#ffcc4d"
         d="m 20.626056,47.563938 c 0,4.129594 -3.347795,7.47739 -7.477389,7.47739 -4.1295962,0 -7.4773892,-3.347796 -7.4773892,-7.47739 0,-4.129598 3.347793,-7.477393 7.4773892,-7.477393 4.129594,0 7.477389,3.347795 7.477389,7.477393"
         id="path29"
         style="fill:url(#linearGradient15457);fill-opacity:1;stroke:#ffffff;stroke-width:0;stroke-miterlimit:4;stroke-dasharray:none;stroke-opacity:1" />
      <path
         fill="#664500"
         d="m 13.148667,48.810169 c -1.505034,0 -2.503679,-0.175304 -3.7386946,-0.415409 -0.2820637,-0.05442 -0.8308217,0 -0.8308217,0.830818 0,1.661643 1.9088123,3.738695 4.5695163,3.738695 2.660287,0 4.569514,-2.077052 4.569514,-3.738695 0,-0.830818 -0.548757,-0.885656 -0.83082,-0.830818 -1.235017,0.240105 -2.233663,0.415409 -3.738694,0.415409 z"
         id="path31"
         style="fill:#3e270f;fill-opacity:1;stroke:none;stroke-width:0;stroke-miterlimit:4;stroke-dasharray:none" />
      <path
         fill="#ffffff"
         d="m 9.6878316,49.294649 c 0.4781174,0.118126 1.6134354,0.34634 3.4608354,0.34634 1.800338,0 2.950473,-0.216735 3.450404,-0.337104 0.162405,-0.04352 0.274015,0.04965 0.250078,0.188915 -0.09575,0.557039 -0.70307,1.884468 -3.644797,1.884468 -3.011866,0 -3.607589,-1.341279 -3.7518344,-1.879613 -0.03906,-0.145776 0.098748,-0.239598 0.235314,-0.203006 z"
         id="path33"
         style="stroke-width:0;stroke-miterlimit:4;stroke-dasharray:none"
         sodipodi:nodetypes="cscsssc" />
      <path
         fill="#e95f28"
         d="M 12.185746,41.469265 10.29895,41.802009 9.3268897,40.035266 C 9.2197177,39.840439 8.9995472,39.73617 8.7818714,39.774389 8.5629494,39.813019 8.3926313,39.986663 8.3585674,40.206 L 8.0490876,42.198726 6.1622923,42.53147 c -0.2222445,0.03905 -0.393809,0.218091 -0.4241333,0.441997 -0.030317,0.223906 0.087656,0.441581 0.2920335,0.538788 l 1.6907206,0.802574 -0.3107266,1.998956 c -0.03448,0.222658 0.07852,0.441996 0.2795701,0.543771 0.074358,0.0374 0.154117,0.05527 0.233461,0.05527 0.1358412,0 0.2700167,-0.05316 0.3701313,-0.154523 l 1.458922,-1.479278 1.8768231,0.891053 c 0.203552,0.09637 0.44615,0.05109 0.600684,-0.112997 0.154539,-0.164089 0.185272,-0.408764 0.07685,-0.606082 l -0.975377,-1.772987 1.31477,-1.332639 c 0.158692,-0.160765 0.194831,-0.405858 0.09015,-0.606086 -0.105505,-0.200228 -0.329422,-0.30865 -0.550419,-0.270017 z m 1.92584,0 1.886795,0.332744 0.972061,-1.766743 c 0.10717,-0.194827 0.327342,-0.299096 0.545019,-0.260877 0.218507,0.03863 0.388823,0.212274 0.422888,0.431611 l 0.30948,1.992726 1.886795,0.332744 c 0.22266,0.03905 0.394226,0.217675 0.424134,0.441581 0.02991,0.223908 -0.08766,0.441582 -0.292034,0.538787 l -1.69072,0.802575 0.310726,1.998955 c 0.03449,0.222662 -0.07852,0.441996 -0.27957,0.543775 -0.07436,0.03739 -0.154118,0.05528 -0.233461,0.05528 -0.135842,0 -0.270016,-0.05316 -0.37013,-0.154543 l -1.458924,-1.479279 -1.876826,0.891058 c -0.20355,0.09637 -0.446147,0.05109 -0.600681,-0.112998 -0.154541,-0.164091 -0.185273,-0.408769 -0.07686,-0.606088 l 0.975389,-1.772563 -1.314776,-1.332638 c -0.158686,-0.160764 -0.194826,-0.405857 -0.09014,-0.606085 0.105931,-0.200228 0.329837,-0.30865 0.550833,-0.270017 z"
         id="path35"
         style="fill:#009ae5;fill-opacity:1;stroke:#ffffff;stroke-width:0.608999;stroke-miterlimit:4;stroke-dasharray:none;stroke-opacity:1"
         sodipodi:nodetypes="ccccscccccccscccscccccccccccccsccccscccscccccc" />
    </g>
  </g>
</svg>
