<?xml version="1.0" encoding="UTF-8" standalone="no"?>
<!-- Created with Inkscape (http://www.inkscape.org/) -->

<svg
   width="802.49878"
   height="250.00005"
   viewBox="0 0 212.3278 66.145845"
   version="1.1"
   id="svg5"
   xml:space="preserve"
   xmlns:xlink="http://www.w3.org/1999/xlink"
   xmlns="http://www.w3.org/2000/svg"
   xmlns:svg="http://www.w3.org/2000/svg"><defs
     id="defs2"><linearGradient
       id="silverline"><stop
         style="stop-color:#8cbff2;stop-opacity:1;"
         offset="0.04451345"
         id="stop15058" /><stop
         style="stop-color:#ffffff;stop-opacity:1;"
         offset="0.50488615"
         id="stop15060" /></linearGradient><linearGradient
       id="dorkodu"><stop
         style="stop-color:#006644;stop-opacity:1;"
         offset="0.0001"
         id="stop15052" /><stop
         style="stop-color:#36e236;stop-opacity:1;"
         offset="0.99989998"
         id="stop15054" /></linearGradient><linearGradient
       id="linearGradient11766"><stop
         style="stop-color:#7db2e8;stop-opacity:1;"
         offset="0.04451345"
         id="stop11762" /><stop
         style="stop-color:#ffffff;stop-opacity:1;"
         offset="0.50488615"
         id="stop11764" /></linearGradient><style
       id="style6568">.cls-1{fill:none;}.cls-2{clip-path:url(#clip-path);}</style><style
       id="style6568-5">.cls-1{fill:none;}.cls-2{clip-path:url(#clip-path);}</style><style
       id="style6568-9">.cls-1{fill:none;}.cls-2{clip-path:url(#clip-path);}</style><style
       id="style22571">.cls-1{fill:#84d0f7;}.cls-2{fill:#aa392d;}.cls-3{fill:#7c211a;}.cls-4{fill:#e59973;}.cls-5{fill:#2d2d2d;}.cls-6{opacity:0.2;}.cls-7{opacity:0.3;}</style><style
       id="style23309">
      .cls-1 {
        fill: none;
      }
    </style><linearGradient
       xlink:href="#dorkodu"
       id="linearGradient7511"
       gradientUnits="userSpaceOnUse"
       gradientTransform="matrix(0.64519054,0,0,0.64519057,91.067156,228.65111)"
       x1="211.29193"
       y1="762.6239"
       x2="301.67172"
       y2="672.24414" /><linearGradient
       xlink:href="#linearGradient11766"
       id="linearGradient7519"
       x1="183.2226"
       y1="668.23676"
       x2="244.85902"
       y2="668.23676"
       gradientUnits="userSpaceOnUse" /><linearGradient
       xlink:href="#silverline"
       id="linearGradient9162"
       x1="216.42819"
       y1="675.01855"
       x2="216.42819"
       y2="661.53064"
       gradientUnits="userSpaceOnUse"
       gradientTransform="translate(224.53669,29.278843)" /><style
       id="style6568-7">.cls-1{fill:none;}.cls-2{clip-path:url(#clip-path);}</style><style
       id="style6568-5-5">.cls-1{fill:none;}.cls-2{clip-path:url(#clip-path);}</style><style
       id="style6568-9-3">.cls-1{fill:none;}.cls-2{clip-path:url(#clip-path);}</style><style
       id="style22571-5">.cls-1{fill:#84d0f7;}.cls-2{fill:#aa392d;}.cls-3{fill:#7c211a;}.cls-4{fill:#e59973;}.cls-5{fill:#2d2d2d;}.cls-6{opacity:0.2;}.cls-7{opacity:0.3;}</style><style
       id="style23309-6">
      .cls-1 {
        fill: none;
      }
    </style></defs><g
     id="layer1"
     transform="translate(-222.5827,-657.56561)"><g
       aria-label="Forum"
       transform="matrix(2.1594696,0,0,2.4745758,-578.73546,-1035.4653)"
       id="g7495"
       style="font-weight:900;font-size:19.1621px;font-family:Rubik;-inkscape-font-specification:'Rubik Heavy';letter-spacing:-0.538838px;fill:url(#linearGradient7519);fill-opacity:1;stroke-width:38.7921"><path
         id="path7485"
         style="fill:url(#linearGradient9162);fill-opacity:1"
         d="m 408.27668,690.71307 c -0.14052,0 -0.26178,0.0511 -0.36398,0.15328 -0.1022,0.1022 -0.15339,0.22347 -0.15339,0.36399 v 12.37879 c 0,0.14052 0.0512,0.26179 0.15339,0.36399 0.1022,0.1022 0.22346,0.15328 0.36398,0.15328 h 3.65988 c 0.14052,0 0.26201,-0.0511 0.36421,-0.15328 0.1022,-0.1022 0.15316,-0.22347 0.15316,-0.36399 v -3.60252 h 5.09712 c 0.14053,0 0.26202,-0.0511 0.36422,-0.15328 0.1022,-0.1022 0.15315,-0.22347 0.15315,-0.36399 v -2.89354 c 0,-0.14052 -0.051,-0.26179 -0.15315,-0.36399 -0.1022,-0.1022 -0.22369,-0.15349 -0.36422,-0.15349 h -5.09712 v -1.41795 h 5.48048 c 0.14052,0 0.26178,-0.0511 0.36398,-0.15328 0.10219,-0.1022 0.15339,-0.22347 0.15339,-0.36399 v -2.91276 c 0,-0.14052 -0.0512,-0.26179 -0.15339,-0.36399 -0.1022,-0.10219 -0.22346,-0.15328 -0.36398,-0.15328 z m 51.7736,3.2544 c -0.0461,4.7e-4 -0.0926,0.002 -0.13975,0.003 -0.62596,0.0256 -1.17541,0.18524 -1.64807,0.47906 -0.45989,0.28104 -0.79843,0.56843 -1.0156,0.86225 v -0.63233 c 0,-0.14052 -0.051,-0.26179 -0.15315,-0.36399 -0.1022,-0.1022 -0.22369,-0.15349 -0.36422,-0.15349 h -3.16165 c -0.14053,0 -0.26179,0.0513 -0.36398,0.15349 -0.1022,0.1022 -0.15339,0.22347 -0.15339,0.36399 v 8.92955 c 0,0.14052 0.0512,0.26179 0.15339,0.36399 0.10219,0.1022 0.22345,0.15328 0.36398,0.15328 h 3.44905 c 0.14052,0 0.26202,-0.0511 0.36422,-0.15328 0.10219,-0.1022 0.15315,-0.22347 0.15315,-0.36399 v -5.26961 c 0,-0.20439 0.0321,-0.37052 0.096,-0.49826 0.0639,-0.14053 0.15329,-0.24913 0.26826,-0.32578 0.11497,-0.0766 0.24896,-0.11485 0.40226,-0.11485 0.16607,0 0.30031,0.0382 0.40251,0.11485 0.11498,0.0639 0.20439,0.16625 0.26826,0.30677 0.0639,0.14052 0.0957,0.31288 0.0957,0.51727 v 5.26961 c 0,0.14052 0.0512,0.26179 0.15339,0.36399 0.10219,0.1022 0.22345,0.15328 0.36398,0.15328 h 3.37271 c 0.14052,0 0.26178,-0.0511 0.36398,-0.15328 0.10219,-0.1022 0.15339,-0.22347 0.15339,-0.36399 v -5.26961 c 0,-0.20439 0.0254,-0.37675 0.0766,-0.51727 0.0639,-0.14053 0.15328,-0.2429 0.26826,-0.30677 0.11497,-0.0766 0.2492,-0.11485 0.4025,-0.11485 0.16607,0 0.30007,0.0382 0.40227,0.11485 0.11498,0.0639 0.20439,0.16625 0.26825,0.30677 0.0639,0.14052 0.096,0.31288 0.096,0.51727 v 5.26961 c 0,0.14052 0.051,0.26179 0.15316,0.36399 0.10219,0.1022 0.22369,0.15328 0.36421,0.15328 h 3.37248 c 0.14052,0 0.26178,-0.0511 0.36398,-0.15328 0.10219,-0.1022 0.15339,-0.22347 0.15339,-0.36399 v -5.36546 c 0,-1.0092 -0.15972,-1.82673 -0.47908,-2.4527 -0.31937,-0.62596 -0.74732,-1.08592 -1.28385,-1.37974 -0.52377,-0.29382 -1.11143,-0.44063 -1.76294,-0.44063 -0.58764,0 -1.14958,0.15325 -1.68612,0.45985 -0.53654,0.29382 -0.95174,0.66427 -1.24556,1.11139 -0.49502,-1.06427 -1.45775,-1.58904 -2.88789,-1.57437 z m -35.50732,0.003 c -1.1114,0 -2.06944,0.15968 -2.87425,0.47906 -0.80481,0.31936 -1.4373,0.79843 -1.89718,1.43716 -0.4599,0.62597 -0.72176,1.41153 -0.78563,2.35685 -0.0128,0.28105 -0.0191,0.58132 -0.0191,0.90068 0,0.3066 0.006,0.60686 0.0191,0.90068 0.0639,0.93256 0.30663,1.71811 0.72819,2.35685 0.43434,0.63874 1.05409,1.1178 1.8589,1.43717 0.80481,0.31937 1.7947,0.47905 2.96997,0.47905 1.17527,0 2.1654,-0.15968 2.97021,-0.47905 0.80481,-0.31937 1.41794,-0.79843 1.83951,-1.43717 0.43435,-0.63874 0.68347,-1.42429 0.74734,-2.35685 0.0255,-0.29382 0.0383,-0.59408 0.0383,-0.90068 0,-0.31936 -0.0128,-0.61963 -0.0383,-0.90068 -0.0639,-0.94532 -0.32573,-1.73088 -0.78563,-2.35685 -0.45988,-0.63873 -1.09237,-1.1178 -1.89718,-1.43716 -0.80481,-0.31938 -1.76285,-0.47906 -2.87425,-0.47906 z m 6.99191,0.1915 c -0.14052,0 -0.26178,0.0513 -0.36398,0.15349 -0.1022,0.1022 -0.15339,0.22347 -0.15339,0.36399 v 8.92955 c 0,0.14052 0.0512,0.26179 0.15339,0.36399 0.1022,0.1022 0.22346,0.15328 0.36398,0.15328 h 3.64073 c 0.14052,0 0.26202,-0.0511 0.36422,-0.15328 0.1022,-0.1022 0.15315,-0.22347 0.15315,-0.36399 v -4.27307 c 0,-0.38324 0.0958,-0.67085 0.28741,-0.86247 0.19162,-0.19162 0.4792,-0.28735 0.86244,-0.28735 h 2.47174 c 0.14053,0 0.26203,-0.0511 0.36422,-0.15328 0.1022,-0.1022 0.15339,-0.22347 0.15339,-0.36399 v -2.98939 c 0,-0.14052 -0.0512,-0.26179 -0.15339,-0.36399 -0.10219,-0.1022 -0.22369,-0.15349 -0.36422,-0.15349 h -0.91963 c -0.57486,0 -1.11794,0.1086 -1.62893,0.32577 -0.49821,0.21718 -0.95163,0.50478 -1.36043,0.86247 v -0.67076 c 0,-0.14052 -0.051,-0.26179 -0.15315,-0.36399 -0.1022,-0.1022 -0.2237,-0.15349 -0.36422,-0.15349 z m 9.56081,0 c -0.14052,0 -0.26201,0.0513 -0.36421,0.15349 -0.1022,0.1022 -0.15316,0.22347 -0.15316,0.36399 v 5.28881 c 0,1.00921 0.17246,1.83319 0.51737,2.47192 0.3577,0.63874 0.81749,1.11136 1.37958,1.41795 0.57486,0.30659 1.18163,0.45984 1.82036,0.45984 0.67706,0 1.29681,-0.10216 1.8589,-0.30656 0.56208,-0.21717 1.00277,-0.56208 1.32214,-1.03475 v 0.63234 c 0,0.14052 0.051,0.26179 0.15315,0.36399 0.10219,0.1022 0.22369,0.15328 0.36422,0.15328 h 3.35333 c 0.14052,0 0.26178,-0.0511 0.36398,-0.15328 0.10219,-0.1022 0.15339,-0.22347 0.15339,-0.36399 v -8.92955 c 0,-0.14052 -0.0512,-0.26179 -0.15339,-0.36399 -0.1022,-0.1022 -0.22346,-0.15349 -0.36398,-0.15349 h -3.64073 c -0.14053,0 -0.26203,0.0513 -0.36422,0.15349 -0.1022,0.1022 -0.15315,0.22347 -0.15315,0.36399 v 5.15454 c 0,0.34491 -0.083,0.60677 -0.24912,0.78561 -0.16607,0.17885 -0.40245,0.26835 -0.70905,0.26835 -0.63873,0 -0.95816,-0.35136 -0.95816,-1.05396 v -5.15454 c 0,-0.14052 -0.0512,-0.26179 -0.15339,-0.36399 -0.10219,-0.1022 -0.22345,-0.15349 -0.36398,-0.15349 z m -16.55272,2.87433 c 0.37047,0 0.60048,0.11504 0.68991,0.34498 0.0894,0.21717 0.147,0.53655 0.17253,0.95811 0.0128,0.19162 0.0191,0.45991 0.0191,0.80483 0,0.34492 -0.006,0.61321 -0.0191,0.80483 -0.0255,0.44711 -0.0831,0.77915 -0.17253,0.99633 -0.0894,0.20439 -0.31944,0.30677 -0.68991,0.30677 -0.35769,0 -0.58771,-0.10238 -0.68991,-0.30677 -0.0894,-0.21718 -0.14676,-0.54922 -0.17229,-0.99633 -0.0128,-0.19162 -0.0191,-0.45991 -0.0191,-0.80483 0,-0.34492 0.006,-0.61321 0.0191,-0.80483 0.0255,-0.42156 0.0829,-0.74094 0.17229,-0.95811 0.1022,-0.22994 0.33222,-0.34498 0.68991,-0.34498 z" /></g><rect
       style="fill:url(#linearGradient7511);fill-opacity:1;stroke-width:4.14696"
       id="rect7497"
       width="66.145836"
       height="66.145836"
       x="222.5827"
       y="657.56561"
       rx="13.229167"
       ry="13.229167" /><path
       d="m 281.4665,681.27571 v 12.56803 c 0,0.80047 -0.0401,1.60096 -0.12012,2.36153 -0.72045,8.48538 -5.72362,12.72814 -14.92955,12.72814 h -1.24079 c -0.80048,0 -1.56099,0.36019 -2.00125,1.00065 l -3.76246,5.04316 c -1.68105,2.24145 -4.36273,2.24145 -6.04387,0 l -3.76237,-5.04316 c -0.40025,-0.52036 -1.32077,-1.00065 -2.00125,-1.00065 h -1.2408 c -10.0464,0 -15.04962,-2.48163 -15.04962,-15.04978 v -12.56792 c 0,-9.20584 4.24263,-14.20899 12.72806,-14.92937 0.76048,-0.0801 1.561,-0.12018 2.3615,-0.12018 h 20.13291 c 9.88633,-0.0401 14.92956,5.00324 14.92956,15.00955 z"
       fill="#292d32"
       id="path7499"
       style="fill:#fefeff;fill-opacity:0.5;stroke-width:4.00254" /><g
       style="fill:#c2d3d6;fill-opacity:1"
       id="g7509"
       transform="matrix(0.03190323,0,0,0.03190323,242.3028,672.55196)"><g
         id="g7507"
         style="fill:#c2d3d6;fill-opacity:1">
	<g
   id="g7505"
   style="fill:#c2d3d6;fill-opacity:1"
   transform="translate(-15.400024,-34.743674)">
		
		<path
   d="m 900.40846,846.60929 h -35.71137 v -38.92021 c 0,-17.18286 -13.87049,-31.05336 -31.05336,-31.05336 H 792.6533 V 329.05333 H 674.02845 V 776.63572 H 521.76452 V 329.05333 H 411.21457 V 776.63572 H 258.94961 V 329.05333 H 140.32578 V 776.63572 H 99.335348 c -17.182858,0 -31.053357,13.8705 -31.053357,31.05336 v 38.92021 H 32.57063 c -17.182858,0 -31.0533566,13.8705 -31.0533566,31.05336 v 42.23256 c 0,17.18286 13.8704986,31.05336 31.0533566,31.05336 h 867.83783 c 17.18285,0 31.05335,-13.8705 31.05335,-31.05336 v -42.23256 c 0,-17.18286 -13.8705,-31.05336 -31.05335,-31.05336 z"
   id="path7501"
   style="fill:#ffffff;fill-opacity:1;stroke-width:1.03511" />
	<path
   d="m 11.338589,259.94053 h 36.359822 v 40.93202 c 0,18.07104 14.587474,32.65851 32.658524,32.65851 H 466.48954 852.62215 c 18.07104,0 32.65852,-14.58747 32.65852,-32.65851 v -40.93202 h 36.35983 c 18.07105,0 32.65852,-14.58747 32.65852,-32.65853 v -52.79796 c 0,-14.36974 -9.47206,-27.10657 -23.18864,-31.24332 L 480.64047,7.3813072 c -4.5711,-1.415203 -9.36101,-2.068374 -14.15093,-2.068374 -4.78883,0 -9.47098,0.653171 -14.15203,2.068374 L 1.8676174,143.24072 C -11.957825,147.37747 -21.319934,160.1143 -21.319934,174.48404 V 227.282 c 0,17.96219 14.5874741,32.65853 32.658523,32.65853 z"
   id="path7503"
   style="fill:#ffffff;fill-opacity:1;stroke-width:1.08862" /></g>
</g></g></g><style
     type="text/css"
     id="style1941">
	.st0{fill:none;stroke:#000000;stroke-width:2;stroke-linecap:round;stroke-linejoin:round;stroke-miterlimit:10;}
</style><style
     type="text/css"
     id="style1941-0">
	.st0{fill:none;stroke:#000000;stroke-width:2;stroke-linecap:round;stroke-linejoin:round;stroke-miterlimit:10;}
</style><style
     type="text/css"
     id="style1941-7">
	.st0{fill:none;stroke:#000000;stroke-width:2;stroke-linecap:round;stroke-linejoin:round;stroke-miterlimit:10;}
</style><style
     type="text/css"
     id="style22485">
	.st0{fill:none;stroke:#6C3DB7;stroke-width:4;stroke-linecap:round;stroke-linejoin:round;stroke-miterlimit:10;}
	.st1{fill:none;stroke:#1F992A;stroke-width:4;stroke-linecap:round;stroke-linejoin:round;stroke-miterlimit:10;}
	.st2{fill:none;stroke:#6A83BA;stroke-width:4;stroke-linecap:round;stroke-linejoin:round;stroke-miterlimit:10;}
	.st3{fill:#8A8AFF;stroke:#8A8AFF;stroke-width:2;stroke-linecap:round;stroke-linejoin:round;stroke-miterlimit:10;}
	.st4{fill:#6C3DB7;stroke:#6C3DB7;stroke-width:2;stroke-linecap:round;stroke-linejoin:round;stroke-miterlimit:10;}
	.st5{fill:#A576FF;stroke:#A576FF;stroke-width:2;stroke-linecap:round;stroke-linejoin:round;stroke-miterlimit:10;}
	.st6{fill:#F2BB41;stroke:#F2BB41;stroke-width:2;stroke-linecap:round;stroke-linejoin:round;stroke-miterlimit:10;}
	.st7{fill:#E08838;stroke:#E08838;stroke-width:2;stroke-linecap:round;stroke-linejoin:round;stroke-miterlimit:10;}
	.st8{fill:#1F992A;stroke:#1F992A;stroke-width:2;stroke-linecap:round;stroke-linejoin:round;stroke-miterlimit:10;}
	.st9{fill:#5EC11E;stroke:#5EC11E;stroke-width:2;stroke-linecap:round;stroke-linejoin:round;stroke-miterlimit:10;}
	.st10{fill:#E3FAFF;stroke:#E3FAFF;stroke-width:2;stroke-linecap:round;stroke-linejoin:round;stroke-miterlimit:10;}
	.st11{fill:#FF5093;stroke:#FF5093;stroke-width:2;stroke-linecap:round;stroke-linejoin:round;stroke-miterlimit:10;}
	.st12{fill:#B7257F;stroke:#B7257F;stroke-width:2;stroke-linecap:round;stroke-linejoin:round;stroke-miterlimit:10;}
	.st13{fill:#5189E5;stroke:#5189E5;stroke-width:2;stroke-linecap:round;stroke-linejoin:round;stroke-miterlimit:10;}
	.st14{fill:#6EBAFF;stroke:#6EBAFF;stroke-width:2;stroke-linecap:round;stroke-linejoin:round;stroke-miterlimit:10;}
	.st15{fill:#EDD977;stroke:#EDD977;stroke-width:2;stroke-linecap:round;stroke-linejoin:round;stroke-miterlimit:10;}
	.st16{fill:#8C43FF;stroke:#8C43FF;stroke-width:2;stroke-linecap:round;stroke-linejoin:round;stroke-miterlimit:10;}
	.st17{fill:#5252BA;stroke:#5252BA;stroke-width:2;stroke-linecap:round;stroke-linejoin:round;stroke-miterlimit:10;}
	.st18{fill:none;stroke:#E3FAFF;stroke-width:4;stroke-linecap:round;stroke-linejoin:round;stroke-miterlimit:10;}
	.st19{fill:#354C75;stroke:#354C75;stroke-width:2;stroke-linecap:round;stroke-linejoin:round;stroke-miterlimit:10;}
</style><style
     type="text/css"
     id="style23106">
	.st0{fill:none;stroke:#000000;stroke-width:2;stroke-linecap:round;stroke-linejoin:round;stroke-miterlimit:10;}
	.st1{fill:none;stroke:#000000;stroke-width:2;stroke-linejoin:round;stroke-miterlimit:10;}
</style><style
     type="text/css"
     id="style1941-1">
	.st0{fill:none;stroke:#000000;stroke-width:2;stroke-linecap:round;stroke-linejoin:round;stroke-miterlimit:10;}
</style><style
     type="text/css"
     id="style1941-0-8">
	.st0{fill:none;stroke:#000000;stroke-width:2;stroke-linecap:round;stroke-linejoin:round;stroke-miterlimit:10;}
</style><style
     type="text/css"
     id="style1941-7-7">
	.st0{fill:none;stroke:#000000;stroke-width:2;stroke-linecap:round;stroke-linejoin:round;stroke-miterlimit:10;}
</style><style
     type="text/css"
     id="style22485-9">
	.st0{fill:none;stroke:#6C3DB7;stroke-width:4;stroke-linecap:round;stroke-linejoin:round;stroke-miterlimit:10;}
	.st1{fill:none;stroke:#1F992A;stroke-width:4;stroke-linecap:round;stroke-linejoin:round;stroke-miterlimit:10;}
	.st2{fill:none;stroke:#6A83BA;stroke-width:4;stroke-linecap:round;stroke-linejoin:round;stroke-miterlimit:10;}
	.st3{fill:#8A8AFF;stroke:#8A8AFF;stroke-width:2;stroke-linecap:round;stroke-linejoin:round;stroke-miterlimit:10;}
	.st4{fill:#6C3DB7;stroke:#6C3DB7;stroke-width:2;stroke-linecap:round;stroke-linejoin:round;stroke-miterlimit:10;}
	.st5{fill:#A576FF;stroke:#A576FF;stroke-width:2;stroke-linecap:round;stroke-linejoin:round;stroke-miterlimit:10;}
	.st6{fill:#F2BB41;stroke:#F2BB41;stroke-width:2;stroke-linecap:round;stroke-linejoin:round;stroke-miterlimit:10;}
	.st7{fill:#E08838;stroke:#E08838;stroke-width:2;stroke-linecap:round;stroke-linejoin:round;stroke-miterlimit:10;}
	.st8{fill:#1F992A;stroke:#1F992A;stroke-width:2;stroke-linecap:round;stroke-linejoin:round;stroke-miterlimit:10;}
	.st9{fill:#5EC11E;stroke:#5EC11E;stroke-width:2;stroke-linecap:round;stroke-linejoin:round;stroke-miterlimit:10;}
	.st10{fill:#E3FAFF;stroke:#E3FAFF;stroke-width:2;stroke-linecap:round;stroke-linejoin:round;stroke-miterlimit:10;}
	.st11{fill:#FF5093;stroke:#FF5093;stroke-width:2;stroke-linecap:round;stroke-linejoin:round;stroke-miterlimit:10;}
	.st12{fill:#B7257F;stroke:#B7257F;stroke-width:2;stroke-linecap:round;stroke-linejoin:round;stroke-miterlimit:10;}
	.st13{fill:#5189E5;stroke:#5189E5;stroke-width:2;stroke-linecap:round;stroke-linejoin:round;stroke-miterlimit:10;}
	.st14{fill:#6EBAFF;stroke:#6EBAFF;stroke-width:2;stroke-linecap:round;stroke-linejoin:round;stroke-miterlimit:10;}
	.st15{fill:#EDD977;stroke:#EDD977;stroke-width:2;stroke-linecap:round;stroke-linejoin:round;stroke-miterlimit:10;}
	.st16{fill:#8C43FF;stroke:#8C43FF;stroke-width:2;stroke-linecap:round;stroke-linejoin:round;stroke-miterlimit:10;}
	.st17{fill:#5252BA;stroke:#5252BA;stroke-width:2;stroke-linecap:round;stroke-linejoin:round;stroke-miterlimit:10;}
	.st18{fill:none;stroke:#E3FAFF;stroke-width:4;stroke-linecap:round;stroke-linejoin:round;stroke-miterlimit:10;}
	.st19{fill:#354C75;stroke:#354C75;stroke-width:2;stroke-linecap:round;stroke-linejoin:round;stroke-miterlimit:10;}
</style><style
     type="text/css"
     id="style23106-2">
	.st0{fill:none;stroke:#000000;stroke-width:2;stroke-linecap:round;stroke-linejoin:round;stroke-miterlimit:10;}
	.st1{fill:none;stroke:#000000;stroke-width:2;stroke-linejoin:round;stroke-miterlimit:10;}
</style></svg>
