<?xml version="1.0" encoding="UTF-8" standalone="no"?>
<!-- Created with Inkscape (http://www.inkscape.org/) -->

<svg
   width="802.49805"
   height="250.00005"
   viewBox="0 0 212.32761 66.145845"
   version="1.1"
   id="svg5"
   xml:space="preserve"
   xmlns:xlink="http://www.w3.org/1999/xlink"
   xmlns="http://www.w3.org/2000/svg"
   xmlns:svg="http://www.w3.org/2000/svg"><defs
     id="defs2"><linearGradient
       id="dorkodu"><stop
         style="stop-color:#006644;stop-opacity:1;"
         offset="0.0001"
         id="stop15052" /><stop
         style="stop-color:#36e236;stop-opacity:1;"
         offset="0.99989998"
         id="stop15054" /></linearGradient><style
       id="style6568">.cls-1{fill:none;}.cls-2{clip-path:url(#clip-path);}</style><style
       id="style6568-5">.cls-1{fill:none;}.cls-2{clip-path:url(#clip-path);}</style><style
       id="style6568-9">.cls-1{fill:none;}.cls-2{clip-path:url(#clip-path);}</style><style
       id="style22571">.cls-1{fill:#84d0f7;}.cls-2{fill:#aa392d;}.cls-3{fill:#7c211a;}.cls-4{fill:#e59973;}.cls-5{fill:#2d2d2d;}.cls-6{opacity:0.2;}.cls-7{opacity:0.3;}</style><style
       id="style23309">
      .cls-1 {
        fill: none;
      }
    </style><linearGradient
       xlink:href="#dorkodu"
       id="linearGradient7384"
       gradientUnits="userSpaceOnUse"
       gradientTransform="matrix(0.64519054,0,0,0.64519057,88.661822,129.72468)"
       x1="211.29193"
       y1="762.6239"
       x2="301.67172"
       y2="672.24414" /><style
       id="style6568-7">.cls-1{fill:none;}.cls-2{clip-path:url(#clip-path);}</style><style
       id="style6568-5-5">.cls-1{fill:none;}.cls-2{clip-path:url(#clip-path);}</style><style
       id="style6568-9-3">.cls-1{fill:none;}.cls-2{clip-path:url(#clip-path);}</style><style
       id="style22571-5">.cls-1{fill:#84d0f7;}.cls-2{fill:#aa392d;}.cls-3{fill:#7c211a;}.cls-4{fill:#e59973;}.cls-5{fill:#2d2d2d;}.cls-6{opacity:0.2;}.cls-7{opacity:0.3;}</style><style
       id="style23309-6">
      .cls-1 {
        fill: none;
      }
    </style></defs><g
     id="layer1"
     transform="translate(-220.1774,-558.63916)"><g
       aria-label="Forum"
       transform="matrix(2.1594696,0,0,2.4745758,-96.260624,-1061.9391)"
       id="text57063"
       style="font-weight:900;font-size:19.1621px;font-family:Rubik;-inkscape-font-specification:'Rubik Heavy';letter-spacing:-0.538838px;fill:#141a1f;stroke-width:38.7921"><path
         d="m 183.73998,674.84766 q -0.21078,0 -0.36408,-0.1533 -0.1533,-0.1533 -0.1533,-0.36408 v -12.37872 q 0,-0.21078 0.1533,-0.36408 0.1533,-0.15329 0.36408,-0.15329 h 9.6577 q 0.21078,0 0.36408,0.15329 0.15329,0.1533 0.15329,0.36408 v 2.91264 q 0,0.21079 -0.15329,0.36408 -0.1533,0.1533 -0.36408,0.1533 h -5.48036 v 1.41799 h 5.09711 q 0.21079,0 0.36408,0.1533 0.1533,0.1533 0.1533,0.36408 v 2.89348 q 0,0.21078 -0.1533,0.36408 -0.15329,0.15329 -0.36408,0.15329 h -5.09711 v 3.60248 q 0,0.21078 -0.1533,0.36408 -0.1533,0.1533 -0.36408,0.1533 z"
         id="path68220" /><path
         d="m 200.00631,675.03928 q -1.76291,0 -2.97013,-0.47906 -1.20721,-0.47905 -1.85872,-1.43715 -0.63235,-0.95811 -0.72816,-2.35694 -0.0192,-0.44073 -0.0192,-0.90062 0,-0.47905 0.0192,-0.90062 0.0958,-1.41799 0.78565,-2.35694 0.68983,-0.9581 1.89705,-1.43715 1.20721,-0.47906 2.87431,-0.47906 1.6671,0 2.87432,0.47906 1.20721,0.47905 1.89704,1.43715 0.68984,0.93895 0.78565,2.35694 0.0383,0.42157 0.0383,0.90062 0,0.45989 -0.0383,0.90062 -0.0958,1.39883 -0.74732,2.35694 -0.63235,0.9581 -1.83956,1.43715 -1.20722,0.47906 -2.97013,0.47906 z m 0,-3.06594 q 0.5557,0 0.68984,-0.30659 0.13413,-0.32576 0.17245,-0.99643 0.0192,-0.28743 0.0192,-0.80481 0,-0.51738 -0.0192,-0.80481 -0.0383,-0.63235 -0.17245,-0.9581 -0.13414,-0.34492 -0.68984,-0.34492 -0.53654,0 -0.68984,0.34492 -0.13413,0.32575 -0.17245,0.9581 -0.0192,0.28743 -0.0192,0.80481 0,0.51738 0.0192,0.80481 0.0383,0.67067 0.17245,0.99643 0.1533,0.30659 0.68984,0.30659 z"
         id="path68222" /><path
         d="m 206.99818,674.84766 q -0.21078,0 -0.36408,-0.1533 -0.1533,-0.1533 -0.1533,-0.36408 v -8.92954 q 0,-0.21078 0.1533,-0.36408 0.1533,-0.1533 0.36408,-0.1533 h 3.35337 q 0.21078,0 0.36408,0.1533 0.15329,0.1533 0.15329,0.36408 v 0.67067 q 0.61319,-0.53653 1.36051,-0.86229 0.76649,-0.32576 1.62878,-0.32576 h 0.91978 q 0.21079,0 0.36408,0.1533 0.1533,0.1533 0.1533,0.36408 v 2.98929 q 0,0.21078 -0.1533,0.36408 -0.15329,0.1533 -0.36408,0.1533 h -2.47191 q -0.57486,0 -0.86229,0.28743 -0.28743,0.28743 -0.28743,0.86229 v 4.27315 q 0,0.21078 -0.1533,0.36408 -0.1533,0.1533 -0.36408,0.1533 z"
         style="letter-spacing:-0.269418px"
         id="path68224" /><path
         d="m 219.75898,675.03928 q -0.9581,0 -1.8204,-0.45989 -0.84313,-0.45989 -1.37967,-1.418 -0.51737,-0.9581 -0.51737,-2.47191 v -5.28874 q 0,-0.21078 0.15329,-0.36408 0.1533,-0.1533 0.36408,-0.1533 h 3.65996 q 0.21079,0 0.36408,0.1533 0.1533,0.1533 0.1533,0.36408 v 5.15461 q 0,1.05391 0.9581,1.05391 0.45989,0 0.709,-0.26827 0.24911,-0.26827 0.24911,-0.78564 v -5.15461 q 0,-0.21078 0.1533,-0.36408 0.15329,-0.1533 0.36408,-0.1533 h 3.6408 q 0.21078,0 0.36408,0.1533 0.15329,0.1533 0.15329,0.36408 v 8.92954 q 0,0.21078 -0.15329,0.36408 -0.1533,0.1533 -0.36408,0.1533 h -3.35337 q -0.21079,0 -0.36408,-0.1533 -0.1533,-0.1533 -0.1533,-0.36408 v -0.63235 q -0.47905,0.709 -1.32218,1.03475 -0.84314,0.3066 -1.85873,0.3066 z"
         id="path68226" /><path
         d="m 229.03114,674.84766 q -0.21079,0 -0.36408,-0.1533 -0.1533,-0.1533 -0.1533,-0.36408 v -8.92954 q 0,-0.21078 0.1533,-0.36408 0.15329,-0.1533 0.36408,-0.1533 h 3.16174 q 0.21079,0 0.36408,0.1533 0.1533,0.1533 0.1533,0.36408 v 0.63235 q 0.32576,-0.44073 1.01559,-0.86229 0.709,-0.44073 1.64794,-0.47906 2.26113,-0.0766 3.02761,1.5713 0.44073,-0.67068 1.24554,-1.11141 0.80481,-0.45989 1.68627,-0.45989 0.97726,0 1.76291,0.44073 0.80481,0.44073 1.28386,1.37967 0.47905,0.93895 0.47905,2.45275 v 5.36539 q 0,0.21078 -0.15329,0.36408 -0.1533,0.1533 -0.36408,0.1533 h -3.37253 q -0.21079,0 -0.36408,-0.1533 -0.1533,-0.1533 -0.1533,-0.36408 v -5.26958 q 0,-0.30659 -0.0958,-0.51737 -0.0958,-0.21079 -0.26827,-0.3066 -0.1533,-0.11497 -0.4024,-0.11497 -0.22995,0 -0.40241,0.11497 -0.17246,0.0958 -0.26827,0.3066 -0.0767,0.21078 -0.0767,0.51737 v 5.26958 q 0,0.21078 -0.15329,0.36408 -0.1533,0.1533 -0.36408,0.1533 H 235.048 q -0.21079,0 -0.36408,-0.1533 -0.1533,-0.1533 -0.1533,-0.36408 v -5.26958 q 0,-0.30659 -0.0958,-0.51737 -0.0958,-0.21079 -0.26827,-0.3066 -0.1533,-0.11497 -0.4024,-0.11497 -0.22995,0 -0.40241,0.11497 -0.17246,0.11497 -0.26827,0.32576 -0.0958,0.19162 -0.0958,0.49821 v 5.26958 q 0,0.21078 -0.15329,0.36408 -0.1533,0.1533 -0.36408,0.1533 z"
         id="path68228" /></g><rect
       style="fill:url(#linearGradient7384);fill-opacity:1;stroke-width:4.14696"
       id="rect7370"
       width="66.145836"
       height="66.145836"
       x="220.1774"
       y="558.63916"
       rx="13.229167"
       ry="13.229167" /><path
       d="m 278.57521,581.8309 v 12.56803 c 0,0.80047 -0.0401,1.60096 -0.12012,2.36153 -0.72045,8.48538 -5.72363,12.72814 -14.92956,12.72814 h -1.24079 c -0.80048,0 -1.56099,0.36019 -2.00125,1.00065 l -3.76246,5.04316 c -1.68105,2.24145 -4.36273,2.24145 -6.04387,0 l -3.76237,-5.04316 c -0.40025,-0.52036 -1.32077,-1.00065 -2.00125,-1.00065 h -1.2408 c -10.0464,0 -15.04962,-2.48163 -15.04962,-15.04978 V 581.8709 c 0,-9.20584 4.24263,-14.20899 12.72806,-14.92937 0.76048,-0.0801 1.561,-0.12018 2.3615,-0.12018 h 20.13291 c 9.88633,-0.0401 14.92957,5.00324 14.92957,15.00955 z"
       fill="#292d32"
       id="path7372"
       style="fill:#fefeff;fill-opacity:0.5;stroke-width:4.00254" /><g
       style="fill:#c2d3d6;fill-opacity:1"
       id="g7382"
       transform="matrix(0.03190323,0,0,0.03190323,239.4115,573.10715)"><g
         id="g7380"
         style="fill:#c2d3d6;fill-opacity:1">
	<g
   id="g7378"
   style="fill:#c2d3d6;fill-opacity:1"
   transform="translate(-15.400024,-34.743674)">
		
		<path
   d="m 900.40846,846.60929 h -35.71137 v -38.92021 c 0,-17.18286 -13.87049,-31.05336 -31.05336,-31.05336 H 792.6533 V 329.05333 H 674.02845 V 776.63572 H 521.76452 V 329.05333 H 411.21457 V 776.63572 H 258.94961 V 329.05333 H 140.32578 V 776.63572 H 99.335348 c -17.182858,0 -31.053357,13.8705 -31.053357,31.05336 v 38.92021 H 32.57063 c -17.182858,0 -31.0533566,13.8705 -31.0533566,31.05336 v 42.23256 c 0,17.18286 13.8704986,31.05336 31.0533566,31.05336 h 867.83783 c 17.18285,0 31.05335,-13.8705 31.05335,-31.05336 v -42.23256 c 0,-17.18286 -13.8705,-31.05336 -31.05335,-31.05336 z"
   id="path7374"
   style="fill:#ffffff;fill-opacity:1;stroke-width:1.03511" />
	<path
   d="m 11.338589,259.94053 h 36.359822 v 40.93202 c 0,18.07104 14.587474,32.65851 32.658524,32.65851 H 466.48954 852.62215 c 18.07104,0 32.65852,-14.58747 32.65852,-32.65851 v -40.93202 h 36.35983 c 18.07105,0 32.65852,-14.58747 32.65852,-32.65853 v -52.79796 c 0,-14.36974 -9.47206,-27.10657 -23.18864,-31.24332 L 480.64047,7.3813072 c -4.5711,-1.415203 -9.36101,-2.068374 -14.15093,-2.068374 -4.78883,0 -9.47098,0.653171 -14.15203,2.068374 L 1.8676174,143.24072 C -11.957825,147.37747 -21.319934,160.1143 -21.319934,174.48404 V 227.282 c 0,17.96219 14.5874741,32.65853 32.658523,32.65853 z"
   id="path7376"
   style="fill:#ffffff;fill-opacity:1;stroke-width:1.08862" /></g>
</g></g></g><style
     type="text/css"
     id="style1941">
	.st0{fill:none;stroke:#000000;stroke-width:2;stroke-linecap:round;stroke-linejoin:round;stroke-miterlimit:10;}
</style><style
     type="text/css"
     id="style1941-0">
	.st0{fill:none;stroke:#000000;stroke-width:2;stroke-linecap:round;stroke-linejoin:round;stroke-miterlimit:10;}
</style><style
     type="text/css"
     id="style1941-7">
	.st0{fill:none;stroke:#000000;stroke-width:2;stroke-linecap:round;stroke-linejoin:round;stroke-miterlimit:10;}
</style><style
     type="text/css"
     id="style22485">
	.st0{fill:none;stroke:#6C3DB7;stroke-width:4;stroke-linecap:round;stroke-linejoin:round;stroke-miterlimit:10;}
	.st1{fill:none;stroke:#1F992A;stroke-width:4;stroke-linecap:round;stroke-linejoin:round;stroke-miterlimit:10;}
	.st2{fill:none;stroke:#6A83BA;stroke-width:4;stroke-linecap:round;stroke-linejoin:round;stroke-miterlimit:10;}
	.st3{fill:#8A8AFF;stroke:#8A8AFF;stroke-width:2;stroke-linecap:round;stroke-linejoin:round;stroke-miterlimit:10;}
	.st4{fill:#6C3DB7;stroke:#6C3DB7;stroke-width:2;stroke-linecap:round;stroke-linejoin:round;stroke-miterlimit:10;}
	.st5{fill:#A576FF;stroke:#A576FF;stroke-width:2;stroke-linecap:round;stroke-linejoin:round;stroke-miterlimit:10;}
	.st6{fill:#F2BB41;stroke:#F2BB41;stroke-width:2;stroke-linecap:round;stroke-linejoin:round;stroke-miterlimit:10;}
	.st7{fill:#E08838;stroke:#E08838;stroke-width:2;stroke-linecap:round;stroke-linejoin:round;stroke-miterlimit:10;}
	.st8{fill:#1F992A;stroke:#1F992A;stroke-width:2;stroke-linecap:round;stroke-linejoin:round;stroke-miterlimit:10;}
	.st9{fill:#5EC11E;stroke:#5EC11E;stroke-width:2;stroke-linecap:round;stroke-linejoin:round;stroke-miterlimit:10;}
	.st10{fill:#E3FAFF;stroke:#E3FAFF;stroke-width:2;stroke-linecap:round;stroke-linejoin:round;stroke-miterlimit:10;}
	.st11{fill:#FF5093;stroke:#FF5093;stroke-width:2;stroke-linecap:round;stroke-linejoin:round;stroke-miterlimit:10;}
	.st12{fill:#B7257F;stroke:#B7257F;stroke-width:2;stroke-linecap:round;stroke-linejoin:round;stroke-miterlimit:10;}
	.st13{fill:#5189E5;stroke:#5189E5;stroke-width:2;stroke-linecap:round;stroke-linejoin:round;stroke-miterlimit:10;}
	.st14{fill:#6EBAFF;stroke:#6EBAFF;stroke-width:2;stroke-linecap:round;stroke-linejoin:round;stroke-miterlimit:10;}
	.st15{fill:#EDD977;stroke:#EDD977;stroke-width:2;stroke-linecap:round;stroke-linejoin:round;stroke-miterlimit:10;}
	.st16{fill:#8C43FF;stroke:#8C43FF;stroke-width:2;stroke-linecap:round;stroke-linejoin:round;stroke-miterlimit:10;}
	.st17{fill:#5252BA;stroke:#5252BA;stroke-width:2;stroke-linecap:round;stroke-linejoin:round;stroke-miterlimit:10;}
	.st18{fill:none;stroke:#E3FAFF;stroke-width:4;stroke-linecap:round;stroke-linejoin:round;stroke-miterlimit:10;}
	.st19{fill:#354C75;stroke:#354C75;stroke-width:2;stroke-linecap:round;stroke-linejoin:round;stroke-miterlimit:10;}
</style><style
     type="text/css"
     id="style23106">
	.st0{fill:none;stroke:#000000;stroke-width:2;stroke-linecap:round;stroke-linejoin:round;stroke-miterlimit:10;}
	.st1{fill:none;stroke:#000000;stroke-width:2;stroke-linejoin:round;stroke-miterlimit:10;}
</style><style
     type="text/css"
     id="style1941-1">
	.st0{fill:none;stroke:#000000;stroke-width:2;stroke-linecap:round;stroke-linejoin:round;stroke-miterlimit:10;}
</style><style
     type="text/css"
     id="style1941-0-8">
	.st0{fill:none;stroke:#000000;stroke-width:2;stroke-linecap:round;stroke-linejoin:round;stroke-miterlimit:10;}
</style><style
     type="text/css"
     id="style1941-7-7">
	.st0{fill:none;stroke:#000000;stroke-width:2;stroke-linecap:round;stroke-linejoin:round;stroke-miterlimit:10;}
</style><style
     type="text/css"
     id="style22485-9">
	.st0{fill:none;stroke:#6C3DB7;stroke-width:4;stroke-linecap:round;stroke-linejoin:round;stroke-miterlimit:10;}
	.st1{fill:none;stroke:#1F992A;stroke-width:4;stroke-linecap:round;stroke-linejoin:round;stroke-miterlimit:10;}
	.st2{fill:none;stroke:#6A83BA;stroke-width:4;stroke-linecap:round;stroke-linejoin:round;stroke-miterlimit:10;}
	.st3{fill:#8A8AFF;stroke:#8A8AFF;stroke-width:2;stroke-linecap:round;stroke-linejoin:round;stroke-miterlimit:10;}
	.st4{fill:#6C3DB7;stroke:#6C3DB7;stroke-width:2;stroke-linecap:round;stroke-linejoin:round;stroke-miterlimit:10;}
	.st5{fill:#A576FF;stroke:#A576FF;stroke-width:2;stroke-linecap:round;stroke-linejoin:round;stroke-miterlimit:10;}
	.st6{fill:#F2BB41;stroke:#F2BB41;stroke-width:2;stroke-linecap:round;stroke-linejoin:round;stroke-miterlimit:10;}
	.st7{fill:#E08838;stroke:#E08838;stroke-width:2;stroke-linecap:round;stroke-linejoin:round;stroke-miterlimit:10;}
	.st8{fill:#1F992A;stroke:#1F992A;stroke-width:2;stroke-linecap:round;stroke-linejoin:round;stroke-miterlimit:10;}
	.st9{fill:#5EC11E;stroke:#5EC11E;stroke-width:2;stroke-linecap:round;stroke-linejoin:round;stroke-miterlimit:10;}
	.st10{fill:#E3FAFF;stroke:#E3FAFF;stroke-width:2;stroke-linecap:round;stroke-linejoin:round;stroke-miterlimit:10;}
	.st11{fill:#FF5093;stroke:#FF5093;stroke-width:2;stroke-linecap:round;stroke-linejoin:round;stroke-miterlimit:10;}
	.st12{fill:#B7257F;stroke:#B7257F;stroke-width:2;stroke-linecap:round;stroke-linejoin:round;stroke-miterlimit:10;}
	.st13{fill:#5189E5;stroke:#5189E5;stroke-width:2;stroke-linecap:round;stroke-linejoin:round;stroke-miterlimit:10;}
	.st14{fill:#6EBAFF;stroke:#6EBAFF;stroke-width:2;stroke-linecap:round;stroke-linejoin:round;stroke-miterlimit:10;}
	.st15{fill:#EDD977;stroke:#EDD977;stroke-width:2;stroke-linecap:round;stroke-linejoin:round;stroke-miterlimit:10;}
	.st16{fill:#8C43FF;stroke:#8C43FF;stroke-width:2;stroke-linecap:round;stroke-linejoin:round;stroke-miterlimit:10;}
	.st17{fill:#5252BA;stroke:#5252BA;stroke-width:2;stroke-linecap:round;stroke-linejoin:round;stroke-miterlimit:10;}
	.st18{fill:none;stroke:#E3FAFF;stroke-width:4;stroke-linecap:round;stroke-linejoin:round;stroke-miterlimit:10;}
	.st19{fill:#354C75;stroke:#354C75;stroke-width:2;stroke-linecap:round;stroke-linejoin:round;stroke-miterlimit:10;}
</style><style
     type="text/css"
     id="style23106-2">
	.st0{fill:none;stroke:#000000;stroke-width:2;stroke-linecap:round;stroke-linejoin:round;stroke-miterlimit:10;}
	.st1{fill:none;stroke:#000000;stroke-width:2;stroke-linejoin:round;stroke-miterlimit:10;}
</style></svg>
