<?xml version="1.0" encoding="UTF-8" standalone="no"?>
<svg
   width="999.49615"
   height="237.86813"
   viewBox="0 0 64.547462 15.361524"
   version="1.1"
   id="svg8"
   xml:space="preserve"
   xmlns="http://www.w3.org/2000/svg"
   xmlns:svg="http://www.w3.org/2000/svg"
   xmlns:rdf="http://www.w3.org/1999/02/22-rdf-syntax-ns#"
   xmlns:cc="http://creativecommons.org/ns#"
   xmlns:dc="http://purl.org/dc/elements/1.1/"><defs
     id="defs2"><style
       id="style6568">.cls-1{fill:none;}.cls-2{clip-path:url(#clip-path);}</style><style
       id="style6568-4">.cls-1{fill:none;}.cls-2{clip-path:url(#clip-path);}</style></defs><metadata
     id="metadata5"><rdf:RDF><cc:Work
         rdf:about=""><dc:format>image/svg+xml</dc:format><dc:type
           rdf:resource="http://purl.org/dc/dcmitype/StillImage" /></cc:Work></rdf:RDF></metadata><g
     id="layer1"
     transform="translate(-0.01504193,-200.57073)"><path
       id="path3878"
       style="color:#000000;fill:#00cc45;fill-opacity:1;stroke-width:0;-inkscape-stroke:none"
       d="m 9.3940271,200.57088 c -0.3919713,-0.007 -0.7978033,0.22321 -0.972726,0.76022 -0.1920115,0.58948 -0.3753589,1.18039 -0.5219604,1.59986 -0.3711421,1.14405 -0.7165029,2.28973 -1.1020358,3.42693 -1.9127118,-0.68676 -4.2844614,-0.33566 -5.6061838,1.30847 -1.68973634,1.91669 -1.53801504,5.088 0.3219946,6.8382 1.9582077,2.0661 5.6562681,1.75198 7.3489731,-0.50106 1.4045342,-1.63216 2.0066242,-3.82098 3.5167252,-5.36576 1.404417,-1.14058 3.766106,-0.71978 4.569006,0.9436 0.96664,1.85773 -0.389807,4.28081 -2.521617,4.27182 -1.11534,0.0438 -1.4557,-0.4908 -2.270817,-0.76939 -0.964868,-0.30277 -1.926385,0.94363 -0.935375,1.79591 2.231626,1.67921 5.58333,1.23871 7.115972,-1.03731 1.5092,-2.0213 1.138571,-5.11477 -0.794064,-6.73222 -2.037232,-1.87533 -5.580898,-1.42672 -7.191212,0.79568 -1.363954,1.61767 -1.8834843,3.84518 -3.4491716,5.28311 -1.3324916,1.22377 -3.7660729,0.71969 -4.5690056,-0.94373 -1.0130038,-1.77792 0.4322983,-4.20864 2.5113688,-4.22369 0.9229538,-0.01 1.4912357,0.36907 2.22632,0.62444 1.1469784,0.31225 1.2792843,-0.53495 1.5460592,-1.31279 0.5941728,-1.83022 1.0709489,-3.61483 1.6436822,-5.44033 0.250326,-0.79788 -0.2930526,-1.31236 -0.8659329,-1.32196 z m 18.6575979,0.013 c -0.44147,0.006 -0.893792,0.27391 -1.044729,0.83721 l -3.545312,13.10173 c -0.380935,1.3994 1.580281,1.96293 2.021905,0.54704 l 3.517534,-13.11198 c 0.240076,-0.89597 -0.344421,-1.38168 -0.949398,-1.374 z m 27.488892,0.0311 c -0.465354,-0.004 -0.89215,0.31976 -1.041898,0.80836 l -1.529474,4.99159 c -1.736632,-0.80912 -3.947917,-0.61824 -5.412286,0.79582 -1.925327,1.62705 -2.278114,4.72308 -0.758602,6.73586 1.496153,2.29983 4.894117,2.46752 7.134984,0.97974 0.887477,-0.61861 0.390747,-2.11145 -0.833168,-1.78365 -0.808854,0.34647 -1.27701,0.79759 -2.412262,0.79717 -2.027556,-7.6e-4 -3.426955,-2.29304 -2.578923,-4.07914 0.736801,-1.81569 2.93491,-2.25609 4.524779,-1.34029 1.475214,0.88294 1.78274,2.26758 2.733313,4.08561 1.100415,2.10462 2.322092,3.29606 4.460056,3.31365 2.546254,0.0295 4.339262,-1.42862 4.628469,-4.03828 0.168991,-1.52487 0.08041,-3.06835 0.106118,-4.60244 0.01005,-0.64617 -0.430709,-1.17381 -0.988231,-1.18267 -0.557526,-0.009 -0.976591,0.50399 -0.986615,1.15017 l -0.101803,3.8096 c -0.02495,0.34927 -0.04451,0.7295 -0.213719,1.29391 -0.709763,1.6224 -2.634373,2.03121 -4.033966,0.84908 -1.586471,-1.49257 -1.854998,-4.07633 -3.465892,-5.70732 l 1.634514,-5.55211 c 0.177447,-0.57911 -0.04569,-1.13115 -0.604481,-1.28731 -0.08731,-0.0244 -0.174736,-0.0365 -0.260913,-0.0372 z m -31.447422,5.3353 c -2.134535,0.0129 -3.205629,1.56634 -3.633766,3.13149 -0.480188,1.75543 -0.714375,3.72583 -2.099167,5.05739 -0.86202,0.98446 0.535017,2.62132 1.838119,1.21651 1.836862,-1.83585 1.549017,-4.72967 2.727381,-6.5692 0.604936,-0.94018 1.749649,-0.44024 2.199891,-1.21975 0.422144,-0.82993 -0.145645,-1.60262 -0.929981,-1.61577 -0.03442,-5.5e-4 -0.0686,-8.7e-4 -0.102477,-6.9e-4 z m 7.24846,0.0798 c -0.252859,9.1e-4 -0.507892,0.0164 -0.764265,0.0438 -2.618013,0.26248 -4.513795,2.9757 -4.111903,5.52487 0.285674,2.50614 2.461559,4.37756 5.242794,4.26724 2.026029,-0.0869 3.634695,-1.55909 4.566174,-3.25393 0.893649,-1.32325 1.450029,-2.95361 2.71956,-3.98245 1.492807,-1.01068 3.765415,-0.41757 4.461135,1.27705 0.833299,1.79302 -0.538308,4.08546 -2.67358,4.0372 -1.041429,0.0701 -1.513092,-0.49326 -2.280929,-0.77828 -1.072853,-0.30039 -1.802059,0.97839 -0.916634,1.72391 1.888907,1.59043 5.563868,1.40325 7.12649,-0.84935 1.536029,-2.0002 1.208684,-5.09908 -0.703183,-6.74193 -2.012303,-1.90754 -5.560912,-1.49947 -7.20173,0.69887 -1.384333,1.59886 -2.01147,3.73955 -3.519287,5.23659 -1.45376,1.15257 -3.864479,0.63461 -4.606086,-1.10136 -0.886779,-1.79356 0.470658,-4.06958 2.611149,-4.10381 1.270828,-0.0357 1.532939,0.44279 2.296032,0.76804 1.075819,0.3476 1.699049,-0.99172 0.846247,-1.74535 -0.941779,-0.75552 -1.996264,-1.02505 -3.091984,-1.02114 z" /></g><style
     type="text/css"
     id="style1941">
	.st0{fill:none;stroke:#000000;stroke-width:2;stroke-linecap:round;stroke-linejoin:round;stroke-miterlimit:10;}
</style><style
     type="text/css"
     id="style1941-8">
	.st0{fill:none;stroke:#000000;stroke-width:2;stroke-linecap:round;stroke-linejoin:round;stroke-miterlimit:10;}
</style></svg>
