<?xml version="1.0" encoding="UTF-8" standalone="no"?>
<svg
   width="999.49628"
   height="237.86829"
   viewBox="0 0 64.54747 15.361534"
   version="1.1"
   id="svg8"
   xml:space="preserve"
   xmlns="http://www.w3.org/2000/svg"
   xmlns:svg="http://www.w3.org/2000/svg"
   xmlns:rdf="http://www.w3.org/1999/02/22-rdf-syntax-ns#"
   xmlns:cc="http://creativecommons.org/ns#"
   xmlns:dc="http://purl.org/dc/elements/1.1/"><defs
     id="defs2"><style
       id="style6568">.cls-1{fill:none;}.cls-2{clip-path:url(#clip-path);}</style><style
       id="style6568-4">.cls-1{fill:none;}.cls-2{clip-path:url(#clip-path);}</style></defs><metadata
     id="metadata5"><rdf:RDF><cc:Work
         rdf:about=""><dc:format>image/svg+xml</dc:format><dc:type
           rdf:resource="http://purl.org/dc/dcmitype/StillImage" /></cc:Work></rdf:RDF></metadata><g
     id="layer1"
     transform="translate(2.1397308,-218.8263)"><path
       id="path952"
       style="color:#000000;fill:#fafffa;fill-opacity:1;stroke-width:0;-inkscape-stroke:none"
       d="m 7.2392542,218.82645 c -0.3919714,-0.007 -0.7978034,0.22321 -0.9727261,0.76022 -0.1920115,0.58948 -0.3753589,1.18039 -0.5219604,1.59986 -0.3711421,1.14405 -0.7165029,2.28973 -1.1020358,3.42692 -1.9127115,-0.68676 -4.28446112,-0.33566 -5.60618352,1.30848 -1.68973638,1.91669 -1.53801508,5.088 0.3219946,6.8382 1.95820772,2.0661 5.65626782,1.75198 7.34897282,-0.50106 1.4045343,-1.63216 2.0066243,-3.82098 3.5167252,-5.36577 1.404416,-1.14058 3.766106,-0.71977 4.569005,0.94361 0.966641,1.85773 -0.389807,4.28081 -2.521616,4.27182 -1.11534,0.0438 -1.455701,-0.4908 -2.270817,-0.76939 -0.9648679,-0.30277 -1.9263849,0.94363 -0.9353759,1.79591 2.2316259,1.67921 5.5833309,1.23871 7.1159729,-1.03731 1.5092,-2.0213 1.138571,-5.11477 -0.794065,-6.73222 -2.037231,-1.87533 -5.5808979,-1.42672 -7.1912109,0.79568 -1.3639541,1.61766 -1.8834844,3.84518 -3.4491717,5.28311 -1.3324913,1.22377 -3.76607262,0.71968 -4.56900532,-0.94373 -1.0130038,-1.77792 0.4322983,-4.20865 2.51136882,-4.22369 0.9229538,-0.01 1.4912354,0.36907 2.2263197,0.62444 1.1469784,0.31225 1.2792843,-0.53495 1.5460592,-1.31279 0.5941728,-1.83023 1.070949,-3.61483 1.6436823,-5.44033 0.250326,-0.79788 -0.293053,-1.31236 -0.8659329,-1.32196 z m 18.6575978,0.013 c -0.44147,0.006 -0.893792,0.2739 -1.04473,0.83721 l -3.545311,13.10173 c -0.380935,1.3994 1.58028,1.96293 2.021905,0.54704 l 3.517534,-13.11198 c 0.240076,-0.89597 -0.344421,-1.38168 -0.949398,-1.374 z m 27.488892,0.0311 c -0.465355,-0.004 -0.892151,0.31975 -1.041898,0.80836 l -1.529474,4.99159 c -1.736632,-0.80912 -3.947917,-0.61824 -5.412287,0.79582 -1.925326,1.62705 -2.278114,4.72308 -0.758601,6.73586 1.496153,2.29983 4.894117,2.46751 7.134984,0.97974 0.887476,-0.61861 0.390746,-2.11145 -0.833168,-1.78365 -0.808854,0.34647 -1.27701,0.79759 -2.412263,0.79717 -2.027555,-7.6e-4 -3.426954,-2.29304 -2.578922,-4.07914 0.736801,-1.81569 2.934909,-2.25609 4.524778,-1.34029 1.475215,0.88294 1.782741,2.26757 2.733314,4.0856 1.100414,2.10463 2.322091,3.29607 4.460055,3.31366 2.546254,0.0295 4.339262,-1.42862 4.62847,-4.03828 0.16899,-1.52488 0.08041,-3.06836 0.106118,-4.60244 0.01005,-0.64617 -0.430709,-1.17381 -0.988232,-1.18267 -0.557525,-0.009 -0.97659,0.50399 -0.986614,1.15017 l -0.101803,3.8096 c -0.02495,0.34927 -0.04451,0.7295 -0.213719,1.29391 -0.709764,1.6224 -2.634373,2.03121 -4.033966,0.84907 -1.586471,-1.49256 -1.854998,-4.07632 -3.465892,-5.70731 l 1.634514,-5.55211 c 0.177447,-0.57911 -0.04569,-1.13115 -0.604481,-1.28731 -0.08731,-0.0244 -0.174736,-0.0365 -0.260913,-0.0372 z m -31.447423,5.3353 c -2.134534,0.0129 -3.205629,1.56633 -3.633765,3.13149 -0.480188,1.75543 -0.714375,3.72583 -2.099168,5.05739 -0.862019,0.98446 0.535018,2.62131 1.83812,1.21651 1.836862,-1.83585 1.549016,-4.72967 2.72738,-6.5692 0.604937,-0.94018 1.749649,-0.44024 2.199892,-1.21975 0.422143,-0.82993 -0.145646,-1.60262 -0.929982,-1.61577 -0.03442,-5.5e-4 -0.0686,-8.8e-4 -0.102477,-6.9e-4 z m 7.248461,0.0798 c -0.252859,9.1e-4 -0.507892,0.0164 -0.764265,0.0438 -2.618013,0.26249 -4.513796,2.9757 -4.111904,5.52488 0.285675,2.50614 2.46156,4.37756 5.242795,4.26724 2.026028,-0.0869 3.634695,-1.55909 4.566174,-3.25393 0.893649,-1.32325 1.450029,-2.95361 2.719559,-3.98246 1.492808,-1.01067 3.765415,-0.41756 4.461135,1.27706 0.8333,1.79302 -0.538307,4.08546 -2.673579,4.0372 -1.04143,0.0701 -1.513092,-0.49326 -2.28093,-0.77829 -1.072852,-0.30038 -1.802058,0.9784 -0.916633,1.72392 1.888906,1.59043 5.563868,1.40325 7.12649,-0.84935 1.536029,-2.0002 1.208684,-5.09908 -0.703184,-6.74193 -2.012302,-1.90754 -5.560911,-1.49947 -7.201729,0.69887 -1.384334,1.59886 -2.011471,3.73955 -3.519287,5.23659 -1.453761,1.15257 -3.864479,0.63461 -4.606087,-1.10136 -0.886778,-1.79356 0.470659,-4.06959 2.61115,-4.10382 1.270828,-0.0357 1.532939,0.4428 2.296032,0.76804 1.075819,0.34761 1.699049,-0.99171 0.846246,-1.74535 -0.941778,-0.75551 -1.996263,-1.02504 -3.091983,-1.02113 z" /></g><style
     type="text/css"
     id="style1941">
	.st0{fill:none;stroke:#000000;stroke-width:2;stroke-linecap:round;stroke-linejoin:round;stroke-miterlimit:10;}
</style><style
     type="text/css"
     id="style1941-8">
	.st0{fill:none;stroke:#000000;stroke-width:2;stroke-linecap:round;stroke-linejoin:round;stroke-miterlimit:10;}
</style></svg>
