<?xml version="1.0" encoding="UTF-8" standalone="no"?>
<svg
   xmlns:dc="http://purl.org/dc/elements/1.1/"
   xmlns:cc="http://creativecommons.org/ns#"
   xmlns:rdf="http://www.w3.org/1999/02/22-rdf-syntax-ns#"
   xmlns:svg="http://www.w3.org/2000/svg"
   xmlns="http://www.w3.org/2000/svg"
   xmlns:xlink="http://www.w3.org/1999/xlink"
   xmlns:sodipodi="http://sodipodi.sourceforge.net/DTD/sodipodi-0.dtd"
   xmlns:inkscape="http://www.inkscape.org/namespaces/inkscape"
   width="340"
   height="500"
   viewBox="0 0 340 500"
   version="1.1"
   id="SVGRoot"
   sodipodi:docname="whispr-icon.svg"
   inkscape:version="1.0.1 (1.0.1+r74)">
  <defs
     id="defs904">
    <linearGradient
       inkscape:collect="always"
       id="linearGradient862">
      <stop
         style="stop-color:#87de87;stop-opacity:1;"
         offset="0"
         id="stop858" />
      <stop
         style="stop-color:#2a2aff;stop-opacity:1"
         offset="1"
         id="stop860" />
    </linearGradient>
    <linearGradient
       inkscape:collect="always"
       id="linearGradient846">
      <stop
         style="stop-color:#87de87;stop-opacity:1;"
         offset="0"
         id="stop842" />
      <stop
         style="stop-color:#0000ff;stop-opacity:1"
         offset="1"
         id="stop844" />
    </linearGradient>
    <linearGradient
       inkscape:collect="always"
       xlink:href="#linearGradient846"
       id="linearGradient848"
       x1="4.7857056"
       y1="318.12527"
       x2="206.36147"
       y2="632.69458"
       gradientUnits="userSpaceOnUse" />
    <linearGradient
       inkscape:collect="always"
       xlink:href="#linearGradient862"
       id="linearGradient856"
       x1="163"
       y1="236"
       x2="427.82196"
       y2="300.36688"
       gradientUnits="userSpaceOnUse" />
  </defs>
  <sodipodi:namedview
     id="base"
     pagecolor="#ffffff"
     bordercolor="#666666"
     borderopacity="1.0"
     inkscape:pageopacity="0.0"
     inkscape:pageshadow="2"
     inkscape:zoom="0.61532509"
     inkscape:cx="292.32813"
     inkscape:cy="292.93701"
     inkscape:document-units="px"
     inkscape:current-layer="g1961"
     inkscape:document-rotation="0"
     showgrid="false"
     inkscape:window-width="1920"
     inkscape:window-height="972"
     inkscape:window-x="0"
     inkscape:window-y="35"
     inkscape:window-maximized="1"
     showguides="true"
     inkscape:guide-bbox="true">
    <inkscape:grid
       type="xygrid"
       id="grid1474" />
    <sodipodi:guide
       position="350,250"
       orientation="0,-1"
       id="guide1481" />
    <sodipodi:guide
       position="250,360"
       orientation="1,0"
       id="guide1483" />
    <sodipodi:guide
       position="20,350"
       orientation="1,0"
       id="guide1485" />
    <sodipodi:guide
       position="290,480"
       orientation="0,-1"
       id="guide1487" />
    <sodipodi:guide
       position="480,340"
       orientation="1,0"
       id="guide1489" />
    <sodipodi:guide
       position="291,24"
       orientation="0,-1"
       id="guide1491" />
    <sodipodi:guide
       position="320,430"
       orientation="1,0"
       id="guide2121" />
  </sodipodi:namedview>
  <metadata
     id="metadata907">
    <rdf:RDF>
      <cc:Work
         rdf:about="">
        <dc:format>image/svg+xml</dc:format>
        <dc:type
           rdf:resource="http://purl.org/dc/dcmitype/StillImage" />
        <dc:title></dc:title>
      </cc:Work>
    </rdf:RDF>
  </metadata>
  <g
     inkscape:label="Katman 1"
     inkscape:groupmode="layer"
     id="layer1">
    <g
       id="g1961"
       transform="translate(-27.680488,-18.691067)"
       style="fill:#87de87">
      <g
         id="g2047"
         transform="matrix(1,0,0,-1,0,577.23196)"
         style="fill:#87de87;fill-opacity:1">
        <path
           id="path2045"
           style="fill:url(#linearGradient856);fill-opacity:1;stroke-width:0.98666"
           d="m 243.93945,20.990234 c -4.10334,0.02718 -8.32461,0.523775 -11.70898,2.03711 -6.45573,2.8867 -15.27162,6.517018 -24.66797,16.580078 -1.19042,1.2749 -7.80746,9.754852 -9.13281,15.232422 -0.8911,3.68286 -1.95586,8.93779 -1.91407,11.30664 0.13684,7.75967 0.83273,11.252389 4.34766,19.386719 2.9553,6.83923 7.7985,11.740722 9.98047,15.013677 5.45491,5.4549 12.33305,13.19396 11.91797,13.52148 C 170.83803,155.03944 125.99403,190.8876 77.101562,229.67578 72.098682,225.72688 67.096659,221.77701 62.09375,217.82812 49.376988,208.02846 45.014321,204.59098 40.650391,203.5 c -8.727858,-2.18196 -11.677533,-0.90865 -14.882813,1.43555 -3.821839,2.79506 -5.407566,7.04673 -4.755859,12.91211 0.293413,4.3134 3.820489,8.54321 6.857422,11.40234 3.13635,3.00822 6.592242,5.65528 9.964843,8.38867 5.054784,3.99015 9.67818,7.66677 14.605469,11.56445 -4.927289,3.89769 -9.550685,7.57431 -14.605469,11.56446 -3.372601,2.73339 -6.828493,5.3824 -9.964843,8.39062 -3.036933,2.85913 -6.564009,7.08895 -6.857422,11.40235 -0.651707,5.86538 0.93402,10.11705 4.755859,12.91211 3.20528,2.3442 6.154955,3.61555 14.882813,1.43359 4.36393,-1.09098 8.726597,-4.52846 21.443359,-14.32813 5.002909,-3.94888 10.004932,-7.89875 15.007812,-11.84765 48.892468,38.78818 93.736468,74.63829 145.660158,115.60937 0.41508,0.32752 -6.46306,8.06463 -11.91797,13.51954 -2.18197,3.27295 -7.02517,8.17444 -9.98047,15.01367 -3.51493,8.13433 -4.21082,11.629 -4.34766,19.38867 -0.0418,2.36885 1.02297,7.62183 1.91407,11.30469 1.32535,5.47757 7.94239,13.95752 9.13281,15.23242 9.39635,10.06306 18.72048,13.03385 25.48438,15.09765 4.95321,1.51132 15.68774,2.63262 21.52343,1.90821 8.2445,-1.0234 16.76403,-4.12303 26.42969,-11.80469 7.63688,-4.36393 25.47821,-22.01037 30.21289,-27.95703 5.28449,-6.00772 5.45504,-17.45471 -1.85156,-22.98633 -15.67322,-12.46057 -30.66643,-24.25642 -45.26953,-35.7832 -54.08365,-42.69027 -108.16654,-85.38037 -162.25,-128.07032 54.08346,-42.68994 108.16635,-85.38004 162.25,-128.07031 14.6031,-11.52678 29.59631,-23.322631 45.26953,-35.783201 7.3066,-5.53162 7.13605,-16.978608 1.85156,-22.986328 C 306.47821,56.416621 286.63688,37.36393 279,33 268.90511,27.2294 263.19177,22.790978 254.94727,21.767578 c -2.91785,-0.362205 -6.90448,-0.804526 -11.00782,-0.777344 z m 2.01758,25.72461 c 5.119,-0.03005 8.77753,2.227328 11.04102,3.371094 2.16089,1.091929 7.31963,5.112385 11.41601,8.609374 4.77026,4.07226 9.40807,8.384528 11.16016,11.304688 -1.20545,0.95094 -16.36878,13.04905 -17.57422,14 -8.86293,6.99194 -6.60185,4.94967 -17,13 0,0 -4.72705,-3.72705 -8,-7 -0.428,-0.428 -4.29669,-4.388638 -6.44531,-7.830078 -2.4012,-3.84606 -3.96287,-6.162825 -5.00586,-10.671875 -0.98471,-4.25729 -0.36383,-5.079461 0.48633,-9.587891 0.58033,-3.0775 3.10394,-6.72251 5.73828,-8.90039 3.19742,-2.64341 8.798,-5.710943 11.90039,-6.132813 0.7911,-0.107575 1.55192,-0.157816 2.2832,-0.162109 z M 245,401.40625 c 10.39815,8.05033 8.13707,6.00806 17,13 1.20544,0.95095 16.36877,13.04906 17.57422,14 -1.75209,2.92016 -6.3899,7.23243 -11.16016,11.30469 -4.09638,3.49699 -9.25512,7.5194 -11.41601,8.61133 -2.58684,1.30716 -6.99544,4.06763 -13.32422,3.20703 -3.10239,-0.42187 -8.70297,-3.48745 -11.90039,-6.13086 -2.63434,-2.17788 -5.15795,-5.82485 -5.73828,-8.90235 -0.85016,-4.50843 -1.47104,-5.32864 -0.48633,-9.58593 1.04299,-4.50905 2.60466,-6.82582 5.00586,-10.67188 2.14862,-3.44144 6.01731,-7.40403 6.44531,-7.83203 3.27295,-3.27295 8,-7 8,-7 z"
           transform="matrix(1,0,0,-1,27.680488,558.54089)" />
      </g>
      <path
         id="rect2055"
         style="fill:url(#linearGradient848);fill-opacity:1"
         transform="rotate(-35.959368)"
         d="m 4.7857058,318.12527 c 64.1237622,-1.36064 109.2795842,-4.22249 174.5334642,-5.57423 7.20544,0.28553 12.5065,6.60209 7.8088,13.07756 -44.04086,60.70752 -83.4738,118.81283 -129.186507,178.0754 -8.414026,10.25838 -16.508362,4.38626 -20.565679,-8.56338 -13.138119,-52.93237 -30.5538494,-107.4479 -42.9376608,-161.0489 -2.3457405,-8.2348 4.1832485,-15.79365 10.3475826,-15.96645 z"
         sodipodi:nodetypes="ccccccc" />
    </g>
  </g>
</svg>
