<?xml version="1.0" encoding="UTF-8" standalone="no"?>
<!-- Created with Inkscape (http://www.inkscape.org/) -->

<svg
   width="250"
   height="250.00002"
   viewBox="0 0 66.145837 66.145837"
   version="1.1"
   id="svg5"
   xml:space="preserve"
   xmlns:xlink="http://www.w3.org/1999/xlink"
   xmlns="http://www.w3.org/2000/svg"
   xmlns:svg="http://www.w3.org/2000/svg"><defs
     id="defs2"><linearGradient
       id="linearGradient1161"><stop
         style="stop-color:#006633;stop-opacity:1;"
         offset="0.0214142"
         id="stop1159" /><stop
         style="stop-color:#0ac248;stop-opacity:1;"
         offset="0.49635792"
         id="stop1160" /><stop
         style="stop-color:#6aed5e;stop-opacity:1;"
         offset="1"
         id="stop1161" /></linearGradient><style
       id="style6568">.cls-1{fill:none;}.cls-2{clip-path:url(#clip-path);}</style><style
       id="style6568-5">.cls-1{fill:none;}.cls-2{clip-path:url(#clip-path);}</style><style
       id="style6568-9">.cls-1{fill:none;}.cls-2{clip-path:url(#clip-path);}</style><style
       id="style22571">.cls-1{fill:#84d0f7;}.cls-2{fill:#aa392d;}.cls-3{fill:#7c211a;}.cls-4{fill:#e59973;}.cls-5{fill:#2d2d2d;}.cls-6{opacity:0.2;}.cls-7{opacity:0.3;}</style><style
       id="style23309">
      .cls-1 {
        fill: none;
      }
    </style><style
       id="style6568-7">.cls-1{fill:none;}.cls-2{clip-path:url(#clip-path);}</style><style
       id="style6568-5-5">.cls-1{fill:none;}.cls-2{clip-path:url(#clip-path);}</style><style
       id="style6568-9-3">.cls-1{fill:none;}.cls-2{clip-path:url(#clip-path);}</style><style
       id="style22571-5">.cls-1{fill:#84d0f7;}.cls-2{fill:#aa392d;}.cls-3{fill:#7c211a;}.cls-4{fill:#e59973;}.cls-5{fill:#2d2d2d;}.cls-6{opacity:0.2;}.cls-7{opacity:0.3;}</style><style
       id="style23309-6">
      .cls-1 {
        fill: none;
      }
    </style><style
       id="style1-9">
      .cls-1 {
        fill: none;
      }
    </style><linearGradient
       xlink:href="#linearGradient1161"
       id="linearGradient1492"
       gradientUnits="userSpaceOnUse"
       gradientTransform="matrix(1.020428,0,0,1.0204279,472.72432,-293.60679)"
       x1="-105.32898"
       y1="771.54901"
       x2="-40.311863"
       y2="706.53192" /></defs><g
     id="layer1"
     transform="translate(-364.62289,-427.42864)"><title
       id="title15">digital nomad</title><rect
       style="fill:url(#linearGradient1492);stroke-width:4.24654"
       id="rect1364"
       width="67.733337"
       height="67.73333"
       x="363.67111"
       y="426.58826"
       rx="0"
       ry="0" /><g
       id="g1406"
       transform="matrix(2.2459874,0,0,2.2459874,112.90732,-132.76981)"
       style="fill:#ffffff;fill-opacity:0.350116"><g
         id="g1400"
         transform="matrix(1.0023072,0,0,1.0032399,-1.9894194,5.1618383)"
         style="fill:#ffffff;fill-opacity:0.350116"><g
           style="opacity:0.994;fill:#ffffff;fill-opacity:0.350116"
           transform="matrix(0.99968948,0,0,0.99968948,-5.9491148,-17.011501)"
           id="g1398"><g
             id="g1397"
             transform="matrix(1.1352941,0,0,1.1342387,7.6805582,212.07015)"
             style="fill:#ffffff;fill-opacity:0.350116"><g
               id="g1364"
               transform="translate(0,-9.0412)"
               style="fill:#ffffff;fill-opacity:0.350116" /><g
               id="g1396"
               transform="translate(0,-200.20787)"
               style="fill:#ffffff;fill-opacity:0.350116"><g
                 transform="translate(23.049768,0.042484)"
                 id="g1367"
                 style="fill:#ffffff;fill-opacity:0.350116"><g
                   style="fill:#ffffff;fill-opacity:0.350116"
                   transform="translate(-5.9634658,-17.109346)"
                   id="g1365" /><g
                   style="fill:#ffffff;fill-opacity:0.350116"
                   transform="matrix(-1,0,0,1,30.973908,-17.109346)"
                   id="g1366" /></g><g
                 id="g1368"
                 transform="matrix(-0.88991953,0,0,1,71.216013,-11.316169)"
                 style="fill:#ffffff;fill-opacity:0.350116" /><g
                 id="g1369"
                 transform="translate(35.986948,-17.109342)"
                 style="fill:#ffffff;fill-opacity:0.350116" /><g
                 id="g1383"
                 transform="translate(16.201002,-2.8134767)"
                 style="fill:#ffffff;fill-opacity:0.350116"><g
                   style="fill:#ffffff;fill-opacity:0.350116"
                   transform="translate(-5.9634658,-17.109346)"
                   id="g1381"><g
                     id="g1380"
                     transform="matrix(0.83698503,0,0,0.83698503,8.3722867,213.30384)"
                     style="fill:#ffffff;fill-opacity:0.350116"><g
                       id="g1370"
                       transform="translate(-1.205199,-10.600084)"
                       style="fill:#ffffff;fill-opacity:0.350116" /><g
                       id="g1379"
                       transform="translate(-1.205199,-201.76675)"
                       style="fill:#ffffff;fill-opacity:0.350116"><g
                         id="g1373"
                         transform="matrix(1.0023072,0,0,1.0032399,-1.9894194,5.1618383)"
                         style="fill:#ffffff;fill-opacity:0.350116"><g
                           style="opacity:0.994;fill:#ffffff;fill-opacity:0.350116"
                           transform="matrix(0.99968948,0,0,0.99968948,-5.9491148,-17.011501)"
                           id="g1371" /><g
                           style="fill:#ffffff;fill-opacity:0.350116"
                           transform="matrix(-1,0,0,1,30.973908,-17.109346)"
                           id="g1372" /></g><g
                         transform="translate(23.049768,0.042484)"
                         id="g1376"
                         style="fill:#ffffff;fill-opacity:0.350116"><g
                           style="fill:#ffffff;fill-opacity:0.350116"
                           transform="translate(-5.9634658,-17.109346)"
                           id="g1374" /><g
                           style="fill:#ffffff;fill-opacity:0.350116"
                           transform="matrix(-1,0,0,1,30.973908,-17.109346)"
                           id="g1375" /></g><g
                         id="g1377"
                         transform="matrix(-0.88991953,0,0,1,71.216013,-11.316169)"
                         style="fill:#ffffff;fill-opacity:0.350116" /><g
                         id="g1378"
                         transform="translate(35.986948,-17.109342)"
                         style="fill:#ffffff;fill-opacity:0.350116" /></g></g></g><g
                   style="fill:#ffffff;fill-opacity:0.350116"
                   transform="matrix(-1,0,0,1,30.973908,-17.109346)"
                   id="g1382" /></g><g
                 id="g1395"
                 transform="matrix(1.0194999,0,0,1.0194999,89.779609,94.402107)"
                 style="fill:#ffffff;fill-opacity:0.350116"><g
                   id="g1394"
                   transform="translate(-1.9577292,5.1403322)"
                   style="opacity:1;fill:#ffffff;fill-opacity:0.350116"><g
                     style="fill:#ffffff;fill-opacity:0.350116"
                     transform="translate(-6.2035734,-17.109346)"
                     id="g1392"><g
                       id="g1384"
                       transform="matrix(0.83698503,0,0,0.83698503,7.3635532,204.43173)"
                       style="fill:#ffffff;fill-opacity:0.350116" /><g
                       transform="matrix(0.83698503,0,0,0.83698503,26.655864,44.463649)"
                       id="g1387"
                       style="fill:#ffffff;fill-opacity:0.350116"><g
                         style="fill:#ffffff;fill-opacity:0.350116"
                         transform="translate(-5.9634658,-17.109346)"
                         id="g1385" /><g
                         style="fill:#ffffff;fill-opacity:0.350116"
                         transform="matrix(-1,0,0,1,30.973908,-17.109346)"
                         id="g1386" /></g><g
                       id="g1388"
                       transform="matrix(-0.74484932,0,0,0.83698503,66.97029,34.956627)"
                       style="fill:#ffffff;fill-opacity:0.350116" /><g
                       id="g1389"
                       transform="matrix(0.83698503,0,0,0.83698503,37.48409,30.107828)"
                       style="fill:#ffffff;fill-opacity:0.350116" /><g
                       id="g1391"
                       transform="matrix(0.83891612,0,0,0.83969678,1.6492008,19.92036)"
                       style="fill:#ffffff;fill-opacity:0.350116"><g
                         style="fill:#ffffff;fill-opacity:0.350116"
                         transform="matrix(-1,0,0,1,30.973908,-17.109346)"
                         id="g1390" /></g></g><g
                     style="fill:#ffffff;fill-opacity:0.350116"
                     transform="matrix(-1,0,0,1,30.973908,-17.109346)"
                     id="g1393" /></g></g><path
                 id="path1395"
                 style="color:#000000;fill:#ffffff;fill-opacity:0.350116;stroke-width:1.18253;-inkscape-stroke:none"
                 d="m 114.66418,247.96371 c -0.10009,0.2979 -0.22401,0.65346 -0.52877,1.5027 -0.42087,1.26212 -0.81329,2.52628 -1.25003,3.7807 -2.10952,-0.77694 -4.73611,-0.41 -6.21298,1.39671 -1.88641,2.10485 -1.74731,5.6142 0.2943,7.56699 2.3793,2.23022 6.01086,1.88836 8.15042,-0.41324 1.27289,-1.36929 1.19984,-1.62349 2.23763,-3.02057 0.63582,-0.86011 1.12012,-1.19702 1.78259,-1.33007 1.64059,-0.32947 1.37803,-2.59244 -0.45125,-2.26296 -1.46623,0.26409 -2.39771,1.43411 -3.11358,2.41266 -0.99183,1.35575 -1.6092,2.31632 -2.63353,3.20751 -1.56395,1.24868 -4.17226,0.76204 -5.04538,-1.08519 -1.10446,-1.97578 0.547,-4.67355 2.84688,-4.67368 1.021,-6e-5 1.36525,0.33665 2.32187,0.61621 0.75641,0.22106 1.49892,-0.22318 1.82639,-1.31904 0.60942,-2.03947 1.17815,-3.71907 1.80409,-5.74077 0.458,-1.49161 -1.57293,-2.09452 -2.02865,-0.63795 z" /></g></g></g><g
           style="fill:#ffffff;fill-opacity:0.350116"
           transform="matrix(-1,0,0,1,30.973908,-17.109346)"
           id="g1399" /></g><g
         transform="translate(23.049768,0.042484)"
         id="g1403"
         style="fill:#ffffff;fill-opacity:0.350116"><g
           style="fill:#ffffff;fill-opacity:0.350116"
           transform="translate(-5.9634658,-17.109346)"
           id="g1401" /><g
           style="fill:#ffffff;fill-opacity:0.350116"
           transform="matrix(-1,0,0,1,30.973908,-17.109346)"
           id="g1402" /></g><g
         id="g1404"
         transform="matrix(-0.88991953,0,0,1,71.216013,-11.316169)"
         style="fill:#ffffff;fill-opacity:0.350116" /><g
         id="g1405"
         transform="translate(35.986948,-17.109342)"
         style="fill:#ffffff;fill-opacity:0.350116" /></g><g
       id="g1449"
       transform="matrix(2.2459874,0,0,2.2459874,110.7774,-133.37939)"
       style="fill:#ffffff;fill-opacity:0.490941"><g
         id="g1443"
         transform="matrix(1.0023072,0,0,1.0032399,-1.9894194,5.1618383)"
         style="fill:#ffffff;fill-opacity:0.490941"><g
           style="opacity:0.994;fill:#ffffff;fill-opacity:0.490941"
           transform="matrix(0.99968948,0,0,0.99968948,-5.9491148,-17.011501)"
           id="g1441"><g
             id="g1440"
             transform="matrix(1.1352941,0,0,1.1342387,7.6805582,212.07015)"
             style="fill:#ffffff;fill-opacity:0.490941"><g
               id="g1407"
               transform="translate(0,-9.0412)"
               style="fill:#ffffff;fill-opacity:0.490941" /><g
               id="g1439"
               transform="translate(0,-200.20787)"
               style="fill:#ffffff;fill-opacity:0.490941"><g
                 transform="translate(23.049768,0.042484)"
                 id="g1410"
                 style="fill:#ffffff;fill-opacity:0.490941"><g
                   style="fill:#ffffff;fill-opacity:0.490941"
                   transform="translate(-5.9634658,-17.109346)"
                   id="g1408" /><g
                   style="fill:#ffffff;fill-opacity:0.490941"
                   transform="matrix(-1,0,0,1,30.973908,-17.109346)"
                   id="g1409" /></g><g
                 id="g1411"
                 transform="matrix(-0.88991953,0,0,1,71.216013,-11.316169)"
                 style="fill:#ffffff;fill-opacity:0.490941" /><g
                 id="g1412"
                 transform="translate(35.986948,-17.109342)"
                 style="fill:#ffffff;fill-opacity:0.490941" /><g
                 id="g1426"
                 transform="translate(16.201002,-2.8134767)"
                 style="fill:#ffffff;fill-opacity:0.490941"><g
                   style="fill:#ffffff;fill-opacity:0.490941"
                   transform="translate(-5.9634658,-17.109346)"
                   id="g1424"><g
                     id="g1423"
                     transform="matrix(0.83698503,0,0,0.83698503,8.3722867,213.30384)"
                     style="fill:#ffffff;fill-opacity:0.490941"><g
                       id="g1413"
                       transform="translate(-1.205199,-10.600084)"
                       style="fill:#ffffff;fill-opacity:0.490941" /><g
                       id="g1422"
                       transform="translate(-1.205199,-201.76675)"
                       style="fill:#ffffff;fill-opacity:0.490941"><g
                         id="g1416"
                         transform="matrix(1.0023072,0,0,1.0032399,-1.9894194,5.1618383)"
                         style="fill:#ffffff;fill-opacity:0.490941"><g
                           style="opacity:0.994;fill:#ffffff;fill-opacity:0.490941"
                           transform="matrix(0.99968948,0,0,0.99968948,-5.9491148,-17.011501)"
                           id="g1414" /><g
                           style="fill:#ffffff;fill-opacity:0.490941"
                           transform="matrix(-1,0,0,1,30.973908,-17.109346)"
                           id="g1415" /></g><g
                         transform="translate(23.049768,0.042484)"
                         id="g1419"
                         style="fill:#ffffff;fill-opacity:0.490941"><g
                           style="fill:#ffffff;fill-opacity:0.490941"
                           transform="translate(-5.9634658,-17.109346)"
                           id="g1417" /><g
                           style="fill:#ffffff;fill-opacity:0.490941"
                           transform="matrix(-1,0,0,1,30.973908,-17.109346)"
                           id="g1418" /></g><g
                         id="g1420"
                         transform="matrix(-0.88991953,0,0,1,71.216013,-11.316169)"
                         style="fill:#ffffff;fill-opacity:0.490941" /><g
                         id="g1421"
                         transform="translate(35.986948,-17.109342)"
                         style="fill:#ffffff;fill-opacity:0.490941" /></g></g></g><g
                   style="fill:#ffffff;fill-opacity:0.490941"
                   transform="matrix(-1,0,0,1,30.973908,-17.109346)"
                   id="g1425" /></g><g
                 id="g1438"
                 transform="matrix(1.0194999,0,0,1.0194999,89.779609,94.402107)"
                 style="fill:#ffffff;fill-opacity:0.490941"><g
                   id="g1437"
                   transform="translate(-1.9577292,5.1403322)"
                   style="opacity:1;fill:#ffffff;fill-opacity:0.490941"><g
                     style="fill:#ffffff;fill-opacity:0.490941"
                     transform="translate(-6.2035734,-17.109346)"
                     id="g1435"><g
                       id="g1427"
                       transform="matrix(0.83698503,0,0,0.83698503,7.3635532,204.43173)"
                       style="fill:#ffffff;fill-opacity:0.490941" /><g
                       transform="matrix(0.83698503,0,0,0.83698503,26.655864,44.463649)"
                       id="g1430"
                       style="fill:#ffffff;fill-opacity:0.490941"><g
                         style="fill:#ffffff;fill-opacity:0.490941"
                         transform="translate(-5.9634658,-17.109346)"
                         id="g1428" /><g
                         style="fill:#ffffff;fill-opacity:0.490941"
                         transform="matrix(-1,0,0,1,30.973908,-17.109346)"
                         id="g1429" /></g><g
                       id="g1431"
                       transform="matrix(-0.74484932,0,0,0.83698503,66.97029,34.956627)"
                       style="fill:#ffffff;fill-opacity:0.490941" /><g
                       id="g1432"
                       transform="matrix(0.83698503,0,0,0.83698503,37.48409,30.107828)"
                       style="fill:#ffffff;fill-opacity:0.490941" /><g
                       id="g1434"
                       transform="matrix(0.83891612,0,0,0.83969678,1.6492008,19.92036)"
                       style="fill:#ffffff;fill-opacity:0.490941"><g
                         style="fill:#ffffff;fill-opacity:0.490941"
                         transform="matrix(-1,0,0,1,30.973908,-17.109346)"
                         id="g1433" /></g></g><g
                     style="fill:#ffffff;fill-opacity:0.490941"
                     transform="matrix(-1,0,0,1,30.973908,-17.109346)"
                     id="g1436" /></g></g><path
                 id="path1438"
                 style="color:#000000;fill:#ffffff;fill-opacity:0.490941;stroke-width:1.18253;-inkscape-stroke:none"
                 d="m 114.66418,247.96371 c -0.10009,0.2979 -0.22401,0.65346 -0.52877,1.5027 -0.42087,1.26212 -0.81329,2.52628 -1.25003,3.7807 -2.10952,-0.77694 -4.73611,-0.41 -6.21298,1.39671 -1.88641,2.10485 -1.74731,5.6142 0.2943,7.56699 2.3793,2.23022 6.01086,1.88836 8.15042,-0.41324 1.27289,-1.36929 1.19984,-1.62349 2.23763,-3.02057 0.63582,-0.86011 1.12012,-1.19702 1.78259,-1.33007 1.64059,-0.32947 1.37803,-2.59244 -0.45125,-2.26296 -1.46623,0.26409 -2.39771,1.43411 -3.11358,2.41266 -0.99183,1.35575 -1.6092,2.31632 -2.63353,3.20751 -1.56395,1.24868 -4.17226,0.76204 -5.04538,-1.08519 -1.10446,-1.97578 0.547,-4.67355 2.84688,-4.67368 1.021,-6e-5 1.36525,0.33665 2.32187,0.61621 0.75641,0.22106 1.49892,-0.22318 1.82639,-1.31904 0.60942,-2.03947 1.17815,-3.71907 1.80409,-5.74077 0.458,-1.49161 -1.57293,-2.09452 -2.02865,-0.63795 z" /></g></g></g><g
           style="fill:#ffffff;fill-opacity:0.490941"
           transform="matrix(-1,0,0,1,30.973908,-17.109346)"
           id="g1442" /></g><g
         transform="translate(23.049768,0.042484)"
         id="g1446"
         style="fill:#ffffff;fill-opacity:0.490941"><g
           style="fill:#ffffff;fill-opacity:0.490941"
           transform="translate(-5.9634658,-17.109346)"
           id="g1444" /><g
           style="fill:#ffffff;fill-opacity:0.490941"
           transform="matrix(-1,0,0,1,30.973908,-17.109346)"
           id="g1445" /></g><g
         id="g1447"
         transform="matrix(-0.88991953,0,0,1,71.216013,-11.316169)"
         style="fill:#ffffff;fill-opacity:0.490941" /><g
         id="g1448"
         transform="translate(35.986948,-17.109342)"
         style="fill:#ffffff;fill-opacity:0.490941" /></g><g
       id="g1492"
       transform="matrix(2.2459874,0,0,2.2459874,107.98748,-134.03495)"
       style="fill:#ffffff;fill-opacity:1"><g
         id="g1486"
         transform="matrix(1.0023072,0,0,1.0032399,-1.9894194,5.1618383)"
         style="fill:#ffffff;fill-opacity:1"><g
           style="opacity:0.994;fill:#ffffff;fill-opacity:1"
           transform="matrix(0.99968948,0,0,0.99968948,-5.9491148,-17.011501)"
           id="g1484"><g
             id="g1483"
             transform="matrix(1.1352941,0,0,1.1342387,7.6805582,212.07015)"
             style="fill:#ffffff;fill-opacity:1"><g
               id="g1450"
               transform="translate(0,-9.0412)"
               style="fill:#ffffff;fill-opacity:1" /><g
               id="g1482"
               transform="translate(0,-200.20787)"
               style="fill:#ffffff;fill-opacity:1"><g
                 transform="translate(23.049768,0.042484)"
                 id="g1453"
                 style="fill:#ffffff;fill-opacity:1"><g
                   style="fill:#ffffff;fill-opacity:1"
                   transform="translate(-5.9634658,-17.109346)"
                   id="g1451" /><g
                   style="fill:#ffffff;fill-opacity:1"
                   transform="matrix(-1,0,0,1,30.973908,-17.109346)"
                   id="g1452" /></g><g
                 id="g1454"
                 transform="matrix(-0.88991953,0,0,1,71.216013,-11.316169)"
                 style="fill:#ffffff;fill-opacity:1" /><g
                 id="g1455"
                 transform="translate(35.986948,-17.109342)"
                 style="fill:#ffffff;fill-opacity:1" /><g
                 id="g1469"
                 transform="translate(16.201002,-2.8134767)"
                 style="fill:#ffffff;fill-opacity:1"><g
                   style="fill:#ffffff;fill-opacity:1"
                   transform="translate(-5.9634658,-17.109346)"
                   id="g1467"><g
                     id="g1466"
                     transform="matrix(0.83698503,0,0,0.83698503,8.3722867,213.30384)"
                     style="fill:#ffffff;fill-opacity:1"><g
                       id="g1456"
                       transform="translate(-1.205199,-10.600084)"
                       style="fill:#ffffff;fill-opacity:1" /><g
                       id="g1465"
                       transform="translate(-1.205199,-201.76675)"
                       style="fill:#ffffff;fill-opacity:1"><g
                         id="g1459"
                         transform="matrix(1.0023072,0,0,1.0032399,-1.9894194,5.1618383)"
                         style="fill:#ffffff;fill-opacity:1"><g
                           style="opacity:0.994;fill:#ffffff;fill-opacity:1"
                           transform="matrix(0.99968948,0,0,0.99968948,-5.9491148,-17.011501)"
                           id="g1457" /><g
                           style="fill:#ffffff;fill-opacity:1"
                           transform="matrix(-1,0,0,1,30.973908,-17.109346)"
                           id="g1458" /></g><g
                         transform="translate(23.049768,0.042484)"
                         id="g1462"
                         style="fill:#ffffff;fill-opacity:1"><g
                           style="fill:#ffffff;fill-opacity:1"
                           transform="translate(-5.9634658,-17.109346)"
                           id="g1460" /><g
                           style="fill:#ffffff;fill-opacity:1"
                           transform="matrix(-1,0,0,1,30.973908,-17.109346)"
                           id="g1461" /></g><g
                         id="g1463"
                         transform="matrix(-0.88991953,0,0,1,71.216013,-11.316169)"
                         style="fill:#ffffff;fill-opacity:1" /><g
                         id="g1464"
                         transform="translate(35.986948,-17.109342)"
                         style="fill:#ffffff;fill-opacity:1" /></g></g></g><g
                   style="fill:#ffffff;fill-opacity:1"
                   transform="matrix(-1,0,0,1,30.973908,-17.109346)"
                   id="g1468" /></g><g
                 id="g1481"
                 transform="matrix(1.0194999,0,0,1.0194999,89.779609,94.402107)"
                 style="fill:#ffffff;fill-opacity:1"><g
                   id="g1480"
                   transform="translate(-1.9577292,5.1403322)"
                   style="opacity:1;fill:#ffffff;fill-opacity:1"><g
                     style="fill:#ffffff;fill-opacity:1"
                     transform="translate(-6.2035734,-17.109346)"
                     id="g1478"><g
                       id="g1470"
                       transform="matrix(0.83698503,0,0,0.83698503,7.3635532,204.43173)"
                       style="fill:#ffffff;fill-opacity:1" /><g
                       transform="matrix(0.83698503,0,0,0.83698503,26.655864,44.463649)"
                       id="g1473"
                       style="fill:#ffffff;fill-opacity:1"><g
                         style="fill:#ffffff;fill-opacity:1"
                         transform="translate(-5.9634658,-17.109346)"
                         id="g1471" /><g
                         style="fill:#ffffff;fill-opacity:1"
                         transform="matrix(-1,0,0,1,30.973908,-17.109346)"
                         id="g1472" /></g><g
                       id="g1474"
                       transform="matrix(-0.74484932,0,0,0.83698503,66.97029,34.956627)"
                       style="fill:#ffffff;fill-opacity:1" /><g
                       id="g1475"
                       transform="matrix(0.83698503,0,0,0.83698503,37.48409,30.107828)"
                       style="fill:#ffffff;fill-opacity:1" /><g
                       id="g1477"
                       transform="matrix(0.83891612,0,0,0.83969678,1.6492008,19.92036)"
                       style="fill:#ffffff;fill-opacity:1"><g
                         style="fill:#ffffff;fill-opacity:1"
                         transform="matrix(-1,0,0,1,30.973908,-17.109346)"
                         id="g1476" /></g></g><g
                     style="fill:#ffffff;fill-opacity:1"
                     transform="matrix(-1,0,0,1,30.973908,-17.109346)"
                     id="g1479" /></g></g><path
                 id="path1481"
                 style="color:#000000;fill:#ffffff;fill-opacity:1;stroke-width:1.18253;-inkscape-stroke:none"
                 d="m 114.66418,247.96371 c -0.10009,0.2979 -0.22401,0.65346 -0.52877,1.5027 -0.42087,1.26212 -0.81329,2.52628 -1.25003,3.7807 -2.10952,-0.77694 -4.73611,-0.41 -6.21298,1.39671 -1.88641,2.10485 -1.74731,5.6142 0.2943,7.56699 2.3793,2.23022 6.01086,1.88836 8.15042,-0.41324 1.27289,-1.36929 1.19984,-1.62349 2.23763,-3.02057 0.63582,-0.86011 1.12012,-1.19702 1.78259,-1.33007 1.64059,-0.32947 1.37803,-2.59244 -0.45125,-2.26296 -1.46623,0.26409 -2.39771,1.43411 -3.11358,2.41266 -0.99183,1.35575 -1.6092,2.31632 -2.63353,3.20751 -1.56395,1.24868 -4.17226,0.76204 -5.04538,-1.08519 -1.10446,-1.97578 0.547,-4.67355 2.84688,-4.67368 1.021,-6e-5 1.36525,0.33665 2.32187,0.61621 0.75641,0.22106 1.49892,-0.22318 1.82639,-1.31904 0.60942,-2.03947 1.17815,-3.71907 1.80409,-5.74077 0.458,-1.49161 -1.57293,-2.09452 -2.02865,-0.63795 z" /></g></g></g><g
           style="fill:#ffffff;fill-opacity:1"
           transform="matrix(-1,0,0,1,30.973908,-17.109346)"
           id="g1485" /></g><g
         transform="translate(23.049768,0.042484)"
         id="g1489"
         style="fill:#ffffff;fill-opacity:1"><g
           style="fill:#ffffff;fill-opacity:1"
           transform="translate(-5.9634658,-17.109346)"
           id="g1487" /><g
           style="fill:#ffffff;fill-opacity:1"
           transform="matrix(-1,0,0,1,30.973908,-17.109346)"
           id="g1488" /></g><g
         id="g1490"
         transform="matrix(-0.88991953,0,0,1,71.216013,-11.316169)"
         style="fill:#ffffff;fill-opacity:1" /><g
         id="g1491"
         transform="translate(35.986948,-17.109342)"
         style="fill:#ffffff;fill-opacity:1" /></g></g><style
     type="text/css"
     id="style1941">
	.st0{fill:none;stroke:#000000;stroke-width:2;stroke-linecap:round;stroke-linejoin:round;stroke-miterlimit:10;}
</style><style
     type="text/css"
     id="style1941-0">
	.st0{fill:none;stroke:#000000;stroke-width:2;stroke-linecap:round;stroke-linejoin:round;stroke-miterlimit:10;}
</style><style
     type="text/css"
     id="style1941-7">
	.st0{fill:none;stroke:#000000;stroke-width:2;stroke-linecap:round;stroke-linejoin:round;stroke-miterlimit:10;}
</style><style
     type="text/css"
     id="style22485">
	.st0{fill:none;stroke:#6C3DB7;stroke-width:4;stroke-linecap:round;stroke-linejoin:round;stroke-miterlimit:10;}
	.st1{fill:none;stroke:#1F992A;stroke-width:4;stroke-linecap:round;stroke-linejoin:round;stroke-miterlimit:10;}
	.st2{fill:none;stroke:#6A83BA;stroke-width:4;stroke-linecap:round;stroke-linejoin:round;stroke-miterlimit:10;}
	.st3{fill:#8A8AFF;stroke:#8A8AFF;stroke-width:2;stroke-linecap:round;stroke-linejoin:round;stroke-miterlimit:10;}
	.st4{fill:#6C3DB7;stroke:#6C3DB7;stroke-width:2;stroke-linecap:round;stroke-linejoin:round;stroke-miterlimit:10;}
	.st5{fill:#A576FF;stroke:#A576FF;stroke-width:2;stroke-linecap:round;stroke-linejoin:round;stroke-miterlimit:10;}
	.st6{fill:#F2BB41;stroke:#F2BB41;stroke-width:2;stroke-linecap:round;stroke-linejoin:round;stroke-miterlimit:10;}
	.st7{fill:#E08838;stroke:#E08838;stroke-width:2;stroke-linecap:round;stroke-linejoin:round;stroke-miterlimit:10;}
	.st8{fill:#1F992A;stroke:#1F992A;stroke-width:2;stroke-linecap:round;stroke-linejoin:round;stroke-miterlimit:10;}
	.st9{fill:#5EC11E;stroke:#5EC11E;stroke-width:2;stroke-linecap:round;stroke-linejoin:round;stroke-miterlimit:10;}
	.st10{fill:#E3FAFF;stroke:#E3FAFF;stroke-width:2;stroke-linecap:round;stroke-linejoin:round;stroke-miterlimit:10;}
	.st11{fill:#FF5093;stroke:#FF5093;stroke-width:2;stroke-linecap:round;stroke-linejoin:round;stroke-miterlimit:10;}
	.st12{fill:#B7257F;stroke:#B7257F;stroke-width:2;stroke-linecap:round;stroke-linejoin:round;stroke-miterlimit:10;}
	.st13{fill:#5189E5;stroke:#5189E5;stroke-width:2;stroke-linecap:round;stroke-linejoin:round;stroke-miterlimit:10;}
	.st14{fill:#6EBAFF;stroke:#6EBAFF;stroke-width:2;stroke-linecap:round;stroke-linejoin:round;stroke-miterlimit:10;}
	.st15{fill:#EDD977;stroke:#EDD977;stroke-width:2;stroke-linecap:round;stroke-linejoin:round;stroke-miterlimit:10;}
	.st16{fill:#8C43FF;stroke:#8C43FF;stroke-width:2;stroke-linecap:round;stroke-linejoin:round;stroke-miterlimit:10;}
	.st17{fill:#5252BA;stroke:#5252BA;stroke-width:2;stroke-linecap:round;stroke-linejoin:round;stroke-miterlimit:10;}
	.st18{fill:none;stroke:#E3FAFF;stroke-width:4;stroke-linecap:round;stroke-linejoin:round;stroke-miterlimit:10;}
	.st19{fill:#354C75;stroke:#354C75;stroke-width:2;stroke-linecap:round;stroke-linejoin:round;stroke-miterlimit:10;}
</style><style
     type="text/css"
     id="style23106">
	.st0{fill:none;stroke:#000000;stroke-width:2;stroke-linecap:round;stroke-linejoin:round;stroke-miterlimit:10;}
	.st1{fill:none;stroke:#000000;stroke-width:2;stroke-linejoin:round;stroke-miterlimit:10;}
</style><style
     type="text/css"
     id="style1941-1">
	.st0{fill:none;stroke:#000000;stroke-width:2;stroke-linecap:round;stroke-linejoin:round;stroke-miterlimit:10;}
</style><style
     type="text/css"
     id="style1941-0-8">
	.st0{fill:none;stroke:#000000;stroke-width:2;stroke-linecap:round;stroke-linejoin:round;stroke-miterlimit:10;}
</style><style
     type="text/css"
     id="style1941-7-7">
	.st0{fill:none;stroke:#000000;stroke-width:2;stroke-linecap:round;stroke-linejoin:round;stroke-miterlimit:10;}
</style><style
     type="text/css"
     id="style22485-9">
	.st0{fill:none;stroke:#6C3DB7;stroke-width:4;stroke-linecap:round;stroke-linejoin:round;stroke-miterlimit:10;}
	.st1{fill:none;stroke:#1F992A;stroke-width:4;stroke-linecap:round;stroke-linejoin:round;stroke-miterlimit:10;}
	.st2{fill:none;stroke:#6A83BA;stroke-width:4;stroke-linecap:round;stroke-linejoin:round;stroke-miterlimit:10;}
	.st3{fill:#8A8AFF;stroke:#8A8AFF;stroke-width:2;stroke-linecap:round;stroke-linejoin:round;stroke-miterlimit:10;}
	.st4{fill:#6C3DB7;stroke:#6C3DB7;stroke-width:2;stroke-linecap:round;stroke-linejoin:round;stroke-miterlimit:10;}
	.st5{fill:#A576FF;stroke:#A576FF;stroke-width:2;stroke-linecap:round;stroke-linejoin:round;stroke-miterlimit:10;}
	.st6{fill:#F2BB41;stroke:#F2BB41;stroke-width:2;stroke-linecap:round;stroke-linejoin:round;stroke-miterlimit:10;}
	.st7{fill:#E08838;stroke:#E08838;stroke-width:2;stroke-linecap:round;stroke-linejoin:round;stroke-miterlimit:10;}
	.st8{fill:#1F992A;stroke:#1F992A;stroke-width:2;stroke-linecap:round;stroke-linejoin:round;stroke-miterlimit:10;}
	.st9{fill:#5EC11E;stroke:#5EC11E;stroke-width:2;stroke-linecap:round;stroke-linejoin:round;stroke-miterlimit:10;}
	.st10{fill:#E3FAFF;stroke:#E3FAFF;stroke-width:2;stroke-linecap:round;stroke-linejoin:round;stroke-miterlimit:10;}
	.st11{fill:#FF5093;stroke:#FF5093;stroke-width:2;stroke-linecap:round;stroke-linejoin:round;stroke-miterlimit:10;}
	.st12{fill:#B7257F;stroke:#B7257F;stroke-width:2;stroke-linecap:round;stroke-linejoin:round;stroke-miterlimit:10;}
	.st13{fill:#5189E5;stroke:#5189E5;stroke-width:2;stroke-linecap:round;stroke-linejoin:round;stroke-miterlimit:10;}
	.st14{fill:#6EBAFF;stroke:#6EBAFF;stroke-width:2;stroke-linecap:round;stroke-linejoin:round;stroke-miterlimit:10;}
	.st15{fill:#EDD977;stroke:#EDD977;stroke-width:2;stroke-linecap:round;stroke-linejoin:round;stroke-miterlimit:10;}
	.st16{fill:#8C43FF;stroke:#8C43FF;stroke-width:2;stroke-linecap:round;stroke-linejoin:round;stroke-miterlimit:10;}
	.st17{fill:#5252BA;stroke:#5252BA;stroke-width:2;stroke-linecap:round;stroke-linejoin:round;stroke-miterlimit:10;}
	.st18{fill:none;stroke:#E3FAFF;stroke-width:4;stroke-linecap:round;stroke-linejoin:round;stroke-miterlimit:10;}
	.st19{fill:#354C75;stroke:#354C75;stroke-width:2;stroke-linecap:round;stroke-linejoin:round;stroke-miterlimit:10;}
</style><style
     type="text/css"
     id="style23106-2">
	.st0{fill:none;stroke:#000000;stroke-width:2;stroke-linecap:round;stroke-linejoin:round;stroke-miterlimit:10;}
	.st1{fill:none;stroke:#000000;stroke-width:2;stroke-linejoin:round;stroke-miterlimit:10;}
</style><style
     type="text/css"
     id="style4736">
<![CDATA[
	.st0{fill:#D1D1D1;}
	.st1{fill:#454545;}
]]>
</style><style
     type="text/css"
     id="style1">
	.st0{fill:none;stroke:#000000;stroke-width:2;stroke-linecap:round;stroke-linejoin:round;stroke-miterlimit:10;}
</style><style
     type="text/css"
     id="style1-4">
	.linesandangles_een{fill:#111918;}
</style><style
     type="text/css"
     id="style1-2">
	.st0{fill:#000000;}
</style><style
     type="text/css"
     id="style1-5">
	.st0{fill:#000000;}
</style><style
     type="text/css"
     id="style1-1">
	.st0{fill:#000000;}
</style></svg>
