<?xml version="1.0" encoding="UTF-8" standalone="no"?>
<!-- Created with Inkscape (http://www.inkscape.org/) -->

<svg
   width="256"
   height="255.99998"
   viewBox="0 0 67.733337 67.733329"
   version="1.1"
   id="svg5"
   xml:space="preserve"
   xmlns:xlink="http://www.w3.org/1999/xlink"
   xmlns="http://www.w3.org/2000/svg"
   xmlns:svg="http://www.w3.org/2000/svg"><defs
     id="defs2"><linearGradient
       id="linearGradient1161"><stop
         style="stop-color:#006633;stop-opacity:1;"
         offset="0.0214142"
         id="stop1159" /><stop
         style="stop-color:#0ac248;stop-opacity:1;"
         offset="0.49635792"
         id="stop1160" /><stop
         style="stop-color:#6aed5e;stop-opacity:1;"
         offset="1"
         id="stop1161" /></linearGradient><style
       id="style6568">.cls-1{fill:none;}.cls-2{clip-path:url(#clip-path);}</style><style
       id="style6568-5">.cls-1{fill:none;}.cls-2{clip-path:url(#clip-path);}</style><style
       id="style6568-9">.cls-1{fill:none;}.cls-2{clip-path:url(#clip-path);}</style><style
       id="style22571">.cls-1{fill:#84d0f7;}.cls-2{fill:#aa392d;}.cls-3{fill:#7c211a;}.cls-4{fill:#e59973;}.cls-5{fill:#2d2d2d;}.cls-6{opacity:0.2;}.cls-7{opacity:0.3;}</style><style
       id="style23309">
      .cls-1 {
        fill: none;
      }
    </style><style
       id="style6568-7">.cls-1{fill:none;}.cls-2{clip-path:url(#clip-path);}</style><style
       id="style6568-5-5">.cls-1{fill:none;}.cls-2{clip-path:url(#clip-path);}</style><style
       id="style6568-9-3">.cls-1{fill:none;}.cls-2{clip-path:url(#clip-path);}</style><style
       id="style22571-5">.cls-1{fill:#84d0f7;}.cls-2{fill:#aa392d;}.cls-3{fill:#7c211a;}.cls-4{fill:#e59973;}.cls-5{fill:#2d2d2d;}.cls-6{opacity:0.2;}.cls-7{opacity:0.3;}</style><style
       id="style23309-6">
      .cls-1 {
        fill: none;
      }
    </style><style
       id="style1-9">
      .cls-1 {
        fill: none;
      }
    </style><linearGradient
       xlink:href="#linearGradient1161"
       id="linearGradient1622"
       gradientUnits="userSpaceOnUse"
       gradientTransform="matrix(1.020428,0,0,1.0204279,566.10635,-293.23576)"
       x1="-105.32898"
       y1="771.54901"
       x2="-40.311863"
       y2="706.53192" /></defs><g
     id="layer1"
     transform="translate(-456.17789,-426.23229)"><title
       id="title15">digital nomad</title><rect
       style="fill:url(#linearGradient1622);stroke-width:4.24654"
       id="rect1492"
       width="66.145836"
       height="66.145836"
       x="457.0531"
       y="426.95929"
       rx="13.229167"
       ry="13.229167" /><g
       id="g1535"
       transform="matrix(2.2354584,0,0,2.2354584,207.69182,-130.38616)"
       style="fill:#ffffff;fill-opacity:0.350116"><g
         id="g1529"
         transform="matrix(1.0023072,0,0,1.0032399,-1.9894194,5.1618383)"
         style="fill:#ffffff;fill-opacity:0.350116"><g
           style="opacity:0.994;fill:#ffffff;fill-opacity:0.350116"
           transform="matrix(0.99968948,0,0,0.99968948,-5.9491148,-17.011501)"
           id="g1527"><g
             id="g1526"
             transform="matrix(1.1352941,0,0,1.1342387,7.6805582,212.07015)"
             style="fill:#ffffff;fill-opacity:0.350116"><g
               id="g1493"
               transform="translate(0,-9.0412)"
               style="fill:#ffffff;fill-opacity:0.350116" /><g
               id="g1525"
               transform="translate(0,-200.20787)"
               style="fill:#ffffff;fill-opacity:0.350116"><g
                 transform="translate(23.049768,0.042484)"
                 id="g1496"
                 style="fill:#ffffff;fill-opacity:0.350116"><g
                   style="fill:#ffffff;fill-opacity:0.350116"
                   transform="translate(-5.9634658,-17.109346)"
                   id="g1494" /><g
                   style="fill:#ffffff;fill-opacity:0.350116"
                   transform="matrix(-1,0,0,1,30.973908,-17.109346)"
                   id="g1495" /></g><g
                 id="g1497"
                 transform="matrix(-0.88991953,0,0,1,71.216013,-11.316169)"
                 style="fill:#ffffff;fill-opacity:0.350116" /><g
                 id="g1498"
                 transform="translate(35.986948,-17.109342)"
                 style="fill:#ffffff;fill-opacity:0.350116" /><g
                 id="g1512"
                 transform="translate(16.201002,-2.8134767)"
                 style="fill:#ffffff;fill-opacity:0.350116"><g
                   style="fill:#ffffff;fill-opacity:0.350116"
                   transform="translate(-5.9634658,-17.109346)"
                   id="g1510"><g
                     id="g1509"
                     transform="matrix(0.83698503,0,0,0.83698503,8.3722867,213.30384)"
                     style="fill:#ffffff;fill-opacity:0.350116"><g
                       id="g1499"
                       transform="translate(-1.205199,-10.600084)"
                       style="fill:#ffffff;fill-opacity:0.350116" /><g
                       id="g1508"
                       transform="translate(-1.205199,-201.76675)"
                       style="fill:#ffffff;fill-opacity:0.350116"><g
                         id="g1502"
                         transform="matrix(1.0023072,0,0,1.0032399,-1.9894194,5.1618383)"
                         style="fill:#ffffff;fill-opacity:0.350116"><g
                           style="opacity:0.994;fill:#ffffff;fill-opacity:0.350116"
                           transform="matrix(0.99968948,0,0,0.99968948,-5.9491148,-17.011501)"
                           id="g1500" /><g
                           style="fill:#ffffff;fill-opacity:0.350116"
                           transform="matrix(-1,0,0,1,30.973908,-17.109346)"
                           id="g1501" /></g><g
                         transform="translate(23.049768,0.042484)"
                         id="g1505"
                         style="fill:#ffffff;fill-opacity:0.350116"><g
                           style="fill:#ffffff;fill-opacity:0.350116"
                           transform="translate(-5.9634658,-17.109346)"
                           id="g1503" /><g
                           style="fill:#ffffff;fill-opacity:0.350116"
                           transform="matrix(-1,0,0,1,30.973908,-17.109346)"
                           id="g1504" /></g><g
                         id="g1506"
                         transform="matrix(-0.88991953,0,0,1,71.216013,-11.316169)"
                         style="fill:#ffffff;fill-opacity:0.350116" /><g
                         id="g1507"
                         transform="translate(35.986948,-17.109342)"
                         style="fill:#ffffff;fill-opacity:0.350116" /></g></g></g><g
                   style="fill:#ffffff;fill-opacity:0.350116"
                   transform="matrix(-1,0,0,1,30.973908,-17.109346)"
                   id="g1511" /></g><g
                 id="g1524"
                 transform="matrix(1.0194999,0,0,1.0194999,89.779609,94.402107)"
                 style="fill:#ffffff;fill-opacity:0.350116"><g
                   id="g1523"
                   transform="translate(-1.9577292,5.1403322)"
                   style="opacity:1;fill:#ffffff;fill-opacity:0.350116"><g
                     style="fill:#ffffff;fill-opacity:0.350116"
                     transform="translate(-6.2035734,-17.109346)"
                     id="g1521"><g
                       id="g1513"
                       transform="matrix(0.83698503,0,0,0.83698503,7.3635532,204.43173)"
                       style="fill:#ffffff;fill-opacity:0.350116" /><g
                       transform="matrix(0.83698503,0,0,0.83698503,26.655864,44.463649)"
                       id="g1516"
                       style="fill:#ffffff;fill-opacity:0.350116"><g
                         style="fill:#ffffff;fill-opacity:0.350116"
                         transform="translate(-5.9634658,-17.109346)"
                         id="g1514" /><g
                         style="fill:#ffffff;fill-opacity:0.350116"
                         transform="matrix(-1,0,0,1,30.973908,-17.109346)"
                         id="g1515" /></g><g
                       id="g1517"
                       transform="matrix(-0.74484932,0,0,0.83698503,66.97029,34.956627)"
                       style="fill:#ffffff;fill-opacity:0.350116" /><g
                       id="g1518"
                       transform="matrix(0.83698503,0,0,0.83698503,37.48409,30.107828)"
                       style="fill:#ffffff;fill-opacity:0.350116" /><g
                       id="g1520"
                       transform="matrix(0.83891612,0,0,0.83969678,1.6492008,19.92036)"
                       style="fill:#ffffff;fill-opacity:0.350116"><g
                         style="fill:#ffffff;fill-opacity:0.350116"
                         transform="matrix(-1,0,0,1,30.973908,-17.109346)"
                         id="g1519" /></g></g><g
                     style="fill:#ffffff;fill-opacity:0.350116"
                     transform="matrix(-1,0,0,1,30.973908,-17.109346)"
                     id="g1522" /></g></g><path
                 id="path1524"
                 style="color:#000000;fill:#ffffff;fill-opacity:0.350116;stroke-width:1.18253;-inkscape-stroke:none"
                 d="m 114.66418,247.96371 c -0.10009,0.2979 -0.22401,0.65346 -0.52877,1.5027 -0.42087,1.26212 -0.81329,2.52628 -1.25003,3.7807 -2.10952,-0.77694 -4.73611,-0.41 -6.21298,1.39671 -1.88641,2.10485 -1.74731,5.6142 0.2943,7.56699 2.3793,2.23022 6.01086,1.88836 8.15042,-0.41324 1.27289,-1.36929 1.19984,-1.62349 2.23763,-3.02057 0.63582,-0.86011 1.12012,-1.19702 1.78259,-1.33007 1.64059,-0.32947 1.37803,-2.59244 -0.45125,-2.26296 -1.46623,0.26409 -2.39771,1.43411 -3.11358,2.41266 -0.99183,1.35575 -1.6092,2.31632 -2.63353,3.20751 -1.56395,1.24868 -4.17226,0.76204 -5.04538,-1.08519 -1.10446,-1.97578 0.547,-4.67355 2.84688,-4.67368 1.021,-6e-5 1.36525,0.33665 2.32187,0.61621 0.75641,0.22106 1.49892,-0.22318 1.82639,-1.31904 0.60942,-2.03947 1.17815,-3.71907 1.80409,-5.74077 0.458,-1.49161 -1.57293,-2.09452 -2.02865,-0.63795 z" /></g></g></g><g
           style="fill:#ffffff;fill-opacity:0.350116"
           transform="matrix(-1,0,0,1,30.973908,-17.109346)"
           id="g1528" /></g><g
         transform="translate(23.049768,0.042484)"
         id="g1532"
         style="fill:#ffffff;fill-opacity:0.350116"><g
           style="fill:#ffffff;fill-opacity:0.350116"
           transform="translate(-5.9634658,-17.109346)"
           id="g1530" /><g
           style="fill:#ffffff;fill-opacity:0.350116"
           transform="matrix(-1,0,0,1,30.973908,-17.109346)"
           id="g1531" /></g><g
         id="g1533"
         transform="matrix(-0.88991953,0,0,1,71.216013,-11.316169)"
         style="fill:#ffffff;fill-opacity:0.350116" /><g
         id="g1534"
         transform="translate(35.986948,-17.109342)"
         style="fill:#ffffff;fill-opacity:0.350116" /></g><g
       id="g1579"
       transform="matrix(2.2354584,0,0,2.2354584,205.57189,-130.99288)"
       style="fill:#ffffff;fill-opacity:0.490941"><g
         id="g1573"
         transform="matrix(1.0023072,0,0,1.0032399,-1.9894194,5.1618383)"
         style="fill:#ffffff;fill-opacity:0.490941"><g
           style="opacity:0.994;fill:#ffffff;fill-opacity:0.490941"
           transform="matrix(0.99968948,0,0,0.99968948,-5.9491148,-17.011501)"
           id="g1571"><g
             id="g1570"
             transform="matrix(1.1352941,0,0,1.1342387,7.6805582,212.07015)"
             style="fill:#ffffff;fill-opacity:0.490941"><g
               id="g1536"
               transform="translate(0,-9.0412)"
               style="fill:#ffffff;fill-opacity:0.490941" /><g
               id="g1569"
               transform="translate(0,-200.20787)"
               style="fill:#ffffff;fill-opacity:0.490941"><g
                 transform="translate(23.049768,0.042484)"
                 id="g1539"
                 style="fill:#ffffff;fill-opacity:0.490941"><g
                   style="fill:#ffffff;fill-opacity:0.490941"
                   transform="translate(-5.9634658,-17.109346)"
                   id="g1537" /><g
                   style="fill:#ffffff;fill-opacity:0.490941"
                   transform="matrix(-1,0,0,1,30.973908,-17.109346)"
                   id="g1538" /></g><g
                 id="g1540"
                 transform="matrix(-0.88991953,0,0,1,71.216013,-11.316169)"
                 style="fill:#ffffff;fill-opacity:0.490941" /><g
                 id="g1541"
                 transform="translate(35.986948,-17.109342)"
                 style="fill:#ffffff;fill-opacity:0.490941" /><g
                 id="g1556"
                 transform="translate(16.201002,-2.8134767)"
                 style="fill:#ffffff;fill-opacity:0.490941"><g
                   style="fill:#ffffff;fill-opacity:0.490941"
                   transform="translate(-5.9634658,-17.109346)"
                   id="g1554"><g
                     id="g1553"
                     transform="matrix(0.83698503,0,0,0.83698503,8.3722867,213.30384)"
                     style="fill:#ffffff;fill-opacity:0.490941"><g
                       id="g1542"
                       transform="translate(-1.205199,-10.600084)"
                       style="fill:#ffffff;fill-opacity:0.490941" /><g
                       id="g1552"
                       transform="translate(-1.205199,-201.76675)"
                       style="fill:#ffffff;fill-opacity:0.490941"><g
                         id="g1545"
                         transform="matrix(1.0023072,0,0,1.0032399,-1.9894194,5.1618383)"
                         style="fill:#ffffff;fill-opacity:0.490941"><g
                           style="opacity:0.994;fill:#ffffff;fill-opacity:0.490941"
                           transform="matrix(0.99968948,0,0,0.99968948,-5.9491148,-17.011501)"
                           id="g1543" /><g
                           style="fill:#ffffff;fill-opacity:0.490941"
                           transform="matrix(-1,0,0,1,30.973908,-17.109346)"
                           id="g1544" /></g><g
                         transform="translate(23.049768,0.042484)"
                         id="g1548"
                         style="fill:#ffffff;fill-opacity:0.490941"><g
                           style="fill:#ffffff;fill-opacity:0.490941"
                           transform="translate(-5.9634658,-17.109346)"
                           id="g1546" /><g
                           style="fill:#ffffff;fill-opacity:0.490941"
                           transform="matrix(-1,0,0,1,30.973908,-17.109346)"
                           id="g1547" /></g><g
                         id="g1549"
                         transform="matrix(-0.88991953,0,0,1,71.216013,-11.316169)"
                         style="fill:#ffffff;fill-opacity:0.490941" /><g
                         id="g1550"
                         transform="translate(35.986948,-17.109342)"
                         style="fill:#ffffff;fill-opacity:0.490941" /></g></g></g><g
                   style="fill:#ffffff;fill-opacity:0.490941"
                   transform="matrix(-1,0,0,1,30.973908,-17.109346)"
                   id="g1555" /></g><g
                 id="g1568"
                 transform="matrix(1.0194999,0,0,1.0194999,89.779609,94.402107)"
                 style="fill:#ffffff;fill-opacity:0.490941"><g
                   id="g1567"
                   transform="translate(-1.9577292,5.1403322)"
                   style="opacity:1;fill:#ffffff;fill-opacity:0.490941"><g
                     style="fill:#ffffff;fill-opacity:0.490941"
                     transform="translate(-6.2035734,-17.109346)"
                     id="g1565"><g
                       id="g1557"
                       transform="matrix(0.83698503,0,0,0.83698503,7.3635532,204.43173)"
                       style="fill:#ffffff;fill-opacity:0.490941" /><g
                       transform="matrix(0.83698503,0,0,0.83698503,26.655864,44.463649)"
                       id="g1560"
                       style="fill:#ffffff;fill-opacity:0.490941"><g
                         style="fill:#ffffff;fill-opacity:0.490941"
                         transform="translate(-5.9634658,-17.109346)"
                         id="g1558" /><g
                         style="fill:#ffffff;fill-opacity:0.490941"
                         transform="matrix(-1,0,0,1,30.973908,-17.109346)"
                         id="g1559" /></g><g
                       id="g1561"
                       transform="matrix(-0.74484932,0,0,0.83698503,66.97029,34.956627)"
                       style="fill:#ffffff;fill-opacity:0.490941" /><g
                       id="g1562"
                       transform="matrix(0.83698503,0,0,0.83698503,37.48409,30.107828)"
                       style="fill:#ffffff;fill-opacity:0.490941" /><g
                       id="g1564"
                       transform="matrix(0.83891612,0,0,0.83969678,1.6492008,19.92036)"
                       style="fill:#ffffff;fill-opacity:0.490941"><g
                         style="fill:#ffffff;fill-opacity:0.490941"
                         transform="matrix(-1,0,0,1,30.973908,-17.109346)"
                         id="g1563" /></g></g><g
                     style="fill:#ffffff;fill-opacity:0.490941"
                     transform="matrix(-1,0,0,1,30.973908,-17.109346)"
                     id="g1566" /></g></g><path
                 id="path1568"
                 style="color:#000000;fill:#ffffff;fill-opacity:0.490941;stroke-width:1.18253;-inkscape-stroke:none"
                 d="m 114.66418,247.96371 c -0.10009,0.2979 -0.22401,0.65346 -0.52877,1.5027 -0.42087,1.26212 -0.81329,2.52628 -1.25003,3.7807 -2.10952,-0.77694 -4.73611,-0.41 -6.21298,1.39671 -1.88641,2.10485 -1.74731,5.6142 0.2943,7.56699 2.3793,2.23022 6.01086,1.88836 8.15042,-0.41324 1.27289,-1.36929 1.19984,-1.62349 2.23763,-3.02057 0.63582,-0.86011 1.12012,-1.19702 1.78259,-1.33007 1.64059,-0.32947 1.37803,-2.59244 -0.45125,-2.26296 -1.46623,0.26409 -2.39771,1.43411 -3.11358,2.41266 -0.99183,1.35575 -1.6092,2.31632 -2.63353,3.20751 -1.56395,1.24868 -4.17226,0.76204 -5.04538,-1.08519 -1.10446,-1.97578 0.547,-4.67355 2.84688,-4.67368 1.021,-6e-5 1.36525,0.33665 2.32187,0.61621 0.75641,0.22106 1.49892,-0.22318 1.82639,-1.31904 0.60942,-2.03947 1.17815,-3.71907 1.80409,-5.74077 0.458,-1.49161 -1.57293,-2.09452 -2.02865,-0.63795 z" /></g></g></g><g
           style="fill:#ffffff;fill-opacity:0.490941"
           transform="matrix(-1,0,0,1,30.973908,-17.109346)"
           id="g1572" /></g><g
         transform="translate(23.049768,0.042484)"
         id="g1576"
         style="fill:#ffffff;fill-opacity:0.490941"><g
           style="fill:#ffffff;fill-opacity:0.490941"
           transform="translate(-5.9634658,-17.109346)"
           id="g1574" /><g
           style="fill:#ffffff;fill-opacity:0.490941"
           transform="matrix(-1,0,0,1,30.973908,-17.109346)"
           id="g1575" /></g><g
         id="g1577"
         transform="matrix(-0.88991953,0,0,1,71.216013,-11.316169)"
         style="fill:#ffffff;fill-opacity:0.490941" /><g
         id="g1578"
         transform="translate(35.986948,-17.109342)"
         style="fill:#ffffff;fill-opacity:0.490941" /></g><g
       id="g1622"
       transform="matrix(2.2354584,0,0,2.2354584,202.79505,-131.64538)"
       style="fill:#ffffff;fill-opacity:1"><g
         id="g1616"
         transform="matrix(1.0023072,0,0,1.0032399,-1.9894194,5.1618383)"
         style="fill:#ffffff;fill-opacity:1"><g
           style="opacity:0.994;fill:#ffffff;fill-opacity:1"
           transform="matrix(0.99968948,0,0,0.99968948,-5.9491148,-17.011501)"
           id="g1614"><g
             id="g1613"
             transform="matrix(1.1352941,0,0,1.1342387,7.6805582,212.07015)"
             style="fill:#ffffff;fill-opacity:1"><g
               id="g1580"
               transform="translate(0,-9.0412)"
               style="fill:#ffffff;fill-opacity:1" /><g
               id="g1612"
               transform="translate(0,-200.20787)"
               style="fill:#ffffff;fill-opacity:1"><g
                 transform="translate(23.049768,0.042484)"
                 id="g1583"
                 style="fill:#ffffff;fill-opacity:1"><g
                   style="fill:#ffffff;fill-opacity:1"
                   transform="translate(-5.9634658,-17.109346)"
                   id="g1581" /><g
                   style="fill:#ffffff;fill-opacity:1"
                   transform="matrix(-1,0,0,1,30.973908,-17.109346)"
                   id="g1582" /></g><g
                 id="g1584"
                 transform="matrix(-0.88991953,0,0,1,71.216013,-11.316169)"
                 style="fill:#ffffff;fill-opacity:1" /><g
                 id="g1585"
                 transform="translate(35.986948,-17.109342)"
                 style="fill:#ffffff;fill-opacity:1" /><g
                 id="g1599"
                 transform="translate(16.201002,-2.8134767)"
                 style="fill:#ffffff;fill-opacity:1"><g
                   style="fill:#ffffff;fill-opacity:1"
                   transform="translate(-5.9634658,-17.109346)"
                   id="g1597"><g
                     id="g1596"
                     transform="matrix(0.83698503,0,0,0.83698503,8.3722867,213.30384)"
                     style="fill:#ffffff;fill-opacity:1"><g
                       id="g1586"
                       transform="translate(-1.205199,-10.600084)"
                       style="fill:#ffffff;fill-opacity:1" /><g
                       id="g1595"
                       transform="translate(-1.205199,-201.76675)"
                       style="fill:#ffffff;fill-opacity:1"><g
                         id="g1589"
                         transform="matrix(1.0023072,0,0,1.0032399,-1.9894194,5.1618383)"
                         style="fill:#ffffff;fill-opacity:1"><g
                           style="opacity:0.994;fill:#ffffff;fill-opacity:1"
                           transform="matrix(0.99968948,0,0,0.99968948,-5.9491148,-17.011501)"
                           id="g1587" /><g
                           style="fill:#ffffff;fill-opacity:1"
                           transform="matrix(-1,0,0,1,30.973908,-17.109346)"
                           id="g1588" /></g><g
                         transform="translate(23.049768,0.042484)"
                         id="g1592"
                         style="fill:#ffffff;fill-opacity:1"><g
                           style="fill:#ffffff;fill-opacity:1"
                           transform="translate(-5.9634658,-17.109346)"
                           id="g1590" /><g
                           style="fill:#ffffff;fill-opacity:1"
                           transform="matrix(-1,0,0,1,30.973908,-17.109346)"
                           id="g1591" /></g><g
                         id="g1593"
                         transform="matrix(-0.88991953,0,0,1,71.216013,-11.316169)"
                         style="fill:#ffffff;fill-opacity:1" /><g
                         id="g1594"
                         transform="translate(35.986948,-17.109342)"
                         style="fill:#ffffff;fill-opacity:1" /></g></g></g><g
                   style="fill:#ffffff;fill-opacity:1"
                   transform="matrix(-1,0,0,1,30.973908,-17.109346)"
                   id="g1598" /></g><g
                 id="g1611"
                 transform="matrix(1.0194999,0,0,1.0194999,89.779609,94.402107)"
                 style="fill:#ffffff;fill-opacity:1"><g
                   id="g1610"
                   transform="translate(-1.9577292,5.1403322)"
                   style="opacity:1;fill:#ffffff;fill-opacity:1"><g
                     style="fill:#ffffff;fill-opacity:1"
                     transform="translate(-6.2035734,-17.109346)"
                     id="g1608"><g
                       id="g1600"
                       transform="matrix(0.83698503,0,0,0.83698503,7.3635532,204.43173)"
                       style="fill:#ffffff;fill-opacity:1" /><g
                       transform="matrix(0.83698503,0,0,0.83698503,26.655864,44.463649)"
                       id="g1603"
                       style="fill:#ffffff;fill-opacity:1"><g
                         style="fill:#ffffff;fill-opacity:1"
                         transform="translate(-5.9634658,-17.109346)"
                         id="g1601" /><g
                         style="fill:#ffffff;fill-opacity:1"
                         transform="matrix(-1,0,0,1,30.973908,-17.109346)"
                         id="g1602" /></g><g
                       id="g1604"
                       transform="matrix(-0.74484932,0,0,0.83698503,66.97029,34.956627)"
                       style="fill:#ffffff;fill-opacity:1" /><g
                       id="g1605"
                       transform="matrix(0.83698503,0,0,0.83698503,37.48409,30.107828)"
                       style="fill:#ffffff;fill-opacity:1" /><g
                       id="g1607"
                       transform="matrix(0.83891612,0,0,0.83969678,1.6492008,19.92036)"
                       style="fill:#ffffff;fill-opacity:1"><g
                         style="fill:#ffffff;fill-opacity:1"
                         transform="matrix(-1,0,0,1,30.973908,-17.109346)"
                         id="g1606" /></g></g><g
                     style="fill:#ffffff;fill-opacity:1"
                     transform="matrix(-1,0,0,1,30.973908,-17.109346)"
                     id="g1609" /></g></g><path
                 id="path1611"
                 style="color:#000000;fill:#ffffff;fill-opacity:1;stroke-width:1.18253;-inkscape-stroke:none"
                 d="m 114.66418,247.96371 c -0.10009,0.2979 -0.22401,0.65346 -0.52877,1.5027 -0.42087,1.26212 -0.81329,2.52628 -1.25003,3.7807 -2.10952,-0.77694 -4.73611,-0.41 -6.21298,1.39671 -1.88641,2.10485 -1.74731,5.6142 0.2943,7.56699 2.3793,2.23022 6.01086,1.88836 8.15042,-0.41324 1.27289,-1.36929 1.19984,-1.62349 2.23763,-3.02057 0.63582,-0.86011 1.12012,-1.19702 1.78259,-1.33007 1.64059,-0.32947 1.37803,-2.59244 -0.45125,-2.26296 -1.46623,0.26409 -2.39771,1.43411 -3.11358,2.41266 -0.99183,1.35575 -1.6092,2.31632 -2.63353,3.20751 -1.56395,1.24868 -4.17226,0.76204 -5.04538,-1.08519 -1.10446,-1.97578 0.547,-4.67355 2.84688,-4.67368 1.021,-6e-5 1.36525,0.33665 2.32187,0.61621 0.75641,0.22106 1.49892,-0.22318 1.82639,-1.31904 0.60942,-2.03947 1.17815,-3.71907 1.80409,-5.74077 0.458,-1.49161 -1.57293,-2.09452 -2.02865,-0.63795 z" /></g></g></g><g
           style="fill:#ffffff;fill-opacity:1"
           transform="matrix(-1,0,0,1,30.973908,-17.109346)"
           id="g1615" /></g><g
         transform="translate(23.049768,0.042484)"
         id="g1619"
         style="fill:#ffffff;fill-opacity:1"><g
           style="fill:#ffffff;fill-opacity:1"
           transform="translate(-5.9634658,-17.109346)"
           id="g1617" /><g
           style="fill:#ffffff;fill-opacity:1"
           transform="matrix(-1,0,0,1,30.973908,-17.109346)"
           id="g1618" /></g><g
         id="g1620"
         transform="matrix(-0.88991953,0,0,1,71.216013,-11.316169)"
         style="fill:#ffffff;fill-opacity:1" /><g
         id="g1621"
         transform="translate(35.986948,-17.109342)"
         style="fill:#ffffff;fill-opacity:1" /></g></g><style
     type="text/css"
     id="style1941">
	.st0{fill:none;stroke:#000000;stroke-width:2;stroke-linecap:round;stroke-linejoin:round;stroke-miterlimit:10;}
</style><style
     type="text/css"
     id="style1941-0">
	.st0{fill:none;stroke:#000000;stroke-width:2;stroke-linecap:round;stroke-linejoin:round;stroke-miterlimit:10;}
</style><style
     type="text/css"
     id="style1941-7">
	.st0{fill:none;stroke:#000000;stroke-width:2;stroke-linecap:round;stroke-linejoin:round;stroke-miterlimit:10;}
</style><style
     type="text/css"
     id="style22485">
	.st0{fill:none;stroke:#6C3DB7;stroke-width:4;stroke-linecap:round;stroke-linejoin:round;stroke-miterlimit:10;}
	.st1{fill:none;stroke:#1F992A;stroke-width:4;stroke-linecap:round;stroke-linejoin:round;stroke-miterlimit:10;}
	.st2{fill:none;stroke:#6A83BA;stroke-width:4;stroke-linecap:round;stroke-linejoin:round;stroke-miterlimit:10;}
	.st3{fill:#8A8AFF;stroke:#8A8AFF;stroke-width:2;stroke-linecap:round;stroke-linejoin:round;stroke-miterlimit:10;}
	.st4{fill:#6C3DB7;stroke:#6C3DB7;stroke-width:2;stroke-linecap:round;stroke-linejoin:round;stroke-miterlimit:10;}
	.st5{fill:#A576FF;stroke:#A576FF;stroke-width:2;stroke-linecap:round;stroke-linejoin:round;stroke-miterlimit:10;}
	.st6{fill:#F2BB41;stroke:#F2BB41;stroke-width:2;stroke-linecap:round;stroke-linejoin:round;stroke-miterlimit:10;}
	.st7{fill:#E08838;stroke:#E08838;stroke-width:2;stroke-linecap:round;stroke-linejoin:round;stroke-miterlimit:10;}
	.st8{fill:#1F992A;stroke:#1F992A;stroke-width:2;stroke-linecap:round;stroke-linejoin:round;stroke-miterlimit:10;}
	.st9{fill:#5EC11E;stroke:#5EC11E;stroke-width:2;stroke-linecap:round;stroke-linejoin:round;stroke-miterlimit:10;}
	.st10{fill:#E3FAFF;stroke:#E3FAFF;stroke-width:2;stroke-linecap:round;stroke-linejoin:round;stroke-miterlimit:10;}
	.st11{fill:#FF5093;stroke:#FF5093;stroke-width:2;stroke-linecap:round;stroke-linejoin:round;stroke-miterlimit:10;}
	.st12{fill:#B7257F;stroke:#B7257F;stroke-width:2;stroke-linecap:round;stroke-linejoin:round;stroke-miterlimit:10;}
	.st13{fill:#5189E5;stroke:#5189E5;stroke-width:2;stroke-linecap:round;stroke-linejoin:round;stroke-miterlimit:10;}
	.st14{fill:#6EBAFF;stroke:#6EBAFF;stroke-width:2;stroke-linecap:round;stroke-linejoin:round;stroke-miterlimit:10;}
	.st15{fill:#EDD977;stroke:#EDD977;stroke-width:2;stroke-linecap:round;stroke-linejoin:round;stroke-miterlimit:10;}
	.st16{fill:#8C43FF;stroke:#8C43FF;stroke-width:2;stroke-linecap:round;stroke-linejoin:round;stroke-miterlimit:10;}
	.st17{fill:#5252BA;stroke:#5252BA;stroke-width:2;stroke-linecap:round;stroke-linejoin:round;stroke-miterlimit:10;}
	.st18{fill:none;stroke:#E3FAFF;stroke-width:4;stroke-linecap:round;stroke-linejoin:round;stroke-miterlimit:10;}
	.st19{fill:#354C75;stroke:#354C75;stroke-width:2;stroke-linecap:round;stroke-linejoin:round;stroke-miterlimit:10;}
</style><style
     type="text/css"
     id="style23106">
	.st0{fill:none;stroke:#000000;stroke-width:2;stroke-linecap:round;stroke-linejoin:round;stroke-miterlimit:10;}
	.st1{fill:none;stroke:#000000;stroke-width:2;stroke-linejoin:round;stroke-miterlimit:10;}
</style><style
     type="text/css"
     id="style1941-1">
	.st0{fill:none;stroke:#000000;stroke-width:2;stroke-linecap:round;stroke-linejoin:round;stroke-miterlimit:10;}
</style><style
     type="text/css"
     id="style1941-0-8">
	.st0{fill:none;stroke:#000000;stroke-width:2;stroke-linecap:round;stroke-linejoin:round;stroke-miterlimit:10;}
</style><style
     type="text/css"
     id="style1941-7-7">
	.st0{fill:none;stroke:#000000;stroke-width:2;stroke-linecap:round;stroke-linejoin:round;stroke-miterlimit:10;}
</style><style
     type="text/css"
     id="style22485-9">
	.st0{fill:none;stroke:#6C3DB7;stroke-width:4;stroke-linecap:round;stroke-linejoin:round;stroke-miterlimit:10;}
	.st1{fill:none;stroke:#1F992A;stroke-width:4;stroke-linecap:round;stroke-linejoin:round;stroke-miterlimit:10;}
	.st2{fill:none;stroke:#6A83BA;stroke-width:4;stroke-linecap:round;stroke-linejoin:round;stroke-miterlimit:10;}
	.st3{fill:#8A8AFF;stroke:#8A8AFF;stroke-width:2;stroke-linecap:round;stroke-linejoin:round;stroke-miterlimit:10;}
	.st4{fill:#6C3DB7;stroke:#6C3DB7;stroke-width:2;stroke-linecap:round;stroke-linejoin:round;stroke-miterlimit:10;}
	.st5{fill:#A576FF;stroke:#A576FF;stroke-width:2;stroke-linecap:round;stroke-linejoin:round;stroke-miterlimit:10;}
	.st6{fill:#F2BB41;stroke:#F2BB41;stroke-width:2;stroke-linecap:round;stroke-linejoin:round;stroke-miterlimit:10;}
	.st7{fill:#E08838;stroke:#E08838;stroke-width:2;stroke-linecap:round;stroke-linejoin:round;stroke-miterlimit:10;}
	.st8{fill:#1F992A;stroke:#1F992A;stroke-width:2;stroke-linecap:round;stroke-linejoin:round;stroke-miterlimit:10;}
	.st9{fill:#5EC11E;stroke:#5EC11E;stroke-width:2;stroke-linecap:round;stroke-linejoin:round;stroke-miterlimit:10;}
	.st10{fill:#E3FAFF;stroke:#E3FAFF;stroke-width:2;stroke-linecap:round;stroke-linejoin:round;stroke-miterlimit:10;}
	.st11{fill:#FF5093;stroke:#FF5093;stroke-width:2;stroke-linecap:round;stroke-linejoin:round;stroke-miterlimit:10;}
	.st12{fill:#B7257F;stroke:#B7257F;stroke-width:2;stroke-linecap:round;stroke-linejoin:round;stroke-miterlimit:10;}
	.st13{fill:#5189E5;stroke:#5189E5;stroke-width:2;stroke-linecap:round;stroke-linejoin:round;stroke-miterlimit:10;}
	.st14{fill:#6EBAFF;stroke:#6EBAFF;stroke-width:2;stroke-linecap:round;stroke-linejoin:round;stroke-miterlimit:10;}
	.st15{fill:#EDD977;stroke:#EDD977;stroke-width:2;stroke-linecap:round;stroke-linejoin:round;stroke-miterlimit:10;}
	.st16{fill:#8C43FF;stroke:#8C43FF;stroke-width:2;stroke-linecap:round;stroke-linejoin:round;stroke-miterlimit:10;}
	.st17{fill:#5252BA;stroke:#5252BA;stroke-width:2;stroke-linecap:round;stroke-linejoin:round;stroke-miterlimit:10;}
	.st18{fill:none;stroke:#E3FAFF;stroke-width:4;stroke-linecap:round;stroke-linejoin:round;stroke-miterlimit:10;}
	.st19{fill:#354C75;stroke:#354C75;stroke-width:2;stroke-linecap:round;stroke-linejoin:round;stroke-miterlimit:10;}
</style><style
     type="text/css"
     id="style23106-2">
	.st0{fill:none;stroke:#000000;stroke-width:2;stroke-linecap:round;stroke-linejoin:round;stroke-miterlimit:10;}
	.st1{fill:none;stroke:#000000;stroke-width:2;stroke-linejoin:round;stroke-miterlimit:10;}
</style><style
     type="text/css"
     id="style4736">
<![CDATA[
	.st0{fill:#D1D1D1;}
	.st1{fill:#454545;}
]]>
</style><style
     type="text/css"
     id="style1">
	.st0{fill:none;stroke:#000000;stroke-width:2;stroke-linecap:round;stroke-linejoin:round;stroke-miterlimit:10;}
</style><style
     type="text/css"
     id="style1-4">
	.linesandangles_een{fill:#111918;}
</style><style
     type="text/css"
     id="style1-2">
	.st0{fill:#000000;}
</style><style
     type="text/css"
     id="style1-5">
	.st0{fill:#000000;}
</style><style
     type="text/css"
     id="style1-1">
	.st0{fill:#000000;}
</style></svg>
