<?xml version="1.0" encoding="UTF-8" standalone="no"?>
<!-- Created with Inkscape (http://www.inkscape.org/) -->

<svg
   width="960"
   height="260"
   viewBox="0 0 254.00001 68.791666"
   version="1.1"
   id="svg5"
   xml:space="preserve"
   xmlns:xlink="http://www.w3.org/1999/xlink"
   xmlns="http://www.w3.org/2000/svg"
   xmlns:svg="http://www.w3.org/2000/svg"><defs
     id="defs2"><linearGradient
       id="linearGradient1161"><stop
         style="stop-color:#006633;stop-opacity:1;"
         offset="0.0214142"
         id="stop1159" /><stop
         style="stop-color:#0ac248;stop-opacity:1;"
         offset="0.49635792"
         id="stop1160" /><stop
         style="stop-color:#6aed5e;stop-opacity:1;"
         offset="1"
         id="stop1161" /></linearGradient><linearGradient
       id="linearGradient280"><stop
         style="stop-color:#9edbfa;stop-opacity:1;"
         offset="0"
         id="stop279" /><stop
         style="stop-color:#ffffff;stop-opacity:1;"
         offset="0.31913307"
         id="stop280" /></linearGradient><style
       id="style6568">.cls-1{fill:none;}.cls-2{clip-path:url(#clip-path);}</style><style
       id="style6568-5">.cls-1{fill:none;}.cls-2{clip-path:url(#clip-path);}</style><style
       id="style6568-9">.cls-1{fill:none;}.cls-2{clip-path:url(#clip-path);}</style><style
       id="style22571">.cls-1{fill:#84d0f7;}.cls-2{fill:#aa392d;}.cls-3{fill:#7c211a;}.cls-4{fill:#e59973;}.cls-5{fill:#2d2d2d;}.cls-6{opacity:0.2;}.cls-7{opacity:0.3;}</style><style
       id="style23309">
      .cls-1 {
        fill: none;
      }
    </style><style
       id="style6568-7">.cls-1{fill:none;}.cls-2{clip-path:url(#clip-path);}</style><style
       id="style6568-5-5">.cls-1{fill:none;}.cls-2{clip-path:url(#clip-path);}</style><style
       id="style6568-9-3">.cls-1{fill:none;}.cls-2{clip-path:url(#clip-path);}</style><style
       id="style22571-5">.cls-1{fill:#84d0f7;}.cls-2{fill:#aa392d;}.cls-3{fill:#7c211a;}.cls-4{fill:#e59973;}.cls-5{fill:#2d2d2d;}.cls-6{opacity:0.2;}.cls-7{opacity:0.3;}</style><style
       id="style23309-6">
      .cls-1 {
        fill: none;
      }
    </style><style
       id="style1-9">
      .cls-1 {
        fill: none;
      }
    </style><linearGradient
       xlink:href="#linearGradient1161"
       id="linearGradient2011"
       gradientUnits="userSpaceOnUse"
       gradientTransform="matrix(1.020428,0,0,1.0204279,731.22392,-189.43433)"
       x1="-105.32898"
       y1="771.54901"
       x2="-40.311863"
       y2="706.53192" /><linearGradient
       xlink:href="#linearGradient280"
       id="linearGradient2013"
       x1="782.7403"
       y1="583.53778"
       x2="782.7403"
       y2="546.17554"
       gradientUnits="userSpaceOnUse" /></defs><g
     id="layer1"
     transform="translate(-620.63921,-529.59761)"><title
       id="title15">digital nomad</title><rect
       style="fill:url(#linearGradient2011);stroke-width:4.24654"
       id="rect1883"
       width="66.145836"
       height="66.145836"
       x="622.17065"
       y="530.76074"
       rx="13.229167"
       ry="13.229167" /><g
       id="g1925"
       transform="matrix(2.2354584,0,0,2.2354584,372.80939,-26.584739)"
       style="fill:#ffffff;fill-opacity:0.350116"><g
         id="g1919"
         transform="matrix(1.0023072,0,0,1.0032399,-1.9894194,5.1618383)"
         style="fill:#ffffff;fill-opacity:0.350116"><g
           style="opacity:0.994;fill:#ffffff;fill-opacity:0.350116"
           transform="matrix(0.99968948,0,0,0.99968948,-5.9491148,-17.011501)"
           id="g1917"><g
             id="g1916"
             transform="matrix(1.1352941,0,0,1.1342387,7.6805582,212.07015)"
             style="fill:#ffffff;fill-opacity:0.350116"><g
               id="g1883"
               transform="translate(0,-9.0412)"
               style="fill:#ffffff;fill-opacity:0.350116" /><g
               id="g1915"
               transform="translate(0,-200.20787)"
               style="fill:#ffffff;fill-opacity:0.350116"><g
                 transform="translate(23.049768,0.042484)"
                 id="g1886"
                 style="fill:#ffffff;fill-opacity:0.350116"><g
                   style="fill:#ffffff;fill-opacity:0.350116"
                   transform="translate(-5.9634658,-17.109346)"
                   id="g1884" /><g
                   style="fill:#ffffff;fill-opacity:0.350116"
                   transform="matrix(-1,0,0,1,30.973908,-17.109346)"
                   id="g1885" /></g><g
                 id="g1887"
                 transform="matrix(-0.88991953,0,0,1,71.216013,-11.316169)"
                 style="fill:#ffffff;fill-opacity:0.350116" /><g
                 id="g1888"
                 transform="translate(35.986948,-17.109342)"
                 style="fill:#ffffff;fill-opacity:0.350116" /><g
                 id="g1902"
                 transform="translate(16.201002,-2.8134767)"
                 style="fill:#ffffff;fill-opacity:0.350116"><g
                   style="fill:#ffffff;fill-opacity:0.350116"
                   transform="translate(-5.9634658,-17.109346)"
                   id="g1900"><g
                     id="g1899"
                     transform="matrix(0.83698503,0,0,0.83698503,8.3722867,213.30384)"
                     style="fill:#ffffff;fill-opacity:0.350116"><g
                       id="g1889"
                       transform="translate(-1.205199,-10.600084)"
                       style="fill:#ffffff;fill-opacity:0.350116" /><g
                       id="g1898"
                       transform="translate(-1.205199,-201.76675)"
                       style="fill:#ffffff;fill-opacity:0.350116"><g
                         id="g1892"
                         transform="matrix(1.0023072,0,0,1.0032399,-1.9894194,5.1618383)"
                         style="fill:#ffffff;fill-opacity:0.350116"><g
                           style="opacity:0.994;fill:#ffffff;fill-opacity:0.350116"
                           transform="matrix(0.99968948,0,0,0.99968948,-5.9491148,-17.011501)"
                           id="g1890" /><g
                           style="fill:#ffffff;fill-opacity:0.350116"
                           transform="matrix(-1,0,0,1,30.973908,-17.109346)"
                           id="g1891" /></g><g
                         transform="translate(23.049768,0.042484)"
                         id="g1895"
                         style="fill:#ffffff;fill-opacity:0.350116"><g
                           style="fill:#ffffff;fill-opacity:0.350116"
                           transform="translate(-5.9634658,-17.109346)"
                           id="g1893" /><g
                           style="fill:#ffffff;fill-opacity:0.350116"
                           transform="matrix(-1,0,0,1,30.973908,-17.109346)"
                           id="g1894" /></g><g
                         id="g1896"
                         transform="matrix(-0.88991953,0,0,1,71.216013,-11.316169)"
                         style="fill:#ffffff;fill-opacity:0.350116" /><g
                         id="g1897"
                         transform="translate(35.986948,-17.109342)"
                         style="fill:#ffffff;fill-opacity:0.350116" /></g></g></g><g
                   style="fill:#ffffff;fill-opacity:0.350116"
                   transform="matrix(-1,0,0,1,30.973908,-17.109346)"
                   id="g1901" /></g><g
                 id="g1914"
                 transform="matrix(1.0194999,0,0,1.0194999,89.779609,94.402107)"
                 style="fill:#ffffff;fill-opacity:0.350116"><g
                   id="g1913"
                   transform="translate(-1.9577292,5.1403322)"
                   style="opacity:1;fill:#ffffff;fill-opacity:0.350116"><g
                     style="fill:#ffffff;fill-opacity:0.350116"
                     transform="translate(-6.2035734,-17.109346)"
                     id="g1911"><g
                       id="g1903"
                       transform="matrix(0.83698503,0,0,0.83698503,7.3635532,204.43173)"
                       style="fill:#ffffff;fill-opacity:0.350116" /><g
                       transform="matrix(0.83698503,0,0,0.83698503,26.655864,44.463649)"
                       id="g1906"
                       style="fill:#ffffff;fill-opacity:0.350116"><g
                         style="fill:#ffffff;fill-opacity:0.350116"
                         transform="translate(-5.9634658,-17.109346)"
                         id="g1904" /><g
                         style="fill:#ffffff;fill-opacity:0.350116"
                         transform="matrix(-1,0,0,1,30.973908,-17.109346)"
                         id="g1905" /></g><g
                       id="g1907"
                       transform="matrix(-0.74484932,0,0,0.83698503,66.97029,34.956627)"
                       style="fill:#ffffff;fill-opacity:0.350116" /><g
                       id="g1908"
                       transform="matrix(0.83698503,0,0,0.83698503,37.48409,30.107828)"
                       style="fill:#ffffff;fill-opacity:0.350116" /><g
                       id="g1910"
                       transform="matrix(0.83891612,0,0,0.83969678,1.6492008,19.92036)"
                       style="fill:#ffffff;fill-opacity:0.350116"><g
                         style="fill:#ffffff;fill-opacity:0.350116"
                         transform="matrix(-1,0,0,1,30.973908,-17.109346)"
                         id="g1909" /></g></g><g
                     style="fill:#ffffff;fill-opacity:0.350116"
                     transform="matrix(-1,0,0,1,30.973908,-17.109346)"
                     id="g1912" /></g></g><path
                 id="path1914"
                 style="color:#000000;fill:#ffffff;fill-opacity:0.350116;stroke-width:1.18253;-inkscape-stroke:none"
                 d="m 114.66418,247.96371 c -0.10009,0.2979 -0.22401,0.65346 -0.52877,1.5027 -0.42087,1.26212 -0.81329,2.52628 -1.25003,3.7807 -2.10952,-0.77694 -4.73611,-0.41 -6.21298,1.39671 -1.88641,2.10485 -1.74731,5.6142 0.2943,7.56699 2.3793,2.23022 6.01086,1.88836 8.15042,-0.41324 1.27289,-1.36929 1.19984,-1.62349 2.23763,-3.02057 0.63582,-0.86011 1.12012,-1.19702 1.78259,-1.33007 1.64059,-0.32947 1.37803,-2.59244 -0.45125,-2.26296 -1.46623,0.26409 -2.39771,1.43411 -3.11358,2.41266 -0.99183,1.35575 -1.6092,2.31632 -2.63353,3.20751 -1.56395,1.24868 -4.17226,0.76204 -5.04538,-1.08519 -1.10446,-1.97578 0.547,-4.67355 2.84688,-4.67368 1.021,-6e-5 1.36525,0.33665 2.32187,0.61621 0.75641,0.22106 1.49892,-0.22318 1.82639,-1.31904 0.60942,-2.03947 1.17815,-3.71907 1.80409,-5.74077 0.458,-1.49161 -1.57293,-2.09452 -2.02865,-0.63795 z" /></g></g></g><g
           style="fill:#ffffff;fill-opacity:0.350116"
           transform="matrix(-1,0,0,1,30.973908,-17.109346)"
           id="g1918" /></g><g
         transform="translate(23.049768,0.042484)"
         id="g1922"
         style="fill:#ffffff;fill-opacity:0.350116"><g
           style="fill:#ffffff;fill-opacity:0.350116"
           transform="translate(-5.9634658,-17.109346)"
           id="g1920" /><g
           style="fill:#ffffff;fill-opacity:0.350116"
           transform="matrix(-1,0,0,1,30.973908,-17.109346)"
           id="g1921" /></g><g
         id="g1923"
         transform="matrix(-0.88991953,0,0,1,71.216013,-11.316169)"
         style="fill:#ffffff;fill-opacity:0.350116" /><g
         id="g1924"
         transform="translate(35.986948,-17.109342)"
         style="fill:#ffffff;fill-opacity:0.350116" /></g><g
       id="g1968"
       transform="matrix(2.2354584,0,0,2.2354584,370.68946,-27.191459)"
       style="fill:#ffffff;fill-opacity:0.490941"><g
         id="g1962"
         transform="matrix(1.0023072,0,0,1.0032399,-1.9894194,5.1618383)"
         style="fill:#ffffff;fill-opacity:0.490941"><g
           style="opacity:0.994;fill:#ffffff;fill-opacity:0.490941"
           transform="matrix(0.99968948,0,0,0.99968948,-5.9491148,-17.011501)"
           id="g1960"><g
             id="g1959"
             transform="matrix(1.1352941,0,0,1.1342387,7.6805582,212.07015)"
             style="fill:#ffffff;fill-opacity:0.490941"><g
               id="g1926"
               transform="translate(0,-9.0412)"
               style="fill:#ffffff;fill-opacity:0.490941" /><g
               id="g1958"
               transform="translate(0,-200.20787)"
               style="fill:#ffffff;fill-opacity:0.490941"><g
                 transform="translate(23.049768,0.042484)"
                 id="g1929"
                 style="fill:#ffffff;fill-opacity:0.490941"><g
                   style="fill:#ffffff;fill-opacity:0.490941"
                   transform="translate(-5.9634658,-17.109346)"
                   id="g1927" /><g
                   style="fill:#ffffff;fill-opacity:0.490941"
                   transform="matrix(-1,0,0,1,30.973908,-17.109346)"
                   id="g1928" /></g><g
                 id="g1930"
                 transform="matrix(-0.88991953,0,0,1,71.216013,-11.316169)"
                 style="fill:#ffffff;fill-opacity:0.490941" /><g
                 id="g1931"
                 transform="translate(35.986948,-17.109342)"
                 style="fill:#ffffff;fill-opacity:0.490941" /><g
                 id="g1945"
                 transform="translate(16.201002,-2.8134767)"
                 style="fill:#ffffff;fill-opacity:0.490941"><g
                   style="fill:#ffffff;fill-opacity:0.490941"
                   transform="translate(-5.9634658,-17.109346)"
                   id="g1943"><g
                     id="g1942"
                     transform="matrix(0.83698503,0,0,0.83698503,8.3722867,213.30384)"
                     style="fill:#ffffff;fill-opacity:0.490941"><g
                       id="g1932"
                       transform="translate(-1.205199,-10.600084)"
                       style="fill:#ffffff;fill-opacity:0.490941" /><g
                       id="g1941"
                       transform="translate(-1.205199,-201.76675)"
                       style="fill:#ffffff;fill-opacity:0.490941"><g
                         id="g1935"
                         transform="matrix(1.0023072,0,0,1.0032399,-1.9894194,5.1618383)"
                         style="fill:#ffffff;fill-opacity:0.490941"><g
                           style="opacity:0.994;fill:#ffffff;fill-opacity:0.490941"
                           transform="matrix(0.99968948,0,0,0.99968948,-5.9491148,-17.011501)"
                           id="g1933" /><g
                           style="fill:#ffffff;fill-opacity:0.490941"
                           transform="matrix(-1,0,0,1,30.973908,-17.109346)"
                           id="g1934" /></g><g
                         transform="translate(23.049768,0.042484)"
                         id="g1938"
                         style="fill:#ffffff;fill-opacity:0.490941"><g
                           style="fill:#ffffff;fill-opacity:0.490941"
                           transform="translate(-5.9634658,-17.109346)"
                           id="g1936" /><g
                           style="fill:#ffffff;fill-opacity:0.490941"
                           transform="matrix(-1,0,0,1,30.973908,-17.109346)"
                           id="g1937" /></g><g
                         id="g1939"
                         transform="matrix(-0.88991953,0,0,1,71.216013,-11.316169)"
                         style="fill:#ffffff;fill-opacity:0.490941" /><g
                         id="g1940"
                         transform="translate(35.986948,-17.109342)"
                         style="fill:#ffffff;fill-opacity:0.490941" /></g></g></g><g
                   style="fill:#ffffff;fill-opacity:0.490941"
                   transform="matrix(-1,0,0,1,30.973908,-17.109346)"
                   id="g1944" /></g><g
                 id="g1957"
                 transform="matrix(1.0194999,0,0,1.0194999,89.779609,94.402107)"
                 style="fill:#ffffff;fill-opacity:0.490941"><g
                   id="g1956"
                   transform="translate(-1.9577292,5.1403322)"
                   style="opacity:1;fill:#ffffff;fill-opacity:0.490941"><g
                     style="fill:#ffffff;fill-opacity:0.490941"
                     transform="translate(-6.2035734,-17.109346)"
                     id="g1954"><g
                       id="g1946"
                       transform="matrix(0.83698503,0,0,0.83698503,7.3635532,204.43173)"
                       style="fill:#ffffff;fill-opacity:0.490941" /><g
                       transform="matrix(0.83698503,0,0,0.83698503,26.655864,44.463649)"
                       id="g1949"
                       style="fill:#ffffff;fill-opacity:0.490941"><g
                         style="fill:#ffffff;fill-opacity:0.490941"
                         transform="translate(-5.9634658,-17.109346)"
                         id="g1947" /><g
                         style="fill:#ffffff;fill-opacity:0.490941"
                         transform="matrix(-1,0,0,1,30.973908,-17.109346)"
                         id="g1948" /></g><g
                       id="g1950"
                       transform="matrix(-0.74484932,0,0,0.83698503,66.97029,34.956627)"
                       style="fill:#ffffff;fill-opacity:0.490941" /><g
                       id="g1951"
                       transform="matrix(0.83698503,0,0,0.83698503,37.48409,30.107828)"
                       style="fill:#ffffff;fill-opacity:0.490941" /><g
                       id="g1953"
                       transform="matrix(0.83891612,0,0,0.83969678,1.6492008,19.92036)"
                       style="fill:#ffffff;fill-opacity:0.490941"><g
                         style="fill:#ffffff;fill-opacity:0.490941"
                         transform="matrix(-1,0,0,1,30.973908,-17.109346)"
                         id="g1952" /></g></g><g
                     style="fill:#ffffff;fill-opacity:0.490941"
                     transform="matrix(-1,0,0,1,30.973908,-17.109346)"
                     id="g1955" /></g></g><path
                 id="path1957"
                 style="color:#000000;fill:#ffffff;fill-opacity:0.490941;stroke-width:1.18253;-inkscape-stroke:none"
                 d="m 114.66418,247.96371 c -0.10009,0.2979 -0.22401,0.65346 -0.52877,1.5027 -0.42087,1.26212 -0.81329,2.52628 -1.25003,3.7807 -2.10952,-0.77694 -4.73611,-0.41 -6.21298,1.39671 -1.88641,2.10485 -1.74731,5.6142 0.2943,7.56699 2.3793,2.23022 6.01086,1.88836 8.15042,-0.41324 1.27289,-1.36929 1.19984,-1.62349 2.23763,-3.02057 0.63582,-0.86011 1.12012,-1.19702 1.78259,-1.33007 1.64059,-0.32947 1.37803,-2.59244 -0.45125,-2.26296 -1.46623,0.26409 -2.39771,1.43411 -3.11358,2.41266 -0.99183,1.35575 -1.6092,2.31632 -2.63353,3.20751 -1.56395,1.24868 -4.17226,0.76204 -5.04538,-1.08519 -1.10446,-1.97578 0.547,-4.67355 2.84688,-4.67368 1.021,-6e-5 1.36525,0.33665 2.32187,0.61621 0.75641,0.22106 1.49892,-0.22318 1.82639,-1.31904 0.60942,-2.03947 1.17815,-3.71907 1.80409,-5.74077 0.458,-1.49161 -1.57293,-2.09452 -2.02865,-0.63795 z" /></g></g></g><g
           style="fill:#ffffff;fill-opacity:0.490941"
           transform="matrix(-1,0,0,1,30.973908,-17.109346)"
           id="g1961" /></g><g
         transform="translate(23.049768,0.042484)"
         id="g1965"
         style="fill:#ffffff;fill-opacity:0.490941"><g
           style="fill:#ffffff;fill-opacity:0.490941"
           transform="translate(-5.9634658,-17.109346)"
           id="g1963" /><g
           style="fill:#ffffff;fill-opacity:0.490941"
           transform="matrix(-1,0,0,1,30.973908,-17.109346)"
           id="g1964" /></g><g
         id="g1966"
         transform="matrix(-0.88991953,0,0,1,71.216013,-11.316169)"
         style="fill:#ffffff;fill-opacity:0.490941" /><g
         id="g1967"
         transform="translate(35.986948,-17.109342)"
         style="fill:#ffffff;fill-opacity:0.490941" /></g><g
       id="g2011"
       transform="matrix(2.2354584,0,0,2.2354584,367.91262,-27.843959)"
       style="fill:#ffffff;fill-opacity:1"><g
         id="g2005"
         transform="matrix(1.0023072,0,0,1.0032399,-1.9894194,5.1618383)"
         style="fill:#ffffff;fill-opacity:1"><g
           style="opacity:0.994;fill:#ffffff;fill-opacity:1"
           transform="matrix(0.99968948,0,0,0.99968948,-5.9491148,-17.011501)"
           id="g2003"><g
             id="g2002"
             transform="matrix(1.1352941,0,0,1.1342387,7.6805582,212.07015)"
             style="fill:#ffffff;fill-opacity:1"><g
               id="g1969"
               transform="translate(0,-9.0412)"
               style="fill:#ffffff;fill-opacity:1" /><g
               id="g2001"
               transform="translate(0,-200.20787)"
               style="fill:#ffffff;fill-opacity:1"><g
                 transform="translate(23.049768,0.042484)"
                 id="g1972"
                 style="fill:#ffffff;fill-opacity:1"><g
                   style="fill:#ffffff;fill-opacity:1"
                   transform="translate(-5.9634658,-17.109346)"
                   id="g1970" /><g
                   style="fill:#ffffff;fill-opacity:1"
                   transform="matrix(-1,0,0,1,30.973908,-17.109346)"
                   id="g1971" /></g><g
                 id="g1973"
                 transform="matrix(-0.88991953,0,0,1,71.216013,-11.316169)"
                 style="fill:#ffffff;fill-opacity:1" /><g
                 id="g1974"
                 transform="translate(35.986948,-17.109342)"
                 style="fill:#ffffff;fill-opacity:1" /><g
                 id="g1988"
                 transform="translate(16.201002,-2.8134767)"
                 style="fill:#ffffff;fill-opacity:1"><g
                   style="fill:#ffffff;fill-opacity:1"
                   transform="translate(-5.9634658,-17.109346)"
                   id="g1986"><g
                     id="g1985"
                     transform="matrix(0.83698503,0,0,0.83698503,8.3722867,213.30384)"
                     style="fill:#ffffff;fill-opacity:1"><g
                       id="g1975"
                       transform="translate(-1.205199,-10.600084)"
                       style="fill:#ffffff;fill-opacity:1" /><g
                       id="g1984"
                       transform="translate(-1.205199,-201.76675)"
                       style="fill:#ffffff;fill-opacity:1"><g
                         id="g1978"
                         transform="matrix(1.0023072,0,0,1.0032399,-1.9894194,5.1618383)"
                         style="fill:#ffffff;fill-opacity:1"><g
                           style="opacity:0.994;fill:#ffffff;fill-opacity:1"
                           transform="matrix(0.99968948,0,0,0.99968948,-5.9491148,-17.011501)"
                           id="g1976" /><g
                           style="fill:#ffffff;fill-opacity:1"
                           transform="matrix(-1,0,0,1,30.973908,-17.109346)"
                           id="g1977" /></g><g
                         transform="translate(23.049768,0.042484)"
                         id="g1981"
                         style="fill:#ffffff;fill-opacity:1"><g
                           style="fill:#ffffff;fill-opacity:1"
                           transform="translate(-5.9634658,-17.109346)"
                           id="g1979" /><g
                           style="fill:#ffffff;fill-opacity:1"
                           transform="matrix(-1,0,0,1,30.973908,-17.109346)"
                           id="g1980" /></g><g
                         id="g1982"
                         transform="matrix(-0.88991953,0,0,1,71.216013,-11.316169)"
                         style="fill:#ffffff;fill-opacity:1" /><g
                         id="g1983"
                         transform="translate(35.986948,-17.109342)"
                         style="fill:#ffffff;fill-opacity:1" /></g></g></g><g
                   style="fill:#ffffff;fill-opacity:1"
                   transform="matrix(-1,0,0,1,30.973908,-17.109346)"
                   id="g1987" /></g><g
                 id="g2000"
                 transform="matrix(1.0194999,0,0,1.0194999,89.779609,94.402107)"
                 style="fill:#ffffff;fill-opacity:1"><g
                   id="g1999"
                   transform="translate(-1.9577292,5.1403322)"
                   style="opacity:1;fill:#ffffff;fill-opacity:1"><g
                     style="fill:#ffffff;fill-opacity:1"
                     transform="translate(-6.2035734,-17.109346)"
                     id="g1997"><g
                       id="g1989"
                       transform="matrix(0.83698503,0,0,0.83698503,7.3635532,204.43173)"
                       style="fill:#ffffff;fill-opacity:1" /><g
                       transform="matrix(0.83698503,0,0,0.83698503,26.655864,44.463649)"
                       id="g1992"
                       style="fill:#ffffff;fill-opacity:1"><g
                         style="fill:#ffffff;fill-opacity:1"
                         transform="translate(-5.9634658,-17.109346)"
                         id="g1990" /><g
                         style="fill:#ffffff;fill-opacity:1"
                         transform="matrix(-1,0,0,1,30.973908,-17.109346)"
                         id="g1991" /></g><g
                       id="g1993"
                       transform="matrix(-0.74484932,0,0,0.83698503,66.97029,34.956627)"
                       style="fill:#ffffff;fill-opacity:1" /><g
                       id="g1994"
                       transform="matrix(0.83698503,0,0,0.83698503,37.48409,30.107828)"
                       style="fill:#ffffff;fill-opacity:1" /><g
                       id="g1996"
                       transform="matrix(0.83891612,0,0,0.83969678,1.6492008,19.92036)"
                       style="fill:#ffffff;fill-opacity:1"><g
                         style="fill:#ffffff;fill-opacity:1"
                         transform="matrix(-1,0,0,1,30.973908,-17.109346)"
                         id="g1995" /></g></g><g
                     style="fill:#ffffff;fill-opacity:1"
                     transform="matrix(-1,0,0,1,30.973908,-17.109346)"
                     id="g1998" /></g></g><path
                 id="path2000"
                 style="color:#000000;fill:#ffffff;fill-opacity:1;stroke-width:1.18253;-inkscape-stroke:none"
                 d="m 114.66418,247.96371 c -0.10009,0.2979 -0.22401,0.65346 -0.52877,1.5027 -0.42087,1.26212 -0.81329,2.52628 -1.25003,3.7807 -2.10952,-0.77694 -4.73611,-0.41 -6.21298,1.39671 -1.88641,2.10485 -1.74731,5.6142 0.2943,7.56699 2.3793,2.23022 6.01086,1.88836 8.15042,-0.41324 1.27289,-1.36929 1.19984,-1.62349 2.23763,-3.02057 0.63582,-0.86011 1.12012,-1.19702 1.78259,-1.33007 1.64059,-0.32947 1.37803,-2.59244 -0.45125,-2.26296 -1.46623,0.26409 -2.39771,1.43411 -3.11358,2.41266 -0.99183,1.35575 -1.6092,2.31632 -2.63353,3.20751 -1.56395,1.24868 -4.17226,0.76204 -5.04538,-1.08519 -1.10446,-1.97578 0.547,-4.67355 2.84688,-4.67368 1.021,-6e-5 1.36525,0.33665 2.32187,0.61621 0.75641,0.22106 1.49892,-0.22318 1.82639,-1.31904 0.60942,-2.03947 1.17815,-3.71907 1.80409,-5.74077 0.458,-1.49161 -1.57293,-2.09452 -2.02865,-0.63795 z" /></g></g></g><g
           style="fill:#ffffff;fill-opacity:1"
           transform="matrix(-1,0,0,1,30.973908,-17.109346)"
           id="g2004" /></g><g
         transform="translate(23.049768,0.042484)"
         id="g2008"
         style="fill:#ffffff;fill-opacity:1"><g
           style="fill:#ffffff;fill-opacity:1"
           transform="translate(-5.9634658,-17.109346)"
           id="g2006" /><g
           style="fill:#ffffff;fill-opacity:1"
           transform="matrix(-1,0,0,1,30.973908,-17.109346)"
           id="g2007" /></g><g
         id="g2009"
         transform="matrix(-0.88991953,0,0,1,71.216013,-11.316169)"
         style="fill:#ffffff;fill-opacity:1" /><g
         id="g2010"
         transform="translate(35.986948,-17.109342)"
         style="fill:#ffffff;fill-opacity:1" /></g><path
       style="font-weight:bold;font-size:45.9072px;font-family:'JetBrains Mono';-inkscape-font-specification:'JetBrains Mono Bold';letter-spacing:-3.96875px;baseline-shift:baseline;fill:url(#linearGradient2013);stroke-width:0"
       d="m 704.8252,580.86168 v -33.83729 h 9.86617 q 3.36451,0 5.81968,1.34422 2.50064,1.29787 3.86463,3.66185 1.36398,2.36398 1.36398,5.5623 v 12.65421 q 0,3.19832 -1.36398,5.60864 -1.36399,2.36398 -3.86463,3.7082 -2.45517,1.29787 -5.81968,1.29787 z m 5.68328,-5.19148 h 4.18289 q 2.45518,0 3.91009,-1.43692 1.45492,-1.48328 1.45492,-3.98631 v -12.65421 q 0,-2.45669 -1.45492,-3.89361 -1.45491,-1.48328 -3.91009,-1.48328 h -4.18289 z m 27.89575,5.60865 q -4.81942,0 -7.63833,-2.73479 -2.81891,-2.78115 -2.81891,-7.46275 v -5.93311 q 0,-4.72795 2.81891,-7.46274 2.81891,-2.7348 7.63833,-2.7348 4.81942,0 7.63833,2.7348 2.81891,2.73479 2.81891,7.46274 v 5.93311 q 0,4.6816 -2.81891,7.46275 -2.81891,2.73479 -7.63833,2.73479 z m 0,-5.05241 q 2.27331,0 3.5009,-1.25152 1.27306,-1.29787 1.27306,-3.70819 v -6.30394 q 0,-2.41032 -1.27306,-3.66184 -1.22759,-1.29787 -3.5009,-1.29787 -2.27331,0 -3.54636,1.29787 -1.2276,1.25152 -1.2276,3.66184 v 6.30394 q 0,2.41032 1.2276,3.70819 1.27305,1.25152 3.54636,1.25152 z m 14.11949,4.63524 v -25.49384 h 5.54688 v 4.95971 q 0.45466,-2.50304 2.22784,-3.93996 1.81865,-1.48328 4.68302,-1.48328 3.81916,0 5.95608,2.50304 2.13691,2.50303 2.13691,6.99921 v 2.41033 h -5.68328 v -2.13221 q 0,-2.31762 -1.18212,-3.52279 -1.18212,-1.25151 -3.3645,-1.25151 -2.27331,0 -3.45544,1.39057 -1.18211,1.39058 -1.18211,3.93995 v 15.62078 z m 22.66713,0 v -33.83729 h 5.68327 v 18.35557 h 4.00104 l 5.95607,-10.01212 h 6.31981 l -7.41099,12.32974 7.68378,13.1641 h -6.4562 l -6.09247,-10.56835 h -4.00104 v 10.56835 z m 33.26077,0.41717 q -4.81942,0 -7.63832,-2.73479 -2.81891,-2.78115 -2.81891,-7.46275 v -5.93311 q 0,-4.72795 2.81891,-7.46274 2.8189,-2.7348 7.63832,-2.7348 4.81942,0 7.63832,2.7348 2.81891,2.73479 2.81891,7.46274 v 5.93311 q 0,4.6816 -2.81891,7.46275 -2.8189,2.73479 -7.63832,2.73479 z m 0,-5.05241 q 2.27331,0 3.5009,-1.25152 1.27305,-1.29787 1.27305,-3.70819 v -6.30394 q 0,-2.41032 -1.27305,-3.66184 -1.22759,-1.29787 -3.5009,-1.29787 -2.27332,0 -3.54637,1.29787 -1.22758,1.25152 -1.22758,3.66184 v 6.30394 q 0,2.41032 1.22758,3.70819 1.27305,1.25152 3.54637,1.25152 z m 21.07583,5.09876 q -3.63731,0 -5.91062,-2.64209 -2.22784,-2.64208 -2.22784,-7.09192 v -6.90651 q 0,-4.49619 2.22784,-7.13828 2.22784,-2.64209 5.91062,-2.64209 2.59157,0 4.36475,1.34423 1.81865,1.34422 2.54611,3.75454 l -0.18187,-5.84041 v -7.13828 h 5.68328 v 33.83729 h -5.54688 v -4.63524 q -0.68199,2.41032 -2.45517,3.75454 -1.77319,1.34422 -4.41022,1.34422 z m 2.13691,-5.00606 q 2.18237,0 3.3645,-1.34422 1.22758,-1.34422 1.22758,-3.8009 v -6.11853 q 0,-2.45668 -1.22758,-3.8009 -1.18213,-1.34421 -3.3645,-1.34421 -2.18238,0 -3.40997,1.20516 -1.18212,1.20516 -1.18212,3.7082 v 6.58204 q 0,2.50303 1.18212,3.7082 1.22759,1.20516 3.40997,1.20516 z m 23.48551,5.00606 q -4.77395,0 -7.50192,-2.68844 -2.72798,-2.73479 -2.72798,-7.41639 v -15.85253 h 5.68328 v 15.80618 q 0,2.41033 1.18212,3.75455 1.18212,1.34422 3.3645,1.34422 2.13691,0 3.31904,-1.34422 1.22758,-1.34422 1.22758,-3.75455 v -15.80618 h 5.68328 v 15.85253 q 0,4.6816 -2.77344,7.41639 -2.77343,2.68844 -7.45646,2.68844 z"
       id="path2011"
       aria-label="Dorkodu" /></g><style
     type="text/css"
     id="style1941">
	.st0{fill:none;stroke:#000000;stroke-width:2;stroke-linecap:round;stroke-linejoin:round;stroke-miterlimit:10;}
</style><style
     type="text/css"
     id="style1941-0">
	.st0{fill:none;stroke:#000000;stroke-width:2;stroke-linecap:round;stroke-linejoin:round;stroke-miterlimit:10;}
</style><style
     type="text/css"
     id="style1941-7">
	.st0{fill:none;stroke:#000000;stroke-width:2;stroke-linecap:round;stroke-linejoin:round;stroke-miterlimit:10;}
</style><style
     type="text/css"
     id="style22485">
	.st0{fill:none;stroke:#6C3DB7;stroke-width:4;stroke-linecap:round;stroke-linejoin:round;stroke-miterlimit:10;}
	.st1{fill:none;stroke:#1F992A;stroke-width:4;stroke-linecap:round;stroke-linejoin:round;stroke-miterlimit:10;}
	.st2{fill:none;stroke:#6A83BA;stroke-width:4;stroke-linecap:round;stroke-linejoin:round;stroke-miterlimit:10;}
	.st3{fill:#8A8AFF;stroke:#8A8AFF;stroke-width:2;stroke-linecap:round;stroke-linejoin:round;stroke-miterlimit:10;}
	.st4{fill:#6C3DB7;stroke:#6C3DB7;stroke-width:2;stroke-linecap:round;stroke-linejoin:round;stroke-miterlimit:10;}
	.st5{fill:#A576FF;stroke:#A576FF;stroke-width:2;stroke-linecap:round;stroke-linejoin:round;stroke-miterlimit:10;}
	.st6{fill:#F2BB41;stroke:#F2BB41;stroke-width:2;stroke-linecap:round;stroke-linejoin:round;stroke-miterlimit:10;}
	.st7{fill:#E08838;stroke:#E08838;stroke-width:2;stroke-linecap:round;stroke-linejoin:round;stroke-miterlimit:10;}
	.st8{fill:#1F992A;stroke:#1F992A;stroke-width:2;stroke-linecap:round;stroke-linejoin:round;stroke-miterlimit:10;}
	.st9{fill:#5EC11E;stroke:#5EC11E;stroke-width:2;stroke-linecap:round;stroke-linejoin:round;stroke-miterlimit:10;}
	.st10{fill:#E3FAFF;stroke:#E3FAFF;stroke-width:2;stroke-linecap:round;stroke-linejoin:round;stroke-miterlimit:10;}
	.st11{fill:#FF5093;stroke:#FF5093;stroke-width:2;stroke-linecap:round;stroke-linejoin:round;stroke-miterlimit:10;}
	.st12{fill:#B7257F;stroke:#B7257F;stroke-width:2;stroke-linecap:round;stroke-linejoin:round;stroke-miterlimit:10;}
	.st13{fill:#5189E5;stroke:#5189E5;stroke-width:2;stroke-linecap:round;stroke-linejoin:round;stroke-miterlimit:10;}
	.st14{fill:#6EBAFF;stroke:#6EBAFF;stroke-width:2;stroke-linecap:round;stroke-linejoin:round;stroke-miterlimit:10;}
	.st15{fill:#EDD977;stroke:#EDD977;stroke-width:2;stroke-linecap:round;stroke-linejoin:round;stroke-miterlimit:10;}
	.st16{fill:#8C43FF;stroke:#8C43FF;stroke-width:2;stroke-linecap:round;stroke-linejoin:round;stroke-miterlimit:10;}
	.st17{fill:#5252BA;stroke:#5252BA;stroke-width:2;stroke-linecap:round;stroke-linejoin:round;stroke-miterlimit:10;}
	.st18{fill:none;stroke:#E3FAFF;stroke-width:4;stroke-linecap:round;stroke-linejoin:round;stroke-miterlimit:10;}
	.st19{fill:#354C75;stroke:#354C75;stroke-width:2;stroke-linecap:round;stroke-linejoin:round;stroke-miterlimit:10;}
</style><style
     type="text/css"
     id="style23106">
	.st0{fill:none;stroke:#000000;stroke-width:2;stroke-linecap:round;stroke-linejoin:round;stroke-miterlimit:10;}
	.st1{fill:none;stroke:#000000;stroke-width:2;stroke-linejoin:round;stroke-miterlimit:10;}
</style><style
     type="text/css"
     id="style1941-1">
	.st0{fill:none;stroke:#000000;stroke-width:2;stroke-linecap:round;stroke-linejoin:round;stroke-miterlimit:10;}
</style><style
     type="text/css"
     id="style1941-0-8">
	.st0{fill:none;stroke:#000000;stroke-width:2;stroke-linecap:round;stroke-linejoin:round;stroke-miterlimit:10;}
</style><style
     type="text/css"
     id="style1941-7-7">
	.st0{fill:none;stroke:#000000;stroke-width:2;stroke-linecap:round;stroke-linejoin:round;stroke-miterlimit:10;}
</style><style
     type="text/css"
     id="style22485-9">
	.st0{fill:none;stroke:#6C3DB7;stroke-width:4;stroke-linecap:round;stroke-linejoin:round;stroke-miterlimit:10;}
	.st1{fill:none;stroke:#1F992A;stroke-width:4;stroke-linecap:round;stroke-linejoin:round;stroke-miterlimit:10;}
	.st2{fill:none;stroke:#6A83BA;stroke-width:4;stroke-linecap:round;stroke-linejoin:round;stroke-miterlimit:10;}
	.st3{fill:#8A8AFF;stroke:#8A8AFF;stroke-width:2;stroke-linecap:round;stroke-linejoin:round;stroke-miterlimit:10;}
	.st4{fill:#6C3DB7;stroke:#6C3DB7;stroke-width:2;stroke-linecap:round;stroke-linejoin:round;stroke-miterlimit:10;}
	.st5{fill:#A576FF;stroke:#A576FF;stroke-width:2;stroke-linecap:round;stroke-linejoin:round;stroke-miterlimit:10;}
	.st6{fill:#F2BB41;stroke:#F2BB41;stroke-width:2;stroke-linecap:round;stroke-linejoin:round;stroke-miterlimit:10;}
	.st7{fill:#E08838;stroke:#E08838;stroke-width:2;stroke-linecap:round;stroke-linejoin:round;stroke-miterlimit:10;}
	.st8{fill:#1F992A;stroke:#1F992A;stroke-width:2;stroke-linecap:round;stroke-linejoin:round;stroke-miterlimit:10;}
	.st9{fill:#5EC11E;stroke:#5EC11E;stroke-width:2;stroke-linecap:round;stroke-linejoin:round;stroke-miterlimit:10;}
	.st10{fill:#E3FAFF;stroke:#E3FAFF;stroke-width:2;stroke-linecap:round;stroke-linejoin:round;stroke-miterlimit:10;}
	.st11{fill:#FF5093;stroke:#FF5093;stroke-width:2;stroke-linecap:round;stroke-linejoin:round;stroke-miterlimit:10;}
	.st12{fill:#B7257F;stroke:#B7257F;stroke-width:2;stroke-linecap:round;stroke-linejoin:round;stroke-miterlimit:10;}
	.st13{fill:#5189E5;stroke:#5189E5;stroke-width:2;stroke-linecap:round;stroke-linejoin:round;stroke-miterlimit:10;}
	.st14{fill:#6EBAFF;stroke:#6EBAFF;stroke-width:2;stroke-linecap:round;stroke-linejoin:round;stroke-miterlimit:10;}
	.st15{fill:#EDD977;stroke:#EDD977;stroke-width:2;stroke-linecap:round;stroke-linejoin:round;stroke-miterlimit:10;}
	.st16{fill:#8C43FF;stroke:#8C43FF;stroke-width:2;stroke-linecap:round;stroke-linejoin:round;stroke-miterlimit:10;}
	.st17{fill:#5252BA;stroke:#5252BA;stroke-width:2;stroke-linecap:round;stroke-linejoin:round;stroke-miterlimit:10;}
	.st18{fill:none;stroke:#E3FAFF;stroke-width:4;stroke-linecap:round;stroke-linejoin:round;stroke-miterlimit:10;}
	.st19{fill:#354C75;stroke:#354C75;stroke-width:2;stroke-linecap:round;stroke-linejoin:round;stroke-miterlimit:10;}
</style><style
     type="text/css"
     id="style23106-2">
	.st0{fill:none;stroke:#000000;stroke-width:2;stroke-linecap:round;stroke-linejoin:round;stroke-miterlimit:10;}
	.st1{fill:none;stroke:#000000;stroke-width:2;stroke-linejoin:round;stroke-miterlimit:10;}
</style><style
     type="text/css"
     id="style4736">
<![CDATA[
	.st0{fill:#D1D1D1;}
	.st1{fill:#454545;}
]]>
</style><style
     type="text/css"
     id="style1">
	.st0{fill:none;stroke:#000000;stroke-width:2;stroke-linecap:round;stroke-linejoin:round;stroke-miterlimit:10;}
</style><style
     type="text/css"
     id="style1-4">
	.linesandangles_een{fill:#111918;}
</style><style
     type="text/css"
     id="style1-2">
	.st0{fill:#000000;}
</style><style
     type="text/css"
     id="style1-5">
	.st0{fill:#000000;}
</style><style
     type="text/css"
     id="style1-1">
	.st0{fill:#000000;}
</style></svg>
