<?xml version="1.0" encoding="UTF-8" standalone="no"?>
<!-- Created with Inkscape (http://www.inkscape.org/) -->

<svg
   width="1999.9999"
   height="500.00003"
   viewBox="0 0 529.16662 132.29167"
   version="1.1"
   id="svg5"
   xml:space="preserve"
   xmlns="http://www.w3.org/2000/svg"
   xmlns:svg="http://www.w3.org/2000/svg"><defs
     id="defs2"><style
       id="style6568">.cls-1{fill:none;}.cls-2{clip-path:url(#clip-path);}</style></defs><g
     id="layer1"
     transform="translate(-7466.295,-983.15707)"><g
       aria-label="terraspark"
       id="g320-8-3-3"
       style="font-size:291.515px;font-family:ParaAminobenzoic;-inkscape-font-specification:ParaAminobenzoic;fill:#000000;fill-opacity:1;stroke-width:24.2928"
       transform="matrix(0.29940195,0,0,0.29940195,6692.4033,-803.4014)"><path
         id="path320-7-2-6"
         style="fill:#000000;fill-opacity:1"
         d="m 2728.9845,6084.045 c -3.8869,0 -7.0959,1.2612 -9.6224,3.7877 -2.5264,2.5265 -3.7878,5.4396 -3.7878,8.7434 0,3.3039 0.5878,5.8308 1.7539,7.5799 1.3604,1.5547 3.2996,3.112 5.826,4.6668 l 14.285,8.1616 c 3.3037,2.1377 5.4402,5.4412 6.412,9.9112 0.9717,4.2755 1.4565,9.4281 1.4565,15.4527 v 125.9362 c 0,7.9681 2.7244,13.8928 8.166,17.7797 5.4416,3.6925 12.8251,5.5416 22.1535,5.5416 9.3285,0 16.712,-1.8491 22.1536,-5.5416 5.636,-3.8869 8.4546,-9.9146 8.4546,-18.0771 v -125.6388 c 0,-5.636 0.4848,-10.7885 1.4565,-15.4527 0.9717,-4.6643 3.0139,-7.7747 6.1234,-9.3294 l 14.5737,-7.8686 c 2.5264,-1.3604 4.4698,-3.0122 5.8303,-4.9556 1.3604,-1.9434 2.0382,-4.5691 2.0382,-7.8729 0,-4.0812 -1.5487,-7.1873 -4.6582,-9.3251 -2.9152,-2.3321 -6.6089,-3.499 -11.0789,-3.499 z m 147.5037,0 c -8.7455,0 -15.2581,2.6214 -19.5336,7.8685 -4.2756,5.0529 -6.4121,11.3726 -6.4121,18.9519 v 155.3765 c 0,7.5794 2.527,13.7015 7.5799,18.3658 5.0529,4.6642 11.7585,6.9981 20.1153,6.9981 h 73.4631 c 10.4946,0 18.4658,-2.527 23.9074,-7.5798 5.6359,-5.0529 8.4546,-12.5393 8.4546,-22.4509 0,-6.0246 -1.27,-11.0743 -3.7964,-15.1555 -2.5264,-4.2755 -5.727,-6.412 -9.6138,-6.412 -4.2756,0 -7.4889,1.2569 -9.6267,3.7834 -2.1378,2.3321 -4.3687,4.9577 -6.7008,7.8729 -2.1378,2.7208 -4.9565,5.3421 -8.4546,7.8686 -3.3039,2.3321 -8.2591,3.4991 -14.8667,3.4991 -3.4982,0 -6.8017,-0.5792 -9.9112,-1.7453 -3.1094,-1.3604 -5.8338,-3.1151 -8.1659,-5.2529 -2.1378,-2.3321 -3.8839,-4.8504 -5.2443,-7.5712 -1.3604,-2.9152 -2.0426,-5.8368 -2.0426,-8.752 v -23.3213 c 0,-11.0776 3.1105,-19.6281 9.3295,-25.6526 6.4132,-6.0247 14.672,-9.0321 24.7778,-9.0321 h 19.8223 c 8.3568,0 12.5397,-3.694 12.5397,-11.0789 0,-6.9964 -4.1829,-10.4972 -12.5397,-10.4972 h -19.2362 c -9.3285,0 -16.519,-2.2309 -21.5719,-6.7008 -5.053,-4.6642 -7.5798,-11.0825 -7.5798,-19.2449 0,-6.802 2.3339,-12.7311 6.9981,-17.784 4.8586,-5.2472 12.2421,-7.8686 22.1536,-7.8686 h 18.9475 c 4.6642,0 8.165,-1.167 10.4972,-3.4991 2.5264,-2.3321 3.7877,-5.2451 3.7877,-8.7433 0,-3.4982 -1.1669,-6.4113 -3.499,-8.7434 -2.3321,-2.3321 -5.9274,-3.499 -10.7859,-3.499 z m 148.9644,0 c -7.385,0 -13.2155,2.2309 -17.491,6.7008 -4.2756,4.4699 -6.4121,10.3046 -6.4121,17.4953 v 158.2895 c 0,7.968 2.7201,14.1847 8.1617,18.6545 5.4415,4.2756 12.632,6.4207 21.5718,6.4207 9.1341,0 16.2259,-1.8491 21.2788,-5.5416 5.0529,-3.8869 7.5841,-10.3995 7.5841,-19.5336 v -14.8667 c 0,-8.1624 2.3297,-14.3789 6.9939,-18.6545 4.6641,-4.4699 10.6877,-6.7094 18.0727,-6.7094 6.802,0 12.6324,2.4326 17.491,7.2912 5.0529,4.6642 7.5842,12.0476 7.5842,22.1535 v 19.8266 c 0,5.053 1.3556,9.0342 4.0765,11.9494 2.7208,2.7208 6.123,4.0851 10.2042,4.0851 4.2755,0 7.6776,-1.3643 10.2041,-4.0851 2.5264,-2.9152 3.7921,-6.9995 3.7921,-12.2467 v -19.818 c 0,-13.021 -2.2395,-23.3218 -6.7094,-30.9012 -4.4699,-7.5794 -10.7851,-12.9294 -18.9475,-16.0388 7.385,-2.7208 13.0225,-6.6035 16.9093,-11.6564 4.0812,-5.2473 6.1233,-12.2446 6.1233,-20.9901 v -68.5032 c 0,-6.6077 -2.1365,-12.1506 -6.4121,-16.6205 -4.0812,-4.4699 -10.4951,-6.7008 -19.2405,-6.7008 z m 157.1304,0 c -7.385,0 -13.2154,2.2309 -17.491,6.7008 -4.2755,4.4699 -6.4164,10.3046 -6.4164,17.4953 v 158.2895 c 0,7.968 2.7201,14.1847 8.1616,18.6545 5.4417,4.2756 12.6365,6.4207 21.5761,6.4207 9.1342,0 16.226,-1.8491 21.2788,-5.5416 5.053,-3.8869 7.5799,-10.3995 7.5799,-19.5336 v -14.8667 c 0,-8.1624 2.3295,-14.3789 6.9938,-18.6545 4.6642,-4.4699 10.6921,-6.7094 18.0771,-6.7094 6.802,0 12.6324,2.4326 17.491,7.2912 5.053,4.6642 7.5756,12.0476 7.5756,22.1535 v 19.8266 c 0,5.053 1.3643,9.0342 4.0851,11.9494 2.7208,2.7208 6.1185,4.0851 10.1998,4.0851 4.2755,0 7.6777,-1.3643 10.2042,-4.0851 2.5265,-2.9152 3.7878,-6.9995 3.7878,-12.2467 v -19.818 c 0,-13.021 -2.2308,-23.3218 -6.7008,-30.9012 -4.4698,-7.5794 -10.7893,-12.9294 -18.9518,-16.0388 7.3851,-2.7208 13.0223,-6.6035 16.9092,-11.6564 4.0812,-5.2473 6.1191,-12.2446 6.1191,-20.9901 v -68.5032 c 0,-6.6077 -2.1366,-12.1506 -6.4121,-16.6205 -4.0812,-4.4699 -10.4951,-6.7008 -19.2405,-6.7008 z m 162.9521,0 c -10.1058,0 -17.5838,2.5225 -22.4423,7.5755 -4.8586,5.0528 -7.2868,10.9863 -7.2868,17.7884 v 168.2007 c 0,4.0812 1.1582,7.4789 3.4904,10.1998 2.332,2.5264 5.1508,3.7964 8.4547,3.7964 4.0812,0 7.2903,-1.1668 9.6224,-3.499 2.3321,-2.5264 3.4991,-5.7356 3.4991,-9.6225 v -26.2386 c 0,-8.551 2.4282,-15.3511 7.2868,-20.4041 4.8586,-5.0529 11.1781,-7.5755 18.9518,-7.5755 7.1907,0 13.506,2.4282 18.9476,7.2868 5.6359,4.8585 8.4546,12.3364 8.4546,22.4423 v 15.4484 c 0,6.802 2.72,12.2463 8.1616,16.3276 5.4416,3.8869 12.2459,5.8346 20.4083,5.8346 10.4945,0 18.2685,-2.3339 23.3214,-6.9981 5.0529,-4.8586 7.5755,-10.9807 7.5755,-18.3658 v -157.1304 c 0,-6.9964 -2.2352,-12.9211 -6.7051,-17.7797 -4.2756,-4.8585 -9.6211,-7.2868 -16.0345,-7.2868 z m 148.6758,0 c -2.9152,0 -5.7339,0.6821 -8.4547,2.0425 -2.7208,1.3604 -5.149,3.1066 -7.2868,5.2443 -1.9435,2.1378 -3.5009,4.7592 -4.6669,7.8686 -1.1661,2.9152 -1.7452,5.9312 -1.7452,9.0407 v 60.3416 c 0,5.0529 0.3819,9.4289 1.1592,13.1215 0.7774,3.4982 2.1417,6.5056 4.0851,9.0321 1.9435,2.332 4.3674,4.2755 7.2825,5.8303 2.9152,1.5548 6.6133,2.9147 11.0833,4.0808 l 55.0973,14.285 c 8.9398,2.3321 15.3537,5.6356 19.2405,9.9111 4.0812,4.2756 6.1234,10.6851 6.1234,19.2362 0,8.1624 -2.2396,14.482 -6.7094,18.9519 -4.47,4.4699 -10.9782,6.7094 -19.5293,6.7094 h -62.6772 c -4.0812,0 -7.286,0.9695 -9.6181,2.913 -2.1378,1.9434 -3.2103,4.4661 -3.2103,7.5756 0,3.1095 1.0725,5.8337 3.2103,8.1659 2.3321,2.1378 5.5369,3.2103 9.6181,3.2103 h 88.9159 c 9.3285,0 16.905,-2.3339 22.7353,-6.9981 5.8303,-4.6643 8.7434,-11.0782 8.7434,-19.2406 v -37.3132 c 0,-14.9645 -6.8001,-24.3001 -20.4041,-27.9926 l -38.1923,-9.9111 c -7.1907,-1.9434 -12.3347,-5.1439 -15.4442,-9.6138 -3.1094,-4.6642 -4.6668,-11.3656 -4.6668,-20.111 v -22.7482 c 0,-8.3567 2.4282,-14.3759 7.2868,-18.0685 4.8586,-3.8868 10.2042,-5.8303 16.0345,-5.8303 6.4133,0 10.8837,1.2613 13.4102,3.7878 2.7208,2.5264 4.9518,5.3451 6.7008,8.4546 1.7492,3.1095 3.6925,5.9282 5.8303,8.4546 2.3321,2.5265 6.2234,3.7878 11.665,3.7878 5.2472,0 9.5203,-2.0378 12.8242,-6.119 3.3038,-4.0812 4.9556,-9.0366 4.9556,-14.8667 0,-11.6606 -2.1366,-20.1167 -6.4121,-25.364 -4.2755,-5.2471 -10.3978,-7.8685 -18.3658,-7.8685 z m 160.9138,0 c -9.3285,0 -16.3259,3.1062 -20.9901,9.3251 -4.4699,6.2189 -6.7008,13.9971 -6.7008,23.3256 v 150.421 c 0,4.0812 0.7723,7.6721 2.327,10.7816 1.7492,3.1095 3.9886,5.7351 6.7094,7.8729 2.9152,1.9434 6.2187,3.3977 9.9112,4.3695 3.6925,0.9717 7.4851,1.4651 11.3719,1.4651 8.1624,0 14.9581,-2.042 20.3997,-6.1233 5.636,-4.0812 8.4547,-10.2034 8.4547,-18.3658 v -18.3658 c 0,-7.7737 2.3339,-14.578 6.9981,-20.4083 4.8586,-5.8303 12.2421,-8.7434 22.1536,-8.7434 h 6.7051 c 6.6076,0 12.3394,-1.0726 17.1979,-3.2103 5.0529,-2.3322 9.236,-5.3395 12.5398,-9.0321 3.4982,-3.8868 6.1195,-8.4603 7.8686,-13.7075 1.7491,-5.2473 2.6243,-10.7818 2.6243,-16.612 v -55.6834 c 0,-12.6323 -3.2092,-21.9592 -9.6224,-27.9838 -6.219,-6.2189 -14.7695,-9.3251 -25.6527,-9.3251 z m 152.4635,0 c -10.1057,0 -17.5923,2.5225 -22.4508,7.5755 -4.8585,5.0528 -7.2826,10.9863 -7.2826,17.7884 v 168.2007 c 0,4.0812 1.1669,7.4789 3.4991,10.1998 2.3321,2.5264 5.1508,3.7964 8.4546,3.7964 4.0812,0 7.2816,-1.1668 9.6138,-3.499 2.3321,-2.5264 3.4991,-5.7356 3.4991,-9.6225 v -26.2386 c 0,-8.551 2.4325,-15.3511 7.2911,-20.4041 4.8585,-5.0529 11.1695,-7.5755 18.9433,-7.5755 7.1906,0 13.5102,2.4282 18.9518,7.2868 5.6359,4.8585 8.4546,12.3364 8.4546,22.4423 v 15.4484 c 0,6.802 2.7243,12.2463 8.1659,16.3276 5.4416,3.8869 12.2374,5.8346 20.3997,5.8346 10.4945,0 18.2684,-2.3339 23.3214,-6.9981 5.0529,-4.8586 7.5842,-10.9807 7.5842,-18.3658 v -157.1304 c 0,-6.9964 -2.2396,-12.9211 -6.7094,-17.7797 -4.2756,-4.8585 -9.6168,-7.2868 -16.0302,-7.2868 z m 152.7523,0 c -7.3851,0 -13.2112,2.2309 -17.4867,6.7008 -4.2756,4.4699 -6.4121,10.3046 -6.4121,17.4953 v 158.2895 c 0,7.968 2.7157,14.1847 8.1573,18.6545 5.4416,4.2756 12.6364,6.4207 21.5761,6.4207 9.1342,0 16.2258,-1.8491 21.2788,-5.5416 5.0529,-3.8869 7.5756,-10.3995 7.5756,-19.5336 v -14.8667 c 0,-8.1624 2.3339,-14.3789 6.9981,-18.6545 4.6643,-4.4699 10.6921,-6.7094 18.0771,-6.7094 6.802,0 12.6281,2.4326 17.4867,7.2912 5.0529,4.6642 7.5798,12.0476 7.5798,22.1535 v 19.8266 c 0,5.053 1.3644,9.0342 4.0852,11.9494 2.7208,2.7208 6.1186,4.0851 10.1998,4.0851 4.2755,0 7.6734,-1.3643 10.1999,-4.0851 2.5265,-2.9152 3.7921,-6.9995 3.7921,-12.2467 v -19.818 c 0,-13.021 -2.2352,-23.3218 -6.7051,-30.9012 -4.4699,-7.5794 -10.7809,-12.9294 -18.9432,-16.0388 7.385,-2.7208 13.0223,-6.6035 16.9092,-11.6564 4.0812,-5.2473 6.1148,-12.2446 6.1148,-20.9901 v -68.5032 c 0,-6.6077 -2.1365,-12.1506 -6.4121,-16.6205 -4.0812,-4.4699 -10.4952,-6.7008 -19.2406,-6.7008 z m 155.9583,0 c -6.8019,0 -12.3364,2.0378 -16.612,6.119 -4.0811,3.8868 -6.1233,9.43 -6.1233,16.6206 v 157.1217 c 0,9.3285 2.7243,16.3258 8.1659,20.9901 5.4417,4.4699 13.0182,6.7094 22.7353,6.7094 19.24,0 28.8543,-9.2368 28.8543,-27.6995 v -50.4348 c 0,-16.7134 8.4562,-25.0665 25.3639,-25.0665 7.7737,0 13.8016,2.2308 18.0771,6.7008 4.47,4.2755 6.7051,10.1102 6.7051,17.4953 v 63.552 c 0,4.0812 0.9696,7.6764 2.913,10.7859 2.1378,3.1095 5.7373,4.6668 10.7902,4.6668 4.8586,0 8.2565,-1.5573 10.1999,-4.6668 2.1378,-3.1095 3.206,-6.7047 3.206,-10.7859 v -70.2528 c 0,-9.3285 -2.1408,-17.3941 -6.4163,-24.1961 -4.2755,-6.802 -10.7795,-11.8602 -19.525,-15.1641 9.1341,-3.8868 15.741,-9.4212 19.8223,-16.6119 4.0811,-7.385 6.119,-15.0646 6.119,-23.0326 v -27.1092 c 0,-10.4944 -4.4661,-15.7414 -13.4059,-15.7414 -3.8868,0 -7.1903,1.5487 -9.9111,4.6582 -2.5265,2.9151 -3.7921,6.6133 -3.7921,11.0832 v 27.1092 c 0,7.385 -2.4282,13.2154 -7.2868,17.491 -4.6642,4.0812 -10.7865,6.1277 -18.3658,6.1277 -7.3851,0 -13.5073,-2.0465 -18.3658,-6.1277 -4.8586,-4.2756 -7.2868,-10.106 -7.2868,-17.491 v -20.111 c 0,-6.0246 -1.7547,-11.2716 -5.2529,-15.7415 -3.3038,-4.6642 -8.1561,-6.9981 -14.5694,-6.9981 z m -748.6058,28.8543 c 8.7454,0 15.6441,2.9217 20.697,8.752 5.0529,5.6359 7.5842,14.5768 7.5842,26.8204 0,14.5758 -2.6299,25.4557 -7.8772,32.6464 -5.0529,6.9963 -12.046,10.4929 -20.9858,10.4929 -4.0812,0 -7.8694,-1.0682 -11.3676,-3.206 -3.3038,-2.1377 -6.2255,-5.0509 -8.752,-8.7434 -2.3321,-3.6925 -4.1726,-7.8711 -5.533,-12.5354 -1.3604,-4.6642 -2.0425,-9.6194 -2.0425,-14.8667 0,-12.8266 2.4282,-22.544 7.2868,-29.1517 5.0529,-6.8021 12.0503,-10.2085 20.9901,-10.2085 z m 462.0488,0 c 8.7454,0 15.6441,2.9217 20.6971,8.752 5.0528,5.6359 7.5798,14.5768 7.5798,26.8204 0,14.5758 -2.6213,25.4557 -7.8686,32.6464 -5.0529,6.9963 -12.0547,10.4929 -20.9943,10.4929 -4.0812,0 -7.8696,-1.0682 -11.3677,-3.206 -3.3039,-2.1377 -6.2168,-5.0509 -8.7433,-8.7434 -2.3321,-3.6925 -4.177,-7.8711 -5.5374,-12.5354 -1.3604,-4.6642 -2.0425,-9.6194 -2.0425,-14.8667 0,-12.8266 2.4325,-22.544 7.2911,-29.1517 5.0529,-6.8021 12.046,-10.2085 20.9858,-10.2085 z m -744.818,0.8791 c 8.1625,0 14.5763,2.5226 19.2405,7.5755 4.8586,5.0529 7.2826,10.8877 7.2826,17.4954 v 23.3213 c 0,7.968 -2.5184,14.3777 -7.5713,19.2362 -4.8586,4.6642 -10.7877,6.9982 -17.784,6.9982 -8.1624,0 -14.7694,-2.334 -19.8223,-6.9982 -5.053,-4.6641 -7.5799,-11.0738 -7.5799,-19.2362 v -23.3213 c 0,-3.4982 0.6779,-6.7031 2.0383,-9.6181 1.3604,-3.1095 3.2094,-5.7396 5.5416,-7.8773 2.5264,-2.3322 5.3452,-4.1726 8.4546,-5.533 3.3039,-1.3604 6.7018,-2.0425 10.1999,-2.0425 z m 157.1304,0 c 8.1624,0 14.572,2.5226 19.2362,7.5755 4.8586,5.0529 7.2869,10.8877 7.2869,17.4954 v 23.3213 c 0,7.968 -2.527,14.3777 -7.5799,19.2362 -4.8586,4.6642 -10.7878,6.9982 -17.7841,6.9982 -8.1624,0 -14.7693,-2.334 -19.8222,-6.9982 -5.0529,-4.6641 -7.5756,-11.0738 -7.5756,-19.2362 v -23.3213 c 0,-3.4982 0.6736,-6.7031 2.0339,-9.6181 1.3604,-3.1095 3.2096,-5.7396 5.5417,-7.8773 2.5264,-2.3322 5.3451,-4.1726 8.4546,-5.533 3.3038,-1.3604 6.7103,-2.0425 10.2085,-2.0425 z m 469.9174,0 c 8.9398,0 15.7441,3.5008 20.4083,10.4972 4.8586,6.802 7.2825,16.2234 7.2825,28.2726 0,12.0493 -2.4239,21.4749 -7.2825,28.2769 -4.8586,6.8021 -11.8602,10.2085 -20.9944,10.2085 -8.551,0 -15.2524,-3.4064 -20.111,-10.2085 -4.6643,-6.802 -6.9981,-16.2276 -6.9981,-28.2769 0,-12.0492 2.4283,-21.4706 7.2868,-28.2726 4.8586,-6.9964 11.663,-10.4972 20.4084,-10.4972 z m 307.8357,0 c 8.1623,0 14.5764,2.5226 19.2406,7.5755 4.8586,5.0529 7.2911,10.8877 7.2911,17.4954 v 23.3213 c 0,7.968 -2.5269,14.3777 -7.5798,19.2362 -4.8585,4.6642 -10.7834,6.9982 -17.7798,6.9982 -8.1623,0 -14.7737,-2.334 -19.8266,-6.9982 -5.0528,-4.6641 -7.5798,-11.0738 -7.5798,-19.2362 v -23.3213 c 0,-3.4982 0.6821,-6.7031 2.0425,-9.6181 1.3604,-3.1095 3.2053,-5.7396 5.5373,-7.8773 2.5265,-2.3322 5.3452,-4.1726 8.4547,-5.533 3.3038,-1.3604 6.7016,-2.0425 10.1998,-2.0425 z" /></g></g><style
     type="text/css"
     id="style1941">
	.st0{fill:none;stroke:#000000;stroke-width:2;stroke-linecap:round;stroke-linejoin:round;stroke-miterlimit:10;}
</style><style
     type="text/css"
     id="style1">
	.st0{fill:#000000;}
</style></svg>
