<?xml version="1.0" encoding="UTF-8" standalone="no"?>
<!-- Created with Inkscape (http://www.inkscape.org/) -->

<svg
   width="999.99994"
   height="1000.0001"
   viewBox="0 0 264.58331 264.58335"
   version="1.1"
   id="svg5"
   xml:space="preserve"
   xmlns:xlink="http://www.w3.org/1999/xlink"
   xmlns="http://www.w3.org/2000/svg"
   xmlns:svg="http://www.w3.org/2000/svg"><defs
     id="defs2"><linearGradient
       id="linearGradient31"><stop
         style="stop-color:#002aff;stop-opacity:1;"
         offset="0"
         id="stop30" /><stop
         style="stop-color:#33ccff;stop-opacity:1;"
         offset="1"
         id="stop31" /></linearGradient><style
       id="style6568">.cls-1{fill:none;}.cls-2{clip-path:url(#clip-path);}</style><linearGradient
       xlink:href="#linearGradient31"
       id="linearGradient54"
       gradientUnits="userSpaceOnUse"
       x1="68.165085"
       y1="256"
       x2="410.30438"
       y2="256"
       gradientTransform="matrix(0.23708589,0,0,0.23708589,-751.24048,-156.15678)" /></defs><g
     id="layer1"
     transform="translate(-6365.7998,-1153.5601)"><rect
       style="opacity:1;fill:#000000;fill-opacity:1;stroke:none;stroke-width:2.48425;stroke-linecap:round;paint-order:markers stroke fill"
       id="rect5"
       width="255.13071"
       height="255.13071"
       x="6369.8076"
       y="1158.1881"
       rx="127.56535"
       ry="127.56535" /><g
       id="g4"
       transform="matrix(1.2467223,0,0,1.2467223,7349.641,1404.4786)"
       style="fill:#000000;stroke:none;stroke-width:5.07462;stroke-dasharray:none;stroke-opacity:1"><path
         id="circle89-3-5"
         style="fill:url(#linearGradient54);fill-opacity:1;stroke:none;stroke-width:23.0053;stroke-linejoin:miter;stroke-dasharray:none;stroke-opacity:1;paint-order:markers stroke fill"
         d="m -690.54644,-156.15693 a 60.693988,60.693988 0 0 0 -60.69381,60.694366 60.693988,60.693988 0 0 0 60.69381,60.69382 60.693988,60.693988 0 0 0 49.891,-26.320707 l -6.32813,-17.179255 -18.66875,-6.877992 c -5.07088,-1.868667 -8.00973,-6.813448 -8.00973,-11.487471 0,-4.674111 2.93885,-9.617111 8.00973,-11.485771 l 18.66875,-6.878 5.74121,-15.58809 a 60.693988,60.693988 0 0 0 -3.14356,-4.25733 l -2.74873,1.01772 -3.49349,9.42003 c -1.43853,3.89279 -5.23769,6.16975 -8.83253,6.16975 -3.59483,0 -7.40853,-2.277 -8.84715,-6.16975 l -3.49346,-9.42003 -9.43408,-3.49348 c -3.89275,-1.43857 -6.15572,-5.25233 -6.15572,-8.84715 0,-3.59481 2.26297,-7.39397 6.15572,-8.83253 l 0.79193,-0.29319 a 60.693988,60.693988 0 0 0 -10.10301,-0.86494 z" /><path
         style="fill:#22c33c;fill-opacity:1;stroke:none;stroke-width:1.20312;stroke-dasharray:none;stroke-opacity:1"
         d="m -726.96286,-77.2546 c 5.02787,0 9.10409,4.076219 9.10409,9.104098 v 3.0347 c 0,5.027881 4.07622,9.104099 9.10411,9.104099 5.02787,0 9.10409,-4.076218 9.10409,-9.104099 v -21.242896 c 0,-5.02788 -4.07622,-9.104097 -9.10409,-9.104097 -5.02789,0 -9.10411,-4.076216 -9.10411,-9.104095 v -3.0347 c 0,-8.38003 6.79345,-15.17348 15.17351,-15.17348 5.02787,0 9.10408,-4.07622 9.10408,-9.10412 v -12.13879 c 0,-5.02788 -4.07621,-9.10409 -9.10408,-9.10409 h -6.85227 c -23.92434,7.87575 -41.27334,30.22252 -41.6906,56.68414 2.53824,10.855214 12.71088,19.18333 24.26527,19.18333 z"
         id="path89-5-6" /><path
         id="path90-2-2"
         style="fill:#36e236;fill-opacity:1;stroke:none;stroke-width:1.20312;stroke-dasharray:none;stroke-opacity:1"
         d="m -644.37582,-134.84729 -2.75883,1.02165 -3.49349,9.42003 c -1.43853,3.89279 -5.23769,6.16975 -8.83253,6.16975 -3.59483,0 -7.40853,-2.277 -8.84715,-6.16975 l -3.49346,-9.42003 -0.53695,-0.19883 v 5.18012 c 0,8.79477 6.23598,16.13282 14.52713,17.83527 l 10.82753,-3.98886 5.80411,-15.7594 c -1.00931,-1.40842 -2.07337,-2.77478 -3.19636,-4.08995 z" /><path
         id="path91-9-9"
         style="fill:#6ee831;fill-opacity:1;stroke:none;stroke-width:1.20312;stroke-dasharray:none;stroke-opacity:1"
         d="m -672.61905,-91.796097 c -3.38647,1.326661 -5.78839,4.615344 -5.78839,8.471961 0,5.027876 4.07594,9.104381 9.10382,9.104381 5.02788,0 9.10437,4.075944 9.10437,9.103819 v 6.069777 c 0,4.846979 4.63422,9.0897 9.47171,9.389138 3.82639,-3.329161 7.22068,-7.137792 10.11367,-11.319537 l -6.3697,-17.292148 -18.66875,-6.877992 c -3.30481,-1.217849 -5.69641,-3.74491 -6.96673,-6.649399 z" /><path
         id="path103-0-1"
         style="color:#000000;fill:#ffd91a;fill-opacity:1;stroke-width:1.04716;-inkscape-stroke:none;paint-order:fill markers stroke"
         d="m -660.40973,-166.75479 c -0.73968,0.012 -1.33074,0.26865 -1.65394,1.19686 v 0 l -4.5105,12.82908 -12.67203,4.92478 c -0.91481,0.35513 -1.15251,0.95629 -1.14045,1.69585 0.012,0.73955 0.2691,1.33052 1.19478,1.65567 v 0 l 12.82512,4.50887 4.92226,12.6717 v 0 c 0.35512,0.9147 0.95443,1.1523 1.69409,1.14034 0.73955,-0.012 1.33272,-0.26921 1.65788,-1.19477 v 0 l 4.51105,-12.82468 12.67171,-4.92271 v 0 c 0.91471,-0.35501 1.15459,-0.9542 1.14252,-1.69353 -0.012,-0.73956 -0.27128,-1.33282 -1.19696,-1.65788 l -12.81864,-4.51139 -4.93093,-12.67577 v 0 c -0.35315,-0.91711 -0.954,-1.15437 -1.69366,-1.14252 z" /><path
         id="path104-6-2"
         style="color:#000000;fill:#ffad32;fill-opacity:1;stroke-width:4.60105;-inkscape-stroke:none;paint-order:fill markers stroke"
         d="m -629.41702,-132.40674 c -1.12561,0 -2.07524,0.42417 -2.58191,1.79898 l -8.39163,22.77891 -22.77726,8.389955 c -1.3748,0.506654 -1.80066,1.457981 -1.80066,2.583598 0,1.125621 0.42586,2.075256 1.80066,2.581915 l 22.77726,8.392206 8.39163,22.776681 c 0.50667,1.374812 1.4563,1.801218 2.58191,1.801218 1.12563,0 2.07525,-0.426406 2.58192,-1.801218 l 8.39221,-22.776681 22.78959,-8.395576 0.0102,-0.005 c 1.08566,-0.392255 1.78545,-1.396161 1.7782,-2.550464 v -0.02302 -0.02472 c 0.008,-1.154305 -0.69254,-2.157641 -1.7782,-2.549903 l -0.0102,-0.004 -22.78959,-8.395571 -8.39221,-22.77892 c -0.50667,-1.37481 -1.45629,-1.79896 -2.58192,-1.79896 z" /></g></g><style
     type="text/css"
     id="style1941">
	.st0{fill:none;stroke:#000000;stroke-width:2;stroke-linecap:round;stroke-linejoin:round;stroke-miterlimit:10;}
</style><style
     type="text/css"
     id="style1">
	.st0{fill:#000000;}
</style></svg>
