<?xml version="1.0" encoding="UTF-8" standalone="no"?>
<!-- Created with Inkscape (http://www.inkscape.org/) -->

<svg
   width="999.99994"
   height="1000.0001"
   viewBox="0 0 264.58331 264.58335"
   version="1.1"
   id="svg5"
   xml:space="preserve"
   xmlns:xlink="http://www.w3.org/1999/xlink"
   xmlns="http://www.w3.org/2000/svg"
   xmlns:svg="http://www.w3.org/2000/svg"><defs
     id="defs2"><linearGradient
       id="linearGradient185"><stop
         style="stop-color:#002aff;stop-opacity:1;"
         offset="0"
         id="stop184" /><stop
         style="stop-color:#33dcff;stop-opacity:1;"
         offset="1"
         id="stop185" /></linearGradient><style
       id="style6568">.cls-1{fill:none;}.cls-2{clip-path:url(#clip-path);}</style><linearGradient
       xlink:href="#linearGradient185"
       id="linearGradient474"
       gradientUnits="userSpaceOnUse"
       x1="0"
       y1="256"
       x2="512"
       y2="256" /></defs><g
     id="layer1"
     transform="translate(-8991.1885,-1716.1613)"><rect
       style="fill:#000000;fill-opacity:1;stroke:none;stroke-width:2.5109;stroke-linecap:round;stroke-dasharray:none;stroke-opacity:1;paint-order:markers stroke fill"
       id="rect473"
       width="257.86865"
       height="257.86865"
       x="8994.8691"
       y="1719.3909"
       rx="51.573723"
       ry="51.573723" /><g
       id="g473"
       transform="matrix(0.37553092,0,0,0.37553092,9027.7439,1752.4203)"><path
         id="path473"
         style="fill:url(#linearGradient474);fill-opacity:1"
         d="M 255.99938,-3.3413202e-4 A 256,256 0 0 0 1.0981664e-4,256.00027 256,256 0 0 0 255.99938,511.99954 256,256 0 0 0 511.99998,256.00027 256,256 0 0 0 255.99938,-3.3413202e-4 Z M 254.10833,200.73883 c 30.43352,0 54.9342,24.50068 54.9342,54.9342 0,30.43351 -24.50068,54.9342 -54.9342,54.9342 -30.43351,0 -54.9342,-24.50069 -54.9342,-54.9342 0,-30.43352 24.50069,-54.9342 54.9342,-54.9342 z" /></g><path
       id="path474"
       style="fill:#000000;fill-opacity:0.392818;stroke:none;stroke-width:0.903928;stroke-linecap:round;paint-order:markers stroke fill"
       d="m 9122.9883,1801.9609 c -25.7146,0 -46.4164,20.7017 -46.4164,46.4164 0,25.7146 20.7018,46.4163 46.4164,46.4163 25.714,0 46.416,-20.7017 46.416,-46.4163 0,-25.7147 -20.702,-46.4164 -46.416,-46.4164 z m 0.1803,25.8433 c 11.4288,0 20.6295,9.2007 20.6295,20.6294 0,11.4288 -9.2007,20.6295 -20.6295,20.6295 -11.4287,0 -20.6294,-9.2007 -20.6294,-20.6295 0,-11.4287 9.2007,-20.6294 20.6294,-20.6294 z" /></g><style
     type="text/css"
     id="style1941">
	.st0{fill:none;stroke:#000000;stroke-width:2;stroke-linecap:round;stroke-linejoin:round;stroke-miterlimit:10;}
</style><style
     type="text/css"
     id="style1">
	.st0{fill:#000000;}
</style></svg>
