<?xml version="1.0" encoding="UTF-8" standalone="no"?>
<svg
   xmlns:osb="http://www.openswatchbook.org/uri/2009/osb"
   xmlns:dc="http://purl.org/dc/elements/1.1/"
   xmlns:cc="http://creativecommons.org/ns#"
   xmlns:rdf="http://www.w3.org/1999/02/22-rdf-syntax-ns#"
   xmlns:svg="http://www.w3.org/2000/svg"
   xmlns="http://www.w3.org/2000/svg"
   xmlns:xlink="http://www.w3.org/1999/xlink"
   xmlns:sodipodi="http://sodipodi.sourceforge.net/DTD/sodipodi-0.dtd"
   xmlns:inkscape="http://www.inkscape.org/namespaces/inkscape"
   version="1.1"
   id="Layer_1"
   x="0px"
   y="0px"
   viewBox="0 0 512 512"
   style="enable-background:new 0 0 512 512;"
   xml:space="preserve"
   sodipodi:docname="seekr.svg"
   inkscape:version="1.0.1 (1.0.1+r74)"><metadata
   id="metadata49"><rdf:RDF><cc:Work
       rdf:about=""><dc:format>image/svg+xml</dc:format><dc:type
         rdf:resource="http://purl.org/dc/dcmitype/StillImage" /><dc:title></dc:title></cc:Work></rdf:RDF></metadata><defs
   id="defs47"><linearGradient
     inkscape:collect="always"
     id="linearGradient3090"><stop
       style="stop-color:#93de92;stop-opacity:1;"
       offset="0"
       id="stop3086" /><stop
       style="stop-color:#3737c8;stop-opacity:1"
       offset="1"
       id="stop3088" /></linearGradient><linearGradient
     inkscape:collect="always"
     id="linearGradient3075-7"><stop
       style="stop-color:#93de92;stop-opacity:1;"
       offset="0"
       id="stop3071" /><stop
       style="stop-color:#93de92;stop-opacity:0;"
       offset="1"
       id="stop3073" /></linearGradient><linearGradient
     id="linearGradient3055"
     osb:paint="solid"><stop
       style="stop-color:#93de92;stop-opacity:1;"
       offset="0"
       id="stop3053" /></linearGradient><filter
     inkscape:collect="always"
     style="color-interpolation-filters:sRGB"
     id="filter890"
     x="-0.00054174392"
     width="1.0010835"
     y="-0.00054172538"
     height="1.0010835"><feGaussianBlur
       inkscape:collect="always"
       stdDeviation="0.006596748"
       id="feGaussianBlur892" /></filter><filter
     inkscape:collect="always"
     style="color-interpolation-filters:sRGB"
     id="filter894"
     x="-3.0922256e-05"
     width="1.0000618"
     y="-7.164797e-05"
     height="1.0001433"><feGaussianBlur
       inkscape:collect="always"
       stdDeviation="0.006596748"
       id="feGaussianBlur896" /></filter><linearGradient
     inkscape:collect="always"
     xlink:href="#linearGradient3075-7"
     id="linearGradient3077"
     x1="-0.015832195"
     y1="256"
     x2="363.61172"
     y2="479.39578"
     gradientUnits="userSpaceOnUse"
     spreadMethod="pad" /><linearGradient
     inkscape:collect="always"
     xlink:href="#linearGradient3090"
     id="linearGradient3084"
     gradientUnits="userSpaceOnUse"
     x1="-0.015832195"
     y1="256"
     x2="552.7226"
     y2="588.8042"
     spreadMethod="pad" /><linearGradient
     inkscape:collect="always"
     xlink:href="#linearGradient3090"
     id="linearGradient3092"
     gradientUnits="userSpaceOnUse"
     x1="-0.015832195"
     y1="256"
     x2="363.61172"
     y2="479.39578"
     spreadMethod="pad" /></defs><sodipodi:namedview
   pagecolor="#ffffff"
   bordercolor="#666666"
   borderopacity="1"
   objecttolerance="10"
   gridtolerance="10"
   guidetolerance="10"
   inkscape:pageopacity="0"
   inkscape:pageshadow="2"
   inkscape:window-width="1920"
   inkscape:window-height="972"
   id="namedview45"
   showgrid="false"
   showguides="false"
   inkscape:zoom="0.82519531"
   inkscape:cx="153.70906"
   inkscape:cy="361.89017"
   inkscape:window-x="0"
   inkscape:window-y="35"
   inkscape:window-maximized="1"
   inkscape:current-layer="g3100"
   inkscape:document-rotation="0" />

<g
   id="g3019"
   style="fill:url(#linearGradient3077);fill-opacity:1;fill-rule:nonzero"><g
     id="g3100"><g
       id="g3110"><g
         id="g6"
         style="fill:url(#linearGradient3092);fill-opacity:1;filter:url(#filter890);fill-rule:nonzero">
	<g
   id="g4"
   style="fill:url(#linearGradient3092);fill-opacity:1;fill-rule:nonzero">
		<path
   d="M101.682,269.275l-3.292-3.293c-5.065-5.062-13.272-5.062-18.338,0c-5.063,5.063-5.063,13.274,0,18.338l3.293,3.293    c2.532,2.531,5.85,3.798,9.168,3.798c3.318,0,6.636-1.267,9.169-3.798C106.745,282.55,106.745,274.34,101.682,269.275z"
   id="path2"
   style="fill:url(#linearGradient3092);fill-opacity:1;fill-rule:nonzero" />
	</g>
</g><g
         id="g12"
         style="fill:url(#linearGradient3077);fill-opacity:1;filter:url(#filter894);fill-rule:nonzero">
	<g
   id="g10"
   style="fill:url(#linearGradient3077);fill-opacity:1;fill-rule:nonzero">
		<path
   d="M401.514,145.514c-20.75,0-40.985,5.793-58.518,16.754c0,0-0.001,0-0.001,0.001c-0.06,0.038-0.115,0.077-0.175,0.113    c-0.047,0.03-0.093,0.06-0.14,0.091c-19.587,12.339-34.428,30.109-43.066,50.718c-11.06-11.277-26.492-18.223-43.647-18.223    c-17.026,0-32.472,6.984-43.567,18.29c-5.652-13.476-13.979-25.819-24.727-36.314c-20.759-20.269-48.17-31.43-77.186-31.43    c-20.751,0-40.987,5.793-58.521,16.755c-0.063,0.04-0.124,0.082-0.187,0.121c-0.039,0.026-0.079,0.051-0.119,0.077    C19.307,182.845,0,217.781,0,256c0,60.922,49.564,110.486,110.486,110.486c37.134,0,71.167-18.228,91.75-48.938    c0.156-0.141,0.318-0.272,0.468-0.423c1.614-1.614,2.707-3.548,3.293-5.598c9.804-16.824,14.975-35.945,14.975-55.528    c0-0.726-0.012-1.451-0.022-2.172c1.123-18.49,16.44-32.929,35.017-32.929c19.06,0,34.445,14.878,35.073,33.833    c-0.006,0.424-0.012,0.849-0.012,1.268c0,60.922,49.564,110.486,110.486,110.486c37.134,0,71.168-18.228,91.751-48.938    c0.156-0.141,0.318-0.272,0.468-0.423c1.614-1.614,2.709-3.549,3.294-5.598C506.83,294.706,512,275.584,512,256    C512,195.078,462.436,145.514,401.514,145.514z M110.486,340.553c-46.623,0-84.553-37.93-84.553-84.553    c0-7.808,1.063-15.434,3.078-22.721l27.757,27.757c2.532,2.531,5.85,3.798,9.168,3.798c3.318,0,6.636-1.267,9.169-3.798    c5.063-5.063,5.063-13.274,0-18.338l-34.463-34.463c4.62-6.74,10.251-12.83,16.767-18.067l118.897,118.897    C160.34,328.943,136.402,340.553,110.486,340.553z M189.642,285.723L80.754,176.838c9.447-3.545,19.504-5.391,29.732-5.391    c46.15,0,83.228,36.055,84.522,82.127c-0.032,0.805-0.06,1.614-0.06,2.425c0,0.45,0.023,0.895,0.067,1.332    C194.863,267.095,193.036,276.688,189.642,285.723z M401.514,340.553c-46.449,0-84.259-37.652-84.54-84.036    c0.006-0.172,0.026-0.342,0.026-0.517c0-0.447-0.013-0.921-0.023-1.396c0.119-7.313,1.172-14.465,3.07-21.317l54.328,54.326    c2.532,2.531,5.85,3.798,9.169,3.798s6.636-1.267,9.169-3.798c5.063-5.063,5.063-13.274,0-18.338l-61.022-61.021    c4.621-6.75,10.245-12.85,16.747-18.085l118.897,118.897C451.37,328.943,427.431,340.553,401.514,340.553z M480.669,285.724    L371.782,176.838c9.447-3.545,19.504-5.391,29.731-5.391c46.624,0,84.555,37.93,84.555,84.553    C486.067,266.225,484.22,276.279,480.669,285.724z"
   id="path8"
   style="fill:url(#linearGradient3084);fill-opacity:1;fill-rule:nonzero" />
	</g>
</g></g></g></g>
<g
   id="g14">
</g>
<g
   id="g16">
</g>
<g
   id="g18">
</g>
<g
   id="g20">
</g>
<g
   id="g22">
</g>
<g
   id="g24">
</g>
<g
   id="g26">
</g>
<g
   id="g28">
</g>
<g
   id="g30">
</g>
<g
   id="g32">
</g>
<g
   id="g34">
</g>
<g
   id="g36">
</g>
<g
   id="g38">
</g>
<g
   id="g40">
</g>
<g
   id="g42">
</g>
</svg>
