<?xml version="1.0" encoding="UTF-8" standalone="no"?>
<svg
   xmlns:dc="http://purl.org/dc/elements/1.1/"
   xmlns:cc="http://creativecommons.org/ns#"
   xmlns:rdf="http://www.w3.org/1999/02/22-rdf-syntax-ns#"
   xmlns:svg="http://www.w3.org/2000/svg"
   xmlns="http://www.w3.org/2000/svg"
   xmlns:sodipodi="http://sodipodi.sourceforge.net/DTD/sodipodi-0.dtd"
   xmlns:inkscape="http://www.inkscape.org/namespaces/inkscape"
   version="1.1"
   id="Capa_1"
   x="0px"
   y="0px"
   viewBox="0 0 512 512"
   style="enable-background:new 0 0 512 512;"
   xml:space="preserve"
   sodipodi:docname="dreamcatcher.svg"
   inkscape:version="1.0.1 (1.0.1+r74)"><metadata
   id="metadata1150"><rdf:RDF><cc:Work
       rdf:about=""><dc:format>image/svg+xml</dc:format><dc:type
         rdf:resource="http://purl.org/dc/dcmitype/StillImage" /></cc:Work></rdf:RDF></metadata><defs
   id="defs1148" /><sodipodi:namedview
   pagecolor="#ffffff"
   bordercolor="#666666"
   borderopacity="1"
   objecttolerance="10"
   gridtolerance="10"
   guidetolerance="10"
   inkscape:pageopacity="0"
   inkscape:pageshadow="2"
   inkscape:window-width="1920"
   inkscape:window-height="1008"
   id="namedview1146"
   showgrid="false"
   inkscape:zoom="0.79848379"
   inkscape:cx="285.05536"
   inkscape:cy="300.88006"
   inkscape:window-x="0"
   inkscape:window-y="0"
   inkscape:window-maximized="1"
   inkscape:current-layer="g1113" />
<g
   id="g1113">
	<g
   id="g1111">
		<path
   d="M363.997,305.892v-81.517c9.199-17.179,14.426-36.791,14.426-57.603c0-62.408-46.942-114.054-107.37-121.497V15.053    C271.053,6.74,264.314,0,256,0c-8.313,0-15.053,6.74-15.053,15.053v30.223c-60.428,7.443-107.37,59.088-107.37,121.497    c0,20.807,5.224,40.417,14.421,57.592v81.53c-15.228,6.02-26.033,20.877-26.033,38.219c0,16.36,19.437,54.745,27.792,70.49    c2.611,4.92,7.726,7.996,13.297,7.996c5.571,0,10.685-3.076,13.297-7.996c8.356-15.744,27.792-54.129,27.792-70.49    c0-17.345-10.808-32.203-26.039-38.222v-44.745c17.53,14.494,39.15,24.204,62.843,27.123v70.713    c-21.06,6.455-36.419,26.078-36.419,49.225c0,22.142,29.223,78.922,38.18,95.797c2.611,4.92,7.726,7.996,13.297,7.996    c5.571,0,10.685-3.076,13.296-7.996c8.957-16.875,38.18-73.655,38.18-95.797c0-23.15-15.362-42.774-36.427-49.227v-70.711    c23.691-2.918,45.309-12.625,62.838-27.118v44.743c-15.228,6.02-26.033,20.877-26.033,38.219c0,16.36,19.437,54.745,27.793,70.49    c2.611,4.92,7.725,7.996,13.296,7.996c5.571,0,10.685-3.076,13.296-7.996c8.356-15.744,27.792-54.129,27.792-70.49    C390.035,326.769,379.227,311.91,363.997,305.892z M271.053,75.689c22.533,3.712,42.345,15.607,56.263,32.528l-36.759,21.222    c-5.514-5.108-12.153-9.018-19.505-11.299V75.689z M240.947,75.689v42.451c-7.352,2.28-13.989,6.191-19.504,11.299l-36.759-21.223    C198.602,91.296,218.413,79.401,240.947,75.689z M163.052,373.541c-6.15-13.429-10.773-25.221-10.98-29.427    c0-6.056,4.926-10.983,10.983-10.983c6.038,0,10.955,4.898,10.983,10.931C173.81,348.335,169.19,360.125,163.052,373.541z     M169.597,199.275c-3.817-10.115-5.914-21.067-5.914-32.503c0-11.435,2.095-22.388,5.914-32.503l36.772,21.23    c-0.824,3.629-1.273,7.398-1.273,11.273c0,3.875,0.45,7.644,1.273,11.273L169.597,199.275z M184.684,225.329l36.759-21.223    c5.514,5.108,12.153,9.018,19.504,11.299v42.451C218.413,254.143,198.602,242.248,184.684,225.329z M277.373,408.208    c0,7.17-9.633,30.769-21.37,55.286c-11.736-24.511-21.368-48.109-21.368-55.286c0-11.784,9.587-21.369,21.369-21.369    C267.787,386.837,277.373,396.424,277.373,408.208z M256,187.572c-11.468,0-20.798-9.33-20.798-20.799    c0-11.469,9.33-20.799,20.798-20.799c11.468,0,20.799,9.33,20.799,20.799C276.799,178.242,267.468,187.572,256,187.572z     M271.053,257.856v-42.451c7.352-2.28,13.99-6.191,19.505-11.299l36.759,21.222C313.398,242.25,293.587,254.143,271.053,257.856z     M305.632,178.044c0.824-3.629,1.274-7.398,1.274-11.274s-0.45-7.642-1.274-11.272l36.772-21.23    c3.817,10.115,5.913,21.068,5.913,32.503s-2.095,22.388-5.913,32.503L305.632,178.044z M348.944,373.541    c-6.15-13.429-10.773-25.221-10.98-29.427c0-6.056,4.926-10.983,10.983-10.983c6.038,0,10.954,4.898,10.982,10.931    C359.703,348.335,355.082,360.125,348.944,373.541z"
   id="path1109"
   style="fill:#000000;fill-opacity:1" />
	</g>
</g>
<g
   id="g1115">
</g>
<g
   id="g1117">
</g>
<g
   id="g1119">
</g>
<g
   id="g1121">
</g>
<g
   id="g1123">
</g>
<g
   id="g1125">
</g>
<g
   id="g1127">
</g>
<g
   id="g1129">
</g>
<g
   id="g1131">
</g>
<g
   id="g1133">
</g>
<g
   id="g1135">
</g>
<g
   id="g1137">
</g>
<g
   id="g1139">
</g>
<g
   id="g1141">
</g>
<g
   id="g1143">
</g>
</svg>
