<?xml version="1.0" encoding="UTF-8" standalone="no"?>
<svg
   version="1.1"
   id="Capa_1"
   x="0px"
   y="0px"
   viewBox="0 0 500 200"
   xml:space="preserve"
   sodipodi:docname="lucid.svg"
   inkscape:version="1.1 (c4e8f9e, 2021-05-24)"
   width="500"
   height="200"
   inkscape:export-filename="/home/doruk/Desktop/Tasarım/Projeler/Lucid/lucid.png"
   inkscape:export-xdpi="120"
   inkscape:export-ydpi="120"
   xmlns:inkscape="http://www.inkscape.org/namespaces/inkscape"
   xmlns:sodipodi="http://sodipodi.sourceforge.net/DTD/sodipodi-0.dtd"
   xmlns:xlink="http://www.w3.org/1999/xlink"
   xmlns="http://www.w3.org/2000/svg"
   xmlns:svg="http://www.w3.org/2000/svg"
   xmlns:rdf="http://www.w3.org/1999/02/22-rdf-syntax-ns#"
   xmlns:cc="http://creativecommons.org/ns#"
   xmlns:dc="http://purl.org/dc/elements/1.1/"><metadata
   id="metadata1150"><rdf:RDF><cc:Work
       rdf:about=""><dc:format>image/svg+xml</dc:format><dc:type
         rdf:resource="http://purl.org/dc/dcmitype/StillImage" /></cc:Work></rdf:RDF></metadata><defs
   id="defs1148"><linearGradient
     inkscape:collect="always"
     id="linearGradient519080"><stop
       style="stop-color:#74c7d7;stop-opacity:1"
       offset="0"
       id="stop519076" /><stop
       style="stop-color:#e5d299;stop-opacity:1"
       offset="1"
       id="stop519078" /></linearGradient><linearGradient
     inkscape:collect="always"
     xlink:href="#linearGradient1493"
     id="linearGradient1495"
     x1="256.00308"
     y1="97.110542"
     x2="256.00308"
     y2="513.37305"
     gradientUnits="userSpaceOnUse"
     gradientTransform="matrix(0.341908,0,0,0.341908,-21.426594,12.581512)" /><linearGradient
     inkscape:collect="always"
     id="linearGradient1493"><stop
       style="stop-color:#71c9db;stop-opacity:1"
       offset="0"
       id="stop1489" /><stop
       style="stop-color:#e5d899;stop-opacity:1"
       offset="1"
       id="stop1491" /></linearGradient><linearGradient
     inkscape:collect="always"
     xlink:href="#linearGradient519080"
     id="linearGradient511749"
     gradientUnits="userSpaceOnUse"
     gradientTransform="matrix(0.33909499,0,0,0.33909499,-20.631675,13.294981)"
     x1="256.00308"
     y1="96.372986"
     x2="256.00308"
     y2="548.2002" /></defs><sodipodi:namedview
   pagecolor="#ffffff"
   bordercolor="#666666"
   borderopacity="1"
   objecttolerance="10"
   gridtolerance="10"
   guidetolerance="10"
   inkscape:pageopacity="0"
   inkscape:pageshadow="2"
   inkscape:window-width="1920"
   inkscape:window-height="971"
   id="namedview1146"
   showgrid="false"
   inkscape:zoom="90.509668"
   inkscape:cx="485.58901"
   inkscape:cy="114.01544"
   inkscape:window-x="0"
   inkscape:window-y="0"
   inkscape:window-maximized="1"
   inkscape:current-layer="Capa_1"
   inkscape:pagecheckerboard="1"
   showguides="true"
   inkscape:guide-bbox="true"><sodipodi:guide
     position="-94.166806,187.42509"
     orientation="0,-1"
     id="guide3043" /><sodipodi:guide
     position="-40.917903,12.360559"
     orientation="0,-1"
     id="guide3072" /><sodipodi:guide
     position="12.472306,216.53596"
     orientation="1,0"
     id="guide3102" /><sodipodi:guide
     position="487.63786,291.62517"
     orientation="1,0"
     id="guide3104" /><sodipodi:guide
     position="-164.23885,99.980946"
     orientation="0,-1"
     id="guide494647" /></sodipodi:namedview>
<g
   id="g1113"
   transform="translate(-7.5214928)">
	
<g
   aria-label="Lucid.js"
   id="text201347"
   style="font-weight:900;font-size:94.2038px;line-height:1.25;font-family:'Source Sans Pro';-inkscape-font-specification:'Source Sans Pro Heavy';letter-spacing:4px;fill:#83ccdd;stroke-width:0.224294"
   transform="matrix(1.0789129,0,0,1.0789129,-20.61676,-3.8004271)"><path
     id="path491922"
     style="font-weight:bold;font-family:Distro;-inkscape-font-specification:'Distro Bold';fill:#17191c"
     d="m 163.51283,51.698566 c -2.90486,-0.073 -5.64783,1.706375 -6.97811,4.252268 -1.84524,3.516748 -1.42256,7.614707 -1.47892,11.444607 0.0125,15.247916 -0.025,30.496363 0.0188,45.743949 0.0768,2.65691 0.45725,5.40939 1.93838,7.68241 1.60621,2.66413 4.39807,4.60977 7.50508,5.00462 2.97272,0.43793 5.98977,0.16432 8.98232,0.24129 5.07839,-0.0288 10.15932,0.0586 15.23613,-0.0452 2.89568,-0.17712 5.98362,-0.57987 8.3837,-2.3435 2.61507,-1.99358 3.14136,-5.85629 1.91753,-8.76866 -1.09467,-2.61404 -3.88392,-3.92219 -6.50979,-4.46126 -3.95954,-0.8557 -8.03528,-0.41869 -12.05053,-0.54384 -2.21467,-0.0511 -4.69208,-0.19204 -6.36298,-1.84339 -1.53185,-1.45577 -2.06681,-3.59985 -2.12179,-5.64743 -0.0712,-7.390447 -0.0102,-14.783425 -0.0306,-22.174838 -0.0217,-6.116196 0.0434,-12.233947 -0.0322,-18.34919 -0.16962,-3.135791 -1.05241,-6.53111 -3.58258,-8.601204 -1.35663,-1.07293 -3.11846,-1.582657 -4.83443,-1.590622 z" /><path
     id="path491924"
     style="font-weight:bold;font-family:Distro;-inkscape-font-specification:'Distro Bold';fill:#17191c"
     d="m 209.54015,72.389995 c -3.58985,0.127065 -6.59168,3.15224 -7.26651,6.58543 -0.67634,3.045322 -0.31691,6.188247 -0.40927,9.279023 0.0272,5.989463 -0.0555,11.980732 0.0432,17.969062 0.20644,5.16691 1.35059,10.59851 4.78213,14.63345 3.05621,3.65708 7.69081,5.76371 12.40378,6.11066 3.2973,0.23336 6.72414,0.12018 9.80485,-1.20393 1.60211,-0.53788 3.05941,-1.4619 4.68085,-1.92643 2.81355,-0.40473 5.43734,1.08664 8.23604,1.04018 2.55474,0.19707 5.39831,-0.398 7.07255,-2.4933 1.73402,-2.23458 2.19405,-5.15247 2.49388,-7.89067 0.32144,-3.90451 0.11155,-7.82864 0.17214,-11.74176 -0.028,-6.28897 0.0573,-12.579414 -0.0448,-18.867469 -0.11145,-2.994378 -0.39496,-6.199001 -2.18961,-8.711043 -1.42147,-1.952406 -3.8719,-2.903955 -6.24253,-2.785838 -2.31541,-0.03291 -4.56249,1.141952 -5.8688,3.051463 -2.15644,2.915173 -2.40971,6.698252 -2.3711,10.200391 -0.025,4.793022 0.0503,9.588074 -0.0382,14.379836 -0.26578,3.05877 -0.78643,6.23564 -2.46331,8.86968 -0.93518,1.472 -2.37075,2.86329 -4.22929,2.86013 -2.43178,0.0539 -5.20938,-0.32264 -6.82142,-2.35596 -1.86131,-2.30423 -2.50828,-5.32502 -2.8812,-8.19711 -0.67485,-6.354646 -0.22388,-12.754866 -0.44691,-19.126634 -0.16825,-3.099948 -1.17094,-6.44541 -3.75443,-8.380333 -1.33813,-0.978291 -3.02201,-1.370946 -4.66211,-1.298828 z" /><path
     id="path491926"
     style="font-weight:bold;font-family:Distro;-inkscape-font-specification:'Distro Bold';fill:#17191c"
     d="m 283.72093,72.485568 c -6.44701,0.285888 -12.88539,2.554449 -17.75979,6.85026 -3.72487,3.232423 -6.56973,7.524415 -7.97654,12.259115 -1.30124,4.629361 -1.47781,9.571277 -0.61948,14.296657 0.65432,3.13899 1.84433,6.17928 3.47772,8.93769 1.14465,2.00931 2.70982,3.72136 4.38413,5.29904 3.18934,3.29817 7.50662,5.26736 11.86509,6.50715 3.96889,1.13538 8.19927,1.24772 12.24686,0.47325 3.08109,-0.54997 6.19031,-1.76739 8.40151,-4.04886 1.9654,-2.16551 2.23291,-5.57955 0.9603,-8.15595 -1.13503,-2.12883 -3.65553,-2.99216 -5.91145,-3.27578 -2.43072,-0.25047 -4.85424,0.15917 -7.25,0.50781 -1.60407,0.22393 -3.43448,-0.19106 -4.96507,-0.87445 -2.29827,-1.06565 -4.29047,-2.80236 -5.48765,-5.05261 -2.02193,-3.42873 -1.92968,-7.817096 -0.39493,-11.410822 1.66062,-3.942197 5.71547,-6.851366 10.05078,-6.748047 2.74124,0.15695 5.43843,0.926184 8.20313,0.730469 2.28213,-0.08052 4.82274,-0.846662 6.01171,-2.960938 1.20001,-2.076249 1.49494,-4.805458 0.41797,-6.992187 -1.02361,-1.875837 -2.87225,-3.150806 -4.72851,-4.117188 -3.39131,-1.58349 -7.18354,-2.373165 -10.92578,-2.224609 z"
     sodipodi:nodetypes="ccccccccccccccccccccc" /><path
     id="path491928"
     style="font-weight:bold;font-family:Distro;-inkscape-font-specification:'Distro Bold';fill:#17191c"
     sodipodi:type="inkscape:offset"
     inkscape:radius="0.67030209"
     inkscape:original="M 313.17383 52.492188 C 310.63989 52.442707 308.05472 53.652776 306.75195 55.880859 C 304.57742 59.17636 305.31769 64.204304 308.62891 66.474609 C 310.70983 67.801585 313.41195 68.00791 315.74805 67.316406 C 319.12762 66.241999 321.63652 62.62379 321.01758 59.052734 C 320.56106 55.937166 318.09165 53.07285 314.89453 52.626953 C 314.32672 52.524943 313.74948 52.497574 313.17383 52.492188 z M 313.1875 73.123047 C 310.97634 73.073887 308.80188 74.191382 307.61328 76.066406 C 305.79598 78.728295 305.32822 82.050898 305.24023 85.205078 C 305.23323 95.344 305.21385 105.4845 305.25195 115.62305 C 305.33485 117.99081 305.75343 120.41727 306.9043 122.51172 C 307.97026 124.37902 309.7593 125.93835 311.95703 126.19727 C 314.41164 126.60088 317.15198 125.86475 318.70898 123.83203 C 320.93549 121.05465 321.66632 117.37176 321.57227 113.88086 C 321.55787 104.22132 321.60108 94.561376 321.55078 84.902344 C 321.37942 82.441694 321.07329 79.927779 319.93164 77.703125 C 318.89807 75.414651 316.83738 73.395206 314.23242 73.181641 C 313.88613 73.132641 313.53645 73.125837 313.1875 73.123047 z "
     d="m 313.17969,51.822266 c -2.74631,-0.05108 -5.54573,1.247834 -6.99219,3.703125 -2.37554,3.615392 -1.58673,8.999892 2.0625,11.501953 a 0.67036912,0.67036912 0 0 0 0.0176,0.01172 c 2.27616,1.451479 5.16413,1.661655 7.66992,0.919922 a 0.67036912,0.67036912 0 0 0 0.0137,-0.0039 c 3.70113,-1.176635 6.40806,-5.068589 5.72656,-9.013672 -0.50312,-3.392181 -3.15327,-6.479998 -6.68359,-6.976562 -0.61557,-0.108851 -1.22258,-0.136932 -1.80664,-0.142578 z m 0.0137,20.630859 c -2.43856,-0.05082 -4.81493,1.168559 -6.13672,3.244141 -1.92852,2.830535 -2.39695,6.28434 -2.48633,9.488281 a 0.67036912,0.67036912 0 0 0 0,0.01953 c -0.007,10.138377 -0.0264,20.278842 0.0117,30.419922 a 0.67036912,0.67036912 0 0 0 0,0.0215 c 0.0851,2.43061 0.51132,4.96168 1.73438,7.1875 a 0.67036912,0.67036912 0 0 0 0.006,0.01 c 1.14444,2.00478 3.08457,3.7207 5.54492,4.01563 2.65648,0.4307 5.63464,-0.35226 7.37109,-2.61719 2.35353,-2.94176 3.09818,-6.77436 3.00391,-10.36328 v -0.0156 c -0.0143,-9.65167 0.0288,-19.306694 -0.0215,-28.964842 a 0.67036912,0.67036912 0 0 0 -0.002,-0.04297 c -0.17277,-2.480924 -0.47851,-5.087903 -1.6875,-7.449219 -1.11251,-2.447136 -3.32989,-4.648495 -6.23633,-4.890625 -0.38421,-0.05185 -0.7501,-0.05972 -1.0918,-0.0625 z"
     transform="translate(0.92086947)" /><path
     id="path491930"
     style="font-weight:bold;font-family:Distro;-inkscape-font-specification:'Distro Bold';fill:#17191c"
     d="m 375.09375,48.165255 c -2.86464,0.05439 -5.38123,2.116295 -6.41034,4.723094 -1.5557,3.756416 -1.04501,7.911989 -1.14044,11.872219 -0.0133,2.703091 0.0162,5.436107 -0.46664,8.103503 -0.32179,1.057913 -0.53532,2.407676 -1.60367,2.973059 -1.06533,0.209572 -2.20449,0.105276 -3.25782,-0.130859 -2.0792,-0.836548 -4.24052,-1.497814 -6.46062,-1.834153 -6.83064,-0.873157 -13.95263,1.32287 -19.19272,5.769785 -3.54023,2.957125 -6.0375,7.037196 -7.5543,11.360858 -1.66439,5.122012 -1.83561,10.651829 -1.05017,15.951549 0.91944,5.57584 3.3903,11.01326 7.4762,14.97758 4.33805,4.13406 10.22709,6.57989 16.22216,6.6953 2.97561,0.12466 5.99146,-0.1789 8.79616,-1.22535 2.28003,-0.71114 4.39611,-2.24267 6.88357,-2.04474 1.33174,-0.0557 2.63895,0.2248 3.85058,0.76769 1.64597,0.56586 3.45314,0.51249 5.16586,0.33734 2.57314,-0.31001 4.88406,-1.98273 6.00976,-4.31339 1.91835,-3.65028 1.7193,-7.89531 1.71095,-11.89286 -0.0103,-16.715148 0.0205,-33.430805 -0.0154,-50.145635 -0.0832,-2.987263 -0.55417,-6.079963 -2.07789,-8.695028 -0.97694,-1.65497 -2.71859,-2.73017 -4.59473,-3.046477 -0.74971,-0.168699 -1.5231,-0.228646 -2.2905,-0.203485 z M 356.9668,88.823458 c 6.27293,0.959885 10.375,5.586411 10.375,11.966792 0.1111,3.21731 -1.123,6.42942 -3.16016,8.89649 -1.94597,2.18543 -4.77296,3.67366 -7.74646,3.56034 -4.59971,0.0191 -9.09408,-2.69042 -11.14891,-6.82007 -1.45346,-3.03663 -1.31786,-6.658476 -0.23782,-9.790187 1.28196,-3.385987 4.18191,-6.01771 7.58903,-7.175791 1.37965,-0.513138 2.8604,-0.72736 4.32932,-0.637574 z"
     sodipodi:nodetypes="cccccccccccccccccccccccccccccc" /></g><path
   style="fill:url(#linearGradient1495);fill-opacity:1;stroke-width:0.341909"
   sodipodi:type="inkscape:offset"
   inkscape:radius="0"
   inkscape:original="M 66.175781 12.185547 C 62.755691 12.185547 59.962891 14.980363 59.962891 18.400391 L 59.962891 27.720703 C 39.401332 30.744296 23.554687 48.467419 23.554688 69.845703 C 23.554688 76.976253 25.334522 83.700277 28.445312 89.613281 L 28.445312 116.38086 C 23.265871 118.75795 19.615233 123.92536 19.615234 129.98242 C 19.615234 133.18557 21.336698 137.79366 23.357422 142.45117 C 25.379284 147.1113 27.745305 151.71966 29.169922 154.4043 C 30.246715 156.43341 32.359935 157.70703 34.658203 157.70703 C 36.956448 157.70703 39.07103 156.43365 40.148438 154.4043 C 41.573169 151.71981 43.939554 147.11334 45.960938 142.45312 C 47.981184 137.79554 49.701172 133.18551 49.701172 129.98242 C 49.701172 123.92458 46.051526 118.75582 40.871094 116.37891 L 40.871094 103.98047 C 46.37936 108.07681 52.868802 110.90362 59.962891 111.94922 L 59.962891 134.2793 C 52.783429 136.84816 47.613281 143.67322 47.613281 151.71484 C 47.613281 155.94715 50.168824 162.56932 53.042969 169.07617 C 55.918111 175.58529 59.161445 181.8437 60.6875 184.71875 C 61.764581 186.7484 63.879513 188.02148 66.177734 188.02148 C 68.475954 188.02148 70.590887 186.7484 71.667969 184.71875 C 73.193962 181.84382 76.439282 175.58535 79.314453 169.07617 C 82.188624 162.56926 84.742188 155.94702 84.742188 151.71484 C 84.742188 143.67215 79.571675 136.84747 72.390625 134.2793 L 72.390625 111.94922 C 79.48404 110.90397 85.972383 108.07832 91.480469 103.98242 L 91.480469 116.38086 C 86.301153 118.75801 82.652344 123.92551 82.652344 129.98242 C 82.652344 133.1854 84.371856 137.79358 86.392578 142.45117 C 88.414403 147.11131 90.780282 151.7196 92.205078 154.4043 C 93.281901 156.43346 95.395255 157.70703 97.693359 157.70703 C 99.991671 157.70703 102.10831 156.43403 103.18555 154.4043 C 104.6104 151.71966 106.97475 147.11324 108.99609 142.45312 C 111.01631 137.79554 112.73633 133.18551 112.73633 129.98242 C 112.73601 123.9247 109.08844 118.7556 103.9082 116.37891 L 103.9082 89.617188 C 107.0198 83.70277 108.79883 76.977814 108.79883 69.845703 C 108.79883 48.467732 92.95226 30.74243 72.390625 27.71875 L 72.390625 18.400391 C 72.390625 14.980296 69.596201 12.185547 66.175781 12.185547 z M 59.962891 40.382812 L 59.962891 52.642578 C 57.907588 53.388512 56.033072 54.484093 54.394531 55.867188 L 43.777344 49.738281 C 47.979796 45.062933 53.592429 41.726709 59.962891 40.382812 z M 72.390625 40.382812 C 78.761062 41.726697 84.37553 45.062829 88.578125 49.738281 L 77.958984 55.867188 C 76.320255 54.483948 74.445977 53.388624 72.390625 52.642578 L 72.390625 40.382812 z M 37.548828 60.492188 L 48.154297 66.617188 C 47.958746 67.659194 47.806641 68.725998 47.806641 69.845703 C 47.806641 70.965731 47.958823 72.035273 48.154297 73.078125 L 37.548828 79.199219 C 36.57302 76.242627 35.980469 73.118273 35.980469 69.845703 C 35.980469 66.573319 36.572739 63.448667 37.548828 60.492188 z M 94.806641 60.492188 C 95.781764 63.448428 96.371094 66.573039 96.371094 69.845703 C 96.371094 73.118432 95.781886 76.243048 94.806641 79.199219 L 84.201172 73.078125 C 84.396795 72.035152 84.548828 70.965833 84.548828 69.845703 C 84.548828 68.725747 84.396711 67.659167 84.201172 66.617188 L 94.806641 60.492188 z M 66.175781 63.902344 C 69.463369 63.902344 72.119142 66.55779 72.119141 69.845703 C 72.119141 73.13359 69.462963 75.791016 66.175781 75.791016 C 62.888602 75.791016 60.232422 73.13359 60.232422 69.845703 C 60.232422 66.557788 62.888203 63.902344 66.175781 63.902344 z M 54.394531 83.828125 C 56.033163 85.211194 57.90803 86.304921 59.962891 87.050781 L 59.962891 99.310547 C 53.592404 97.966402 47.9798 94.630172 43.777344 89.955078 L 54.394531 83.828125 z M 77.958984 83.828125 L 88.578125 89.955078 C 84.375347 94.630816 78.761366 97.966462 72.390625 99.310547 L 72.390625 87.050781 C 74.445818 86.305065 76.32005 85.21124 77.958984 83.828125 z M 34.660156 127.36719 C 36.095503 127.36719 37.235781 128.50413 37.263672 129.93359 C 37.251382 130.11607 37.158557 130.58001 36.984375 131.18359 C 36.808262 131.79387 36.555751 132.56006 36.234375 133.41016 C 35.841627 134.44902 35.241509 135.79867 34.658203 137.12305 C 34.073345 135.79705 33.470881 134.4441 33.078125 133.40625 C 32.756484 132.55633 32.503653 131.79143 32.328125 131.18359 C 32.15423 130.58141 32.061125 130.11897 32.050781 129.95117 C 32.067851 128.5126 33.216925 127.36719 34.660156 127.36719 z M 97.693359 127.36719 C 99.128772 127.36719 100.27286 128.50518 100.30078 129.93359 C 100.28848 130.11568 100.19614 130.57995 100.02148 131.18359 C 99.844893 131.79392 99.590949 132.55995 99.269531 133.41016 C 98.876781 134.44902 98.276666 135.79867 97.693359 137.12305 C 97.109067 135.79724 96.508084 134.44433 96.115234 133.40625 C 95.793542 132.55621 95.539301 131.79148 95.363281 131.18359 C 95.188899 130.58136 95.09626 130.11846 95.085938 129.95117 C 95.102977 128.51184 96.250195 127.36719 97.693359 127.36719 z M 66.177734 145.58008 C 69.572283 145.57949 72.316406 148.32024 72.316406 151.71484 C 72.316406 152.05475 72.143013 153.00553 71.789062 154.17969 C 71.434125 155.35712 70.911433 156.82517 70.261719 158.47852 C 69.219458 161.13076 67.717208 164.42333 66.177734 167.71875 C 64.638363 164.42386 63.13605 161.13073 62.09375 158.47852 C 61.44407 156.82535 60.923404 155.35957 60.568359 154.18164 C 60.2144 153.0073 60.041016 152.05567 60.041016 151.71484 C 60.041016 148.32015 62.783298 145.58008 66.177734 145.58008 z "
   xlink:href="#path1109"
   id="path506499"
   inkscape:href="#path1109"
   d="m 66.175781,12.185547 c -3.42009,0 -6.21289,2.794816 -6.21289,6.214844 v 9.320312 c -20.561559,3.023593 -36.408204,20.746716 -36.408203,42.125 0,7.13055 1.779834,13.854574 4.890624,19.767578 v 26.767579 c -5.179441,2.37709 -8.830079,7.5445 -8.830078,13.60156 0,3.20315 1.721464,7.81124 3.742188,12.46875 2.021862,4.66013 4.387883,9.26849 5.8125,11.95313 1.076793,2.02911 3.190013,3.30273 5.488281,3.30273 2.298245,0 4.412827,-1.27338 5.490235,-3.30273 1.424731,-2.68449 3.791116,-7.29096 5.8125,-11.95118 2.020246,-4.65758 3.740234,-9.26761 3.740234,-12.4707 0,-6.05784 -3.649646,-11.2266 -8.830078,-13.60351 v -12.39844 c 5.508266,4.09634 11.997708,6.92315 19.091797,7.96875 v 22.33008 c -7.179462,2.56886 -12.34961,9.39392 -12.34961,17.43554 0,4.23231 2.555543,10.85448 5.429688,17.36133 2.875142,6.50912 6.118476,12.76753 7.644531,15.64258 1.077081,2.02965 3.192013,3.30273 5.490234,3.30273 2.29822,0 4.413153,-1.27308 5.490235,-3.30273 1.525993,-2.87493 4.771313,-9.1334 7.646484,-15.64258 2.874171,-6.50691 5.427735,-13.12915 5.427735,-17.36133 0,-8.04269 -5.170513,-14.86737 -12.351563,-17.43554 v -22.33008 c 7.093415,-1.04525 13.581758,-3.8709 19.089844,-7.9668 v 12.39844 c -5.179316,2.37715 -8.828125,7.54465 -8.828125,13.60156 0,3.20298 1.719512,7.81116 3.740234,12.46875 2.021825,4.66014 4.387704,9.26843 5.8125,11.95313 1.076823,2.02916 3.190177,3.30273 5.488281,3.30273 2.298312,0 4.414951,-1.273 5.492191,-3.30273 1.42485,-2.68464 3.7892,-7.29106 5.81054,-11.95118 2.02022,-4.65758 3.74024,-9.26761 3.74024,-12.4707 -3.2e-4,-6.05772 -3.64789,-11.22682 -8.82813,-13.60351 V 89.617188 c 3.1116,-5.914418 4.89063,-12.639374 4.89063,-19.771485 0,-21.377971 -15.84657,-39.103273 -36.408205,-42.126953 v -9.318359 c 0,-3.420095 -2.794424,-6.214844 -6.214844,-6.214844 z m -6.21289,28.197265 v 12.259766 c -2.055303,0.745934 -3.929819,1.841515 -5.56836,3.22461 L 43.777344,49.738281 c 4.202452,-4.675348 9.815085,-8.011572 16.185547,-9.355469 z m 12.427734,0 c 6.370437,1.343885 11.984905,4.680017 16.1875,9.355469 l -10.619141,6.128907 c -1.638729,-1.38324 -3.513007,-2.478564 -5.568359,-3.22461 z m -34.841797,20.109376 10.605469,6.125 c -0.195551,1.042006 -0.347656,2.10881 -0.347656,3.228515 0,1.120028 0.152182,2.18957 0.347656,3.232422 l -10.605469,6.121094 c -0.975808,-2.956592 -1.568359,-6.080946 -1.568359,-9.353516 0,-3.272384 0.59227,-6.397036 1.568359,-9.353515 z m 57.257813,0 c 0.975123,2.95624 1.564453,6.080851 1.564453,9.353515 0,3.272729 -0.589208,6.397345 -1.564453,9.353516 L 84.201172,73.078125 c 0.195623,-1.042973 0.347656,-2.112292 0.347656,-3.232422 0,-1.119956 -0.152117,-2.186536 -0.347656,-3.228515 z m -28.63086,3.410156 c 3.287588,0 5.943361,2.655446 5.94336,5.943359 0,3.287887 -2.656178,5.945313 -5.94336,5.945313 -3.287179,0 -5.943359,-2.657426 -5.943359,-5.945313 0,-3.287915 2.655781,-5.943359 5.943359,-5.943359 z m -11.78125,19.925781 c 1.638632,1.383069 3.513499,2.476796 5.56836,3.222656 V 99.310547 C 53.592404,97.966402 47.9798,94.630172 43.777344,89.955078 Z m 23.564453,0 10.619141,6.126953 c -4.202778,4.675738 -9.816759,8.011384 -16.1875,9.355469 V 87.050781 c 2.055193,-0.745716 3.929425,-1.839541 5.568359,-3.222656 z M 34.660156,127.36719 c 1.435347,0 2.575625,1.13694 2.603516,2.5664 -0.01229,0.18248 -0.105115,0.64642 -0.279297,1.25 -0.176113,0.61028 -0.428624,1.37647 -0.75,2.22657 -0.392748,1.03886 -0.992866,2.38851 -1.576172,3.71289 -0.584858,-1.326 -1.187322,-2.67895 -1.580078,-3.7168 -0.321641,-0.84992 -0.574472,-1.61482 -0.75,-2.22266 -0.173895,-0.60218 -0.267,-1.06462 -0.277344,-1.23242 0.01707,-1.43857 1.166144,-2.58398 2.609375,-2.58398 z m 63.033203,0 c 1.435413,0 2.579501,1.13799 2.607421,2.5664 -0.0123,0.18209 -0.10464,0.64636 -0.2793,1.25 -0.176587,0.61033 -0.430531,1.37636 -0.751949,2.22657 -0.39275,1.03886 -0.992865,2.38851 -1.576172,3.71289 -0.584292,-1.32581 -1.185275,-2.67872 -1.578125,-3.7168 -0.321692,-0.85004 -0.575933,-1.61477 -0.751953,-2.22266 -0.174382,-0.60223 -0.267021,-1.06513 -0.277343,-1.23242 0.01704,-1.43933 1.164257,-2.58398 2.607421,-2.58398 z m -31.515625,18.21289 c 3.394549,-5.9e-4 6.138672,2.74016 6.138672,6.13476 0,0.33991 -0.173393,1.29069 -0.527344,2.46485 -0.354937,1.17743 -0.877629,2.64548 -1.527343,4.29883 -1.042261,2.65224 -2.544511,5.94481 -4.083985,9.24023 -1.539371,-3.29489 -3.041684,-6.58802 -4.083984,-9.24023 -0.64968,-1.65317 -1.170346,-3.11895 -1.525391,-4.29688 -0.353959,-1.17434 -0.527343,-2.12597 -0.527343,-2.4668 0,-3.39469 2.742282,-6.13476 6.136718,-6.13476 z"
   transform="translate(0.19614399)" /><path
   id="path1109"
   style="fill:url(#linearGradient511749);stroke-width:0.339096"
   d="m 66.175781,12.185547 c -3.42009,0 -6.21289,2.794816 -6.21289,6.214844 v 9.320312 c -20.561559,3.023593 -36.408203,20.746716 -36.408203,42.125 0,7.13055 1.779833,13.854574 4.890624,19.767578 v 26.767579 c -5.179442,2.37709 -8.830079,7.5445 -8.830078,13.60156 0,3.20315 1.721464,7.81124 3.742188,12.46875 2.021862,4.66013 4.387883,9.26849 5.8125,11.95313 1.076793,2.02911 3.190013,3.30273 5.488281,3.30273 2.298245,0 4.412827,-1.27338 5.490235,-3.30273 1.424732,-2.68449 3.791116,-7.29097 5.8125,-11.95118 2.020247,-4.65759 3.740234,-9.26761 3.740234,-12.4707 0,-6.05784 -3.649646,-11.2266 -8.830078,-13.60351 v -12.39844 c 5.508266,4.09634 11.997708,6.92315 19.091797,7.96875 v 22.33008 c -7.179462,2.56886 -12.34961,9.39392 -12.34961,17.43554 0,4.23231 2.555543,10.85448 5.429688,17.36133 2.875142,6.50912 6.118476,12.76753 7.644531,15.64258 1.077081,2.02965 3.192013,3.30273 5.490234,3.30273 2.29822,0 4.413153,-1.27308 5.490235,-3.30273 1.525993,-2.87493 4.771313,-9.1334 7.646484,-15.64258 2.874171,-6.50691 5.427735,-13.12915 5.427735,-17.36133 0,-8.04269 -5.170513,-14.86737 -12.351563,-17.43554 v -22.33008 c 7.093415,-1.04525 13.581758,-3.8709 19.089844,-7.9668 v 12.39844 c -5.179316,2.37715 -8.828125,7.54465 -8.828125,13.60156 0,3.20298 1.719512,7.81116 3.740234,12.46875 2.021825,4.66014 4.387704,9.26843 5.8125,11.95313 1.076823,2.02916 3.190177,3.30273 5.488281,3.30273 2.298312,0 4.414951,-1.273 5.492191,-3.30273 1.42485,-2.68464 3.7892,-7.29106 5.81054,-11.95118 2.02022,-4.65759 3.74024,-9.26761 3.74024,-12.4707 -3.2e-4,-6.05772 -3.64789,-11.22682 -8.82813,-13.60351 V 89.617188 c 3.1116,-5.914417 4.89063,-12.639374 4.89063,-19.771485 0,-21.377971 -15.84657,-39.103273 -36.408205,-42.126953 v -9.318359 c 0,-3.420095 -2.794424,-6.214844 -6.214844,-6.214844 z m -6.21289,28.197265 v 12.259766 c -2.055303,0.745934 -3.929819,1.841515 -5.56836,3.22461 L 43.777344,49.738281 c 4.202452,-4.675348 9.815085,-8.011572 16.185547,-9.355469 z m 12.427734,0 c 6.370437,1.343884 11.984905,4.680017 16.1875,9.355469 l -10.619141,6.128907 c -1.638729,-1.383239 -3.513007,-2.478564 -5.568359,-3.22461 z m -34.841797,20.109376 10.605469,6.125 c -0.195551,1.042006 -0.347656,2.10881 -0.347656,3.228515 0,1.120028 0.152182,2.18957 0.347656,3.232422 l -10.605469,6.121094 c -0.975808,-2.956592 -1.568359,-6.080946 -1.568359,-9.353516 0,-3.272384 0.59227,-6.397035 1.568359,-9.353515 z m 57.257813,0 c 0.975123,2.956241 1.564453,6.080851 1.564453,9.353515 0,3.272729 -0.589208,6.397345 -1.564453,9.353516 L 84.201172,73.078125 c 0.195623,-1.042973 0.347656,-2.112292 0.347656,-3.232422 0,-1.119956 -0.152117,-2.186535 -0.347656,-3.228515 z m -28.63086,3.410156 c 3.287588,0 5.943361,2.655446 5.94336,5.943359 0,3.287887 -2.656178,5.945313 -5.94336,5.945313 -3.287179,0 -5.943359,-2.657426 -5.943359,-5.945313 0,-3.287915 2.655781,-5.943359 5.943359,-5.943359 z m -11.78125,19.925781 c 1.638632,1.383069 3.513499,2.476796 5.56836,3.222656 V 99.310547 C 53.592404,97.966402 47.9798,94.630172 43.777344,89.955078 Z m 23.564453,0 10.619141,6.126953 c -4.202778,4.675738 -9.816759,8.011384 -16.1875,9.355469 V 87.050781 c 2.055193,-0.745716 3.929425,-1.839541 5.568359,-3.222656 z M 34.660156,127.36719 c 1.435347,0 2.575625,1.13694 2.603516,2.5664 -0.01229,0.18248 -0.105115,0.64642 -0.279297,1.25 -0.176113,0.61028 -0.428624,1.37647 -0.75,2.22657 -0.392748,1.03886 -0.992866,2.38851 -1.576172,3.71289 -0.584858,-1.326 -1.187322,-2.67895 -1.580078,-3.7168 -0.321641,-0.84992 -0.574472,-1.61482 -0.75,-2.22266 -0.173895,-0.60218 -0.267,-1.06462 -0.277344,-1.23242 0.01707,-1.43857 1.166144,-2.58398 2.609375,-2.58398 z m 63.033203,0 c 1.435413,0 2.579501,1.13799 2.607421,2.5664 -0.0123,0.18209 -0.10464,0.64636 -0.2793,1.25 -0.176591,0.61033 -0.430531,1.37636 -0.751949,2.22657 -0.39275,1.03886 -0.992865,2.38851 -1.576172,3.71289 -0.584292,-1.32581 -1.185275,-2.67872 -1.578125,-3.7168 -0.321692,-0.85004 -0.575933,-1.61477 -0.751953,-2.22266 -0.174382,-0.60223 -0.26702,-1.06513 -0.277343,-1.23242 0.01704,-1.43933 1.164257,-2.58398 2.607421,-2.58398 z m -31.515625,18.21289 c 3.394549,-5.9e-4 6.138672,2.74016 6.138672,6.13476 0,0.33991 -0.173393,1.29069 -0.527344,2.46485 -0.354937,1.17743 -0.877629,2.64548 -1.527343,4.29883 -1.042261,2.65224 -2.544511,5.94481 -4.083985,9.24023 -1.539371,-3.29489 -3.041684,-6.58802 -4.083984,-9.24023 -0.64968,-1.65317 -1.170346,-3.11895 -1.525391,-4.29688 -0.353959,-1.17434 -0.527343,-2.12597 -0.527343,-2.4668 0,-3.39469 2.742282,-6.13476 6.136718,-6.13476 z" /></g>
<g
   id="g1115">
</g>
<g
   id="g1117">
</g>
<g
   id="g1119">
</g>
<g
   id="g1121">
</g>
<g
   id="g1123">
</g>
<g
   id="g1125">
</g>
<g
   id="g1127">
</g>
<g
   id="g1129">
</g>
<g
   id="g1131">
</g>
<g
   id="g1133">
</g>
<g
   id="g1135">
</g>
<g
   id="g1137">
</g>
<g
   id="g1139">
</g>
<g
   id="g1141">
</g>
<g
   id="g1143">
</g>
<g
   id="g517848"
   transform="translate(481.24713,343.41001)">
	
<g
   aria-label="Lucid.js"
   id="g517842"
   style="font-weight:900;font-size:94.2038px;line-height:1.25;font-family:'Source Sans Pro';-inkscape-font-specification:'Source Sans Pro Heavy';letter-spacing:4px;fill:#83ccdd;stroke-width:0.224294"
   transform="translate(-7.7448731)"><path
     id="path517834"
     style="font-weight:bold;font-family:Distro;-inkscape-font-specification:'Distro Bold';fill:#17191c"
     d="m -69.284907,-230.45609 c -3.0786,0.0495 -5.9141,2.11316 -7.08652,4.92995 -1.3263,2.90016 -0.88165,6.58356 1.35854,8.91655 1.96192,2.32839 5.2863,3.46467 8.22952,2.55524 2.89732,-0.88925 5.36876,-3.32634 6.10393,-6.29432 0.61079,-2.61281 -0.35522,-5.45188 -2.18164,-7.36328 -1.43703,-1.57065 -3.49981,-2.56396 -5.61719,-2.74024 -0.26901,-0.008 -0.53753,-0.0173 -0.80664,-0.004 z" /><path
     style="font-weight:bold;font-family:Distro;-inkscape-font-specification:'Distro Bold';fill:#17191c"
     d="m -41.464557,-267.28616 c -2.5172,0.0385 -5.05169,1.39459 -6.14174,3.72442 -1.89736,3.72495 -1.55768,8.01693 -1.58287,12.06269 -0.0154,11.28704 0.0309,22.57458 -0.0234,33.86132 -0.0925,2.44243 -0.0817,4.98848 -1.21483,7.22513 -0.57819,1.54872 -2.03417,2.42437 -3.35581,3.26533 -1.76309,1.29391 -3.91503,2.19494 -5.22819,4.01149 -1.19464,1.98005 -1.23045,4.48425 -0.66796,6.67383 0.70398,2.39881 2.91619,4.07944 5.31094,4.56392 3.80698,0.72482 7.91409,0.51446 11.40471,-1.29435 4.49417,-2.07667 7.46776,-6.49139 8.83121,-11.13472 1.31204,-3.91479 1.33703,-8.08609 1.28321,-12.16884 -0.0138,-13.41105 0.0276,-26.82267 -0.0207,-40.23337 -0.0971,-3.14367 -0.68049,-6.62601 -3.14337,-8.82834 -1.47426,-1.32277 -3.50438,-1.8387 -5.45117,-1.72851 z"
     id="path517836" /><path
     style="font-weight:bold;font-family:Distro;-inkscape-font-specification:'Distro Bold';fill:#17191c"
     d="m -41.437257,-288.39687 c -2.41717,0.0236 -4.76597,1.35815 -5.92485,3.49785 -1.85922,2.8609 -1.64352,6.88646 0.60845,9.47285 1.91918,2.36956 5.31978,2.82457 8.13281,2.12891 3.57035,-0.86983 5.86698,-4.77688 5.32589,-8.33501 -0.34593,-2.77346 -2.10907,-5.59902 -4.921,-6.37922 -1.04018,-0.31885 -2.13711,-0.41729 -3.2213,-0.38538 z"
     id="path517838" /><path
     id="path517840"
     style="font-weight:bold;font-family:Distro;-inkscape-font-specification:'Distro Bold';fill:#17191c"
     d="m -6.718507,-268.41507 c -5.10337,0.18865 -10.284,1.61965 -14.35381,4.79908 -3.01371,2.33774 -5.38414,5.70489 -5.91142,9.54432 -0.5444,3.96253 -0.1246,8.28215 2.22154,11.63912 2.19425,3.43318 5.92217,5.51734 9.71589,6.7317 3.04805,1.17697 6.33711,1.85846 9.11491,3.64319 1.20619,0.69879 2.16715,2.03308 1.86133,3.48243 -0.33106,1.83692 -2.33042,2.81886 -4.06326,2.72534 -1.61269,0.0541 -3.17379,-0.41194 -4.6486,-1.01264 -1.75766,-0.53876 -3.57126,-1.09642 -5.43462,-0.79474 -2.07798,0.28824 -4.41576,1.22318 -5.19939,3.34475 -0.91603,2.37316 -0.58289,5.33139 1.31654,7.14125 2.70664,2.6007 6.52798,3.503 10.13096,4.03766 3.92581,0.48637 7.93979,0.18865 11.79094999,-0.68576 4.34142001,-1.16001 8.73571001,-3.16472 11.48633001,-6.86133 2.04552,-2.77175 3.08029,-6.26955 2.75513,-9.7096 -0.16684,-4.78775 -2.35096,-9.62538 -6.29065,-12.46504 -0.65603,-0.48876 -1.34775,-0.92836 -2.06409,-1.3234 -0.60565,-0.32906 -0.95164,-0.50848 -1.60408,-0.78433 -3.16244001,-1.43407 -6.48056,-2.46075 -9.69051,-3.76942 -1.16302,-0.51294 -2.41199,-1.27551 -2.86499,-2.52111 -0.13334,-0.66409 -0.40387,-1.61388 0.34712,-2.01889 1.03271,-0.82782 2.40599,-1.05753 3.68116,-0.76027 1.92543,0.35968 3.03394,0.49972 4.80942999,0.53125 2.23371001,-0.0642 4.74523001,-0.53188 6.25550001,-2.32958 1.38517,-1.80951 1.66638,-4.4671 0.62891,-6.5039 -1.1359,-2.00084 -3.19286,-3.29135 -5.22852,-4.24219 -2.38228001,-1.0345 -4.95643,-1.64853 -7.54418,-1.8351 -0.40558,-0.0272 -0.81157,-0.005 -1.21754,-0.003 z"
     sodipodi:nodetypes="scccccccccccccccccccccccccccss" /></g></g></svg>
