<svg id="Layer_1" enable-background="new 0 0 510 510" height="512" viewBox="0 0 510 510" width="512" xmlns="http://www.w3.org/2000/svg"><g><path d="m495 182h15v-182h-15c-136.82 0-242.552 92.421-275.671 225.367-64.673-4.968-120.561 42.052-128.396 104.639-50.086-.524-90.933 40.059-90.933 89.995 0 49.626 40.374 89.999 90 89.999h300c66.168 0 120-53.831 120-119.999 0-64.556-51.243-117.36-115.189-119.895 10.382-53.106 48.687-88.106 100.189-88.106zm-15-151.584v46.096c-100.269 6.723-172.58 80.781-190.007 178.942-11.916-10.641-25.922-18.873-41.254-24.076 29.705-117.588 118.589-194.676 231.261-200.962zm0 359.585c0 49.626-40.374 89.999-90 89.999h-300c-33.084 0-60-26.915-60-59.999 0-37.808 34.738-66.374 72.032-58.794l18.275 3.714c-.002-.145-.308-19.61-.308-19.92 0-49.626 40.374-90 90-90 41.521 0 77.452 28.114 87.379 68.368l6.776 27.479 18.936-21.035c17.056-18.946 41.443-29.813 66.909-29.813 49.627.001 90.001 40.375 90.001 90.001zm-116.047-117.104c-16.41 3.661-31.915 10.717-45.441 20.741-.707-1.5-1.451-2.975-2.215-4.436 5.15-100.932 72.555-175.226 163.703-182.591v46.144c-63.908 6.554-106.63 55.771-116.047 120.142z"/><path d="m34.394 34.395h30v30h-30z" transform="matrix(.707 -.707 .707 .707 -20.46 49.394)"/><path d="m199.394 40.608h30v30h-30z" transform="matrix(.707 -.707 .707 .707 23.474 167.886)"/><path d="m115.607 130.608h30v30h-30z" transform="matrix(.707 -.707 .707 .707 -64.706 135)"/><path d="m34.394 214.395h30v30h-30z" transform="matrix(.707 -.707 .707 .707 -147.739 102.114)"/></g></svg>