<svg height="512pt" viewBox="0 -61 512 512" width="512pt" xmlns="http://www.w3.org/2000/svg"><path d="m497 90h-45v-44.375c0-24.824219-20.191406-45.625-45-45.625h-362c-24.8125 0-45 20.1875-45 45v270c0 41.355469 33.644531 75 75 75h362c41.355469 0 75-33.644531 75-75v-210c0-8.285156-6.714844-15-15-15zm-105-45c0-8.40625 6.90625-15.226562 15.433594-14.992188 8.03125.21875 14.566406 7.226563 14.566406 15.617188v224.375h-30zm-362 270v-270c0-8.269531 6.730469-15 15-15h319.554688c-1.675782 4.75-2.554688 9.800781-2.554688 15v270c0 16.871094 5.601562 32.457031 15.039062 45h-302.039062c-24.8125 0-45-20.1875-45-45zm452 0c0 24.8125-20.1875 45-45 45s-45-20.1875-45-45v-15h45c8.285156 0 15-6.714844 15-15v-165h30zm0 0"/><path d="m317 60h-242c-8.285156 0-15 6.714844-15 15s6.714844 15 15 15h242c8.285156 0 15-6.714844 15-15s-6.714844-15-15-15zm0 0"/><path d="m317 120h-242c-8.285156 0-15 6.714844-15 15s6.714844 15 15 15h242c8.285156 0 15-6.714844 15-15s-6.714844-15-15-15zm0 0"/><path d="m197 180h-121c-8.285156 0-15 6.714844-15 15v120c0 8.285156 6.714844 15 15 15h121c8.285156 0 15-6.714844 15-15v-120c0-8.285156-6.714844-15-15-15zm-15 120h-91v-90h91zm0 0"/><path d="m317 180h-61c-8.285156 0-15 6.714844-15 15s6.714844 15 15 15h61c8.285156 0 15-6.714844 15-15s-6.714844-15-15-15zm0 0"/><path d="m317 240h-61c-8.285156 0-15 6.714844-15 15s6.714844 15 15 15h61c8.285156 0 15-6.714844 15-15s-6.714844-15-15-15zm0 0"/><path d="m317 300h-61c-8.285156 0-15 6.714844-15 15s6.714844 15 15 15h61c8.285156 0 15-6.714844 15-15s-6.714844-15-15-15zm0 0"/></svg>