<?xml version="1.0" encoding="UTF-8" standalone="no"?>
<svg
   xmlns:dc="http://purl.org/dc/elements/1.1/"
   xmlns:cc="http://creativecommons.org/ns#"
   xmlns:rdf="http://www.w3.org/1999/02/22-rdf-syntax-ns#"
   xmlns:svg="http://www.w3.org/2000/svg"
   xmlns="http://www.w3.org/2000/svg"
   xmlns:xlink="http://www.w3.org/1999/xlink"
   xmlns:sodipodi="http://sodipodi.sourceforge.net/DTD/sodipodi-0.dtd"
   xmlns:inkscape="http://www.inkscape.org/namespaces/inkscape"
   id="Bold"
   viewBox="0 0 24 24"
   version="1.1"
   sodipodi:docname="logbook.svg"
   inkscape:version="1.0.1 (1.0.1+r74)"
   inkscape:export-filename="/media/dorkodustorage/Tasarım/Projeler/Logbook/logbook-icon.png"
   inkscape:export-xdpi="800"
   inkscape:export-ydpi="800">
  <metadata
     id="metadata15">
    <rdf:RDF>
      <cc:Work
         rdf:about="">
        <dc:format>image/svg+xml</dc:format>
        <dc:type
           rdf:resource="http://purl.org/dc/dcmitype/StillImage" />
        <dc:title>56 inbox</dc:title>
      </cc:Work>
    </rdf:RDF>
  </metadata>
  <defs
     id="defs13">
    <linearGradient
       inkscape:collect="always"
       id="linearGradient926">
      <stop
         style="stop-color:#94de87;stop-opacity:1"
         offset="0"
         id="stop922" />
      <stop
         style="stop-color:#aaccff;stop-opacity:1"
         offset="1"
         id="stop924" />
    </linearGradient>
    <linearGradient
       inkscape:collect="always"
       id="linearGradient920">
      <stop
         style="stop-color:#94de87;stop-opacity:1"
         offset="0"
         id="stop916" />
      <stop
         style="stop-color:#aaccff;stop-opacity:1"
         offset="1"
         id="stop918" />
    </linearGradient>
    <linearGradient
       inkscape:collect="always"
       id="linearGradient908">
      <stop
         style="stop-color:#94de87;stop-opacity:1"
         offset="0"
         id="stop904" />
      <stop
         style="stop-color:#aaccff;stop-opacity:1"
         offset="1"
         id="stop906" />
    </linearGradient>
    <linearGradient
       inkscape:collect="always"
       xlink:href="#linearGradient926"
       id="linearGradient910"
       gradientUnits="userSpaceOnUse"
       x1="3.6824069"
       y1="2.007828"
       x2="30.868183"
       y2="6.6213703"
       gradientTransform="matrix(0.99703923,0,0,0.99703923,0.07105849,0.03700963)" />
    <linearGradient
       inkscape:collect="always"
       xlink:href="#linearGradient920"
       id="linearGradient914"
       x1="1.6824069"
       y1="17.007828"
       x2="27.290264"
       y2="24.327194"
       gradientUnits="userSpaceOnUse"
       gradientTransform="matrix(0.99703923,0,0,0.99703923,0.07105849,0.03700963)" />
    <linearGradient
       inkscape:collect="always"
       xlink:href="#linearGradient908"
       id="linearGradient845"
       gradientUnits="userSpaceOnUse"
       x1="3.6824069"
       y1="7.0078282"
       x2="31.849487"
       y2="15.009144"
       gradientTransform="matrix(0.99703923,0,0,0.99703923,0.07105849,0.03700963)" />
  </defs>
  <sodipodi:namedview
     pagecolor="#ffffff"
     bordercolor="#666666"
     borderopacity="1"
     objecttolerance="10"
     gridtolerance="10"
     guidetolerance="10"
     inkscape:pageopacity="0"
     inkscape:pageshadow="2"
     inkscape:window-width="1920"
     inkscape:window-height="1007"
     id="namedview11"
     showgrid="false"
     inkscape:zoom="10.714046"
     inkscape:cx="12.306556"
     inkscape:cy="28.568471"
     inkscape:window-x="0"
     inkscape:window-y="0"
     inkscape:window-maximized="1"
     inkscape:current-layer="Bold"
     inkscape:document-rotation="0" />
  <title
     id="title2">56 inbox</title>
  <rect
     x="2.0651369"
     y="6.0192451"
     width="19.940784"
     height="2.9911177"
     rx="1.4955589"
     id="rect4"
     style="fill:url(#linearGradient845);fill-opacity:1;stroke-width:0.997039" />
  <rect
     x="2.0651369"
     y="1.0340489"
     width="19.940784"
     height="2.9911177"
     rx="1.4955589"
     id="rect6"
     style="fill:url(#linearGradient910);fill-opacity:1;stroke-width:0.997039" />
  <path
     d="M 18.516284,23.965951 H 5.5547743 A 5.489698,5.489698 0 0 1 0.07105849,18.482235 V 14.494078 A 3.4896373,3.4896373 0 0 1 3.5606958,11.004441 H 7.0503331 A 1.4955588,1.4955588 0 0 1 8.5458919,12.5 2.4925981,2.4925981 0 0 0 11.03849,14.992598 h 1.994078 A 2.4925981,2.4925981 0 0 0 15.525167,12.5 1.4955588,1.4955588 0 0 1 17.020725,11.004441 h 3.489638 A 3.4896373,3.4896373 0 0 1 24,14.494078 v 3.988157 a 5.489698,5.489698 0 0 1 -5.483716,5.483716 z M 3.5606958,13.995559 a 0.49851961,0.49851961 0 0 0 -0.4985196,0.498519 v 3.988157 a 2.4925981,2.4925981 0 0 0 2.4925981,2.492598 H 18.516284 a 2.4925981,2.4925981 0 0 0 2.492598,-2.492598 V 14.494078 A 0.49851961,0.49851961 0 0 0 20.510363,13.995559 H 18.3089 a 5.4926891,5.4926891 0 0 1 -5.276332,3.988157 H 11.03849 A 5.4926891,5.4926891 0 0 1 5.7621584,13.995559 Z"
     id="path8"
     style="fill:url(#linearGradient914);fill-opacity:1;stroke-width:0.997039" />
</svg>
