<?xml version="1.0" encoding="UTF-8" standalone="no"?>
<!-- Created with Inkscape (http://www.inkscape.org/) -->

<svg
   width="872.0296"
   height="386.36124"
   viewBox="0 0 230.72451 102.22474"
   version="1.1"
   id="svg5"
   xml:space="preserve"
   inkscape:version="1.2.2 (b0a8486541, 2022-12-01)"
   sodipodi:docname="design.svg"
   xmlns:inkscape="http://www.inkscape.org/namespaces/inkscape"
   xmlns:sodipodi="http://sodipodi.sourceforge.net/DTD/sodipodi-0.dtd"
   xmlns:xlink="http://www.w3.org/1999/xlink"
   xmlns="http://www.w3.org/2000/svg"
   xmlns:svg="http://www.w3.org/2000/svg"><sodipodi:namedview
     id="namedview7"
     pagecolor="#ffffff"
     bordercolor="#ebebeb"
     borderopacity="1"
     inkscape:showpageshadow="false"
     inkscape:pageopacity="0"
     inkscape:pagecheckerboard="false"
     inkscape:deskcolor="#ffffff"
     inkscape:document-units="px"
     showgrid="false"
     showguides="true"
     inkscape:zoom="0.70710678"
     inkscape:cx="476.58997"
     inkscape:cy="174.65538"
     inkscape:window-width="1920"
     inkscape:window-height="1011"
     inkscape:window-x="0"
     inkscape:window-y="32"
     inkscape:window-maximized="1"
     inkscape:current-layer="layer1"><inkscape:page
       x="0"
       y="0"
       width="230.7245"
       height="102.22474"
       id="page23340"
       inkscape:label="Dark" /><inkscape:page
       x="240.7245"
       y="0"
       width="230.7245"
       height="102.22474"
       id="page23342"
       inkscape:label="Light" /><inkscape:page
       x="-201.68684"
       y="153.98927"
       width="529.16669"
       height="132.29166"
       id="page1278"
       inkscape:label="Patreon" /></sodipodi:namedview><defs
     id="defs2"><linearGradient
       inkscape:collect="always"
       id="linearGradient30558"><stop
         style="stop-color:#b7c5e1;stop-opacity:1;"
         offset="0"
         id="stop30554" /><stop
         style="stop-color:#f5f7f7;stop-opacity:1;"
         offset="1"
         id="stop30556" /></linearGradient><linearGradient
       inkscape:collect="always"
       id="linearGradient30444"><stop
         style="stop-color:#121421;stop-opacity:1;"
         offset="0"
         id="stop30440" /><stop
         style="stop-color:#3e485b;stop-opacity:1;"
         offset="1"
         id="stop30442" /></linearGradient><linearGradient
       inkscape:collect="always"
       id="linearGradient25926"><stop
         style="stop-color:#cdd9e4;stop-opacity:1;"
         offset="0"
         id="stop25922" /><stop
         style="stop-color:#f5f7f7;stop-opacity:1;"
         offset="1"
         id="stop25924" /></linearGradient><style
       id="style6568">.cls-1{fill:none;}.cls-2{clip-path:url(#clip-path);}</style><clipPath
       id="clip-path"><rect
         class="cls-1"
         x="0.059999999"
         width="24"
         height="24"
         id="rect6570"
         y="0" /></clipPath><linearGradient
       inkscape:collect="always"
       xlink:href="#linearGradient25926"
       id="linearGradient25928"
       x1="561.12543"
       y1="633.21887"
       x2="561.12543"
       y2="617.37463"
       gradientUnits="userSpaceOnUse"
       gradientTransform="translate(2.1243495)" /><linearGradient
       inkscape:collect="always"
       xlink:href="#linearGradient30558"
       id="linearGradient30416"
       gradientUnits="userSpaceOnUse"
       gradientTransform="translate(2.1243495)"
       x1="561.12543"
       y1="633.21887"
       x2="561.12543"
       y2="621.45715" /><linearGradient
       inkscape:collect="always"
       xlink:href="#linearGradient30444"
       id="linearGradient30446"
       x1="319.06647"
       y1="634.00708"
       x2="319.06647"
       y2="610.22638"
       gradientUnits="userSpaceOnUse"
       gradientTransform="translate(2.5330999)" /><linearGradient
       inkscape:collect="always"
       xlink:href="#linearGradient30558"
       id="linearGradient1360"
       gradientUnits="userSpaceOnUse"
       gradientTransform="translate(2.1243495)"
       x1="561.12543"
       y1="633.21887"
       x2="561.12543"
       y2="621.45715" /><linearGradient
       inkscape:collect="always"
       xlink:href="#linearGradient25926"
       id="linearGradient1362"
       gradientUnits="userSpaceOnUse"
       gradientTransform="translate(2.1243495)"
       x1="561.12543"
       y1="633.21887"
       x2="561.12543"
       y2="617.37463" /><linearGradient
       inkscape:collect="always"
       xlink:href="#linearGradient30558"
       id="linearGradient1364"
       gradientUnits="userSpaceOnUse"
       gradientTransform="translate(2.1243495)"
       x1="561.12543"
       y1="633.21887"
       x2="561.12543"
       y2="621.45715" /><linearGradient
       inkscape:collect="always"
       xlink:href="#linearGradient25926"
       id="linearGradient1366"
       gradientUnits="userSpaceOnUse"
       gradientTransform="translate(2.1243495)"
       x1="561.12543"
       y1="633.21887"
       x2="561.12543"
       y2="617.37463" /></defs><g
     inkscape:label="Layer 1"
     inkscape:groupmode="layer"
     id="layer1"
     transform="translate(-209.40784,-542.49838)"><rect
       style="fill:#14141f;fill-opacity:1;stroke-width:0.403688"
       id="rect371"
       width="581.04706"
       height="173.10794"
       x="-18.622284"
       y="680.40155"
       ry="25.927755" /><g
       style="fill:#c2d3d6;fill-opacity:1"
       id="g2601"
       transform="matrix(0.12296957,0,0,0.12296957,989.65709,3098.4858)" /><path
       id="path949"
       style="color:#000000;fill:#1dc939;fill-opacity:1;stroke-width:0;-inkscape-stroke:none"
       d="m 254.16441,550.46714 c -1.22217,-0.0205 -2.4876,0.69598 -3.03302,2.37041 -0.59868,1.83802 -1.17039,3.68048 -1.62749,4.98844 -1.15724,3.56718 -2.23409,7.13949 -3.4362,10.68531 -5.96393,-2.14137 -13.35916,-1.04661 -17.48034,4.07988 -5.2687,5.97633 -4.79561,15.86464 1.00397,21.32186 6.1058,6.44219 17.63654,5.46274 22.91446,-1.56233 4.37943,-5.08916 6.25676,-11.91402 10.96533,-16.73071 4.37902,-3.5564 11.74289,-2.24432 14.24637,2.94216 3.01406,5.79251 -1.21543,13.3478 -7.86252,13.31977 -3.47766,0.13656 -4.53893,-1.53036 -7.08051,-2.399 -3.0085,-0.94404 -6.00656,2.94226 -2.91654,5.59974 6.95832,5.23585 17.40909,3.86235 22.18794,-3.23438 4.70575,-6.30253 3.55012,-15.94812 -2.47591,-20.99139 -6.35221,-5.84737 -17.40153,-4.44859 -22.42257,2.48096 -4.25288,5.04397 -5.87278,11.98945 -10.75469,16.47301 -4.15475,3.81577 -11.74278,2.24401 -14.24637,-2.94262 -3.15859,-5.54365 1.34793,-13.12274 7.83057,-13.16965 2.87782,-0.03 4.64975,1.15079 6.94177,1.94702 3.57633,0.97361 3.98887,-1.668 4.8207,-4.09334 1.85265,-5.70673 3.33927,-11.27121 5.12505,-16.96321 0.78056,-2.48785 -0.91373,-4.092 -2.7,-4.12193 z m 58.1753,0.0405 c -1.37652,0.0179 -2.78689,0.85403 -3.25752,2.61045 l -11.05445,40.85182 c -1.18779,4.36342 4.92739,6.12053 6.3044,1.70571 l 10.96784,-40.88379 c 0.74858,-2.79368 -1.07392,-4.30812 -2.96027,-4.28419 z m 85.71169,0.0971 c -1.45098,-0.0128 -2.78176,0.99698 -3.24867,2.52049 l -4.76899,15.56401 c -5.4149,-2.52287 -12.30978,-1.9277 -16.87576,2.4814 -6.00326,5.07323 -7.10327,14.72679 -2.36536,21.00274 4.66507,7.17098 15.26009,7.69385 22.24723,3.05487 2.76719,-1.92886 1.21836,-6.5836 -2.59787,-5.56148 -2.52204,1.08031 -3.98178,2.48688 -7.52155,2.4856 -6.322,-0.003 -10.68541,-7.14982 -8.04121,-12.71896 2.2974,-5.66138 9.15121,-7.0346 14.1085,-4.17909 4.59978,2.75307 5.55866,7.07041 8.5226,12.73912 3.43113,6.56231 7.24039,10.27728 13.90667,10.33216 7.93934,0.092 13.53003,-4.45455 14.4318,-12.59156 0.52692,-4.75465 0.25058,-9.56729 0.33086,-14.35066 0.0313,-2.01479 -1.34296,-3.65999 -3.08134,-3.68763 -1.73841,-0.0267 -3.04506,1.57148 -3.07632,3.5863 l -0.31743,11.87853 c -0.0779,1.08901 -0.13887,2.2746 -0.66638,4.03445 -2.21308,5.05873 -8.21411,6.33343 -12.57809,2.64748 -4.94671,-4.65389 -5.78398,-12.7102 -10.80684,-17.79569 l 5.09649,-17.31178 c 0.55329,-1.80569 -0.14246,-3.52698 -1.88478,-4.01388 -0.27224,-0.0761 -0.54483,-0.11376 -0.81356,-0.11607 z m -98.05457,16.6357 c -6.6556,0.0402 -9.99531,4.88391 -11.33027,9.76412 -1.49725,5.47352 -2.22746,11.61734 -6.54529,15.7692 -2.68784,3.0696 1.6682,8.17339 5.73133,3.79317 5.72743,-5.72428 4.82991,-14.74736 8.5041,-20.4831 1.88622,-2.93155 5.4555,-1.3727 6.85936,-3.80324 1.31629,-2.58778 -0.45412,-4.99705 -2.8997,-5.03805 -0.10736,-0.002 -0.21394,-0.003 -0.31953,-0.002 z m 22.60104,0.24879 c -0.78842,0.003 -1.58362,0.0512 -2.38301,0.13657 -8.16309,0.81847 -14.07424,9.2784 -12.82111,17.22684 0.89072,7.81427 7.67525,13.64945 16.34728,13.30547 6.31725,-0.271 11.33316,-4.86133 14.23755,-10.14591 2.78643,-4.12598 4.52125,-9.2095 8.47971,-12.41749 4.65467,-3.15134 11.74076,-1.30199 13.91003,3.98193 2.59829,5.59071 -1.67845,12.73866 -8.33632,12.58818 -3.24725,0.21856 -4.7179,-1.53801 -7.11206,-2.42674 -3.34522,-0.93662 -5.6189,3.05069 -2.85812,5.37523 5.8897,4.95908 17.34842,4.37541 22.22077,-2.6483 4.78938,-6.23672 3.76872,-15.89917 -2.19259,-21.02167 -6.27444,-5.94779 -17.33919,-4.67539 -22.45533,2.17911 -4.31643,4.98531 -6.27185,11.66012 -10.9733,16.32796 -4.53291,3.59378 -12.04964,1.97874 -14.36201,-3.43411 -2.76503,-5.5924 1.46753,-12.68916 8.1417,-12.79587 3.96249,-0.11146 4.77978,1.38064 7.15913,2.39476 3.35447,1.08387 5.29772,-3.0922 2.63864,-5.44208 -2.93653,-2.35572 -6.22446,-3.19612 -9.64096,-3.18393 z"
       sodipodi:nodetypes="sccccccccccccccsccccsssccccsccccccccccscscccccccccccssccccssssccccccccsccccccccs" /><g
       aria-label="newsletter"
       id="text3403"
       style="font-size:29.4162px;font-family:'Motley Forces';-inkscape-font-specification:'Motley Forces';letter-spacing:0px;fill:#2b2e3b;stroke-width:2.45135"><path
         id="path30436"
         style="font-family:'Rockin\' Record';-inkscape-font-specification:'Rockin\' Record';fill:url(#linearGradient30446);fill-opacity:1"
         d="m 409.85342,633.79822 q -1.17779,0 -1.86724,-0.7469 -0.66071,-0.74689 -0.66071,-1.66615 v -17.58078 q 0.0575,-1.60869 0.8618,-2.67158 0.83308,-1.09162 1.72361,-1.12035 h 7.52641 q 2.52795,0.14364 4.33774,2.0396 1.83851,1.86724 2.38432,3.90684 0.57453,2.01087 0.51708,4.22283 -0.0862,3.5334 -2.09705,5.17082 1.92469,2.32687 2.21196,6.03262 0.0575,0.91926 -0.63199,1.66615 -0.66072,0.7469 -1.78106,0.7469 h -2.70032 q -1.17779,0 -1.86723,-0.7469 -0.66072,-0.74689 -0.66072,-1.66615 -0.31599,-2.87268 -0.8618,-3.90684 l -1.32143,0.51708 v 3.38976 q 0.0574,0.91926 -0.63199,1.66615 -0.66072,0.7469 -1.78106,0.7469 z m 7.23915,-13.15686 v -1.14907 q -0.0575,-2.24069 -0.68945,-3.04503 -0.48835,-0.40218 -1.43633,-0.34473 v 6.14753 h 0.28726 q 1.78106,-0.54581 1.83852,-1.6087 z m -29.18638,-6.83697 q 0.0575,-1.60869 0.8618,-2.67158 0.83308,-1.09162 1.72361,-1.12035 h 13.27176 q 0.71817,0.0575 1.14907,0.63199 0.45963,0.54581 0.45963,1.26398 v 2.29814 q 0,0.71817 -0.45963,1.2927 -0.4309,0.54581 -1.14907,0.60326 h -8.21585 v 3.33231 h 6.5497 q 0.71816,0.0575 1.14907,0.63199 0.45962,0.54581 0.45962,1.26397 v 1.14907 q 0,0.71817 -0.45962,1.29271 -0.43091,0.54581 -1.14907,0.60326 h -6.5497 v 3.3323 h 8.21585 q 0.71817,0.0575 1.14907,0.63199 0.45963,0.54581 0.45963,1.26398 v 2.29814 q 0,0.71817 -0.45963,1.29271 -0.4309,0.5458 -1.14907,0.60326 H 390.4916 q -0.89053,-0.0287 -1.72361,-1.09162 -0.80435,-1.09162 -0.8618,-2.70031 z m -13.94913,17.63823 v -15.34009 h -3.27485 q -0.71817,-0.0575 -1.1778,-0.60326 -0.4309,-0.57453 -0.4309,-1.2927 v -2.29814 q 0,-0.71817 0.4309,-1.26398 0.45963,-0.57453 1.1778,-0.63199 h 14.24847 q 0.71817,0.0575 1.14907,0.63199 0.45963,0.54581 0.45963,1.26398 v 2.29814 q 0,0.71817 -0.45963,1.2927 -0.4309,0.54581 -1.14907,0.60326 h -3.27485 v 15.34009 q 0,0.86181 -0.68944,1.6087 -0.66072,0.7469 -1.78106,0.7469 h -2.75777 q -1.12034,0 -1.80978,-0.7469 -0.66072,-0.74689 -0.66072,-1.6087 z m -18.77521,0 V 616.10253 H 351.907 q -0.71817,-0.0575 -1.1778,-0.60326 -0.4309,-0.57453 -0.4309,-1.2927 v -2.29814 q 0,-0.71817 0.4309,-1.26398 0.45963,-0.57453 1.1778,-0.63199 h 14.24847 q 0.71817,0.0575 1.14907,0.63199 0.45963,0.54581 0.45963,1.26398 v 2.29814 q 0,0.71817 -0.45963,1.2927 -0.4309,0.54581 -1.14907,0.60326 h -3.27485 v 15.34009 q 0,0.86181 -0.68944,1.6087 -0.66071,0.7469 -1.78106,0.7469 h -2.75777 q -1.12034,0 -1.80978,-0.7469 -0.66072,-0.74689 -0.66072,-1.6087 z m -23.71622,-17.63823 q 0.0575,-1.60869 0.8618,-2.67158 0.83308,-1.09162 1.72361,-1.12035 h 13.27176 q 0.71817,0.0575 1.14907,0.63199 0.45963,0.54581 0.45963,1.26398 v 2.29814 q 0,0.71817 -0.45963,1.2927 -0.4309,0.54581 -1.14907,0.60326 h -8.21585 v 3.33231 h 6.5497 q 0.71817,0.0575 1.14907,0.63199 0.45963,0.54581 0.45963,1.26397 v 1.14907 q 0,0.71817 -0.45963,1.29271 -0.4309,0.54581 -1.14907,0.60326 h -6.5497 v 3.3323 h 8.21585 q 0.71817,0.0575 1.14907,0.63199 0.45963,0.54581 0.45963,1.26398 v 2.29814 q 0,0.71817 -0.45963,1.29271 -0.4309,0.5458 -1.14907,0.60326 h -13.27176 q -0.89053,-0.0287 -1.72361,-1.09162 -0.80435,-1.09162 -0.8618,-2.70031 z m -17.39633,-1.43633 q 0,-0.86181 0.66072,-1.6087 0.68944,-0.7469 1.86724,-0.7469 h 2.70031 q 1.12035,0 1.78106,0.7469 0.68945,0.74689 0.63199,1.6087 v 15.34008 h 6.72206 q 0.71817,0.0575 1.14907,0.63199 0.45963,0.54581 0.45963,1.26398 v 2.29814 q 0,0.71817 -0.45963,1.29271 -0.4309,0.5458 -1.14907,0.60326 h -11.31834 q -1.35016,-0.0287 -2.18323,-1.12035 -0.83308,-1.09161 -0.86181,-3.07376 z m -13.15685,21.43016 q -1.78106,-0.0862 -3.10249,-0.68944 -1.32143,-0.60327 -2.06833,-1.69488 -0.71817,-1.12035 -0.8618,-3.07377 v -1.95342 q 0.17236,-1.60869 1.6087,-1.7236 h 4.36646 q 1.43634,0.11491 1.6087,1.7236 0,0.77563 0.40218,1.14907 0.4309,0.37345 0.83307,0 0.40218,-0.57453 0.4309,-1.66615 -0.0287,-0.57453 -0.45962,-0.97671 -0.43091,-0.4309 -3.2174,-1.17779 -2.7865,-0.77563 -4.0792,-1.9247 -1.2927,-1.14907 -1.40761,-3.44721 -0.0287,-1.55124 0.71817,-3.59084 0.74689,-2.0396 2.38432,-3.36103 1.66615,-1.35016 3.67702,-1.37889 h 4.30902 q 1.80978,0.0862 3.13121,0.68944 1.32143,0.60327 2.0396,1.72361 0.7469,1.09162 0.89053,3.04504 v 1.95342 q -0.17236,1.60869 -1.6087,1.7236 h -4.45264 q -1.46507,-0.11491 -1.6087,-1.7236 0,-0.94799 -0.34472,-1.14907 -0.45963,-0.37345 -0.86181,0 -0.34472,0.57453 -0.37344,1.66615 0.0287,0.57453 0.45962,1.00543 0.43091,0.40218 3.2174,1.1778 2.7865,0.7469 4.0792,1.89597 1.29271,1.14907 1.43634,3.44721 0,1.55124 -0.7469,3.59084 -0.74689,2.0396 -2.41304,3.38976 -1.63743,1.32143 -3.61958,1.35016 z m -26.58889,-8.79039 q 0.0862,1.14907 0.14363,1.83851 0.0574,0.66072 0.31599,0.8618 h 0.28727 q 0.22981,-0.20108 0.28727,-0.8618 0.0862,-0.68944 0.17236,-1.83851 l 0.51708,-12.58232 q -0.0574,-0.91926 0.60326,-1.66615 0.68944,-0.7469 1.86724,-0.7469 h 2.58541 q 1.1778,0 1.83851,0.7469 0.68944,0.74689 0.63199,1.66615 l 0.51708,12.58232 q 0.0862,1.14907 0.14364,1.83851 0.0862,0.66072 0.31599,0.8618 h 0.28727 q 0.25854,-0.20108 0.31599,-0.8618 0.0575,-0.68944 0.14364,-1.83851 l 0.57453,-12.58232 q 0,-0.91926 0.66072,-1.66615 0.68944,-0.7469 1.80978,-0.7469 h 2.70032 q 1.1778,0 1.83851,0.7469 0.68944,0.74689 0.63199,1.66615 l -0.68944,13.61648 q -0.51708,4.30902 -2.26942,6.03262 -1.75233,1.72361 -4.85482,1.72361 h -1.49379 q -2.9014,-0.0862 -4.39519,-2.58541 -1.4938,2.49923 -4.3952,2.58541 h -1.49379 q -3.10249,0 -4.85482,-1.72361 -1.75233,-1.7236 -2.26942,-6.03262 l -0.68944,-13.61648 q -0.0574,-0.91926 0.60326,-1.66615 0.68945,-0.7469 1.86724,-0.7469 h 2.70032 q 1.12034,0 1.78106,0.7469 0.68944,0.74689 0.68944,1.66615 z m -27.04853,-11.20344 q 0.0575,-1.60869 0.86181,-2.67158 0.83307,-1.09162 1.7236,-1.12035 h 13.27176 q 0.71817,0.0575 1.14908,0.63199 0.45962,0.54581 0.45962,1.26398 v 2.29814 q 0,0.71817 -0.45962,1.2927 -0.43091,0.54581 -1.14908,0.60326 h -8.21585 v 3.33231 h 6.5497 q 0.71817,0.0575 1.14907,0.63199 0.45963,0.54581 0.45963,1.26397 v 1.14907 q 0,0.71817 -0.45963,1.29271 -0.4309,0.54581 -1.14907,0.60326 h -6.5497 v 3.3323 h 8.21585 q 0.71817,0.0575 1.14908,0.63199 0.45962,0.54581 0.45962,1.26398 v 2.29814 q 0,0.71817 -0.45962,1.29271 -0.43091,0.5458 -1.14908,0.60326 h -13.27176 q -0.89053,-0.0287 -1.7236,-1.09162 -0.80435,-1.09162 -0.86181,-2.70031 z m -17.64524,19.99383 q -1.12035,0 -1.80979,-0.7469 -0.66072,-0.74689 -0.66072,-1.66615 v -18.95966 q 0,-0.91926 0.66072,-1.66615 0.68944,-0.7469 1.80979,-0.7469 h 2.24068 q 2.18324,0 2.98759,1.95342 l 2.12578,4.88355 v -4.42392 q 0,-0.91926 0.66071,-1.66615 0.68944,-0.7469 1.80979,-0.7469 h 2.70031 q 1.12035,0 1.86724,0.77562 0.60326,0.71817 0.60326,1.63743 v 18.95966 q 0,0.91926 -0.68944,1.66615 -0.66071,0.7469 -1.78106,0.7469 h -2.24068 q -2.18324,0 -2.98759,-1.95342 l -2.12578,-4.88355 v 4.42392 q 0,0.91926 -0.68944,1.66615 -0.66072,0.7469 -1.78106,0.7469 z" /></g><path
       id="path23344"
       style="color:#000000;fill:#1dc939;fill-opacity:1;stroke-width:0;-inkscape-stroke:none"
       d="m 494.93548,550.46714 c -1.22217,-0.0205 -2.4876,0.69598 -3.03302,2.37041 -0.59868,1.83802 -1.17039,3.68048 -1.62749,4.98844 -1.15724,3.56718 -2.23409,7.13949 -3.4362,10.68531 -5.96393,-2.14137 -13.35916,-1.04661 -17.48034,4.07988 -5.2687,5.97633 -4.79561,15.86464 1.00397,21.32186 6.1058,6.44219 17.63654,5.46274 22.91446,-1.56233 4.37943,-5.08916 6.25676,-11.91402 10.96533,-16.73071 4.37902,-3.5564 11.74289,-2.24432 14.24637,2.94216 3.01406,5.79251 -1.21543,13.3478 -7.86252,13.31977 -3.47766,0.13656 -4.53893,-1.53036 -7.08051,-2.399 -3.0085,-0.94404 -6.00656,2.94226 -2.91654,5.59974 6.95832,5.23585 17.40909,3.86235 22.18794,-3.23438 4.70575,-6.30253 3.55012,-15.94812 -2.47591,-20.99139 -6.35221,-5.84737 -17.40153,-4.44859 -22.42257,2.48096 -4.25288,5.04397 -5.87278,11.98945 -10.75469,16.47301 -4.15475,3.81577 -11.74278,2.24401 -14.24637,-2.94262 -3.15859,-5.54365 1.34793,-13.12274 7.83057,-13.16965 2.87782,-0.03 4.64975,1.15079 6.94177,1.94702 3.57633,0.97361 3.98887,-1.668 4.8207,-4.09334 1.85265,-5.70673 3.33927,-11.27121 5.12505,-16.96321 0.78056,-2.48785 -0.91373,-4.092 -2.7,-4.12193 z m 58.1753,0.0405 c -1.37652,0.0179 -2.78689,0.85403 -3.25752,2.61045 l -11.05445,40.85182 c -1.18779,4.36342 4.92739,6.12053 6.3044,1.70571 l 10.96784,-40.88379 c 0.74858,-2.79368 -1.07392,-4.30812 -2.96027,-4.28419 z m 85.71169,0.0971 c -1.45098,-0.0128 -2.78176,0.99698 -3.24867,2.52049 l -4.76899,15.56401 c -5.4149,-2.52287 -12.30978,-1.9277 -16.87576,2.4814 -6.00326,5.07323 -7.10327,14.72679 -2.36536,21.00274 4.66507,7.17098 15.26009,7.69385 22.24723,3.05487 2.76719,-1.92886 1.21836,-6.5836 -2.59787,-5.56148 -2.52204,1.08031 -3.98178,2.48688 -7.52155,2.4856 -6.322,-0.003 -10.68541,-7.14982 -8.04121,-12.71896 2.2974,-5.66138 9.15121,-7.0346 14.1085,-4.17909 4.59978,2.75307 5.55866,7.07041 8.5226,12.73912 3.43113,6.56231 7.24039,10.27728 13.90667,10.33216 7.93934,0.092 13.53003,-4.45455 14.4318,-12.59156 0.52692,-4.75465 0.25058,-9.56729 0.33086,-14.35066 0.0313,-2.01479 -1.34296,-3.65999 -3.08134,-3.68763 -1.73841,-0.0267 -3.04506,1.57148 -3.07632,3.5863 l -0.31743,11.87853 c -0.0779,1.08901 -0.13887,2.2746 -0.66638,4.03445 -2.21308,5.05873 -8.21411,6.33343 -12.57809,2.64748 -4.94671,-4.65389 -5.78398,-12.7102 -10.80684,-17.79569 l 5.09649,-17.31178 c 0.55329,-1.80569 -0.14246,-3.52698 -1.88478,-4.01388 -0.27224,-0.0761 -0.54483,-0.11376 -0.81356,-0.11607 z m -98.05457,16.6357 c -6.6556,0.0402 -9.99531,4.88391 -11.33027,9.76412 -1.49725,5.47352 -2.22746,11.61734 -6.54529,15.7692 -2.68784,3.0696 1.6682,8.17339 5.73133,3.79317 5.72743,-5.72428 4.82991,-14.74736 8.5041,-20.4831 1.88622,-2.93155 5.4555,-1.3727 6.85936,-3.80324 1.31629,-2.58778 -0.45412,-4.99705 -2.8997,-5.03805 -0.10736,-0.002 -0.21394,-0.003 -0.31953,-0.002 z m 22.60104,0.24879 c -0.78842,0.003 -1.58362,0.0512 -2.38301,0.13657 -8.16309,0.81847 -14.07424,9.2784 -12.82111,17.22684 0.89072,7.81427 7.67525,13.64945 16.34728,13.30547 6.31725,-0.271 11.33316,-4.86133 14.23755,-10.14591 2.78643,-4.12598 4.52125,-9.2095 8.47971,-12.41749 4.65467,-3.15134 11.74076,-1.30199 13.91003,3.98193 2.59829,5.59071 -1.67845,12.73866 -8.33632,12.58818 -3.24725,0.21856 -4.7179,-1.53801 -7.11206,-2.42674 -3.34522,-0.93662 -5.6189,3.05069 -2.85812,5.37523 5.8897,4.95908 17.34842,4.37541 22.22077,-2.6483 4.78938,-6.23672 3.76872,-15.89917 -2.19259,-21.02167 -6.27444,-5.94779 -17.33919,-4.67539 -22.45533,2.17911 -4.31643,4.98531 -6.27185,11.66012 -10.9733,16.32796 -4.53291,3.59378 -12.04964,1.97874 -14.36201,-3.43411 -2.76503,-5.5924 1.46753,-12.68916 8.1417,-12.79587 3.96249,-0.11146 4.77978,1.38064 7.15913,2.39476 3.35447,1.08387 5.29772,-3.0922 2.63864,-5.44208 -2.93653,-2.35572 -6.22446,-3.19612 -9.64096,-3.18393 z"
       sodipodi:nodetypes="sccccccccccccccsccccsssccccsccccccccccscscccccccccccssccccssssccccccccsccccccccs" /><g
       aria-label="newsletter"
       id="text23356"
       style="font-size:29.4162px;font-family:'Motley Forces';-inkscape-font-specification:'Motley Forces';letter-spacing:0px;fill:url(#linearGradient25928);stroke-width:2.45135"><path
         id="path30362"
         style="font-family:&quot;Rockin' Record&quot;;-inkscape-font-specification:&quot;Rockin' Record&quot;;fill:url(#linearGradient30416)"
         d="m 650.21488,633.79822 q -1.17779,0 -1.86723,-0.7469 -0.66072,-0.74689 -0.66072,-1.66615 v -17.58078 q 0.0575,-1.60869 0.8618,-2.67158 0.83308,-1.09162 1.72361,-1.12035 h 7.52641 q 2.52795,0.14364 4.33774,2.0396 1.83851,1.86724 2.38432,3.90684 0.57454,2.01087 0.51708,4.22283 -0.0862,3.5334 -2.09705,5.17082 1.92469,2.32687 2.21196,6.03262 0.0575,0.91926 -0.63199,1.66615 -0.66071,0.7469 -1.78106,0.7469 h -2.70031 q -1.1778,0 -1.86724,-0.7469 -0.66072,-0.74689 -0.66072,-1.66615 -0.31599,-2.87268 -0.8618,-3.90684 l -1.32143,0.51708 v 3.38976 q 0.0575,0.91926 -0.63199,1.66615 -0.66072,0.7469 -1.78106,0.7469 z m 7.23915,-13.15686 v -1.14907 q -0.0575,-2.24069 -0.68944,-3.04503 -0.48836,-0.40218 -1.43634,-0.34473 v 6.14753 h 0.28727 q 1.78105,-0.54581 1.83851,-1.6087 z m -29.18638,-6.83697 q 0.0575,-1.60869 0.8618,-2.67158 0.83308,-1.09162 1.72361,-1.12035 h 13.27176 q 0.71817,0.0575 1.14907,0.63199 0.45963,0.54581 0.45963,1.26398 v 2.29814 q 0,0.71817 -0.45963,1.2927 -0.4309,0.54581 -1.14907,0.60326 h -8.21585 v 3.33231 h 6.5497 q 0.71817,0.0575 1.14907,0.63199 0.45963,0.54581 0.45963,1.26397 v 1.14907 q 0,0.71817 -0.45963,1.29271 -0.4309,0.54581 -1.14907,0.60326 h -6.5497 v 3.3323 h 8.21585 q 0.71817,0.0575 1.14907,0.63199 0.45963,0.54581 0.45963,1.26398 v 2.29814 q 0,0.71817 -0.45963,1.29271 -0.4309,0.5458 -1.14907,0.60326 h -13.27176 q -0.89053,-0.0287 -1.72361,-1.09162 -0.80435,-1.09162 -0.8618,-2.70031 z m -13.94913,17.63823 v -15.34009 h -3.27485 q -0.71817,-0.0575 -1.1778,-0.60326 -0.4309,-0.57453 -0.4309,-1.2927 v -2.29814 q 0,-0.71817 0.4309,-1.26398 0.45963,-0.57453 1.1778,-0.63199 h 14.24847 q 0.71817,0.0575 1.14907,0.63199 0.45963,0.54581 0.45963,1.26398 v 2.29814 q 0,0.71817 -0.45963,1.2927 -0.4309,0.54581 -1.14907,0.60326 h -3.27485 v 15.34009 q 0,0.86181 -0.68944,1.6087 -0.66071,0.7469 -1.78106,0.7469 h -2.75777 q -1.12034,0 -1.80978,-0.7469 -0.66072,-0.74689 -0.66072,-1.6087 z m -18.77521,0 v -15.34009 h -3.27485 q -0.71817,-0.0575 -1.17779,-0.60326 -0.4309,-0.57453 -0.4309,-1.2927 v -2.29814 q 0,-0.71817 0.4309,-1.26398 0.45962,-0.57453 1.17779,-0.63199 h 14.24848 q 0.71816,0.0575 1.14907,0.63199 0.45962,0.54581 0.45962,1.26398 v 2.29814 q 0,0.71817 -0.45962,1.2927 -0.43091,0.54581 -1.14907,0.60326 h -3.27485 v 15.34009 q 0,0.86181 -0.68945,1.6087 -0.66071,0.7469 -1.78106,0.7469 h -2.75776 q -1.12035,0 -1.80979,-0.7469 -0.66072,-0.74689 -0.66072,-1.6087 z m -23.71622,-17.63823 q 0.0575,-1.60869 0.8618,-2.67158 0.83308,-1.09162 1.72361,-1.12035 h 13.27176 q 0.71817,0.0575 1.14907,0.63199 0.45963,0.54581 0.45963,1.26398 v 2.29814 q 0,0.71817 -0.45963,1.2927 -0.4309,0.54581 -1.14907,0.60326 h -8.21585 v 3.33231 h 6.5497 q 0.71817,0.0575 1.14907,0.63199 0.45963,0.54581 0.45963,1.26397 v 1.14907 q 0,0.71817 -0.45963,1.29271 -0.4309,0.54581 -1.14907,0.60326 h -6.5497 v 3.3323 h 8.21585 q 0.71817,0.0575 1.14907,0.63199 0.45963,0.54581 0.45963,1.26398 v 2.29814 q 0,0.71817 -0.45963,1.29271 -0.4309,0.5458 -1.14907,0.60326 H 574.4125 q -0.89053,-0.0287 -1.72361,-1.09162 -0.80435,-1.09162 -0.8618,-2.70031 z m -17.39632,-1.43633 q 0,-0.86181 0.66071,-1.6087 0.68944,-0.7469 1.86724,-0.7469 h 2.70032 q 1.12034,0 1.78105,0.7469 0.68945,0.74689 0.63199,1.6087 v 15.34008 h 6.72206 q 0.71817,0.0575 1.14908,0.63199 0.45962,0.54581 0.45962,1.26398 v 2.29814 q 0,0.71817 -0.45962,1.29271 -0.43091,0.5458 -1.14908,0.60326 H 557.4758 q -1.35016,-0.0287 -2.18323,-1.12035 -0.83308,-1.09161 -0.8618,-3.07376 z m -13.15686,21.43016 q -1.78106,-0.0862 -3.10249,-0.68944 -1.32143,-0.60327 -2.06833,-1.69488 -0.71817,-1.12035 -0.8618,-3.07377 v -1.95342 q 0.17236,-1.60869 1.6087,-1.7236 h 4.36647 q 1.43633,0.11491 1.60869,1.7236 0,0.77563 0.40218,1.14907 0.4309,0.37345 0.83307,0 0.40218,-0.57453 0.43091,-1.66615 -0.0287,-0.57453 -0.45963,-0.97671 -0.4309,-0.4309 -3.2174,-1.17779 -2.78649,-0.77563 -4.0792,-1.9247 -1.2927,-1.14907 -1.40761,-3.44721 -0.0287,-1.55124 0.71817,-3.59084 0.74689,-2.0396 2.38432,-3.36103 1.66615,-1.35016 3.67702,-1.37889 h 4.30902 q 1.80978,0.0862 3.13122,0.68944 1.32143,0.60327 2.0396,1.72361 0.74689,1.09162 0.89052,3.04504 v 1.95342 q -0.17236,1.60869 -1.60869,1.7236 H 546.416 q -1.46507,-0.11491 -1.6087,-1.7236 0,-0.94799 -0.34472,-1.14907 -0.45963,-0.37345 -0.8618,0 -0.34472,0.57453 -0.37345,1.66615 0.0287,0.57453 0.45963,1.00543 0.4309,0.40218 3.21739,1.1778 2.7865,0.7469 4.0792,1.89597 1.29271,1.14907 1.43634,3.44721 0,1.55124 -0.74689,3.59084 -0.7469,2.0396 -2.41305,3.38976 -1.63743,1.32143 -3.61957,1.35016 z m -26.58889,-8.79039 q 0.0862,1.14907 0.14363,1.83851 0.0575,0.66072 0.316,0.8618 h 0.28726 q 0.22982,-0.20108 0.28727,-0.8618 0.0862,-0.68944 0.17236,-1.83851 l 0.51708,-12.58232 q -0.0575,-0.91926 0.60326,-1.66615 0.68945,-0.7469 1.86724,-0.7469 h 2.58541 q 1.1778,0 1.83851,0.7469 0.68945,0.74689 0.63199,1.66615 l 0.51708,12.58232 q 0.0862,1.14907 0.14364,1.83851 0.0862,0.66072 0.31599,0.8618 h 0.28727 q 0.25854,-0.20108 0.31599,-0.8618 0.0575,-0.68944 0.14364,-1.83851 l 0.57453,-12.58232 q 0,-0.91926 0.66072,-1.66615 0.68944,-0.7469 1.80978,-0.7469 h 2.70032 q 1.1778,0 1.83851,0.7469 0.68945,0.74689 0.63199,1.66615 l -0.68944,13.61648 q -0.51708,4.30902 -2.26941,6.03262 -1.75234,1.72361 -4.85483,1.72361 h -1.49379 q -2.9014,-0.0862 -4.39519,-2.58541 -1.49379,2.49923 -4.3952,2.58541 h -1.49379 q -3.10249,0 -4.85482,-1.72361 -1.75233,-1.7236 -2.26941,-6.03262 l -0.68945,-13.61648 q -0.0574,-0.91926 0.60327,-1.66615 0.68944,-0.7469 1.86724,-0.7469 h 2.70031 q 1.12034,0 1.78106,0.7469 0.68944,0.74689 0.68944,1.66615 z M 487.6365,613.80439 q 0.0574,-1.60869 0.8618,-2.67158 0.83307,-1.09162 1.7236,-1.12035 h 13.27177 q 0.71817,0.0575 1.14907,0.63199 0.45963,0.54581 0.45963,1.26398 v 2.29814 q 0,0.71817 -0.45963,1.2927 -0.4309,0.54581 -1.14907,0.60326 h -8.21586 v 3.33231 h 6.5497 q 0.71817,0.0575 1.14908,0.63199 0.45962,0.54581 0.45962,1.26397 v 1.14907 q 0,0.71817 -0.45962,1.29271 -0.43091,0.54581 -1.14908,0.60326 h -6.5497 v 3.3323 h 8.21586 q 0.71817,0.0575 1.14907,0.63199 0.45963,0.54581 0.45963,1.26398 v 2.29814 q 0,0.71817 -0.45963,1.29271 -0.4309,0.5458 -1.14907,0.60326 H 490.2219 q -0.89053,-0.0287 -1.7236,-1.09162 -0.80435,-1.09162 -0.8618,-2.70031 z m -17.64525,19.99383 q -1.12035,0 -1.80979,-0.7469 -0.66071,-0.74689 -0.66071,-1.66615 v -18.95966 q 0,-0.91926 0.66071,-1.66615 0.68944,-0.7469 1.80979,-0.7469 h 2.24069 q 2.18323,0 2.98758,1.95342 l 2.12578,4.88355 v -4.42392 q 0,-0.91926 0.66071,-1.66615 0.68945,-0.7469 1.80979,-0.7469 h 2.70031 q 1.12035,0 1.86724,0.77562 0.60327,0.71817 0.60327,1.63743 v 18.95966 q 0,0.91926 -0.68945,1.66615 -0.66071,0.7469 -1.78106,0.7469 h -2.24068 q -2.18324,0 -2.98759,-1.95342 l -2.12578,-4.88355 v 4.42392 q 0,0.91926 -0.68944,1.66615 -0.66071,0.7469 -1.78106,0.7469 z" /></g><path
       id="path1342"
       style="color:#000000;fill:#1dc939;fill-opacity:1;stroke-width:0;-inkscape-stroke:none"
       d="m 494.93548,550.46714 c -1.22217,-0.0205 -2.4876,0.69598 -3.03302,2.37041 -0.59868,1.83802 -1.17039,3.68048 -1.62749,4.98844 -1.15724,3.56718 -2.23409,7.13949 -3.4362,10.68531 -5.96393,-2.14137 -13.35916,-1.04661 -17.48034,4.07988 -5.2687,5.97633 -4.79561,15.86464 1.00397,21.32186 6.1058,6.44219 17.63654,5.46274 22.91446,-1.56233 4.37943,-5.08916 6.25676,-11.91402 10.96533,-16.73071 4.37902,-3.5564 11.74289,-2.24432 14.24637,2.94216 3.01406,5.79251 -1.21543,13.3478 -7.86252,13.31977 -3.47766,0.13656 -4.53893,-1.53036 -7.08051,-2.399 -3.0085,-0.94404 -6.00656,2.94226 -2.91654,5.59974 6.95832,5.23585 17.40909,3.86235 22.18794,-3.23438 4.70575,-6.30253 3.55012,-15.94812 -2.47591,-20.99139 -6.35221,-5.84737 -17.40153,-4.44859 -22.42257,2.48096 -4.25288,5.04397 -5.87278,11.98945 -10.75469,16.47301 -4.15475,3.81577 -11.74278,2.24401 -14.24637,-2.94262 -3.15859,-5.54365 1.34793,-13.12274 7.83057,-13.16965 2.87782,-0.03 4.64975,1.15079 6.94177,1.94702 3.57633,0.97361 3.98887,-1.668 4.8207,-4.09334 1.85265,-5.70673 3.33927,-11.27121 5.12505,-16.96321 0.78056,-2.48785 -0.91373,-4.092 -2.7,-4.12193 z m 58.1753,0.0405 c -1.37652,0.0179 -2.78689,0.85403 -3.25752,2.61045 l -11.05445,40.85182 c -1.18779,4.36342 4.92739,6.12053 6.3044,1.70571 l 10.96784,-40.88379 c 0.74858,-2.79368 -1.07392,-4.30812 -2.96027,-4.28419 z m 85.71169,0.0971 c -1.45098,-0.0128 -2.78176,0.99698 -3.24867,2.52049 l -4.76899,15.56401 c -5.4149,-2.52287 -12.30978,-1.9277 -16.87576,2.4814 -6.00326,5.07323 -7.10327,14.72679 -2.36536,21.00274 4.66507,7.17098 15.26009,7.69385 22.24723,3.05487 2.76719,-1.92886 1.21836,-6.5836 -2.59787,-5.56148 -2.52204,1.08031 -3.98178,2.48688 -7.52155,2.4856 -6.322,-0.003 -10.68541,-7.14982 -8.04121,-12.71896 2.2974,-5.66138 9.15121,-7.0346 14.1085,-4.17909 4.59978,2.75307 5.55866,7.07041 8.5226,12.73912 3.43113,6.56231 7.24039,10.27728 13.90667,10.33216 7.93934,0.092 13.53003,-4.45455 14.4318,-12.59156 0.52692,-4.75465 0.25058,-9.56729 0.33086,-14.35066 0.0313,-2.01479 -1.34296,-3.65999 -3.08134,-3.68763 -1.73841,-0.0267 -3.04506,1.57148 -3.07632,3.5863 l -0.31743,11.87853 c -0.0779,1.08901 -0.13887,2.2746 -0.66638,4.03445 -2.21308,5.05873 -8.21411,6.33343 -12.57809,2.64748 -4.94671,-4.65389 -5.78398,-12.7102 -10.80684,-17.79569 l 5.09649,-17.31178 c 0.55329,-1.80569 -0.14246,-3.52698 -1.88478,-4.01388 -0.27224,-0.0761 -0.54483,-0.11376 -0.81356,-0.11607 z m -98.05457,16.6357 c -6.6556,0.0402 -9.99531,4.88391 -11.33027,9.76412 -1.49725,5.47352 -2.22746,11.61734 -6.54529,15.7692 -2.68784,3.0696 1.6682,8.17339 5.73133,3.79317 5.72743,-5.72428 4.82991,-14.74736 8.5041,-20.4831 1.88622,-2.93155 5.4555,-1.3727 6.85936,-3.80324 1.31629,-2.58778 -0.45412,-4.99705 -2.8997,-5.03805 -0.10736,-0.002 -0.21394,-0.003 -0.31953,-0.002 z m 22.60104,0.24879 c -0.78842,0.003 -1.58362,0.0512 -2.38301,0.13657 -8.16309,0.81847 -14.07424,9.2784 -12.82111,17.22684 0.89072,7.81427 7.67525,13.64945 16.34728,13.30547 6.31725,-0.271 11.33316,-4.86133 14.23755,-10.14591 2.78643,-4.12598 4.52125,-9.2095 8.47971,-12.41749 4.65467,-3.15134 11.74076,-1.30199 13.91003,3.98193 2.59829,5.59071 -1.67845,12.73866 -8.33632,12.58818 -3.24725,0.21856 -4.7179,-1.53801 -7.11206,-2.42674 -3.34522,-0.93662 -5.6189,3.05069 -2.85812,5.37523 5.8897,4.95908 17.34842,4.37541 22.22077,-2.6483 4.78938,-6.23672 3.76872,-15.89917 -2.19259,-21.02167 -6.27444,-5.94779 -17.33919,-4.67539 -22.45533,2.17911 -4.31643,4.98531 -6.27185,11.66012 -10.9733,16.32796 -4.53291,3.59378 -12.04964,1.97874 -14.36201,-3.43411 -2.76503,-5.5924 1.46753,-12.68916 8.1417,-12.79587 3.96249,-0.11146 4.77978,1.38064 7.15913,2.39476 3.35447,1.08387 5.29772,-3.0922 2.63864,-5.44208 -2.93653,-2.35572 -6.22446,-3.19612 -9.64096,-3.18393 z"
       sodipodi:nodetypes="sccccccccccccccsccccsssccccsccccccccccscscccccccccccssccccssssccccccccsccccccccs" /><g
       aria-label="newsletter"
       id="g1346"
       style="font-size:29.4162px;font-family:'Motley Forces';-inkscape-font-specification:'Motley Forces';letter-spacing:0px;fill:url(#linearGradient25928);stroke-width:2.45135"><path
         id="path1344"
         style="font-family:&quot;Rockin' Record&quot;;-inkscape-font-specification:&quot;Rockin' Record&quot;;fill:url(#linearGradient30416)"
         d="m 650.21488,633.79822 q -1.17779,0 -1.86723,-0.7469 -0.66072,-0.74689 -0.66072,-1.66615 v -17.58078 q 0.0575,-1.60869 0.8618,-2.67158 0.83308,-1.09162 1.72361,-1.12035 h 7.52641 q 2.52795,0.14364 4.33774,2.0396 1.83851,1.86724 2.38432,3.90684 0.57454,2.01087 0.51708,4.22283 -0.0862,3.5334 -2.09705,5.17082 1.92469,2.32687 2.21196,6.03262 0.0575,0.91926 -0.63199,1.66615 -0.66071,0.7469 -1.78106,0.7469 h -2.70031 q -1.1778,0 -1.86724,-0.7469 -0.66072,-0.74689 -0.66072,-1.66615 -0.31599,-2.87268 -0.8618,-3.90684 l -1.32143,0.51708 v 3.38976 q 0.0575,0.91926 -0.63199,1.66615 -0.66072,0.7469 -1.78106,0.7469 z m 7.23915,-13.15686 v -1.14907 q -0.0575,-2.24069 -0.68944,-3.04503 -0.48836,-0.40218 -1.43634,-0.34473 v 6.14753 h 0.28727 q 1.78105,-0.54581 1.83851,-1.6087 z m -29.18638,-6.83697 q 0.0575,-1.60869 0.8618,-2.67158 0.83308,-1.09162 1.72361,-1.12035 h 13.27176 q 0.71817,0.0575 1.14907,0.63199 0.45963,0.54581 0.45963,1.26398 v 2.29814 q 0,0.71817 -0.45963,1.2927 -0.4309,0.54581 -1.14907,0.60326 h -8.21585 v 3.33231 h 6.5497 q 0.71817,0.0575 1.14907,0.63199 0.45963,0.54581 0.45963,1.26397 v 1.14907 q 0,0.71817 -0.45963,1.29271 -0.4309,0.54581 -1.14907,0.60326 h -6.5497 v 3.3323 h 8.21585 q 0.71817,0.0575 1.14907,0.63199 0.45963,0.54581 0.45963,1.26398 v 2.29814 q 0,0.71817 -0.45963,1.29271 -0.4309,0.5458 -1.14907,0.60326 h -13.27176 q -0.89053,-0.0287 -1.72361,-1.09162 -0.80435,-1.09162 -0.8618,-2.70031 z m -13.94913,17.63823 v -15.34009 h -3.27485 q -0.71817,-0.0575 -1.1778,-0.60326 -0.4309,-0.57453 -0.4309,-1.2927 v -2.29814 q 0,-0.71817 0.4309,-1.26398 0.45963,-0.57453 1.1778,-0.63199 h 14.24847 q 0.71817,0.0575 1.14907,0.63199 0.45963,0.54581 0.45963,1.26398 v 2.29814 q 0,0.71817 -0.45963,1.2927 -0.4309,0.54581 -1.14907,0.60326 h -3.27485 v 15.34009 q 0,0.86181 -0.68944,1.6087 -0.66071,0.7469 -1.78106,0.7469 h -2.75777 q -1.12034,0 -1.80978,-0.7469 -0.66072,-0.74689 -0.66072,-1.6087 z m -18.77521,0 v -15.34009 h -3.27485 q -0.71817,-0.0575 -1.17779,-0.60326 -0.4309,-0.57453 -0.4309,-1.2927 v -2.29814 q 0,-0.71817 0.4309,-1.26398 0.45962,-0.57453 1.17779,-0.63199 h 14.24848 q 0.71816,0.0575 1.14907,0.63199 0.45962,0.54581 0.45962,1.26398 v 2.29814 q 0,0.71817 -0.45962,1.2927 -0.43091,0.54581 -1.14907,0.60326 h -3.27485 v 15.34009 q 0,0.86181 -0.68945,1.6087 -0.66071,0.7469 -1.78106,0.7469 h -2.75776 q -1.12035,0 -1.80979,-0.7469 -0.66072,-0.74689 -0.66072,-1.6087 z m -23.71622,-17.63823 q 0.0575,-1.60869 0.8618,-2.67158 0.83308,-1.09162 1.72361,-1.12035 h 13.27176 q 0.71817,0.0575 1.14907,0.63199 0.45963,0.54581 0.45963,1.26398 v 2.29814 q 0,0.71817 -0.45963,1.2927 -0.4309,0.54581 -1.14907,0.60326 h -8.21585 v 3.33231 h 6.5497 q 0.71817,0.0575 1.14907,0.63199 0.45963,0.54581 0.45963,1.26397 v 1.14907 q 0,0.71817 -0.45963,1.29271 -0.4309,0.54581 -1.14907,0.60326 h -6.5497 v 3.3323 h 8.21585 q 0.71817,0.0575 1.14907,0.63199 0.45963,0.54581 0.45963,1.26398 v 2.29814 q 0,0.71817 -0.45963,1.29271 -0.4309,0.5458 -1.14907,0.60326 H 574.4125 q -0.89053,-0.0287 -1.72361,-1.09162 -0.80435,-1.09162 -0.8618,-2.70031 z m -17.39632,-1.43633 q 0,-0.86181 0.66071,-1.6087 0.68944,-0.7469 1.86724,-0.7469 h 2.70032 q 1.12034,0 1.78105,0.7469 0.68945,0.74689 0.63199,1.6087 v 15.34008 h 6.72206 q 0.71817,0.0575 1.14908,0.63199 0.45962,0.54581 0.45962,1.26398 v 2.29814 q 0,0.71817 -0.45962,1.29271 -0.43091,0.5458 -1.14908,0.60326 H 557.4758 q -1.35016,-0.0287 -2.18323,-1.12035 -0.83308,-1.09161 -0.8618,-3.07376 z m -13.15686,21.43016 q -1.78106,-0.0862 -3.10249,-0.68944 -1.32143,-0.60327 -2.06833,-1.69488 -0.71817,-1.12035 -0.8618,-3.07377 v -1.95342 q 0.17236,-1.60869 1.6087,-1.7236 h 4.36647 q 1.43633,0.11491 1.60869,1.7236 0,0.77563 0.40218,1.14907 0.4309,0.37345 0.83307,0 0.40218,-0.57453 0.43091,-1.66615 -0.0287,-0.57453 -0.45963,-0.97671 -0.4309,-0.4309 -3.2174,-1.17779 -2.78649,-0.77563 -4.0792,-1.9247 -1.2927,-1.14907 -1.40761,-3.44721 -0.0287,-1.55124 0.71817,-3.59084 0.74689,-2.0396 2.38432,-3.36103 1.66615,-1.35016 3.67702,-1.37889 h 4.30902 q 1.80978,0.0862 3.13122,0.68944 1.32143,0.60327 2.0396,1.72361 0.74689,1.09162 0.89052,3.04504 v 1.95342 q -0.17236,1.60869 -1.60869,1.7236 H 546.416 q -1.46507,-0.11491 -1.6087,-1.7236 0,-0.94799 -0.34472,-1.14907 -0.45963,-0.37345 -0.8618,0 -0.34472,0.57453 -0.37345,1.66615 0.0287,0.57453 0.45963,1.00543 0.4309,0.40218 3.21739,1.1778 2.7865,0.7469 4.0792,1.89597 1.29271,1.14907 1.43634,3.44721 0,1.55124 -0.74689,3.59084 -0.7469,2.0396 -2.41305,3.38976 -1.63743,1.32143 -3.61957,1.35016 z m -26.58889,-8.79039 q 0.0862,1.14907 0.14363,1.83851 0.0575,0.66072 0.316,0.8618 h 0.28726 q 0.22982,-0.20108 0.28727,-0.8618 0.0862,-0.68944 0.17236,-1.83851 l 0.51708,-12.58232 q -0.0575,-0.91926 0.60326,-1.66615 0.68945,-0.7469 1.86724,-0.7469 h 2.58541 q 1.1778,0 1.83851,0.7469 0.68945,0.74689 0.63199,1.66615 l 0.51708,12.58232 q 0.0862,1.14907 0.14364,1.83851 0.0862,0.66072 0.31599,0.8618 h 0.28727 q 0.25854,-0.20108 0.31599,-0.8618 0.0575,-0.68944 0.14364,-1.83851 l 0.57453,-12.58232 q 0,-0.91926 0.66072,-1.66615 0.68944,-0.7469 1.80978,-0.7469 h 2.70032 q 1.1778,0 1.83851,0.7469 0.68945,0.74689 0.63199,1.66615 l -0.68944,13.61648 q -0.51708,4.30902 -2.26941,6.03262 -1.75234,1.72361 -4.85483,1.72361 h -1.49379 q -2.9014,-0.0862 -4.39519,-2.58541 -1.49379,2.49923 -4.3952,2.58541 h -1.49379 q -3.10249,0 -4.85482,-1.72361 -1.75233,-1.7236 -2.26941,-6.03262 l -0.68945,-13.61648 q -0.0574,-0.91926 0.60327,-1.66615 0.68944,-0.7469 1.86724,-0.7469 h 2.70031 q 1.12034,0 1.78106,0.7469 0.68944,0.74689 0.68944,1.66615 z M 487.6365,613.80439 q 0.0574,-1.60869 0.8618,-2.67158 0.83307,-1.09162 1.7236,-1.12035 h 13.27177 q 0.71817,0.0575 1.14907,0.63199 0.45963,0.54581 0.45963,1.26398 v 2.29814 q 0,0.71817 -0.45963,1.2927 -0.4309,0.54581 -1.14907,0.60326 h -8.21586 v 3.33231 h 6.5497 q 0.71817,0.0575 1.14908,0.63199 0.45962,0.54581 0.45962,1.26397 v 1.14907 q 0,0.71817 -0.45962,1.29271 -0.43091,0.54581 -1.14908,0.60326 h -6.5497 v 3.3323 h 8.21586 q 0.71817,0.0575 1.14907,0.63199 0.45963,0.54581 0.45963,1.26398 v 2.29814 q 0,0.71817 -0.45963,1.29271 -0.4309,0.5458 -1.14907,0.60326 H 490.2219 q -0.89053,-0.0287 -1.7236,-1.09162 -0.80435,-1.09162 -0.8618,-2.70031 z m -17.64525,19.99383 q -1.12035,0 -1.80979,-0.7469 -0.66071,-0.74689 -0.66071,-1.66615 v -18.95966 q 0,-0.91926 0.66071,-1.66615 0.68944,-0.7469 1.80979,-0.7469 h 2.24069 q 2.18323,0 2.98758,1.95342 l 2.12578,4.88355 v -4.42392 q 0,-0.91926 0.66071,-1.66615 0.68945,-0.7469 1.80979,-0.7469 h 2.70031 q 1.12035,0 1.86724,0.77562 0.60327,0.71817 0.60327,1.63743 v 18.95966 q 0,0.91926 -0.68945,1.66615 -0.66071,0.7469 -1.78106,0.7469 h -2.24068 q -2.18324,0 -2.98759,-1.95342 l -2.12578,-4.88355 v 4.42392 q 0,0.91926 -0.68944,1.66615 -0.66071,0.7469 -1.78106,0.7469 z" /></g><path
       id="path1348"
       style="color:#000000;fill:#1dc939;fill-opacity:1;stroke-width:0;-inkscape-stroke:none"
       d="m 174.21481,706.8986 c -1.62566,-0.0271 -3.30887,0.92574 -4.03435,3.15299 -0.79631,2.44479 -1.55677,4.89554 -2.1648,6.6353 -1.53927,4.74482 -2.97163,9.49651 -4.5706,14.21295 -7.93283,-2.84834 -17.76953,-1.39215 -23.25127,5.42679 -7.0081,7.94935 -6.37883,21.10217 1.33542,28.36103 8.12155,8.56901 23.45905,7.2662 30.4794,-2.07812 5.82523,-6.76928 8.32234,-15.8473 14.58541,-22.25415 5.82469,-4.7305 15.61963,-2.98525 18.94962,3.91346 4.00913,7.70483 -1.61667,17.75442 -10.45823,17.71715 -4.62578,0.18162 -6.03739,-2.03559 -9.41805,-3.19101 -4.0017,-1.25569 -7.98955,3.91361 -3.8794,7.44842 9.25551,6.96438 23.1565,5.13748 29.51302,-4.30214 6.2593,-8.38326 4.72215,-21.21323 -3.29331,-27.92147 -8.44929,-7.77782 -23.14642,-5.91723 -29.82511,3.30003 -5.65694,6.70915 -7.81161,15.94761 -14.3052,21.91137 -5.5264,5.07549 -15.61953,2.98483 -18.94968,-3.91409 -4.20135,-7.37381 1.79294,-17.45505 10.41574,-17.51745 3.82792,-0.0397 6.18483,1.53071 9.23353,2.5898 4.75701,1.29503 5.30575,-2.21866 6.41221,-5.4447 2.46428,-7.59074 4.44167,-14.99226 6.817,-22.56343 1.03828,-3.30917 -1.21535,-5.44293 -3.59135,-5.48273 z m 77.38116,0.0539 c -1.83096,0.0239 -3.70695,1.13597 -4.33293,3.47226 l -14.70395,54.33856 c -1.57994,5.80396 6.55411,8.14114 8.38572,2.26882 l 14.58874,-54.38112 c 0.99571,-3.71597 -1.42847,-5.73039 -3.93758,-5.69855 z m 114.0084,0.12918 c -1.93001,-0.017 -3.70011,1.32612 -4.32117,3.3526 l -6.34342,20.70228 c -7.20256,-3.35577 -16.37371,-2.5641 -22.4471,3.30059 -7.98516,6.74812 -9.44833,19.58869 -3.14625,27.93658 6.20521,9.53838 20.29803,10.23388 29.59189,4.06338 3.68074,-2.56564 1.62058,-8.7571 -3.4555,-7.39754 -3.35467,1.43698 -5.29635,3.30791 -10.0047,3.30621 -8.40915,-0.004 -14.21308,-9.51026 -10.69594,-16.91799 3.05586,-7.53042 12.17238,-9.357 18.76625,-5.55875 6.11832,3.66195 7.39378,9.40461 11.33624,16.94477 4.56389,8.72878 9.6307,13.67021 18.49779,13.74321 10.56043,0.12235 17.99682,-5.92517 19.19627,-16.7485 0.70088,-6.32437 0.33331,-12.72584 0.44011,-19.08839 0.0414,-2.67994 -1.78633,-4.86829 -4.09862,-4.90505 -2.31231,-0.0356 -4.05035,2.09028 -4.09193,4.77028 l -0.42223,15.80009 c -0.10374,1.44854 -0.18471,3.02553 -0.88636,5.36637 -2.94369,6.72883 -10.92591,8.42434 -16.7306,3.52153 -6.57979,-6.19033 -7.69349,-16.90632 -14.37459,-23.67074 l 6.77903,-23.02706 c 0.73594,-2.40183 -0.1895,-4.69135 -2.50702,-5.33899 -0.36213,-0.10138 -0.72467,-0.15133 -1.08215,-0.15439 z m -130.42611,22.12774 c -8.85288,0.0535 -13.29514,6.49629 -15.07083,12.98765 -1.99155,7.28055 -2.96282,15.45265 -8.70614,20.9752 -3.5752,4.083 2.21894,10.87173 7.62346,5.04544 7.61827,-7.61408 6.42446,-19.61604 11.31163,-27.24536 2.50894,-3.89935 7.25656,-1.82587 9.12388,-5.05881 1.75087,-3.44211 -0.60404,-6.64679 -3.857,-6.70132 -0.1428,-0.003 -0.28458,-0.004 -0.425,-0.003 z m 30.0625,0.33093 c -1.0487,0.004 -2.10643,0.0682 -3.16975,0.18166 -10.85803,1.0887 -18.72067,12.34155 -17.05383,22.9141 1.18479,10.39401 10.20915,18.15565 21.74414,17.69811 8.4028,-0.36047 15.07467,-6.46625 18.93788,-13.49548 3.70634,-5.4881 6.01391,-12.2499 11.27919,-16.51697 6.19138,-4.19171 15.61687,-1.73185 18.50226,5.29649 3.45611,7.43644 -2.23254,16.9442 -11.08844,16.74406 -4.31928,0.29071 -6.27545,-2.04577 -9.46002,-3.22793 -4.44959,-1.24584 -7.47391,4.05784 -3.80169,7.1498 7.83413,6.59626 23.07582,5.81991 29.55671,-3.52259 6.37053,-8.29568 5.01291,-21.14811 -2.91646,-27.96172 -8.34589,-7.91139 -23.06353,-6.21892 -29.86868,2.89852 -5.74147,6.63113 -8.34246,15.50955 -14.59603,21.71843 -6.02938,4.7802 -16.02767,2.632 -19.10347,-4.56782 -3.67785,-7.43868 1.95207,-16.87836 10.82961,-17.0203 5.27066,-0.14826 6.35776,1.83645 9.52263,3.18534 4.46191,1.44172 7.04669,-4.11304 3.50974,-7.23871 -3.90598,-3.13342 -8.27936,-4.25126 -12.82379,-4.23505 z"
       sodipodi:nodetypes="sccccccccccccccsccccsssccccsccccccccccscscccccccccccssccccssssccccccccsccccccccs" /><g
       aria-label="newsletter"
       id="g1352"
       style="font-size:29.4162px;font-family:'Motley Forces';-inkscape-font-specification:'Motley Forces';letter-spacing:0px;fill:url(#linearGradient1366);stroke-width:2.45135"
       transform="matrix(1.3301381,0,0,1.3301381,-484.11778,-25.298753)"><path
         id="path1350"
         style="font-family:'Rockin\' Record';-inkscape-font-specification:'Rockin\' Record';fill:url(#linearGradient1364)"
         d="m 650.21488,633.79822 q -1.17779,0 -1.86723,-0.7469 -0.66072,-0.74689 -0.66072,-1.66615 v -17.58078 q 0.0575,-1.60869 0.8618,-2.67158 0.83308,-1.09162 1.72361,-1.12035 h 7.52641 q 2.52795,0.14364 4.33774,2.0396 1.83851,1.86724 2.38432,3.90684 0.57454,2.01087 0.51708,4.22283 -0.0862,3.5334 -2.09705,5.17082 1.92469,2.32687 2.21196,6.03262 0.0575,0.91926 -0.63199,1.66615 -0.66071,0.7469 -1.78106,0.7469 h -2.70031 q -1.1778,0 -1.86724,-0.7469 -0.66072,-0.74689 -0.66072,-1.66615 -0.31599,-2.87268 -0.8618,-3.90684 l -1.32143,0.51708 v 3.38976 q 0.0575,0.91926 -0.63199,1.66615 -0.66072,0.7469 -1.78106,0.7469 z m 7.23915,-13.15686 v -1.14907 q -0.0575,-2.24069 -0.68944,-3.04503 -0.48836,-0.40218 -1.43634,-0.34473 v 6.14753 h 0.28727 q 1.78105,-0.54581 1.83851,-1.6087 z m -29.18638,-6.83697 q 0.0575,-1.60869 0.8618,-2.67158 0.83308,-1.09162 1.72361,-1.12035 h 13.27176 q 0.71817,0.0575 1.14907,0.63199 0.45963,0.54581 0.45963,1.26398 v 2.29814 q 0,0.71817 -0.45963,1.2927 -0.4309,0.54581 -1.14907,0.60326 h -8.21585 v 3.33231 h 6.5497 q 0.71817,0.0575 1.14907,0.63199 0.45963,0.54581 0.45963,1.26397 v 1.14907 q 0,0.71817 -0.45963,1.29271 -0.4309,0.54581 -1.14907,0.60326 h -6.5497 v 3.3323 h 8.21585 q 0.71817,0.0575 1.14907,0.63199 0.45963,0.54581 0.45963,1.26398 v 2.29814 q 0,0.71817 -0.45963,1.29271 -0.4309,0.5458 -1.14907,0.60326 h -13.27176 q -0.89053,-0.0287 -1.72361,-1.09162 -0.80435,-1.09162 -0.8618,-2.70031 z m -13.94913,17.63823 v -15.34009 h -3.27485 q -0.71817,-0.0575 -1.1778,-0.60326 -0.4309,-0.57453 -0.4309,-1.2927 v -2.29814 q 0,-0.71817 0.4309,-1.26398 0.45963,-0.57453 1.1778,-0.63199 h 14.24847 q 0.71817,0.0575 1.14907,0.63199 0.45963,0.54581 0.45963,1.26398 v 2.29814 q 0,0.71817 -0.45963,1.2927 -0.4309,0.54581 -1.14907,0.60326 h -3.27485 v 15.34009 q 0,0.86181 -0.68944,1.6087 -0.66071,0.7469 -1.78106,0.7469 h -2.75777 q -1.12034,0 -1.80978,-0.7469 -0.66072,-0.74689 -0.66072,-1.6087 z m -18.77521,0 v -15.34009 h -3.27485 q -0.71817,-0.0575 -1.17779,-0.60326 -0.4309,-0.57453 -0.4309,-1.2927 v -2.29814 q 0,-0.71817 0.4309,-1.26398 0.45962,-0.57453 1.17779,-0.63199 h 14.24848 q 0.71816,0.0575 1.14907,0.63199 0.45962,0.54581 0.45962,1.26398 v 2.29814 q 0,0.71817 -0.45962,1.2927 -0.43091,0.54581 -1.14907,0.60326 h -3.27485 v 15.34009 q 0,0.86181 -0.68945,1.6087 -0.66071,0.7469 -1.78106,0.7469 h -2.75776 q -1.12035,0 -1.80979,-0.7469 -0.66072,-0.74689 -0.66072,-1.6087 z m -23.71622,-17.63823 q 0.0575,-1.60869 0.8618,-2.67158 0.83308,-1.09162 1.72361,-1.12035 h 13.27176 q 0.71817,0.0575 1.14907,0.63199 0.45963,0.54581 0.45963,1.26398 v 2.29814 q 0,0.71817 -0.45963,1.2927 -0.4309,0.54581 -1.14907,0.60326 h -8.21585 v 3.33231 h 6.5497 q 0.71817,0.0575 1.14907,0.63199 0.45963,0.54581 0.45963,1.26397 v 1.14907 q 0,0.71817 -0.45963,1.29271 -0.4309,0.54581 -1.14907,0.60326 h -6.5497 v 3.3323 h 8.21585 q 0.71817,0.0575 1.14907,0.63199 0.45963,0.54581 0.45963,1.26398 v 2.29814 q 0,0.71817 -0.45963,1.29271 -0.4309,0.5458 -1.14907,0.60326 H 574.4125 q -0.89053,-0.0287 -1.72361,-1.09162 -0.80435,-1.09162 -0.8618,-2.70031 z m -17.39632,-1.43633 q 0,-0.86181 0.66071,-1.6087 0.68944,-0.7469 1.86724,-0.7469 h 2.70032 q 1.12034,0 1.78105,0.7469 0.68945,0.74689 0.63199,1.6087 v 15.34008 h 6.72206 q 0.71817,0.0575 1.14908,0.63199 0.45962,0.54581 0.45962,1.26398 v 2.29814 q 0,0.71817 -0.45962,1.29271 -0.43091,0.5458 -1.14908,0.60326 H 557.4758 q -1.35016,-0.0287 -2.18323,-1.12035 -0.83308,-1.09161 -0.8618,-3.07376 z m -13.15686,21.43016 q -1.78106,-0.0862 -3.10249,-0.68944 -1.32143,-0.60327 -2.06833,-1.69488 -0.71817,-1.12035 -0.8618,-3.07377 v -1.95342 q 0.17236,-1.60869 1.6087,-1.7236 h 4.36647 q 1.43633,0.11491 1.60869,1.7236 0,0.77563 0.40218,1.14907 0.4309,0.37345 0.83307,0 0.40218,-0.57453 0.43091,-1.66615 -0.0287,-0.57453 -0.45963,-0.97671 -0.4309,-0.4309 -3.2174,-1.17779 -2.78649,-0.77563 -4.0792,-1.9247 -1.2927,-1.14907 -1.40761,-3.44721 -0.0287,-1.55124 0.71817,-3.59084 0.74689,-2.0396 2.38432,-3.36103 1.66615,-1.35016 3.67702,-1.37889 h 4.30902 q 1.80978,0.0862 3.13122,0.68944 1.32143,0.60327 2.0396,1.72361 0.74689,1.09162 0.89052,3.04504 v 1.95342 q -0.17236,1.60869 -1.60869,1.7236 H 546.416 q -1.46507,-0.11491 -1.6087,-1.7236 0,-0.94799 -0.34472,-1.14907 -0.45963,-0.37345 -0.8618,0 -0.34472,0.57453 -0.37345,1.66615 0.0287,0.57453 0.45963,1.00543 0.4309,0.40218 3.21739,1.1778 2.7865,0.7469 4.0792,1.89597 1.29271,1.14907 1.43634,3.44721 0,1.55124 -0.74689,3.59084 -0.7469,2.0396 -2.41305,3.38976 -1.63743,1.32143 -3.61957,1.35016 z m -26.58889,-8.79039 q 0.0862,1.14907 0.14363,1.83851 0.0575,0.66072 0.316,0.8618 h 0.28726 q 0.22982,-0.20108 0.28727,-0.8618 0.0862,-0.68944 0.17236,-1.83851 l 0.51708,-12.58232 q -0.0575,-0.91926 0.60326,-1.66615 0.68945,-0.7469 1.86724,-0.7469 h 2.58541 q 1.1778,0 1.83851,0.7469 0.68945,0.74689 0.63199,1.66615 l 0.51708,12.58232 q 0.0862,1.14907 0.14364,1.83851 0.0862,0.66072 0.31599,0.8618 h 0.28727 q 0.25854,-0.20108 0.31599,-0.8618 0.0575,-0.68944 0.14364,-1.83851 l 0.57453,-12.58232 q 0,-0.91926 0.66072,-1.66615 0.68944,-0.7469 1.80978,-0.7469 h 2.70032 q 1.1778,0 1.83851,0.7469 0.68945,0.74689 0.63199,1.66615 l -0.68944,13.61648 q -0.51708,4.30902 -2.26941,6.03262 -1.75234,1.72361 -4.85483,1.72361 h -1.49379 q -2.9014,-0.0862 -4.39519,-2.58541 -1.49379,2.49923 -4.3952,2.58541 h -1.49379 q -3.10249,0 -4.85482,-1.72361 -1.75233,-1.7236 -2.26941,-6.03262 l -0.68945,-13.61648 q -0.0574,-0.91926 0.60327,-1.66615 0.68944,-0.7469 1.86724,-0.7469 h 2.70031 q 1.12034,0 1.78106,0.7469 0.68944,0.74689 0.68944,1.66615 z M 487.6365,613.80439 q 0.0574,-1.60869 0.8618,-2.67158 0.83307,-1.09162 1.7236,-1.12035 h 13.27177 q 0.71817,0.0575 1.14907,0.63199 0.45963,0.54581 0.45963,1.26398 v 2.29814 q 0,0.71817 -0.45963,1.2927 -0.4309,0.54581 -1.14907,0.60326 h -8.21586 v 3.33231 h 6.5497 q 0.71817,0.0575 1.14908,0.63199 0.45962,0.54581 0.45962,1.26397 v 1.14907 q 0,0.71817 -0.45962,1.29271 -0.43091,0.54581 -1.14908,0.60326 h -6.5497 v 3.3323 h 8.21586 q 0.71817,0.0575 1.14907,0.63199 0.45963,0.54581 0.45963,1.26398 v 2.29814 q 0,0.71817 -0.45963,1.29271 -0.4309,0.5458 -1.14907,0.60326 H 490.2219 q -0.89053,-0.0287 -1.7236,-1.09162 -0.80435,-1.09162 -0.8618,-2.70031 z m -17.64525,19.99383 q -1.12035,0 -1.80979,-0.7469 -0.66071,-0.74689 -0.66071,-1.66615 v -18.95966 q 0,-0.91926 0.66071,-1.66615 0.68944,-0.7469 1.80979,-0.7469 h 2.24069 q 2.18323,0 2.98758,1.95342 l 2.12578,4.88355 v -4.42392 q 0,-0.91926 0.66071,-1.66615 0.68945,-0.7469 1.80979,-0.7469 h 2.70031 q 1.12035,0 1.86724,0.77562 0.60327,0.71817 0.60327,1.63743 v 18.95966 q 0,0.91926 -0.68945,1.66615 -0.66071,0.7469 -1.78106,0.7469 h -2.24068 q -2.18324,0 -2.98759,-1.95342 l -2.12578,-4.88355 v 4.42392 q 0,0.91926 -0.68944,1.66615 -0.66071,0.7469 -1.78106,0.7469 z" /></g><path
       id="path1354"
       style="color:#000000;fill:#1dc939;fill-opacity:1;stroke-width:0;-inkscape-stroke:none"
       d="m 174.21481,706.8986 c -1.62566,-0.0271 -3.30887,0.92574 -4.03435,3.15299 -0.79631,2.44479 -1.55677,4.89554 -2.1648,6.6353 -1.53927,4.74482 -2.97163,9.49651 -4.5706,14.21295 -7.93283,-2.84834 -17.76953,-1.39215 -23.25127,5.42679 -7.0081,7.94935 -6.37883,21.10217 1.33542,28.36103 8.12155,8.56901 23.45905,7.2662 30.4794,-2.07812 5.82523,-6.76928 8.32234,-15.8473 14.58541,-22.25415 5.82469,-4.7305 15.61963,-2.98525 18.94962,3.91346 4.00913,7.70483 -1.61667,17.75442 -10.45823,17.71715 -4.62578,0.18162 -6.03739,-2.03559 -9.41805,-3.19101 -4.0017,-1.25569 -7.98955,3.91361 -3.8794,7.44842 9.25551,6.96438 23.1565,5.13748 29.51302,-4.30214 6.2593,-8.38326 4.72215,-21.21323 -3.29331,-27.92147 -8.44929,-7.77782 -23.14642,-5.91723 -29.82511,3.30003 -5.65694,6.70915 -7.81161,15.94761 -14.3052,21.91137 -5.5264,5.07549 -15.61953,2.98483 -18.94968,-3.91409 -4.20135,-7.37381 1.79294,-17.45505 10.41574,-17.51745 3.82792,-0.0397 6.18483,1.53071 9.23353,2.5898 4.75701,1.29503 5.30575,-2.21866 6.41221,-5.4447 2.46428,-7.59074 4.44167,-14.99226 6.817,-22.56343 1.03828,-3.30917 -1.21535,-5.44293 -3.59135,-5.48273 z m 77.38116,0.0539 c -1.83096,0.0239 -3.70695,1.13597 -4.33293,3.47226 l -14.70395,54.33856 c -1.57994,5.80396 6.55411,8.14114 8.38572,2.26882 l 14.58874,-54.38112 c 0.99571,-3.71597 -1.42847,-5.73039 -3.93758,-5.69855 z m 114.0084,0.12918 c -1.93001,-0.017 -3.70011,1.32612 -4.32117,3.3526 l -6.34342,20.70228 c -7.20256,-3.35577 -16.37371,-2.5641 -22.4471,3.30059 -7.98516,6.74812 -9.44833,19.58869 -3.14625,27.93658 6.20521,9.53838 20.29803,10.23388 29.59189,4.06338 3.68074,-2.56564 1.62058,-8.7571 -3.4555,-7.39754 -3.35467,1.43698 -5.29635,3.30791 -10.0047,3.30621 -8.40915,-0.004 -14.21308,-9.51026 -10.69594,-16.91799 3.05586,-7.53042 12.17238,-9.357 18.76625,-5.55875 6.11832,3.66195 7.39378,9.40461 11.33624,16.94477 4.56389,8.72878 9.6307,13.67021 18.49779,13.74321 10.56043,0.12235 17.99682,-5.92517 19.19627,-16.7485 0.70088,-6.32437 0.33331,-12.72584 0.44011,-19.08839 0.0414,-2.67994 -1.78633,-4.86829 -4.09862,-4.90505 -2.31231,-0.0356 -4.05035,2.09028 -4.09193,4.77028 l -0.42223,15.80009 c -0.10374,1.44854 -0.18471,3.02553 -0.88636,5.36637 -2.94369,6.72883 -10.92591,8.42434 -16.7306,3.52153 -6.57979,-6.19033 -7.69349,-16.90632 -14.37459,-23.67074 l 6.77903,-23.02706 c 0.73594,-2.40183 -0.1895,-4.69135 -2.50702,-5.33899 -0.36213,-0.10138 -0.72467,-0.15133 -1.08215,-0.15439 z m -130.42611,22.12774 c -8.85288,0.0535 -13.29514,6.49629 -15.07083,12.98765 -1.99155,7.28055 -2.96282,15.45265 -8.70614,20.9752 -3.5752,4.083 2.21894,10.87173 7.62346,5.04544 7.61827,-7.61408 6.42446,-19.61604 11.31163,-27.24536 2.50894,-3.89935 7.25656,-1.82587 9.12388,-5.05881 1.75087,-3.44211 -0.60404,-6.64679 -3.857,-6.70132 -0.1428,-0.003 -0.28458,-0.004 -0.425,-0.003 z m 30.0625,0.33093 c -1.0487,0.004 -2.10643,0.0682 -3.16975,0.18166 -10.85803,1.0887 -18.72067,12.34155 -17.05383,22.9141 1.18479,10.39401 10.20915,18.15565 21.74414,17.69811 8.4028,-0.36047 15.07467,-6.46625 18.93788,-13.49548 3.70634,-5.4881 6.01391,-12.2499 11.27919,-16.51697 6.19138,-4.19171 15.61687,-1.73185 18.50226,5.29649 3.45611,7.43644 -2.23254,16.9442 -11.08844,16.74406 -4.31928,0.29071 -6.27545,-2.04577 -9.46002,-3.22793 -4.44959,-1.24584 -7.47391,4.05784 -3.80169,7.1498 7.83413,6.59626 23.07582,5.81991 29.55671,-3.52259 6.37053,-8.29568 5.01291,-21.14811 -2.91646,-27.96172 -8.34589,-7.91139 -23.06353,-6.21892 -29.86868,2.89852 -5.74147,6.63113 -8.34246,15.50955 -14.59603,21.71843 -6.02938,4.7802 -16.02767,2.632 -19.10347,-4.56782 -3.67785,-7.43868 1.95207,-16.87836 10.82961,-17.0203 5.27066,-0.14826 6.35776,1.83645 9.52263,3.18534 4.46191,1.44172 7.04669,-4.11304 3.50974,-7.23871 -3.90598,-3.13342 -8.27936,-4.25126 -12.82379,-4.23505 z"
       sodipodi:nodetypes="sccccccccccccccsccccsssccccsccccccccccscscccccccccccssccccssssccccccccsccccccccs" /><g
       aria-label="newsletter"
       id="g1358"
       style="font-size:29.4162px;font-family:'Motley Forces';-inkscape-font-specification:'Motley Forces';letter-spacing:0px;fill:url(#linearGradient1362);stroke-width:2.45135"
       transform="matrix(1.3301381,0,0,1.3301381,-484.11778,-25.298753)"><path
         id="path1356"
         style="font-family:'Rockin\' Record';-inkscape-font-specification:'Rockin\' Record';fill:url(#linearGradient1360)"
         d="m 650.21488,633.79822 q -1.17779,0 -1.86723,-0.7469 -0.66072,-0.74689 -0.66072,-1.66615 v -17.58078 q 0.0575,-1.60869 0.8618,-2.67158 0.83308,-1.09162 1.72361,-1.12035 h 7.52641 q 2.52795,0.14364 4.33774,2.0396 1.83851,1.86724 2.38432,3.90684 0.57454,2.01087 0.51708,4.22283 -0.0862,3.5334 -2.09705,5.17082 1.92469,2.32687 2.21196,6.03262 0.0575,0.91926 -0.63199,1.66615 -0.66071,0.7469 -1.78106,0.7469 h -2.70031 q -1.1778,0 -1.86724,-0.7469 -0.66072,-0.74689 -0.66072,-1.66615 -0.31599,-2.87268 -0.8618,-3.90684 l -1.32143,0.51708 v 3.38976 q 0.0575,0.91926 -0.63199,1.66615 -0.66072,0.7469 -1.78106,0.7469 z m 7.23915,-13.15686 v -1.14907 q -0.0575,-2.24069 -0.68944,-3.04503 -0.48836,-0.40218 -1.43634,-0.34473 v 6.14753 h 0.28727 q 1.78105,-0.54581 1.83851,-1.6087 z m -29.18638,-6.83697 q 0.0575,-1.60869 0.8618,-2.67158 0.83308,-1.09162 1.72361,-1.12035 h 13.27176 q 0.71817,0.0575 1.14907,0.63199 0.45963,0.54581 0.45963,1.26398 v 2.29814 q 0,0.71817 -0.45963,1.2927 -0.4309,0.54581 -1.14907,0.60326 h -8.21585 v 3.33231 h 6.5497 q 0.71817,0.0575 1.14907,0.63199 0.45963,0.54581 0.45963,1.26397 v 1.14907 q 0,0.71817 -0.45963,1.29271 -0.4309,0.54581 -1.14907,0.60326 h -6.5497 v 3.3323 h 8.21585 q 0.71817,0.0575 1.14907,0.63199 0.45963,0.54581 0.45963,1.26398 v 2.29814 q 0,0.71817 -0.45963,1.29271 -0.4309,0.5458 -1.14907,0.60326 h -13.27176 q -0.89053,-0.0287 -1.72361,-1.09162 -0.80435,-1.09162 -0.8618,-2.70031 z m -13.94913,17.63823 v -15.34009 h -3.27485 q -0.71817,-0.0575 -1.1778,-0.60326 -0.4309,-0.57453 -0.4309,-1.2927 v -2.29814 q 0,-0.71817 0.4309,-1.26398 0.45963,-0.57453 1.1778,-0.63199 h 14.24847 q 0.71817,0.0575 1.14907,0.63199 0.45963,0.54581 0.45963,1.26398 v 2.29814 q 0,0.71817 -0.45963,1.2927 -0.4309,0.54581 -1.14907,0.60326 h -3.27485 v 15.34009 q 0,0.86181 -0.68944,1.6087 -0.66071,0.7469 -1.78106,0.7469 h -2.75777 q -1.12034,0 -1.80978,-0.7469 -0.66072,-0.74689 -0.66072,-1.6087 z m -18.77521,0 v -15.34009 h -3.27485 q -0.71817,-0.0575 -1.17779,-0.60326 -0.4309,-0.57453 -0.4309,-1.2927 v -2.29814 q 0,-0.71817 0.4309,-1.26398 0.45962,-0.57453 1.17779,-0.63199 h 14.24848 q 0.71816,0.0575 1.14907,0.63199 0.45962,0.54581 0.45962,1.26398 v 2.29814 q 0,0.71817 -0.45962,1.2927 -0.43091,0.54581 -1.14907,0.60326 h -3.27485 v 15.34009 q 0,0.86181 -0.68945,1.6087 -0.66071,0.7469 -1.78106,0.7469 h -2.75776 q -1.12035,0 -1.80979,-0.7469 -0.66072,-0.74689 -0.66072,-1.6087 z m -23.71622,-17.63823 q 0.0575,-1.60869 0.8618,-2.67158 0.83308,-1.09162 1.72361,-1.12035 h 13.27176 q 0.71817,0.0575 1.14907,0.63199 0.45963,0.54581 0.45963,1.26398 v 2.29814 q 0,0.71817 -0.45963,1.2927 -0.4309,0.54581 -1.14907,0.60326 h -8.21585 v 3.33231 h 6.5497 q 0.71817,0.0575 1.14907,0.63199 0.45963,0.54581 0.45963,1.26397 v 1.14907 q 0,0.71817 -0.45963,1.29271 -0.4309,0.54581 -1.14907,0.60326 h -6.5497 v 3.3323 h 8.21585 q 0.71817,0.0575 1.14907,0.63199 0.45963,0.54581 0.45963,1.26398 v 2.29814 q 0,0.71817 -0.45963,1.29271 -0.4309,0.5458 -1.14907,0.60326 H 574.4125 q -0.89053,-0.0287 -1.72361,-1.09162 -0.80435,-1.09162 -0.8618,-2.70031 z m -17.39632,-1.43633 q 0,-0.86181 0.66071,-1.6087 0.68944,-0.7469 1.86724,-0.7469 h 2.70032 q 1.12034,0 1.78105,0.7469 0.68945,0.74689 0.63199,1.6087 v 15.34008 h 6.72206 q 0.71817,0.0575 1.14908,0.63199 0.45962,0.54581 0.45962,1.26398 v 2.29814 q 0,0.71817 -0.45962,1.29271 -0.43091,0.5458 -1.14908,0.60326 H 557.4758 q -1.35016,-0.0287 -2.18323,-1.12035 -0.83308,-1.09161 -0.8618,-3.07376 z m -13.15686,21.43016 q -1.78106,-0.0862 -3.10249,-0.68944 -1.32143,-0.60327 -2.06833,-1.69488 -0.71817,-1.12035 -0.8618,-3.07377 v -1.95342 q 0.17236,-1.60869 1.6087,-1.7236 h 4.36647 q 1.43633,0.11491 1.60869,1.7236 0,0.77563 0.40218,1.14907 0.4309,0.37345 0.83307,0 0.40218,-0.57453 0.43091,-1.66615 -0.0287,-0.57453 -0.45963,-0.97671 -0.4309,-0.4309 -3.2174,-1.17779 -2.78649,-0.77563 -4.0792,-1.9247 -1.2927,-1.14907 -1.40761,-3.44721 -0.0287,-1.55124 0.71817,-3.59084 0.74689,-2.0396 2.38432,-3.36103 1.66615,-1.35016 3.67702,-1.37889 h 4.30902 q 1.80978,0.0862 3.13122,0.68944 1.32143,0.60327 2.0396,1.72361 0.74689,1.09162 0.89052,3.04504 v 1.95342 q -0.17236,1.60869 -1.60869,1.7236 H 546.416 q -1.46507,-0.11491 -1.6087,-1.7236 0,-0.94799 -0.34472,-1.14907 -0.45963,-0.37345 -0.8618,0 -0.34472,0.57453 -0.37345,1.66615 0.0287,0.57453 0.45963,1.00543 0.4309,0.40218 3.21739,1.1778 2.7865,0.7469 4.0792,1.89597 1.29271,1.14907 1.43634,3.44721 0,1.55124 -0.74689,3.59084 -0.7469,2.0396 -2.41305,3.38976 -1.63743,1.32143 -3.61957,1.35016 z m -26.58889,-8.79039 q 0.0862,1.14907 0.14363,1.83851 0.0575,0.66072 0.316,0.8618 h 0.28726 q 0.22982,-0.20108 0.28727,-0.8618 0.0862,-0.68944 0.17236,-1.83851 l 0.51708,-12.58232 q -0.0575,-0.91926 0.60326,-1.66615 0.68945,-0.7469 1.86724,-0.7469 h 2.58541 q 1.1778,0 1.83851,0.7469 0.68945,0.74689 0.63199,1.66615 l 0.51708,12.58232 q 0.0862,1.14907 0.14364,1.83851 0.0862,0.66072 0.31599,0.8618 h 0.28727 q 0.25854,-0.20108 0.31599,-0.8618 0.0575,-0.68944 0.14364,-1.83851 l 0.57453,-12.58232 q 0,-0.91926 0.66072,-1.66615 0.68944,-0.7469 1.80978,-0.7469 h 2.70032 q 1.1778,0 1.83851,0.7469 0.68945,0.74689 0.63199,1.66615 l -0.68944,13.61648 q -0.51708,4.30902 -2.26941,6.03262 -1.75234,1.72361 -4.85483,1.72361 h -1.49379 q -2.9014,-0.0862 -4.39519,-2.58541 -1.49379,2.49923 -4.3952,2.58541 h -1.49379 q -3.10249,0 -4.85482,-1.72361 -1.75233,-1.7236 -2.26941,-6.03262 l -0.68945,-13.61648 q -0.0574,-0.91926 0.60327,-1.66615 0.68944,-0.7469 1.86724,-0.7469 h 2.70031 q 1.12034,0 1.78106,0.7469 0.68944,0.74689 0.68944,1.66615 z M 487.6365,613.80439 q 0.0574,-1.60869 0.8618,-2.67158 0.83307,-1.09162 1.7236,-1.12035 h 13.27177 q 0.71817,0.0575 1.14907,0.63199 0.45963,0.54581 0.45963,1.26398 v 2.29814 q 0,0.71817 -0.45963,1.2927 -0.4309,0.54581 -1.14907,0.60326 h -8.21586 v 3.33231 h 6.5497 q 0.71817,0.0575 1.14908,0.63199 0.45962,0.54581 0.45962,1.26397 v 1.14907 q 0,0.71817 -0.45962,1.29271 -0.43091,0.54581 -1.14908,0.60326 h -6.5497 v 3.3323 h 8.21586 q 0.71817,0.0575 1.14907,0.63199 0.45963,0.54581 0.45963,1.26398 v 2.29814 q 0,0.71817 -0.45963,1.29271 -0.4309,0.5458 -1.14907,0.60326 H 490.2219 q -0.89053,-0.0287 -1.7236,-1.09162 -0.80435,-1.09162 -0.8618,-2.70031 z m -17.64525,19.99383 q -1.12035,0 -1.80979,-0.7469 -0.66071,-0.74689 -0.66071,-1.66615 v -18.95966 q 0,-0.91926 0.66071,-1.66615 0.68944,-0.7469 1.80979,-0.7469 h 2.24069 q 2.18323,0 2.98758,1.95342 l 2.12578,4.88355 v -4.42392 q 0,-0.91926 0.66071,-1.66615 0.68945,-0.7469 1.80979,-0.7469 h 2.70031 q 1.12035,0 1.86724,0.77562 0.60327,0.71817 0.60327,1.63743 v 18.95966 q 0,0.91926 -0.68945,1.66615 -0.66071,0.7469 -1.78106,0.7469 h -2.24068 q -2.18324,0 -2.98759,-1.95342 l -2.12578,-4.88355 v 4.42392 q 0,0.91926 -0.68944,1.66615 -0.66071,0.7469 -1.78106,0.7469 z" /></g><text
       xml:space="preserve"
       style="font-size:3.175px;font-family:Rubik;-inkscape-font-specification:'Rubik Bold';fill:#14141f;fill-opacity:1;stroke-width:0.264583;font-weight:bold;font-style:normal;font-stretch:normal;font-variant:normal"
       x="420.95407"
       y="1114.0525"
       id="text1434"><tspan
         sodipodi:role="line"
         id="tspan1432"
         style="stroke-width:0.264583;-inkscape-font-specification:'Rubik Bold';font-family:Rubik;font-weight:bold;font-style:normal;font-stretch:normal;font-variant:normal"
         x="420.95407"
         y="1114.0525" /></text></g><style
     type="text/css"
     id="style1941">
	.st0{fill:none;stroke:#000000;stroke-width:2;stroke-linecap:round;stroke-linejoin:round;stroke-miterlimit:10;}
</style></svg>
