<svg height="511pt" viewBox="0 0 511 511.99987" width="511pt" xmlns="http://www.w3.org/2000/svg"><path d="m512.253906 432.316406c-.996094-6.320312-4.957031-11.78125-10.652344-14.691406-27.6875-14.15625-48.257812-33.066406-62.886718-57.804688-3.296875-5.574218-9.085938-9.207031-15.539063-9.75-6.453125-.539062-12.765625 2.070313-16.949219 7.015626-39.722656 46.972656-97.578124 73.914062-158.726562 73.914062-114.140625 0-207-92.859375-207-207 0-73.117188 37.730469-138.984375 99.71875-176.304688 14.21875 29.433594 44.292969 86.011719 85.671875 133.664063-35.574219 25.875-54.128906 29.640625-61.886719 29.640625-3.75 0-8.421875 0-8.503906-7.691406.003906.261718-.007812.40625-.007812.40625h-.027344c.007812-.242188.035156-.472656.035156-.714844 0-11.046875-8.953125-20-20-20-10.804688 0-19.585938 8.574219-19.964844 19.285156h-.019531c-.003906.1875-.011719.429688-.015625.699219v.015625.007812c-.054688 4.707032.703125 21.253907 13.179688 34.183594 6.078124 6.300782 17.140624 13.808594 35.324218 13.808594 36.773438 0 87.503906-31.769531 155.085938-97.121094 31.117187-30.089844 58-59.855468 73.308594-77.367187 39.6875 38.945312 62.101562 91.699219 62.101562 147.488281 0 18.578125-2.460938 36.988281-7.308594 54.726562-2.914062 10.652344 3.363282 21.652344 14.019532 24.5625 1.765624.484376 3.539062.714844 5.285156.714844 8.789062 0 16.851562-5.84375 19.28125-14.730468 5.785156-21.171876 8.71875-43.132813 8.71875-65.273438 0-74.347656-33.296875-144.144531-91.355469-191.5-8.503906-6.933594-21.011719-5.71875-28.023437 2.71875-.375.453125-38.042969 45.65625-84.066407 90.132812-12.320312 11.90625-23.582031 22.171876-33.871093 31.027344-53.953126-61.640625-88.890626-143.296875-89.257813-144.164062-2.128906-5.035156-6.226563-8.980469-11.339844-10.917969s-10.796875-1.695313-15.726562.667969c-41.441407 19.867187-76.460938 50.65625-101.269531 89.042968-25.570313 39.570313-39.085938 85.558594-39.085938 132.992188 0 65.976562 25.691406 128.003906 72.34375 174.65625 46.652344 46.648438 108.679688 72.34375 174.65625 72.34375 37.546875 0 74.050781-8.507812 107.089844-24.402344 17.582031 25.332032 41.617187 46.433594 71.726562 62.9375 3.023438 1.65625 6.328125 2.464844 9.609375 2.464844 5.179688 0 10.300781-2.011719 14.144531-5.859375l56.570313-56.566406c4.523437-4.523438 6.609375-10.941407 5.613281-17.257813zm-79.480468 34.554688c-17.867188-11.511719-32.289063-24.925782-43.566407-40.53125 10.546875-7.378906 20.5625-15.605469 29.949219-24.640625 11.542969 14.390625 25.246094 27.015625 41.007812 37.78125zm0 0"/></svg>