<?xml version="1.0" encoding="UTF-8" standalone="no"?>
<svg
   xmlns:dc="http://purl.org/dc/elements/1.1/"
   xmlns:cc="http://creativecommons.org/ns#"
   xmlns:rdf="http://www.w3.org/1999/02/22-rdf-syntax-ns#"
   xmlns:svg="http://www.w3.org/2000/svg"
   xmlns="http://www.w3.org/2000/svg"
   xmlns:sodipodi="http://sodipodi.sourceforge.net/DTD/sodipodi-0.dtd"
   xmlns:inkscape="http://www.inkscape.org/namespaces/inkscape"
   id="Capa_1"
   enable-background="new 0 0 512 512"
   height="512"
   viewBox="0 0 512 512"
   width="512"
   version="1.1"
   sodipodi:docname="luckt-icon.svg"
   inkscape:version="1.0.1 (1.0.1+r74)">
  <metadata
     id="metadata911">
    <rdf:RDF>
      <cc:Work
         rdf:about="">
        <dc:format>image/svg+xml</dc:format>
        <dc:type
           rdf:resource="http://purl.org/dc/dcmitype/StillImage" />
        <dc:title></dc:title>
      </cc:Work>
    </rdf:RDF>
  </metadata>
  <defs
     id="defs909" />
  <sodipodi:namedview
     pagecolor="#ffffff"
     bordercolor="#666666"
     borderopacity="1"
     objecttolerance="10"
     gridtolerance="10"
     guidetolerance="10"
     inkscape:pageopacity="0"
     inkscape:pageshadow="2"
     inkscape:window-width="1920"
     inkscape:window-height="1007"
     id="namedview907"
     showgrid="false"
     inkscape:zoom="0.79785156"
     inkscape:cx="129.0284"
     inkscape:cy="350.64338"
     inkscape:window-x="0"
     inkscape:window-y="0"
     inkscape:window-maximized="1"
     inkscape:current-layer="g904"
     inkscape:document-rotation="0" />
  <g
     id="g904">
    <path
       d="m256 0c-141.576 0-256 114.39-256 256 0 141.58 114.393 256 256 256 141.575 0 256-114.388 256-256 0-141.58-114.393-256-256-256zm169.981 404.767-21.255-21.255c26.396-30.744 43.452-69.728 46.705-112.512h30.059c-3.362 51.045-23.739 97.511-55.509 133.767zm-395.471-133.767h30.059c3.253 42.785 20.309 81.769 46.706 112.513l-21.255 21.254c-31.771-36.256-52.148-82.722-55.51-133.767zm55.51-163.767 21.255 21.255c-26.397 30.743-43.453 69.727-46.706 112.512h-30.059c3.362-51.045 23.739-97.512 55.51-133.767zm169.98 314.767c-91.595 0-166-74.539-166-166 0-91.597 74.541-166 166-166 91.592 0 166 74.534 166 166 0 91.592-74.535 166-166 166zm127.513-314.725c-30.744-26.397-69.728-43.453-112.513-46.706v-30.059c51.045 3.362 97.512 23.739 133.768 55.51zm-142.513-46.706c-42.785 3.253-81.769 20.309-112.512 46.706l-21.255-21.255c36.256-31.771 82.722-52.148 133.767-55.51zm-112.512 344.157c30.744 26.396 69.728 43.452 112.512 46.705v30.059c-51.045-3.362-97.511-23.739-133.767-55.51zm142.512 46.705c42.785-3.253 81.769-20.309 112.513-46.706l21.255 21.255c-36.256 31.771-82.723 52.148-133.768 55.51zm180.431-210.431c-3.253-42.785-20.309-81.769-46.705-112.512l21.255-21.255c31.771 36.256 52.147 82.723 55.509 133.767z"
       id="path900"
       style="fill:#73dc73;fill-opacity:1" />
    <path
       d="m391 226c0-24.813-20.187-45-45-45-5.683 0-12.025 1.353-19.074 4.074 2.721-7.049 4.074-13.391 4.074-19.074 0-24.813-20.187-45-45-45-10.324 0-21.063 3.55-30 9.575-8.938-6.025-19.676-9.575-30-9.575-24.813 0-45 20.187-45 45 0 5.683 1.353 12.025 4.074 19.074-7.049-2.721-13.392-4.074-19.074-4.074-24.813 0-45 20.187-45 45 0 10.324 3.55 21.063 9.575 30-6.025 8.938-9.575 19.676-9.575 30 0 24.813 20.187 45 45 45 5.682 0 12.025-1.353 19.074-4.074-2.721 7.049-4.074 13.391-4.074 19.074 0 24.813 20.187 45 45 45 10.324 0 21.063-3.55 30-9.575 8.938 6.025 19.676 9.575 30 9.575 24.813 0 45-20.187 45-45 0-5.683-1.353-12.025-4.074-19.074 7.049 2.721 13.391 4.074 19.074 4.074 24.813 0 45-20.187 45-45 0-10.324-3.55-21.062-9.575-30 6.025-8.937 9.575-19.676 9.575-30zm-165-75c6.402 0 14.104 3.797 18.315 9.028 5.996 7.45 17.366 7.46 23.37 0 4.211-5.231 11.913-9.028 18.315-9.028 8.271 0 15 6.729 15 15 0 12.73-21.764 43.033-45.004 68.317-23.237-25.265-44.996-55.561-44.996-68.317 0-8.271 6.729-15 15-15zm-75 135c0-6.402 3.797-14.104 9.028-18.315 7.45-5.996 7.461-17.366 0-23.371-5.231-4.21-9.028-11.912-9.028-18.314 0-8.271 6.729-15 15-15 12.73 0 43.033 21.764 68.317 45.004-25.265 23.237-55.561 44.996-68.317 44.996-8.271 0-15-6.729-15-15zm135 75c-6.402 0-14.104-3.797-18.315-9.028-5.996-7.451-17.366-7.46-23.37 0-4.211 5.231-11.913 9.028-18.315 9.028-8.271 0-15-6.729-15-15 0-12.73 21.764-43.033 45.004-68.317 23.237 25.265 44.996 55.561 44.996 68.317 0 8.271-6.729 15-15 15zm65.972-93.315c5.231 4.211 9.028 11.913 9.028 18.315 0 8.271-6.729 15-15 15-12.73 0-43.033-21.764-68.317-45.004 25.265-23.237 55.56-44.996 68.317-44.996 8.271 0 15 6.729 15 15 0 6.402-3.797 14.104-9.027 18.314-7.451 5.996-7.462 17.367-.001 23.371z"
       id="path902"
       style="fill:#73dc73;fill-opacity:1" />
  </g>
</svg>
