<?xml version="1.0" encoding="UTF-8" standalone="no"?>
<svg
   width="1000"
   height="250"
   version="1.1"
   viewBox="0 0 750.00001 187.5"
   id="svg143"
   sodipodi:docname="dorukeray.svg"
   inkscape:version="1.1.2 (0a00cf5339, 2022-02-04)"
   inkscape:export-filename="/home/doruk/Documents/artwork/Doruk Eray/dorukeray-S.png"
   inkscape:export-xdpi="48"
   inkscape:export-ydpi="48"
   xmlns:inkscape="http://www.inkscape.org/namespaces/inkscape"
   xmlns:sodipodi="http://sodipodi.sourceforge.net/DTD/sodipodi-0.dtd"
   xmlns:xlink="http://www.w3.org/1999/xlink"
   xmlns="http://www.w3.org/2000/svg"
   xmlns:svg="http://www.w3.org/2000/svg">
  <sodipodi:namedview
     id="namedview145"
     pagecolor="#ffffff"
     bordercolor="#666666"
     borderopacity="1.0"
     inkscape:pageshadow="2"
     inkscape:pageopacity="0"
     inkscape:pagecheckerboard="true"
     inkscape:document-units="pt"
     showgrid="false"
     inkscape:lockguides="true"
     units="px"
     width="900px"
     inkscape:zoom="0.70710678"
     inkscape:cx="452.54834"
     inkscape:cy="24.748737"
     inkscape:window-width="1920"
     inkscape:window-height="968"
     inkscape:window-x="0"
     inkscape:window-y="0"
     inkscape:window-maximized="1"
     inkscape:current-layer="g116124"
     showguides="false"
     inkscape:guide-bbox="true">
    <sodipodi:guide
       position="-48.739386,93.497182"
       orientation="0,-1"
       id="guide147238"
       inkscape:locked="true" />
    <sodipodi:guide
       position="89.270911,90.623034"
       orientation="0,-1"
       id="guide1608" />
  </sodipodi:namedview>
  <defs
     id="defs65">
    <linearGradient
       inkscape:collect="always"
       id="linearGradient118577">
      <stop
         style="stop-color:#23c823;stop-opacity:1"
         offset="0"
         id="stop118573" />
      <stop
         style="stop-color:#e8c47d;stop-opacity:1"
         offset="1"
         id="stop118575" />
    </linearGradient>
    <linearGradient
       id="linearGradient118544"
       inkscape:swatch="solid">
      <stop
         style="stop-color:#262a2b;stop-opacity:1;"
         offset="0"
         id="stop118542" />
    </linearGradient>
    <symbol
       id="u"
       overflow="visible">
      <path
         d="m 18.766,-1.125 c -0.96875,0.5 -1.9805,0.875 -3.0312,1.125 -1.043,0.25781 -2.1367,0.39062 -3.2812,0.39062 -3.3984,0 -6.0898,-0.94531 -8.0781,-2.8438 -1.9922,-1.9062 -2.9844,-4.4844 -2.9844,-7.7344 0,-3.2578 0.99219,-5.8359 2.9844,-7.7344 1.9883,-1.9062 4.6797,-2.8594 8.0781,-2.8594 1.1445,0 2.2383,0.13281 3.2812,0.39062 1.0508,0.25 2.0625,0.625 3.0312,1.125 v 4.2188 c -0.98047,-0.65625 -1.9453,-1.1406 -2.8906,-1.4531 -0.94922,-0.3125 -1.9492,-0.46875 -3,-0.46875 -1.875,0 -3.3516,0.60547 -4.4219,1.8125 -1.0742,1.1992 -1.6094,2.8555 -1.6094,4.9688 0,2.1055 0.53516,3.7617 1.6094,4.9688 1.0703,1.1992 2.5469,1.7969 4.4219,1.7969 1.0508,0 2.0508,-0.14844 3,-0.45312 0.94531,-0.3125 1.9102,-0.80078 2.8906,-1.4688 z"
         id="path2" />
    </symbol>
    <symbol
       id="d"
       overflow="visible">
      <path
         d="m 13.734,-11.141 c -0.4375,-0.19531 -0.87109,-0.34375 -1.2969,-0.4375 -0.41797,-0.10156 -0.83984,-0.15625 -1.2656,-0.15625 -1.2617,0 -2.2305,0.40625 -2.9062,1.2188 -0.67969,0.80469 -1.0156,1.9531 -1.0156,3.4531 v 7.0625 H 2.3591 v -15.312 h 4.8906 v 2.5156 c 0.625,-1 1.3438,-1.7266 2.1562,-2.1875 0.82031,-0.46875 1.8008,-0.70312 2.9375,-0.70312 0.16406,0 0.34375,0.01172 0.53125,0.03125 0.19531,0.01172 0.47656,0.03906 0.84375,0.07813 z"
         id="path5" />
    </symbol>
    <symbol
       id="b"
       overflow="visible">
      <path
         d="m 17.641,-7.7031 v 1.4062 H 6.188 c 0.125,1.1484 0.53906,2.0078 1.25,2.5781 0.70703,0.57422 1.7031,0.85938 2.9844,0.85938 1.0312,0 2.082,-0.14844 3.1562,-0.45312 1.082,-0.3125 2.1914,-0.77344 3.3281,-1.3906 v 3.7656 c -1.1562,0.4375 -2.3125,0.76562 -3.4688,0.98438 -1.1562,0.22656 -2.3125,0.34375 -3.4688,0.34375 -2.7734,0 -4.9297,-0.70312 -6.4688,-2.1094 -1.5312,-1.4062 -2.2969,-3.3789 -2.2969,-5.9219 0,-2.5 0.75391,-4.4609 2.2656,-5.8906 1.5078,-1.4375 3.582,-2.1562 6.2188,-2.1562 2.4062,0 4.332,0.73047 5.7812,2.1875 1.4453,1.4492 2.1719,3.3828 2.1719,5.7969 z m -5.0312,-1.625 c 0,-0.92578 -0.27344,-1.6719 -0.8125,-2.2344 -0.54297,-0.57031 -1.25,-0.85938 -2.125,-0.85938 -0.94922,0 -1.7188,0.26562 -2.3125,0.79688 -0.5937,0.53126 -0.96484,1.2969 -1.1094,2.2969 z"
         id="path8" />
    </symbol>
    <symbol
       id="a"
       overflow="visible">
      <path
         d="m 9.2188,-6.8906 c -1.0234,0 -1.793,0.17188 -2.3125,0.51562 -0.51172,0.34375 -0.76562,0.85547 -0.76562,1.5312 0,0.625 0.20703,1.1172 0.625,1.4688 0.41406,0.34375 0.98828,0.51562 1.7188,0.51562 0.92578,0 1.7031,-0.32812 2.3281,-0.98438 0.63281,-0.66406 0.95312,-1.4922 0.95312,-2.4844 v -0.5625 z m 7.4688,-1.8438 V 0 h -4.9219 v -2.2656 c -0.65625,0.92969 -1.3984,1.6055 -2.2188,2.0312 -0.82422,0.41406 -1.8242,0.625 -3,0.625 -1.5859,0 -2.8711,-0.45703 -3.8594,-1.375 -0.99219,-0.92578 -1.4844,-2.1289 -1.4844,-3.6094 0,-1.7891 0.61328,-3.1016 1.8438,-3.9375 1.2383,-0.84375 3.1797,-1.2656 5.8281,-1.2656 h 2.8906 v -0.39062 c 0,-0.76953 -0.30859,-1.332 -0.92188,-1.6875 -0.61719,-0.36328 -1.5703,-0.54688 -2.8594,-0.54688 -1.0547,0 -2.0312,0.10547 -2.9375,0.3125 -0.89844,0.21094 -1.7305,0.52344 -2.5,0.9375 v -3.7344 c 1.0391,-0.25 2.0859,-0.44141 3.1406,-0.57812 1.0625,-0.13281 2.125,-0.20312 3.1875,-0.20312 2.7578,0 4.75,0.54688 5.9688,1.6406 1.2266,1.0859 1.8438,2.8555 1.8438,5.3125 z"
         id="path11" />
    </symbol>
    <symbol
       id="c"
       overflow="visible">
      <path
         d="m 7.7031,-19.656 v 4.3438 H 12.75 v 3.5 H 7.7031 v 6.5 c 0,0.71094 0.14062,1.1875 0.42188,1.4375 0.28126,0.25 0.83594,0.375 1.6719,0.375 h 2.5156 v 3.5 h -4.1875 c -1.9375,0 -3.3125,-0.39844 -4.125,-1.2031 -0.80469,-0.8125 -1.2031,-2.1797 -1.2031,-4.1094 v -6.5 h -2.4219 v -3.5 h 2.4219 v -4.3438 z"
         id="path14" />
    </symbol>
    <symbol
       id="j"
       overflow="visible">
      <path
         d="m 12.766,-13.078 v -8.2031 h 4.9219 V -1e-4 H 12.766 v -2.2188 c -0.66797,0.90625 -1.4062,1.5703 -2.2188,1.9844 -0.8126,0.4141 -1.7578,0.625 -2.8281,0.625 -1.8867,0 -3.4336,-0.75 -4.6406,-2.25 -1.2109,-1.5 -1.8125,-3.4258 -1.8125,-5.7812 0,-2.3633 0.60156,-4.2969 1.8125,-5.7969 1.207,-1.5 2.7539,-2.25 4.6406,-2.25 1.0625,0 2,0.21484 2.8125,0.64062 0.82031,0.42969 1.5664,1.0859 2.2344,1.9688 z m -3.2188,9.9219 c 1.0391,0 1.8359,-0.37891 2.3906,-1.1406 0.55078,-0.76953 0.82812,-1.8828 0.82812,-3.3438 0,-1.457 -0.27734,-2.5664 -0.82812,-3.3281 -0.55469,-0.76953 -1.3516,-1.1562 -2.3906,-1.1562 -1.043,0 -1.8398,0.38672 -2.3906,1.1562 -0.55469,0.76172 -0.82812,1.8711 -0.82812,3.3281 0,1.4609 0.27344,2.5742 0.82812,3.3438 0.55078,0.76172 1.3477,1.1406 2.3906,1.1406 z"
         id="path17" />
    </symbol>
    <symbol
       id="i"
       overflow="visible">
      <path
         d="m 10.5,-3.1562 c 1.0508,0 1.8516,-0.37891 2.4062,-1.1406 0.55078,-0.76953 0.82812,-1.8828 0.82812,-3.3438 0,-1.457 -0.27734,-2.5664 -0.82812,-3.3281 -0.55469,-0.76953 -1.3555,-1.1562 -2.4062,-1.1562 -1.0547,0 -1.8594,0.38672 -2.4219,1.1562 -0.55469,0.77344 -0.82812,1.8828 -0.82812,3.3281 0,1.4492 0.27344,2.5586 0.82812,3.3281 0.5625,0.77344 1.3672,1.1562 2.4219,1.1562 z m -3.25,-9.9219 c 0.67578,-0.88281 1.4219,-1.5391 2.2344,-1.9688 0.82031,-0.42578 1.7656,-0.64062 2.8281,-0.64062 1.8945,0 3.4453,0.75 4.6562,2.25 1.207,1.5 1.8125,3.4336 1.8125,5.7969 0,2.3555 -0.60547,4.2812 -1.8125,5.7812 -1.2109,1.5 -2.7617,2.25 -4.6562,2.25 -1.0625,0 -2.0078,-0.21094 -2.8281,-0.625 C 8.6719,-0.6602 7.9258,-1.32032 7.25,-2.21882 V -2e-5 H 2.3594 v -21.281 H 7.25 Z"
         id="path20" />
    </symbol>
    <symbol
       id="h"
       overflow="visible">
      <path
         d="m 0.34375,-15.312 h 4.8906 l 4.125,10.391 3.5,-10.391 h 4.8906 l -6.4375,16.766 c -0.64844,1.6953 -1.4023,2.8828 -2.2656,3.5625 -0.86719,0.6875 -2,1.0312 -3.4062,1.0312 H 2.79685 V 2.8289 h 1.5312 c 0.83203,0 1.4375,-0.13672 1.8125,-0.40625 C 6.52336,2.16093 6.82024,1.69218 7.03117,1.01645 L 7.17179,0.59457 Z"
         id="path23" />
    </symbol>
    <symbol
       id="g"
       overflow="visible">
      <path
         d="M 14.953,-3.7188 H 6.7342 L 5.4217,0 H 0.1405 L 7.703,-20.406 h 6.2656 L 21.5311,0 H 16.2499 Z M 8.0468,-7.5 h 5.5781 l -2.7812,-8.125 z"
         id="path26" />
    </symbol>
    <symbol
       id="t"
       overflow="visible">
      <path
         d="m 0.42188,-15.312 h 4.8906 l 3.8281,10.578 3.7969,-10.578 h 4.9062 L 11.81248,0 h -5.375 z"
         id="path29" />
    </symbol>
    <symbol
       id="f"
       overflow="visible">
      <path
         d="M 17.75,-9.3281 V 0 h -4.9219 v -7.1406 c 0,-1.3203 -0.03125,-2.2344 -0.09375,-2.7344 -0.0625,-0.5 -0.16797,-0.86719 -0.3125,-1.1094 -0.1875,-0.3125 -0.44922,-0.55469 -0.78125,-0.73438 -0.32422,-0.17578 -0.69531,-0.26562 -1.1094,-0.26562 -1.0234,0 -1.8242,0.39844 -2.4062,1.1875 -0.58594,0.78125 -0.875,1.8711 -0.875,3.2656 V -1e-4 H 2.3594 v -15.312 H 7.25 v 2.2344 c 0.73828,-0.88281 1.5195,-1.5391 2.3438,-1.9688 0.83203,-0.42578 1.75,-0.64062 2.75,-0.64062 1.7695,0 3.1133,0.54688 4.0312,1.6406 0.91406,1.0859 1.375,2.6562 1.375,4.7188 z"
         id="path32" />
    </symbol>
    <symbol
       id="s"
       overflow="visible">
      <path
         d="m 0.14062,-20.406 h 5.2812 l 5.4219,15.062 5.4062,-15.062 h 5.2812 L 13.96862,0 h -6.2656 z"
         id="path35" />
    </symbol>
    <symbol
       id="r"
       overflow="visible">
      <path
         d="m 12.422,-21.281 v 3.2188 H 9.7189 c -0.6875,0 -1.1719,0.125 -1.4531,0.375 -0.27344,0.25 -0.40625,0.6875 -0.40625,1.3125 v 1.0625 h 4.1875 v 3.5 H 7.85955 V -2e-4 h -4.8906 v -11.812 h -2.4375 v -3.5 h 2.4375 v -1.0625 c 0,-1.6641 0.46094,-2.8984 1.3906,-3.7031 0.92578,-0.80078 2.3672,-1.2031 4.3281,-1.2031 z"
         id="path38" />
    </symbol>
    <symbol
       id="e"
       overflow="visible">
      <path
         d="m 9.6406,-12.188 c -1.0859,0 -1.9141,0.39062 -2.4844,1.1719 -0.57422,0.78125 -0.85938,1.9062 -0.85938,3.375 0,1.4688 0.28516,2.5938 0.85938,3.375 0.57031,0.77344 1.3984,1.1562 2.4844,1.1562 1.0625,0 1.875,-0.38281 2.4375,-1.1562 0.57031,-0.78125 0.85938,-1.9062 0.85938,-3.375 0,-1.4688 -0.28906,-2.5938 -0.85938,-3.375 -0.5625,-0.78125 -1.375,-1.1719 -2.4375,-1.1719 z m 0,-3.5 c 2.6328,0 4.6914,0.71484 6.1719,2.1406 1.4766,1.418 2.2188,3.3867 2.2188,5.9062 0,2.5117 -0.74219,4.4805 -2.2188,5.9062 C 14.332,-0.317 12.2734,0.39 9.6406,0.39 6.9922,0.39 4.9258,-0.31703 3.4375,-1.735 1.9453,-3.1608 1.2031,-5.1295 1.2031,-7.6412 c 0,-2.5195 0.74219,-4.4883 2.2344,-5.9062 1.4883,-1.4258 3.5547,-2.1406 6.2031,-2.1406 z"
         id="path41" />
    </symbol>
    <symbol
       id="q"
       overflow="visible">
      <path
         d="m 16.547,-12.766 c 0.61328,-0.94531 1.3477,-1.6719 2.2031,-2.1719 0.85156,-0.5 1.7891,-0.75 2.8125,-0.75 1.7578,0 3.0977,0.54688 4.0156,1.6406 0.92578,1.0859 1.3906,2.6562 1.3906,4.7188 V -4e-4 h -4.9219 v -7.9844 -0.35938 c 0.0078,-0.13281 0.01563,-0.32031 0.01563,-0.5625 0,-1.082 -0.16406,-1.8633 -0.48438,-2.3438 -0.3125,-0.48828 -0.82422,-0.73438 -1.5312,-0.73438 -0.92969,0 -1.6484,0.38672 -2.1562,1.1562 -0.51172,0.76172 -0.77344,1.8672 -0.78125,3.3125 v 7.5156 h -4.9219 v -7.9844 c 0,-1.6953 -0.14844,-2.7852 -0.4375,-3.2656 -0.29297,-0.48828 -0.8125,-0.73438 -1.5625,-0.73438 -0.9375,0 -1.6641,0.38672 -2.1719,1.1562 -0.51172,0.76172 -0.76562,1.8594 -0.76562,3.2969 v 7.5312 h -4.9219 v -15.312 h 4.9219 v 2.2344 c 0.60156,-0.86328 1.2891,-1.5156 2.0625,-1.9531 0.78125,-0.4375 1.6406,-0.65625 2.5781,-0.65625 1.0625,0 2,0.25781 2.8125,0.76562 0.8125,0.51172 1.4258,1.2305 1.8438,2.1562 z"
         id="path44" />
    </symbol>
    <symbol
       id="p"
       overflow="visible">
      <path
         d="M 17.75,-9.3281 V 0 h -4.9219 v -7.1094 c 0,-1.3438 -0.03125,-2.2656 -0.09375,-2.7656 -0.0625,-0.5 -0.16797,-0.86719 -0.3125,-1.1094 -0.1875,-0.3125 -0.44922,-0.55469 -0.78125,-0.73438 -0.32422,-0.17578 -0.69531,-0.26562 -1.1094,-0.26562 -1.0234,0 -1.8242,0.39844 -2.4062,1.1875 -0.58594,0.78125 -0.875,1.8711 -0.875,3.2656 V -1e-4 H 2.3594 v -21.281 H 7.25 v 8.2031 c 0.73828,-0.88281 1.5195,-1.5391 2.3438,-1.9688 0.83203,-0.42578 1.75,-0.64062 2.75,-0.64062 1.7695,0 3.1133,0.54688 4.0312,1.6406 0.91406,1.0859 1.375,2.6562 1.375,4.7188 z"
         id="path47" />
    </symbol>
    <symbol
       id="o"
       overflow="visible">
      <path
         d="m 2.5781,-20.406 h 5.875 l 7.4219,14 v -14 h 4.9844 V 0 h -5.875 L 7.5625,-14 V 0 H 2.5781 Z"
         id="path50" />
    </symbol>
    <symbol
       id="n"
       overflow="visible">
      <path
         d="m 2.1875,-5.9688 v -9.3438 h 4.9219 v 1.5312 c 0,0.83594 -0.00781,1.875 -0.015625,3.125 -0.011719,1.25 -0.015625,2.0859 -0.015625,2.5 0,1.2422 0.03125,2.1328 0.09375,2.6719 0.070313,0.54297 0.17969,0.93359 0.32812,1.1719 0.20703,0.32422 0.47266,0.57422 0.79688,0.75 0.32031,0.16797 0.69141,0.25 1.1094,0.25 1.0195,0 1.8203,-0.39062 2.4062,-1.1719 0.58203,-0.78125 0.875,-1.8672 0.875,-3.2656 v -7.5625 h 4.8906 V -6e-4 H 12.6875 V -2.2194 C 11.94531,-1.32096 11.1641,-0.6608 10.3437,-0.235 9.51948,0.17906 8.6093,0.39 7.6093,0.39 5.8476,0.39 4.5038,-0.14906 3.5781,-1.235 2.64841,-2.317 2.1875,-3.8952 2.1875,-5.9694 Z"
         id="path53" />
    </symbol>
    <symbol
       id="m"
       overflow="visible">
      <path
         d="m 2.5781,-20.406 h 8.7344 c 2.5938,0 4.582,0.57812 5.9688,1.7344 1.3945,1.1484 2.0938,2.7891 2.0938,4.9219 0,2.1367 -0.69922,3.7812 -2.0938,4.9375 -1.3867,1.1562 -3.375,1.7344 -5.9688,1.7344 H 7.8281 V 3e-4 h -5.25 z m 5.25,3.8125 v 5.7031 H 10.75 c 1.0195,0 1.8047,-0.25 2.3594,-0.75 0.5625,-0.5 0.84375,-1.2031 0.84375,-2.1094 0,-0.91406 -0.28125,-1.6172 -0.84375,-2.1094 -0.55469,-0.48828 -1.3398,-0.73438 -2.3594,-0.73438 z"
         id="path56" />
    </symbol>
    <symbol
       id="l"
       overflow="visible">
      <path
         d="M 2.3594,-15.312 H 7.25 v 15.031 c 0,2.0508 -0.49609,3.6172 -1.4844,4.7031 -0.98047,1.082 -2.4062,1.625 -4.2812,1.625 H -0.9375 V 2.8283 h 0.85938 c 0.92578,0 1.5625,-0.21094 1.9062,-0.625 0.35156,-0.41797 0.53125,-1.2461 0.53125,-2.4844 z m 0,-5.9688 H 7.25 v 4 H 2.3594 Z"
         id="path59" />
    </symbol>
    <symbol
       id="k"
       overflow="visible">
      <path
         d="m 14.719,-14.828 v 3.9844 c -0.65625,-0.45703 -1.3242,-0.79688 -2,-1.0156 -0.66797,-0.21875 -1.3594,-0.32812 -2.0781,-0.32812 -1.3672,0 -2.4336,0.40234 -3.2031,1.2031 -0.76172,0.79297 -1.1406,1.9062 -1.1406,3.3438 0,1.4297 0.37891,2.543 1.1406,3.3438 0.76953,0.79297 1.8359,1.1875 3.2031,1.1875 0.75781,0 1.4844,-0.10938 2.1719,-0.32812 0.6875,-0.22656 1.3203,-0.56641 1.9062,-1.0156 v 4 c -0.76172,0.28125 -1.5391,0.48828 -2.3281,0.625 -0.78125,0.14453 -1.5742,0.21875 -2.375,0.21875 -2.7617,0 -4.9219,-0.70703 -6.4844,-2.125 -1.5547,-1.4141 -2.3281,-3.3828 -2.3281,-5.9062 0,-2.5312 0.77344,-4.5039 2.3281,-5.9219 1.5625,-1.4141 3.7227,-2.125 6.4844,-2.125 0.80078,0 1.5938,0.07422 2.375,0.21875 0.78125,0.13672 1.5547,0.35156 2.3281,0.64062 z"
         id="path62" />
    </symbol>
    <symbol
       id="u-3"
       overflow="visible">
      <path
         d="m18.766-1.125c-0.96875 0.5-1.9805 0.875-3.0312 1.125-1.043 0.25781-2.1367 0.39062-3.2812 0.39062-3.3984 0-6.0898-0.94531-8.0781-2.8438-1.9922-1.9062-2.9844-4.4844-2.9844-7.7344 0-3.2578 0.99219-5.8359 2.9844-7.7344 1.9883-1.9062 4.6797-2.8594 8.0781-2.8594 1.1445 0 2.2383 0.13281 3.2812 0.39062 1.0508 0.25 2.0625 0.625 3.0312 1.125v4.2188c-0.98047-0.65625-1.9453-1.1406-2.8906-1.4531-0.94922-0.3125-1.9492-0.46875-3-0.46875-1.875 0-3.3516 0.60547-4.4219 1.8125-1.0742 1.1992-1.6094 2.8555-1.6094 4.9688 0 2.1055 0.53516 3.7617 1.6094 4.9688 1.0703 1.1992 2.5469 1.7969 4.4219 1.7969 1.0508 0 2.0508-0.14844 3-0.45312 0.94531-0.3125 1.9102-0.80078 2.8906-1.4688z"
         id="path115985" />
    </symbol>
    <symbol
       id="d-6"
       overflow="visible">
      <path
         d="m13.734-11.141c-0.4375-0.19531-0.87109-0.34375-1.2969-0.4375-0.41797-0.10156-0.83984-0.15625-1.2656-0.15625-1.2617 0-2.2305 0.40625-2.9062 1.2188-0.67969 0.80469-1.0156 1.9531-1.0156 3.4531v7.0625h-4.8906v-15.312h4.8906v2.5156c0.625-1 1.3438-1.7266 2.1562-2.1875 0.82031-0.46875 1.8008-0.70312 2.9375-0.70312 0.16406 0 0.34375 0.011719 0.53125 0.03125 0.19531 0.011719 0.47656 0.039062 0.84375 0.078125z"
         id="path115988" />
    </symbol>
    <symbol
       id="b-7"
       overflow="visible">
      <path
         d="m17.641-7.7031v1.4062h-11.453c0.125 1.1484 0.53906 2.0078 1.25 2.5781 0.70703 0.57422 1.7031 0.85938 2.9844 0.85938 1.0312 0 2.082-0.14844 3.1562-0.45312 1.082-0.3125 2.1914-0.77344 3.3281-1.3906v3.7656c-1.1562 0.4375-2.3125 0.76562-3.4688 0.98438-1.1562 0.22656-2.3125 0.34375-3.4688 0.34375-2.7734 0-4.9297-0.70312-6.4688-2.1094-1.5312-1.4062-2.2969-3.3789-2.2969-5.9219 0-2.5 0.75391-4.4609 2.2656-5.8906 1.5078-1.4375 3.582-2.1562 6.2188-2.1562 2.4062 0 4.332 0.73047 5.7812 2.1875 1.4453 1.4492 2.1719 3.3828 2.1719 5.7969zm-5.0312-1.625c0-0.92578-0.27344-1.6719-0.8125-2.2344-0.54297-0.57031-1.25-0.85938-2.125-0.85938-0.94922 0-1.7188 0.26562-2.3125 0.79688s-0.96484 1.2969-1.1094 2.2969z"
         id="path115991" />
    </symbol>
    <symbol
       id="a-5"
       overflow="visible">
      <path
         d="m9.2188-6.8906c-1.0234 0-1.793 0.17188-2.3125 0.51562-0.51172 0.34375-0.76562 0.85547-0.76562 1.5312 0 0.625 0.20703 1.1172 0.625 1.4688 0.41406 0.34375 0.98828 0.51562 1.7188 0.51562 0.92578 0 1.7031-0.32812 2.3281-0.98438 0.63281-0.66406 0.95312-1.4922 0.95312-2.4844v-0.5625zm7.4688-1.8438v8.7344h-4.9219v-2.2656c-0.65625 0.92969-1.3984 1.6055-2.2188 2.0312-0.82422 0.41406-1.8242 0.625-3 0.625-1.5859 0-2.8711-0.45703-3.8594-1.375-0.99219-0.92578-1.4844-2.1289-1.4844-3.6094 0-1.7891 0.61328-3.1016 1.8438-3.9375 1.2383-0.84375 3.1797-1.2656 5.8281-1.2656h2.8906v-0.39062c0-0.76953-0.30859-1.332-0.92188-1.6875-0.61719-0.36328-1.5703-0.54688-2.8594-0.54688-1.0547 0-2.0312 0.10547-2.9375 0.3125-0.89844 0.21094-1.7305 0.52344-2.5 0.9375v-3.7344c1.0391-0.25 2.0859-0.44141 3.1406-0.57812 1.0625-0.13281 2.125-0.20312 3.1875-0.20312 2.7578 0 4.75 0.54688 5.9688 1.6406 1.2266 1.0859 1.8438 2.8555 1.8438 5.3125z"
         id="path115994" />
    </symbol>
    <symbol
       id="c-3"
       overflow="visible">
      <path
         d="m7.7031-19.656v4.3438h5.0469v3.5h-5.0469v6.5c0 0.71094 0.14062 1.1875 0.42188 1.4375s0.83594 0.375 1.6719 0.375h2.5156v3.5h-4.1875c-1.9375 0-3.3125-0.39844-4.125-1.2031-0.80469-0.8125-1.2031-2.1797-1.2031-4.1094v-6.5h-2.4219v-3.5h2.4219v-4.3438z"
         id="path115997" />
    </symbol>
    <symbol
       id="j-5"
       overflow="visible">
      <path
         d="m12.766-13.078v-8.2031h4.9219v21.281h-4.9219v-2.2188c-0.66797 0.90625-1.4062 1.5703-2.2188 1.9844s-1.7578 0.625-2.8281 0.625c-1.8867 0-3.4336-0.75-4.6406-2.25-1.2109-1.5-1.8125-3.4258-1.8125-5.7812 0-2.3633 0.60156-4.2969 1.8125-5.7969 1.207-1.5 2.7539-2.25 4.6406-2.25 1.0625 0 2 0.21484 2.8125 0.64062 0.82031 0.42969 1.5664 1.0859 2.2344 1.9688zm-3.2188 9.9219c1.0391 0 1.8359-0.37891 2.3906-1.1406 0.55078-0.76953 0.82812-1.8828 0.82812-3.3438 0-1.457-0.27734-2.5664-0.82812-3.3281-0.55469-0.76953-1.3516-1.1562-2.3906-1.1562-1.043 0-1.8398 0.38672-2.3906 1.1562-0.55469 0.76172-0.82812 1.8711-0.82812 3.3281 0 1.4609 0.27344 2.5742 0.82812 3.3438 0.55078 0.76172 1.3477 1.1406 2.3906 1.1406z"
         id="path116000" />
    </symbol>
    <symbol
       id="i-6"
       overflow="visible">
      <path
         d="m10.5-3.1562c1.0508 0 1.8516-0.37891 2.4062-1.1406 0.55078-0.76953 0.82812-1.8828 0.82812-3.3438 0-1.457-0.27734-2.5664-0.82812-3.3281-0.55469-0.76953-1.3555-1.1562-2.4062-1.1562-1.0547 0-1.8594 0.38672-2.4219 1.1562-0.55469 0.77344-0.82812 1.8828-0.82812 3.3281 0 1.4492 0.27344 2.5586 0.82812 3.3281 0.5625 0.77344 1.3672 1.1562 2.4219 1.1562zm-3.25-9.9219c0.67578-0.88281 1.4219-1.5391 2.2344-1.9688 0.82031-0.42578 1.7656-0.64062 2.8281-0.64062 1.8945 0 3.4453 0.75 4.6562 2.25 1.207 1.5 1.8125 3.4336 1.8125 5.7969 0 2.3555-0.60547 4.2812-1.8125 5.7812-1.2109 1.5-2.7617 2.25-4.6562 2.25-1.0625 0-2.0078-0.21094-2.8281-0.625-0.8125-0.42578-1.5586-1.0859-2.2344-1.9844v2.2188h-4.8906v-21.281h4.8906z"
         id="path116003" />
    </symbol>
    <symbol
       id="h-2"
       overflow="visible">
      <path
         d="m0.34375-15.312h4.8906l4.125 10.391 3.5-10.391h4.8906l-6.4375 16.766c-0.64844 1.6953-1.4023 2.8828-2.2656 3.5625-0.86719 0.6875-2 1.0312-3.4062 1.0312h-2.8438v-3.2188h1.5312c0.83203 0 1.4375-0.13672 1.8125-0.40625 0.38281-0.26172 0.67969-0.73047 0.89062-1.4062l0.14062-0.42188z"
         id="path116006" />
    </symbol>
    <symbol
       id="g-9"
       overflow="visible">
      <path
         d="m14.953-3.7188h-8.2188l-1.3125 3.7188h-5.2812l7.5625-20.406h6.2656l7.5625 20.406h-5.2812zm-6.9062-3.7812h5.5781l-2.7812-8.125z"
         id="path116009" />
    </symbol>
    <symbol
       id="t-1"
       overflow="visible">
      <path
         d="m0.42188-15.312h4.8906l3.8281 10.578 3.7969-10.578h4.9062l-6.0312 15.312h-5.375z"
         id="path116012" />
    </symbol>
    <symbol
       id="f-2"
       overflow="visible">
      <path
         d="m17.75-9.3281v9.3281h-4.9219v-7.1406c0-1.3203-0.03125-2.2344-0.09375-2.7344s-0.16797-0.86719-0.3125-1.1094c-0.1875-0.3125-0.44922-0.55469-0.78125-0.73438-0.32422-0.17578-0.69531-0.26562-1.1094-0.26562-1.0234 0-1.8242 0.39844-2.4062 1.1875-0.58594 0.78125-0.875 1.8711-0.875 3.2656v7.5312h-4.8906v-15.312h4.8906v2.2344c0.73828-0.88281 1.5195-1.5391 2.3438-1.9688 0.83203-0.42578 1.75-0.64062 2.75-0.64062 1.7695 0 3.1133 0.54688 4.0312 1.6406 0.91406 1.0859 1.375 2.6562 1.375 4.7188z"
         id="path116015" />
    </symbol>
    <symbol
       id="s-7"
       overflow="visible">
      <path
         d="m0.14062-20.406h5.2812l5.4219 15.062 5.4062-15.062h5.2812l-7.5625 20.406h-6.2656z"
         id="path116018" />
    </symbol>
    <symbol
       id="r-0"
       overflow="visible">
      <path
         d="m12.422-21.281v3.2188h-2.7031c-0.6875 0-1.1719 0.125-1.4531 0.375-0.27344 0.25-0.40625 0.6875-0.40625 1.3125v1.0625h4.1875v3.5h-4.1875v11.812h-4.8906v-11.812h-2.4375v-3.5h2.4375v-1.0625c0-1.6641 0.46094-2.8984 1.3906-3.7031 0.92578-0.80078 2.3672-1.2031 4.3281-1.2031z"
         id="path116021" />
    </symbol>
    <symbol
       id="e-9"
       overflow="visible">
      <path
         d="m9.6406-12.188c-1.0859 0-1.9141 0.39062-2.4844 1.1719-0.57422 0.78125-0.85938 1.9062-0.85938 3.375s0.28516 2.5938 0.85938 3.375c0.57031 0.77344 1.3984 1.1562 2.4844 1.1562 1.0625 0 1.875-0.38281 2.4375-1.1562 0.57031-0.78125 0.85938-1.9062 0.85938-3.375s-0.28906-2.5938-0.85938-3.375c-0.5625-0.78125-1.375-1.1719-2.4375-1.1719zm0-3.5c2.6328 0 4.6914 0.71484 6.1719 2.1406 1.4766 1.418 2.2188 3.3867 2.2188 5.9062 0 2.5117-0.74219 4.4805-2.2188 5.9062-1.4805 1.418-3.5391 2.125-6.1719 2.125-2.6484 0-4.7148-0.70703-6.2031-2.125-1.4922-1.4258-2.2344-3.3945-2.2344-5.9062 0-2.5195 0.74219-4.4883 2.2344-5.9062 1.4883-1.4258 3.5547-2.1406 6.2031-2.1406z"
         id="path116024" />
    </symbol>
    <symbol
       id="q-3"
       overflow="visible">
      <path
         d="m16.547-12.766c0.61328-0.94531 1.3477-1.6719 2.2031-2.1719 0.85156-0.5 1.7891-0.75 2.8125-0.75 1.7578 0 3.0977 0.54688 4.0156 1.6406 0.92578 1.0859 1.3906 2.6562 1.3906 4.7188v9.3281h-4.9219v-7.9844-0.35938c0.007813-0.13281 0.015625-0.32031 0.015625-0.5625 0-1.082-0.16406-1.8633-0.48438-2.3438-0.3125-0.48828-0.82422-0.73438-1.5312-0.73438-0.92969 0-1.6484 0.38672-2.1562 1.1562-0.51172 0.76172-0.77344 1.8672-0.78125 3.3125v7.5156h-4.9219v-7.9844c0-1.6953-0.14844-2.7852-0.4375-3.2656-0.29297-0.48828-0.8125-0.73438-1.5625-0.73438-0.9375 0-1.6641 0.38672-2.1719 1.1562-0.51172 0.76172-0.76562 1.8594-0.76562 3.2969v7.5312h-4.9219v-15.312h4.9219v2.2344c0.60156-0.86328 1.2891-1.5156 2.0625-1.9531 0.78125-0.4375 1.6406-0.65625 2.5781-0.65625 1.0625 0 2 0.25781 2.8125 0.76562 0.8125 0.51172 1.4258 1.2305 1.8438 2.1562z"
         id="path116027" />
    </symbol>
    <symbol
       id="p-6"
       overflow="visible">
      <path
         d="m17.75-9.3281v9.3281h-4.9219v-7.1094c0-1.3438-0.03125-2.2656-0.09375-2.7656s-0.16797-0.86719-0.3125-1.1094c-0.1875-0.3125-0.44922-0.55469-0.78125-0.73438-0.32422-0.17578-0.69531-0.26562-1.1094-0.26562-1.0234 0-1.8242 0.39844-2.4062 1.1875-0.58594 0.78125-0.875 1.8711-0.875 3.2656v7.5312h-4.8906v-21.281h4.8906v8.2031c0.73828-0.88281 1.5195-1.5391 2.3438-1.9688 0.83203-0.42578 1.75-0.64062 2.75-0.64062 1.7695 0 3.1133 0.54688 4.0312 1.6406 0.91406 1.0859 1.375 2.6562 1.375 4.7188z"
         id="path116030" />
    </symbol>
    <symbol
       id="o-0"
       overflow="visible">
      <path
         d="m2.5781-20.406h5.875l7.4219 14v-14h4.9844v20.406h-5.875l-7.4219-14v14h-4.9844z"
         id="path116033" />
    </symbol>
    <symbol
       id="n-6"
       overflow="visible">
      <path
         d="m2.1875-5.9688v-9.3438h4.9219v1.5312c0 0.83594-0.007813 1.875-0.015625 3.125-0.011719 1.25-0.015625 2.0859-0.015625 2.5 0 1.2422 0.03125 2.1328 0.09375 2.6719 0.070313 0.54297 0.17969 0.93359 0.32812 1.1719 0.20703 0.32422 0.47266 0.57422 0.79688 0.75 0.32031 0.16797 0.69141 0.25 1.1094 0.25 1.0195 0 1.8203-0.39062 2.4062-1.1719 0.58203-0.78125 0.875-1.8672 0.875-3.2656v-7.5625h4.8906v15.312h-4.8906v-2.2188c-0.74219 0.89844-1.5234 1.5586-2.3438 1.9844-0.82422 0.41406-1.7344 0.625-2.7344 0.625-1.7617 0-3.1055-0.53906-4.0312-1.625-0.92969-1.082-1.3906-2.6602-1.3906-4.7344z"
         id="path116036" />
    </symbol>
    <symbol
       id="m-2"
       overflow="visible">
      <path
         d="m2.5781-20.406h8.7344c2.5938 0 4.582 0.57812 5.9688 1.7344 1.3945 1.1484 2.0938 2.7891 2.0938 4.9219 0 2.1367-0.69922 3.7812-2.0938 4.9375-1.3867 1.1562-3.375 1.7344-5.9688 1.7344h-3.4844v7.0781h-5.25zm5.25 3.8125v5.7031h2.9219c1.0195 0 1.8047-0.25 2.3594-0.75 0.5625-0.5 0.84375-1.2031 0.84375-2.1094 0-0.91406-0.28125-1.6172-0.84375-2.1094-0.55469-0.48828-1.3398-0.73438-2.3594-0.73438z"
         id="path116039" />
    </symbol>
    <symbol
       id="l-6"
       overflow="visible">
      <path
         d="m2.3594-15.312h4.8906v15.031c0 2.0508-0.49609 3.6172-1.4844 4.7031-0.98047 1.082-2.4062 1.625-4.2812 1.625h-2.4219v-3.2188h0.85938c0.92578 0 1.5625-0.21094 1.9062-0.625 0.35156-0.41797 0.53125-1.2461 0.53125-2.4844zm0-5.9688h4.8906v4h-4.8906z"
         id="path116042" />
    </symbol>
    <symbol
       id="k-1"
       overflow="visible">
      <path
         d="m14.719-14.828v3.9844c-0.65625-0.45703-1.3242-0.79688-2-1.0156-0.66797-0.21875-1.3594-0.32812-2.0781-0.32812-1.3672 0-2.4336 0.40234-3.2031 1.2031-0.76172 0.79297-1.1406 1.9062-1.1406 3.3438 0 1.4297 0.37891 2.543 1.1406 3.3438 0.76953 0.79297 1.8359 1.1875 3.2031 1.1875 0.75781 0 1.4844-0.10938 2.1719-0.32812 0.6875-0.22656 1.3203-0.56641 1.9062-1.0156v4c-0.76172 0.28125-1.5391 0.48828-2.3281 0.625-0.78125 0.14453-1.5742 0.21875-2.375 0.21875-2.7617 0-4.9219-0.70703-6.4844-2.125-1.5547-1.4141-2.3281-3.3828-2.3281-5.9062 0-2.5312 0.77344-4.5039 2.3281-5.9219 1.5625-1.4141 3.7227-2.125 6.4844-2.125 0.80078 0 1.5938 0.074219 2.375 0.21875 0.78125 0.13672 1.5547 0.35156 2.3281 0.64062z"
         id="path116045" />
    </symbol>
    <linearGradient
       inkscape:collect="always"
       xlink:href="#linearGradient118577"
       id="linearGradient118773"
       x1="491.99057"
       y1="374.64493"
       x2="491.99057"
       y2="680.02631"
       gradientUnits="userSpaceOnUse"
       gradientTransform="matrix(1.1881902,0,0,1.1881902,-81.26718,-90.629713)" />
  </defs>
  <g
     id="g141"
     transform="matrix(0.86214413,0,0,0.86214413,-64.432384,-45.078359)" />
  <g
     aria-label="dorukeray"
     id="text1222"
     style="font-weight:900;font-size:110.605px;line-height:1.25;font-family:'Roboto Slab';-inkscape-font-specification:'Roboto Slab Heavy';letter-spacing:-3.46733px;stroke-width:2.76511"
     inkscape:transform-center-x="2.4318839"
     inkscape:transform-center-y="-0.38250704"
     transform="matrix(0.983985,0,0,0.983985,7.468363,1.5885075)">
    <path
       d="m 230.4818,130.64741 q -6.85881,0 -11.82739,-3.61843 -4.91458,-3.61842 -7.56089,-10.15319 -2.59231,-6.58878 -2.59231,-15.3378 v -1.13414 q 0,-9.12707 2.64632,-15.93187 2.64631,-6.858807 7.50688,-10.639251 4.91458,-3.834451 11.61136,-3.834451 4.64455,0 7.99294,1.944229 3.4024,1.890222 5.9407,5.346628 V 58.116881 l -8.20896,-1.728203 V 45.26337 h 8.20896 18.95623 v 71.4504 l 6.8048,1.7282 v 11.07131 h -23.22273 l -1.40417,-7.23686 q -2.64631,4.10449 -6.26473,6.26474 -3.61843,2.10625 -8.58701,2.10625 z m 5.88669,-14.52771 q 2.37628,0 4.42852,-0.91811 2.05224,-0.91811 3.4024,-2.75432 V 89.06252 q -1.35016,-2.214261 -3.34839,-3.348394 -1.94423,-1.18814 -4.37452,-1.18814 -3.24038,0 -5.23861,1.998235 -1.99824,1.998235 -2.91635,5.562654 -0.8641,3.564419 -0.8641,8.316975 v 1.13414 q 0,6.96682 1.94423,10.80127 1.94423,3.78044 6.96682,3.78044 z"
       style="letter-spacing:-3.375px;fill:#262a2b;fill-opacity:1"
       id="path115054" />
    <path
       d="m 298.93524,130.64741 q -9.01906,0 -15.44581,-3.72644 -6.37275,-3.78044 -9.77515,-10.47723 -3.3484,-6.7508 -3.3484,-15.60784 v -1.080123 q 0,-8.749029 3.3484,-15.445816 3.4024,-6.696788 9.77515,-10.477232 6.37275,-3.834451 15.3378,-3.834451 9.01906,0 15.3378,3.780445 6.37275,3.780444 9.72115,10.477231 3.4024,6.696788 3.4024,15.499823 v 1.080123 q 0,8.80304 -3.4024,15.55383 -3.3484,6.69679 -9.72115,10.47723 -6.31874,3.78045 -15.22979,3.78045 z m 0,-14.4197 q 3.45641,0 5.50865,-1.83621 2.10625,-1.89022 3.02436,-5.34663 0.97211,-3.45641 0.97211,-8.20897 v -1.080123 q 0,-4.59054 -0.97211,-7.99294 -0.91811,-3.456406 -3.02436,-5.346629 -2.10625,-1.944228 -5.61666,-1.944228 -3.45641,0 -5.56265,1.944228 -2.10625,1.890223 -3.02436,5.346629 -0.91811,3.4024 -0.91811,7.99294 v 1.080123 q 0,4.80657 0.91811,8.26298 0.91811,3.4564 3.02436,5.29262 2.10624,1.83621 5.67066,1.83621 z"
       style="letter-spacing:-6px;fill:#262a2b;fill-opacity:1"
       id="path115056" />
    <path
       d="m 329.55155,129.51328 v -11.07131 l 6.8048,-1.7282 V 83.931916 L 328.2554,82.203713 V 71.078405 h 25.97705 l 0.43205,7.128838 0.10802,1.458172 q 1.94423,-4.968584 4.80656,-7.290857 2.91634,-2.37628 7.23685,-2.37628 1.18814,0 2.80833,0.216026 1.62019,0.162019 3.29439,0.648076 l -1.89022,17.390044 -8.10095,-0.378044 q -2.80833,-0.108013 -4.42853,0.648076 -1.56618,0.702083 -3.18637,2.376279 v 25.815035 l 6.8048,1.7282 v 11.07131 z"
       style="letter-spacing:1.5px;fill:#262a2b;fill-opacity:1"
       id="path115058" />
    <path
       d="m 402.17791,130.64741 q -9.07307,0 -14.25768,-5.72467 -5.18461,-5.72468 -5.18461,-17.71409 V 83.931916 l -6.26473,-1.728203 V 71.078405 h 6.26473 18.95623 v 36.238265 q 0,4.3205 1.78221,6.58877 1.83622,2.21426 5.45464,2.21426 2.10625,0 4.15849,-0.75609 2.10625,-0.81009 3.72644,-2.37628 V 83.931916 l -6.37275,-1.728203 V 71.078405 h 6.37275 18.95623 v 45.635365 l 7.29086,1.7282 v 11.07131 h -23.7628 l -1.24214,-6.64279 q -2.80833,3.78045 -6.85881,5.77868 -3.99647,1.99824 -9.01906,1.99824 z"
       style="letter-spacing:0px;fill:#262a2b;fill-opacity:1"
       id="path115060" />
    <path
       d="m 446.73314,129.51328 v -11.07131 l 6.91281,-1.7282 V 58.116881 l -8.20896,-1.728203 V 45.26337 h 27.05718 v 71.4504 l 5.56265,1.7282 v 11.07131 z m 36.99435,0 v -10.31522 l 3.56442,-1.24214 -0.10802,-0.21603 -8.26297,-11.9354 12.85351,-11.449348 16.41793,22.142598 6.53477,1.94423 v 11.07131 z m -13.44758,-15.39181 -9.82916,-9.07307 25.38299,-21.980585 v -0.05401 l -5.83269,-0.972114 V 71.078405 h 33.64596 v 11.125308 l -7.56089,2.21426 z"
       style="letter-spacing:0px;fill:#262a2b;fill-opacity:1"
       id="path115062" />
    <path
       d="m 548.69715,130.64741 q -8.58701,0 -15.01376,-3.67243 -6.37275,-3.72644 -9.93717,-10.1532 -3.51042,-6.42675 -3.51042,-14.5277 v -1.99824 q 0,-8.911047 3.13237,-15.769854 3.13237,-6.858806 9.18108,-10.693257 6.04871,-3.888457 14.85175,-3.834451 7.93893,0 13.39357,3.078362 5.50865,3.024356 8.37099,8.965054 2.86233,5.886692 2.86233,14.527708 v 9.775148 h -32.13377 l -0.054,0.37805 q 0.43205,2.75432 1.83622,4.91457 1.45817,2.10625 3.99647,3.3484 2.53829,1.24214 6.26473,1.24214 3.67243,0 7.18285,-0.81009 3.56442,-0.8641 7.50688,-2.70032 l 4.32051,11.44935 q -3.94247,2.80833 -9.61313,4.64454 -5.67067,1.83622 -12.63749,1.83622 z m -8.80303,-36.022236 h 14.85174 v -1.404166 q 0,-3.132368 -0.64807,-5.238615 -0.59407,-2.106248 -2.10625,-3.186375 -1.51218,-1.080127 -4.15849,-1.080127 -2.86234,0 -4.59054,1.404165 -1.6742,1.350159 -2.48429,3.780444 -0.75609,2.37628 -1.08013,5.454642 z"
       style="letter-spacing:-4.5px;fill:#abb3ba;fill-opacity:1"
       id="path115064" />
    <path
       d="m 576.22291,129.51328 v -11.07131 l 6.8048,-1.7282 V 83.931916 l -8.10095,-1.728203 V 71.078405 h 25.97705 l 0.43205,7.128838 0.10801,1.458172 q 1.94423,-4.968584 4.80657,-7.290857 2.91634,-2.37628 7.23685,-2.37628 1.18814,0 2.80833,0.216026 1.62019,0.162019 3.29439,0.648076 l -1.89023,17.390044 -8.10095,-0.378044 q -2.80833,-0.108013 -4.42852,0.648076 -1.56618,0.702083 -3.18637,2.376279 v 25.815035 l 6.8048,1.7282 v 11.07131 z"
       style="letter-spacing:-3px;fill:#abb3ba;fill-opacity:1"
       id="path115066" />
    <path
       d="m 640.13677,130.64741 q -8.479,0 -13.82562,-4.80657 -5.34663,-4.80656 -5.34663,-12.7995 0,-5.45464 2.91634,-9.66714 2.97035,-4.212493 8.85704,-6.588773 5.9407,-2.430285 14.85175,-2.430285 h 6.10271 v -3.456407 q 0,-3.510412 -1.99823,-5.940698 -1.99824,-2.484292 -6.31874,-2.484292 -1.83622,0 -3.45641,0.486057 -1.56618,0.432051 -2.86234,1.296152 l -1.29615,7.452877 H 624.42092 L 624.15089,75.45292 q 4.96859,-2.214261 10.36922,-3.834451 5.45464,-1.620191 12.15143,-1.620191 11.9354,0 18.95623,5.508648 7.02082,5.454641 7.02082,15.607835 v 21.548529 q 0,1.24215 0,2.43029 0.054,1.18814 0.27003,2.26827 l 6.31875,1.08012 v 11.07131 h -22.14261 q -0.70208,-0.97212 -1.51217,-2.59231 -0.8101,-1.62019 -1.13414,-3.24038 -2.64631,3.29439 -5.9407,5.1306 -3.29438,1.83622 -8.37098,1.83622 z m 5.83269,-13.39358 q 2.05224,0 4.10448,-0.81009 2.10625,-0.8641 3.61842,-2.5383 v -8.42499 h -5.88669 q -3.83445,0 -5.9407,1.6742 -2.05224,1.67419 -2.05224,4.42852 0,2.64631 1.72821,4.15849 1.7282,1.51217 4.42852,1.51217 z"
       style="letter-spacing:-4.5px;fill:#abb3ba;fill-opacity:1"
       id="path115068" />
    <path
       d="m 697.042,153.11405 q -2.48429,0 -5.02259,-0.43205 -2.48429,-0.37805 -5.1306,-1.13413 l 2.26826,-13.5556 q 1.08013,0.27003 2.05225,0.37805 1.02612,0.16202 2.10624,0.16202 3.45641,0 6.10272,-1.29616 2.70032,-1.24214 3.4024,-3.88845 l 0.54006,-2.05225 -18.79421,-47.957634 -7.83092,-1.134133 V 71.078405 h 35.10413 v 11.125308 l -7.23685,1.080127 7.83092,23.65478 0.10801,0.43205 h 0.32404 l 9.23509,-24.248849 -6.69679,-0.918108 V 71.078405 h 31.91775 v 11.125308 l -6.91281,0.972114 -21.87257,54.870453 q -1.56619,3.94246 -4.2125,7.34486 -2.64631,3.45641 -6.8588,5.56266 -4.2125,2.16025 -10.42323,2.16025 z"
       style="letter-spacing:0px;fill:#abb3ba"
       id="path115070" />
  </g>
  <g
     id="g116124"
     transform="matrix(0.48688906,0,0,0.48688906,-146.22283,-150.42509)">
    <path
       id="path116050"
       style="fill:url(#linearGradient118773);fill-opacity:1;stroke-width:0.740047"
       d="m 497.15171,321.77673 c -27.32667,0.31349 -54.56357,6.95676 -78.92589,19.34944 -29.75892,15.04054 -55.17,38.51399 -72.56087,66.9598 -14.77074,24.02701 -23.72975,51.58733 -25.89879,79.70878 -2.19612,27.7514 2.08867,56.01061 12.59381,81.80135 11.97331,29.58182 32.00391,55.81925 57.29849,75.26472 23.18903,17.90412 50.80746,30.03719 79.70955,34.87378 31.90581,5.39981 65.26909,2.07803 95.41049,-9.73696 29.86666,-11.61036 56.46189,-31.40738 76.27237,-56.58267 18.07176,-22.87148 30.4874,-50.1875 35.70113,-78.87442 5.86546,-31.96168 2.94443,-65.51099 -8.55912,-95.91611 -10.97564,-29.22162 -29.74966,-55.43358 -53.77907,-75.34416 -22.85269,-19.00735 -50.46716,-32.2618 -79.63393,-38.03837 -12.3741,-2.47697 -25.01104,-3.61695 -37.62817,-3.46518 z m -16.7298,61.02238 c -6.01985,-6.02062 -12.03972,-12.04125 -18.05958,-18.06189 1.57815,-0.42607 2.98198,-0.7763 4.52535,-1.14641 0.78637,-0.178 1.93877,-0.44823 2.86959,-0.63994 3.52998,-0.74998 7.08765,-1.372 10.66464,-1.85017 0,7.23282 0,14.46562 0,21.69841 z m 39.48179,-21.50113 c 4.66156,0.67587 9.28925,1.58316 13.86145,2.71521 0.78088,0.20407 1.88347,0.47486 2.7825,0.72403 -6.02064,6.02064 -12.04125,12.04127 -18.06189,18.06189 0,-7.23279 0,-14.46559 0,-21.69841 0.47265,0.0657 0.94528,0.13152 1.41794,0.19728 z m -39.48179,75.32477 c 0,6.47934 0,12.95868 0,19.43804 -22.3629,-22.3652 -44.72578,-44.73042 -67.08868,-67.09561 3.69878,-2.83403 7.54604,-5.47199 11.50133,-7.93443 18.52911,18.53066 37.05823,37.06133 55.58735,55.592 z m 95.69804,-54.29473 c 3.23489,2.09464 6.40071,4.2984 9.45912,6.64412 -22.3652,22.36521 -44.73041,44.73041 -67.09562,67.09562 7.7e-4,-6.48014 0.001,-12.96026 0.002,-19.44038 18.52989,-18.52911 37.05977,-37.05824 55.58967,-55.58735 0.6815,0.42932 1.36301,0.85865 2.04451,1.28799 z m -103.57677,119.68 c -28.7092,28.70918 -57.41837,57.41836 -86.12755,86.12754 -14.86386,-19.3957 -24.59698,-42.69224 -27.84575,-66.91788 -3.32848,-24.43121 -0.22464,-49.72857 9.10106,-72.56652 4.75615,-11.68913 11.07663,-22.74065 18.74469,-32.76373 28.70918,28.70687 57.41835,57.41373 86.12755,86.12059 z m 141.13008,-84.55413 c 13.65144,18.3578 22.7862,40.0531 26.27138,62.66888 0.64101,4.14609 1.09233,8.31973 1.37957,12.50504 0.0147,0.38863 0.0776,1.42446 0.11085,2.06123 0.29515,5.58782 0.23719,11.19201 -0.11775,16.77575 -0.0272,0.38785 -0.10902,1.42238 -0.1572,2.05818 -1.89109,24.05867 -10.1366,47.56503 -23.62285,67.57306 -1.61123,2.39696 -3.29639,4.74454 -5.0498,7.03953 -28.70919,-28.70918 -57.41836,-57.41836 -86.12755,-86.12754 28.70919,-28.70686 57.41836,-57.41372 86.12755,-86.12059 0.39529,0.52214 0.79058,1.04429 1.18587,1.56646 z M 480.42191,567.3283 c -18.54228,18.54229 -37.08454,37.08452 -55.6268,55.62679 -3.94205,-2.45624 -7.7759,-5.08759 -11.46418,-7.9112 22.36288,-22.3652 44.72577,-44.7304 67.08865,-67.09563 7.8e-4,6.46002 10e-4,12.92003 0.002,19.38004 z m 105.16179,47.71559 c -3.74435,2.86811 -7.64079,5.53621 -11.64983,8.02028 -18.4827,-18.48269 -36.9654,-36.9654 -55.44811,-55.44811 0,-6.55438 0,-13.10876 0,-19.66315 22.36598,22.36367 44.73196,44.72732 67.09794,67.09098 z m -105.16179,27.86677 c -6.10629,-0.82028 -12.15932,-2.03833 -18.106,-3.65042 6.03534,-6.03611 12.07067,-12.07221 18.106,-18.1083 0,7.2529 0,14.50582 0,21.75872 z m 55.94705,-3.58777 c -1.08824,0.29371 -2.06233,0.54644 -3.22384,0.82774 -4.8337,1.1752 -9.72856,2.10065 -14.65936,2.76003 0,-7.15699 0,-14.31398 0,-21.47097 5.96107,5.96108 11.92212,11.92214 17.8832,17.8832 z" />
  </g>
</svg>
