<?xml version="1.0" encoding="UTF-8" standalone="no"?>
<svg
   xmlns:dc="http://purl.org/dc/elements/1.1/"
   xmlns:cc="http://creativecommons.org/ns#"
   xmlns:rdf="http://www.w3.org/1999/02/22-rdf-syntax-ns#"
   xmlns:svg="http://www.w3.org/2000/svg"
   xmlns="http://www.w3.org/2000/svg"
   xmlns:sodipodi="http://sodipodi.sourceforge.net/DTD/sodipodi-0.dtd"
   xmlns:inkscape="http://www.inkscape.org/namespaces/inkscape"
   data-name="Layer 1"
   viewBox="0 0 24 24"
   version="1.1"
   id="svg4"
   sodipodi:docname="parcel.svg"
   inkscape:version="1.0.1 (1.0.1+r74)">
  <metadata
     id="metadata10">
    <rdf:RDF>
      <cc:Work
         rdf:about="">
        <dc:format>image/svg+xml</dc:format>
        <dc:type
           rdf:resource="http://purl.org/dc/dcmitype/StillImage" />
        <dc:title></dc:title>
      </cc:Work>
    </rdf:RDF>
  </metadata>
  <defs
     id="defs8" />
  <sodipodi:namedview
     pagecolor="#ffffff"
     bordercolor="#666666"
     borderopacity="1"
     objecttolerance="10"
     gridtolerance="10"
     guidetolerance="10"
     inkscape:pageopacity="0"
     inkscape:pageshadow="2"
     inkscape:window-width="1920"
     inkscape:window-height="1007"
     id="namedview6"
     showgrid="false"
     inkscape:zoom="16"
     inkscape:cx="8.1005516"
     inkscape:cy="11.243736"
     inkscape:window-x="0"
     inkscape:window-y="0"
     inkscape:window-maximized="1"
     inkscape:current-layer="svg4"
     showguides="true"
     inkscape:guide-bbox="true">
    <sodipodi:guide
       position="4.5625,28.8125"
       orientation="1,0"
       id="guide1002" />
  </sodipodi:namedview>
  <path
     d="M 20.420539,-0.016683 H 3.6083295 c -1.9896701,10e-9 -3.60261633,1.6129462 -3.60261639,3.6026163 V 20.398143 c 2.2e-7,1.98967 1.61294649,3.602616 3.60261639,3.602616 H 20.420539 c 1.98967,0 3.602617,-1.612946 3.602617,-3.602616 V 3.5859333 c 0,-1.9896703 -1.612947,-3.60261663 -3.602617,-3.6026163 z M 9.61269,2.3850613 h 4.803489 l 0,3.6127745 -1.813317,-1.0087325 c -0.371551,-0.2145151 -0.829321,-0.2145151 -1.200872,0 l -1.7893,1.0087325 0,-3.6127745 m -2.4017442,0 0,5.6662659 c 0.00257,0.4264435 0.2311143,0.8195325 0.600436,1.0327505 0.3715512,0.214515 0.8293211,0.214515 1.2008723,0 l 3.0021809,-1.6692128 3.014189,1.6812208 c 0.179477,0.101717 0.382131,0.155482 0.588427,0.156114 0.663223,0 1.200872,-0.537649 1.200872,-1.2008725 V 2.3850613 h 3.602616 c 0.663223,0 1.200872,0.5376487 1.200872,1.200872 V 20.398143 c 0,0.663223 -0.537649,1.200872 -1.200872,1.200872 H 3.6083295 c -0.6632234,0 -1.2008722,-0.537649 -1.2008722,-1.200872 V 3.5859333 c 0,-0.6632234 0.5376488,-1.2008721 1.2008722,-1.200872 h 3.6026163"
     id="path2"
     style="fill:#87de87;fill-opacity:1;stroke-width:1.20087"
     sodipodi:nodetypes="sssssssssccccccccccccccscssssssssc" />
  <g
     id="g1006"
     transform="matrix(0.18628158,0,0,0.18628158,-91.753772,-42.300423)">
    <path
       d="m 549.93044,299.11199 6.61779,11.96709 -6.10642,12.23612 c -0.63687,1.27621 -0.49413,2.80357 0.36845,3.93958 0.86282,1.13608 2.29557,1.68396 3.69586,1.41311 l 13.42655,-2.59591 9.75021,9.58874 c 1.02285,1.00614 2.52166,1.33335 3.8607,0.86684 1.34694,-0.46936 2.31079,-1.66257 2.48588,-3.07837 l 1.68022,-13.57159 12.13227,-6.30987 c 1.26532,-0.65812 2.04757,-1.97763 2.01727,-3.40373 -0.0301,-1.42603 -0.86714,-2.71143 -2.15948,-3.31559 l -12.37316,-5.78453 -2.19058,-13.70872 c -0.2267,-1.41777 -1.24341,-2.58175 -2.61796,-2.99648 -1.37455,-0.41473 -2.8653,-0.008 -3.83839,1.04847 l -9.40713,10.2095 -13.50748,-2.02411 c -1.4106,-0.21137 -2.81916,0.39648 -3.63292,1.56792 -0.81369,1.17119 -0.89202,2.70309 -0.20171,3.95153 z m 18.19637,4.21098 c 1.22883,0.18418 2.46921,-0.25286 3.31123,-1.16683 l 5.51669,-5.98737 1.28456,8.03942 c 0.19599,1.22716 0.98774,2.27707 2.11331,2.80352 l 7.29439,3.41008 -7.14376,3.71547 c -1.09417,0.56911 -1.83825,1.64023 -1.98992,2.86424 l -0.98948,7.99133 -5.7411,-5.64618 c -0.43968,-0.43249 -0.97181,-0.74282 -1.54512,-0.9158 -0.57331,-0.17298 -1.18827,-0.20875 -1.79379,-0.0917 l -7.90532,1.52856 3.59571,-7.20473 c 0.55062,-1.10365 0.52312,-2.40756 -0.0737,-3.48687 l -3.89666,-7.04655 z"
       id="path998-2"
       style="fill:#afe9af;stroke-width:0.249827" />
    <path
       d="m 517.15857,296.88653 c 0,2.55483 2.07125,4.62609 4.6261,4.62609 h 16.27525 c 2.55484,0 4.6261,-2.07126 4.6261,-4.62609 0,-2.55485 -2.07126,-4.62611 -4.6261,-4.62611 h -16.27525 c -2.55485,0 -4.6261,2.07126 -4.6261,4.62611 z"
       id="path886-9"
       style="fill:#d7f4d7;stroke-width:0.308406"
       sodipodi:nodetypes="sssssss" />
    <path
       d="m 517.15857,324.70568 c 0,2.55483 2.07125,4.62609 4.6261,4.62609 h 16.27525 c 2.55484,0 4.6261,-2.07126 4.6261,-4.62609 0,-2.55485 -2.07126,-4.62611 -4.6261,-4.62611 h -16.27525 c -2.55485,0 -4.6261,2.07126 -4.6261,4.62611 z"
       id="path886-5-1"
       style="fill:#d7f4d7;stroke-width:0.308406"
       sodipodi:nodetypes="sssssss" />
    <path
       d="m 523.38573,310.63372 c 0,2.55483 2.07125,4.62609 4.6261,4.62609 h 16.27525 c 2.55484,0 4.6261,-2.07126 4.6261,-4.62609 0,-2.55485 -2.07126,-4.62611 -4.6261,-4.62611 h -16.27525 c -2.55485,0 -4.6261,2.07126 -4.6261,4.62611 z"
       id="path886-5-6"
       style="fill:#d7f4d7;stroke-width:0.308406"
       sodipodi:nodetypes="sssssss" />
  </g>
</svg>
