<?xml version="1.0" encoding="UTF-8" standalone="no"?>
<!-- Created with Inkscape (http://www.inkscape.org/) -->

<svg
   width="802.49805"
   height="250.00005"
   viewBox="0 0 212.32761 66.145845"
   version="1.1"
   id="svg5"
   xml:space="preserve"
   inkscape:version="1.2.2 (b0a8486541, 2022-12-01)"
   sodipodi:docname="design.svg"
   xmlns:inkscape="http://www.inkscape.org/namespaces/inkscape"
   xmlns:sodipodi="http://sodipodi.sourceforge.net/DTD/sodipodi-0.dtd"
   xmlns:xlink="http://www.w3.org/1999/xlink"
   xmlns="http://www.w3.org/2000/svg"
   xmlns:svg="http://www.w3.org/2000/svg"><sodipodi:namedview
     id="namedview7"
     pagecolor="#ffffff"
     bordercolor="#ebebeb"
     borderopacity="1"
     inkscape:showpageshadow="false"
     inkscape:pageopacity="0"
     inkscape:pagecheckerboard="false"
     inkscape:deskcolor="#ffffff"
     inkscape:document-units="px"
     showgrid="false"
     showguides="false"
     inkscape:zoom="1.4142136"
     inkscape:cx="403.05087"
     inkscape:cy="242.89118"
     inkscape:window-width="1920"
     inkscape:window-height="1011"
     inkscape:window-x="0"
     inkscape:window-y="32"
     inkscape:window-maximized="1"
     inkscape:current-layer="text57063"><inkscape:page
       x="0"
       y="0"
       width="212.32761"
       height="66.145844"
       id="page7242"
       inkscape:label="Brand" /><inkscape:page
       x="0"
       y="1.2031856e-13"
       width="66.145836"
       height="66.145836"
       id="page7244"
       inkscape:label="Icon" /><inkscape:page
       x="2.405304"
       y="98.926453"
       width="212.3278"
       height="66.145836"
       id="page69065"
       inkscape:label="Brand-White" /><inkscape:page
       x="19.566788"
       y="176.89246"
       width="66.145828"
       height="66.145844"
       id="page24235"
       inkscape:label="Key" /><inkscape:page
       x="2.9294348"
       y="-86.742447"
       width="66.145836"
       height="66.145844"
       id="page27222"
       inkscape:label="Square" /></sodipodi:namedview><defs
     id="defs2"><linearGradient
       inkscape:collect="always"
       id="linearGradient991"><stop
         style="stop-color:#090911;stop-opacity:1;"
         offset="0"
         id="stop987" /><stop
         style="stop-color:#394660;stop-opacity:1;"
         offset="1"
         id="stop989" /></linearGradient><linearGradient
       inkscape:collect="always"
       id="linearGradient983"><stop
         style="stop-color:#141a1f;stop-opacity:1;"
         offset="0"
         id="stop979" /><stop
         style="stop-color:#141a1f;stop-opacity:0;"
         offset="1"
         id="stop981" /></linearGradient><linearGradient
       inkscape:collect="always"
       id="silverline"><stop
         style="stop-color:#8cbff2;stop-opacity:1;"
         offset="0.04451345"
         id="stop15058" /><stop
         style="stop-color:#ffffff;stop-opacity:1;"
         offset="0.50488615"
         id="stop15060" /></linearGradient><linearGradient
       inkscape:collect="always"
       id="dorkodu"><stop
         style="stop-color:#006644;stop-opacity:1;"
         offset="0.0001"
         id="stop15052" /><stop
         style="stop-color:#36e236;stop-opacity:1;"
         offset="0.99989998"
         id="stop15054" /></linearGradient><linearGradient
       inkscape:collect="always"
       id="linearGradient11766"><stop
         style="stop-color:#7db2e8;stop-opacity:1;"
         offset="0.04451345"
         id="stop11762" /><stop
         style="stop-color:#ffffff;stop-opacity:1;"
         offset="0.50488615"
         id="stop11764" /></linearGradient><style
       id="style6568">.cls-1{fill:none;}.cls-2{clip-path:url(#clip-path);}</style><clipPath
       id="clip-path"><rect
         class="cls-1"
         x="0.059999999"
         width="24"
         height="24"
         id="rect6570"
         y="0" /></clipPath><linearGradient
       id="linearGradient5222-7"><stop
         style="stop-color:#17191c;stop-opacity:1;"
         offset="0"
         id="stop5218-5" /><stop
         style="stop-color:#2e3038;stop-opacity:1;"
         offset="1"
         id="stop5220-3" /></linearGradient><style
       id="style6568-5">.cls-1{fill:none;}.cls-2{clip-path:url(#clip-path);}</style><linearGradient
       xlink:href="#linearGradient5222-7"
       id="linearGradient3859-6"
       gradientUnits="userSpaceOnUse"
       x1="2487.3772"
       y1="3121.3364"
       x2="2487.3772"
       y2="2945.2664" /><style
       id="style6568-9">.cls-1{fill:none;}.cls-2{clip-path:url(#clip-path);}</style><linearGradient
       id="linearGradient45366-7"><stop
         style="stop-color:#aaaaaa;stop-opacity:1;"
         offset="0"
         id="stop45364-5" /></linearGradient><linearGradient
       id="id"><stop
         style="stop-color:#0ac247;stop-opacity:1;"
         offset="0"
         id="stop23041" /><stop
         style="stop-color:#ffffff;stop-opacity:1;"
         offset="1"
         id="stop23043" /></linearGradient><style
       id="style22571">.cls-1{fill:#84d0f7;}.cls-2{fill:#aa392d;}.cls-3{fill:#7c211a;}.cls-4{fill:#e59973;}.cls-5{fill:#2d2d2d;}.cls-6{opacity:0.2;}.cls-7{opacity:0.3;}</style><style
       id="style23309">
      .cls-1 {
        fill: none;
      }
    </style><linearGradient
       xlink:href="#id"
       id="linearGradient7102"
       gradientUnits="userSpaceOnUse"
       gradientTransform="matrix(0,3.6501243,-3.6501243,0,-570.23775,3667.4976)"
       x1="-161.08073"
       y1="-123.59392"
       x2="-56.793404"
       y2="-123.59392" /><linearGradient
       inkscape:collect="always"
       xlink:href="#dorkodu"
       id="linearGradient7384"
       gradientUnits="userSpaceOnUse"
       gradientTransform="matrix(0.64519054,0,0,0.64519057,88.661822,129.72468)"
       x1="211.29193"
       y1="762.6239"
       x2="301.67172"
       y2="672.24414" /><linearGradient
       inkscape:collect="always"
       xlink:href="#dorkodu"
       id="linearGradient7511"
       gradientUnits="userSpaceOnUse"
       gradientTransform="matrix(0.64519054,0,0,0.64519057,91.067156,228.65111)"
       x1="211.29193"
       y1="762.6239"
       x2="301.67172"
       y2="672.24414" /><linearGradient
       inkscape:collect="always"
       xlink:href="#linearGradient11766"
       id="linearGradient7519"
       x1="183.2226"
       y1="668.23676"
       x2="244.85902"
       y2="668.23676"
       gradientUnits="userSpaceOnUse" /><linearGradient
       inkscape:collect="always"
       xlink:href="#silverline"
       id="linearGradient9162"
       x1="216.42819"
       y1="675.01855"
       x2="216.42819"
       y2="661.53064"
       gradientUnits="userSpaceOnUse"
       gradientTransform="translate(224.53669,29.278843)" /><linearGradient
       inkscape:collect="always"
       xlink:href="#dorkodu"
       id="linearGradient13586"
       x1="306.23956"
       y1="790.91174"
       x2="349.25031"
       y2="747.901"
       gradientUnits="userSpaceOnUse"
       gradientTransform="matrix(1.3126145,0,0,1.3126145,-158.10619,-240.73082)" /><linearGradient
       inkscape:collect="always"
       xlink:href="#dorkodu"
       id="linearGradient16776"
       x1="152.42097"
       y1="721.20874"
       x2="213.4021"
       y2="660.2276"
       gradientUnits="userSpaceOnUse"
       gradientTransform="translate(75.397794,-187.90219)" /><linearGradient
       id="linearGradient9181"><stop
         style="stop-color:#9edcfa;stop-opacity:1;"
         offset="0.04900488"
         id="stop9177" /><stop
         style="stop-color:#ffffff;stop-opacity:1;"
         offset="0.3992942"
         id="stop9179" /></linearGradient><linearGradient
       id="linearGradient9175"><stop
         style="stop-color:#a8d8f0;stop-opacity:1;"
         offset="0"
         id="stop9171" /><stop
         style="stop-color:#ffffff;stop-opacity:1;"
         offset="0.50965863"
         id="stop9173" /></linearGradient><linearGradient
       id="linearGradient997"><stop
         style="stop-color:#006644;stop-opacity:1;"
         offset="0.0001"
         id="stop993" /><stop
         style="stop-color:#47eb55;stop-opacity:1;"
         offset="0.99989998"
         id="stop995" /></linearGradient><style
       id="style6568-7">.cls-1{fill:none;}.cls-2{clip-path:url(#clip-path);}</style><style
       id="style6568-5-5">.cls-1{fill:none;}.cls-2{clip-path:url(#clip-path);}</style><style
       id="style6568-9-3">.cls-1{fill:none;}.cls-2{clip-path:url(#clip-path);}</style><style
       id="style22571-5">.cls-1{fill:#84d0f7;}.cls-2{fill:#aa392d;}.cls-3{fill:#7c211a;}.cls-4{fill:#e59973;}.cls-5{fill:#2d2d2d;}.cls-6{opacity:0.2;}.cls-7{opacity:0.3;}</style><style
       id="style23309-6">
      .cls-1 {
        fill: none;
      }
    </style><linearGradient
       xlink:href="#linearGradient997"
       id="linearGradient7511-2"
       gradientUnits="userSpaceOnUse"
       gradientTransform="matrix(0.64519054,0,0,0.64519057,88.661826,230.73026)"
       x1="211.29193"
       y1="762.6239"
       x2="301.67172"
       y2="672.24414" /><linearGradient
       xlink:href="#linearGradient9181"
       id="linearGradient7519-9"
       x1="183.2226"
       y1="668.23676"
       x2="244.85902"
       y2="668.23676"
       gradientUnits="userSpaceOnUse" /><linearGradient
       xlink:href="#linearGradient9175"
       id="linearGradient9162-1"
       x1="216.42819"
       y1="675.01855"
       x2="216.42819"
       y2="663.04755"
       gradientUnits="userSpaceOnUse" /><linearGradient
       inkscape:collect="always"
       xlink:href="#linearGradient983"
       id="linearGradient985"
       x1="183.2226"
       y1="668.23674"
       x2="244.85903"
       y2="668.23674"
       gradientUnits="userSpaceOnUse" /><linearGradient
       inkscape:collect="always"
       xlink:href="#linearGradient991"
       id="linearGradient993"
       x1="214.11026"
       y1="674.91003"
       x2="214.11026"
       y2="661.54034"
       gradientUnits="userSpaceOnUse" /></defs><g
     inkscape:label="Layer 1"
     inkscape:groupmode="layer"
     id="layer1"
     transform="translate(-220.1774,-558.63916)"><rect
       style="font-weight:900;font-size:53.7023px;font-family:Rubik;-inkscape-font-specification:'Rubik Heavy';letter-spacing:-0.719445px;fill:#000000;fill-opacity:1;stroke-width:12.4194"
       id="rect22610"
       width="331.84866"
       height="230.70428"
       x="-409.98575"
       y="587.073"
       rx="115.35214"
       ry="115.35214" /><g
       style="fill:#c2d3d6;fill-opacity:1"
       id="g2601"
       transform="matrix(0.12296957,0,0,0.12296957,989.65709,3098.4858)" /><g
       style="fill:#ffffff;fill-opacity:1"
       id="g69027"
       transform="matrix(0.01311796,0,0,0.01311796,146.44775,764.86626)"><g
         id="g69025"
         style="fill:#ffffff;fill-opacity:1">
	<g
   id="g69023"
   style="fill:#ffffff;fill-opacity:0.619433"
   transform="translate(-15.400024,-34.743674)">
		
		
	</g>
</g></g><g
       style="fill:#c2d3d6;fill-opacity:1"
       id="g45797"
       transform="matrix(0.03190418,0,0,0.03190418,-256.16264,1085.3908)" /><g
       style="fill:#c2d3d6;fill-opacity:1"
       id="g51940"
       transform="matrix(0.03190418,0,0,0.03190418,239.16619,573.51626)" /><text
       xml:space="preserve"
       style="font-style:normal;font-variant:normal;font-weight:900;font-stretch:normal;font-size:54.7666px;font-family:Rubik;-inkscape-font-specification:'Rubik Heavy';letter-spacing:-0.733703px;fill:#141a1f;fill-opacity:1;stroke-width:110.871"
       x="-52.411217"
       y="463.33594"
       id="text22488"
       transform="scale(0.92919057,1.0762055)"><tspan
         sodipodi:role="line"
         id="tspan22486"
         style="font-style:normal;font-variant:normal;font-weight:900;font-stretch:normal;font-family:Rubik;-inkscape-font-specification:'Rubik Heavy';fill:#141a1f;fill-opacity:1;stroke-width:110.871"
         x="-52.411217"
         y="463.33594">Forum</tspan></text><rect
       style="fill:url(#linearGradient16776);fill-opacity:1;stroke-width:4.14696"
       id="rect27212"
       width="66.145836"
       height="66.145836"
       x="223.10681"
       y="471.8967"
       rx="0"
       ry="0"
       inkscape:export-filename="../../../../Desktop/rect15941.png"
       inkscape:export-xdpi="191.99998"
       inkscape:export-ydpi="191.99998" /><g
       aria-label="Forum"
       transform="matrix(2.1594696,0,0,2.4745758,-96.260624,-1061.9391)"
       id="text57063"
       style="font-weight:900;font-size:19.1621px;font-family:Rubik;-inkscape-font-specification:'Rubik Heavy';letter-spacing:-0.538838px;fill:url(#linearGradient985);stroke-width:38.7921;fill-opacity:1"><path
         id="path68220"
         style="fill-opacity:1;fill:url(#linearGradient993)"
         d="M 183.73999 661.43418 C 183.59947 661.43418 183.47821 661.48526 183.37601 661.58746 C 183.27381 661.68966 183.22262 661.81113 183.22262 661.95165 L 183.22262 674.33023 C 183.22262 674.47075 183.27381 674.59223 183.37601 674.69443 C 183.47821 674.79663 183.59947 674.84771 183.73999 674.84771 L 187.39987 674.84771 C 187.54039 674.84771 187.66188 674.79663 187.76408 674.69443 C 187.86628 674.59223 187.91724 674.47075 187.91724 674.33023 L 187.91724 670.72771 L 193.01436 670.72771 C 193.15489 670.72771 193.27638 670.67662 193.37858 670.57443 C 193.48078 670.47223 193.53173 670.35096 193.53173 670.21044 L 193.53173 667.3169 C 193.53173 667.17638 193.48078 667.05511 193.37858 666.95291 C 193.27638 666.85071 193.15489 666.79963 193.01436 666.79963 L 187.91724 666.79963 L 187.91724 665.38168 L 193.39772 665.38168 C 193.53824 665.38168 193.6595 665.33039 193.7617 665.22819 C 193.86389 665.126 193.91509 665.00473 193.91509 664.8642 L 193.91509 661.95165 C 193.91509 661.81113 193.86389 661.68966 193.7617 661.58746 C 193.6595 661.48526 193.53824 661.43418 193.39772 661.43418 L 183.73999 661.43418 z M 235.51359 664.68857 C 235.46745 664.68905 235.42094 664.69011 235.37384 664.69171 C 234.74788 664.71726 234.19843 664.87694 233.72577 665.17076 C 233.26588 665.4518 232.92734 665.7392 232.71017 666.03302 L 232.71017 665.40068 C 232.71017 665.26016 232.65922 665.13889 232.55702 665.03669 C 232.45483 664.93449 232.33333 664.88341 232.1928 664.88341 L 229.03115 664.88341 C 228.89062 664.88341 228.76937 664.93449 228.66717 665.03669 C 228.56497 665.13889 228.51378 665.26016 228.51378 665.40068 L 228.51378 674.33023 C 228.51378 674.47075 228.56497 674.59223 228.66717 674.69443 C 228.76937 674.79663 228.89062 674.84771 229.03115 674.84771 L 232.4802 674.84771 C 232.62072 674.84771 232.74222 674.79663 232.84442 674.69443 C 232.94661 674.59223 232.99757 674.47075 232.99757 674.33023 L 232.99757 669.06063 C 232.99757 668.85623 233.02967 668.69032 233.09353 668.56257 C 233.15741 668.42204 233.24682 668.31344 233.36179 668.23679 C 233.47676 668.16015 233.61076 668.12173 233.76406 668.12173 C 233.93012 668.12173 234.06436 668.16015 234.16656 668.23679 C 234.28154 668.30067 234.37095 668.40283 234.43482 668.54336 C 234.49868 668.68388 234.53054 668.85623 234.53054 669.06063 L 234.53054 674.33023 C 234.53054 674.47075 234.58173 674.59223 234.68393 674.69443 C 234.78612 674.79663 234.90738 674.84771 235.04791 674.84771 L 238.42062 674.84771 C 238.56114 674.84771 238.6824 674.79663 238.7846 674.69443 C 238.88679 674.59223 238.93799 674.47075 238.93799 674.33023 L 238.93799 669.06063 C 238.93799 668.85623 238.96344 668.68388 239.01457 668.54336 C 239.07844 668.40282 239.16785 668.30066 239.28283 668.23679 C 239.3978 668.16015 239.53203 668.12173 239.68533 668.12173 C 239.8514 668.12173 239.9854 668.16015 240.0876 668.23679 C 240.20258 668.30067 240.29199 668.40283 240.35585 668.54336 C 240.41972 668.68388 240.45181 668.85623 240.45181 669.06063 L 240.45181 674.33023 C 240.45181 674.47075 240.50277 674.59223 240.60497 674.69443 C 240.70716 674.79663 240.82866 674.84771 240.96918 674.84771 L 244.34166 674.84771 C 244.48218 674.84771 244.60344 674.79663 244.70564 674.69443 C 244.80783 674.59223 244.85903 674.47075 244.85903 674.33023 L 244.85903 668.96498 C 244.85903 667.95578 244.69932 667.13804 244.37995 666.51207 C 244.06058 665.88611 243.63264 665.42636 243.0961 665.13254 C 242.57233 664.83873 241.98467 664.69171 241.33316 664.69171 C 240.74552 664.69171 240.18358 664.84496 239.64704 665.15155 C 239.1105 665.44537 238.6953 665.81582 238.40148 666.26294 C 237.90646 665.19867 236.94373 664.67391 235.51359 664.68857 z M 200.00627 664.69171 C 198.89487 664.69171 197.93683 664.85139 197.13202 665.17076 C 196.32721 665.49013 195.69472 665.96919 195.23484 666.60792 C 194.77494 667.23389 194.51308 668.01966 194.44921 668.96498 C 194.43641 669.24603 194.43007 669.54609 194.43007 669.86546 C 194.43007 670.17205 194.43641 670.47232 194.44921 670.76614 C 194.51308 671.69869 194.75584 672.48425 195.17741 673.12299 C 195.61175 673.76172 196.23125 674.24078 197.03606 674.56015 C 197.84087 674.87952 198.831 675.03921 200.00627 675.03921 C 201.18154 675.03921 202.17167 674.87952 202.97648 674.56015 C 203.78129 674.24078 204.39443 673.76172 204.81599 673.12299 C 205.25034 672.48425 205.49946 671.69869 205.56333 670.76614 C 205.58886 670.47232 205.60162 670.17205 205.60162 669.86546 C 205.60162 669.54609 205.58886 669.24603 205.56333 668.96498 C 205.49946 668.01966 205.2376 667.23389 204.7777 666.60792 C 204.31782 665.96919 203.68533 665.49013 202.88052 665.17076 C 202.07571 664.85139 201.11767 664.69171 200.00627 664.69171 z M 206.99818 664.88341 C 206.85766 664.88341 206.7364 664.93449 206.6342 665.03669 C 206.532 665.13889 206.48081 665.26016 206.48081 665.40068 L 206.48081 674.33023 C 206.48081 674.47075 206.532 674.59223 206.6342 674.69443 C 206.7364 674.79663 206.85766 674.84771 206.99818 674.84771 L 210.63892 674.84771 C 210.77944 674.84771 210.90093 674.79663 211.00313 674.69443 C 211.10533 674.59223 211.15629 674.47075 211.15629 674.33023 L 211.15629 670.05716 C 211.15629 669.67392 211.25207 669.38652 211.44369 669.1949 C 211.63531 669.00328 211.92289 668.90735 212.30613 668.90735 L 214.77787 668.90735 C 214.9184 668.90735 215.0399 668.85627 215.14209 668.75407 C 215.24429 668.65187 215.29548 668.5306 215.29548 668.39008 L 215.29548 665.40068 C 215.29548 665.26016 215.24429 665.13889 215.14209 665.03669 C 215.0399 664.93449 214.9184 664.88341 214.77787 664.88341 L 213.85824 664.88341 C 213.28338 664.88341 212.74031 664.99201 212.22931 665.20919 C 211.7311 665.42636 211.27768 665.71376 210.86888 666.07144 L 210.86888 665.40068 C 210.86888 665.26016 210.81792 665.13889 210.71573 665.03669 C 210.61353 664.93449 210.49203 664.88341 210.35151 664.88341 L 206.99818 664.88341 z M 216.559 664.88341 C 216.41848 664.88341 216.29698 664.93449 216.19478 665.03669 C 216.09259 665.13889 216.04163 665.26016 216.04163 665.40068 L 216.04163 670.6895 C 216.04163 671.6987 216.21408 672.52268 216.559 673.16141 C 216.91669 673.80015 217.37648 674.27277 217.93857 674.57936 C 218.51343 674.88596 219.1202 675.03921 219.75893 675.03921 C 220.43599 675.03921 221.05574 674.93704 221.61783 674.73264 C 222.17992 674.51548 222.6206 674.17056 222.93997 673.69789 L 222.93997 674.33023 C 222.93997 674.47075 222.99092 674.59223 223.09312 674.69443 C 223.19532 674.79663 223.31681 674.84771 223.45734 674.84771 L 226.81067 674.84771 C 226.95119 674.84771 227.07245 674.79663 227.17465 674.69443 C 227.27684 674.59223 227.32804 674.47075 227.32804 674.33023 L 227.32804 665.40068 C 227.32804 665.26016 227.27684 665.13889 227.17465 665.03669 C 227.07245 664.93449 226.95119 664.88341 226.81067 664.88341 L 223.16994 664.88341 C 223.02941 664.88341 222.90791 664.93449 222.80572 665.03669 C 222.70352 665.13889 222.65257 665.26016 222.65257 665.40068 L 222.65257 670.55543 C 222.65257 670.90034 222.56953 671.1622 222.40346 671.34104 C 222.23738 671.51989 222.001 671.60918 221.69441 671.60918 C 221.05567 671.60918 220.73624 671.25803 220.73624 670.55543 L 220.73624 665.40068 C 220.73624 665.26016 220.68505 665.13889 220.58285 665.03669 C 220.48066 664.93449 220.3594 664.88341 220.21887 664.88341 L 216.559 664.88341 z M 200.00627 667.75774 C 200.37674 667.75774 200.60675 667.87257 200.69618 668.10252 C 200.78561 668.31968 200.84318 668.63906 200.86871 669.06063 C 200.88151 669.25225 200.88786 669.52054 200.88786 669.86546 C 200.88786 670.21038 200.88151 670.47866 200.86871 670.67028 C 200.84317 671.1174 200.7856 671.44965 200.69618 671.66682 C 200.60675 671.87121 200.37674 671.97338 200.00627 671.97338 C 199.64858 671.97338 199.41856 671.87121 199.31636 671.66682 C 199.22693 671.44965 199.1696 671.1174 199.14407 670.67028 C 199.13127 670.47866 199.12492 670.21038 199.12492 669.86546 C 199.12492 669.52054 199.13127 669.25225 199.14407 669.06063 C 199.16961 668.63906 199.22694 668.31968 199.31636 668.10252 C 199.41856 667.87257 199.64858 667.75774 200.00627 667.75774 z " /></g><rect
       style="fill:url(#linearGradient7384);fill-opacity:1;stroke-width:4.14696"
       id="rect7370"
       width="66.145836"
       height="66.145836"
       x="220.1774"
       y="558.63916"
       rx="13.229167"
       ry="13.229167"
       inkscape:export-filename="../../../../Desktop/rect15941.png"
       inkscape:export-xdpi="191.99998"
       inkscape:export-ydpi="191.99998" /><path
       d="m 278.57521,581.8309 v 12.56803 c 0,0.80047 -0.0401,1.60096 -0.12012,2.36153 -0.72045,8.48538 -5.72363,12.72814 -14.92956,12.72814 h -1.24079 c -0.80048,0 -1.56099,0.36019 -2.00125,1.00065 l -3.76246,5.04316 c -1.68105,2.24145 -4.36273,2.24145 -6.04387,0 l -3.76237,-5.04316 c -0.40025,-0.52036 -1.32077,-1.00065 -2.00125,-1.00065 h -1.2408 c -10.0464,0 -15.04962,-2.48163 -15.04962,-15.04978 V 581.8709 c 0,-9.20584 4.24263,-14.20899 12.72806,-14.92937 0.76048,-0.0801 1.561,-0.12018 2.3615,-0.12018 h 20.13291 c 9.88633,-0.0401 14.92957,5.00324 14.92957,15.00955 z"
       fill="#292d32"
       id="path7372"
       style="fill:#fefeff;fill-opacity:0.5;stroke-width:4.00254" /><g
       style="fill:#c2d3d6;fill-opacity:1"
       id="g7382"
       transform="matrix(0.03190323,0,0,0.03190323,239.4115,573.10715)"><g
         id="g7380"
         style="fill:#c2d3d6;fill-opacity:1">
	<g
   id="g7378"
   style="fill:#c2d3d6;fill-opacity:1"
   transform="translate(-15.400024,-34.743674)">
		
		<path
   d="m 900.40846,846.60929 h -35.71137 v -38.92021 c 0,-17.18286 -13.87049,-31.05336 -31.05336,-31.05336 H 792.6533 V 329.05333 H 674.02845 V 776.63572 H 521.76452 V 329.05333 H 411.21457 V 776.63572 H 258.94961 V 329.05333 H 140.32578 V 776.63572 H 99.335348 c -17.182858,0 -31.053357,13.8705 -31.053357,31.05336 v 38.92021 H 32.57063 c -17.182858,0 -31.0533566,13.8705 -31.0533566,31.05336 v 42.23256 c 0,17.18286 13.8704986,31.05336 31.0533566,31.05336 h 867.83783 c 17.18285,0 31.05335,-13.8705 31.05335,-31.05336 v -42.23256 c 0,-17.18286 -13.8705,-31.05336 -31.05335,-31.05336 z"
   id="path7374"
   style="fill:#ffffff;fill-opacity:1;stroke-width:1.03511" />
	<path
   d="m 11.338589,259.94053 h 36.359822 v 40.93202 c 0,18.07104 14.587474,32.65851 32.658524,32.65851 H 466.48954 852.62215 c 18.07104,0 32.65852,-14.58747 32.65852,-32.65851 v -40.93202 h 36.35983 c 18.07105,0 32.65852,-14.58747 32.65852,-32.65853 v -52.79796 c 0,-14.36974 -9.47206,-27.10657 -23.18864,-31.24332 L 480.64047,7.3813072 c -4.5711,-1.415203 -9.36101,-2.068374 -14.15093,-2.068374 -4.78883,0 -9.47098,0.653171 -14.15203,2.068374 L 1.8676174,143.24072 C -11.957825,147.37747 -21.319934,160.1143 -21.319934,174.48404 V 227.282 c 0,17.96219 14.5874741,32.65853 32.658523,32.65853 z"
   id="path7376"
   style="fill:#ffffff;fill-opacity:1;stroke-width:1.08862" /></g>
</g></g><g
       aria-label="Forum"
       transform="matrix(2.1594696,0,0,2.4745758,-578.73546,-1035.4653)"
       id="g7495"
       style="font-weight:900;font-size:19.1621px;font-family:Rubik;-inkscape-font-specification:'Rubik Heavy';letter-spacing:-0.538838px;fill:url(#linearGradient7519);fill-opacity:1;stroke-width:38.7921"><path
         id="path7485"
         style="fill:url(#linearGradient9162);fill-opacity:1"
         d="m 408.27668,690.71307 c -0.14052,0 -0.26178,0.0511 -0.36398,0.15328 -0.1022,0.1022 -0.15339,0.22347 -0.15339,0.36399 v 12.37879 c 0,0.14052 0.0512,0.26179 0.15339,0.36399 0.1022,0.1022 0.22346,0.15328 0.36398,0.15328 h 3.65988 c 0.14052,0 0.26201,-0.0511 0.36421,-0.15328 0.1022,-0.1022 0.15316,-0.22347 0.15316,-0.36399 v -3.60252 h 5.09712 c 0.14053,0 0.26202,-0.0511 0.36422,-0.15328 0.1022,-0.1022 0.15315,-0.22347 0.15315,-0.36399 v -2.89354 c 0,-0.14052 -0.051,-0.26179 -0.15315,-0.36399 -0.1022,-0.1022 -0.22369,-0.15349 -0.36422,-0.15349 h -5.09712 v -1.41795 h 5.48048 c 0.14052,0 0.26178,-0.0511 0.36398,-0.15328 0.10219,-0.1022 0.15339,-0.22347 0.15339,-0.36399 v -2.91276 c 0,-0.14052 -0.0512,-0.26179 -0.15339,-0.36399 -0.1022,-0.10219 -0.22346,-0.15328 -0.36398,-0.15328 z m 51.7736,3.2544 c -0.0461,4.7e-4 -0.0926,0.002 -0.13975,0.003 -0.62596,0.0256 -1.17541,0.18524 -1.64807,0.47906 -0.45989,0.28104 -0.79843,0.56843 -1.0156,0.86225 v -0.63233 c 0,-0.14052 -0.051,-0.26179 -0.15315,-0.36399 -0.1022,-0.1022 -0.22369,-0.15349 -0.36422,-0.15349 h -3.16165 c -0.14053,0 -0.26179,0.0513 -0.36398,0.15349 -0.1022,0.1022 -0.15339,0.22347 -0.15339,0.36399 v 8.92955 c 0,0.14052 0.0512,0.26179 0.15339,0.36399 0.10219,0.1022 0.22345,0.15328 0.36398,0.15328 h 3.44905 c 0.14052,0 0.26202,-0.0511 0.36422,-0.15328 0.10219,-0.1022 0.15315,-0.22347 0.15315,-0.36399 v -5.26961 c 0,-0.20439 0.0321,-0.37052 0.096,-0.49826 0.0639,-0.14053 0.15329,-0.24913 0.26826,-0.32578 0.11497,-0.0766 0.24896,-0.11485 0.40226,-0.11485 0.16607,0 0.30031,0.0382 0.40251,0.11485 0.11498,0.0639 0.20439,0.16625 0.26826,0.30677 0.0639,0.14052 0.0957,0.31288 0.0957,0.51727 v 5.26961 c 0,0.14052 0.0512,0.26179 0.15339,0.36399 0.10219,0.1022 0.22345,0.15328 0.36398,0.15328 h 3.37271 c 0.14052,0 0.26178,-0.0511 0.36398,-0.15328 0.10219,-0.1022 0.15339,-0.22347 0.15339,-0.36399 v -5.26961 c 0,-0.20439 0.0254,-0.37675 0.0766,-0.51727 0.0639,-0.14053 0.15328,-0.2429 0.26826,-0.30677 0.11497,-0.0766 0.2492,-0.11485 0.4025,-0.11485 0.16607,0 0.30007,0.0382 0.40227,0.11485 0.11498,0.0639 0.20439,0.16625 0.26825,0.30677 0.0639,0.14052 0.096,0.31288 0.096,0.51727 v 5.26961 c 0,0.14052 0.051,0.26179 0.15316,0.36399 0.10219,0.1022 0.22369,0.15328 0.36421,0.15328 h 3.37248 c 0.14052,0 0.26178,-0.0511 0.36398,-0.15328 0.10219,-0.1022 0.15339,-0.22347 0.15339,-0.36399 v -5.36546 c 0,-1.0092 -0.15972,-1.82673 -0.47908,-2.4527 -0.31937,-0.62596 -0.74732,-1.08592 -1.28385,-1.37974 -0.52377,-0.29382 -1.11143,-0.44063 -1.76294,-0.44063 -0.58764,0 -1.14958,0.15325 -1.68612,0.45985 -0.53654,0.29382 -0.95174,0.66427 -1.24556,1.11139 -0.49502,-1.06427 -1.45775,-1.58904 -2.88789,-1.57437 z m -35.50732,0.003 c -1.1114,0 -2.06944,0.15968 -2.87425,0.47906 -0.80481,0.31936 -1.4373,0.79843 -1.89718,1.43716 -0.4599,0.62597 -0.72176,1.41153 -0.78563,2.35685 -0.0128,0.28105 -0.0191,0.58132 -0.0191,0.90068 0,0.3066 0.006,0.60686 0.0191,0.90068 0.0639,0.93256 0.30663,1.71811 0.72819,2.35685 0.43434,0.63874 1.05409,1.1178 1.8589,1.43717 0.80481,0.31937 1.7947,0.47905 2.96997,0.47905 1.17527,0 2.1654,-0.15968 2.97021,-0.47905 0.80481,-0.31937 1.41794,-0.79843 1.83951,-1.43717 0.43435,-0.63874 0.68347,-1.42429 0.74734,-2.35685 0.0255,-0.29382 0.0383,-0.59408 0.0383,-0.90068 0,-0.31936 -0.0128,-0.61963 -0.0383,-0.90068 -0.0639,-0.94532 -0.32573,-1.73088 -0.78563,-2.35685 -0.45988,-0.63873 -1.09237,-1.1178 -1.89718,-1.43716 -0.80481,-0.31938 -1.76285,-0.47906 -2.87425,-0.47906 z m 6.99191,0.1915 c -0.14052,0 -0.26178,0.0513 -0.36398,0.15349 -0.1022,0.1022 -0.15339,0.22347 -0.15339,0.36399 v 8.92955 c 0,0.14052 0.0512,0.26179 0.15339,0.36399 0.1022,0.1022 0.22346,0.15328 0.36398,0.15328 h 3.64073 c 0.14052,0 0.26202,-0.0511 0.36422,-0.15328 0.1022,-0.1022 0.15315,-0.22347 0.15315,-0.36399 v -4.27307 c 0,-0.38324 0.0958,-0.67085 0.28741,-0.86247 0.19162,-0.19162 0.4792,-0.28735 0.86244,-0.28735 h 2.47174 c 0.14053,0 0.26203,-0.0511 0.36422,-0.15328 0.1022,-0.1022 0.15339,-0.22347 0.15339,-0.36399 v -2.98939 c 0,-0.14052 -0.0512,-0.26179 -0.15339,-0.36399 -0.10219,-0.1022 -0.22369,-0.15349 -0.36422,-0.15349 h -0.91963 c -0.57486,0 -1.11794,0.1086 -1.62893,0.32577 -0.49821,0.21718 -0.95163,0.50478 -1.36043,0.86247 v -0.67076 c 0,-0.14052 -0.051,-0.26179 -0.15315,-0.36399 -0.1022,-0.1022 -0.2237,-0.15349 -0.36422,-0.15349 z m 9.56081,0 c -0.14052,0 -0.26201,0.0513 -0.36421,0.15349 -0.1022,0.1022 -0.15316,0.22347 -0.15316,0.36399 v 5.28881 c 0,1.00921 0.17246,1.83319 0.51737,2.47192 0.3577,0.63874 0.81749,1.11136 1.37958,1.41795 0.57486,0.30659 1.18163,0.45984 1.82036,0.45984 0.67706,0 1.29681,-0.10216 1.8589,-0.30656 0.56208,-0.21717 1.00277,-0.56208 1.32214,-1.03475 v 0.63234 c 0,0.14052 0.051,0.26179 0.15315,0.36399 0.10219,0.1022 0.22369,0.15328 0.36422,0.15328 h 3.35333 c 0.14052,0 0.26178,-0.0511 0.36398,-0.15328 0.10219,-0.1022 0.15339,-0.22347 0.15339,-0.36399 v -8.92955 c 0,-0.14052 -0.0512,-0.26179 -0.15339,-0.36399 -0.1022,-0.1022 -0.22346,-0.15349 -0.36398,-0.15349 h -3.64073 c -0.14053,0 -0.26203,0.0513 -0.36422,0.15349 -0.1022,0.1022 -0.15315,0.22347 -0.15315,0.36399 v 5.15454 c 0,0.34491 -0.083,0.60677 -0.24912,0.78561 -0.16607,0.17885 -0.40245,0.26835 -0.70905,0.26835 -0.63873,0 -0.95816,-0.35136 -0.95816,-1.05396 v -5.15454 c 0,-0.14052 -0.0512,-0.26179 -0.15339,-0.36399 -0.10219,-0.1022 -0.22345,-0.15349 -0.36398,-0.15349 z m -16.55272,2.87433 c 0.37047,0 0.60048,0.11504 0.68991,0.34498 0.0894,0.21717 0.147,0.53655 0.17253,0.95811 0.0128,0.19162 0.0191,0.45991 0.0191,0.80483 0,0.34492 -0.006,0.61321 -0.0191,0.80483 -0.0255,0.44711 -0.0831,0.77915 -0.17253,0.99633 -0.0894,0.20439 -0.31944,0.30677 -0.68991,0.30677 -0.35769,0 -0.58771,-0.10238 -0.68991,-0.30677 -0.0894,-0.21718 -0.14676,-0.54922 -0.17229,-0.99633 -0.0128,-0.19162 -0.0191,-0.45991 -0.0191,-0.80483 0,-0.34492 0.006,-0.61321 0.0191,-0.80483 0.0255,-0.42156 0.0829,-0.74094 0.17229,-0.95811 0.1022,-0.22994 0.33222,-0.34498 0.68991,-0.34498 z" /></g><rect
       style="fill:url(#linearGradient7511);fill-opacity:1;stroke-width:4.14696"
       id="rect7497"
       width="66.145836"
       height="66.145836"
       x="222.5827"
       y="657.56561"
       rx="13.229167"
       ry="13.229167"
       inkscape:export-filename="../../../../Desktop/rect15941.png"
       inkscape:export-xdpi="191.99998"
       inkscape:export-ydpi="191.99998" /><path
       d="m 281.4665,681.27571 v 12.56803 c 0,0.80047 -0.0401,1.60096 -0.12012,2.36153 -0.72045,8.48538 -5.72362,12.72814 -14.92955,12.72814 h -1.24079 c -0.80048,0 -1.56099,0.36019 -2.00125,1.00065 l -3.76246,5.04316 c -1.68105,2.24145 -4.36273,2.24145 -6.04387,0 l -3.76237,-5.04316 c -0.40025,-0.52036 -1.32077,-1.00065 -2.00125,-1.00065 h -1.2408 c -10.0464,0 -15.04962,-2.48163 -15.04962,-15.04978 v -12.56792 c 0,-9.20584 4.24263,-14.20899 12.72806,-14.92937 0.76048,-0.0801 1.561,-0.12018 2.3615,-0.12018 h 20.13291 c 9.88633,-0.0401 14.92956,5.00324 14.92956,15.00955 z"
       fill="#292d32"
       id="path7499"
       style="fill:#fefeff;fill-opacity:0.5;stroke-width:4.00254" /><g
       style="fill:#c2d3d6;fill-opacity:1"
       id="g7509"
       transform="matrix(0.03190323,0,0,0.03190323,242.3028,672.55196)"><g
         id="g7507"
         style="fill:#c2d3d6;fill-opacity:1">
	<g
   id="g7505"
   style="fill:#c2d3d6;fill-opacity:1"
   transform="translate(-15.400024,-34.743674)">
		
		<path
   d="m 900.40846,846.60929 h -35.71137 v -38.92021 c 0,-17.18286 -13.87049,-31.05336 -31.05336,-31.05336 H 792.6533 V 329.05333 H 674.02845 V 776.63572 H 521.76452 V 329.05333 H 411.21457 V 776.63572 H 258.94961 V 329.05333 H 140.32578 V 776.63572 H 99.335348 c -17.182858,0 -31.053357,13.8705 -31.053357,31.05336 v 38.92021 H 32.57063 c -17.182858,0 -31.0533566,13.8705 -31.0533566,31.05336 v 42.23256 c 0,17.18286 13.8704986,31.05336 31.0533566,31.05336 h 867.83783 c 17.18285,0 31.05335,-13.8705 31.05335,-31.05336 v -42.23256 c 0,-17.18286 -13.8705,-31.05336 -31.05335,-31.05336 z"
   id="path7501"
   style="fill:#ffffff;fill-opacity:1;stroke-width:1.03511" />
	<path
   d="m 11.338589,259.94053 h 36.359822 v 40.93202 c 0,18.07104 14.587474,32.65851 32.658524,32.65851 H 466.48954 852.62215 c 18.07104,0 32.65852,-14.58747 32.65852,-32.65851 v -40.93202 h 36.35983 c 18.07105,0 32.65852,-14.58747 32.65852,-32.65853 v -52.79796 c 0,-14.36974 -9.47206,-27.10657 -23.18864,-31.24332 L 480.64047,7.3813072 c -4.5711,-1.415203 -9.36101,-2.068374 -14.15093,-2.068374 -4.78883,0 -9.47098,0.653171 -14.15203,2.068374 L 1.8676174,143.24072 C -11.957825,147.37747 -21.319934,160.1143 -21.319934,174.48404 V 227.282 c 0,17.96219 14.5874741,32.65853 32.658523,32.65853 z"
   id="path7503"
   style="fill:#ffffff;fill-opacity:1;stroke-width:1.08862" /></g>
</g></g><path
       d="m 305.77913,755.23374 v 16.497 c 0,1.0507 -0.0526,2.10142 -0.15769,3.09977 -0.94567,11.13803 -7.51292,16.70713 -19.59676,16.70713 h -1.62867 c -1.05072,0 -2.04898,0.47279 -2.62688,1.31348 l -4.93866,6.61974 c -2.20656,2.94214 -5.72658,2.94214 -7.93325,0 l -4.93855,-6.61974 c -0.52538,-0.68304 -1.73366,-1.31348 -2.62687,-1.31348 h -1.6287 c -13.18704,0 -19.75435,-3.25742 -19.75435,-19.75456 v -16.49682 c 0,-12.08372 5.56893,-18.65092 16.70705,-19.59652 0.99822,-0.10515 2.04898,-0.15773 3.09974,-0.15773 h 26.42674 c 12.97695,-0.0526 19.59678,6.56731 19.59678,19.70173 z"
       fill="#292d32"
       id="path13568"
       style="fill:url(#linearGradient13586);fill-opacity:1.0;stroke-width:5.25378" /><g
       style="fill:#c2d3d6;fill-opacity:1"
       id="g13578"
       transform="matrix(0.04187664,0,0,0.04187664,254.37225,743.78283)"><g
         id="g13576"
         style="fill:#c2d3d6;fill-opacity:1">
	<g
   id="g13574"
   style="fill:#c2d3d6;fill-opacity:1"
   transform="translate(-15.400024,-34.743674)">
		
		<path
   d="m 900.40846,846.60929 h -35.71137 v -38.92021 c 0,-17.18286 -13.87049,-31.05336 -31.05336,-31.05336 H 792.6533 V 329.05333 H 674.02845 V 776.63572 H 521.76452 V 329.05333 H 411.21457 V 776.63572 H 258.94961 V 329.05333 H 140.32578 V 776.63572 H 99.335348 c -17.182858,0 -31.053357,13.8705 -31.053357,31.05336 v 38.92021 H 32.57063 c -17.182858,0 -31.0533566,13.8705 -31.0533566,31.05336 v 42.23256 c 0,17.18286 13.8704986,31.05336 31.0533566,31.05336 h 867.83783 c 17.18285,0 31.05335,-13.8705 31.05335,-31.05336 v -42.23256 c 0,-17.18286 -13.8705,-31.05336 -31.05335,-31.05336 z"
   id="path13570"
   style="fill:#ffffff;fill-opacity:1;stroke-width:1.03511" />
	<path
   d="m 11.338589,259.94053 h 36.359822 v 40.93202 c 0,18.07104 14.587474,32.65851 32.658524,32.65851 H 466.48954 852.62215 c 18.07104,0 32.65852,-14.58747 32.65852,-32.65851 v -40.93202 h 36.35983 c 18.07105,0 32.65852,-14.58747 32.65852,-32.65853 v -52.79796 c 0,-14.36974 -9.47206,-27.10657 -23.18864,-31.24332 L 480.64047,7.3813072 c -4.5711,-1.415203 -9.36101,-2.068374 -14.15093,-2.068374 -4.78883,0 -9.47098,0.653171 -14.15203,2.068374 L 1.8676174,143.24072 C -11.957825,147.37747 -21.319934,160.1143 -21.319934,174.48404 V 227.282 c 0,17.96219 14.5874741,32.65853 32.658523,32.65853 z"
   id="path13572"
   style="fill:#ffffff;fill-opacity:0.990395;stroke-width:1.08862" /></g>
</g></g><path
       d="m 281.29076,495.08341 v 12.56803 c 0,0.80047 -0.0401,1.60096 -0.12012,2.36153 -0.72045,8.48538 -5.72363,12.72814 -14.92956,12.72814 h -1.24079 c -0.80048,0 -1.56099,0.36019 -2.00125,1.00065 l -3.76246,5.04316 c -1.68105,2.24145 -4.36273,2.24145 -6.04387,0 l -3.76237,-5.04316 c -0.40025,-0.52036 -1.32077,-1.00065 -2.00125,-1.00065 h -1.2408 c -10.0464,0 -15.04962,-2.48163 -15.04962,-15.04978 v -12.56792 c 0,-9.20584 4.24263,-14.20899 12.72806,-14.92937 0.76048,-0.0801 1.561,-0.12018 2.3615,-0.12018 h 20.13291 c 9.88633,-0.0401 14.92957,5.00324 14.92957,15.00955 z"
       fill="#292d32"
       id="path15130"
       style="fill:#fefeff;fill-opacity:0.5;stroke-width:4.00254" /><g
       style="fill:#c2d3d6;fill-opacity:1"
       id="g15140"
       transform="matrix(0.03190323,0,0,0.03190323,242.12705,486.35966)"><g
         id="g15138"
         style="fill:#c2d3d6;fill-opacity:1">
	<g
   id="g15136"
   style="fill:#c2d3d6;fill-opacity:1"
   transform="translate(-15.400024,-34.743674)">
		
		<path
   d="m 900.40846,846.60929 h -35.71137 v -38.92021 c 0,-17.18286 -13.87049,-31.05336 -31.05336,-31.05336 H 792.6533 V 329.05333 H 674.02845 V 776.63572 H 521.76452 V 329.05333 H 411.21457 V 776.63572 H 258.94961 V 329.05333 H 140.32578 V 776.63572 H 99.335348 c -17.182858,0 -31.053357,13.8705 -31.053357,31.05336 v 38.92021 H 32.57063 c -17.182858,0 -31.0533566,13.8705 -31.0533566,31.05336 v 42.23256 c 0,17.18286 13.8704986,31.05336 31.0533566,31.05336 h 867.83783 c 17.18285,0 31.05335,-13.8705 31.05335,-31.05336 v -42.23256 c 0,-17.18286 -13.8705,-31.05336 -31.05335,-31.05336 z"
   id="path15132"
   style="fill:#ffffff;fill-opacity:1;stroke-width:1.03511" />
	<path
   d="m 11.338589,259.94053 h 36.359822 v 40.93202 c 0,18.07104 14.587474,32.65851 32.658524,32.65851 H 466.48954 852.62215 c 18.07104,0 32.65852,-14.58747 32.65852,-32.65851 v -40.93202 h 36.35983 c 18.07105,0 32.65852,-14.58747 32.65852,-32.65853 v -52.79796 c 0,-14.36974 -9.47206,-27.10657 -23.18864,-31.24332 L 480.64047,7.3813072 c -4.5711,-1.415203 -9.36101,-2.068374 -14.15093,-2.068374 -4.78883,0 -9.47098,0.653171 -14.15203,2.068374 L 1.8676174,143.24072 C -11.957825,147.37747 -21.319934,160.1143 -21.319934,174.48404 V 227.282 c 0,17.96219 14.5874741,32.65853 32.658523,32.65853 z"
   id="path15134"
   style="fill:#ffffff;fill-opacity:1;stroke-width:1.08862" /></g>
</g></g></g><style
     type="text/css"
     id="style1941">
	.st0{fill:none;stroke:#000000;stroke-width:2;stroke-linecap:round;stroke-linejoin:round;stroke-miterlimit:10;}
</style><style
     type="text/css"
     id="style1941-0">
	.st0{fill:none;stroke:#000000;stroke-width:2;stroke-linecap:round;stroke-linejoin:round;stroke-miterlimit:10;}
</style><style
     type="text/css"
     id="style1941-7">
	.st0{fill:none;stroke:#000000;stroke-width:2;stroke-linecap:round;stroke-linejoin:round;stroke-miterlimit:10;}
</style><style
     type="text/css"
     id="style22485">
	.st0{fill:none;stroke:#6C3DB7;stroke-width:4;stroke-linecap:round;stroke-linejoin:round;stroke-miterlimit:10;}
	.st1{fill:none;stroke:#1F992A;stroke-width:4;stroke-linecap:round;stroke-linejoin:round;stroke-miterlimit:10;}
	.st2{fill:none;stroke:#6A83BA;stroke-width:4;stroke-linecap:round;stroke-linejoin:round;stroke-miterlimit:10;}
	.st3{fill:#8A8AFF;stroke:#8A8AFF;stroke-width:2;stroke-linecap:round;stroke-linejoin:round;stroke-miterlimit:10;}
	.st4{fill:#6C3DB7;stroke:#6C3DB7;stroke-width:2;stroke-linecap:round;stroke-linejoin:round;stroke-miterlimit:10;}
	.st5{fill:#A576FF;stroke:#A576FF;stroke-width:2;stroke-linecap:round;stroke-linejoin:round;stroke-miterlimit:10;}
	.st6{fill:#F2BB41;stroke:#F2BB41;stroke-width:2;stroke-linecap:round;stroke-linejoin:round;stroke-miterlimit:10;}
	.st7{fill:#E08838;stroke:#E08838;stroke-width:2;stroke-linecap:round;stroke-linejoin:round;stroke-miterlimit:10;}
	.st8{fill:#1F992A;stroke:#1F992A;stroke-width:2;stroke-linecap:round;stroke-linejoin:round;stroke-miterlimit:10;}
	.st9{fill:#5EC11E;stroke:#5EC11E;stroke-width:2;stroke-linecap:round;stroke-linejoin:round;stroke-miterlimit:10;}
	.st10{fill:#E3FAFF;stroke:#E3FAFF;stroke-width:2;stroke-linecap:round;stroke-linejoin:round;stroke-miterlimit:10;}
	.st11{fill:#FF5093;stroke:#FF5093;stroke-width:2;stroke-linecap:round;stroke-linejoin:round;stroke-miterlimit:10;}
	.st12{fill:#B7257F;stroke:#B7257F;stroke-width:2;stroke-linecap:round;stroke-linejoin:round;stroke-miterlimit:10;}
	.st13{fill:#5189E5;stroke:#5189E5;stroke-width:2;stroke-linecap:round;stroke-linejoin:round;stroke-miterlimit:10;}
	.st14{fill:#6EBAFF;stroke:#6EBAFF;stroke-width:2;stroke-linecap:round;stroke-linejoin:round;stroke-miterlimit:10;}
	.st15{fill:#EDD977;stroke:#EDD977;stroke-width:2;stroke-linecap:round;stroke-linejoin:round;stroke-miterlimit:10;}
	.st16{fill:#8C43FF;stroke:#8C43FF;stroke-width:2;stroke-linecap:round;stroke-linejoin:round;stroke-miterlimit:10;}
	.st17{fill:#5252BA;stroke:#5252BA;stroke-width:2;stroke-linecap:round;stroke-linejoin:round;stroke-miterlimit:10;}
	.st18{fill:none;stroke:#E3FAFF;stroke-width:4;stroke-linecap:round;stroke-linejoin:round;stroke-miterlimit:10;}
	.st19{fill:#354C75;stroke:#354C75;stroke-width:2;stroke-linecap:round;stroke-linejoin:round;stroke-miterlimit:10;}
</style><style
     type="text/css"
     id="style23106">
	.st0{fill:none;stroke:#000000;stroke-width:2;stroke-linecap:round;stroke-linejoin:round;stroke-miterlimit:10;}
	.st1{fill:none;stroke:#000000;stroke-width:2;stroke-linejoin:round;stroke-miterlimit:10;}
</style><style
     type="text/css"
     id="style1941-1">
	.st0{fill:none;stroke:#000000;stroke-width:2;stroke-linecap:round;stroke-linejoin:round;stroke-miterlimit:10;}
</style><style
     type="text/css"
     id="style1941-0-8">
	.st0{fill:none;stroke:#000000;stroke-width:2;stroke-linecap:round;stroke-linejoin:round;stroke-miterlimit:10;}
</style><style
     type="text/css"
     id="style1941-7-7">
	.st0{fill:none;stroke:#000000;stroke-width:2;stroke-linecap:round;stroke-linejoin:round;stroke-miterlimit:10;}
</style><style
     type="text/css"
     id="style22485-9">
	.st0{fill:none;stroke:#6C3DB7;stroke-width:4;stroke-linecap:round;stroke-linejoin:round;stroke-miterlimit:10;}
	.st1{fill:none;stroke:#1F992A;stroke-width:4;stroke-linecap:round;stroke-linejoin:round;stroke-miterlimit:10;}
	.st2{fill:none;stroke:#6A83BA;stroke-width:4;stroke-linecap:round;stroke-linejoin:round;stroke-miterlimit:10;}
	.st3{fill:#8A8AFF;stroke:#8A8AFF;stroke-width:2;stroke-linecap:round;stroke-linejoin:round;stroke-miterlimit:10;}
	.st4{fill:#6C3DB7;stroke:#6C3DB7;stroke-width:2;stroke-linecap:round;stroke-linejoin:round;stroke-miterlimit:10;}
	.st5{fill:#A576FF;stroke:#A576FF;stroke-width:2;stroke-linecap:round;stroke-linejoin:round;stroke-miterlimit:10;}
	.st6{fill:#F2BB41;stroke:#F2BB41;stroke-width:2;stroke-linecap:round;stroke-linejoin:round;stroke-miterlimit:10;}
	.st7{fill:#E08838;stroke:#E08838;stroke-width:2;stroke-linecap:round;stroke-linejoin:round;stroke-miterlimit:10;}
	.st8{fill:#1F992A;stroke:#1F992A;stroke-width:2;stroke-linecap:round;stroke-linejoin:round;stroke-miterlimit:10;}
	.st9{fill:#5EC11E;stroke:#5EC11E;stroke-width:2;stroke-linecap:round;stroke-linejoin:round;stroke-miterlimit:10;}
	.st10{fill:#E3FAFF;stroke:#E3FAFF;stroke-width:2;stroke-linecap:round;stroke-linejoin:round;stroke-miterlimit:10;}
	.st11{fill:#FF5093;stroke:#FF5093;stroke-width:2;stroke-linecap:round;stroke-linejoin:round;stroke-miterlimit:10;}
	.st12{fill:#B7257F;stroke:#B7257F;stroke-width:2;stroke-linecap:round;stroke-linejoin:round;stroke-miterlimit:10;}
	.st13{fill:#5189E5;stroke:#5189E5;stroke-width:2;stroke-linecap:round;stroke-linejoin:round;stroke-miterlimit:10;}
	.st14{fill:#6EBAFF;stroke:#6EBAFF;stroke-width:2;stroke-linecap:round;stroke-linejoin:round;stroke-miterlimit:10;}
	.st15{fill:#EDD977;stroke:#EDD977;stroke-width:2;stroke-linecap:round;stroke-linejoin:round;stroke-miterlimit:10;}
	.st16{fill:#8C43FF;stroke:#8C43FF;stroke-width:2;stroke-linecap:round;stroke-linejoin:round;stroke-miterlimit:10;}
	.st17{fill:#5252BA;stroke:#5252BA;stroke-width:2;stroke-linecap:round;stroke-linejoin:round;stroke-miterlimit:10;}
	.st18{fill:none;stroke:#E3FAFF;stroke-width:4;stroke-linecap:round;stroke-linejoin:round;stroke-miterlimit:10;}
	.st19{fill:#354C75;stroke:#354C75;stroke-width:2;stroke-linecap:round;stroke-linejoin:round;stroke-miterlimit:10;}
</style><style
     type="text/css"
     id="style23106-2">
	.st0{fill:none;stroke:#000000;stroke-width:2;stroke-linecap:round;stroke-linejoin:round;stroke-miterlimit:10;}
	.st1{fill:none;stroke:#000000;stroke-width:2;stroke-linejoin:round;stroke-miterlimit:10;}
</style></svg>
