<?xml version="1.0" encoding="UTF-8" standalone="no"?>
<!-- Created with Inkscape (http://www.inkscape.org/) -->

<svg
   width="802.49805"
   height="250.00005"
   viewBox="0 0 212.32761 66.145845"
   version="1.1"
   id="svg5"
   xml:space="preserve"
   inkscape:version="1.2.2 (b0a8486541, 2022-12-01)"
   sodipodi:docname="design.svg"
   xmlns:inkscape="http://www.inkscape.org/namespaces/inkscape"
   xmlns:sodipodi="http://sodipodi.sourceforge.net/DTD/sodipodi-0.dtd"
   xmlns:xlink="http://www.w3.org/1999/xlink"
   xmlns="http://www.w3.org/2000/svg"
   xmlns:svg="http://www.w3.org/2000/svg"><sodipodi:namedview
     id="namedview7"
     pagecolor="#ffffff"
     bordercolor="#ebebeb"
     borderopacity="1"
     inkscape:showpageshadow="false"
     inkscape:pageopacity="0"
     inkscape:pagecheckerboard="false"
     inkscape:deskcolor="#ffffff"
     inkscape:document-units="px"
     showgrid="false"
     showguides="false"
     inkscape:zoom="0.35355339"
     inkscape:cx="-537.40115"
     inkscape:cy="278.60007"
     inkscape:window-width="1920"
     inkscape:window-height="1011"
     inkscape:window-x="0"
     inkscape:window-y="32"
     inkscape:window-maximized="1"
     inkscape:current-layer="layer1"><inkscape:page
       x="0"
       y="0"
       width="212.32761"
       height="66.145844"
       id="page7242"
       inkscape:label="Brand" /><inkscape:page
       x="0"
       y="1.2031856e-13"
       width="66.145836"
       height="66.145836"
       id="page7244"
       inkscape:label="Icon" /><inkscape:page
       x="2.405304"
       y="98.926453"
       width="212.3278"
       height="66.145836"
       id="page69065"
       inkscape:label="Brand-White" /><inkscape:page
       x="19.566788"
       y="176.89246"
       width="66.145828"
       height="66.145844"
       id="page24235"
       inkscape:label="Key" /><inkscape:page
       x="2.9294348"
       y="-86.742447"
       width="66.145836"
       height="66.145844"
       id="page27222"
       inkscape:label="Square" /></sodipodi:namedview><defs
     id="defs2"><linearGradient
       inkscape:collect="always"
       id="silverline"><stop
         style="stop-color:#8cbff2;stop-opacity:1;"
         offset="0.04451345"
         id="stop15058" /><stop
         style="stop-color:#ffffff;stop-opacity:1;"
         offset="0.50488615"
         id="stop15060" /></linearGradient><linearGradient
       inkscape:collect="always"
       id="dorkodu"><stop
         style="stop-color:#006644;stop-opacity:1;"
         offset="0.0001"
         id="stop15052" /><stop
         style="stop-color:#36e236;stop-opacity:1;"
         offset="0.99989998"
         id="stop15054" /></linearGradient><linearGradient
       inkscape:collect="always"
       id="linearGradient11766"><stop
         style="stop-color:#7db2e8;stop-opacity:1;"
         offset="0.04451345"
         id="stop11762" /><stop
         style="stop-color:#ffffff;stop-opacity:1;"
         offset="0.50488615"
         id="stop11764" /></linearGradient><style
       id="style6568">.cls-1{fill:none;}.cls-2{clip-path:url(#clip-path);}</style><clipPath
       id="clip-path"><rect
         class="cls-1"
         x="0.059999999"
         width="24"
         height="24"
         id="rect6570"
         y="0" /></clipPath><linearGradient
       id="linearGradient5222-7"><stop
         style="stop-color:#17191c;stop-opacity:1;"
         offset="0"
         id="stop5218-5" /><stop
         style="stop-color:#2e3038;stop-opacity:1;"
         offset="1"
         id="stop5220-3" /></linearGradient><style
       id="style6568-5">.cls-1{fill:none;}.cls-2{clip-path:url(#clip-path);}</style><linearGradient
       xlink:href="#linearGradient5222-7"
       id="linearGradient3859-6"
       gradientUnits="userSpaceOnUse"
       x1="2487.3772"
       y1="3121.3364"
       x2="2487.3772"
       y2="2945.2664" /><style
       id="style6568-9">.cls-1{fill:none;}.cls-2{clip-path:url(#clip-path);}</style><linearGradient
       id="linearGradient45366-7"><stop
         style="stop-color:#aaaaaa;stop-opacity:1;"
         offset="0"
         id="stop45364-5" /></linearGradient><linearGradient
       id="id"><stop
         style="stop-color:#0ac247;stop-opacity:1;"
         offset="0"
         id="stop23041" /><stop
         style="stop-color:#ffffff;stop-opacity:1;"
         offset="1"
         id="stop23043" /></linearGradient><style
       id="style22571">.cls-1{fill:#84d0f7;}.cls-2{fill:#aa392d;}.cls-3{fill:#7c211a;}.cls-4{fill:#e59973;}.cls-5{fill:#2d2d2d;}.cls-6{opacity:0.2;}.cls-7{opacity:0.3;}</style><style
       id="style23309">
      .cls-1 {
        fill: none;
      }
    </style><linearGradient
       xlink:href="#id"
       id="linearGradient7102"
       gradientUnits="userSpaceOnUse"
       gradientTransform="matrix(0,3.6501243,-3.6501243,0,-570.23775,3667.4976)"
       x1="-161.08073"
       y1="-123.59392"
       x2="-56.793404"
       y2="-123.59392" /><linearGradient
       inkscape:collect="always"
       xlink:href="#dorkodu"
       id="linearGradient7384"
       gradientUnits="userSpaceOnUse"
       gradientTransform="matrix(0.64519054,0,0,0.64519057,88.661822,129.72468)"
       x1="211.29193"
       y1="762.6239"
       x2="301.67172"
       y2="672.24414" /><linearGradient
       inkscape:collect="always"
       xlink:href="#dorkodu"
       id="linearGradient7511"
       gradientUnits="userSpaceOnUse"
       gradientTransform="matrix(0.64519054,0,0,0.64519057,91.067156,228.65111)"
       x1="211.29193"
       y1="762.6239"
       x2="301.67172"
       y2="672.24414" /><linearGradient
       inkscape:collect="always"
       xlink:href="#linearGradient11766"
       id="linearGradient7519"
       x1="183.2226"
       y1="668.23676"
       x2="244.85902"
       y2="668.23676"
       gradientUnits="userSpaceOnUse" /><linearGradient
       inkscape:collect="always"
       xlink:href="#silverline"
       id="linearGradient9162"
       x1="216.42819"
       y1="675.01855"
       x2="216.42819"
       y2="661.53064"
       gradientUnits="userSpaceOnUse"
       gradientTransform="translate(224.53669,29.278843)" /><linearGradient
       inkscape:collect="always"
       xlink:href="#dorkodu"
       id="linearGradient13586"
       x1="306.23956"
       y1="790.91174"
       x2="349.25031"
       y2="747.901"
       gradientUnits="userSpaceOnUse"
       gradientTransform="matrix(1.3126145,0,0,1.3126145,-158.10619,-240.73082)" /><linearGradient
       inkscape:collect="always"
       xlink:href="#dorkodu"
       id="linearGradient16776"
       x1="152.42097"
       y1="721.20874"
       x2="213.4021"
       y2="660.2276"
       gradientUnits="userSpaceOnUse"
       gradientTransform="translate(75.397794,-187.90219)" /><linearGradient
       id="linearGradient9181"><stop
         style="stop-color:#9edcfa;stop-opacity:1;"
         offset="0.04900488"
         id="stop9177" /><stop
         style="stop-color:#ffffff;stop-opacity:1;"
         offset="0.3992942"
         id="stop9179" /></linearGradient><linearGradient
       id="linearGradient9175"><stop
         style="stop-color:#a8d8f0;stop-opacity:1;"
         offset="0"
         id="stop9171" /><stop
         style="stop-color:#ffffff;stop-opacity:1;"
         offset="0.50965863"
         id="stop9173" /></linearGradient><linearGradient
       id="linearGradient997"><stop
         style="stop-color:#006644;stop-opacity:1;"
         offset="0.0001"
         id="stop993" /><stop
         style="stop-color:#47eb55;stop-opacity:1;"
         offset="0.99989998"
         id="stop995" /></linearGradient><style
       id="style6568-7">.cls-1{fill:none;}.cls-2{clip-path:url(#clip-path);}</style><style
       id="style6568-5-5">.cls-1{fill:none;}.cls-2{clip-path:url(#clip-path);}</style><style
       id="style6568-9-3">.cls-1{fill:none;}.cls-2{clip-path:url(#clip-path);}</style><style
       id="style22571-5">.cls-1{fill:#84d0f7;}.cls-2{fill:#aa392d;}.cls-3{fill:#7c211a;}.cls-4{fill:#e59973;}.cls-5{fill:#2d2d2d;}.cls-6{opacity:0.2;}.cls-7{opacity:0.3;}</style><style
       id="style23309-6">
      .cls-1 {
        fill: none;
      }
    </style><linearGradient
       xlink:href="#linearGradient997"
       id="linearGradient7511-2"
       gradientUnits="userSpaceOnUse"
       gradientTransform="matrix(0.64519054,0,0,0.64519057,88.661826,230.73026)"
       x1="211.29193"
       y1="762.6239"
       x2="301.67172"
       y2="672.24414" /><linearGradient
       xlink:href="#linearGradient9181"
       id="linearGradient7519-9"
       x1="183.2226"
       y1="668.23676"
       x2="244.85902"
       y2="668.23676"
       gradientUnits="userSpaceOnUse" /><linearGradient
       xlink:href="#linearGradient9175"
       id="linearGradient9162-1"
       x1="216.42819"
       y1="675.01855"
       x2="216.42819"
       y2="663.04755"
       gradientUnits="userSpaceOnUse" /></defs><g
     inkscape:label="Layer 1"
     inkscape:groupmode="layer"
     id="layer1"
     transform="translate(-220.1774,-558.63916)"><rect
       style="font-weight:900;font-size:53.7023px;font-family:Rubik;-inkscape-font-specification:'Rubik Heavy';letter-spacing:-0.719445px;fill:#000000;fill-opacity:1;stroke-width:12.4194"
       id="rect22610"
       width="331.84866"
       height="230.70428"
       x="-409.98575"
       y="587.073"
       rx="115.35214"
       ry="115.35214" /><g
       style="fill:#c2d3d6;fill-opacity:1"
       id="g2601"
       transform="matrix(0.12296957,0,0,0.12296957,989.65709,3098.4858)" /><g
       style="fill:#ffffff;fill-opacity:1"
       id="g69027"
       transform="matrix(0.01311796,0,0,0.01311796,146.44775,764.86626)"><g
         id="g69025"
         style="fill:#ffffff;fill-opacity:1">
	<g
   id="g69023"
   style="fill:#ffffff;fill-opacity:0.619433"
   transform="translate(-15.400024,-34.743674)">
		
		
	</g>
</g></g><g
       style="fill:#c2d3d6;fill-opacity:1"
       id="g45797"
       transform="matrix(0.03190418,0,0,0.03190418,-256.16264,1085.3908)" /><g
       style="fill:#c2d3d6;fill-opacity:1"
       id="g51940"
       transform="matrix(0.03190418,0,0,0.03190418,239.16619,573.51626)" /><text
       xml:space="preserve"
       style="font-style:normal;font-variant:normal;font-weight:900;font-stretch:normal;font-size:54.7666px;font-family:Rubik;-inkscape-font-specification:'Rubik Heavy';letter-spacing:-0.733703px;fill:#141a1f;fill-opacity:1;stroke-width:110.871"
       x="-52.411217"
       y="463.33594"
       id="text22488"
       transform="scale(0.92919057,1.0762055)"><tspan
         sodipodi:role="line"
         id="tspan22486"
         style="font-style:normal;font-variant:normal;font-weight:900;font-stretch:normal;font-family:Rubik;-inkscape-font-specification:'Rubik Heavy';fill:#141a1f;fill-opacity:1;stroke-width:110.871"
         x="-52.411217"
         y="463.33594">Forum</tspan></text><rect
       style="fill:url(#linearGradient16776);fill-opacity:1;stroke-width:4.14696"
       id="rect27212"
       width="66.145836"
       height="66.145836"
       x="223.10681"
       y="471.8967"
       rx="0"
       ry="0"
       inkscape:export-filename="../../../../Desktop/rect15941.png"
       inkscape:export-xdpi="191.99998"
       inkscape:export-ydpi="191.99998" /><g
       aria-label="Forum"
       transform="matrix(2.1594696,0,0,2.4745758,-96.260624,-1061.9391)"
       id="text57063"
       style="font-weight:900;font-size:19.1621px;font-family:Rubik;-inkscape-font-specification:'Rubik Heavy';letter-spacing:-0.538838px;fill:#141a1f;stroke-width:38.7921"><path
         d="m 183.73998,674.84766 q -0.21078,0 -0.36408,-0.1533 -0.1533,-0.1533 -0.1533,-0.36408 v -12.37872 q 0,-0.21078 0.1533,-0.36408 0.1533,-0.15329 0.36408,-0.15329 h 9.6577 q 0.21078,0 0.36408,0.15329 0.15329,0.1533 0.15329,0.36408 v 2.91264 q 0,0.21079 -0.15329,0.36408 -0.1533,0.1533 -0.36408,0.1533 h -5.48036 v 1.41799 h 5.09711 q 0.21079,0 0.36408,0.1533 0.1533,0.1533 0.1533,0.36408 v 2.89348 q 0,0.21078 -0.1533,0.36408 -0.15329,0.15329 -0.36408,0.15329 h -5.09711 v 3.60248 q 0,0.21078 -0.1533,0.36408 -0.1533,0.1533 -0.36408,0.1533 z"
         id="path68220" /><path
         d="m 200.00631,675.03928 q -1.76291,0 -2.97013,-0.47906 -1.20721,-0.47905 -1.85872,-1.43715 -0.63235,-0.95811 -0.72816,-2.35694 -0.0192,-0.44073 -0.0192,-0.90062 0,-0.47905 0.0192,-0.90062 0.0958,-1.41799 0.78565,-2.35694 0.68983,-0.9581 1.89705,-1.43715 1.20721,-0.47906 2.87431,-0.47906 1.6671,0 2.87432,0.47906 1.20721,0.47905 1.89704,1.43715 0.68984,0.93895 0.78565,2.35694 0.0383,0.42157 0.0383,0.90062 0,0.45989 -0.0383,0.90062 -0.0958,1.39883 -0.74732,2.35694 -0.63235,0.9581 -1.83956,1.43715 -1.20722,0.47906 -2.97013,0.47906 z m 0,-3.06594 q 0.5557,0 0.68984,-0.30659 0.13413,-0.32576 0.17245,-0.99643 0.0192,-0.28743 0.0192,-0.80481 0,-0.51738 -0.0192,-0.80481 -0.0383,-0.63235 -0.17245,-0.9581 -0.13414,-0.34492 -0.68984,-0.34492 -0.53654,0 -0.68984,0.34492 -0.13413,0.32575 -0.17245,0.9581 -0.0192,0.28743 -0.0192,0.80481 0,0.51738 0.0192,0.80481 0.0383,0.67067 0.17245,0.99643 0.1533,0.30659 0.68984,0.30659 z"
         id="path68222" /><path
         d="m 206.99818,674.84766 q -0.21078,0 -0.36408,-0.1533 -0.1533,-0.1533 -0.1533,-0.36408 v -8.92954 q 0,-0.21078 0.1533,-0.36408 0.1533,-0.1533 0.36408,-0.1533 h 3.35337 q 0.21078,0 0.36408,0.1533 0.15329,0.1533 0.15329,0.36408 v 0.67067 q 0.61319,-0.53653 1.36051,-0.86229 0.76649,-0.32576 1.62878,-0.32576 h 0.91978 q 0.21079,0 0.36408,0.1533 0.1533,0.1533 0.1533,0.36408 v 2.98929 q 0,0.21078 -0.1533,0.36408 -0.15329,0.1533 -0.36408,0.1533 h -2.47191 q -0.57486,0 -0.86229,0.28743 -0.28743,0.28743 -0.28743,0.86229 v 4.27315 q 0,0.21078 -0.1533,0.36408 -0.1533,0.1533 -0.36408,0.1533 z"
         style="letter-spacing:-0.269418px"
         id="path68224" /><path
         d="m 219.75898,675.03928 q -0.9581,0 -1.8204,-0.45989 -0.84313,-0.45989 -1.37967,-1.418 -0.51737,-0.9581 -0.51737,-2.47191 v -5.28874 q 0,-0.21078 0.15329,-0.36408 0.1533,-0.1533 0.36408,-0.1533 h 3.65996 q 0.21079,0 0.36408,0.1533 0.1533,0.1533 0.1533,0.36408 v 5.15461 q 0,1.05391 0.9581,1.05391 0.45989,0 0.709,-0.26827 0.24911,-0.26827 0.24911,-0.78564 v -5.15461 q 0,-0.21078 0.1533,-0.36408 0.15329,-0.1533 0.36408,-0.1533 h 3.6408 q 0.21078,0 0.36408,0.1533 0.15329,0.1533 0.15329,0.36408 v 8.92954 q 0,0.21078 -0.15329,0.36408 -0.1533,0.1533 -0.36408,0.1533 h -3.35337 q -0.21079,0 -0.36408,-0.1533 -0.1533,-0.1533 -0.1533,-0.36408 v -0.63235 q -0.47905,0.709 -1.32218,1.03475 -0.84314,0.3066 -1.85873,0.3066 z"
         id="path68226" /><path
         d="m 229.03114,674.84766 q -0.21079,0 -0.36408,-0.1533 -0.1533,-0.1533 -0.1533,-0.36408 v -8.92954 q 0,-0.21078 0.1533,-0.36408 0.15329,-0.1533 0.36408,-0.1533 h 3.16174 q 0.21079,0 0.36408,0.1533 0.1533,0.1533 0.1533,0.36408 v 0.63235 q 0.32576,-0.44073 1.01559,-0.86229 0.709,-0.44073 1.64794,-0.47906 2.26113,-0.0766 3.02761,1.5713 0.44073,-0.67068 1.24554,-1.11141 0.80481,-0.45989 1.68627,-0.45989 0.97726,0 1.76291,0.44073 0.80481,0.44073 1.28386,1.37967 0.47905,0.93895 0.47905,2.45275 v 5.36539 q 0,0.21078 -0.15329,0.36408 -0.1533,0.1533 -0.36408,0.1533 h -3.37253 q -0.21079,0 -0.36408,-0.1533 -0.1533,-0.1533 -0.1533,-0.36408 v -5.26958 q 0,-0.30659 -0.0958,-0.51737 -0.0958,-0.21079 -0.26827,-0.3066 -0.1533,-0.11497 -0.4024,-0.11497 -0.22995,0 -0.40241,0.11497 -0.17246,0.0958 -0.26827,0.3066 -0.0767,0.21078 -0.0767,0.51737 v 5.26958 q 0,0.21078 -0.15329,0.36408 -0.1533,0.1533 -0.36408,0.1533 H 235.048 q -0.21079,0 -0.36408,-0.1533 -0.1533,-0.1533 -0.1533,-0.36408 v -5.26958 q 0,-0.30659 -0.0958,-0.51737 -0.0958,-0.21079 -0.26827,-0.3066 -0.1533,-0.11497 -0.4024,-0.11497 -0.22995,0 -0.40241,0.11497 -0.17246,0.11497 -0.26827,0.32576 -0.0958,0.19162 -0.0958,0.49821 v 5.26958 q 0,0.21078 -0.15329,0.36408 -0.1533,0.1533 -0.36408,0.1533 z"
         id="path68228" /></g><rect
       style="fill:url(#linearGradient7384);fill-opacity:1;stroke-width:4.14696"
       id="rect7370"
       width="66.145836"
       height="66.145836"
       x="220.1774"
       y="558.63916"
       rx="13.229167"
       ry="13.229167"
       inkscape:export-filename="../../../../Desktop/rect15941.png"
       inkscape:export-xdpi="191.99998"
       inkscape:export-ydpi="191.99998" /><path
       d="m 278.57521,581.8309 v 12.56803 c 0,0.80047 -0.0401,1.60096 -0.12012,2.36153 -0.72045,8.48538 -5.72363,12.72814 -14.92956,12.72814 h -1.24079 c -0.80048,0 -1.56099,0.36019 -2.00125,1.00065 l -3.76246,5.04316 c -1.68105,2.24145 -4.36273,2.24145 -6.04387,0 l -3.76237,-5.04316 c -0.40025,-0.52036 -1.32077,-1.00065 -2.00125,-1.00065 h -1.2408 c -10.0464,0 -15.04962,-2.48163 -15.04962,-15.04978 V 581.8709 c 0,-9.20584 4.24263,-14.20899 12.72806,-14.92937 0.76048,-0.0801 1.561,-0.12018 2.3615,-0.12018 h 20.13291 c 9.88633,-0.0401 14.92957,5.00324 14.92957,15.00955 z"
       fill="#292d32"
       id="path7372"
       style="fill:#fefeff;fill-opacity:0.5;stroke-width:4.00254" /><g
       style="fill:#c2d3d6;fill-opacity:1"
       id="g7382"
       transform="matrix(0.03190323,0,0,0.03190323,239.4115,573.10715)"><g
         id="g7380"
         style="fill:#c2d3d6;fill-opacity:1">
	<g
   id="g7378"
   style="fill:#c2d3d6;fill-opacity:1"
   transform="translate(-15.400024,-34.743674)">
		
		<path
   d="m 900.40846,846.60929 h -35.71137 v -38.92021 c 0,-17.18286 -13.87049,-31.05336 -31.05336,-31.05336 H 792.6533 V 329.05333 H 674.02845 V 776.63572 H 521.76452 V 329.05333 H 411.21457 V 776.63572 H 258.94961 V 329.05333 H 140.32578 V 776.63572 H 99.335348 c -17.182858,0 -31.053357,13.8705 -31.053357,31.05336 v 38.92021 H 32.57063 c -17.182858,0 -31.0533566,13.8705 -31.0533566,31.05336 v 42.23256 c 0,17.18286 13.8704986,31.05336 31.0533566,31.05336 h 867.83783 c 17.18285,0 31.05335,-13.8705 31.05335,-31.05336 v -42.23256 c 0,-17.18286 -13.8705,-31.05336 -31.05335,-31.05336 z"
   id="path7374"
   style="fill:#ffffff;fill-opacity:1;stroke-width:1.03511" />
	<path
   d="m 11.338589,259.94053 h 36.359822 v 40.93202 c 0,18.07104 14.587474,32.65851 32.658524,32.65851 H 466.48954 852.62215 c 18.07104,0 32.65852,-14.58747 32.65852,-32.65851 v -40.93202 h 36.35983 c 18.07105,0 32.65852,-14.58747 32.65852,-32.65853 v -52.79796 c 0,-14.36974 -9.47206,-27.10657 -23.18864,-31.24332 L 480.64047,7.3813072 c -4.5711,-1.415203 -9.36101,-2.068374 -14.15093,-2.068374 -4.78883,0 -9.47098,0.653171 -14.15203,2.068374 L 1.8676174,143.24072 C -11.957825,147.37747 -21.319934,160.1143 -21.319934,174.48404 V 227.282 c 0,17.96219 14.5874741,32.65853 32.658523,32.65853 z"
   id="path7376"
   style="fill:#ffffff;fill-opacity:1;stroke-width:1.08862" /></g>
</g></g><g
       aria-label="Forum"
       transform="matrix(2.1594696,0,0,2.4745758,-578.73546,-1035.4653)"
       id="g7495"
       style="font-weight:900;font-size:19.1621px;font-family:Rubik;-inkscape-font-specification:'Rubik Heavy';letter-spacing:-0.538838px;fill:url(#linearGradient7519);fill-opacity:1;stroke-width:38.7921"><path
         id="path7485"
         style="fill:url(#linearGradient9162);fill-opacity:1"
         d="m 408.27668,690.71307 c -0.14052,0 -0.26178,0.0511 -0.36398,0.15328 -0.1022,0.1022 -0.15339,0.22347 -0.15339,0.36399 v 12.37879 c 0,0.14052 0.0512,0.26179 0.15339,0.36399 0.1022,0.1022 0.22346,0.15328 0.36398,0.15328 h 3.65988 c 0.14052,0 0.26201,-0.0511 0.36421,-0.15328 0.1022,-0.1022 0.15316,-0.22347 0.15316,-0.36399 v -3.60252 h 5.09712 c 0.14053,0 0.26202,-0.0511 0.36422,-0.15328 0.1022,-0.1022 0.15315,-0.22347 0.15315,-0.36399 v -2.89354 c 0,-0.14052 -0.051,-0.26179 -0.15315,-0.36399 -0.1022,-0.1022 -0.22369,-0.15349 -0.36422,-0.15349 h -5.09712 v -1.41795 h 5.48048 c 0.14052,0 0.26178,-0.0511 0.36398,-0.15328 0.10219,-0.1022 0.15339,-0.22347 0.15339,-0.36399 v -2.91276 c 0,-0.14052 -0.0512,-0.26179 -0.15339,-0.36399 -0.1022,-0.10219 -0.22346,-0.15328 -0.36398,-0.15328 z m 51.7736,3.2544 c -0.0461,4.7e-4 -0.0926,0.002 -0.13975,0.003 -0.62596,0.0256 -1.17541,0.18524 -1.64807,0.47906 -0.45989,0.28104 -0.79843,0.56843 -1.0156,0.86225 v -0.63233 c 0,-0.14052 -0.051,-0.26179 -0.15315,-0.36399 -0.1022,-0.1022 -0.22369,-0.15349 -0.36422,-0.15349 h -3.16165 c -0.14053,0 -0.26179,0.0513 -0.36398,0.15349 -0.1022,0.1022 -0.15339,0.22347 -0.15339,0.36399 v 8.92955 c 0,0.14052 0.0512,0.26179 0.15339,0.36399 0.10219,0.1022 0.22345,0.15328 0.36398,0.15328 h 3.44905 c 0.14052,0 0.26202,-0.0511 0.36422,-0.15328 0.10219,-0.1022 0.15315,-0.22347 0.15315,-0.36399 v -5.26961 c 0,-0.20439 0.0321,-0.37052 0.096,-0.49826 0.0639,-0.14053 0.15329,-0.24913 0.26826,-0.32578 0.11497,-0.0766 0.24896,-0.11485 0.40226,-0.11485 0.16607,0 0.30031,0.0382 0.40251,0.11485 0.11498,0.0639 0.20439,0.16625 0.26826,0.30677 0.0639,0.14052 0.0957,0.31288 0.0957,0.51727 v 5.26961 c 0,0.14052 0.0512,0.26179 0.15339,0.36399 0.10219,0.1022 0.22345,0.15328 0.36398,0.15328 h 3.37271 c 0.14052,0 0.26178,-0.0511 0.36398,-0.15328 0.10219,-0.1022 0.15339,-0.22347 0.15339,-0.36399 v -5.26961 c 0,-0.20439 0.0254,-0.37675 0.0766,-0.51727 0.0639,-0.14053 0.15328,-0.2429 0.26826,-0.30677 0.11497,-0.0766 0.2492,-0.11485 0.4025,-0.11485 0.16607,0 0.30007,0.0382 0.40227,0.11485 0.11498,0.0639 0.20439,0.16625 0.26825,0.30677 0.0639,0.14052 0.096,0.31288 0.096,0.51727 v 5.26961 c 0,0.14052 0.051,0.26179 0.15316,0.36399 0.10219,0.1022 0.22369,0.15328 0.36421,0.15328 h 3.37248 c 0.14052,0 0.26178,-0.0511 0.36398,-0.15328 0.10219,-0.1022 0.15339,-0.22347 0.15339,-0.36399 v -5.36546 c 0,-1.0092 -0.15972,-1.82673 -0.47908,-2.4527 -0.31937,-0.62596 -0.74732,-1.08592 -1.28385,-1.37974 -0.52377,-0.29382 -1.11143,-0.44063 -1.76294,-0.44063 -0.58764,0 -1.14958,0.15325 -1.68612,0.45985 -0.53654,0.29382 -0.95174,0.66427 -1.24556,1.11139 -0.49502,-1.06427 -1.45775,-1.58904 -2.88789,-1.57437 z m -35.50732,0.003 c -1.1114,0 -2.06944,0.15968 -2.87425,0.47906 -0.80481,0.31936 -1.4373,0.79843 -1.89718,1.43716 -0.4599,0.62597 -0.72176,1.41153 -0.78563,2.35685 -0.0128,0.28105 -0.0191,0.58132 -0.0191,0.90068 0,0.3066 0.006,0.60686 0.0191,0.90068 0.0639,0.93256 0.30663,1.71811 0.72819,2.35685 0.43434,0.63874 1.05409,1.1178 1.8589,1.43717 0.80481,0.31937 1.7947,0.47905 2.96997,0.47905 1.17527,0 2.1654,-0.15968 2.97021,-0.47905 0.80481,-0.31937 1.41794,-0.79843 1.83951,-1.43717 0.43435,-0.63874 0.68347,-1.42429 0.74734,-2.35685 0.0255,-0.29382 0.0383,-0.59408 0.0383,-0.90068 0,-0.31936 -0.0128,-0.61963 -0.0383,-0.90068 -0.0639,-0.94532 -0.32573,-1.73088 -0.78563,-2.35685 -0.45988,-0.63873 -1.09237,-1.1178 -1.89718,-1.43716 -0.80481,-0.31938 -1.76285,-0.47906 -2.87425,-0.47906 z m 6.99191,0.1915 c -0.14052,0 -0.26178,0.0513 -0.36398,0.15349 -0.1022,0.1022 -0.15339,0.22347 -0.15339,0.36399 v 8.92955 c 0,0.14052 0.0512,0.26179 0.15339,0.36399 0.1022,0.1022 0.22346,0.15328 0.36398,0.15328 h 3.64073 c 0.14052,0 0.26202,-0.0511 0.36422,-0.15328 0.1022,-0.1022 0.15315,-0.22347 0.15315,-0.36399 v -4.27307 c 0,-0.38324 0.0958,-0.67085 0.28741,-0.86247 0.19162,-0.19162 0.4792,-0.28735 0.86244,-0.28735 h 2.47174 c 0.14053,0 0.26203,-0.0511 0.36422,-0.15328 0.1022,-0.1022 0.15339,-0.22347 0.15339,-0.36399 v -2.98939 c 0,-0.14052 -0.0512,-0.26179 -0.15339,-0.36399 -0.10219,-0.1022 -0.22369,-0.15349 -0.36422,-0.15349 h -0.91963 c -0.57486,0 -1.11794,0.1086 -1.62893,0.32577 -0.49821,0.21718 -0.95163,0.50478 -1.36043,0.86247 v -0.67076 c 0,-0.14052 -0.051,-0.26179 -0.15315,-0.36399 -0.1022,-0.1022 -0.2237,-0.15349 -0.36422,-0.15349 z m 9.56081,0 c -0.14052,0 -0.26201,0.0513 -0.36421,0.15349 -0.1022,0.1022 -0.15316,0.22347 -0.15316,0.36399 v 5.28881 c 0,1.00921 0.17246,1.83319 0.51737,2.47192 0.3577,0.63874 0.81749,1.11136 1.37958,1.41795 0.57486,0.30659 1.18163,0.45984 1.82036,0.45984 0.67706,0 1.29681,-0.10216 1.8589,-0.30656 0.56208,-0.21717 1.00277,-0.56208 1.32214,-1.03475 v 0.63234 c 0,0.14052 0.051,0.26179 0.15315,0.36399 0.10219,0.1022 0.22369,0.15328 0.36422,0.15328 h 3.35333 c 0.14052,0 0.26178,-0.0511 0.36398,-0.15328 0.10219,-0.1022 0.15339,-0.22347 0.15339,-0.36399 v -8.92955 c 0,-0.14052 -0.0512,-0.26179 -0.15339,-0.36399 -0.1022,-0.1022 -0.22346,-0.15349 -0.36398,-0.15349 h -3.64073 c -0.14053,0 -0.26203,0.0513 -0.36422,0.15349 -0.1022,0.1022 -0.15315,0.22347 -0.15315,0.36399 v 5.15454 c 0,0.34491 -0.083,0.60677 -0.24912,0.78561 -0.16607,0.17885 -0.40245,0.26835 -0.70905,0.26835 -0.63873,0 -0.95816,-0.35136 -0.95816,-1.05396 v -5.15454 c 0,-0.14052 -0.0512,-0.26179 -0.15339,-0.36399 -0.10219,-0.1022 -0.22345,-0.15349 -0.36398,-0.15349 z m -16.55272,2.87433 c 0.37047,0 0.60048,0.11504 0.68991,0.34498 0.0894,0.21717 0.147,0.53655 0.17253,0.95811 0.0128,0.19162 0.0191,0.45991 0.0191,0.80483 0,0.34492 -0.006,0.61321 -0.0191,0.80483 -0.0255,0.44711 -0.0831,0.77915 -0.17253,0.99633 -0.0894,0.20439 -0.31944,0.30677 -0.68991,0.30677 -0.35769,0 -0.58771,-0.10238 -0.68991,-0.30677 -0.0894,-0.21718 -0.14676,-0.54922 -0.17229,-0.99633 -0.0128,-0.19162 -0.0191,-0.45991 -0.0191,-0.80483 0,-0.34492 0.006,-0.61321 0.0191,-0.80483 0.0255,-0.42156 0.0829,-0.74094 0.17229,-0.95811 0.1022,-0.22994 0.33222,-0.34498 0.68991,-0.34498 z" /></g><rect
       style="fill:url(#linearGradient7511);fill-opacity:1;stroke-width:4.14696"
       id="rect7497"
       width="66.145836"
       height="66.145836"
       x="222.5827"
       y="657.56561"
       rx="13.229167"
       ry="13.229167"
       inkscape:export-filename="../../../../Desktop/rect15941.png"
       inkscape:export-xdpi="191.99998"
       inkscape:export-ydpi="191.99998" /><path
       d="m 281.4665,681.27571 v 12.56803 c 0,0.80047 -0.0401,1.60096 -0.12012,2.36153 -0.72045,8.48538 -5.72362,12.72814 -14.92955,12.72814 h -1.24079 c -0.80048,0 -1.56099,0.36019 -2.00125,1.00065 l -3.76246,5.04316 c -1.68105,2.24145 -4.36273,2.24145 -6.04387,0 l -3.76237,-5.04316 c -0.40025,-0.52036 -1.32077,-1.00065 -2.00125,-1.00065 h -1.2408 c -10.0464,0 -15.04962,-2.48163 -15.04962,-15.04978 v -12.56792 c 0,-9.20584 4.24263,-14.20899 12.72806,-14.92937 0.76048,-0.0801 1.561,-0.12018 2.3615,-0.12018 h 20.13291 c 9.88633,-0.0401 14.92956,5.00324 14.92956,15.00955 z"
       fill="#292d32"
       id="path7499"
       style="fill:#fefeff;fill-opacity:0.5;stroke-width:4.00254" /><g
       style="fill:#c2d3d6;fill-opacity:1"
       id="g7509"
       transform="matrix(0.03190323,0,0,0.03190323,242.3028,672.55196)"><g
         id="g7507"
         style="fill:#c2d3d6;fill-opacity:1">
	<g
   id="g7505"
   style="fill:#c2d3d6;fill-opacity:1"
   transform="translate(-15.400024,-34.743674)">
		
		<path
   d="m 900.40846,846.60929 h -35.71137 v -38.92021 c 0,-17.18286 -13.87049,-31.05336 -31.05336,-31.05336 H 792.6533 V 329.05333 H 674.02845 V 776.63572 H 521.76452 V 329.05333 H 411.21457 V 776.63572 H 258.94961 V 329.05333 H 140.32578 V 776.63572 H 99.335348 c -17.182858,0 -31.053357,13.8705 -31.053357,31.05336 v 38.92021 H 32.57063 c -17.182858,0 -31.0533566,13.8705 -31.0533566,31.05336 v 42.23256 c 0,17.18286 13.8704986,31.05336 31.0533566,31.05336 h 867.83783 c 17.18285,0 31.05335,-13.8705 31.05335,-31.05336 v -42.23256 c 0,-17.18286 -13.8705,-31.05336 -31.05335,-31.05336 z"
   id="path7501"
   style="fill:#ffffff;fill-opacity:1;stroke-width:1.03511" />
	<path
   d="m 11.338589,259.94053 h 36.359822 v 40.93202 c 0,18.07104 14.587474,32.65851 32.658524,32.65851 H 466.48954 852.62215 c 18.07104,0 32.65852,-14.58747 32.65852,-32.65851 v -40.93202 h 36.35983 c 18.07105,0 32.65852,-14.58747 32.65852,-32.65853 v -52.79796 c 0,-14.36974 -9.47206,-27.10657 -23.18864,-31.24332 L 480.64047,7.3813072 c -4.5711,-1.415203 -9.36101,-2.068374 -14.15093,-2.068374 -4.78883,0 -9.47098,0.653171 -14.15203,2.068374 L 1.8676174,143.24072 C -11.957825,147.37747 -21.319934,160.1143 -21.319934,174.48404 V 227.282 c 0,17.96219 14.5874741,32.65853 32.658523,32.65853 z"
   id="path7503"
   style="fill:#ffffff;fill-opacity:1;stroke-width:1.08862" /></g>
</g></g><path
       d="m 305.77913,755.23374 v 16.497 c 0,1.0507 -0.0526,2.10142 -0.15769,3.09977 -0.94567,11.13803 -7.51292,16.70713 -19.59676,16.70713 h -1.62867 c -1.05072,0 -2.04898,0.47279 -2.62688,1.31348 l -4.93866,6.61974 c -2.20656,2.94214 -5.72658,2.94214 -7.93325,0 l -4.93855,-6.61974 c -0.52538,-0.68304 -1.73366,-1.31348 -2.62687,-1.31348 h -1.6287 c -13.18704,0 -19.75435,-3.25742 -19.75435,-19.75456 v -16.49682 c 0,-12.08372 5.56893,-18.65092 16.70705,-19.59652 0.99822,-0.10515 2.04898,-0.15773 3.09974,-0.15773 h 26.42674 c 12.97695,-0.0526 19.59678,6.56731 19.59678,19.70173 z"
       fill="#292d32"
       id="path13568"
       style="fill:url(#linearGradient13586);fill-opacity:1.0;stroke-width:5.25378" /><g
       style="fill:#c2d3d6;fill-opacity:1"
       id="g13578"
       transform="matrix(0.04187664,0,0,0.04187664,254.37225,743.78283)"><g
         id="g13576"
         style="fill:#c2d3d6;fill-opacity:1">
	<g
   id="g13574"
   style="fill:#c2d3d6;fill-opacity:1"
   transform="translate(-15.400024,-34.743674)">
		
		<path
   d="m 900.40846,846.60929 h -35.71137 v -38.92021 c 0,-17.18286 -13.87049,-31.05336 -31.05336,-31.05336 H 792.6533 V 329.05333 H 674.02845 V 776.63572 H 521.76452 V 329.05333 H 411.21457 V 776.63572 H 258.94961 V 329.05333 H 140.32578 V 776.63572 H 99.335348 c -17.182858,0 -31.053357,13.8705 -31.053357,31.05336 v 38.92021 H 32.57063 c -17.182858,0 -31.0533566,13.8705 -31.0533566,31.05336 v 42.23256 c 0,17.18286 13.8704986,31.05336 31.0533566,31.05336 h 867.83783 c 17.18285,0 31.05335,-13.8705 31.05335,-31.05336 v -42.23256 c 0,-17.18286 -13.8705,-31.05336 -31.05335,-31.05336 z"
   id="path13570"
   style="fill:#ffffff;fill-opacity:1;stroke-width:1.03511" />
	<path
   d="m 11.338589,259.94053 h 36.359822 v 40.93202 c 0,18.07104 14.587474,32.65851 32.658524,32.65851 H 466.48954 852.62215 c 18.07104,0 32.65852,-14.58747 32.65852,-32.65851 v -40.93202 h 36.35983 c 18.07105,0 32.65852,-14.58747 32.65852,-32.65853 v -52.79796 c 0,-14.36974 -9.47206,-27.10657 -23.18864,-31.24332 L 480.64047,7.3813072 c -4.5711,-1.415203 -9.36101,-2.068374 -14.15093,-2.068374 -4.78883,0 -9.47098,0.653171 -14.15203,2.068374 L 1.8676174,143.24072 C -11.957825,147.37747 -21.319934,160.1143 -21.319934,174.48404 V 227.282 c 0,17.96219 14.5874741,32.65853 32.658523,32.65853 z"
   id="path13572"
   style="fill:#ffffff;fill-opacity:0.990395;stroke-width:1.08862" /></g>
</g></g><path
       d="m 281.29076,495.08341 v 12.56803 c 0,0.80047 -0.0401,1.60096 -0.12012,2.36153 -0.72045,8.48538 -5.72363,12.72814 -14.92956,12.72814 h -1.24079 c -0.80048,0 -1.56099,0.36019 -2.00125,1.00065 l -3.76246,5.04316 c -1.68105,2.24145 -4.36273,2.24145 -6.04387,0 l -3.76237,-5.04316 c -0.40025,-0.52036 -1.32077,-1.00065 -2.00125,-1.00065 h -1.2408 c -10.0464,0 -15.04962,-2.48163 -15.04962,-15.04978 v -12.56792 c 0,-9.20584 4.24263,-14.20899 12.72806,-14.92937 0.76048,-0.0801 1.561,-0.12018 2.3615,-0.12018 h 20.13291 c 9.88633,-0.0401 14.92957,5.00324 14.92957,15.00955 z"
       fill="#292d32"
       id="path15130"
       style="fill:#fefeff;fill-opacity:0.5;stroke-width:4.00254" /><g
       style="fill:#c2d3d6;fill-opacity:1"
       id="g15140"
       transform="matrix(0.03190323,0,0,0.03190323,242.12705,486.35966)"><g
         id="g15138"
         style="fill:#c2d3d6;fill-opacity:1">
	<g
   id="g15136"
   style="fill:#c2d3d6;fill-opacity:1"
   transform="translate(-15.400024,-34.743674)">
		
		<path
   d="m 900.40846,846.60929 h -35.71137 v -38.92021 c 0,-17.18286 -13.87049,-31.05336 -31.05336,-31.05336 H 792.6533 V 329.05333 H 674.02845 V 776.63572 H 521.76452 V 329.05333 H 411.21457 V 776.63572 H 258.94961 V 329.05333 H 140.32578 V 776.63572 H 99.335348 c -17.182858,0 -31.053357,13.8705 -31.053357,31.05336 v 38.92021 H 32.57063 c -17.182858,0 -31.0533566,13.8705 -31.0533566,31.05336 v 42.23256 c 0,17.18286 13.8704986,31.05336 31.0533566,31.05336 h 867.83783 c 17.18285,0 31.05335,-13.8705 31.05335,-31.05336 v -42.23256 c 0,-17.18286 -13.8705,-31.05336 -31.05335,-31.05336 z"
   id="path15132"
   style="fill:#ffffff;fill-opacity:1;stroke-width:1.03511" />
	<path
   d="m 11.338589,259.94053 h 36.359822 v 40.93202 c 0,18.07104 14.587474,32.65851 32.658524,32.65851 H 466.48954 852.62215 c 18.07104,0 32.65852,-14.58747 32.65852,-32.65851 v -40.93202 h 36.35983 c 18.07105,0 32.65852,-14.58747 32.65852,-32.65853 v -52.79796 c 0,-14.36974 -9.47206,-27.10657 -23.18864,-31.24332 L 480.64047,7.3813072 c -4.5711,-1.415203 -9.36101,-2.068374 -14.15093,-2.068374 -4.78883,0 -9.47098,0.653171 -14.15203,2.068374 L 1.8676174,143.24072 C -11.957825,147.37747 -21.319934,160.1143 -21.319934,174.48404 V 227.282 c 0,17.96219 14.5874741,32.65853 32.658523,32.65853 z"
   id="path15134"
   style="fill:#ffffff;fill-opacity:1;stroke-width:1.08862" /></g>
</g></g></g><style
     type="text/css"
     id="style1941">
	.st0{fill:none;stroke:#000000;stroke-width:2;stroke-linecap:round;stroke-linejoin:round;stroke-miterlimit:10;}
</style><style
     type="text/css"
     id="style1941-0">
	.st0{fill:none;stroke:#000000;stroke-width:2;stroke-linecap:round;stroke-linejoin:round;stroke-miterlimit:10;}
</style><style
     type="text/css"
     id="style1941-7">
	.st0{fill:none;stroke:#000000;stroke-width:2;stroke-linecap:round;stroke-linejoin:round;stroke-miterlimit:10;}
</style><style
     type="text/css"
     id="style22485">
	.st0{fill:none;stroke:#6C3DB7;stroke-width:4;stroke-linecap:round;stroke-linejoin:round;stroke-miterlimit:10;}
	.st1{fill:none;stroke:#1F992A;stroke-width:4;stroke-linecap:round;stroke-linejoin:round;stroke-miterlimit:10;}
	.st2{fill:none;stroke:#6A83BA;stroke-width:4;stroke-linecap:round;stroke-linejoin:round;stroke-miterlimit:10;}
	.st3{fill:#8A8AFF;stroke:#8A8AFF;stroke-width:2;stroke-linecap:round;stroke-linejoin:round;stroke-miterlimit:10;}
	.st4{fill:#6C3DB7;stroke:#6C3DB7;stroke-width:2;stroke-linecap:round;stroke-linejoin:round;stroke-miterlimit:10;}
	.st5{fill:#A576FF;stroke:#A576FF;stroke-width:2;stroke-linecap:round;stroke-linejoin:round;stroke-miterlimit:10;}
	.st6{fill:#F2BB41;stroke:#F2BB41;stroke-width:2;stroke-linecap:round;stroke-linejoin:round;stroke-miterlimit:10;}
	.st7{fill:#E08838;stroke:#E08838;stroke-width:2;stroke-linecap:round;stroke-linejoin:round;stroke-miterlimit:10;}
	.st8{fill:#1F992A;stroke:#1F992A;stroke-width:2;stroke-linecap:round;stroke-linejoin:round;stroke-miterlimit:10;}
	.st9{fill:#5EC11E;stroke:#5EC11E;stroke-width:2;stroke-linecap:round;stroke-linejoin:round;stroke-miterlimit:10;}
	.st10{fill:#E3FAFF;stroke:#E3FAFF;stroke-width:2;stroke-linecap:round;stroke-linejoin:round;stroke-miterlimit:10;}
	.st11{fill:#FF5093;stroke:#FF5093;stroke-width:2;stroke-linecap:round;stroke-linejoin:round;stroke-miterlimit:10;}
	.st12{fill:#B7257F;stroke:#B7257F;stroke-width:2;stroke-linecap:round;stroke-linejoin:round;stroke-miterlimit:10;}
	.st13{fill:#5189E5;stroke:#5189E5;stroke-width:2;stroke-linecap:round;stroke-linejoin:round;stroke-miterlimit:10;}
	.st14{fill:#6EBAFF;stroke:#6EBAFF;stroke-width:2;stroke-linecap:round;stroke-linejoin:round;stroke-miterlimit:10;}
	.st15{fill:#EDD977;stroke:#EDD977;stroke-width:2;stroke-linecap:round;stroke-linejoin:round;stroke-miterlimit:10;}
	.st16{fill:#8C43FF;stroke:#8C43FF;stroke-width:2;stroke-linecap:round;stroke-linejoin:round;stroke-miterlimit:10;}
	.st17{fill:#5252BA;stroke:#5252BA;stroke-width:2;stroke-linecap:round;stroke-linejoin:round;stroke-miterlimit:10;}
	.st18{fill:none;stroke:#E3FAFF;stroke-width:4;stroke-linecap:round;stroke-linejoin:round;stroke-miterlimit:10;}
	.st19{fill:#354C75;stroke:#354C75;stroke-width:2;stroke-linecap:round;stroke-linejoin:round;stroke-miterlimit:10;}
</style><style
     type="text/css"
     id="style23106">
	.st0{fill:none;stroke:#000000;stroke-width:2;stroke-linecap:round;stroke-linejoin:round;stroke-miterlimit:10;}
	.st1{fill:none;stroke:#000000;stroke-width:2;stroke-linejoin:round;stroke-miterlimit:10;}
</style><style
     type="text/css"
     id="style1941-1">
	.st0{fill:none;stroke:#000000;stroke-width:2;stroke-linecap:round;stroke-linejoin:round;stroke-miterlimit:10;}
</style><style
     type="text/css"
     id="style1941-0-8">
	.st0{fill:none;stroke:#000000;stroke-width:2;stroke-linecap:round;stroke-linejoin:round;stroke-miterlimit:10;}
</style><style
     type="text/css"
     id="style1941-7-7">
	.st0{fill:none;stroke:#000000;stroke-width:2;stroke-linecap:round;stroke-linejoin:round;stroke-miterlimit:10;}
</style><style
     type="text/css"
     id="style22485-9">
	.st0{fill:none;stroke:#6C3DB7;stroke-width:4;stroke-linecap:round;stroke-linejoin:round;stroke-miterlimit:10;}
	.st1{fill:none;stroke:#1F992A;stroke-width:4;stroke-linecap:round;stroke-linejoin:round;stroke-miterlimit:10;}
	.st2{fill:none;stroke:#6A83BA;stroke-width:4;stroke-linecap:round;stroke-linejoin:round;stroke-miterlimit:10;}
	.st3{fill:#8A8AFF;stroke:#8A8AFF;stroke-width:2;stroke-linecap:round;stroke-linejoin:round;stroke-miterlimit:10;}
	.st4{fill:#6C3DB7;stroke:#6C3DB7;stroke-width:2;stroke-linecap:round;stroke-linejoin:round;stroke-miterlimit:10;}
	.st5{fill:#A576FF;stroke:#A576FF;stroke-width:2;stroke-linecap:round;stroke-linejoin:round;stroke-miterlimit:10;}
	.st6{fill:#F2BB41;stroke:#F2BB41;stroke-width:2;stroke-linecap:round;stroke-linejoin:round;stroke-miterlimit:10;}
	.st7{fill:#E08838;stroke:#E08838;stroke-width:2;stroke-linecap:round;stroke-linejoin:round;stroke-miterlimit:10;}
	.st8{fill:#1F992A;stroke:#1F992A;stroke-width:2;stroke-linecap:round;stroke-linejoin:round;stroke-miterlimit:10;}
	.st9{fill:#5EC11E;stroke:#5EC11E;stroke-width:2;stroke-linecap:round;stroke-linejoin:round;stroke-miterlimit:10;}
	.st10{fill:#E3FAFF;stroke:#E3FAFF;stroke-width:2;stroke-linecap:round;stroke-linejoin:round;stroke-miterlimit:10;}
	.st11{fill:#FF5093;stroke:#FF5093;stroke-width:2;stroke-linecap:round;stroke-linejoin:round;stroke-miterlimit:10;}
	.st12{fill:#B7257F;stroke:#B7257F;stroke-width:2;stroke-linecap:round;stroke-linejoin:round;stroke-miterlimit:10;}
	.st13{fill:#5189E5;stroke:#5189E5;stroke-width:2;stroke-linecap:round;stroke-linejoin:round;stroke-miterlimit:10;}
	.st14{fill:#6EBAFF;stroke:#6EBAFF;stroke-width:2;stroke-linecap:round;stroke-linejoin:round;stroke-miterlimit:10;}
	.st15{fill:#EDD977;stroke:#EDD977;stroke-width:2;stroke-linecap:round;stroke-linejoin:round;stroke-miterlimit:10;}
	.st16{fill:#8C43FF;stroke:#8C43FF;stroke-width:2;stroke-linecap:round;stroke-linejoin:round;stroke-miterlimit:10;}
	.st17{fill:#5252BA;stroke:#5252BA;stroke-width:2;stroke-linecap:round;stroke-linejoin:round;stroke-miterlimit:10;}
	.st18{fill:none;stroke:#E3FAFF;stroke-width:4;stroke-linecap:round;stroke-linejoin:round;stroke-miterlimit:10;}
	.st19{fill:#354C75;stroke:#354C75;stroke-width:2;stroke-linecap:round;stroke-linejoin:round;stroke-miterlimit:10;}
</style><style
     type="text/css"
     id="style23106-2">
	.st0{fill:none;stroke:#000000;stroke-width:2;stroke-linecap:round;stroke-linejoin:round;stroke-miterlimit:10;}
	.st1{fill:none;stroke:#000000;stroke-width:2;stroke-linejoin:round;stroke-miterlimit:10;}
</style></svg>
