<?xml version="1.0" encoding="UTF-8" standalone="no"?>
<!-- Created with Inkscape (http://www.inkscape.org/) -->

<svg
   width="805.24988"
   height="248.98792"
   viewBox="0 0 213.0557 65.878052"
   version="1.1"
   id="svg5"
   xml:space="preserve"
   inkscape:version="1.2.2 (b0a8486541, 2022-12-01)"
   sodipodi:docname="design.svg"
   xmlns:inkscape="http://www.inkscape.org/namespaces/inkscape"
   xmlns:sodipodi="http://sodipodi.sourceforge.net/DTD/sodipodi-0.dtd"
   xmlns:xlink="http://www.w3.org/1999/xlink"
   xmlns="http://www.w3.org/2000/svg"
   xmlns:svg="http://www.w3.org/2000/svg"><sodipodi:namedview
     id="namedview7"
     pagecolor="#ffffff"
     bordercolor="#ebebeb"
     borderopacity="1"
     inkscape:showpageshadow="false"
     inkscape:pageopacity="0"
     inkscape:pagecheckerboard="false"
     inkscape:deskcolor="#ffffff"
     inkscape:document-units="px"
     showgrid="false"
     showguides="false"
     inkscape:zoom="0.64"
     inkscape:cx="379.6875"
     inkscape:cy="299.21875"
     inkscape:window-width="1920"
     inkscape:window-height="1011"
     inkscape:window-x="0"
     inkscape:window-y="32"
     inkscape:window-maximized="1"
     inkscape:current-layer="layer1"><inkscape:page
       x="0"
       y="0"
       width="213.05569"
       height="65.878052"
       id="page7242"
       inkscape:label="Brand" /><inkscape:page
       x="-4.6289065e-06"
       y="1.6601563e-06"
       width="65.878052"
       height="65.878052"
       id="page7244"
       inkscape:label="Icon" /><inkscape:page
       x="2.2689164"
       y="98.996582"
       width="213.05569"
       height="65.878052"
       id="page69065"
       inkscape:label="Brand-White" /><inkscape:page
       x="19.382433"
       y="176.69366"
       width="66.145828"
       height="66.145844"
       id="page24235"
       inkscape:label="Key" /><inkscape:page
       x="2.7450795"
       y="-86.941238"
       width="66.145836"
       height="66.145844"
       id="page27222"
       inkscape:label="Square" /></sodipodi:namedview><defs
     id="defs2"><linearGradient
       inkscape:collect="always"
       id="linearGradient92198"><stop
         style="stop-color:#090911;stop-opacity:1;"
         offset="0"
         id="stop92194" /><stop
         style="stop-color:#303a50;stop-opacity:1;"
         offset="1"
         id="stop92196" /></linearGradient><linearGradient
       id="linearGradient59832"><stop
         style="stop-color:#0ac247;stop-opacity:1;"
         offset="0"
         id="stop59828" /><stop
         style="stop-color:#3fb9a1;stop-opacity:1;"
         offset="1"
         id="stop59830" /></linearGradient><linearGradient
       inkscape:collect="always"
       id="silverline"><stop
         style="stop-color:#8cbff2;stop-opacity:1;"
         offset="0.04451345"
         id="stop15058" /><stop
         style="stop-color:#ffffff;stop-opacity:1;"
         offset="0.50488615"
         id="stop15060" /></linearGradient><linearGradient
       inkscape:collect="always"
       id="dorkodu"><stop
         style="stop-color:#006644;stop-opacity:1;"
         offset="0.0001"
         id="stop15052" /><stop
         style="stop-color:#36e236;stop-opacity:1;"
         offset="0.99989998"
         id="stop15054" /></linearGradient><linearGradient
       inkscape:collect="always"
       id="linearGradient11766"><stop
         style="stop-color:#7db2e8;stop-opacity:1;"
         offset="0.04451345"
         id="stop11762" /><stop
         style="stop-color:#ffffff;stop-opacity:1;"
         offset="0.50488615"
         id="stop11764" /></linearGradient><style
       id="style6568">.cls-1{fill:none;}.cls-2{clip-path:url(#clip-path);}</style><clipPath
       id="clip-path"><rect
         class="cls-1"
         x="0.059999999"
         width="24"
         height="24"
         id="rect6570"
         y="0" /></clipPath><linearGradient
       id="linearGradient5222-7"><stop
         style="stop-color:#17191c;stop-opacity:1;"
         offset="0"
         id="stop5218-5" /><stop
         style="stop-color:#2e3038;stop-opacity:1;"
         offset="1"
         id="stop5220-3" /></linearGradient><style
       id="style6568-5">.cls-1{fill:none;}.cls-2{clip-path:url(#clip-path);}</style><linearGradient
       xlink:href="#linearGradient5222-7"
       id="linearGradient3859-6"
       gradientUnits="userSpaceOnUse"
       x1="2487.3772"
       y1="3121.3364"
       x2="2487.3772"
       y2="2945.2664" /><style
       id="style6568-9">.cls-1{fill:none;}.cls-2{clip-path:url(#clip-path);}</style><linearGradient
       id="linearGradient45366-7"><stop
         style="stop-color:#aaaaaa;stop-opacity:1;"
         offset="0"
         id="stop45364-5" /></linearGradient><linearGradient
       id="id"><stop
         style="stop-color:#0ac247;stop-opacity:1;"
         offset="0"
         id="stop23041" /><stop
         style="stop-color:#ffffff;stop-opacity:1;"
         offset="1"
         id="stop23043" /></linearGradient><style
       id="style22571">.cls-1{fill:#84d0f7;}.cls-2{fill:#aa392d;}.cls-3{fill:#7c211a;}.cls-4{fill:#e59973;}.cls-5{fill:#2d2d2d;}.cls-6{opacity:0.2;}.cls-7{opacity:0.3;}</style><style
       id="style23309">
      .cls-1 {
        fill: none;
      }
    </style><linearGradient
       xlink:href="#id"
       id="linearGradient7102"
       gradientUnits="userSpaceOnUse"
       gradientTransform="matrix(0,3.6501243,-3.6501243,0,-570.23775,3667.4976)"
       x1="-161.08073"
       y1="-123.59392"
       x2="-56.793404"
       y2="-123.59392" /><linearGradient
       inkscape:collect="always"
       xlink:href="#dorkodu"
       id="linearGradient7511"
       gradientUnits="userSpaceOnUse"
       gradientTransform="matrix(0.6425786,0,0,0.64257862,91.64757,230.6564)"
       x1="211.29193"
       y1="762.6239"
       x2="301.67172"
       y2="672.24414" /><linearGradient
       inkscape:collect="always"
       xlink:href="#linearGradient11766"
       id="linearGradient7519"
       x1="183.2226"
       y1="668.23676"
       x2="244.85902"
       y2="668.23676"
       gradientUnits="userSpaceOnUse" /><linearGradient
       inkscape:collect="always"
       xlink:href="#silverline"
       id="linearGradient9162"
       x1="216.42819"
       y1="675.01855"
       x2="216.42819"
       y2="661.53064"
       gradientUnits="userSpaceOnUse"
       gradientTransform="translate(224.53669,29.278843)" /><linearGradient
       id="linearGradient9181"><stop
         style="stop-color:#9edcfa;stop-opacity:1;"
         offset="0.04900488"
         id="stop9177" /><stop
         style="stop-color:#ffffff;stop-opacity:1;"
         offset="0.3992942"
         id="stop9179" /></linearGradient><linearGradient
       id="linearGradient9175"><stop
         style="stop-color:#a8d8f0;stop-opacity:1;"
         offset="0"
         id="stop9171" /><stop
         style="stop-color:#ffffff;stop-opacity:1;"
         offset="0.50965863"
         id="stop9173" /></linearGradient><linearGradient
       id="linearGradient997"><stop
         style="stop-color:#006644;stop-opacity:1;"
         offset="0.0001"
         id="stop993" /><stop
         style="stop-color:#47eb55;stop-opacity:1;"
         offset="0.99989998"
         id="stop995" /></linearGradient><style
       id="style6568-7">.cls-1{fill:none;}.cls-2{clip-path:url(#clip-path);}</style><style
       id="style6568-5-5">.cls-1{fill:none;}.cls-2{clip-path:url(#clip-path);}</style><style
       id="style6568-9-3">.cls-1{fill:none;}.cls-2{clip-path:url(#clip-path);}</style><style
       id="style22571-5">.cls-1{fill:#84d0f7;}.cls-2{fill:#aa392d;}.cls-3{fill:#7c211a;}.cls-4{fill:#e59973;}.cls-5{fill:#2d2d2d;}.cls-6{opacity:0.2;}.cls-7{opacity:0.3;}</style><style
       id="style23309-6">
      .cls-1 {
        fill: none;
      }
    </style><linearGradient
       xlink:href="#linearGradient997"
       id="linearGradient7511-2"
       gradientUnits="userSpaceOnUse"
       gradientTransform="matrix(0.64519054,0,0,0.64519057,88.661826,230.73026)"
       x1="211.29193"
       y1="762.6239"
       x2="301.67172"
       y2="672.24414" /><linearGradient
       xlink:href="#linearGradient9181"
       id="linearGradient7519-9"
       x1="183.2226"
       y1="668.23676"
       x2="244.85902"
       y2="668.23676"
       gradientUnits="userSpaceOnUse" /><linearGradient
       xlink:href="#linearGradient9175"
       id="linearGradient9162-1"
       x1="216.42819"
       y1="675.01855"
       x2="216.42819"
       y2="663.04755"
       gradientUnits="userSpaceOnUse" /><path
       id="wallet-a"
       d="M 0,0 H 16 V 2 H 0 Z m 0,13 h 20 v 3 H 0 Z M 11,9 h 9 v 3 h -9 z" /><path
       id="wallet-c"
       d="M 20,8 V 6 H 17 2 v 12 h 18 v -2 h -8 c -0.552285,0 -1,-0.447715 -1,-1 V 9 c 0,-0.5522847 0.447715,-1 1,-1 z m 0,2 h -7 v 4 h 7 z M 16,4 V 2 H 2 v 2 z m 2,0 h 2 c 1.104569,0 2,0.8954305 2,2 v 12 c 0,1.104569 -0.895431,2 -2,2 H 2 C 0.8954305,20 0,19.104569 0,18 V 2 C 0,0.8954305 0.8954305,0 2,0 h 14 c 1.104569,0 2,0.8954305 2,2 z m -3,9 c -0.552285,0 -1,-0.447715 -1,-1 0,-0.552285 0.447715,-1 1,-1 0.552285,0 1,0.447715 1,1 0,0.552285 -0.447715,1 -1,1 z" /><path
       id="paper-bag-a"
       d="M 4,2 C 3.4477153,2 3,1.5522847 3,1 3,0.44771525 3.4477153,0 4,0 h 3.3326416 c 0.5522847,0 1,0.44771525 1,1 0,0.5522847 -0.4477153,1 -1,1 z M 0,9 h 16 v 5 H 0 Z" /><path
       id="paper-bag-c"
       d="M 16,16 V 3 L 14.270935,4.7392578 12.5,3 10.696594,4.7392578 9,3 7.0523987,4.7392578 5.5,3 3.846344,4.7392578 2,3 v 13 z m 0,2 H 2 v 3 H 16 Z M 14.29284,1.9575263 C 14.644286,1.3832258 15.277389,1 16,1 c 1.104569,0 2,0.8954305 2,2 v 18 c 0,1.104569 -0.895431,2 -2,2 H 2 C 0.8954305,23 0,22.104569 0,21 V 3 C 0,1.246839 2.0952392,0.34208676 3.3713657,1.5441992 L 3.7686374,1.9184294 4.0505676,1.621905 C 4.8561456,0.77462614 6.2135839,0.79599562 6.9920927,1.668212 L 7.2123611,1.9149937 7.6678286,1.5082495 C 8.4661629,0.79531659 9.68428,0.83727675 10.431664,1.6034546 L 10.739635,1.91917 11.111622,1.5604149 c 0.779851,-0.7521118 2.016783,-0.74649537 2.789772,0.012667 z M 5,9 C 4.4477152,9 4,8.5522848 4,8 4,7.4477152 4.4477152,7 5,7 h 3.3326416 c 0.5522848,0 1,0.4477152 1,1 0,0.5522848 -0.4477152,1 -1,1 z" /><polygon
       id="layers-a"
       points="8.892,7.983 0.77,3.314 4.143,0.351 8.892,3 13.823,0.351 17.014,3 " /><path
       id="layers-c"
       d="M 1.4688711,8 1.0077221,7.7364863 c -1.34362947,-0.7677883 -1.34362947,-2.7051843 0,-3.4729726 l 7,-3.99999998 c 0.6148654,-0.35135163 1.3696904,-0.35135163 1.9845558,0 L 16.992278,4.2635137 c 1.343629,0.7677883 1.343629,2.7051843 0,3.4729726 L 16.531129,8 16.992278,8.2635137 c 1.343629,0.7677883 1.343629,2.7051843 0,3.4729723 L 16.531129,12 l 0.461149,0.263514 c 1.343629,0.767788 1.343629,2.705184 0,3.472972 l -7.0000001,4 c -0.6148654,0.351352 -1.3696904,0.351352 -1.9845558,0 l -7,-4 c -1.34362947,-0.767788 -1.34362947,-2.705184 0,-3.472972 L 1.4688711,12 1.0077221,11.736486 c -1.34362947,-0.767788 -1.34362947,-2.705184 0,-3.4729723 z M 14.515564,9.1517511 9.9922779,11.736486 c -0.6148654,0.351352 -1.3696904,0.351352 -1.9845558,0 L 3.4844356,9.1517511 2,10 9,14 16,10 Z M 3.4844356,13.151751 2,14 l 7,4 7,-4 -1.484436,-0.848249 -4.5232861,2.584735 c -0.6148654,0.351352 -1.3696904,0.351352 -1.9845558,0 z M 9,2 2,6 9,10 16,6 Z" /><polygon
       id="comment-a"
       points="19,0 19,3 16.637,3 15.732,7.26 10.79,3 0,3 0,0 " /><path
       id="comment-c"
       d="M 3,2 C 2.4477153,2 2,2.4477153 2,3 v 10 c 0,0.552285 0.4477153,1 1,1 h 10 l 4,4 v -4 h 2 c 0.552285,0 1,-0.447715 1,-1 V 3 C 20,2.4477153 19.552285,2 19,2 Z m 16,14 v 2 c 0,1.78181 -2.154284,2.674143 -3.414214,1.414214 L 12.171573,16 H 3 C 1.3431457,16 0,14.656854 0,13 V 3 C 0,1.3431457 1.3431457,0 3,0 h 16 c 1.656854,0 3,1.3431457 3,3 v 10 c 0,1.656854 -1.343146,3 -3,3 z M 5,7 H 17 C 17.552285,7 18,6.5522847 18,6 18,5.4477152 17.552285,5 17,5 H 5 C 4.4477152,5 4,5.4477152 4,6 4,6.5522847 4.4477152,7 5,7 Z m 0,4 h 7 c 0.552285,0 1,-0.447715 1,-1 C 13,9.4477153 12.552285,9 12,9 H 5 c -0.5522848,0 -1,0.4477153 -1,1 0,0.552285 0.4477152,1 1,1 z" /><path
       id="box-a"
       d="m 0,9 h 18 v 3 H 0 Z M 7,0 h 4 V 7 H 7 Z" /><path
       id="box-c"
       d="m 14,8 v 6 c 0,0.552285 -0.447715,1 -1,1 H 7 C 6.4477152,15 6,14.552285 6,14 V 8 H 2 V 18 H 18 V 8 Z M 12,8 H 8 v 5 h 4 z M 2,6 H 18 L 15,2 H 5 Z M 0,18 V 6 C 0,5.5672596 0.14035574,5.1461923 0.4,4.8 l 3,-4 C 3.7777088,0.29638832 4.3704854,0 5,0 h 10 c 0.629515,0 1.222291,0.29638832 1.6,0.8 l 3,4 C 19.859644,5.1461923 20,5.5672596 20,6 v 12 c 0,1.104569 -0.895431,2 -2,2 H 2 C 0.8954305,20 0,19.104569 0,18 Z" /><path
       id="book-a"
       d="M 0,0 H 2 V 17 H 0 Z m 8,2 h 5 V 7 H 8 Z" /><path
       id="book-c"
       d="M 4,1.9047619 C 4,1.4050757 4.4477152,1 5,1 5.5522847,1 6,1.4050757 6,1.9047619 V 19.095238 C 6,19.594924 5.5522847,20 5,20 4.4477152,20 4,19.594924 4,19.095238 Z m 12,2.0316487 c 0.0013,0.021027 0.002,0.04223 0.002,0.063589 v 5 c 0,0.02136 -6.7e-4,0.042563 -0.002,0.063589 V 19 c 0,1.104569 -0.89543,2 -2,2 H 2 C 0.8954305,21 0,20.104569 0,19 V 2 C 0,0.8954305 0.8954305,0 2,0 h 12 c 1.10457,0 2,0.8954305 2,2 z M 14,3 V 2 H 2 V 19 H 14 V 10 H 8.0019892 C 7.0638526,10 6.6420867,8.8245995 7.366197,8.2281397 L 9.4641822,6.5 7.366197,4.7718603 C 6.6420867,4.1754005 7.0638526,3 8.0019892,3 Z m -3.211156,2 0.883972,0.7281397 c 0.48561,0.4000041 0.48561,1.1437165 0,1.5437206 L 10.788844,8 h 3.213145 V 5 Z" /><linearGradient
       inkscape:collect="always"
       xlink:href="#dorkodu"
       id="linearGradient54667"
       x1="33.652584"
       y1="-2.6965868"
       x2="35.24931"
       y2="-2.6965868"
       gradientUnits="userSpaceOnUse"
       gradientTransform="matrix(1.2816035,0,0,1.2816035,-9.4946994,1.085548)" /><linearGradient
       inkscape:collect="always"
       xlink:href="#dorkodu"
       id="linearGradient54675"
       x1="34.056126"
       y1="-3.2207918"
       x2="35.648861"
       y2="-3.2207918"
       gradientUnits="userSpaceOnUse"
       gradientTransform="matrix(1.2816035,0,0,1.2816035,-9.4946994,1.085548)" /><linearGradient
       inkscape:collect="always"
       xlink:href="#dorkodu"
       id="linearGradient59840"
       x1="34.151718"
       y1="-3.042233"
       x2="36.193005"
       y2="-3.042233"
       gradientUnits="userSpaceOnUse" /><linearGradient
       inkscape:collect="always"
       xlink:href="#dorkodu"
       id="linearGradient91660"
       gradientUnits="userSpaceOnUse"
       gradientTransform="matrix(0.64272444,0,0,0.64272446,92.118925,44.771838)"
       x1="211.29193"
       y1="762.6239"
       x2="301.67172"
       y2="672.24414" /><linearGradient
       inkscape:collect="always"
       xlink:href="#linearGradient991"
       id="linearGradient993"
       x1="214.11026"
       y1="674.91003"
       x2="214.11026"
       y2="661.54034"
       gradientUnits="userSpaceOnUse"
       gradientTransform="matrix(2.1594696,0,0,2.4745758,135.42535,-1143.9358)" /><linearGradient
       inkscape:collect="always"
       id="linearGradient991"><stop
         style="stop-color:#090911;stop-opacity:1;"
         offset="0"
         id="stop987" /><stop
         style="stop-color:#394660;stop-opacity:1;"
         offset="1"
         id="stop989" /></linearGradient><linearGradient
       inkscape:collect="always"
       xlink:href="#dorkodu"
       id="linearGradient92053"
       gradientUnits="userSpaceOnUse"
       gradientTransform="matrix(0.6425786,0,0,0.64257862,89.378668,131.65979)"
       x1="211.29193"
       y1="762.6239"
       x2="301.67172"
       y2="672.24414" /><linearGradient
       inkscape:collect="always"
       xlink:href="#linearGradient92198"
       id="linearGradient92055"
       gradientUnits="userSpaceOnUse"
       gradientTransform="translate(224.53669,29.278843)"
       x1="216.42819"
       y1="675.01855"
       x2="216.42819"
       y2="661.53064" /><linearGradient
       inkscape:collect="always"
       xlink:href="#linearGradient991"
       id="linearGradient92057"
       gradientUnits="userSpaceOnUse"
       x1="183.2226"
       y1="668.23676"
       x2="244.85902"
       y2="668.23676" /><linearGradient
       inkscape:collect="always"
       xlink:href="#dorkodu"
       id="linearGradient92338"
       gradientUnits="userSpaceOnUse"
       gradientTransform="matrix(1.2816035,0,0,1.2816035,-9.4946994,1.085548)"
       x1="33.652584"
       y1="-2.6965868"
       x2="35.24931"
       y2="-2.6965868" /></defs><g
     inkscape:label="Layer 1"
     inkscape:groupmode="layer"
     id="layer1"
     transform="translate(-220.36176,-558.83795)"><rect
       style="font-weight:900;font-size:53.7023px;font-family:Rubik;-inkscape-font-specification:'Rubik Heavy';letter-spacing:-0.719445px;fill:#000000;fill-opacity:1;stroke-width:12.4194"
       id="rect22610"
       width="331.84866"
       height="230.70428"
       x="-409.98575"
       y="587.073"
       rx="115.35214"
       ry="115.35214" /><g
       style="fill:#c2d3d6;fill-opacity:1"
       id="g2601"
       transform="matrix(0.12296957,0,0,0.12296957,989.65709,3098.4858)" /><g
       style="fill:#ffffff;fill-opacity:1"
       id="g69027"
       transform="matrix(0.01311796,0,0,0.01311796,146.44775,764.86626)"><g
         id="g69025"
         style="fill:#ffffff;fill-opacity:1">
	<g
   id="g69023"
   style="fill:#ffffff;fill-opacity:0.619433"
   transform="translate(-15.400024,-34.743674)">
		
		
	</g>
</g></g><g
       style="fill:#c2d3d6;fill-opacity:1"
       id="g45797"
       transform="matrix(0.03190418,0,0,0.03190418,-256.16264,1085.3908)" /><g
       style="fill:#c2d3d6;fill-opacity:1"
       id="g51940"
       transform="matrix(0.03190418,0,0,0.03190418,239.16619,573.51626)" /><text
       xml:space="preserve"
       style="font-style:normal;font-variant:normal;font-weight:900;font-stretch:normal;font-size:54.7666px;font-family:Rubik;-inkscape-font-specification:'Rubik Heavy';letter-spacing:-0.733703px;fill:#141a1f;fill-opacity:1;stroke-width:110.871"
       x="-52.411217"
       y="463.33594"
       id="text22488"
       transform="scale(0.92919057,1.0762055)"><tspan
         sodipodi:role="line"
         id="tspan22486"
         style="font-style:normal;font-variant:normal;font-weight:900;font-stretch:normal;font-family:Rubik;-inkscape-font-specification:'Rubik Heavy';fill:#141a1f;fill-opacity:1;stroke-width:110.871"
         x="-52.411217"
         y="463.33594">Forum</tspan></text><g
       aria-label="Forum"
       transform="matrix(2.1507274,0,0,2.4645579,-573.85604,-1028.3425)"
       id="g7495"
       style="font-weight:900;font-size:19.1621px;font-family:Rubik;-inkscape-font-specification:'Rubik Heavy';letter-spacing:-0.538838px;fill:url(#linearGradient7519);fill-opacity:1;stroke-width:38.7921"><path
         id="path7485"
         style="fill:url(#linearGradient9162);fill-opacity:1"
         d="m 408.27668,690.71307 c -0.14052,0 -0.26178,0.0511 -0.36398,0.15328 -0.1022,0.1022 -0.15339,0.22347 -0.15339,0.36399 v 12.37879 c 0,0.14052 0.0512,0.26179 0.15339,0.36399 0.1022,0.1022 0.22346,0.15328 0.36398,0.15328 h 3.65988 c 0.14052,0 0.26201,-0.0511 0.36421,-0.15328 0.1022,-0.1022 0.15316,-0.22347 0.15316,-0.36399 v -3.60252 h 5.09712 c 0.14053,0 0.26202,-0.0511 0.36422,-0.15328 0.1022,-0.1022 0.15315,-0.22347 0.15315,-0.36399 v -2.89354 c 0,-0.14052 -0.051,-0.26179 -0.15315,-0.36399 -0.1022,-0.1022 -0.22369,-0.15349 -0.36422,-0.15349 h -5.09712 v -1.41795 h 5.48048 c 0.14052,0 0.26178,-0.0511 0.36398,-0.15328 0.10219,-0.1022 0.15339,-0.22347 0.15339,-0.36399 v -2.91276 c 0,-0.14052 -0.0512,-0.26179 -0.15339,-0.36399 -0.1022,-0.10219 -0.22346,-0.15328 -0.36398,-0.15328 z m 51.7736,3.2544 c -0.0461,4.7e-4 -0.0926,0.002 -0.13975,0.003 -0.62596,0.0256 -1.17541,0.18524 -1.64807,0.47906 -0.45989,0.28104 -0.79843,0.56843 -1.0156,0.86225 v -0.63233 c 0,-0.14052 -0.051,-0.26179 -0.15315,-0.36399 -0.1022,-0.1022 -0.22369,-0.15349 -0.36422,-0.15349 h -3.16165 c -0.14053,0 -0.26179,0.0513 -0.36398,0.15349 -0.1022,0.1022 -0.15339,0.22347 -0.15339,0.36399 v 8.92955 c 0,0.14052 0.0512,0.26179 0.15339,0.36399 0.10219,0.1022 0.22345,0.15328 0.36398,0.15328 h 3.44905 c 0.14052,0 0.26202,-0.0511 0.36422,-0.15328 0.10219,-0.1022 0.15315,-0.22347 0.15315,-0.36399 v -5.26961 c 0,-0.20439 0.0321,-0.37052 0.096,-0.49826 0.0639,-0.14053 0.15329,-0.24913 0.26826,-0.32578 0.11497,-0.0766 0.24896,-0.11485 0.40226,-0.11485 0.16607,0 0.30031,0.0382 0.40251,0.11485 0.11498,0.0639 0.20439,0.16625 0.26826,0.30677 0.0639,0.14052 0.0957,0.31288 0.0957,0.51727 v 5.26961 c 0,0.14052 0.0512,0.26179 0.15339,0.36399 0.10219,0.1022 0.22345,0.15328 0.36398,0.15328 h 3.37271 c 0.14052,0 0.26178,-0.0511 0.36398,-0.15328 0.10219,-0.1022 0.15339,-0.22347 0.15339,-0.36399 v -5.26961 c 0,-0.20439 0.0254,-0.37675 0.0766,-0.51727 0.0639,-0.14053 0.15328,-0.2429 0.26826,-0.30677 0.11497,-0.0766 0.2492,-0.11485 0.4025,-0.11485 0.16607,0 0.30007,0.0382 0.40227,0.11485 0.11498,0.0639 0.20439,0.16625 0.26825,0.30677 0.0639,0.14052 0.096,0.31288 0.096,0.51727 v 5.26961 c 0,0.14052 0.051,0.26179 0.15316,0.36399 0.10219,0.1022 0.22369,0.15328 0.36421,0.15328 h 3.37248 c 0.14052,0 0.26178,-0.0511 0.36398,-0.15328 0.10219,-0.1022 0.15339,-0.22347 0.15339,-0.36399 v -5.36546 c 0,-1.0092 -0.15972,-1.82673 -0.47908,-2.4527 -0.31937,-0.62596 -0.74732,-1.08592 -1.28385,-1.37974 -0.52377,-0.29382 -1.11143,-0.44063 -1.76294,-0.44063 -0.58764,0 -1.14958,0.15325 -1.68612,0.45985 -0.53654,0.29382 -0.95174,0.66427 -1.24556,1.11139 -0.49502,-1.06427 -1.45775,-1.58904 -2.88789,-1.57437 z m -35.50732,0.003 c -1.1114,0 -2.06944,0.15968 -2.87425,0.47906 -0.80481,0.31936 -1.4373,0.79843 -1.89718,1.43716 -0.4599,0.62597 -0.72176,1.41153 -0.78563,2.35685 -0.0128,0.28105 -0.0191,0.58132 -0.0191,0.90068 0,0.3066 0.006,0.60686 0.0191,0.90068 0.0639,0.93256 0.30663,1.71811 0.72819,2.35685 0.43434,0.63874 1.05409,1.1178 1.8589,1.43717 0.80481,0.31937 1.7947,0.47905 2.96997,0.47905 1.17527,0 2.1654,-0.15968 2.97021,-0.47905 0.80481,-0.31937 1.41794,-0.79843 1.83951,-1.43717 0.43435,-0.63874 0.68347,-1.42429 0.74734,-2.35685 0.0255,-0.29382 0.0383,-0.59408 0.0383,-0.90068 0,-0.31936 -0.0128,-0.61963 -0.0383,-0.90068 -0.0639,-0.94532 -0.32573,-1.73088 -0.78563,-2.35685 -0.45988,-0.63873 -1.09237,-1.1178 -1.89718,-1.43716 -0.80481,-0.31938 -1.76285,-0.47906 -2.87425,-0.47906 z m 6.99191,0.1915 c -0.14052,0 -0.26178,0.0513 -0.36398,0.15349 -0.1022,0.1022 -0.15339,0.22347 -0.15339,0.36399 v 8.92955 c 0,0.14052 0.0512,0.26179 0.15339,0.36399 0.1022,0.1022 0.22346,0.15328 0.36398,0.15328 h 3.64073 c 0.14052,0 0.26202,-0.0511 0.36422,-0.15328 0.1022,-0.1022 0.15315,-0.22347 0.15315,-0.36399 v -4.27307 c 0,-0.38324 0.0958,-0.67085 0.28741,-0.86247 0.19162,-0.19162 0.4792,-0.28735 0.86244,-0.28735 h 2.47174 c 0.14053,0 0.26203,-0.0511 0.36422,-0.15328 0.1022,-0.1022 0.15339,-0.22347 0.15339,-0.36399 v -2.98939 c 0,-0.14052 -0.0512,-0.26179 -0.15339,-0.36399 -0.10219,-0.1022 -0.22369,-0.15349 -0.36422,-0.15349 h -0.91963 c -0.57486,0 -1.11794,0.1086 -1.62893,0.32577 -0.49821,0.21718 -0.95163,0.50478 -1.36043,0.86247 v -0.67076 c 0,-0.14052 -0.051,-0.26179 -0.15315,-0.36399 -0.1022,-0.1022 -0.2237,-0.15349 -0.36422,-0.15349 z m 9.56081,0 c -0.14052,0 -0.26201,0.0513 -0.36421,0.15349 -0.1022,0.1022 -0.15316,0.22347 -0.15316,0.36399 v 5.28881 c 0,1.00921 0.17246,1.83319 0.51737,2.47192 0.3577,0.63874 0.81749,1.11136 1.37958,1.41795 0.57486,0.30659 1.18163,0.45984 1.82036,0.45984 0.67706,0 1.29681,-0.10216 1.8589,-0.30656 0.56208,-0.21717 1.00277,-0.56208 1.32214,-1.03475 v 0.63234 c 0,0.14052 0.051,0.26179 0.15315,0.36399 0.10219,0.1022 0.22369,0.15328 0.36422,0.15328 h 3.35333 c 0.14052,0 0.26178,-0.0511 0.36398,-0.15328 0.10219,-0.1022 0.15339,-0.22347 0.15339,-0.36399 v -8.92955 c 0,-0.14052 -0.0512,-0.26179 -0.15339,-0.36399 -0.1022,-0.1022 -0.22346,-0.15349 -0.36398,-0.15349 h -3.64073 c -0.14053,0 -0.26203,0.0513 -0.36422,0.15349 -0.1022,0.1022 -0.15315,0.22347 -0.15315,0.36399 v 5.15454 c 0,0.34491 -0.083,0.60677 -0.24912,0.78561 -0.16607,0.17885 -0.40245,0.26835 -0.70905,0.26835 -0.63873,0 -0.95816,-0.35136 -0.95816,-1.05396 v -5.15454 c 0,-0.14052 -0.0512,-0.26179 -0.15339,-0.36399 -0.10219,-0.1022 -0.22345,-0.15349 -0.36398,-0.15349 z m -16.55272,2.87433 c 0.37047,0 0.60048,0.11504 0.68991,0.34498 0.0894,0.21717 0.147,0.53655 0.17253,0.95811 0.0128,0.19162 0.0191,0.45991 0.0191,0.80483 0,0.34492 -0.006,0.61321 -0.0191,0.80483 -0.0255,0.44711 -0.0831,0.77915 -0.17253,0.99633 -0.0894,0.20439 -0.31944,0.30677 -0.68991,0.30677 -0.35769,0 -0.58771,-0.10238 -0.68991,-0.30677 -0.0894,-0.21718 -0.14676,-0.54922 -0.17229,-0.99633 -0.0128,-0.19162 -0.0191,-0.45991 -0.0191,-0.80483 0,-0.34492 0.006,-0.61321 0.0191,-0.80483 0.0255,-0.42156 0.0829,-0.74094 0.17229,-0.95811 0.1022,-0.22994 0.33222,-0.34498 0.68991,-0.34498 z" /></g><rect
       style="fill:url(#linearGradient7511);fill-opacity:1;stroke-width:4.13018"
       id="rect7497"
       width="65.878052"
       height="65.878052"
       x="222.63068"
       y="657.83453"
       rx="13.175611"
       ry="13.175611"
       inkscape:export-filename="../../../../Desktop/rect15941.png"
       inkscape:export-xdpi="191.99998"
       inkscape:export-ydpi="191.99998" /><g
       style="font-weight:900;font-size:19.1621px;font-family:Rubik;-inkscape-font-specification:'Rubik Heavy';letter-spacing:-0.538838px;fill:none;fill-opacity:1;stroke-width:38.7921"
       id="g37786"
       transform="matrix(25.733351,0,0,25.733352,-625.65471,836.2221)"><path
         opacity="0.4"
         d="m 35.680884,-2.7835541 v 0.5122331 c 0,0.033295 -0.0013,0.065311 -0.0051,0.096043 -0.02946,0.3457577 -0.233065,0.5173559 -0.608278,0.5173559 h -0.05124 c -0.03202,0 -0.06274,0.015367 -0.08196,0.040977 l -0.153613,0.2048946 c -0.06787,0.090921 -0.178003,0.090921 -0.245872,0 l -0.15362,-0.2048925 c -0.01666,-0.021769 -0.05378,-0.040978 -0.08195,-0.040978 h -0.05124 c -0.408506,0 -0.613399,-0.1011656 -0.613399,-0.6133994 v -0.5122333 c 0,-0.3752097 0.172878,-0.5788224 0.517356,-0.6082759 0.03073,-0.00384 0.06274,-0.00512 0.09605,-0.00512 h 0.819573 c 0.408505,0 0.613399,0.2048946 0.613399,0.6133994 z"
         fill="#292d32"
         id="path37776"
         style="opacity:1;fill:url(#linearGradient92338);fill-opacity:1;stroke-width:0;stroke-dasharray:none" /><path
         d="m 36.193003,-3.2957862 v 0.5122321 c 0,0.3764913 -0.17288,0.5788235 -0.517357,0.6082769 0.0038,-0.030735 0.0051,-0.06275 0.0051,-0.096043 v -0.5122339 c 0,-0.4085049 -0.204893,-0.6133996 -0.6134,-0.6133996 h -0.819578 c -0.03329,0 -0.06531,0.00129 -0.09605,0.00512 0.02947,-0.3444751 0.233066,-0.5173552 0.608283,-0.5173552 h 0.819574 c 0.408505,0 0.613398,0.2048946 0.613398,0.6134006 z"
         fill="#292d32"
         id="path37784"
         style="fill:url(#linearGradient54675);fill-opacity:1;stroke-width:0;stroke-dasharray:none" /></g><path
       id="path40787-7"
       style="font-weight:900;font-size:19.1621px;font-family:Rubik;-inkscape-font-specification:'Rubik Heavy';letter-spacing:-0.538838px;fill:#ffffff;fill-opacity:1;stroke-width:130.927"
       d="m 276.81692,758.72802 c -2.08071,0.4471 -2.90791,2.6247 -4.16685,4.08354 -3.1669,4.27902 -6.3338,8.55807 -9.50076,12.83709 -2.36821,-1.68442 -4.60428,-3.57549 -7.07838,-5.09577 -2.24541,-0.9789 -5.13645,0.78753 -5.18387,3.26606 -0.15516,1.76726 1.13669,3.25057 2.58609,4.07041 3.00173,2.16221 5.89065,4.50036 8.98208,6.52599 1.84743,0.83922 4.10002,-0.15322 5.01768,-1.89494 4.50616,-6.11666 9.08365,-12.18565 13.52168,-18.34798 1.30894,-2.23276 -0.43824,-5.47307 -3.05253,-5.52839 -0.37715,-0.0273 -0.75552,0.006 -1.12515,0.0841 z" /><g
       id="g46545"
       transform="matrix(0.79988113,0,0,0.79988113,514.45218,128.3782)"><g
         style="font-weight:900;font-size:19.1621px;font-family:Rubik;-inkscape-font-specification:'Rubik Heavy';letter-spacing:-0.538838px;fill:none;fill-opacity:1;stroke-width:38.7921"
         id="g45085"
         transform="matrix(30.966839,0,0,30.96684,-1395.0191,793.26767)" /><g
         id="g62881"
         transform="translate(-1.9060562,-0.61374095)"><path
           opacity="0.4"
           d="m 35.24148,-3.0043397 v 0.3944818 c 0,0.025641 -9.87e-4,0.050297 -0.0039,0.073965 -0.02268,0.2662754 -0.179489,0.3984269 -0.468447,0.3984269 h -0.03945 c -0.02466,0 -0.04832,0.011835 -0.06312,0.031558 l -0.118301,0.1577937 c -0.05227,0.07002 -0.137083,0.07002 -0.189352,0 L 34.240519,-2.105907 c -0.01282,-0.016765 -0.04141,-0.031558 -0.06311,-0.031558 h -0.03945 c -0.3146,0 -0.472393,-0.07791 -0.472393,-0.472392 v -0.394482 c 0,-0.2889571 0.133137,-0.4457636 0.398427,-0.4684463 0.02367,-0.00296 0.04832,-0.00395 0.07397,-0.00395 h 0.63117 c 0.3146,0 0.472393,0.1577937 0.472393,0.4723921 z"
           fill="#292d32"
           id="path45081"
           style="font-weight:900;font-size:19.1621px;font-family:Rubik;-inkscape-font-specification:'Rubik Heavy';letter-spacing:-0.538838px;opacity:1;fill:#ffffff;fill-opacity:0.65;stroke-width:3.82569;stroke-dasharray:none"
           transform="matrix(30.966839,0,0,30.96684,-1395.0191,793.26767)" /><path
           d="m 35.635874,-3.3988208 v 0.3944811 c 0,0.2899441 -0.133138,0.4457644 -0.398428,0.4684471 0.003,-0.023669 0.0039,-0.048324 0.0039,-0.073965 V -3.00434 c 0,-0.3145984 -0.157792,-0.4723922 -0.472391,-0.4723922 h -0.631176 c -0.02564,0 -0.0503,9.87e-4 -0.07397,0.00395 0.02269,-0.2652878 0.17949,-0.3984264 0.468452,-0.3984264 h 0.631171 c 0.314599,0 0.472392,0.1577937 0.472392,0.472393 z"
           fill="#292d32"
           id="path45083"
           style="font-weight:900;font-size:19.1621px;font-family:Rubik;-inkscape-font-specification:'Rubik Heavy';letter-spacing:-0.538838px;fill:#eaebed;fill-opacity:0.45;stroke-width:3.82569"
           transform="matrix(30.966839,0,0,30.96684,-1395.0191,793.26767)" /><path
           id="path45087"
           style="font-weight:900;font-size:19.1621px;font-family:Rubik;-inkscape-font-specification:'Rubik Heavy';letter-spacing:-0.538838px;fill:#ffffff;fill-opacity:1;stroke-width:121.336"
           d="m -317.38742,695.45762 c -1.96031,0.21735 -2.92693,2.14761 -4.22431,3.37475 -3.32067,3.64863 -6.64134,7.29729 -9.96204,10.94593 -2.02574,-1.77486 -3.91025,-3.72785 -6.04899,-5.36126 -1.97856,-1.11286 -4.80956,0.24501 -5.08541,2.52577 -0.3086,1.61487 0.74356,3.10348 2.00311,3.99515 2.56509,2.27468 5.00968,4.70103 7.67024,6.85822 1.62473,0.94679 3.79456,0.24273 4.80379,-1.27718 4.72755,-5.21749 9.51644,-10.38437 14.18547,-15.65035 1.41596,-1.93601 0.10855,-5.08722 -2.29663,-5.38309 -0.34518,-0.0605 -0.6972,-0.0647 -1.04524,-0.0279 z" /></g></g><g
       style="font-weight:900;font-size:19.1621px;font-family:Rubik;-inkscape-font-specification:'Rubik Heavy';letter-spacing:-0.538838px;fill:none;fill-opacity:1;stroke-width:38.7921"
       id="g58362"
       transform="matrix(25.733351,0,0,25.733352,-625.65471,836.2221)"><path
         opacity="0.4"
         d="m 35.680884,-2.7835541 v 0.5122331 c 0,0.033295 -0.0013,0.065311 -0.0051,0.096043 -0.02946,0.3457577 -0.233065,0.5173559 -0.608278,0.5173559 h -0.05124 c -0.03202,0 -0.06274,0.015367 -0.08196,0.040977 l -0.153613,0.2048946 c -0.06787,0.090921 -0.178003,0.090921 -0.245872,0 l -0.15362,-0.2048925 c -0.01666,-0.021769 -0.05378,-0.040978 -0.08195,-0.040978 h -0.05124 c -0.408506,0 -0.613399,-0.1011656 -0.613399,-0.6133994 v -0.5122333 c 0,-0.3752097 0.172878,-0.5788224 0.517356,-0.6082759 0.03073,-0.00384 0.06274,-0.00512 0.09605,-0.00512 h 0.819573 c 0.408505,0 0.613399,0.2048946 0.613399,0.6133994 z"
         fill="#292d32"
         id="path58358"
         style="opacity:1;fill:url(#linearGradient54667);fill-opacity:1;stroke-width:0;stroke-dasharray:none" /><path
         d="m 36.193003,-3.2957862 v 0.5122321 c 0,0.3764913 -0.17288,0.5788235 -0.517357,0.6082769 0.0038,-0.030735 0.0051,-0.06275 0.0051,-0.096043 v -0.5122339 c 0,-0.4085049 -0.204893,-0.6133996 -0.6134,-0.6133996 h -0.819578 c -0.03329,0 -0.06531,0.00129 -0.09605,0.00512 0.02947,-0.3444751 0.233066,-0.5173552 0.608283,-0.5173552 h 0.819574 c 0.408505,0 0.613398,0.2048946 0.613398,0.6134006 z"
         fill="#292d32"
         id="path58360"
         style="opacity:1;fill:url(#linearGradient59840);fill-opacity:1;stroke-width:0;stroke-dasharray:none" /></g><path
       id="path58364"
       style="font-weight:900;font-size:19.1621px;font-family:Rubik;-inkscape-font-specification:'Rubik Heavy';letter-spacing:-0.538838px;fill:#ffffff;fill-opacity:1;stroke-width:130.927"
       d="m 276.81692,758.72802 c -2.08071,0.4471 -2.90791,2.6247 -4.16685,4.08354 -3.1669,4.27902 -6.3338,8.55807 -9.50076,12.83709 -2.36821,-1.68442 -4.60428,-3.57549 -7.07838,-5.09577 -2.24541,-0.9789 -5.13645,0.78753 -5.18387,3.26606 -0.15516,1.76726 1.13669,3.25057 2.58609,4.07041 3.00173,2.16221 5.89065,4.50036 8.98208,6.52599 1.84743,0.83922 4.10002,-0.15322 5.01768,-1.89494 4.50616,-6.11666 9.08365,-12.18565 13.52168,-18.34798 1.30894,-2.23276 -0.43824,-5.47307 -3.05253,-5.52839 -0.37715,-0.0273 -0.75552,0.006 -1.12515,0.0841 z" /><rect
       style="fill:url(#linearGradient91660);fill-opacity:1;stroke-width:4.13113"
       id="rect91646"
       width="65.892998"
       height="65.892998"
       x="223.13177"
       y="472.04697"
       rx="0"
       ry="0"
       inkscape:export-filename="../../../../Desktop/rect15941.png"
       inkscape:export-xdpi="191.99998"
       inkscape:export-ydpi="191.99998" /><g
       id="g91658"
       transform="matrix(0.80006267,0,0,0.80006267,515.01949,-57.529703)"><g
         style="font-weight:900;font-size:19.1621px;font-family:Rubik;-inkscape-font-specification:'Rubik Heavy';letter-spacing:-0.538838px;fill:none;fill-opacity:1;stroke-width:38.7921"
         id="g91648"
         transform="matrix(30.966839,0,0,30.96684,-1395.0191,793.26767)" /><g
         id="g91656"
         transform="translate(-1.9060562,-0.61374095)"><path
           opacity="0.4"
           d="m 35.24148,-3.0043397 v 0.3944818 c 0,0.025641 -9.87e-4,0.050297 -0.0039,0.073965 -0.02268,0.2662754 -0.179489,0.3984269 -0.468447,0.3984269 h -0.03945 c -0.02466,0 -0.04832,0.011835 -0.06312,0.031558 l -0.118301,0.1577937 c -0.05227,0.07002 -0.137083,0.07002 -0.189352,0 L 34.240519,-2.105907 c -0.01282,-0.016765 -0.04141,-0.031558 -0.06311,-0.031558 h -0.03945 c -0.3146,0 -0.472393,-0.07791 -0.472393,-0.472392 v -0.394482 c 0,-0.2889571 0.133137,-0.4457636 0.398427,-0.4684463 0.02367,-0.00296 0.04832,-0.00395 0.07397,-0.00395 h 0.63117 c 0.3146,0 0.472393,0.1577937 0.472393,0.4723921 z"
           fill="#292d32"
           id="path91650"
           style="font-weight:900;font-size:19.1621px;font-family:Rubik;-inkscape-font-specification:'Rubik Heavy';letter-spacing:-0.538838px;opacity:1;fill:#ffffff;fill-opacity:0.65;stroke-width:3.82569;stroke-dasharray:none"
           transform="matrix(30.966839,0,0,30.96684,-1395.0191,793.26767)" /><path
           d="m 35.635874,-3.3988208 v 0.3944811 c 0,0.2899441 -0.133138,0.4457644 -0.398428,0.4684471 0.003,-0.023669 0.0039,-0.048324 0.0039,-0.073965 V -3.00434 c 0,-0.3145984 -0.157792,-0.4723922 -0.472391,-0.4723922 h -0.631176 c -0.02564,0 -0.0503,9.87e-4 -0.07397,0.00395 0.02269,-0.2652878 0.17949,-0.3984264 0.468452,-0.3984264 h 0.631171 c 0.314599,0 0.472392,0.1577937 0.472392,0.472393 z"
           fill="#292d32"
           id="path91652"
           style="font-weight:900;font-size:19.1621px;font-family:Rubik;-inkscape-font-specification:'Rubik Heavy';letter-spacing:-0.538838px;fill:#eaebed;fill-opacity:0.45;stroke-width:3.82569"
           transform="matrix(30.966839,0,0,30.96684,-1395.0191,793.26767)" /><path
           id="path91654"
           style="font-weight:900;font-size:19.1621px;font-family:Rubik;-inkscape-font-specification:'Rubik Heavy';letter-spacing:-0.538838px;fill:#ffffff;fill-opacity:1;stroke-width:121.336"
           d="m -317.38742,695.45762 c -1.96031,0.21735 -2.92693,2.14761 -4.22431,3.37475 -3.32067,3.64863 -6.64134,7.29729 -9.96204,10.94593 -2.02574,-1.77486 -3.91025,-3.72785 -6.04899,-5.36126 -1.97856,-1.11286 -4.80956,0.24501 -5.08541,2.52577 -0.3086,1.61487 0.74356,3.10348 2.00311,3.99515 2.56509,2.27468 5.00968,4.70103 7.67024,6.85822 1.62473,0.94679 3.79456,0.24273 4.80379,-1.27718 4.72755,-5.21749 9.51644,-10.38437 14.18547,-15.65035 1.41596,-1.93601 0.10855,-5.08722 -2.29663,-5.38309 -0.34518,-0.0605 -0.6972,-0.0647 -1.04524,-0.0279 z" /></g></g><path
       id="path68220"
       style="font-weight:900;font-size:19.1621px;font-family:Rubik;-inkscape-font-specification:'Rubik Heavy';letter-spacing:-0.538838px;fill:url(#linearGradient993);fill-opacity:1;stroke-width:89.6741"
       d="m 532.20625,492.83314 c -0.30345,0 -0.5653,0.12645 -0.786,0.3793 -0.2207,0.2529 -0.33124,0.55349 -0.33124,0.90121 v 30.63174 c 0,0.34773 0.11056,0.64834 0.33124,0.90124 0.2207,0.2529 0.48255,0.3793 0.786,0.3793 h 7.9034 c 0.30345,0 0.56581,-0.12645 0.7865,-0.3793 0.2207,-0.2529 0.33075,-0.55351 0.33075,-0.90124 v -8.91471 h 11.00707 c 0.30347,0 0.56583,-0.12645 0.78653,-0.3793 0.22069,-0.2529 0.33072,-0.553 0.33072,-0.90072 v -7.16029 c 0,-0.34772 -0.11013,-0.64782 -0.33072,-0.90072 -0.2207,-0.2529 -0.48306,-0.3793 -0.78653,-0.3793 H 541.2269 v -3.50883 h 11.83493 c 0.30345,0 0.5653,-0.12694 0.786,-0.37982 0.22068,-0.25288 0.33124,-0.55297 0.33124,-0.90072 v -7.20733 c 0,-0.34772 -0.11056,-0.64831 -0.33124,-0.90121 -0.2207,-0.2529 -0.48255,-0.3793 -0.786,-0.3793 z m 111.80352,8.05323 c -0.0995,10e-4 -0.19997,0.005 -0.30179,0.007 -1.35174,0.0634 -2.53826,0.45837 -3.55895,1.18545 -0.99312,0.69545 -1.72419,1.40665 -2.19316,2.13373 v -1.56478 c 0,-0.34772 -0.11013,-0.64781 -0.33072,-0.90072 -0.22068,-0.2529 -0.48306,-0.3793 -0.78653,-0.3793 h -6.82748 c -0.30347,0 -0.56531,0.12645 -0.78601,0.3793 -0.22069,0.25291 -0.33124,0.553 -0.33124,0.90072 v 22.09685 c 0,0.34773 0.11057,0.64834 0.33124,0.90124 0.2207,0.2529 0.48254,0.37931 0.78601,0.37931 h 7.44812 c 0.30344,0 0.56582,-0.12645 0.78652,-0.37931 0.22067,-0.2529 0.33072,-0.55351 0.33072,-0.90124 V 511.7046 c 0,-0.50581 0.0693,-0.91636 0.20731,-1.23249 0.13799,-0.34775 0.33102,-0.61649 0.5793,-0.80617 0.24827,-0.18955 0.53764,-0.28472 0.86869,-0.28472 0.3586,0 0.64849,0.095 0.86918,0.28472 0.2483,0.15813 0.44138,0.41088 0.5793,0.75863 0.13799,0.34773 0.20667,0.77422 0.20667,1.28003 v 13.04002 c 0,0.34773 0.11056,0.64834 0.33124,0.90124 0.22067,0.2529 0.48253,0.37931 0.786,0.37931 h 7.28326 c 0.30345,0 0.56531,-0.12645 0.78601,-0.37931 0.22067,-0.2529 0.33124,-0.55351 0.33124,-0.90124 V 511.7046 c 0,-0.50581 0.0548,-0.9323 0.16542,-1.28003 0.13799,-0.34777 0.331,-0.60058 0.57929,-0.75863 0.24828,-0.18955 0.53814,-0.28472 0.86919,-0.28472 0.35862,0 0.64799,0.095 0.86869,0.28472 0.2483,0.15813 0.44137,0.41088 0.57928,0.75863 0.13799,0.34773 0.20731,0.77422 0.20731,1.28003 v 13.04002 c 0,0.34773 0.11013,0.64834 0.33074,0.90124 0.22068,0.2529 0.48305,0.37931 0.7865,0.37931 h 7.28277 c 0.30345,0 0.56531,-0.12645 0.786,-0.37931 0.22068,-0.2529 0.33125,-0.55351 0.33125,-0.90124 V 511.4679 c 0,-2.49734 -0.34489,-4.5209 -1.03456,-6.06991 -0.68967,-1.54898 -1.6138,-2.68667 -2.77244,-3.41375 -1.13106,-0.72705 -2.4001,-1.09087 -3.80701,-1.09087 -1.26899,0 -2.48249,0.37923 -3.64113,1.13791 -1.15864,0.72708 -2.05525,1.64379 -2.68975,2.75022 -1.06898,-2.63361 -3.14796,-3.93217 -6.23631,-3.8959 z m -76.67698,0.007 c -2.40003,0 -4.46889,0.39514 -6.20685,1.18545 -1.73797,0.79031 -3.10381,1.97578 -4.09691,3.55636 -0.99314,1.54901 -1.55862,3.49346 -1.69654,5.83272 -0.0276,0.69548 -0.0413,1.43801 -0.0413,2.22831 0,0.75868 0.013,1.50172 0.0413,2.2288 0.13799,2.30767 0.66216,4.2516 1.57252,5.83221 0.93795,1.58058 2.27574,2.76605 4.0137,3.55636 1.73797,0.7903 3.87612,1.18547 6.41408,1.18547 2.53796,0 4.67612,-0.39517 6.41408,-1.18547 1.73796,-0.79031 3.06202,-1.97578 3.97236,-3.55636 0.93797,-1.58061 1.47594,-3.52454 1.61386,-5.83221 0.0551,-0.72708 0.0827,-1.47012 0.0827,-2.2288 0,-0.7903 -0.0276,-1.53283 -0.0827,-2.22831 -0.13799,-2.33926 -0.7034,-4.28371 -1.69654,-5.83272 -0.9931,-1.58058 -2.35894,-2.76605 -4.0969,-3.55636 -1.73797,-0.79031 -3.80682,-1.18545 -6.20686,-1.18545 z m 15.09882,0.47438 c -0.30345,0 -0.56531,0.12645 -0.78601,0.3793 -0.22069,0.25291 -0.33124,0.553 -0.33124,0.90072 v 22.09685 c 0,0.34773 0.11057,0.64834 0.33124,0.90124 0.2207,0.2529 0.48256,0.37931 0.78601,0.37931 h 7.86207 c 0.30344,0 0.5658,-0.12645 0.7865,-0.37931 0.22069,-0.2529 0.33074,-0.55351 0.33074,-0.90124 v -10.57403 c 0,-0.94836 0.20688,-1.65955 0.62063,-2.13373 0.4138,-0.47418 1.03482,-0.71156 1.86241,-0.71156 h 5.33765 c 0.30347,0 0.56585,-0.12646 0.78652,-0.37931 0.2207,-0.2529 0.33124,-0.55299 0.33124,-0.90072 v -7.3975 c 0,-0.34772 -0.11056,-0.64781 -0.33124,-0.90072 -0.22067,-0.2529 -0.48305,-0.3793 -0.78652,-0.3793 h -1.98591 c -1.24139,0 -2.41414,0.26874 -3.51763,0.80617 -1.07587,0.5374 -2.05501,1.24859 -2.9378,2.1337 v -1.65985 c 0,-0.34772 -0.11014,-0.64781 -0.33073,-0.90072 -0.22069,-0.2529 -0.48307,-0.3793 -0.78652,-0.3793 z m 20.6463,0 c -0.30345,0 -0.56583,0.12645 -0.78652,0.3793 -0.22068,0.25291 -0.33073,0.553 -0.33073,0.90072 v 13.08759 c 0,2.49734 0.3724,4.53634 1.11725,6.11693 0.77242,1.58061 1.76532,2.75014 2.97914,3.50882 1.24139,0.75871 2.55169,1.13794 3.93101,1.13794 1.46209,0 2.80042,-0.25283 4.01424,-0.75863 1.21381,-0.53738 2.16545,-1.39091 2.85512,-2.56057 v 1.56477 c 0,0.34773 0.11013,0.64834 0.33072,0.90124 0.2207,0.2529 0.48305,0.37931 0.78652,0.37931 h 7.24142 c 0.30345,0 0.5653,-0.12645 0.786,-0.37931 0.22068,-0.2529 0.33124,-0.55351 0.33124,-0.90124 v -22.09685 c 0,-0.34772 -0.11056,-0.64781 -0.33124,-0.90072 -0.2207,-0.2529 -0.48255,-0.3793 -0.786,-0.3793 h -7.86205 c -0.30347,0 -0.56584,0.12645 -0.78652,0.3793 -0.2207,0.25291 -0.33072,0.553 -0.33072,0.90072 v 12.75582 c 0,0.85351 -0.17924,1.5015 -0.53795,1.94406 -0.35864,0.44257 -0.8691,0.66353 -1.53117,0.66353 -1.37934,0 -2.06914,-0.86895 -2.06914,-2.60759 v -12.75582 c 0,-0.34772 -0.11056,-0.64781 -0.33124,-0.90072 -0.22068,-0.2529 -0.48253,-0.3793 -0.786,-0.3793 z m -35.74512,7.11275 c 0.80002,0 1.29672,0.28415 1.48984,0.85318 0.19306,0.53738 0.31744,1.32771 0.37257,2.37092 0.0276,0.47418 0.0412,1.13808 0.0412,1.99161 0,0.85353 -0.013,1.51741 -0.0412,1.99159 -0.0551,1.10643 -0.17945,1.92861 -0.37257,2.46601 -0.19306,0.50578 -0.68982,0.75861 -1.48984,0.75861 -0.77242,0 -1.26914,-0.25283 -1.48984,-0.75861 -0.19306,-0.5374 -0.31692,-1.35958 -0.37205,-2.46601 -0.0276,-0.47418 -0.0412,-1.13806 -0.0412,-1.99159 0,-0.85353 0.013,-1.51743 0.0412,-1.99161 0.0551,-1.04321 0.17902,-1.83354 0.37205,-2.37092 0.2207,-0.56903 0.71742,-0.85318 1.48984,-0.85318 z" /><g
       aria-label="Forum"
       transform="matrix(2.1507274,0,0,2.4645579,-576.12495,-1127.3391)"
       id="g92037"
       style="font-weight:900;font-size:19.1621px;font-family:Rubik;-inkscape-font-specification:'Rubik Heavy';letter-spacing:-0.538838px;fill:url(#linearGradient92057);fill-opacity:1;stroke-width:38.7921"><path
         id="path92035"
         style="fill:url(#linearGradient92055);fill-opacity:1"
         d="m 408.27668,690.71307 c -0.14052,0 -0.26178,0.0511 -0.36398,0.15328 -0.1022,0.1022 -0.15339,0.22347 -0.15339,0.36399 v 12.37879 c 0,0.14052 0.0512,0.26179 0.15339,0.36399 0.1022,0.1022 0.22346,0.15328 0.36398,0.15328 h 3.65988 c 0.14052,0 0.26201,-0.0511 0.36421,-0.15328 0.1022,-0.1022 0.15316,-0.22347 0.15316,-0.36399 v -3.60252 h 5.09712 c 0.14053,0 0.26202,-0.0511 0.36422,-0.15328 0.1022,-0.1022 0.15315,-0.22347 0.15315,-0.36399 v -2.89354 c 0,-0.14052 -0.051,-0.26179 -0.15315,-0.36399 -0.1022,-0.1022 -0.22369,-0.15349 -0.36422,-0.15349 h -5.09712 v -1.41795 h 5.48048 c 0.14052,0 0.26178,-0.0511 0.36398,-0.15328 0.10219,-0.1022 0.15339,-0.22347 0.15339,-0.36399 v -2.91276 c 0,-0.14052 -0.0512,-0.26179 -0.15339,-0.36399 -0.1022,-0.10219 -0.22346,-0.15328 -0.36398,-0.15328 z m 51.7736,3.2544 c -0.0461,4.7e-4 -0.0926,0.002 -0.13975,0.003 -0.62596,0.0256 -1.17541,0.18524 -1.64807,0.47906 -0.45989,0.28104 -0.79843,0.56843 -1.0156,0.86225 v -0.63233 c 0,-0.14052 -0.051,-0.26179 -0.15315,-0.36399 -0.1022,-0.1022 -0.22369,-0.15349 -0.36422,-0.15349 h -3.16165 c -0.14053,0 -0.26179,0.0513 -0.36398,0.15349 -0.1022,0.1022 -0.15339,0.22347 -0.15339,0.36399 v 8.92955 c 0,0.14052 0.0512,0.26179 0.15339,0.36399 0.10219,0.1022 0.22345,0.15328 0.36398,0.15328 h 3.44905 c 0.14052,0 0.26202,-0.0511 0.36422,-0.15328 0.10219,-0.1022 0.15315,-0.22347 0.15315,-0.36399 v -5.26961 c 0,-0.20439 0.0321,-0.37052 0.096,-0.49826 0.0639,-0.14053 0.15329,-0.24913 0.26826,-0.32578 0.11497,-0.0766 0.24896,-0.11485 0.40226,-0.11485 0.16607,0 0.30031,0.0382 0.40251,0.11485 0.11498,0.0639 0.20439,0.16625 0.26826,0.30677 0.0639,0.14052 0.0957,0.31288 0.0957,0.51727 v 5.26961 c 0,0.14052 0.0512,0.26179 0.15339,0.36399 0.10219,0.1022 0.22345,0.15328 0.36398,0.15328 h 3.37271 c 0.14052,0 0.26178,-0.0511 0.36398,-0.15328 0.10219,-0.1022 0.15339,-0.22347 0.15339,-0.36399 v -5.26961 c 0,-0.20439 0.0254,-0.37675 0.0766,-0.51727 0.0639,-0.14053 0.15328,-0.2429 0.26826,-0.30677 0.11497,-0.0766 0.2492,-0.11485 0.4025,-0.11485 0.16607,0 0.30007,0.0382 0.40227,0.11485 0.11498,0.0639 0.20439,0.16625 0.26825,0.30677 0.0639,0.14052 0.096,0.31288 0.096,0.51727 v 5.26961 c 0,0.14052 0.051,0.26179 0.15316,0.36399 0.10219,0.1022 0.22369,0.15328 0.36421,0.15328 h 3.37248 c 0.14052,0 0.26178,-0.0511 0.36398,-0.15328 0.10219,-0.1022 0.15339,-0.22347 0.15339,-0.36399 v -5.36546 c 0,-1.0092 -0.15972,-1.82673 -0.47908,-2.4527 -0.31937,-0.62596 -0.74732,-1.08592 -1.28385,-1.37974 -0.52377,-0.29382 -1.11143,-0.44063 -1.76294,-0.44063 -0.58764,0 -1.14958,0.15325 -1.68612,0.45985 -0.53654,0.29382 -0.95174,0.66427 -1.24556,1.11139 -0.49502,-1.06427 -1.45775,-1.58904 -2.88789,-1.57437 z m -35.50732,0.003 c -1.1114,0 -2.06944,0.15968 -2.87425,0.47906 -0.80481,0.31936 -1.4373,0.79843 -1.89718,1.43716 -0.4599,0.62597 -0.72176,1.41153 -0.78563,2.35685 -0.0128,0.28105 -0.0191,0.58132 -0.0191,0.90068 0,0.3066 0.006,0.60686 0.0191,0.90068 0.0639,0.93256 0.30663,1.71811 0.72819,2.35685 0.43434,0.63874 1.05409,1.1178 1.8589,1.43717 0.80481,0.31937 1.7947,0.47905 2.96997,0.47905 1.17527,0 2.1654,-0.15968 2.97021,-0.47905 0.80481,-0.31937 1.41794,-0.79843 1.83951,-1.43717 0.43435,-0.63874 0.68347,-1.42429 0.74734,-2.35685 0.0255,-0.29382 0.0383,-0.59408 0.0383,-0.90068 0,-0.31936 -0.0128,-0.61963 -0.0383,-0.90068 -0.0639,-0.94532 -0.32573,-1.73088 -0.78563,-2.35685 -0.45988,-0.63873 -1.09237,-1.1178 -1.89718,-1.43716 -0.80481,-0.31938 -1.76285,-0.47906 -2.87425,-0.47906 z m 6.99191,0.1915 c -0.14052,0 -0.26178,0.0513 -0.36398,0.15349 -0.1022,0.1022 -0.15339,0.22347 -0.15339,0.36399 v 8.92955 c 0,0.14052 0.0512,0.26179 0.15339,0.36399 0.1022,0.1022 0.22346,0.15328 0.36398,0.15328 h 3.64073 c 0.14052,0 0.26202,-0.0511 0.36422,-0.15328 0.1022,-0.1022 0.15315,-0.22347 0.15315,-0.36399 v -4.27307 c 0,-0.38324 0.0958,-0.67085 0.28741,-0.86247 0.19162,-0.19162 0.4792,-0.28735 0.86244,-0.28735 h 2.47174 c 0.14053,0 0.26203,-0.0511 0.36422,-0.15328 0.1022,-0.1022 0.15339,-0.22347 0.15339,-0.36399 v -2.98939 c 0,-0.14052 -0.0512,-0.26179 -0.15339,-0.36399 -0.10219,-0.1022 -0.22369,-0.15349 -0.36422,-0.15349 h -0.91963 c -0.57486,0 -1.11794,0.1086 -1.62893,0.32577 -0.49821,0.21718 -0.95163,0.50478 -1.36043,0.86247 v -0.67076 c 0,-0.14052 -0.051,-0.26179 -0.15315,-0.36399 -0.1022,-0.1022 -0.2237,-0.15349 -0.36422,-0.15349 z m 9.56081,0 c -0.14052,0 -0.26201,0.0513 -0.36421,0.15349 -0.1022,0.1022 -0.15316,0.22347 -0.15316,0.36399 v 5.28881 c 0,1.00921 0.17246,1.83319 0.51737,2.47192 0.3577,0.63874 0.81749,1.11136 1.37958,1.41795 0.57486,0.30659 1.18163,0.45984 1.82036,0.45984 0.67706,0 1.29681,-0.10216 1.8589,-0.30656 0.56208,-0.21717 1.00277,-0.56208 1.32214,-1.03475 v 0.63234 c 0,0.14052 0.051,0.26179 0.15315,0.36399 0.10219,0.1022 0.22369,0.15328 0.36422,0.15328 h 3.35333 c 0.14052,0 0.26178,-0.0511 0.36398,-0.15328 0.10219,-0.1022 0.15339,-0.22347 0.15339,-0.36399 v -8.92955 c 0,-0.14052 -0.0512,-0.26179 -0.15339,-0.36399 -0.1022,-0.1022 -0.22346,-0.15349 -0.36398,-0.15349 h -3.64073 c -0.14053,0 -0.26203,0.0513 -0.36422,0.15349 -0.1022,0.1022 -0.15315,0.22347 -0.15315,0.36399 v 5.15454 c 0,0.34491 -0.083,0.60677 -0.24912,0.78561 -0.16607,0.17885 -0.40245,0.26835 -0.70905,0.26835 -0.63873,0 -0.95816,-0.35136 -0.95816,-1.05396 v -5.15454 c 0,-0.14052 -0.0512,-0.26179 -0.15339,-0.36399 -0.10219,-0.1022 -0.22345,-0.15349 -0.36398,-0.15349 z m -16.55272,2.87433 c 0.37047,0 0.60048,0.11504 0.68991,0.34498 0.0894,0.21717 0.147,0.53655 0.17253,0.95811 0.0128,0.19162 0.0191,0.45991 0.0191,0.80483 0,0.34492 -0.006,0.61321 -0.0191,0.80483 -0.0255,0.44711 -0.0831,0.77915 -0.17253,0.99633 -0.0894,0.20439 -0.31944,0.30677 -0.68991,0.30677 -0.35769,0 -0.58771,-0.10238 -0.68991,-0.30677 -0.0894,-0.21718 -0.14676,-0.54922 -0.17229,-0.99633 -0.0128,-0.19162 -0.0191,-0.45991 -0.0191,-0.80483 0,-0.34492 0.006,-0.61321 0.0191,-0.80483 0.0255,-0.42156 0.0829,-0.74094 0.17229,-0.95811 0.1022,-0.22994 0.33222,-0.34498 0.68991,-0.34498 z" /></g><rect
       style="fill:url(#linearGradient92053);fill-opacity:1;stroke-width:4.13018"
       id="rect92039"
       width="65.878052"
       height="65.878052"
       x="220.36176"
       y="558.83795"
       rx="13.175611"
       ry="13.175611"
       inkscape:export-filename="../../../../Desktop/rect15941.png"
       inkscape:export-xdpi="191.99998"
       inkscape:export-ydpi="191.99998" /><g
       id="g92051"
       transform="matrix(0.79988113,0,0,0.79988113,512.18327,29.381579)"><g
         style="font-weight:900;font-size:19.1621px;font-family:Rubik;-inkscape-font-specification:'Rubik Heavy';letter-spacing:-0.538838px;fill:none;fill-opacity:1;stroke-width:38.7921"
         id="g92041"
         transform="matrix(30.966839,0,0,30.96684,-1395.0191,793.26767)" /><g
         id="g92049"
         transform="translate(-1.9060562,-0.61374095)"><path
           opacity="0.4"
           d="m 35.24148,-3.0043397 v 0.3944818 c 0,0.025641 -9.87e-4,0.050297 -0.0039,0.073965 -0.02268,0.2662754 -0.179489,0.3984269 -0.468447,0.3984269 h -0.03945 c -0.02466,0 -0.04832,0.011835 -0.06312,0.031558 l -0.118301,0.1577937 c -0.05227,0.07002 -0.137083,0.07002 -0.189352,0 L 34.240519,-2.105907 c -0.01282,-0.016765 -0.04141,-0.031558 -0.06311,-0.031558 h -0.03945 c -0.3146,0 -0.472393,-0.07791 -0.472393,-0.472392 v -0.394482 c 0,-0.2889571 0.133137,-0.4457636 0.398427,-0.4684463 0.02367,-0.00296 0.04832,-0.00395 0.07397,-0.00395 h 0.63117 c 0.3146,0 0.472393,0.1577937 0.472393,0.4723921 z"
           fill="#292d32"
           id="path92043"
           style="font-weight:900;font-size:19.1621px;font-family:Rubik;-inkscape-font-specification:'Rubik Heavy';letter-spacing:-0.538838px;opacity:1;fill:#ffffff;fill-opacity:0.65;stroke-width:3.82569;stroke-dasharray:none"
           transform="matrix(30.966839,0,0,30.96684,-1395.0191,793.26767)" /><path
           d="m 35.635874,-3.3988208 v 0.3944811 c 0,0.2899441 -0.133138,0.4457644 -0.398428,0.4684471 0.003,-0.023669 0.0039,-0.048324 0.0039,-0.073965 V -3.00434 c 0,-0.3145984 -0.157792,-0.4723922 -0.472391,-0.4723922 h -0.631176 c -0.02564,0 -0.0503,9.87e-4 -0.07397,0.00395 0.02269,-0.2652878 0.17949,-0.3984264 0.468452,-0.3984264 h 0.631171 c 0.314599,0 0.472392,0.1577937 0.472392,0.472393 z"
           fill="#292d32"
           id="path92045"
           style="font-weight:900;font-size:19.1621px;font-family:Rubik;-inkscape-font-specification:'Rubik Heavy';letter-spacing:-0.538838px;fill:#eaebed;fill-opacity:0.45;stroke-width:3.82569"
           transform="matrix(30.966839,0,0,30.96684,-1395.0191,793.26767)" /><path
           id="path92047"
           style="font-weight:900;font-size:19.1621px;font-family:Rubik;-inkscape-font-specification:'Rubik Heavy';letter-spacing:-0.538838px;fill:#ffffff;fill-opacity:1;stroke-width:121.336"
           d="m -317.38742,695.45762 c -1.96031,0.21735 -2.92693,2.14761 -4.22431,3.37475 -3.32067,3.64863 -6.64134,7.29729 -9.96204,10.94593 -2.02574,-1.77486 -3.91025,-3.72785 -6.04899,-5.36126 -1.97856,-1.11286 -4.80956,0.24501 -5.08541,2.52577 -0.3086,1.61487 0.74356,3.10348 2.00311,3.99515 2.56509,2.27468 5.00968,4.70103 7.67024,6.85822 1.62473,0.94679 3.79456,0.24273 4.80379,-1.27718 4.72755,-5.21749 9.51644,-10.38437 14.18547,-15.65035 1.41596,-1.93601 0.10855,-5.08722 -2.29663,-5.38309 -0.34518,-0.0605 -0.6972,-0.0647 -1.04524,-0.0279 z" /></g></g></g><style
     type="text/css"
     id="style1941">
	.st0{fill:none;stroke:#000000;stroke-width:2;stroke-linecap:round;stroke-linejoin:round;stroke-miterlimit:10;}
</style><style
     type="text/css"
     id="style1941-0">
	.st0{fill:none;stroke:#000000;stroke-width:2;stroke-linecap:round;stroke-linejoin:round;stroke-miterlimit:10;}
</style><style
     type="text/css"
     id="style1941-7">
	.st0{fill:none;stroke:#000000;stroke-width:2;stroke-linecap:round;stroke-linejoin:round;stroke-miterlimit:10;}
</style><style
     type="text/css"
     id="style22485">
	.st0{fill:none;stroke:#6C3DB7;stroke-width:4;stroke-linecap:round;stroke-linejoin:round;stroke-miterlimit:10;}
	.st1{fill:none;stroke:#1F992A;stroke-width:4;stroke-linecap:round;stroke-linejoin:round;stroke-miterlimit:10;}
	.st2{fill:none;stroke:#6A83BA;stroke-width:4;stroke-linecap:round;stroke-linejoin:round;stroke-miterlimit:10;}
	.st3{fill:#8A8AFF;stroke:#8A8AFF;stroke-width:2;stroke-linecap:round;stroke-linejoin:round;stroke-miterlimit:10;}
	.st4{fill:#6C3DB7;stroke:#6C3DB7;stroke-width:2;stroke-linecap:round;stroke-linejoin:round;stroke-miterlimit:10;}
	.st5{fill:#A576FF;stroke:#A576FF;stroke-width:2;stroke-linecap:round;stroke-linejoin:round;stroke-miterlimit:10;}
	.st6{fill:#F2BB41;stroke:#F2BB41;stroke-width:2;stroke-linecap:round;stroke-linejoin:round;stroke-miterlimit:10;}
	.st7{fill:#E08838;stroke:#E08838;stroke-width:2;stroke-linecap:round;stroke-linejoin:round;stroke-miterlimit:10;}
	.st8{fill:#1F992A;stroke:#1F992A;stroke-width:2;stroke-linecap:round;stroke-linejoin:round;stroke-miterlimit:10;}
	.st9{fill:#5EC11E;stroke:#5EC11E;stroke-width:2;stroke-linecap:round;stroke-linejoin:round;stroke-miterlimit:10;}
	.st10{fill:#E3FAFF;stroke:#E3FAFF;stroke-width:2;stroke-linecap:round;stroke-linejoin:round;stroke-miterlimit:10;}
	.st11{fill:#FF5093;stroke:#FF5093;stroke-width:2;stroke-linecap:round;stroke-linejoin:round;stroke-miterlimit:10;}
	.st12{fill:#B7257F;stroke:#B7257F;stroke-width:2;stroke-linecap:round;stroke-linejoin:round;stroke-miterlimit:10;}
	.st13{fill:#5189E5;stroke:#5189E5;stroke-width:2;stroke-linecap:round;stroke-linejoin:round;stroke-miterlimit:10;}
	.st14{fill:#6EBAFF;stroke:#6EBAFF;stroke-width:2;stroke-linecap:round;stroke-linejoin:round;stroke-miterlimit:10;}
	.st15{fill:#EDD977;stroke:#EDD977;stroke-width:2;stroke-linecap:round;stroke-linejoin:round;stroke-miterlimit:10;}
	.st16{fill:#8C43FF;stroke:#8C43FF;stroke-width:2;stroke-linecap:round;stroke-linejoin:round;stroke-miterlimit:10;}
	.st17{fill:#5252BA;stroke:#5252BA;stroke-width:2;stroke-linecap:round;stroke-linejoin:round;stroke-miterlimit:10;}
	.st18{fill:none;stroke:#E3FAFF;stroke-width:4;stroke-linecap:round;stroke-linejoin:round;stroke-miterlimit:10;}
	.st19{fill:#354C75;stroke:#354C75;stroke-width:2;stroke-linecap:round;stroke-linejoin:round;stroke-miterlimit:10;}
</style><style
     type="text/css"
     id="style23106">
	.st0{fill:none;stroke:#000000;stroke-width:2;stroke-linecap:round;stroke-linejoin:round;stroke-miterlimit:10;}
	.st1{fill:none;stroke:#000000;stroke-width:2;stroke-linejoin:round;stroke-miterlimit:10;}
</style><style
     type="text/css"
     id="style1941-1">
	.st0{fill:none;stroke:#000000;stroke-width:2;stroke-linecap:round;stroke-linejoin:round;stroke-miterlimit:10;}
</style><style
     type="text/css"
     id="style1941-0-8">
	.st0{fill:none;stroke:#000000;stroke-width:2;stroke-linecap:round;stroke-linejoin:round;stroke-miterlimit:10;}
</style><style
     type="text/css"
     id="style1941-7-7">
	.st0{fill:none;stroke:#000000;stroke-width:2;stroke-linecap:round;stroke-linejoin:round;stroke-miterlimit:10;}
</style><style
     type="text/css"
     id="style22485-9">
	.st0{fill:none;stroke:#6C3DB7;stroke-width:4;stroke-linecap:round;stroke-linejoin:round;stroke-miterlimit:10;}
	.st1{fill:none;stroke:#1F992A;stroke-width:4;stroke-linecap:round;stroke-linejoin:round;stroke-miterlimit:10;}
	.st2{fill:none;stroke:#6A83BA;stroke-width:4;stroke-linecap:round;stroke-linejoin:round;stroke-miterlimit:10;}
	.st3{fill:#8A8AFF;stroke:#8A8AFF;stroke-width:2;stroke-linecap:round;stroke-linejoin:round;stroke-miterlimit:10;}
	.st4{fill:#6C3DB7;stroke:#6C3DB7;stroke-width:2;stroke-linecap:round;stroke-linejoin:round;stroke-miterlimit:10;}
	.st5{fill:#A576FF;stroke:#A576FF;stroke-width:2;stroke-linecap:round;stroke-linejoin:round;stroke-miterlimit:10;}
	.st6{fill:#F2BB41;stroke:#F2BB41;stroke-width:2;stroke-linecap:round;stroke-linejoin:round;stroke-miterlimit:10;}
	.st7{fill:#E08838;stroke:#E08838;stroke-width:2;stroke-linecap:round;stroke-linejoin:round;stroke-miterlimit:10;}
	.st8{fill:#1F992A;stroke:#1F992A;stroke-width:2;stroke-linecap:round;stroke-linejoin:round;stroke-miterlimit:10;}
	.st9{fill:#5EC11E;stroke:#5EC11E;stroke-width:2;stroke-linecap:round;stroke-linejoin:round;stroke-miterlimit:10;}
	.st10{fill:#E3FAFF;stroke:#E3FAFF;stroke-width:2;stroke-linecap:round;stroke-linejoin:round;stroke-miterlimit:10;}
	.st11{fill:#FF5093;stroke:#FF5093;stroke-width:2;stroke-linecap:round;stroke-linejoin:round;stroke-miterlimit:10;}
	.st12{fill:#B7257F;stroke:#B7257F;stroke-width:2;stroke-linecap:round;stroke-linejoin:round;stroke-miterlimit:10;}
	.st13{fill:#5189E5;stroke:#5189E5;stroke-width:2;stroke-linecap:round;stroke-linejoin:round;stroke-miterlimit:10;}
	.st14{fill:#6EBAFF;stroke:#6EBAFF;stroke-width:2;stroke-linecap:round;stroke-linejoin:round;stroke-miterlimit:10;}
	.st15{fill:#EDD977;stroke:#EDD977;stroke-width:2;stroke-linecap:round;stroke-linejoin:round;stroke-miterlimit:10;}
	.st16{fill:#8C43FF;stroke:#8C43FF;stroke-width:2;stroke-linecap:round;stroke-linejoin:round;stroke-miterlimit:10;}
	.st17{fill:#5252BA;stroke:#5252BA;stroke-width:2;stroke-linecap:round;stroke-linejoin:round;stroke-miterlimit:10;}
	.st18{fill:none;stroke:#E3FAFF;stroke-width:4;stroke-linecap:round;stroke-linejoin:round;stroke-miterlimit:10;}
	.st19{fill:#354C75;stroke:#354C75;stroke-width:2;stroke-linecap:round;stroke-linejoin:round;stroke-miterlimit:10;}
</style><style
     type="text/css"
     id="style23106-2">
	.st0{fill:none;stroke:#000000;stroke-width:2;stroke-linecap:round;stroke-linejoin:round;stroke-miterlimit:10;}
	.st1{fill:none;stroke:#000000;stroke-width:2;stroke-linejoin:round;stroke-miterlimit:10;}
</style><style
     type="text/css"
     id="style4736">
<![CDATA[
	.st0{fill:#D1D1D1;}
	.st1{fill:#454545;}
]]>
</style></svg>
