<?xml version="1.0" encoding="UTF-8" standalone="no"?>
<!-- Created with Inkscape (http://www.inkscape.org/) -->

<svg
   width="848.69885"
   height="250.00002"
   viewBox="0 0 224.55157 66.145837"
   version="1.1"
   id="svg5"
   xml:space="preserve"
   inkscape:version="1.2.2 (b0a8486541, 2022-12-01)"
   sodipodi:docname="design.svg"
   xmlns:inkscape="http://www.inkscape.org/namespaces/inkscape"
   xmlns:sodipodi="http://sodipodi.sourceforge.net/DTD/sodipodi-0.dtd"
   xmlns:xlink="http://www.w3.org/1999/xlink"
   xmlns="http://www.w3.org/2000/svg"
   xmlns:svg="http://www.w3.org/2000/svg"><sodipodi:namedview
     id="namedview7"
     pagecolor="#ffffff"
     bordercolor="#ebebeb"
     borderopacity="1"
     inkscape:showpageshadow="false"
     inkscape:pageopacity="0"
     inkscape:pagecheckerboard="false"
     inkscape:deskcolor="#ffffff"
     inkscape:document-units="px"
     showgrid="false"
     showguides="false"
     inkscape:zoom="0.25"
     inkscape:cx="218"
     inkscape:cy="210"
     inkscape:window-width="1920"
     inkscape:window-height="1011"
     inkscape:window-x="0"
     inkscape:window-y="32"
     inkscape:window-maximized="1"
     inkscape:current-layer="layer1"><inkscape:page
       x="0"
       y="0"
       width="224.55157"
       height="66.145836"
       id="page7242"
       inkscape:label="Brand" /><inkscape:page
       x="2.6367186e-06"
       y="-9.8046312e-06"
       width="66.145836"
       height="66.145836"
       id="page7244"
       inkscape:label="Icon" /><inkscape:page
       x="82.676682"
       y="16.492266"
       width="141.87488"
       height="35.233299"
       id="page7246"
       inkscape:label="Label" /><inkscape:page
       x="-1.3368822"
       y="101.28325"
       width="224.54042"
       height="66.145836"
       id="page69065"
       inkscape:label="Brand-White" /></sodipodi:namedview><defs
     id="defs2"><linearGradient
       inkscape:collect="always"
       id="linearGradient11240"><stop
         style="stop-color:#00994d;stop-opacity:1;"
         offset="0"
         id="stop11236" /><stop
         style="stop-color:#6ef76e;stop-opacity:1;"
         offset="0.9533425"
         id="stop11238" /></linearGradient><linearGradient
       inkscape:collect="always"
       id="linearGradient52032"><stop
         style="stop-color:#9fcadf;stop-opacity:1;"
         offset="0"
         id="stop52028" /><stop
         style="stop-color:#ffffff;stop-opacity:1;"
         offset="0.3992942"
         id="stop52030" /></linearGradient><linearGradient
       inkscape:collect="always"
       id="linearGradient45366"><stop
         style="stop-color:#00994d;stop-opacity:1;"
         offset="0.0001"
         id="stop45362" /><stop
         style="stop-color:#6ef76e;stop-opacity:1;"
         offset="0.9533425"
         id="stop45364" /></linearGradient><linearGradient
       inkscape:collect="always"
       id="linearGradient28003"><stop
         style="stop-color:#a3daf5;stop-opacity:1;"
         offset="0.04900488"
         id="stop27999" /><stop
         style="stop-color:#ffffff;stop-opacity:1;"
         offset="0.3992942"
         id="stop28001" /></linearGradient><style
       id="style6568">.cls-1{fill:none;}.cls-2{clip-path:url(#clip-path);}</style><clipPath
       id="clip-path"><rect
         class="cls-1"
         x="0.059999999"
         width="24"
         height="24"
         id="rect6570"
         y="0" /></clipPath><linearGradient
       id="linearGradient5222-7"><stop
         style="stop-color:#17191c;stop-opacity:1;"
         offset="0"
         id="stop5218-5" /><stop
         style="stop-color:#2e3038;stop-opacity:1;"
         offset="1"
         id="stop5220-3" /></linearGradient><style
       id="style6568-5">.cls-1{fill:none;}.cls-2{clip-path:url(#clip-path);}</style><linearGradient
       xlink:href="#linearGradient5222-7"
       id="linearGradient3859-6"
       gradientUnits="userSpaceOnUse"
       x1="2487.3772"
       y1="3121.3364"
       x2="2487.3772"
       y2="2945.2664" /><style
       id="style6568-9">.cls-1{fill:none;}.cls-2{clip-path:url(#clip-path);}</style><linearGradient
       inkscape:collect="always"
       xlink:href="#linearGradient52032"
       id="linearGradient28005"
       x1="211.40636"
       y1="630.68372"
       x2="211.40636"
       y2="616.97662"
       gradientUnits="userSpaceOnUse" /><linearGradient
       inkscape:collect="always"
       xlink:href="#linearGradient28003"
       id="linearGradient42581"
       gradientUnits="userSpaceOnUse"
       x1="211.40636"
       y1="630.68372"
       x2="211.40636"
       y2="617.37848" /><linearGradient
       inkscape:collect="always"
       xlink:href="#linearGradient28003"
       id="linearGradient42583"
       gradientUnits="userSpaceOnUse"
       x1="211.40636"
       y1="630.68372"
       x2="211.40636"
       y2="617.37848" /><linearGradient
       inkscape:collect="always"
       xlink:href="#linearGradient28003"
       id="linearGradient42585"
       gradientUnits="userSpaceOnUse"
       x1="211.40636"
       y1="630.68372"
       x2="211.40636"
       y2="617.37848" /><linearGradient
       inkscape:collect="always"
       xlink:href="#linearGradient28003"
       id="linearGradient42587"
       gradientUnits="userSpaceOnUse"
       x1="211.40636"
       y1="630.68372"
       x2="211.40636"
       y2="617.37848" /><linearGradient
       inkscape:collect="always"
       xlink:href="#linearGradient28003"
       id="linearGradient42589"
       gradientUnits="userSpaceOnUse"
       x1="211.40636"
       y1="630.68372"
       x2="211.40636"
       y2="617.37848" /><linearGradient
       inkscape:collect="always"
       xlink:href="#linearGradient11240"
       id="linearGradient43182"
       gradientUnits="userSpaceOnUse"
       gradientTransform="matrix(0.64519054,0,0,0.64519057,87.324939,230.68798)"
       x1="211.29193"
       y1="762.6239"
       x2="301.67172"
       y2="672.24414" /><linearGradient
       id="linearGradient45366-7"><stop
         style="stop-color:#aaaaaa;stop-opacity:1;"
         offset="0"
         id="stop45364-5" /></linearGradient><linearGradient
       id="id"><stop
         style="stop-color:#0ac247;stop-opacity:1;"
         offset="0"
         id="stop23041" /><stop
         style="stop-color:#ffffff;stop-opacity:1;"
         offset="1"
         id="stop23043" /></linearGradient><style
       id="style22571">.cls-1{fill:#84d0f7;}.cls-2{fill:#aa392d;}.cls-3{fill:#7c211a;}.cls-4{fill:#e59973;}.cls-5{fill:#2d2d2d;}.cls-6{opacity:0.2;}.cls-7{opacity:0.3;}</style><style
       id="style23309">
      .cls-1 {
        fill: none;
      }
    </style><linearGradient
       xlink:href="#id"
       id="linearGradient7102"
       gradientUnits="userSpaceOnUse"
       gradientTransform="matrix(0,3.6501243,-3.6501243,0,-570.23775,3667.4976)"
       x1="-161.08073"
       y1="-123.59392"
       x2="-56.793404"
       y2="-123.59392" /><linearGradient
       inkscape:collect="always"
       xlink:href="#linearGradient45366"
       id="linearGradient51942"
       gradientUnits="userSpaceOnUse"
       gradientTransform="matrix(0.64519054,0,0,0.64519057,88.661826,129.40477)"
       x1="211.29193"
       y1="762.6239"
       x2="301.67172"
       y2="672.24414" /></defs><g
     inkscape:label="Layer 1"
     inkscape:groupmode="layer"
     id="layer1"
     transform="translate(-220.1774,-558.31927)"><g
       aria-label="Forum"
       transform="matrix(2.3018024,0,0,2.5897144,-118.88814,-922.42717)"
       id="g24732"
       style="font-weight:900;font-size:19.1621px;font-family:Rubik;-inkscape-font-specification:'Rubik Heavy';letter-spacing:-0.538838px;fill:url(#linearGradient28005);fill-opacity:1;stroke-width:38.7921"><path
         d="m 183.15434,630.37715 q -0.21078,0 -0.36408,-0.1533 -0.1533,-0.1533 -0.1533,-0.36408 v -12.37872 q 0,-0.21078 0.1533,-0.36408 0.1533,-0.15329 0.36408,-0.15329 h 9.6577 q 0.21078,0 0.36408,0.15329 0.15329,0.1533 0.15329,0.36408 v 2.91264 q 0,0.21079 -0.15329,0.36408 -0.1533,0.1533 -0.36408,0.1533 h -5.48036 v 1.41799 h 5.09711 q 0.21079,0 0.36408,0.1533 0.1533,0.1533 0.1533,0.36408 v 2.89348 q 0,0.21078 -0.1533,0.36408 -0.15329,0.15329 -0.36408,0.15329 h -5.09711 v 3.60248 q 0,0.21078 -0.1533,0.36408 -0.1533,0.1533 -0.36408,0.1533 z"
         id="path24722"
         style="fill:url(#linearGradient42581);fill-opacity:1" /><path
         d="m 199.42067,630.56877 q -1.76291,0 -2.97013,-0.47906 -1.20721,-0.47905 -1.85872,-1.43715 -0.63235,-0.95811 -0.72816,-2.35694 -0.0192,-0.44073 -0.0192,-0.90062 0,-0.47905 0.0192,-0.90062 0.0958,-1.41799 0.78565,-2.35694 0.68983,-0.9581 1.89705,-1.43715 1.20721,-0.47906 2.87431,-0.47906 1.6671,0 2.87432,0.47906 1.20721,0.47905 1.89704,1.43715 0.68984,0.93895 0.78565,2.35694 0.0383,0.42157 0.0383,0.90062 0,0.45989 -0.0383,0.90062 -0.0958,1.39883 -0.74732,2.35694 -0.63235,0.9581 -1.83956,1.43715 -1.20722,0.47906 -2.97013,0.47906 z m 0,-3.06594 q 0.5557,0 0.68984,-0.30659 0.13413,-0.32576 0.17245,-0.99643 0.0192,-0.28743 0.0192,-0.80481 0,-0.51738 -0.0192,-0.80481 -0.0383,-0.63235 -0.17245,-0.9581 -0.13414,-0.34492 -0.68984,-0.34492 -0.53654,0 -0.68984,0.34492 -0.13413,0.32575 -0.17245,0.9581 -0.0192,0.28743 -0.0192,0.80481 0,0.51738 0.0192,0.80481 0.0383,0.67067 0.17245,0.99643 0.1533,0.30659 0.68984,0.30659 z"
         id="path24724"
         style="fill:url(#linearGradient42583);fill-opacity:1" /><path
         d="m 206.41254,630.37715 q -0.21078,0 -0.36408,-0.1533 -0.1533,-0.1533 -0.1533,-0.36408 v -8.92954 q 0,-0.21078 0.1533,-0.36408 0.1533,-0.1533 0.36408,-0.1533 h 3.35337 q 0.21078,0 0.36408,0.1533 0.15329,0.1533 0.15329,0.36408 v 0.67067 q 0.61319,-0.53653 1.36051,-0.86229 0.76649,-0.32576 1.62878,-0.32576 h 0.91978 q 0.21079,0 0.36408,0.1533 0.1533,0.1533 0.1533,0.36408 v 2.98929 q 0,0.21078 -0.1533,0.36408 -0.15329,0.1533 -0.36408,0.1533 h -2.47191 q -0.57486,0 -0.86229,0.28743 -0.28743,0.28743 -0.28743,0.86229 v 4.27315 q 0,0.21078 -0.1533,0.36408 -0.1533,0.1533 -0.36408,0.1533 z"
         style="letter-spacing:-0.269418px;fill:url(#linearGradient42585);fill-opacity:1"
         id="path24726" /><path
         d="m 219.17334,630.56877 q -0.9581,0 -1.8204,-0.45989 -0.84313,-0.45989 -1.37967,-1.418 -0.51737,-0.9581 -0.51737,-2.47191 v -5.28874 q 0,-0.21078 0.15329,-0.36408 0.1533,-0.1533 0.36408,-0.1533 h 3.65996 q 0.21079,0 0.36408,0.1533 0.1533,0.1533 0.1533,0.36408 v 5.15461 q 0,1.05391 0.9581,1.05391 0.45989,0 0.709,-0.26827 0.24911,-0.26827 0.24911,-0.78564 v -5.15461 q 0,-0.21078 0.1533,-0.36408 0.15329,-0.1533 0.36408,-0.1533 h 3.6408 q 0.21078,0 0.36408,0.1533 0.15329,0.1533 0.15329,0.36408 v 8.92954 q 0,0.21078 -0.15329,0.36408 -0.1533,0.1533 -0.36408,0.1533 h -3.35337 q -0.21079,0 -0.36408,-0.1533 -0.1533,-0.1533 -0.1533,-0.36408 v -0.63235 q -0.47905,0.709 -1.32218,1.03475 -0.84314,0.3066 -1.85873,0.3066 z"
         id="path24728"
         style="fill:url(#linearGradient42587);fill-opacity:1" /><path
         d="m 228.4455,630.37715 q -0.21079,0 -0.36408,-0.1533 -0.1533,-0.1533 -0.1533,-0.36408 v -8.92954 q 0,-0.21078 0.1533,-0.36408 0.15329,-0.1533 0.36408,-0.1533 h 3.16174 q 0.21079,0 0.36408,0.1533 0.1533,0.1533 0.1533,0.36408 v 0.63235 q 0.32576,-0.44073 1.01559,-0.86229 0.709,-0.44073 1.64794,-0.47906 2.26113,-0.0766 3.02761,1.5713 0.44073,-0.67068 1.24554,-1.11141 0.80481,-0.45989 1.68627,-0.45989 0.97726,0 1.76291,0.44073 0.80481,0.44073 1.28386,1.37967 0.47905,0.93895 0.47905,2.45275 v 5.36539 q 0,0.21078 -0.15329,0.36408 -0.1533,0.1533 -0.36408,0.1533 h -3.37253 q -0.21079,0 -0.36408,-0.1533 -0.1533,-0.1533 -0.1533,-0.36408 v -5.26958 q 0,-0.30659 -0.0958,-0.51737 -0.0958,-0.21079 -0.26827,-0.3066 -0.1533,-0.11497 -0.4024,-0.11497 -0.22995,0 -0.40241,0.11497 -0.17246,0.0958 -0.26827,0.3066 -0.0767,0.21078 -0.0767,0.51737 v 5.26958 q 0,0.21078 -0.15329,0.36408 -0.1533,0.1533 -0.36408,0.1533 h -3.37253 q -0.21079,0 -0.36408,-0.1533 -0.1533,-0.1533 -0.1533,-0.36408 v -5.26958 q 0,-0.30659 -0.0958,-0.51737 -0.0958,-0.21079 -0.26827,-0.3066 -0.1533,-0.11497 -0.4024,-0.11497 -0.22995,0 -0.40241,0.11497 -0.17246,0.11497 -0.26827,0.32576 -0.0958,0.19162 -0.0958,0.49821 v 5.26958 q 0,0.21078 -0.15329,0.36408 -0.1533,0.1533 -0.36408,0.1533 z"
         id="path24730"
         style="fill:url(#linearGradient42589);fill-opacity:1" /></g><g
       style="fill:#c2d3d6;fill-opacity:1"
       id="g2601"
       transform="matrix(0.12296957,0,0,0.12296957,989.65709,3098.4858)" /><g
       aria-label="Forum"
       transform="matrix(2.3018024,0,0,2.5897144,-118.88814,-1138.1141)"
       id="text57063"
       style="font-weight:900;font-size:19.1621px;font-family:Rubik;-inkscape-font-specification:'Rubik Heavy';letter-spacing:-0.538838px;fill:#141a1f;stroke-width:38.7921"><path
         d="m 183.73998,674.84766 q -0.21078,0 -0.36408,-0.1533 -0.1533,-0.1533 -0.1533,-0.36408 v -12.37872 q 0,-0.21078 0.1533,-0.36408 0.1533,-0.15329 0.36408,-0.15329 h 9.6577 q 0.21078,0 0.36408,0.15329 0.15329,0.1533 0.15329,0.36408 v 2.91264 q 0,0.21079 -0.15329,0.36408 -0.1533,0.1533 -0.36408,0.1533 h -5.48036 v 1.41799 h 5.09711 q 0.21079,0 0.36408,0.1533 0.1533,0.1533 0.1533,0.36408 v 2.89348 q 0,0.21078 -0.1533,0.36408 -0.15329,0.15329 -0.36408,0.15329 h -5.09711 v 3.60248 q 0,0.21078 -0.1533,0.36408 -0.1533,0.1533 -0.36408,0.1533 z"
         id="path68220" /><path
         d="m 200.00631,675.03928 q -1.76291,0 -2.97013,-0.47906 -1.20721,-0.47905 -1.85872,-1.43715 -0.63235,-0.95811 -0.72816,-2.35694 -0.0192,-0.44073 -0.0192,-0.90062 0,-0.47905 0.0192,-0.90062 0.0958,-1.41799 0.78565,-2.35694 0.68983,-0.9581 1.89705,-1.43715 1.20721,-0.47906 2.87431,-0.47906 1.6671,0 2.87432,0.47906 1.20721,0.47905 1.89704,1.43715 0.68984,0.93895 0.78565,2.35694 0.0383,0.42157 0.0383,0.90062 0,0.45989 -0.0383,0.90062 -0.0958,1.39883 -0.74732,2.35694 -0.63235,0.9581 -1.83956,1.43715 -1.20722,0.47906 -2.97013,0.47906 z m 0,-3.06594 q 0.5557,0 0.68984,-0.30659 0.13413,-0.32576 0.17245,-0.99643 0.0192,-0.28743 0.0192,-0.80481 0,-0.51738 -0.0192,-0.80481 -0.0383,-0.63235 -0.17245,-0.9581 -0.13414,-0.34492 -0.68984,-0.34492 -0.53654,0 -0.68984,0.34492 -0.13413,0.32575 -0.17245,0.9581 -0.0192,0.28743 -0.0192,0.80481 0,0.51738 0.0192,0.80481 0.0383,0.67067 0.17245,0.99643 0.1533,0.30659 0.68984,0.30659 z"
         id="path68222" /><path
         d="m 206.99818,674.84766 q -0.21078,0 -0.36408,-0.1533 -0.1533,-0.1533 -0.1533,-0.36408 v -8.92954 q 0,-0.21078 0.1533,-0.36408 0.1533,-0.1533 0.36408,-0.1533 h 3.35337 q 0.21078,0 0.36408,0.1533 0.15329,0.1533 0.15329,0.36408 v 0.67067 q 0.61319,-0.53653 1.36051,-0.86229 0.76649,-0.32576 1.62878,-0.32576 h 0.91978 q 0.21079,0 0.36408,0.1533 0.1533,0.1533 0.1533,0.36408 v 2.98929 q 0,0.21078 -0.1533,0.36408 -0.15329,0.1533 -0.36408,0.1533 h -2.47191 q -0.57486,0 -0.86229,0.28743 -0.28743,0.28743 -0.28743,0.86229 v 4.27315 q 0,0.21078 -0.1533,0.36408 -0.1533,0.1533 -0.36408,0.1533 z"
         style="letter-spacing:-0.269418px"
         id="path68224" /><path
         d="m 219.75898,675.03928 q -0.9581,0 -1.8204,-0.45989 -0.84313,-0.45989 -1.37967,-1.418 -0.51737,-0.9581 -0.51737,-2.47191 v -5.28874 q 0,-0.21078 0.15329,-0.36408 0.1533,-0.1533 0.36408,-0.1533 h 3.65996 q 0.21079,0 0.36408,0.1533 0.1533,0.1533 0.1533,0.36408 v 5.15461 q 0,1.05391 0.9581,1.05391 0.45989,0 0.709,-0.26827 0.24911,-0.26827 0.24911,-0.78564 v -5.15461 q 0,-0.21078 0.1533,-0.36408 0.15329,-0.1533 0.36408,-0.1533 h 3.6408 q 0.21078,0 0.36408,0.1533 0.15329,0.1533 0.15329,0.36408 v 8.92954 q 0,0.21078 -0.15329,0.36408 -0.1533,0.1533 -0.36408,0.1533 h -3.35337 q -0.21079,0 -0.36408,-0.1533 -0.1533,-0.1533 -0.1533,-0.36408 v -0.63235 q -0.47905,0.709 -1.32218,1.03475 -0.84314,0.3066 -1.85873,0.3066 z"
         id="path68226" /><path
         d="m 229.03114,674.84766 q -0.21079,0 -0.36408,-0.1533 -0.1533,-0.1533 -0.1533,-0.36408 v -8.92954 q 0,-0.21078 0.1533,-0.36408 0.15329,-0.1533 0.36408,-0.1533 h 3.16174 q 0.21079,0 0.36408,0.1533 0.1533,0.1533 0.1533,0.36408 v 0.63235 q 0.32576,-0.44073 1.01559,-0.86229 0.709,-0.44073 1.64794,-0.47906 2.26113,-0.0766 3.02761,1.5713 0.44073,-0.67068 1.24554,-1.11141 0.80481,-0.45989 1.68627,-0.45989 0.97726,0 1.76291,0.44073 0.80481,0.44073 1.28386,1.37967 0.47905,0.93895 0.47905,2.45275 v 5.36539 q 0,0.21078 -0.15329,0.36408 -0.1533,0.1533 -0.36408,0.1533 h -3.37253 q -0.21079,0 -0.36408,-0.1533 -0.1533,-0.1533 -0.1533,-0.36408 v -5.26958 q 0,-0.30659 -0.0958,-0.51737 -0.0958,-0.21079 -0.26827,-0.3066 -0.1533,-0.11497 -0.4024,-0.11497 -0.22995,0 -0.40241,0.11497 -0.17246,0.0958 -0.26827,0.3066 -0.0767,0.21078 -0.0767,0.51737 v 5.26958 q 0,0.21078 -0.15329,0.36408 -0.1533,0.1533 -0.36408,0.1533 H 235.048 q -0.21079,0 -0.36408,-0.1533 -0.1533,-0.1533 -0.1533,-0.36408 v -5.26958 q 0,-0.30659 -0.0958,-0.51737 -0.0958,-0.21079 -0.26827,-0.3066 -0.1533,-0.11497 -0.4024,-0.11497 -0.22995,0 -0.40241,0.11497 -0.17246,0.11497 -0.26827,0.32576 -0.0958,0.19162 -0.0958,0.49821 v 5.26958 q 0,0.21078 -0.15329,0.36408 -0.1533,0.1533 -0.36408,0.1533 z"
         id="path68228" /></g><g
       style="fill:#ffffff;fill-opacity:1"
       id="g69027"
       transform="matrix(0.01311796,0,0,0.01311796,146.44775,764.86626)"><g
         id="g69025"
         style="fill:#ffffff;fill-opacity:1">
	<g
   id="g69023"
   style="fill:#ffffff;fill-opacity:0.619433"
   transform="translate(-15.400024,-34.743674)">
		
		
	</g>
</g></g><rect
       style="fill:url(#linearGradient43182);fill-opacity:1;stroke-width:4.14696"
       id="rect43168"
       width="66.145836"
       height="66.145836"
       x="218.84052"
       y="659.60254"
       rx="13.229167"
       ry="13.229167"
       inkscape:export-filename="../../../../Desktop/rect15941.png"
       inkscape:export-xdpi="191.99998"
       inkscape:export-ydpi="191.99998" /><path
       d="m 276.99417,683.52347 v 12.5684 c 0,0.8005 -0.0401,1.601 -0.12013,2.3616 -0.72049,8.4856 -5.7238,12.7285 -14.93,12.7285 h -1.24082 c -0.80052,0 -1.56104,0.3602 -2.00129,1.0007 l -3.76258,5.0433 c -1.68113,2.2415 -4.36288,2.2415 -6.04406,0 l -3.76248,-5.0433 c -0.40026,-0.5204 -1.32082,-1.0007 -2.00132,-1.0007 h -1.24083 c -10.0467,0 -15.05006,-2.4817 -15.05006,-15.0502 v -12.5683 c 0,-9.2061 4.24277,-14.2094 12.72844,-14.9298 0.7605,-0.08 1.56104,-0.1202 2.36157,-0.1202 h 20.13351 c 9.88661,-0.04 14.92999,5.0034 14.92999,15.01 z"
       fill="#292d32"
       id="path43170"
       style="fill:#fefeff;fill-opacity:0.5;stroke-width:4.00266" /><g
       style="fill:#c2d3d6;fill-opacity:1"
       id="g43180"
       transform="matrix(0.03190418,0,0,0.03190418,237.82931,674.79947)"><g
         id="g43178"
         style="fill:#c2d3d6;fill-opacity:1">
	<g
   id="g43176"
   style="fill:#c2d3d6;fill-opacity:1"
   transform="translate(-15.400024,-34.743674)">
		
		<path
   d="m 900.40846,846.60929 h -35.71137 v -38.92021 c 0,-17.18286 -13.87049,-31.05336 -31.05336,-31.05336 H 792.6533 V 329.05333 H 674.02845 V 776.63572 H 521.76452 V 329.05333 H 411.21457 V 776.63572 H 258.94961 V 329.05333 H 140.32578 V 776.63572 H 99.335348 c -17.182858,0 -31.053357,13.8705 -31.053357,31.05336 v 38.92021 H 32.57063 c -17.182858,0 -31.0533566,13.8705 -31.0533566,31.05336 v 42.23256 c 0,17.18286 13.8704986,31.05336 31.0533566,31.05336 h 867.83783 c 17.18285,0 31.05335,-13.8705 31.05335,-31.05336 v -42.23256 c 0,-17.18286 -13.8705,-31.05336 -31.05335,-31.05336 z"
   id="path43172"
   style="fill:#ffffff;fill-opacity:1;stroke-width:1.03511" />
	<path
   d="m 11.338589,259.94053 h 36.359822 v 40.93202 c 0,18.07104 14.587474,32.65851 32.658524,32.65851 H 466.48954 852.62215 c 18.07104,0 32.65852,-14.58747 32.65852,-32.65851 v -40.93202 h 36.35983 c 18.07105,0 32.65852,-14.58747 32.65852,-32.65853 v -52.79796 c 0,-14.36974 -9.47206,-27.10657 -23.18864,-31.24332 L 480.64047,7.3813072 c -4.5711,-1.415203 -9.36101,-2.068374 -14.15093,-2.068374 -4.78883,0 -9.47098,0.653171 -14.15203,2.068374 L 1.8676174,143.24072 C -11.957825,147.37747 -21.319934,160.1143 -21.319934,174.48404 V 227.282 c 0,17.96219 14.5874741,32.65853 32.658523,32.65853 z"
   id="path43174"
   style="fill:#ffffff;fill-opacity:1;stroke-width:1.08862" /></g>
</g></g><g
       style="fill:#c2d3d6;fill-opacity:1"
       id="g45797"
       transform="matrix(0.03190418,0,0,0.03190418,-256.16264,1085.3908)" /><rect
       style="fill:url(#linearGradient51942);fill-opacity:1;stroke-width:4.14696"
       id="rect51928"
       width="66.145836"
       height="66.145836"
       x="220.1774"
       y="558.31927"
       rx="13.229167"
       ry="13.229167"
       inkscape:export-filename="../../../../Desktop/rect15941.png"
       inkscape:export-xdpi="191.99998"
       inkscape:export-ydpi="191.99998" /><path
       d="m 278.33105,582.24026 v 12.5684 c 0,0.8005 -0.0401,1.601 -0.12013,2.3616 -0.72049,8.4856 -5.7238,12.7285 -14.93,12.7285 h -1.24082 c -0.80052,0 -1.56104,0.3602 -2.00129,1.0007 l -3.76258,5.0433 c -1.68113,2.2415 -4.36288,2.2415 -6.04406,0 l -3.76248,-5.0433 c -0.40026,-0.5204 -1.32082,-1.0007 -2.00132,-1.0007 h -1.24083 c -10.0467,0 -15.05006,-2.4817 -15.05006,-15.0502 v -12.5683 c 0,-9.2061 4.24277,-14.2094 12.72844,-14.9298 0.7605,-0.08 1.56104,-0.1202 2.36157,-0.1202 H 263.401 c 9.88661,-0.04 14.92999,5.0034 14.92999,15.01 z"
       fill="#292d32"
       id="path51930"
       style="fill:#fefeff;fill-opacity:0.5;stroke-width:4.00266" /><g
       style="fill:#c2d3d6;fill-opacity:1"
       id="g51940"
       transform="matrix(0.03190418,0,0,0.03190418,239.16619,573.51626)"><g
         id="g51938"
         style="fill:#c2d3d6;fill-opacity:1">
	<g
   id="g51936"
   style="fill:#c2d3d6;fill-opacity:1"
   transform="translate(-15.400024,-34.743674)">
		
		<path
   d="m 900.40846,846.60929 h -35.71137 v -38.92021 c 0,-17.18286 -13.87049,-31.05336 -31.05336,-31.05336 H 792.6533 V 329.05333 H 674.02845 V 776.63572 H 521.76452 V 329.05333 H 411.21457 V 776.63572 H 258.94961 V 329.05333 H 140.32578 V 776.63572 H 99.335348 c -17.182858,0 -31.053357,13.8705 -31.053357,31.05336 v 38.92021 H 32.57063 c -17.182858,0 -31.0533566,13.8705 -31.0533566,31.05336 v 42.23256 c 0,17.18286 13.8704986,31.05336 31.0533566,31.05336 h 867.83783 c 17.18285,0 31.05335,-13.8705 31.05335,-31.05336 v -42.23256 c 0,-17.18286 -13.8705,-31.05336 -31.05335,-31.05336 z"
   id="path51932"
   style="fill:#ffffff;fill-opacity:1;stroke-width:1.03511" />
	<path
   d="m 11.338589,259.94053 h 36.359822 v 40.93202 c 0,18.07104 14.587474,32.65851 32.658524,32.65851 H 466.48954 852.62215 c 18.07104,0 32.65852,-14.58747 32.65852,-32.65851 v -40.93202 h 36.35983 c 18.07105,0 32.65852,-14.58747 32.65852,-32.65853 v -52.79796 c 0,-14.36974 -9.47206,-27.10657 -23.18864,-31.24332 L 480.64047,7.3813072 c -4.5711,-1.415203 -9.36101,-2.068374 -14.15093,-2.068374 -4.78883,0 -9.47098,0.653171 -14.15203,2.068374 L 1.8676174,143.24072 C -11.957825,147.37747 -21.319934,160.1143 -21.319934,174.48404 V 227.282 c 0,17.96219 14.5874741,32.65853 32.658523,32.65853 z"
   id="path51934"
   style="fill:#ffffff;fill-opacity:1;stroke-width:1.08862" /></g>
</g></g></g><style
     type="text/css"
     id="style1941">
	.st0{fill:none;stroke:#000000;stroke-width:2;stroke-linecap:round;stroke-linejoin:round;stroke-miterlimit:10;}
</style><style
     type="text/css"
     id="style1941-0">
	.st0{fill:none;stroke:#000000;stroke-width:2;stroke-linecap:round;stroke-linejoin:round;stroke-miterlimit:10;}
</style><style
     type="text/css"
     id="style1941-7">
	.st0{fill:none;stroke:#000000;stroke-width:2;stroke-linecap:round;stroke-linejoin:round;stroke-miterlimit:10;}
</style><style
     type="text/css"
     id="style22485">
	.st0{fill:none;stroke:#6C3DB7;stroke-width:4;stroke-linecap:round;stroke-linejoin:round;stroke-miterlimit:10;}
	.st1{fill:none;stroke:#1F992A;stroke-width:4;stroke-linecap:round;stroke-linejoin:round;stroke-miterlimit:10;}
	.st2{fill:none;stroke:#6A83BA;stroke-width:4;stroke-linecap:round;stroke-linejoin:round;stroke-miterlimit:10;}
	.st3{fill:#8A8AFF;stroke:#8A8AFF;stroke-width:2;stroke-linecap:round;stroke-linejoin:round;stroke-miterlimit:10;}
	.st4{fill:#6C3DB7;stroke:#6C3DB7;stroke-width:2;stroke-linecap:round;stroke-linejoin:round;stroke-miterlimit:10;}
	.st5{fill:#A576FF;stroke:#A576FF;stroke-width:2;stroke-linecap:round;stroke-linejoin:round;stroke-miterlimit:10;}
	.st6{fill:#F2BB41;stroke:#F2BB41;stroke-width:2;stroke-linecap:round;stroke-linejoin:round;stroke-miterlimit:10;}
	.st7{fill:#E08838;stroke:#E08838;stroke-width:2;stroke-linecap:round;stroke-linejoin:round;stroke-miterlimit:10;}
	.st8{fill:#1F992A;stroke:#1F992A;stroke-width:2;stroke-linecap:round;stroke-linejoin:round;stroke-miterlimit:10;}
	.st9{fill:#5EC11E;stroke:#5EC11E;stroke-width:2;stroke-linecap:round;stroke-linejoin:round;stroke-miterlimit:10;}
	.st10{fill:#E3FAFF;stroke:#E3FAFF;stroke-width:2;stroke-linecap:round;stroke-linejoin:round;stroke-miterlimit:10;}
	.st11{fill:#FF5093;stroke:#FF5093;stroke-width:2;stroke-linecap:round;stroke-linejoin:round;stroke-miterlimit:10;}
	.st12{fill:#B7257F;stroke:#B7257F;stroke-width:2;stroke-linecap:round;stroke-linejoin:round;stroke-miterlimit:10;}
	.st13{fill:#5189E5;stroke:#5189E5;stroke-width:2;stroke-linecap:round;stroke-linejoin:round;stroke-miterlimit:10;}
	.st14{fill:#6EBAFF;stroke:#6EBAFF;stroke-width:2;stroke-linecap:round;stroke-linejoin:round;stroke-miterlimit:10;}
	.st15{fill:#EDD977;stroke:#EDD977;stroke-width:2;stroke-linecap:round;stroke-linejoin:round;stroke-miterlimit:10;}
	.st16{fill:#8C43FF;stroke:#8C43FF;stroke-width:2;stroke-linecap:round;stroke-linejoin:round;stroke-miterlimit:10;}
	.st17{fill:#5252BA;stroke:#5252BA;stroke-width:2;stroke-linecap:round;stroke-linejoin:round;stroke-miterlimit:10;}
	.st18{fill:none;stroke:#E3FAFF;stroke-width:4;stroke-linecap:round;stroke-linejoin:round;stroke-miterlimit:10;}
	.st19{fill:#354C75;stroke:#354C75;stroke-width:2;stroke-linecap:round;stroke-linejoin:round;stroke-miterlimit:10;}
</style><style
     type="text/css"
     id="style23106">
	.st0{fill:none;stroke:#000000;stroke-width:2;stroke-linecap:round;stroke-linejoin:round;stroke-miterlimit:10;}
	.st1{fill:none;stroke:#000000;stroke-width:2;stroke-linejoin:round;stroke-miterlimit:10;}
</style></svg>
