<?xml version="1.0" encoding="UTF-8" standalone="no"?>
<!-- Created with Inkscape (http://www.inkscape.org/) -->

<svg
   width="802.49805"
   height="250.00002"
   viewBox="0 0 212.32761 66.145837"
   version="1.1"
   id="svg5"
   xml:space="preserve"
   inkscape:version="1.2.2 (b0a8486541, 2022-12-01)"
   sodipodi:docname="design.svg"
   xmlns:inkscape="http://www.inkscape.org/namespaces/inkscape"
   xmlns:sodipodi="http://sodipodi.sourceforge.net/DTD/sodipodi-0.dtd"
   xmlns:xlink="http://www.w3.org/1999/xlink"
   xmlns="http://www.w3.org/2000/svg"
   xmlns:svg="http://www.w3.org/2000/svg"><sodipodi:namedview
     id="namedview7"
     pagecolor="#ffffff"
     bordercolor="#ebebeb"
     borderopacity="1"
     inkscape:showpageshadow="false"
     inkscape:pageopacity="0"
     inkscape:pagecheckerboard="false"
     inkscape:deskcolor="#ffffff"
     inkscape:document-units="px"
     showgrid="false"
     showguides="false"
     inkscape:zoom="1"
     inkscape:cx="-103.5"
     inkscape:cy="182.5"
     inkscape:window-width="1920"
     inkscape:window-height="1011"
     inkscape:window-x="0"
     inkscape:window-y="32"
     inkscape:window-maximized="1"
     inkscape:current-layer="layer1"><inkscape:page
       x="0"
       y="0"
       width="212.32761"
       height="66.145836"
       id="page7242"
       inkscape:label="Brand" /><inkscape:page
       x="-1.1308848e-14"
       y="-1.0194547e-15"
       width="66.145836"
       height="66.145836"
       id="page7244"
       inkscape:label="Icon" /><inkscape:page
       x="0"
       y="101.00555"
       width="212.32761"
       height="66.145836"
       id="page69065"
       inkscape:label="Brand-White" /><inkscape:page
       x="19.566784"
       y="176.89246"
       width="66.145836"
       height="66.145836"
       id="page24235"
       inkscape:label="Key" /><inkscape:page
       x="19.596174"
       y="249.23749"
       width="66.145836"
       height="66.145836"
       id="page27222"
       inkscape:label="Square" /></sodipodi:namedview><defs
     id="defs2"><linearGradient
       inkscape:collect="always"
       id="linearGradient9181"><stop
         style="stop-color:#9edcfa;stop-opacity:1;"
         offset="0.04900488"
         id="stop9177" /><stop
         style="stop-color:#ffffff;stop-opacity:1;"
         offset="0.3992942"
         id="stop9179" /></linearGradient><linearGradient
       inkscape:collect="always"
       id="linearGradient9175"><stop
         style="stop-color:#a8d8f0;stop-opacity:1;"
         offset="0"
         id="stop9171" /><stop
         style="stop-color:#ffffff;stop-opacity:1;"
         offset="0.50965863"
         id="stop9173" /></linearGradient><linearGradient
       inkscape:collect="always"
       id="linearGradient997"><stop
         style="stop-color:#008040;stop-opacity:1;"
         offset="0.0001"
         id="stop993" /><stop
         style="stop-color:#47eb55;stop-opacity:1;"
         offset="0.99989998"
         id="stop995" /></linearGradient><style
       id="style6568">.cls-1{fill:none;}.cls-2{clip-path:url(#clip-path);}</style><clipPath
       id="clip-path"><rect
         class="cls-1"
         x="0.059999999"
         width="24"
         height="24"
         id="rect6570"
         y="0" /></clipPath><linearGradient
       id="linearGradient5222-7"><stop
         style="stop-color:#17191c;stop-opacity:1;"
         offset="0"
         id="stop5218-5" /><stop
         style="stop-color:#2e3038;stop-opacity:1;"
         offset="1"
         id="stop5220-3" /></linearGradient><style
       id="style6568-5">.cls-1{fill:none;}.cls-2{clip-path:url(#clip-path);}</style><linearGradient
       xlink:href="#linearGradient5222-7"
       id="linearGradient3859-6"
       gradientUnits="userSpaceOnUse"
       x1="2487.3772"
       y1="3121.3364"
       x2="2487.3772"
       y2="2945.2664" /><style
       id="style6568-9">.cls-1{fill:none;}.cls-2{clip-path:url(#clip-path);}</style><linearGradient
       id="linearGradient45366-7"><stop
         style="stop-color:#aaaaaa;stop-opacity:1;"
         offset="0"
         id="stop45364-5" /></linearGradient><linearGradient
       id="id"><stop
         style="stop-color:#0ac247;stop-opacity:1;"
         offset="0"
         id="stop23041" /><stop
         style="stop-color:#ffffff;stop-opacity:1;"
         offset="1"
         id="stop23043" /></linearGradient><style
       id="style22571">.cls-1{fill:#84d0f7;}.cls-2{fill:#aa392d;}.cls-3{fill:#7c211a;}.cls-4{fill:#e59973;}.cls-5{fill:#2d2d2d;}.cls-6{opacity:0.2;}.cls-7{opacity:0.3;}</style><style
       id="style23309">
      .cls-1 {
        fill: none;
      }
    </style><linearGradient
       xlink:href="#id"
       id="linearGradient7102"
       gradientUnits="userSpaceOnUse"
       gradientTransform="matrix(0,3.6501243,-3.6501243,0,-570.23775,3667.4976)"
       x1="-161.08073"
       y1="-123.59392"
       x2="-56.793404"
       y2="-123.59392" /><linearGradient
       inkscape:collect="always"
       xlink:href="#linearGradient997"
       id="linearGradient7384"
       gradientUnits="userSpaceOnUse"
       gradientTransform="matrix(0.64519054,0,0,0.64519057,88.661826,129.72468)"
       x1="211.29193"
       y1="762.6239"
       x2="301.67172"
       y2="672.24414" /><linearGradient
       inkscape:collect="always"
       xlink:href="#linearGradient997"
       id="linearGradient7511"
       gradientUnits="userSpaceOnUse"
       gradientTransform="matrix(0.64519054,0,0,0.64519057,88.661826,230.73026)"
       x1="211.29193"
       y1="762.6239"
       x2="301.67172"
       y2="672.24414" /><linearGradient
       inkscape:collect="always"
       xlink:href="#linearGradient9181"
       id="linearGradient7519"
       x1="183.2226"
       y1="668.23676"
       x2="244.85902"
       y2="668.23676"
       gradientUnits="userSpaceOnUse" /><linearGradient
       inkscape:collect="always"
       xlink:href="#linearGradient9175"
       id="linearGradient9162"
       x1="216.42819"
       y1="675.01855"
       x2="216.42819"
       y2="663.04755"
       gradientUnits="userSpaceOnUse" /><linearGradient
       inkscape:collect="always"
       xlink:href="#linearGradient997"
       id="linearGradient13586"
       x1="306.23956"
       y1="790.91174"
       x2="349.25031"
       y2="747.901"
       gradientUnits="userSpaceOnUse"
       gradientTransform="matrix(1.3126145,0,0,1.3126145,-158.10619,-240.73082)" /><linearGradient
       inkscape:collect="always"
       xlink:href="#linearGradient997"
       id="linearGradient16776"
       x1="152.42097"
       y1="721.20874"
       x2="213.4021"
       y2="660.2276"
       gradientUnits="userSpaceOnUse"
       gradientTransform="translate(92.064535,148.07775)" /></defs><g
     inkscape:label="Layer 1"
     inkscape:groupmode="layer"
     id="layer1"
     transform="translate(-220.1774,-558.63916)"><rect
       style="font-weight:900;font-size:53.7023px;font-family:Rubik;-inkscape-font-specification:'Rubik Heavy';letter-spacing:-0.719445px;fill:#000000;fill-opacity:1;stroke-width:12.4194"
       id="rect22610"
       width="331.84866"
       height="230.70428"
       x="-208.85973"
       y="622.41376"
       rx="30.656855"
       ry="21.312933" /><g
       style="fill:#c2d3d6;fill-opacity:1"
       id="g2601"
       transform="matrix(0.12296957,0,0,0.12296957,989.65709,3098.4858)" /><g
       style="fill:#ffffff;fill-opacity:1"
       id="g69027"
       transform="matrix(0.01311796,0,0,0.01311796,146.44775,764.86626)"><g
         id="g69025"
         style="fill:#ffffff;fill-opacity:1">
	<g
   id="g69023"
   style="fill:#ffffff;fill-opacity:0.619433"
   transform="translate(-15.400024,-34.743674)">
		
		
	</g>
</g></g><g
       style="fill:#c2d3d6;fill-opacity:1"
       id="g45797"
       transform="matrix(0.03190418,0,0,0.03190418,-256.16264,1085.3908)" /><g
       style="fill:#c2d3d6;fill-opacity:1"
       id="g51940"
       transform="matrix(0.03190418,0,0,0.03190418,239.16619,573.51626)" /><text
       xml:space="preserve"
       style="font-style:normal;font-variant:normal;font-weight:900;font-stretch:normal;font-size:54.7666px;font-family:Rubik;-inkscape-font-specification:'Rubik Heavy';letter-spacing:-0.733703px;fill:#141a1f;fill-opacity:1;stroke-width:110.871"
       x="-52.411217"
       y="463.33594"
       id="text22488"
       transform="scale(0.92919057,1.0762055)"><tspan
         sodipodi:role="line"
         id="tspan22486"
         style="font-style:normal;font-variant:normal;font-weight:900;font-stretch:normal;font-family:Rubik;-inkscape-font-specification:'Rubik Heavy';fill:#141a1f;fill-opacity:1;stroke-width:110.871"
         x="-52.411217"
         y="463.33594">Forum</tspan></text><rect
       style="fill:url(#linearGradient16776);fill-opacity:1;stroke-width:4.14696"
       id="rect27212"
       width="66.145836"
       height="66.145836"
       x="239.77356"
       y="807.87665"
       rx="0"
       ry="0"
       inkscape:export-filename="../../../../Desktop/rect15941.png"
       inkscape:export-xdpi="191.99998"
       inkscape:export-ydpi="191.99998" /><g
       aria-label="Forum"
       transform="matrix(2.1594696,0,0,2.4745758,-96.260623,-1061.9391)"
       id="text57063"
       style="font-weight:900;font-size:19.1621px;font-family:Rubik;-inkscape-font-specification:'Rubik Heavy';letter-spacing:-0.538838px;fill:#141a1f;stroke-width:38.7921"><path
         d="m 183.73998,674.84766 q -0.21078,0 -0.36408,-0.1533 -0.1533,-0.1533 -0.1533,-0.36408 v -12.37872 q 0,-0.21078 0.1533,-0.36408 0.1533,-0.15329 0.36408,-0.15329 h 9.6577 q 0.21078,0 0.36408,0.15329 0.15329,0.1533 0.15329,0.36408 v 2.91264 q 0,0.21079 -0.15329,0.36408 -0.1533,0.1533 -0.36408,0.1533 h -5.48036 v 1.41799 h 5.09711 q 0.21079,0 0.36408,0.1533 0.1533,0.1533 0.1533,0.36408 v 2.89348 q 0,0.21078 -0.1533,0.36408 -0.15329,0.15329 -0.36408,0.15329 h -5.09711 v 3.60248 q 0,0.21078 -0.1533,0.36408 -0.1533,0.1533 -0.36408,0.1533 z"
         id="path68220" /><path
         d="m 200.00631,675.03928 q -1.76291,0 -2.97013,-0.47906 -1.20721,-0.47905 -1.85872,-1.43715 -0.63235,-0.95811 -0.72816,-2.35694 -0.0192,-0.44073 -0.0192,-0.90062 0,-0.47905 0.0192,-0.90062 0.0958,-1.41799 0.78565,-2.35694 0.68983,-0.9581 1.89705,-1.43715 1.20721,-0.47906 2.87431,-0.47906 1.6671,0 2.87432,0.47906 1.20721,0.47905 1.89704,1.43715 0.68984,0.93895 0.78565,2.35694 0.0383,0.42157 0.0383,0.90062 0,0.45989 -0.0383,0.90062 -0.0958,1.39883 -0.74732,2.35694 -0.63235,0.9581 -1.83956,1.43715 -1.20722,0.47906 -2.97013,0.47906 z m 0,-3.06594 q 0.5557,0 0.68984,-0.30659 0.13413,-0.32576 0.17245,-0.99643 0.0192,-0.28743 0.0192,-0.80481 0,-0.51738 -0.0192,-0.80481 -0.0383,-0.63235 -0.17245,-0.9581 -0.13414,-0.34492 -0.68984,-0.34492 -0.53654,0 -0.68984,0.34492 -0.13413,0.32575 -0.17245,0.9581 -0.0192,0.28743 -0.0192,0.80481 0,0.51738 0.0192,0.80481 0.0383,0.67067 0.17245,0.99643 0.1533,0.30659 0.68984,0.30659 z"
         id="path68222" /><path
         d="m 206.99818,674.84766 q -0.21078,0 -0.36408,-0.1533 -0.1533,-0.1533 -0.1533,-0.36408 v -8.92954 q 0,-0.21078 0.1533,-0.36408 0.1533,-0.1533 0.36408,-0.1533 h 3.35337 q 0.21078,0 0.36408,0.1533 0.15329,0.1533 0.15329,0.36408 v 0.67067 q 0.61319,-0.53653 1.36051,-0.86229 0.76649,-0.32576 1.62878,-0.32576 h 0.91978 q 0.21079,0 0.36408,0.1533 0.1533,0.1533 0.1533,0.36408 v 2.98929 q 0,0.21078 -0.1533,0.36408 -0.15329,0.1533 -0.36408,0.1533 h -2.47191 q -0.57486,0 -0.86229,0.28743 -0.28743,0.28743 -0.28743,0.86229 v 4.27315 q 0,0.21078 -0.1533,0.36408 -0.1533,0.1533 -0.36408,0.1533 z"
         style="letter-spacing:-0.269418px"
         id="path68224" /><path
         d="m 219.75898,675.03928 q -0.9581,0 -1.8204,-0.45989 -0.84313,-0.45989 -1.37967,-1.418 -0.51737,-0.9581 -0.51737,-2.47191 v -5.28874 q 0,-0.21078 0.15329,-0.36408 0.1533,-0.1533 0.36408,-0.1533 h 3.65996 q 0.21079,0 0.36408,0.1533 0.1533,0.1533 0.1533,0.36408 v 5.15461 q 0,1.05391 0.9581,1.05391 0.45989,0 0.709,-0.26827 0.24911,-0.26827 0.24911,-0.78564 v -5.15461 q 0,-0.21078 0.1533,-0.36408 0.15329,-0.1533 0.36408,-0.1533 h 3.6408 q 0.21078,0 0.36408,0.1533 0.15329,0.1533 0.15329,0.36408 v 8.92954 q 0,0.21078 -0.15329,0.36408 -0.1533,0.1533 -0.36408,0.1533 h -3.35337 q -0.21079,0 -0.36408,-0.1533 -0.1533,-0.1533 -0.1533,-0.36408 v -0.63235 q -0.47905,0.709 -1.32218,1.03475 -0.84314,0.3066 -1.85873,0.3066 z"
         id="path68226" /><path
         d="m 229.03114,674.84766 q -0.21079,0 -0.36408,-0.1533 -0.1533,-0.1533 -0.1533,-0.36408 v -8.92954 q 0,-0.21078 0.1533,-0.36408 0.15329,-0.1533 0.36408,-0.1533 h 3.16174 q 0.21079,0 0.36408,0.1533 0.1533,0.1533 0.1533,0.36408 v 0.63235 q 0.32576,-0.44073 1.01559,-0.86229 0.709,-0.44073 1.64794,-0.47906 2.26113,-0.0766 3.02761,1.5713 0.44073,-0.67068 1.24554,-1.11141 0.80481,-0.45989 1.68627,-0.45989 0.97726,0 1.76291,0.44073 0.80481,0.44073 1.28386,1.37967 0.47905,0.93895 0.47905,2.45275 v 5.36539 q 0,0.21078 -0.15329,0.36408 -0.1533,0.1533 -0.36408,0.1533 h -3.37253 q -0.21079,0 -0.36408,-0.1533 -0.1533,-0.1533 -0.1533,-0.36408 v -5.26958 q 0,-0.30659 -0.0958,-0.51737 -0.0958,-0.21079 -0.26827,-0.3066 -0.1533,-0.11497 -0.4024,-0.11497 -0.22995,0 -0.40241,0.11497 -0.17246,0.0958 -0.26827,0.3066 -0.0767,0.21078 -0.0767,0.51737 v 5.26958 q 0,0.21078 -0.15329,0.36408 -0.1533,0.1533 -0.36408,0.1533 H 235.048 q -0.21079,0 -0.36408,-0.1533 -0.1533,-0.1533 -0.1533,-0.36408 v -5.26958 q 0,-0.30659 -0.0958,-0.51737 -0.0958,-0.21079 -0.26827,-0.3066 -0.1533,-0.11497 -0.4024,-0.11497 -0.22995,0 -0.40241,0.11497 -0.17246,0.11497 -0.26827,0.32576 -0.0958,0.19162 -0.0958,0.49821 v 5.26958 q 0,0.21078 -0.15329,0.36408 -0.1533,0.1533 -0.36408,0.1533 z"
         id="path68228" /></g><rect
       style="fill:url(#linearGradient7384);fill-opacity:1.0;stroke-width:4.14696"
       id="rect7370"
       width="66.145836"
       height="66.145836"
       x="220.1774"
       y="558.63916"
       rx="13.229167"
       ry="13.229167"
       inkscape:export-filename="../../../../Desktop/rect15941.png"
       inkscape:export-xdpi="191.99998"
       inkscape:export-ydpi="191.99998" /><path
       d="m 278.57521,581.8309 v 12.56803 c 0,0.80047 -0.0401,1.60096 -0.12012,2.36153 -0.72045,8.48538 -5.72363,12.72814 -14.92956,12.72814 h -1.24079 c -0.80048,0 -1.56099,0.36019 -2.00125,1.00065 l -3.76246,5.04316 c -1.68105,2.24145 -4.36273,2.24145 -6.04387,0 l -3.76237,-5.04316 c -0.40025,-0.52036 -1.32077,-1.00065 -2.00125,-1.00065 h -1.2408 c -10.0464,0 -15.04962,-2.48163 -15.04962,-15.04978 V 581.8709 c 0,-9.20584 4.24263,-14.20899 12.72806,-14.92937 0.76048,-0.0801 1.561,-0.12018 2.3615,-0.12018 h 20.13291 c 9.88633,-0.0401 14.92957,5.00324 14.92957,15.00955 z"
       fill="#292d32"
       id="path7372"
       style="fill:#fefeff;fill-opacity:0.5;stroke-width:4.00254" /><g
       style="fill:#c2d3d6;fill-opacity:1"
       id="g7382"
       transform="matrix(0.03190323,0,0,0.03190323,239.4115,573.10715)"><g
         id="g7380"
         style="fill:#c2d3d6;fill-opacity:1">
	<g
   id="g7378"
   style="fill:#c2d3d6;fill-opacity:1"
   transform="translate(-15.400024,-34.743674)">
		
		<path
   d="m 900.40846,846.60929 h -35.71137 v -38.92021 c 0,-17.18286 -13.87049,-31.05336 -31.05336,-31.05336 H 792.6533 V 329.05333 H 674.02845 V 776.63572 H 521.76452 V 329.05333 H 411.21457 V 776.63572 H 258.94961 V 329.05333 H 140.32578 V 776.63572 H 99.335348 c -17.182858,0 -31.053357,13.8705 -31.053357,31.05336 v 38.92021 H 32.57063 c -17.182858,0 -31.0533566,13.8705 -31.0533566,31.05336 v 42.23256 c 0,17.18286 13.8704986,31.05336 31.0533566,31.05336 h 867.83783 c 17.18285,0 31.05335,-13.8705 31.05335,-31.05336 v -42.23256 c 0,-17.18286 -13.8705,-31.05336 -31.05335,-31.05336 z"
   id="path7374"
   style="fill:#ffffff;fill-opacity:1;stroke-width:1.03511" />
	<path
   d="m 11.338589,259.94053 h 36.359822 v 40.93202 c 0,18.07104 14.587474,32.65851 32.658524,32.65851 H 466.48954 852.62215 c 18.07104,0 32.65852,-14.58747 32.65852,-32.65851 v -40.93202 h 36.35983 c 18.07105,0 32.65852,-14.58747 32.65852,-32.65853 v -52.79796 c 0,-14.36974 -9.47206,-27.10657 -23.18864,-31.24332 L 480.64047,7.3813072 c -4.5711,-1.415203 -9.36101,-2.068374 -14.15093,-2.068374 -4.78883,0 -9.47098,0.653171 -14.15203,2.068374 L 1.8676174,143.24072 C -11.957825,147.37747 -21.319934,160.1143 -21.319934,174.48404 V 227.282 c 0,17.96219 14.5874741,32.65853 32.658523,32.65853 z"
   id="path7376"
   style="fill:#ffffff;fill-opacity:1;stroke-width:1.08862" /></g>
</g></g><g
       aria-label="Forum"
       transform="matrix(2.1594696,0,0,2.4745758,-96.260623,-960.93352)"
       id="g7495"
       style="font-weight:900;font-size:19.1621px;font-family:Rubik;-inkscape-font-specification:'Rubik Heavy';letter-spacing:-0.538838px;fill:url(#linearGradient7519);stroke-width:38.7921;fill-opacity:1.0"><path
         id="path7485"
         style="fill-opacity:1;fill:url(#linearGradient9162)"
         d="M 183.73999 661.43423 C 183.59947 661.43423 183.47821 661.48532 183.37601 661.58751 C 183.27381 661.68971 183.22262 661.81098 183.22262 661.9515 L 183.22262 674.33029 C 183.22262 674.47081 183.27381 674.59208 183.37601 674.69428 C 183.47821 674.79648 183.59947 674.84756 183.73999 674.84756 L 187.39987 674.84756 C 187.54039 674.84756 187.66188 674.79648 187.76408 674.69428 C 187.86628 674.59208 187.91724 674.47081 187.91724 674.33029 L 187.91724 670.72777 L 193.01436 670.72777 C 193.15489 670.72777 193.27638 670.67668 193.37858 670.57449 C 193.48078 670.47229 193.53173 670.35102 193.53173 670.2105 L 193.53173 667.31696 C 193.53173 667.17644 193.48078 667.05517 193.37858 666.95297 C 193.27638 666.85077 193.15489 666.79948 193.01436 666.79948 L 187.91724 666.79948 L 187.91724 665.38153 L 193.39772 665.38153 C 193.53824 665.38153 193.6595 665.33045 193.7617 665.22825 C 193.86389 665.12605 193.91509 665.00478 193.91509 664.86426 L 193.91509 661.9515 C 193.91509 661.81098 193.86389 661.68971 193.7617 661.58751 C 193.6595 661.48532 193.53824 661.43423 193.39772 661.43423 L 183.73999 661.43423 z M 235.51359 664.68863 C 235.46745 664.6891 235.42094 664.69017 235.37384 664.69176 C 234.74788 664.71732 234.19843 664.877 233.72577 665.17082 C 233.26588 665.45186 232.92734 665.73925 232.71017 666.03307 L 232.71017 665.40074 C 232.71017 665.26022 232.65922 665.13895 232.55702 665.03675 C 232.45482 664.93455 232.33333 664.88326 232.1928 664.88326 L 229.03115 664.88326 C 228.89062 664.88326 228.76936 664.93455 228.66717 665.03675 C 228.56497 665.13895 228.51378 665.26022 228.51378 665.40074 L 228.51378 674.33029 C 228.51378 674.47081 228.56497 674.59208 228.66717 674.69428 C 228.76936 674.79648 228.89062 674.84756 229.03115 674.84756 L 232.4802 674.84756 C 232.62072 674.84756 232.74222 674.79648 232.84442 674.69428 C 232.94661 674.59208 232.99757 674.47081 232.99757 674.33029 L 232.99757 669.06068 C 232.99757 668.85629 233.02967 668.69016 233.09353 668.56242 C 233.1574 668.42189 233.24682 668.31329 233.36179 668.23664 C 233.47676 668.16 233.61075 668.12179 233.76405 668.12179 C 233.93012 668.12179 234.06436 668.16 234.16656 668.23664 C 234.28154 668.30052 234.37095 668.40289 234.43482 668.54341 C 234.49868 668.68393 234.53054 668.85629 234.53054 669.06068 L 234.53054 674.33029 C 234.53054 674.47081 234.58173 674.59208 234.68393 674.69428 C 234.78612 674.79648 234.90738 674.84756 235.04791 674.84756 L 238.42062 674.84756 C 238.56114 674.84756 238.6824 674.79648 238.7846 674.69428 C 238.88679 674.59208 238.93799 674.47081 238.93799 674.33029 L 238.93799 669.06068 C 238.93799 668.85629 238.96344 668.68393 239.01457 668.54341 C 239.07844 668.40288 239.16785 668.30051 239.28283 668.23664 C 239.3978 668.16 239.53203 668.12179 239.68533 668.12179 C 239.8514 668.12179 239.9854 668.16 240.0876 668.23664 C 240.20258 668.30052 240.29199 668.40289 240.35585 668.54341 C 240.41972 668.68393 240.45181 668.85629 240.45181 669.06068 L 240.45181 674.33029 C 240.45181 674.47081 240.50277 674.59208 240.60497 674.69428 C 240.70716 674.79648 240.82866 674.84756 240.96918 674.84756 L 244.34166 674.84756 C 244.48218 674.84756 244.60344 674.79648 244.70564 674.69428 C 244.80783 674.59208 244.85903 674.47081 244.85903 674.33029 L 244.85903 668.96483 C 244.85903 667.95563 244.69931 667.1381 244.37995 666.51213 C 244.06058 665.88617 243.63263 665.42621 243.0961 665.13239 C 242.57233 664.83857 241.98467 664.69176 241.33316 664.69176 C 240.74552 664.69176 240.18358 664.84501 239.64704 665.15161 C 239.1105 665.44543 238.6953 665.81588 238.40148 666.263 C 237.90646 665.19873 236.94373 664.67396 235.51359 664.68863 z M 200.00627 664.69176 C 198.89487 664.69176 197.93683 664.85144 197.13202 665.17082 C 196.32721 665.49018 195.69472 665.96925 195.23484 666.60798 C 194.77494 667.23395 194.51308 668.01951 194.44921 668.96483 C 194.43641 669.24588 194.43007 669.54615 194.43007 669.86551 C 194.43007 670.17211 194.43641 670.47237 194.44921 670.76619 C 194.51308 671.69875 194.75584 672.4843 195.1774 673.12304 C 195.61174 673.76178 196.23149 674.24084 197.0363 674.56021 C 197.84111 674.87958 198.831 675.03926 200.00627 675.03926 C 201.18154 675.03926 202.17167 674.87958 202.97648 674.56021 C 203.78129 674.24084 204.39442 673.76178 204.81599 673.12304 C 205.25034 672.4843 205.49946 671.69875 205.56333 670.76619 C 205.58886 670.47237 205.60162 670.17211 205.60162 669.86551 C 205.60162 669.54615 205.58886 669.24588 205.56333 668.96483 C 205.49946 668.01951 205.2376 667.23395 204.7777 666.60798 C 204.31782 665.96925 203.68533 665.49018 202.88052 665.17082 C 202.07571 664.85144 201.11767 664.69176 200.00627 664.69176 z M 206.99818 664.88326 C 206.85766 664.88326 206.7364 664.93455 206.6342 665.03675 C 206.532 665.13895 206.48081 665.26022 206.48081 665.40074 L 206.48081 674.33029 C 206.48081 674.47081 206.532 674.59208 206.6342 674.69428 C 206.7364 674.79648 206.85766 674.84756 206.99818 674.84756 L 210.63891 674.84756 C 210.77943 674.84756 210.90093 674.79648 211.00313 674.69428 C 211.10533 674.59208 211.15628 674.47081 211.15628 674.33029 L 211.15628 670.05722 C 211.15628 669.67398 211.25207 669.38637 211.44369 669.19475 C 211.63531 669.00313 211.92289 668.9074 212.30613 668.9074 L 214.77787 668.9074 C 214.9184 668.9074 215.0399 668.85632 215.14209 668.75412 C 215.24429 668.65192 215.29548 668.53065 215.29548 668.39013 L 215.29548 665.40074 C 215.29548 665.26022 215.24429 665.13895 215.14209 665.03675 C 215.0399 664.93455 214.9184 664.88326 214.77787 664.88326 L 213.85824 664.88326 C 213.28338 664.88326 212.7403 664.99186 212.22931 665.20903 C 211.7311 665.42621 211.27768 665.71381 210.86888 666.0715 L 210.86888 665.40074 C 210.86888 665.26022 210.81792 665.13895 210.71573 665.03675 C 210.61353 664.93455 210.49203 664.88326 210.35151 664.88326 L 206.99818 664.88326 z M 216.55899 664.88326 C 216.41847 664.88326 216.29698 664.93455 216.19478 665.03675 C 216.09258 665.13895 216.04162 665.26022 216.04162 665.40074 L 216.04162 670.68955 C 216.04162 671.69876 216.21408 672.52274 216.55899 673.16147 C 216.91669 673.80021 217.37648 674.27283 217.93857 674.57942 C 218.51343 674.88601 219.1202 675.03926 219.75893 675.03926 C 220.43599 675.03926 221.05574 674.9371 221.61783 674.7327 C 222.17991 674.51553 222.6206 674.17062 222.93997 673.69795 L 222.93997 674.33029 C 222.93997 674.47081 222.99092 674.59208 223.09312 674.69428 C 223.19531 674.79648 223.31681 674.84756 223.45734 674.84756 L 226.81067 674.84756 C 226.95119 674.84756 227.07245 674.79648 227.17465 674.69428 C 227.27684 674.59208 227.32804 674.47081 227.32804 674.33029 L 227.32804 665.40074 C 227.32804 665.26022 227.27684 665.13895 227.17465 665.03675 C 227.07245 664.93455 226.95119 664.88326 226.81067 664.88326 L 223.16994 664.88326 C 223.02941 664.88326 222.90791 664.93455 222.80572 665.03675 C 222.70352 665.13895 222.65257 665.26022 222.65257 665.40074 L 222.65257 670.55528 C 222.65257 670.90019 222.56953 671.16205 222.40345 671.34089 C 222.23738 671.51974 222.001 671.60924 221.6944 671.60924 C 221.05567 671.60924 220.73624 671.25788 220.73624 670.55528 L 220.73624 665.40074 C 220.73624 665.26022 220.68505 665.13895 220.58285 665.03675 C 220.48066 664.93455 220.3594 664.88326 220.21887 664.88326 L 216.55899 664.88326 z M 200.00627 667.75759 C 200.37674 667.75759 200.60675 667.87263 200.69618 668.10257 C 200.78561 668.31974 200.84318 668.63912 200.86871 669.06068 C 200.88151 669.2523 200.88786 669.52059 200.88786 669.86551 C 200.88786 670.21043 200.88151 670.47872 200.86871 670.67034 C 200.84317 671.11745 200.7856 671.44949 200.69618 671.66667 C 200.60675 671.87106 200.37674 671.97344 200.00627 671.97344 C 199.64858 671.97344 199.41856 671.87106 199.31636 671.66667 C 199.22693 671.44949 199.1696 671.11745 199.14407 670.67034 C 199.13127 670.47872 199.12492 670.21043 199.12492 669.86551 C 199.12492 669.52059 199.13127 669.2523 199.14407 669.06068 C 199.16961 668.63912 199.22694 668.31974 199.31636 668.10257 C 199.41856 667.87263 199.64858 667.75759 200.00627 667.75759 z " /></g><rect
       style="fill:url(#linearGradient7511);fill-opacity:1;stroke-width:4.14696"
       id="rect7497"
       width="66.145836"
       height="66.145836"
       x="220.1774"
       y="659.64471"
       rx="13.229167"
       ry="13.229167"
       inkscape:export-filename="../../../../Desktop/rect15941.png"
       inkscape:export-xdpi="191.99998"
       inkscape:export-ydpi="191.99998" /><path
       d="m 278.57521,682.83648 v 12.56803 c 0,0.80047 -0.0401,1.60096 -0.12012,2.36153 -0.72045,8.48538 -5.72363,12.72814 -14.92956,12.72814 h -1.24079 c -0.80048,0 -1.56099,0.36019 -2.00125,1.00065 l -3.76246,5.04316 c -1.68105,2.24145 -4.36273,2.24145 -6.04387,0 l -3.76237,-5.04316 c -0.40025,-0.52036 -1.32077,-1.00065 -2.00125,-1.00065 h -1.2408 c -10.0464,0 -15.04962,-2.48163 -15.04962,-15.04978 v -12.56792 c 0,-9.20584 4.24263,-14.20899 12.72806,-14.92937 0.76048,-0.0801 1.561,-0.12018 2.3615,-0.12018 h 20.13291 c 9.88633,-0.0401 14.92957,5.00324 14.92957,15.00955 z"
       fill="#292d32"
       id="path7499"
       style="fill:#fefeff;fill-opacity:0.5;stroke-width:4.00254" /><g
       style="fill:#c2d3d6;fill-opacity:1"
       id="g7509"
       transform="matrix(0.03190323,0,0,0.03190323,239.4115,674.11273)"><g
         id="g7507"
         style="fill:#c2d3d6;fill-opacity:1">
	<g
   id="g7505"
   style="fill:#c2d3d6;fill-opacity:1"
   transform="translate(-15.400024,-34.743674)">
		
		<path
   d="m 900.40846,846.60929 h -35.71137 v -38.92021 c 0,-17.18286 -13.87049,-31.05336 -31.05336,-31.05336 H 792.6533 V 329.05333 H 674.02845 V 776.63572 H 521.76452 V 329.05333 H 411.21457 V 776.63572 H 258.94961 V 329.05333 H 140.32578 V 776.63572 H 99.335348 c -17.182858,0 -31.053357,13.8705 -31.053357,31.05336 v 38.92021 H 32.57063 c -17.182858,0 -31.0533566,13.8705 -31.0533566,31.05336 v 42.23256 c 0,17.18286 13.8704986,31.05336 31.0533566,31.05336 h 867.83783 c 17.18285,0 31.05335,-13.8705 31.05335,-31.05336 v -42.23256 c 0,-17.18286 -13.8705,-31.05336 -31.05335,-31.05336 z"
   id="path7501"
   style="fill:#ffffff;fill-opacity:1;stroke-width:1.03511" />
	<path
   d="m 11.338589,259.94053 h 36.359822 v 40.93202 c 0,18.07104 14.587474,32.65851 32.658524,32.65851 H 466.48954 852.62215 c 18.07104,0 32.65852,-14.58747 32.65852,-32.65851 v -40.93202 h 36.35983 c 18.07105,0 32.65852,-14.58747 32.65852,-32.65853 v -52.79796 c 0,-14.36974 -9.47206,-27.10657 -23.18864,-31.24332 L 480.64047,7.3813072 c -4.5711,-1.415203 -9.36101,-2.068374 -14.15093,-2.068374 -4.78883,0 -9.47098,0.653171 -14.15203,2.068374 L 1.8676174,143.24072 C -11.957825,147.37747 -21.319934,160.1143 -21.319934,174.48404 V 227.282 c 0,17.96219 14.5874741,32.65853 32.658523,32.65853 z"
   id="path7503"
   style="fill:#ffffff;fill-opacity:1;stroke-width:1.08862" /></g>
</g></g><path
       d="m 305.77913,755.23374 v 16.497 c 0,1.0507 -0.0526,2.10142 -0.15769,3.09977 -0.94567,11.13803 -7.51292,16.70713 -19.59676,16.70713 h -1.62867 c -1.05072,0 -2.04898,0.47279 -2.62688,1.31348 l -4.93866,6.61974 c -2.20656,2.94214 -5.72658,2.94214 -7.93325,0 l -4.93855,-6.61974 c -0.52538,-0.68304 -1.73366,-1.31348 -2.62687,-1.31348 h -1.6287 c -13.18704,0 -19.75435,-3.25742 -19.75435,-19.75456 v -16.49682 c 0,-12.08372 5.56893,-18.65092 16.70705,-19.59652 0.99822,-0.10515 2.04898,-0.15773 3.09974,-0.15773 h 26.42674 c 12.97695,-0.0526 19.59678,6.56731 19.59678,19.70173 z"
       fill="#292d32"
       id="path13568"
       style="fill:url(#linearGradient13586);fill-opacity:1.0;stroke-width:5.25378" /><g
       style="fill:#c2d3d6;fill-opacity:1"
       id="g13578"
       transform="matrix(0.04187664,0,0,0.04187664,254.37225,743.78283)"><g
         id="g13576"
         style="fill:#c2d3d6;fill-opacity:1">
	<g
   id="g13574"
   style="fill:#c2d3d6;fill-opacity:1"
   transform="translate(-15.400024,-34.743674)">
		
		<path
   d="m 900.40846,846.60929 h -35.71137 v -38.92021 c 0,-17.18286 -13.87049,-31.05336 -31.05336,-31.05336 H 792.6533 V 329.05333 H 674.02845 V 776.63572 H 521.76452 V 329.05333 H 411.21457 V 776.63572 H 258.94961 V 329.05333 H 140.32578 V 776.63572 H 99.335348 c -17.182858,0 -31.053357,13.8705 -31.053357,31.05336 v 38.92021 H 32.57063 c -17.182858,0 -31.0533566,13.8705 -31.0533566,31.05336 v 42.23256 c 0,17.18286 13.8704986,31.05336 31.0533566,31.05336 h 867.83783 c 17.18285,0 31.05335,-13.8705 31.05335,-31.05336 v -42.23256 c 0,-17.18286 -13.8705,-31.05336 -31.05335,-31.05336 z"
   id="path13570"
   style="fill:#ffffff;fill-opacity:1;stroke-width:1.03511" />
	<path
   d="m 11.338589,259.94053 h 36.359822 v 40.93202 c 0,18.07104 14.587474,32.65851 32.658524,32.65851 H 466.48954 852.62215 c 18.07104,0 32.65852,-14.58747 32.65852,-32.65851 v -40.93202 h 36.35983 c 18.07105,0 32.65852,-14.58747 32.65852,-32.65853 v -52.79796 c 0,-14.36974 -9.47206,-27.10657 -23.18864,-31.24332 L 480.64047,7.3813072 c -4.5711,-1.415203 -9.36101,-2.068374 -14.15093,-2.068374 -4.78883,0 -9.47098,0.653171 -14.15203,2.068374 L 1.8676174,143.24072 C -11.957825,147.37747 -21.319934,160.1143 -21.319934,174.48404 V 227.282 c 0,17.96219 14.5874741,32.65853 32.658523,32.65853 z"
   id="path13572"
   style="fill:#ffffff;fill-opacity:0.990395;stroke-width:1.08862" /></g>
</g></g><path
       d="m 297.9575,831.06335 v 12.56803 c 0,0.80047 -0.0401,1.60096 -0.12012,2.36153 -0.72045,8.48538 -5.72363,12.72814 -14.92956,12.72814 h -1.24079 c -0.80048,0 -1.56099,0.36019 -2.00125,1.00065 l -3.76246,5.04316 c -1.68105,2.24145 -4.36273,2.24145 -6.04387,0 l -3.76237,-5.04316 c -0.40025,-0.52036 -1.32077,-1.00065 -2.00125,-1.00065 h -1.2408 c -10.0464,0 -15.04962,-2.48163 -15.04962,-15.04978 v -12.56792 c 0,-9.20584 4.24263,-14.20899 12.72806,-14.92937 0.76048,-0.0801 1.561,-0.12018 2.3615,-0.12018 h 20.13291 c 9.88633,-0.0401 14.92957,5.00324 14.92957,15.00955 z"
       fill="#292d32"
       id="path15130"
       style="fill:#fefeff;fill-opacity:0.5;stroke-width:4.00254" /><g
       style="fill:#c2d3d6;fill-opacity:1"
       id="g15140"
       transform="matrix(0.03190323,0,0,0.03190323,258.79379,822.3396)"><g
         id="g15138"
         style="fill:#c2d3d6;fill-opacity:1">
	<g
   id="g15136"
   style="fill:#c2d3d6;fill-opacity:1"
   transform="translate(-15.400024,-34.743674)">
		
		<path
   d="m 900.40846,846.60929 h -35.71137 v -38.92021 c 0,-17.18286 -13.87049,-31.05336 -31.05336,-31.05336 H 792.6533 V 329.05333 H 674.02845 V 776.63572 H 521.76452 V 329.05333 H 411.21457 V 776.63572 H 258.94961 V 329.05333 H 140.32578 V 776.63572 H 99.335348 c -17.182858,0 -31.053357,13.8705 -31.053357,31.05336 v 38.92021 H 32.57063 c -17.182858,0 -31.0533566,13.8705 -31.0533566,31.05336 v 42.23256 c 0,17.18286 13.8704986,31.05336 31.0533566,31.05336 h 867.83783 c 17.18285,0 31.05335,-13.8705 31.05335,-31.05336 v -42.23256 c 0,-17.18286 -13.8705,-31.05336 -31.05335,-31.05336 z"
   id="path15132"
   style="fill:#ffffff;fill-opacity:1;stroke-width:1.03511" />
	<path
   d="m 11.338589,259.94053 h 36.359822 v 40.93202 c 0,18.07104 14.587474,32.65851 32.658524,32.65851 H 466.48954 852.62215 c 18.07104,0 32.65852,-14.58747 32.65852,-32.65851 v -40.93202 h 36.35983 c 18.07105,0 32.65852,-14.58747 32.65852,-32.65853 v -52.79796 c 0,-14.36974 -9.47206,-27.10657 -23.18864,-31.24332 L 480.64047,7.3813072 c -4.5711,-1.415203 -9.36101,-2.068374 -14.15093,-2.068374 -4.78883,0 -9.47098,0.653171 -14.15203,2.068374 L 1.8676174,143.24072 C -11.957825,147.37747 -21.319934,160.1143 -21.319934,174.48404 V 227.282 c 0,17.96219 14.5874741,32.65853 32.658523,32.65853 z"
   id="path15134"
   style="fill:#ffffff;fill-opacity:1;stroke-width:1.08862" /></g>
</g></g></g><style
     type="text/css"
     id="style1941">
	.st0{fill:none;stroke:#000000;stroke-width:2;stroke-linecap:round;stroke-linejoin:round;stroke-miterlimit:10;}
</style><style
     type="text/css"
     id="style1941-0">
	.st0{fill:none;stroke:#000000;stroke-width:2;stroke-linecap:round;stroke-linejoin:round;stroke-miterlimit:10;}
</style><style
     type="text/css"
     id="style1941-7">
	.st0{fill:none;stroke:#000000;stroke-width:2;stroke-linecap:round;stroke-linejoin:round;stroke-miterlimit:10;}
</style><style
     type="text/css"
     id="style22485">
	.st0{fill:none;stroke:#6C3DB7;stroke-width:4;stroke-linecap:round;stroke-linejoin:round;stroke-miterlimit:10;}
	.st1{fill:none;stroke:#1F992A;stroke-width:4;stroke-linecap:round;stroke-linejoin:round;stroke-miterlimit:10;}
	.st2{fill:none;stroke:#6A83BA;stroke-width:4;stroke-linecap:round;stroke-linejoin:round;stroke-miterlimit:10;}
	.st3{fill:#8A8AFF;stroke:#8A8AFF;stroke-width:2;stroke-linecap:round;stroke-linejoin:round;stroke-miterlimit:10;}
	.st4{fill:#6C3DB7;stroke:#6C3DB7;stroke-width:2;stroke-linecap:round;stroke-linejoin:round;stroke-miterlimit:10;}
	.st5{fill:#A576FF;stroke:#A576FF;stroke-width:2;stroke-linecap:round;stroke-linejoin:round;stroke-miterlimit:10;}
	.st6{fill:#F2BB41;stroke:#F2BB41;stroke-width:2;stroke-linecap:round;stroke-linejoin:round;stroke-miterlimit:10;}
	.st7{fill:#E08838;stroke:#E08838;stroke-width:2;stroke-linecap:round;stroke-linejoin:round;stroke-miterlimit:10;}
	.st8{fill:#1F992A;stroke:#1F992A;stroke-width:2;stroke-linecap:round;stroke-linejoin:round;stroke-miterlimit:10;}
	.st9{fill:#5EC11E;stroke:#5EC11E;stroke-width:2;stroke-linecap:round;stroke-linejoin:round;stroke-miterlimit:10;}
	.st10{fill:#E3FAFF;stroke:#E3FAFF;stroke-width:2;stroke-linecap:round;stroke-linejoin:round;stroke-miterlimit:10;}
	.st11{fill:#FF5093;stroke:#FF5093;stroke-width:2;stroke-linecap:round;stroke-linejoin:round;stroke-miterlimit:10;}
	.st12{fill:#B7257F;stroke:#B7257F;stroke-width:2;stroke-linecap:round;stroke-linejoin:round;stroke-miterlimit:10;}
	.st13{fill:#5189E5;stroke:#5189E5;stroke-width:2;stroke-linecap:round;stroke-linejoin:round;stroke-miterlimit:10;}
	.st14{fill:#6EBAFF;stroke:#6EBAFF;stroke-width:2;stroke-linecap:round;stroke-linejoin:round;stroke-miterlimit:10;}
	.st15{fill:#EDD977;stroke:#EDD977;stroke-width:2;stroke-linecap:round;stroke-linejoin:round;stroke-miterlimit:10;}
	.st16{fill:#8C43FF;stroke:#8C43FF;stroke-width:2;stroke-linecap:round;stroke-linejoin:round;stroke-miterlimit:10;}
	.st17{fill:#5252BA;stroke:#5252BA;stroke-width:2;stroke-linecap:round;stroke-linejoin:round;stroke-miterlimit:10;}
	.st18{fill:none;stroke:#E3FAFF;stroke-width:4;stroke-linecap:round;stroke-linejoin:round;stroke-miterlimit:10;}
	.st19{fill:#354C75;stroke:#354C75;stroke-width:2;stroke-linecap:round;stroke-linejoin:round;stroke-miterlimit:10;}
</style><style
     type="text/css"
     id="style23106">
	.st0{fill:none;stroke:#000000;stroke-width:2;stroke-linecap:round;stroke-linejoin:round;stroke-miterlimit:10;}
	.st1{fill:none;stroke:#000000;stroke-width:2;stroke-linejoin:round;stroke-miterlimit:10;}
</style></svg>
