<?xml version="1.0" encoding="UTF-8" standalone="no"?>
<!-- Created with Inkscape (http://www.inkscape.org/) -->

<svg
   width="249.99997"
   height="250.00005"
   viewBox="0 0 66.145826 66.145845"
   version="1.1"
   id="svg5"
   xml:space="preserve"
   xmlns:xlink="http://www.w3.org/1999/xlink"
   xmlns="http://www.w3.org/2000/svg"
   xmlns:svg="http://www.w3.org/2000/svg"><defs
     id="defs2"><linearGradient
       id="dorkodu"><stop
         style="stop-color:#006644;stop-opacity:1;"
         offset="0.0001"
         id="stop15052" /><stop
         style="stop-color:#36e236;stop-opacity:1;"
         offset="0.99989998"
         id="stop15054" /></linearGradient><style
       id="style6568">.cls-1{fill:none;}.cls-2{clip-path:url(#clip-path);}</style><style
       id="style6568-5">.cls-1{fill:none;}.cls-2{clip-path:url(#clip-path);}</style><style
       id="style6568-9">.cls-1{fill:none;}.cls-2{clip-path:url(#clip-path);}</style><style
       id="style22571">.cls-1{fill:#84d0f7;}.cls-2{fill:#aa392d;}.cls-3{fill:#7c211a;}.cls-4{fill:#e59973;}.cls-5{fill:#2d2d2d;}.cls-6{opacity:0.2;}.cls-7{opacity:0.3;}</style><style
       id="style23309">
      .cls-1 {
        fill: none;
      }
    </style><style
       id="style6568-7">.cls-1{fill:none;}.cls-2{clip-path:url(#clip-path);}</style><style
       id="style6568-5-5">.cls-1{fill:none;}.cls-2{clip-path:url(#clip-path);}</style><style
       id="style6568-9-3">.cls-1{fill:none;}.cls-2{clip-path:url(#clip-path);}</style><style
       id="style22571-5">.cls-1{fill:#84d0f7;}.cls-2{fill:#aa392d;}.cls-3{fill:#7c211a;}.cls-4{fill:#e59973;}.cls-5{fill:#2d2d2d;}.cls-6{opacity:0.2;}.cls-7{opacity:0.3;}</style><style
       id="style23309-6">
      .cls-1 {
        fill: none;
      }
    </style><linearGradient
       xlink:href="#dorkodu"
       id="linearGradient54667"
       x1="33.652584"
       y1="-2.6965868"
       x2="35.24931"
       y2="-2.6965868"
       gradientUnits="userSpaceOnUse"
       gradientTransform="matrix(1.2816035,0,0,1.2816035,-9.4946994,1.085548)" /><linearGradient
       xlink:href="#dorkodu"
       id="linearGradient54675"
       x1="34.056126"
       y1="-3.2207918"
       x2="35.648861"
       y2="-3.2207918"
       gradientUnits="userSpaceOnUse"
       gradientTransform="matrix(1.2816035,0,0,1.2816035,-9.4946994,1.085548)" /><linearGradient
       xlink:href="#dorkodu"
       id="linearGradient59840"
       x1="34.151718"
       y1="-3.042233"
       x2="36.193005"
       y2="-3.042233"
       gradientUnits="userSpaceOnUse" /><linearGradient
       xlink:href="#dorkodu"
       id="linearGradient92338"
       gradientUnits="userSpaceOnUse"
       gradientTransform="matrix(1.2816035,0,0,1.2816035,-9.4946994,1.085548)"
       x1="33.652584"
       y1="-2.6965868"
       x2="35.24931"
       y2="-2.6965868" /></defs><g
     id="layer1"
     transform="translate(-239.74419,-735.53162)"><g
       style="font-weight:900;font-size:19.1621px;font-family:Rubik;-inkscape-font-specification:'Rubik Heavy';letter-spacing:-0.538838px;fill:none;fill-opacity:1;stroke-width:38.7921"
       id="g37786"
       transform="matrix(25.733351,0,0,25.733352,-625.65471,836.2221)"><path
         opacity="0.4"
         d="m 35.680884,-2.7835541 v 0.5122331 c 0,0.033295 -0.0013,0.065311 -0.0051,0.096043 -0.02946,0.3457577 -0.233065,0.5173559 -0.608278,0.5173559 h -0.05124 c -0.03202,0 -0.06274,0.015367 -0.08196,0.040977 l -0.153613,0.2048946 c -0.06787,0.090921 -0.178003,0.090921 -0.245872,0 l -0.15362,-0.2048925 c -0.01666,-0.021769 -0.05378,-0.040978 -0.08195,-0.040978 h -0.05124 c -0.408506,0 -0.613399,-0.1011656 -0.613399,-0.6133994 v -0.5122333 c 0,-0.3752097 0.172878,-0.5788224 0.517356,-0.6082759 0.03073,-0.00384 0.06274,-0.00512 0.09605,-0.00512 h 0.819573 c 0.408505,0 0.613399,0.2048946 0.613399,0.6133994 z"
         fill="#292d32"
         id="path37776"
         style="opacity:1;fill:url(#linearGradient92338);fill-opacity:1;stroke-width:0;stroke-dasharray:none" /><path
         d="m 36.193003,-3.2957862 v 0.5122321 c 0,0.3764913 -0.17288,0.5788235 -0.517357,0.6082769 0.0038,-0.030735 0.0051,-0.06275 0.0051,-0.096043 v -0.5122339 c 0,-0.4085049 -0.204893,-0.6133996 -0.6134,-0.6133996 h -0.819578 c -0.03329,0 -0.06531,0.00129 -0.09605,0.00512 0.02947,-0.3444751 0.233066,-0.5173552 0.608283,-0.5173552 h 0.819574 c 0.408505,0 0.613398,0.2048946 0.613398,0.6134006 z"
         fill="#292d32"
         id="path37784"
         style="fill:url(#linearGradient54675);fill-opacity:1;stroke-width:0;stroke-dasharray:none" /></g><path
       id="path40787-7"
       style="font-weight:900;font-size:19.1621px;font-family:Rubik;-inkscape-font-specification:'Rubik Heavy';letter-spacing:-0.538838px;fill:#ffffff;fill-opacity:1;stroke-width:130.927"
       d="m 276.81692,758.72802 c -2.08071,0.4471 -2.90791,2.6247 -4.16685,4.08354 -3.1669,4.27902 -6.3338,8.55807 -9.50076,12.83709 -2.36821,-1.68442 -4.60428,-3.57549 -7.07838,-5.09577 -2.24541,-0.9789 -5.13645,0.78753 -5.18387,3.26606 -0.15516,1.76726 1.13669,3.25057 2.58609,4.07041 3.00173,2.16221 5.89065,4.50036 8.98208,6.52599 1.84743,0.83922 4.10002,-0.15322 5.01768,-1.89494 4.50616,-6.11666 9.08365,-12.18565 13.52168,-18.34798 1.30894,-2.23276 -0.43824,-5.47307 -3.05253,-5.52839 -0.37715,-0.0273 -0.75552,0.006 -1.12515,0.0841 z" /><g
       style="font-weight:900;font-size:19.1621px;font-family:Rubik;-inkscape-font-specification:'Rubik Heavy';letter-spacing:-0.538838px;fill:none;fill-opacity:1;stroke-width:38.7921"
       id="g58362"
       transform="matrix(25.733351,0,0,25.733352,-625.65471,836.2221)"><path
         opacity="0.4"
         d="m 35.680884,-2.7835541 v 0.5122331 c 0,0.033295 -0.0013,0.065311 -0.0051,0.096043 -0.02946,0.3457577 -0.233065,0.5173559 -0.608278,0.5173559 h -0.05124 c -0.03202,0 -0.06274,0.015367 -0.08196,0.040977 l -0.153613,0.2048946 c -0.06787,0.090921 -0.178003,0.090921 -0.245872,0 l -0.15362,-0.2048925 c -0.01666,-0.021769 -0.05378,-0.040978 -0.08195,-0.040978 h -0.05124 c -0.408506,0 -0.613399,-0.1011656 -0.613399,-0.6133994 v -0.5122333 c 0,-0.3752097 0.172878,-0.5788224 0.517356,-0.6082759 0.03073,-0.00384 0.06274,-0.00512 0.09605,-0.00512 h 0.819573 c 0.408505,0 0.613399,0.2048946 0.613399,0.6133994 z"
         fill="#292d32"
         id="path58358"
         style="opacity:1;fill:url(#linearGradient54667);fill-opacity:1;stroke-width:0;stroke-dasharray:none" /><path
         d="m 36.193003,-3.2957862 v 0.5122321 c 0,0.3764913 -0.17288,0.5788235 -0.517357,0.6082769 0.0038,-0.030735 0.0051,-0.06275 0.0051,-0.096043 v -0.5122339 c 0,-0.4085049 -0.204893,-0.6133996 -0.6134,-0.6133996 h -0.819578 c -0.03329,0 -0.06531,0.00129 -0.09605,0.00512 0.02947,-0.3444751 0.233066,-0.5173552 0.608283,-0.5173552 h 0.819574 c 0.408505,0 0.613398,0.2048946 0.613398,0.6134006 z"
         fill="#292d32"
         id="path58360"
         style="opacity:1;fill:url(#linearGradient59840);fill-opacity:1;stroke-width:0;stroke-dasharray:none" /></g><path
       id="path58364"
       style="font-weight:900;font-size:19.1621px;font-family:Rubik;-inkscape-font-specification:'Rubik Heavy';letter-spacing:-0.538838px;fill:#ffffff;fill-opacity:1;stroke-width:130.927"
       d="m 276.81692,758.72802 c -2.08071,0.4471 -2.90791,2.6247 -4.16685,4.08354 -3.1669,4.27902 -6.3338,8.55807 -9.50076,12.83709 -2.36821,-1.68442 -4.60428,-3.57549 -7.07838,-5.09577 -2.24541,-0.9789 -5.13645,0.78753 -5.18387,3.26606 -0.15516,1.76726 1.13669,3.25057 2.58609,4.07041 3.00173,2.16221 5.89065,4.50036 8.98208,6.52599 1.84743,0.83922 4.10002,-0.15322 5.01768,-1.89494 4.50616,-6.11666 9.08365,-12.18565 13.52168,-18.34798 1.30894,-2.23276 -0.43824,-5.47307 -3.05253,-5.52839 -0.37715,-0.0273 -0.75552,0.006 -1.12515,0.0841 z" /></g><style
     type="text/css"
     id="style1941">
	.st0{fill:none;stroke:#000000;stroke-width:2;stroke-linecap:round;stroke-linejoin:round;stroke-miterlimit:10;}
</style><style
     type="text/css"
     id="style1941-0">
	.st0{fill:none;stroke:#000000;stroke-width:2;stroke-linecap:round;stroke-linejoin:round;stroke-miterlimit:10;}
</style><style
     type="text/css"
     id="style1941-7">
	.st0{fill:none;stroke:#000000;stroke-width:2;stroke-linecap:round;stroke-linejoin:round;stroke-miterlimit:10;}
</style><style
     type="text/css"
     id="style22485">
	.st0{fill:none;stroke:#6C3DB7;stroke-width:4;stroke-linecap:round;stroke-linejoin:round;stroke-miterlimit:10;}
	.st1{fill:none;stroke:#1F992A;stroke-width:4;stroke-linecap:round;stroke-linejoin:round;stroke-miterlimit:10;}
	.st2{fill:none;stroke:#6A83BA;stroke-width:4;stroke-linecap:round;stroke-linejoin:round;stroke-miterlimit:10;}
	.st3{fill:#8A8AFF;stroke:#8A8AFF;stroke-width:2;stroke-linecap:round;stroke-linejoin:round;stroke-miterlimit:10;}
	.st4{fill:#6C3DB7;stroke:#6C3DB7;stroke-width:2;stroke-linecap:round;stroke-linejoin:round;stroke-miterlimit:10;}
	.st5{fill:#A576FF;stroke:#A576FF;stroke-width:2;stroke-linecap:round;stroke-linejoin:round;stroke-miterlimit:10;}
	.st6{fill:#F2BB41;stroke:#F2BB41;stroke-width:2;stroke-linecap:round;stroke-linejoin:round;stroke-miterlimit:10;}
	.st7{fill:#E08838;stroke:#E08838;stroke-width:2;stroke-linecap:round;stroke-linejoin:round;stroke-miterlimit:10;}
	.st8{fill:#1F992A;stroke:#1F992A;stroke-width:2;stroke-linecap:round;stroke-linejoin:round;stroke-miterlimit:10;}
	.st9{fill:#5EC11E;stroke:#5EC11E;stroke-width:2;stroke-linecap:round;stroke-linejoin:round;stroke-miterlimit:10;}
	.st10{fill:#E3FAFF;stroke:#E3FAFF;stroke-width:2;stroke-linecap:round;stroke-linejoin:round;stroke-miterlimit:10;}
	.st11{fill:#FF5093;stroke:#FF5093;stroke-width:2;stroke-linecap:round;stroke-linejoin:round;stroke-miterlimit:10;}
	.st12{fill:#B7257F;stroke:#B7257F;stroke-width:2;stroke-linecap:round;stroke-linejoin:round;stroke-miterlimit:10;}
	.st13{fill:#5189E5;stroke:#5189E5;stroke-width:2;stroke-linecap:round;stroke-linejoin:round;stroke-miterlimit:10;}
	.st14{fill:#6EBAFF;stroke:#6EBAFF;stroke-width:2;stroke-linecap:round;stroke-linejoin:round;stroke-miterlimit:10;}
	.st15{fill:#EDD977;stroke:#EDD977;stroke-width:2;stroke-linecap:round;stroke-linejoin:round;stroke-miterlimit:10;}
	.st16{fill:#8C43FF;stroke:#8C43FF;stroke-width:2;stroke-linecap:round;stroke-linejoin:round;stroke-miterlimit:10;}
	.st17{fill:#5252BA;stroke:#5252BA;stroke-width:2;stroke-linecap:round;stroke-linejoin:round;stroke-miterlimit:10;}
	.st18{fill:none;stroke:#E3FAFF;stroke-width:4;stroke-linecap:round;stroke-linejoin:round;stroke-miterlimit:10;}
	.st19{fill:#354C75;stroke:#354C75;stroke-width:2;stroke-linecap:round;stroke-linejoin:round;stroke-miterlimit:10;}
</style><style
     type="text/css"
     id="style23106">
	.st0{fill:none;stroke:#000000;stroke-width:2;stroke-linecap:round;stroke-linejoin:round;stroke-miterlimit:10;}
	.st1{fill:none;stroke:#000000;stroke-width:2;stroke-linejoin:round;stroke-miterlimit:10;}
</style><style
     type="text/css"
     id="style1941-1">
	.st0{fill:none;stroke:#000000;stroke-width:2;stroke-linecap:round;stroke-linejoin:round;stroke-miterlimit:10;}
</style><style
     type="text/css"
     id="style1941-0-8">
	.st0{fill:none;stroke:#000000;stroke-width:2;stroke-linecap:round;stroke-linejoin:round;stroke-miterlimit:10;}
</style><style
     type="text/css"
     id="style1941-7-7">
	.st0{fill:none;stroke:#000000;stroke-width:2;stroke-linecap:round;stroke-linejoin:round;stroke-miterlimit:10;}
</style><style
     type="text/css"
     id="style22485-9">
	.st0{fill:none;stroke:#6C3DB7;stroke-width:4;stroke-linecap:round;stroke-linejoin:round;stroke-miterlimit:10;}
	.st1{fill:none;stroke:#1F992A;stroke-width:4;stroke-linecap:round;stroke-linejoin:round;stroke-miterlimit:10;}
	.st2{fill:none;stroke:#6A83BA;stroke-width:4;stroke-linecap:round;stroke-linejoin:round;stroke-miterlimit:10;}
	.st3{fill:#8A8AFF;stroke:#8A8AFF;stroke-width:2;stroke-linecap:round;stroke-linejoin:round;stroke-miterlimit:10;}
	.st4{fill:#6C3DB7;stroke:#6C3DB7;stroke-width:2;stroke-linecap:round;stroke-linejoin:round;stroke-miterlimit:10;}
	.st5{fill:#A576FF;stroke:#A576FF;stroke-width:2;stroke-linecap:round;stroke-linejoin:round;stroke-miterlimit:10;}
	.st6{fill:#F2BB41;stroke:#F2BB41;stroke-width:2;stroke-linecap:round;stroke-linejoin:round;stroke-miterlimit:10;}
	.st7{fill:#E08838;stroke:#E08838;stroke-width:2;stroke-linecap:round;stroke-linejoin:round;stroke-miterlimit:10;}
	.st8{fill:#1F992A;stroke:#1F992A;stroke-width:2;stroke-linecap:round;stroke-linejoin:round;stroke-miterlimit:10;}
	.st9{fill:#5EC11E;stroke:#5EC11E;stroke-width:2;stroke-linecap:round;stroke-linejoin:round;stroke-miterlimit:10;}
	.st10{fill:#E3FAFF;stroke:#E3FAFF;stroke-width:2;stroke-linecap:round;stroke-linejoin:round;stroke-miterlimit:10;}
	.st11{fill:#FF5093;stroke:#FF5093;stroke-width:2;stroke-linecap:round;stroke-linejoin:round;stroke-miterlimit:10;}
	.st12{fill:#B7257F;stroke:#B7257F;stroke-width:2;stroke-linecap:round;stroke-linejoin:round;stroke-miterlimit:10;}
	.st13{fill:#5189E5;stroke:#5189E5;stroke-width:2;stroke-linecap:round;stroke-linejoin:round;stroke-miterlimit:10;}
	.st14{fill:#6EBAFF;stroke:#6EBAFF;stroke-width:2;stroke-linecap:round;stroke-linejoin:round;stroke-miterlimit:10;}
	.st15{fill:#EDD977;stroke:#EDD977;stroke-width:2;stroke-linecap:round;stroke-linejoin:round;stroke-miterlimit:10;}
	.st16{fill:#8C43FF;stroke:#8C43FF;stroke-width:2;stroke-linecap:round;stroke-linejoin:round;stroke-miterlimit:10;}
	.st17{fill:#5252BA;stroke:#5252BA;stroke-width:2;stroke-linecap:round;stroke-linejoin:round;stroke-miterlimit:10;}
	.st18{fill:none;stroke:#E3FAFF;stroke-width:4;stroke-linecap:round;stroke-linejoin:round;stroke-miterlimit:10;}
	.st19{fill:#354C75;stroke:#354C75;stroke-width:2;stroke-linecap:round;stroke-linejoin:round;stroke-miterlimit:10;}
</style><style
     type="text/css"
     id="style23106-2">
	.st0{fill:none;stroke:#000000;stroke-width:2;stroke-linecap:round;stroke-linejoin:round;stroke-miterlimit:10;}
	.st1{fill:none;stroke:#000000;stroke-width:2;stroke-linejoin:round;stroke-miterlimit:10;}
</style><style
     type="text/css"
     id="style4736">
<![CDATA[
	.st0{fill:#D1D1D1;}
	.st1{fill:#454545;}
]]>
</style></svg>
