<?xml version="1.0" encoding="UTF-8" standalone="no"?>
<!-- Created with Inkscape (http://www.inkscape.org/) -->

<svg
   width="276.84866"
   height="278.17523"
   viewBox="0 0 73.249542 73.60053"
   version="1.1"
   id="svg5"
   xml:space="preserve"
   xmlns="http://www.w3.org/2000/svg"
   xmlns:svg="http://www.w3.org/2000/svg"><defs
     id="defs2"><style
       id="style6568">.cls-1{fill:none;}.cls-2{clip-path:url(#clip-path);}</style></defs><g
     id="layer1"
     transform="translate(-218.52468,-557.61069)"><path
       d="m 291.77422,579.53327 v 18.35614 c 0,1.16918 -0.0584,2.33836 -0.17538,3.44906 -1.05227,12.39341 -8.35968,18.59009 -21.80532,18.59009 h -1.81226 c -1.16917,0 -2.2799,0.52612 -2.92295,1.4615 l -5.49519,7.36588 c -2.45528,3.27371 -6.37206,3.27371 -8.82736,0 l -5.49518,-7.36588 c -0.58459,-0.75998 -1.92908,-1.4615 -2.9229,-1.4615 h -1.81224 c -14.6733,0 -21.98076,-3.62447 -21.98076,-21.98074 v -18.35616 c 0,-13.4457 6.19662,-20.75297 18.59,-21.80522 1.11073,-0.11694 2.27992,-0.1754 3.4491,-0.1754 h 29.40512 c 14.43944,-0.0585 21.80532,7.30744 21.80532,21.92223 z"
       fill="#292d32"
       id="path30904"
       style="fill:#e1e9ea;fill-opacity:1;stroke-width:5.84589" /><g
       style="fill:#c2d3d6;fill-opacity:1"
       id="g6706"
       transform="matrix(0.04823235,0,0,0.04823235,233.84964,566.18743)"><g
         id="g6695"
         style="fill:#c2d3d6;fill-opacity:1">
	<g
   id="g6693"
   style="fill:#c2d3d6;fill-opacity:1"
   transform="translate(-15.400024,-34.743674)">
		
		<path
   d="M 885.4,831.6 H 850.9 V 794 c 0,-16.6 -13.4,-30 -30,-30 H 781.3 V 331.6 H 666.699 V 764 H 519.6 V 331.6 H 412.8 V 764 H 265.7 V 331.6 H 151.1 V 764 h -39.6 c -16.6,0 -30,13.4 -30,30 v 37.6 H 47 c -16.6,0 -30,13.4 -30,30 v 40.8 c 0,16.6 13.4,30 30,30 h 838.4 c 16.6,0 30,-13.4 30,-30 v -40.8 c 0,-16.6 -13.4,-30 -30,-30 z"
   id="path6691"
   style="fill:#a7b6be;fill-opacity:1" />
	<path
   d="m 26.488169,264.83156 h 35.126465 v 39.54357 c 0,17.45806 14.092654,31.55071 31.550718,31.55071 H 466.2 839.23465 c 17.45806,0 31.55071,-14.09265 31.55071,-31.55071 v -39.54357 h 35.12647 c 17.45807,0 31.55072,-14.09265 31.55072,-31.55072 v -51.007 c 0,-13.88231 -9.15076,-26.18709 -22.40206,-30.18352 L 479.87092,20.839367 c -4.41604,-1.367198 -9.04348,-1.998213 -13.67092,-1.998213 -4.62639,0 -9.14971,0.631015 -13.67198,1.998213 L 17.33846,152.09032 c -13.3564696,3.99643 -22.4010084,16.30121 -22.4010084,30.18352 v 51.007 c 0,17.35289 14.0926541,31.55072 31.5507174,31.55072 z"
   id="path6689"
   style="fill:#899ea9;fill-opacity:1;stroke-width:1.05169" /></g>
</g></g></g><style
     type="text/css"
     id="style1941">
	.st0{fill:none;stroke:#000000;stroke-width:2;stroke-linecap:round;stroke-linejoin:round;stroke-miterlimit:10;}
</style></svg>
