<?xml version="1.0" encoding="UTF-8" standalone="no"?>
<!-- Created with Inkscape (http://www.inkscape.org/) -->

<svg
   width="805.24988"
   height="248.98792"
   viewBox="0 0 213.0557 65.878052"
   version="1.1"
   id="svg5"
   xml:space="preserve"
   xmlns:xlink="http://www.w3.org/1999/xlink"
   xmlns="http://www.w3.org/2000/svg"
   xmlns:svg="http://www.w3.org/2000/svg"><defs
     id="defs2"><linearGradient
       id="silverline"><stop
         style="stop-color:#8cbff2;stop-opacity:1;"
         offset="0.04451345"
         id="stop15058" /><stop
         style="stop-color:#ffffff;stop-opacity:1;"
         offset="0.50488615"
         id="stop15060" /></linearGradient><linearGradient
       id="dorkodu"><stop
         style="stop-color:#006644;stop-opacity:1;"
         offset="0.0001"
         id="stop15052" /><stop
         style="stop-color:#36e236;stop-opacity:1;"
         offset="0.99989998"
         id="stop15054" /></linearGradient><linearGradient
       id="linearGradient11766"><stop
         style="stop-color:#7db2e8;stop-opacity:1;"
         offset="0.04451345"
         id="stop11762" /><stop
         style="stop-color:#ffffff;stop-opacity:1;"
         offset="0.50488615"
         id="stop11764" /></linearGradient><style
       id="style6568">.cls-1{fill:none;}.cls-2{clip-path:url(#clip-path);}</style><style
       id="style6568-5">.cls-1{fill:none;}.cls-2{clip-path:url(#clip-path);}</style><style
       id="style6568-9">.cls-1{fill:none;}.cls-2{clip-path:url(#clip-path);}</style><style
       id="style22571">.cls-1{fill:#84d0f7;}.cls-2{fill:#aa392d;}.cls-3{fill:#7c211a;}.cls-4{fill:#e59973;}.cls-5{fill:#2d2d2d;}.cls-6{opacity:0.2;}.cls-7{opacity:0.3;}</style><style
       id="style23309">
      .cls-1 {
        fill: none;
      }
    </style><linearGradient
       xlink:href="#dorkodu"
       id="linearGradient7511"
       gradientUnits="userSpaceOnUse"
       gradientTransform="matrix(0.6425786,0,0,0.64257862,91.64757,230.6564)"
       x1="211.29193"
       y1="762.6239"
       x2="301.67172"
       y2="672.24414" /><linearGradient
       xlink:href="#linearGradient11766"
       id="linearGradient7519"
       x1="183.2226"
       y1="668.23676"
       x2="244.85902"
       y2="668.23676"
       gradientUnits="userSpaceOnUse" /><linearGradient
       xlink:href="#silverline"
       id="linearGradient9162"
       x1="216.42819"
       y1="675.01855"
       x2="216.42819"
       y2="661.53064"
       gradientUnits="userSpaceOnUse"
       gradientTransform="translate(224.53669,29.278843)" /><style
       id="style6568-7">.cls-1{fill:none;}.cls-2{clip-path:url(#clip-path);}</style><style
       id="style6568-5-5">.cls-1{fill:none;}.cls-2{clip-path:url(#clip-path);}</style><style
       id="style6568-9-3">.cls-1{fill:none;}.cls-2{clip-path:url(#clip-path);}</style><style
       id="style22571-5">.cls-1{fill:#84d0f7;}.cls-2{fill:#aa392d;}.cls-3{fill:#7c211a;}.cls-4{fill:#e59973;}.cls-5{fill:#2d2d2d;}.cls-6{opacity:0.2;}.cls-7{opacity:0.3;}</style><style
       id="style23309-6">
      .cls-1 {
        fill: none;
      }
    </style></defs><g
     id="layer1"
     transform="translate(-222.63068,-657.83453)"><g
       aria-label="Forum"
       transform="matrix(2.1507274,0,0,2.4645579,-573.85604,-1028.3425)"
       id="g7495"
       style="font-weight:900;font-size:19.1621px;font-family:Rubik;-inkscape-font-specification:'Rubik Heavy';letter-spacing:-0.538838px;fill:url(#linearGradient7519);fill-opacity:1;stroke-width:38.7921"><path
         id="path7485"
         style="fill:url(#linearGradient9162);fill-opacity:1"
         d="m 408.27668,690.71307 c -0.14052,0 -0.26178,0.0511 -0.36398,0.15328 -0.1022,0.1022 -0.15339,0.22347 -0.15339,0.36399 v 12.37879 c 0,0.14052 0.0512,0.26179 0.15339,0.36399 0.1022,0.1022 0.22346,0.15328 0.36398,0.15328 h 3.65988 c 0.14052,0 0.26201,-0.0511 0.36421,-0.15328 0.1022,-0.1022 0.15316,-0.22347 0.15316,-0.36399 v -3.60252 h 5.09712 c 0.14053,0 0.26202,-0.0511 0.36422,-0.15328 0.1022,-0.1022 0.15315,-0.22347 0.15315,-0.36399 v -2.89354 c 0,-0.14052 -0.051,-0.26179 -0.15315,-0.36399 -0.1022,-0.1022 -0.22369,-0.15349 -0.36422,-0.15349 h -5.09712 v -1.41795 h 5.48048 c 0.14052,0 0.26178,-0.0511 0.36398,-0.15328 0.10219,-0.1022 0.15339,-0.22347 0.15339,-0.36399 v -2.91276 c 0,-0.14052 -0.0512,-0.26179 -0.15339,-0.36399 -0.1022,-0.10219 -0.22346,-0.15328 -0.36398,-0.15328 z m 51.7736,3.2544 c -0.0461,4.7e-4 -0.0926,0.002 -0.13975,0.003 -0.62596,0.0256 -1.17541,0.18524 -1.64807,0.47906 -0.45989,0.28104 -0.79843,0.56843 -1.0156,0.86225 v -0.63233 c 0,-0.14052 -0.051,-0.26179 -0.15315,-0.36399 -0.1022,-0.1022 -0.22369,-0.15349 -0.36422,-0.15349 h -3.16165 c -0.14053,0 -0.26179,0.0513 -0.36398,0.15349 -0.1022,0.1022 -0.15339,0.22347 -0.15339,0.36399 v 8.92955 c 0,0.14052 0.0512,0.26179 0.15339,0.36399 0.10219,0.1022 0.22345,0.15328 0.36398,0.15328 h 3.44905 c 0.14052,0 0.26202,-0.0511 0.36422,-0.15328 0.10219,-0.1022 0.15315,-0.22347 0.15315,-0.36399 v -5.26961 c 0,-0.20439 0.0321,-0.37052 0.096,-0.49826 0.0639,-0.14053 0.15329,-0.24913 0.26826,-0.32578 0.11497,-0.0766 0.24896,-0.11485 0.40226,-0.11485 0.16607,0 0.30031,0.0382 0.40251,0.11485 0.11498,0.0639 0.20439,0.16625 0.26826,0.30677 0.0639,0.14052 0.0957,0.31288 0.0957,0.51727 v 5.26961 c 0,0.14052 0.0512,0.26179 0.15339,0.36399 0.10219,0.1022 0.22345,0.15328 0.36398,0.15328 h 3.37271 c 0.14052,0 0.26178,-0.0511 0.36398,-0.15328 0.10219,-0.1022 0.15339,-0.22347 0.15339,-0.36399 v -5.26961 c 0,-0.20439 0.0254,-0.37675 0.0766,-0.51727 0.0639,-0.14053 0.15328,-0.2429 0.26826,-0.30677 0.11497,-0.0766 0.2492,-0.11485 0.4025,-0.11485 0.16607,0 0.30007,0.0382 0.40227,0.11485 0.11498,0.0639 0.20439,0.16625 0.26825,0.30677 0.0639,0.14052 0.096,0.31288 0.096,0.51727 v 5.26961 c 0,0.14052 0.051,0.26179 0.15316,0.36399 0.10219,0.1022 0.22369,0.15328 0.36421,0.15328 h 3.37248 c 0.14052,0 0.26178,-0.0511 0.36398,-0.15328 0.10219,-0.1022 0.15339,-0.22347 0.15339,-0.36399 v -5.36546 c 0,-1.0092 -0.15972,-1.82673 -0.47908,-2.4527 -0.31937,-0.62596 -0.74732,-1.08592 -1.28385,-1.37974 -0.52377,-0.29382 -1.11143,-0.44063 -1.76294,-0.44063 -0.58764,0 -1.14958,0.15325 -1.68612,0.45985 -0.53654,0.29382 -0.95174,0.66427 -1.24556,1.11139 -0.49502,-1.06427 -1.45775,-1.58904 -2.88789,-1.57437 z m -35.50732,0.003 c -1.1114,0 -2.06944,0.15968 -2.87425,0.47906 -0.80481,0.31936 -1.4373,0.79843 -1.89718,1.43716 -0.4599,0.62597 -0.72176,1.41153 -0.78563,2.35685 -0.0128,0.28105 -0.0191,0.58132 -0.0191,0.90068 0,0.3066 0.006,0.60686 0.0191,0.90068 0.0639,0.93256 0.30663,1.71811 0.72819,2.35685 0.43434,0.63874 1.05409,1.1178 1.8589,1.43717 0.80481,0.31937 1.7947,0.47905 2.96997,0.47905 1.17527,0 2.1654,-0.15968 2.97021,-0.47905 0.80481,-0.31937 1.41794,-0.79843 1.83951,-1.43717 0.43435,-0.63874 0.68347,-1.42429 0.74734,-2.35685 0.0255,-0.29382 0.0383,-0.59408 0.0383,-0.90068 0,-0.31936 -0.0128,-0.61963 -0.0383,-0.90068 -0.0639,-0.94532 -0.32573,-1.73088 -0.78563,-2.35685 -0.45988,-0.63873 -1.09237,-1.1178 -1.89718,-1.43716 -0.80481,-0.31938 -1.76285,-0.47906 -2.87425,-0.47906 z m 6.99191,0.1915 c -0.14052,0 -0.26178,0.0513 -0.36398,0.15349 -0.1022,0.1022 -0.15339,0.22347 -0.15339,0.36399 v 8.92955 c 0,0.14052 0.0512,0.26179 0.15339,0.36399 0.1022,0.1022 0.22346,0.15328 0.36398,0.15328 h 3.64073 c 0.14052,0 0.26202,-0.0511 0.36422,-0.15328 0.1022,-0.1022 0.15315,-0.22347 0.15315,-0.36399 v -4.27307 c 0,-0.38324 0.0958,-0.67085 0.28741,-0.86247 0.19162,-0.19162 0.4792,-0.28735 0.86244,-0.28735 h 2.47174 c 0.14053,0 0.26203,-0.0511 0.36422,-0.15328 0.1022,-0.1022 0.15339,-0.22347 0.15339,-0.36399 v -2.98939 c 0,-0.14052 -0.0512,-0.26179 -0.15339,-0.36399 -0.10219,-0.1022 -0.22369,-0.15349 -0.36422,-0.15349 h -0.91963 c -0.57486,0 -1.11794,0.1086 -1.62893,0.32577 -0.49821,0.21718 -0.95163,0.50478 -1.36043,0.86247 v -0.67076 c 0,-0.14052 -0.051,-0.26179 -0.15315,-0.36399 -0.1022,-0.1022 -0.2237,-0.15349 -0.36422,-0.15349 z m 9.56081,0 c -0.14052,0 -0.26201,0.0513 -0.36421,0.15349 -0.1022,0.1022 -0.15316,0.22347 -0.15316,0.36399 v 5.28881 c 0,1.00921 0.17246,1.83319 0.51737,2.47192 0.3577,0.63874 0.81749,1.11136 1.37958,1.41795 0.57486,0.30659 1.18163,0.45984 1.82036,0.45984 0.67706,0 1.29681,-0.10216 1.8589,-0.30656 0.56208,-0.21717 1.00277,-0.56208 1.32214,-1.03475 v 0.63234 c 0,0.14052 0.051,0.26179 0.15315,0.36399 0.10219,0.1022 0.22369,0.15328 0.36422,0.15328 h 3.35333 c 0.14052,0 0.26178,-0.0511 0.36398,-0.15328 0.10219,-0.1022 0.15339,-0.22347 0.15339,-0.36399 v -8.92955 c 0,-0.14052 -0.0512,-0.26179 -0.15339,-0.36399 -0.1022,-0.1022 -0.22346,-0.15349 -0.36398,-0.15349 h -3.64073 c -0.14053,0 -0.26203,0.0513 -0.36422,0.15349 -0.1022,0.1022 -0.15315,0.22347 -0.15315,0.36399 v 5.15454 c 0,0.34491 -0.083,0.60677 -0.24912,0.78561 -0.16607,0.17885 -0.40245,0.26835 -0.70905,0.26835 -0.63873,0 -0.95816,-0.35136 -0.95816,-1.05396 v -5.15454 c 0,-0.14052 -0.0512,-0.26179 -0.15339,-0.36399 -0.10219,-0.1022 -0.22345,-0.15349 -0.36398,-0.15349 z m -16.55272,2.87433 c 0.37047,0 0.60048,0.11504 0.68991,0.34498 0.0894,0.21717 0.147,0.53655 0.17253,0.95811 0.0128,0.19162 0.0191,0.45991 0.0191,0.80483 0,0.34492 -0.006,0.61321 -0.0191,0.80483 -0.0255,0.44711 -0.0831,0.77915 -0.17253,0.99633 -0.0894,0.20439 -0.31944,0.30677 -0.68991,0.30677 -0.35769,0 -0.58771,-0.10238 -0.68991,-0.30677 -0.0894,-0.21718 -0.14676,-0.54922 -0.17229,-0.99633 -0.0128,-0.19162 -0.0191,-0.45991 -0.0191,-0.80483 0,-0.34492 0.006,-0.61321 0.0191,-0.80483 0.0255,-0.42156 0.0829,-0.74094 0.17229,-0.95811 0.1022,-0.22994 0.33222,-0.34498 0.68991,-0.34498 z" /></g><rect
       style="fill:url(#linearGradient7511);fill-opacity:1;stroke-width:4.13018"
       id="rect7497"
       width="65.878052"
       height="65.878052"
       x="222.63068"
       y="657.83453"
       rx="13.175611"
       ry="13.175611" /><g
       id="g46545"
       transform="matrix(0.79988113,0,0,0.79988113,514.45218,127.84903)"><g
         style="font-weight:900;font-size:19.1621px;font-family:Rubik;-inkscape-font-specification:'Rubik Heavy';letter-spacing:-0.538838px;fill:none;fill-opacity:1;stroke-width:38.7921"
         id="g45085"
         transform="matrix(30.966839,0,0,30.96684,-1395.0191,793.26767)" /><g
         id="g62881"
         transform="translate(-1.9060562,-0.61374095)"><path
           opacity="0.4"
           d="m 35.24148,-3.0043397 v 0.3944818 c 0,0.025641 -9.87e-4,0.050297 -0.0039,0.073965 -0.02268,0.2662754 -0.179489,0.3984269 -0.468447,0.3984269 h -0.03945 c -0.02466,0 -0.04832,0.011835 -0.06312,0.031558 l -0.118301,0.1577937 c -0.05227,0.07002 -0.137083,0.07002 -0.189352,0 L 34.240519,-2.105907 c -0.01282,-0.016765 -0.04141,-0.031558 -0.06311,-0.031558 h -0.03945 c -0.3146,0 -0.472393,-0.07791 -0.472393,-0.472392 v -0.394482 c 0,-0.2889571 0.133137,-0.4457636 0.398427,-0.4684463 0.02367,-0.00296 0.04832,-0.00395 0.07397,-0.00395 h 0.63117 c 0.3146,0 0.472393,0.1577937 0.472393,0.4723921 z"
           fill="#292d32"
           id="path45081"
           style="font-weight:900;font-size:19.1621px;font-family:Rubik;-inkscape-font-specification:'Rubik Heavy';letter-spacing:-0.538838px;opacity:1;fill:#ffffff;fill-opacity:0.65;stroke-width:3.82569;stroke-dasharray:none"
           transform="matrix(30.966839,0,0,30.96684,-1395.0191,793.26767)" /><path
           d="m 35.635874,-3.3988208 v 0.3944811 c 0,0.2899441 -0.133138,0.4457644 -0.398428,0.4684471 0.003,-0.023669 0.0039,-0.048324 0.0039,-0.073965 V -3.00434 c 0,-0.3145984 -0.157792,-0.4723922 -0.472391,-0.4723922 h -0.631176 c -0.02564,0 -0.0503,9.87e-4 -0.07397,0.00395 0.02269,-0.2652878 0.17949,-0.3984264 0.468452,-0.3984264 h 0.631171 c 0.314599,0 0.472392,0.1577937 0.472392,0.472393 z"
           fill="#292d32"
           id="path45083"
           style="font-weight:900;font-size:19.1621px;font-family:Rubik;-inkscape-font-specification:'Rubik Heavy';letter-spacing:-0.538838px;fill:#eaebed;fill-opacity:0.45;stroke-width:3.82569"
           transform="matrix(30.966839,0,0,30.96684,-1395.0191,793.26767)" /><path
           id="path45087"
           style="font-weight:900;font-size:19.1621px;font-family:Rubik;-inkscape-font-specification:'Rubik Heavy';letter-spacing:-0.538838px;fill:#ffffff;fill-opacity:1;stroke-width:121.336"
           d="m -317.38742,695.45762 c -1.96031,0.21735 -2.92693,2.14761 -4.22431,3.37475 -3.32067,3.64863 -6.64134,7.29729 -9.96204,10.94593 -2.02574,-1.77486 -3.91025,-3.72785 -6.04899,-5.36126 -1.97856,-1.11286 -4.80956,0.24501 -5.08541,2.52577 -0.3086,1.61487 0.74356,3.10348 2.00311,3.99515 2.56509,2.27468 5.00968,4.70103 7.67024,6.85822 1.62473,0.94679 3.79456,0.24273 4.80379,-1.27718 4.72755,-5.21749 9.51644,-10.38437 14.18547,-15.65035 1.41596,-1.93601 0.10855,-5.08722 -2.29663,-5.38309 -0.34518,-0.0605 -0.6972,-0.0647 -1.04524,-0.0279 z" /></g></g></g><style
     type="text/css"
     id="style1941">
	.st0{fill:none;stroke:#000000;stroke-width:2;stroke-linecap:round;stroke-linejoin:round;stroke-miterlimit:10;}
</style><style
     type="text/css"
     id="style1941-0">
	.st0{fill:none;stroke:#000000;stroke-width:2;stroke-linecap:round;stroke-linejoin:round;stroke-miterlimit:10;}
</style><style
     type="text/css"
     id="style1941-7">
	.st0{fill:none;stroke:#000000;stroke-width:2;stroke-linecap:round;stroke-linejoin:round;stroke-miterlimit:10;}
</style><style
     type="text/css"
     id="style22485">
	.st0{fill:none;stroke:#6C3DB7;stroke-width:4;stroke-linecap:round;stroke-linejoin:round;stroke-miterlimit:10;}
	.st1{fill:none;stroke:#1F992A;stroke-width:4;stroke-linecap:round;stroke-linejoin:round;stroke-miterlimit:10;}
	.st2{fill:none;stroke:#6A83BA;stroke-width:4;stroke-linecap:round;stroke-linejoin:round;stroke-miterlimit:10;}
	.st3{fill:#8A8AFF;stroke:#8A8AFF;stroke-width:2;stroke-linecap:round;stroke-linejoin:round;stroke-miterlimit:10;}
	.st4{fill:#6C3DB7;stroke:#6C3DB7;stroke-width:2;stroke-linecap:round;stroke-linejoin:round;stroke-miterlimit:10;}
	.st5{fill:#A576FF;stroke:#A576FF;stroke-width:2;stroke-linecap:round;stroke-linejoin:round;stroke-miterlimit:10;}
	.st6{fill:#F2BB41;stroke:#F2BB41;stroke-width:2;stroke-linecap:round;stroke-linejoin:round;stroke-miterlimit:10;}
	.st7{fill:#E08838;stroke:#E08838;stroke-width:2;stroke-linecap:round;stroke-linejoin:round;stroke-miterlimit:10;}
	.st8{fill:#1F992A;stroke:#1F992A;stroke-width:2;stroke-linecap:round;stroke-linejoin:round;stroke-miterlimit:10;}
	.st9{fill:#5EC11E;stroke:#5EC11E;stroke-width:2;stroke-linecap:round;stroke-linejoin:round;stroke-miterlimit:10;}
	.st10{fill:#E3FAFF;stroke:#E3FAFF;stroke-width:2;stroke-linecap:round;stroke-linejoin:round;stroke-miterlimit:10;}
	.st11{fill:#FF5093;stroke:#FF5093;stroke-width:2;stroke-linecap:round;stroke-linejoin:round;stroke-miterlimit:10;}
	.st12{fill:#B7257F;stroke:#B7257F;stroke-width:2;stroke-linecap:round;stroke-linejoin:round;stroke-miterlimit:10;}
	.st13{fill:#5189E5;stroke:#5189E5;stroke-width:2;stroke-linecap:round;stroke-linejoin:round;stroke-miterlimit:10;}
	.st14{fill:#6EBAFF;stroke:#6EBAFF;stroke-width:2;stroke-linecap:round;stroke-linejoin:round;stroke-miterlimit:10;}
	.st15{fill:#EDD977;stroke:#EDD977;stroke-width:2;stroke-linecap:round;stroke-linejoin:round;stroke-miterlimit:10;}
	.st16{fill:#8C43FF;stroke:#8C43FF;stroke-width:2;stroke-linecap:round;stroke-linejoin:round;stroke-miterlimit:10;}
	.st17{fill:#5252BA;stroke:#5252BA;stroke-width:2;stroke-linecap:round;stroke-linejoin:round;stroke-miterlimit:10;}
	.st18{fill:none;stroke:#E3FAFF;stroke-width:4;stroke-linecap:round;stroke-linejoin:round;stroke-miterlimit:10;}
	.st19{fill:#354C75;stroke:#354C75;stroke-width:2;stroke-linecap:round;stroke-linejoin:round;stroke-miterlimit:10;}
</style><style
     type="text/css"
     id="style23106">
	.st0{fill:none;stroke:#000000;stroke-width:2;stroke-linecap:round;stroke-linejoin:round;stroke-miterlimit:10;}
	.st1{fill:none;stroke:#000000;stroke-width:2;stroke-linejoin:round;stroke-miterlimit:10;}
</style><style
     type="text/css"
     id="style1941-1">
	.st0{fill:none;stroke:#000000;stroke-width:2;stroke-linecap:round;stroke-linejoin:round;stroke-miterlimit:10;}
</style><style
     type="text/css"
     id="style1941-0-8">
	.st0{fill:none;stroke:#000000;stroke-width:2;stroke-linecap:round;stroke-linejoin:round;stroke-miterlimit:10;}
</style><style
     type="text/css"
     id="style1941-7-7">
	.st0{fill:none;stroke:#000000;stroke-width:2;stroke-linecap:round;stroke-linejoin:round;stroke-miterlimit:10;}
</style><style
     type="text/css"
     id="style22485-9">
	.st0{fill:none;stroke:#6C3DB7;stroke-width:4;stroke-linecap:round;stroke-linejoin:round;stroke-miterlimit:10;}
	.st1{fill:none;stroke:#1F992A;stroke-width:4;stroke-linecap:round;stroke-linejoin:round;stroke-miterlimit:10;}
	.st2{fill:none;stroke:#6A83BA;stroke-width:4;stroke-linecap:round;stroke-linejoin:round;stroke-miterlimit:10;}
	.st3{fill:#8A8AFF;stroke:#8A8AFF;stroke-width:2;stroke-linecap:round;stroke-linejoin:round;stroke-miterlimit:10;}
	.st4{fill:#6C3DB7;stroke:#6C3DB7;stroke-width:2;stroke-linecap:round;stroke-linejoin:round;stroke-miterlimit:10;}
	.st5{fill:#A576FF;stroke:#A576FF;stroke-width:2;stroke-linecap:round;stroke-linejoin:round;stroke-miterlimit:10;}
	.st6{fill:#F2BB41;stroke:#F2BB41;stroke-width:2;stroke-linecap:round;stroke-linejoin:round;stroke-miterlimit:10;}
	.st7{fill:#E08838;stroke:#E08838;stroke-width:2;stroke-linecap:round;stroke-linejoin:round;stroke-miterlimit:10;}
	.st8{fill:#1F992A;stroke:#1F992A;stroke-width:2;stroke-linecap:round;stroke-linejoin:round;stroke-miterlimit:10;}
	.st9{fill:#5EC11E;stroke:#5EC11E;stroke-width:2;stroke-linecap:round;stroke-linejoin:round;stroke-miterlimit:10;}
	.st10{fill:#E3FAFF;stroke:#E3FAFF;stroke-width:2;stroke-linecap:round;stroke-linejoin:round;stroke-miterlimit:10;}
	.st11{fill:#FF5093;stroke:#FF5093;stroke-width:2;stroke-linecap:round;stroke-linejoin:round;stroke-miterlimit:10;}
	.st12{fill:#B7257F;stroke:#B7257F;stroke-width:2;stroke-linecap:round;stroke-linejoin:round;stroke-miterlimit:10;}
	.st13{fill:#5189E5;stroke:#5189E5;stroke-width:2;stroke-linecap:round;stroke-linejoin:round;stroke-miterlimit:10;}
	.st14{fill:#6EBAFF;stroke:#6EBAFF;stroke-width:2;stroke-linecap:round;stroke-linejoin:round;stroke-miterlimit:10;}
	.st15{fill:#EDD977;stroke:#EDD977;stroke-width:2;stroke-linecap:round;stroke-linejoin:round;stroke-miterlimit:10;}
	.st16{fill:#8C43FF;stroke:#8C43FF;stroke-width:2;stroke-linecap:round;stroke-linejoin:round;stroke-miterlimit:10;}
	.st17{fill:#5252BA;stroke:#5252BA;stroke-width:2;stroke-linecap:round;stroke-linejoin:round;stroke-miterlimit:10;}
	.st18{fill:none;stroke:#E3FAFF;stroke-width:4;stroke-linecap:round;stroke-linejoin:round;stroke-miterlimit:10;}
	.st19{fill:#354C75;stroke:#354C75;stroke-width:2;stroke-linecap:round;stroke-linejoin:round;stroke-miterlimit:10;}
</style><style
     type="text/css"
     id="style23106-2">
	.st0{fill:none;stroke:#000000;stroke-width:2;stroke-linecap:round;stroke-linejoin:round;stroke-miterlimit:10;}
	.st1{fill:none;stroke:#000000;stroke-width:2;stroke-linejoin:round;stroke-miterlimit:10;}
</style><style
     type="text/css"
     id="style4736">
<![CDATA[
	.st0{fill:#D1D1D1;}
	.st1{fill:#454545;}
]]>
</style></svg>
