<?xml version="1.0" encoding="UTF-8" standalone="no"?>
<!-- Created with Inkscape (http://www.inkscape.org/) -->

<svg
   width="1039.4296"
   height="278.17532"
   viewBox="0 0 275.01574 73.600554"
   version="1.1"
   id="svg5"
   xml:space="preserve"
   xmlns:xlink="http://www.w3.org/1999/xlink"
   xmlns="http://www.w3.org/2000/svg"
   xmlns:svg="http://www.w3.org/2000/svg"><defs
     id="defs2"><linearGradient
       id="linearGradient5222"><stop
         style="stop-color:#17191c;stop-opacity:1;"
         offset="0"
         id="stop5218" /><stop
         style="stop-color:#2e3038;stop-opacity:1;"
         offset="1"
         id="stop5220" /></linearGradient><style
       id="style6568">.cls-1{fill:none;}.cls-2{clip-path:url(#clip-path);}</style><linearGradient
       xlink:href="#linearGradient5222"
       id="linearGradient3859"
       gradientUnits="userSpaceOnUse"
       x1="2487.3772"
       y1="3121.3364"
       x2="2487.3772"
       y2="2945.2664" /></defs><g
     id="layer1"
     transform="translate(-218.52468,-557.61069)"><path
       d="m 291.77422,579.53327 v 18.35614 c 0,1.16918 -0.0584,2.33836 -0.17538,3.44906 -1.05227,12.39341 -8.35968,18.59009 -21.80532,18.59009 h -1.81226 c -1.16917,0 -2.2799,0.52612 -2.92295,1.4615 l -5.49519,7.36588 c -2.45528,3.27371 -6.37206,3.27371 -8.82736,0 l -5.49518,-7.36588 c -0.58459,-0.75998 -1.92908,-1.4615 -2.9229,-1.4615 h -1.81224 c -14.6733,0 -21.98076,-3.62447 -21.98076,-21.98074 v -18.35616 c 0,-13.4457 6.19662,-20.75297 18.59,-21.80522 1.11073,-0.11694 2.27992,-0.1754 3.4491,-0.1754 h 29.40512 c 14.43944,-0.0585 21.80532,7.30744 21.80532,21.92223 z"
       fill="#292d32"
       id="path30904"
       style="fill:#e1e9ea;fill-opacity:1;stroke-width:5.84589" /><g
       style="fill:#c2d3d6;fill-opacity:1"
       id="g6706"
       transform="matrix(0.04823235,0,0,0.04823235,233.84964,566.18743)"><g
         id="g6695"
         style="fill:#c2d3d6;fill-opacity:1">
	<g
   id="g6693"
   style="fill:#c2d3d6;fill-opacity:1"
   transform="translate(-15.400024,-34.743674)">
		
		<path
   d="M 885.4,831.6 H 850.9 V 794 c 0,-16.6 -13.4,-30 -30,-30 H 781.3 V 331.6 H 666.699 V 764 H 519.6 V 331.6 H 412.8 V 764 H 265.7 V 331.6 H 151.1 V 764 h -39.6 c -16.6,0 -30,13.4 -30,30 v 37.6 H 47 c -16.6,0 -30,13.4 -30,30 v 40.8 c 0,16.6 13.4,30 30,30 h 838.4 c 16.6,0 30,-13.4 30,-30 v -40.8 c 0,-16.6 -13.4,-30 -30,-30 z"
   id="path6691"
   style="fill:#a7b6be;fill-opacity:1" />
	<path
   d="m 26.488169,264.83156 h 35.126465 v 39.54357 c 0,17.45806 14.092654,31.55071 31.550718,31.55071 H 466.2 839.23465 c 17.45806,0 31.55071,-14.09265 31.55071,-31.55071 v -39.54357 h 35.12647 c 17.45807,0 31.55072,-14.09265 31.55072,-31.55072 v -51.007 c 0,-13.88231 -9.15076,-26.18709 -22.40206,-30.18352 L 479.87092,20.839367 c -4.41604,-1.367198 -9.04348,-1.998213 -13.67092,-1.998213 -4.62639,0 -9.14971,0.631015 -13.67198,1.998213 L 17.33846,152.09032 c -13.3564696,3.99643 -22.4010084,16.30121 -22.4010084,30.18352 v 51.007 c 0,17.35289 14.0926541,31.55072 31.5507174,31.55072 z"
   id="path6689"
   style="fill:#899ea9;fill-opacity:1;stroke-width:1.05169" /></g>
</g></g><g
       aria-label="FORUM"
       id="g3857"
       style="font-weight:bold;font-size:253.315px;font-family:'Ecliptic (BRK)';-inkscape-font-specification:'Ecliptic (BRK) Bold';letter-spacing:-16.5929px;fill:#21232c;stroke-width:21.1095"
       transform="matrix(0.17807741,0,0,0.17807741,-41.890474,52.372923)"><path
         id="path3855"
         style="font-family:'Fat Pixels';-inkscape-font-specification:'Fat Pixels Bold';fill:url(#linearGradient3859);fill-opacity:1"
         d="m 2779.7608,2926.6731 c -7.2617,0 -13.5103,2.6177 -18.7454,7.8529 -5.0663,5.0662 -7.5991,11.2299 -7.5991,18.4916 v 155.7172 c 0,7.2617 2.4479,13.5102 7.3453,18.7454 5.0663,5.0663 11.062,7.6001 17.9859,7.6001 6.9239,0 12.8348,-2.5338 17.7322,-7.6001 5.0663,-5.2352 7.5991,-11.4837 7.5991,-18.7454 v -99.2997 c 0,-7.2617 2.4489,-13.4253 7.3463,-18.4916 5.0663,-5.2352 11.0611,-7.8529 17.985,-7.8529 6.9239,0 12.8348,2.6177 17.7322,7.8529 5.0663,5.0663 7.6001,11.2299 7.6001,18.4916 v 99.2997 c 0,7.2617 2.4479,13.5102 7.3453,18.7454 5.0663,5.0663 11.0621,7.6001 17.986,7.6001 6.9238,0 12.8347,-2.5338 17.7321,-7.6001 5.0663,-5.2352 7.5991,-11.4837 7.5991,-18.7454 v -73.9674 c 0,-7.2617 2.4489,-13.4263 7.3463,-18.4926 5.0663,-5.2352 11.0611,-7.8529 17.985,-7.8529 6.9239,0 12.8348,2.6177 17.7322,7.8529 5.0663,5.0663 7.5991,11.2309 7.5991,18.4926 v 73.9674 c 0,7.2617 2.4489,13.5102 7.3463,18.7454 5.0663,5.0663 11.0621,7.6001 17.986,7.6001 6.9239,0 12.8338,-2.5338 17.7312,-7.6001 5.0663,-5.2352 7.6001,-11.4837 7.6001,-18.7454 v -124.631 c 0,-7.2617 -2.6177,-13.4253 -7.8529,-18.4916 -5.0663,-5.2352 -11.23,-7.8529 -18.4917,-7.8529 h -48.6371 c -10.9769,0 -18.4074,-7.95 -22.2916,-12.3408 -2.702,-4.0529 -5.4037,-8.1065 -8.1057,-12.1595 -3.2103,-5.5604 -11.3147,-6.5859 -22.2917,-6.5859 z m -776.6587,5.7549 c -7.2616,0 -13.5103,2.6177 -18.7454,7.8529 -5.0663,5.0663 -7.5991,11.23 -7.5991,18.4916 v 149.9623 c 0,7.2617 2.4488,13.5102 7.3463,18.7454 5.0663,5.0663 11.0611,7.6001 17.985,7.6001 6.9239,0 12.8347,-2.5338 17.7322,-7.6001 5.0663,-5.2352 7.5991,-11.4837 7.5991,-18.7454 v -23.3049 c 0,-10.9769 4.3912,-15.7609 13.1727,-19.8139 8.1061,-2.5332 29.131,-5.066 37.2371,-7.5991 8.7816,-3.7153 13.1727,-10.8929 13.1727,-21.5322 0,-6.9239 -0.6971,-12.4112 -6.0182,-17.7322 -4.9826,-4.9826 -10.2685,-7.5991 -19.314,-7.5991 -13.361,0 -38.1871,2.9086 -38.1301,-15.1686 0,-13.7663 16.3046,-12.8942 26.2243,-12.8942 h 23.3058 c 7.2617,0 13.4254,-2.4489 18.4917,-7.3462 5.2351,-5.0663 7.8528,-11.0612 7.8528,-17.9851 0,-6.9239 -2.6177,-12.8348 -7.8528,-17.7322 -5.0663,-5.0662 -11.23,-7.5991 -18.4917,-7.5991 z m 163.7666,0 c -7.2617,0 -13.5103,2.6177 -18.7454,7.8529 -5.0663,5.0663 -7.5991,11.23 -7.5991,18.4916 v 149.9623 c 0,7.2617 2.5328,13.5102 7.5991,18.7454 5.2351,5.0663 11.4837,7.6001 18.7454,7.6001 h 99.2997 c 7.2617,0 13.4253,-2.5338 18.4916,-7.6001 5.2352,-5.2352 7.8529,-11.4837 7.8529,-18.7454 v -149.9623 c 0,-7.2616 -2.6177,-13.4253 -7.8529,-18.4916 -5.0663,-5.2352 -11.2299,-7.8529 -18.4916,-7.8529 z m 197.9649,0 c -7.2617,0 -13.5102,2.6177 -18.7454,7.8529 -5.0663,5.0663 -7.5991,11.23 -7.5991,18.4916 v 149.9623 c 0,7.2617 2.3489,13.6047 7.3454,18.7454 6.7041,6.8977 17.5668,7.6001 24.4907,7.6001 24.4533,0 36.5011,-49.6266 51.6004,-38.402 l 40.1059,29.8145 c 10.9852,8.1662 22.7581,11.6499 35.9662,2.5435 7.5296,-5.1913 11.564,-16.7731 9.9986,-23.864 0,0 -4.5966,-23.2707 -7.664,-34.7183 -2.9384,-10.9664 -5.4274,-25.171 -18.7454,-32.8603 -10.5105,-6.0683 -16.4404,-19.2081 -16.4404,-30.185 v -48.6362 c 0,-7.2616 -2.6176,-13.4253 -7.8528,-18.4916 -5.0663,-5.2352 -11.2309,-7.8529 -18.4926,-7.8529 z m 194.4178,0 c -6.9239,0 -12.9188,2.6177 -17.9851,7.8529 -4.8975,5.0663 -7.3462,11.23 -7.3462,18.4916 v 149.9623 c 0,7.2617 2.5328,13.5102 7.5991,18.7454 5.2351,5.0663 11.4837,7.6001 18.7454,7.6001 h 124.6309 c 7.2617,0 13.4263,-2.4489 18.4926,-7.3463 5.2351,-5.0663 7.8519,-11.0621 7.8519,-17.986 0,-10.4703 -0.7103,-16.3337 -6.5858,-21.5312 -4.053,-2.5332 -8.1065,-5.067 -12.1596,-7.6001 -4.3907,-4.0531 -6.5858,-11.5676 -6.5858,-22.5445 v -99.2997 c 0,-7.2616 -2.5328,-13.4253 -7.5991,-18.4916 -4.8975,-5.2352 -10.8083,-7.8529 -17.7322,-7.8529 -6.9239,0 -12.9187,2.6177 -17.985,7.8529 -4.8975,5.0663 -7.3463,11.23 -7.3463,18.4916 v 89.0894 c 0,7.2617 -2.5338,13.5102 -7.6001,18.7454 -4.8975,5.0663 -10.8083,7.5991 -17.7322,7.5991 -6.9239,0 -12.9187,-2.5328 -17.985,-7.5991 -4.8975,-5.2352 -7.3463,-11.4837 -7.3463,-18.7454 v -89.0894 c 0,-7.2616 -2.5328,-13.4253 -7.5991,-18.4916 -4.8974,-5.2352 -10.8082,-7.8529 -17.7321,-7.8529 z m -158.1873,39.8369 c 8.5864,-0.021 17.1722,5.5526 17.1722,16.6321 0,12.6119 -0.208,14.655 -0.208,23.843 0,19.8524 -34.0953,20.3398 -34.0953,-1.0495 0,-6.6152 -0.042,-13.9041 -0.042,-22.4939 0,-11.297 8.5867,-16.9112 17.1731,-16.9317 z m -184.5451,10.8257 c 6.9239,0 12.8347,2.6177 17.7322,7.8529 5.0663,5.0663 7.5991,11.2299 7.5991,18.4916 v 48.6371 c 0,7.2617 -2.5328,13.5102 -7.5991,18.7454 -4.8975,5.0663 -10.8083,7.5991 -17.7322,7.5991 -6.9238,0 -12.9196,-2.5328 -17.9859,-7.5991 -4.8974,-5.2352 -7.3463,-11.4837 -7.3463,-18.7454 v -48.6371 c 0,-7.2617 2.4489,-13.4253 7.3463,-18.4916 5.0663,-5.2352 11.0621,-7.8529 17.9859,-7.8529 z" /></g></g><style
     type="text/css"
     id="style1941">
	.st0{fill:none;stroke:#000000;stroke-width:2;stroke-linecap:round;stroke-linejoin:round;stroke-miterlimit:10;}
</style></svg>
