<?xml version="1.0" encoding="UTF-8" standalone="no"?>
<!-- Created with Inkscape (http://www.inkscape.org/) -->

<svg
   width="693.22211"
   height="140.26816"
   viewBox="0 0 183.41502 37.112617"
   version="1.1"
   id="svg5"
   xml:space="preserve"
   xmlns:xlink="http://www.w3.org/1999/xlink"
   xmlns="http://www.w3.org/2000/svg"
   xmlns:svg="http://www.w3.org/2000/svg"><defs
     id="defs2"><linearGradient
       id="linearGradient5222"><stop
         style="stop-color:#17191c;stop-opacity:1;"
         offset="0"
         id="stop5218" /><stop
         style="stop-color:#2e3038;stop-opacity:1;"
         offset="1"
         id="stop5220" /></linearGradient><style
       id="style6568">.cls-1{fill:none;}.cls-2{clip-path:url(#clip-path);}</style><linearGradient
       xlink:href="#linearGradient5222"
       id="linearGradient3859"
       gradientUnits="userSpaceOnUse"
       x1="2487.3772"
       y1="3121.3364"
       x2="2487.3772"
       y2="2945.2664" /></defs><g
     id="layer1"
     transform="translate(-310.1254,-573.54729)"><g
       aria-label="FORUM"
       id="g3857"
       style="font-weight:bold;font-size:253.315px;font-family:'Ecliptic (BRK)';-inkscape-font-specification:'Ecliptic (BRK) Bold';letter-spacing:-16.5929px;fill:#21232c;stroke-width:21.1095"
       transform="matrix(0.17807741,0,0,0.17807741,-41.890474,52.372923)"><path
         id="path3855"
         style="font-family:'Fat Pixels';-inkscape-font-specification:'Fat Pixels Bold';fill:url(#linearGradient3859);fill-opacity:1"
         d="m 2779.7608,2926.6731 c -7.2617,0 -13.5103,2.6177 -18.7454,7.8529 -5.0663,5.0662 -7.5991,11.2299 -7.5991,18.4916 v 155.7172 c 0,7.2617 2.4479,13.5102 7.3453,18.7454 5.0663,5.0663 11.062,7.6001 17.9859,7.6001 6.9239,0 12.8348,-2.5338 17.7322,-7.6001 5.0663,-5.2352 7.5991,-11.4837 7.5991,-18.7454 v -99.2997 c 0,-7.2617 2.4489,-13.4253 7.3463,-18.4916 5.0663,-5.2352 11.0611,-7.8529 17.985,-7.8529 6.9239,0 12.8348,2.6177 17.7322,7.8529 5.0663,5.0663 7.6001,11.2299 7.6001,18.4916 v 99.2997 c 0,7.2617 2.4479,13.5102 7.3453,18.7454 5.0663,5.0663 11.0621,7.6001 17.986,7.6001 6.9238,0 12.8347,-2.5338 17.7321,-7.6001 5.0663,-5.2352 7.5991,-11.4837 7.5991,-18.7454 v -73.9674 c 0,-7.2617 2.4489,-13.4263 7.3463,-18.4926 5.0663,-5.2352 11.0611,-7.8529 17.985,-7.8529 6.9239,0 12.8348,2.6177 17.7322,7.8529 5.0663,5.0663 7.5991,11.2309 7.5991,18.4926 v 73.9674 c 0,7.2617 2.4489,13.5102 7.3463,18.7454 5.0663,5.0663 11.0621,7.6001 17.986,7.6001 6.9239,0 12.8338,-2.5338 17.7312,-7.6001 5.0663,-5.2352 7.6001,-11.4837 7.6001,-18.7454 v -124.631 c 0,-7.2617 -2.6177,-13.4253 -7.8529,-18.4916 -5.0663,-5.2352 -11.23,-7.8529 -18.4917,-7.8529 h -48.6371 c -10.9769,0 -18.4074,-7.95 -22.2916,-12.3408 -2.702,-4.0529 -5.4037,-8.1065 -8.1057,-12.1595 -3.2103,-5.5604 -11.3147,-6.5859 -22.2917,-6.5859 z m -776.6587,5.7549 c -7.2616,0 -13.5103,2.6177 -18.7454,7.8529 -5.0663,5.0663 -7.5991,11.23 -7.5991,18.4916 v 149.9623 c 0,7.2617 2.4488,13.5102 7.3463,18.7454 5.0663,5.0663 11.0611,7.6001 17.985,7.6001 6.9239,0 12.8347,-2.5338 17.7322,-7.6001 5.0663,-5.2352 7.5991,-11.4837 7.5991,-18.7454 v -23.3049 c 0,-10.9769 4.3912,-15.7609 13.1727,-19.8139 8.1061,-2.5332 29.131,-5.066 37.2371,-7.5991 8.7816,-3.7153 13.1727,-10.8929 13.1727,-21.5322 0,-6.9239 -0.6971,-12.4112 -6.0182,-17.7322 -4.9826,-4.9826 -10.2685,-7.5991 -19.314,-7.5991 -13.361,0 -38.1871,2.9086 -38.1301,-15.1686 0,-13.7663 16.3046,-12.8942 26.2243,-12.8942 h 23.3058 c 7.2617,0 13.4254,-2.4489 18.4917,-7.3462 5.2351,-5.0663 7.8528,-11.0612 7.8528,-17.9851 0,-6.9239 -2.6177,-12.8348 -7.8528,-17.7322 -5.0663,-5.0662 -11.23,-7.5991 -18.4917,-7.5991 z m 163.7666,0 c -7.2617,0 -13.5103,2.6177 -18.7454,7.8529 -5.0663,5.0663 -7.5991,11.23 -7.5991,18.4916 v 149.9623 c 0,7.2617 2.5328,13.5102 7.5991,18.7454 5.2351,5.0663 11.4837,7.6001 18.7454,7.6001 h 99.2997 c 7.2617,0 13.4253,-2.5338 18.4916,-7.6001 5.2352,-5.2352 7.8529,-11.4837 7.8529,-18.7454 v -149.9623 c 0,-7.2616 -2.6177,-13.4253 -7.8529,-18.4916 -5.0663,-5.2352 -11.2299,-7.8529 -18.4916,-7.8529 z m 197.9649,0 c -7.2617,0 -13.5102,2.6177 -18.7454,7.8529 -5.0663,5.0663 -7.5991,11.23 -7.5991,18.4916 v 149.9623 c 0,7.2617 2.3489,13.6047 7.3454,18.7454 6.7041,6.8977 17.5668,7.6001 24.4907,7.6001 24.4533,0 36.5011,-49.6266 51.6004,-38.402 l 40.1059,29.8145 c 10.9852,8.1662 22.7581,11.6499 35.9662,2.5435 7.5296,-5.1913 11.564,-16.7731 9.9986,-23.864 0,0 -4.5966,-23.2707 -7.664,-34.7183 -2.9384,-10.9664 -5.4274,-25.171 -18.7454,-32.8603 -10.5105,-6.0683 -16.4404,-19.2081 -16.4404,-30.185 v -48.6362 c 0,-7.2616 -2.6176,-13.4253 -7.8528,-18.4916 -5.0663,-5.2352 -11.2309,-7.8529 -18.4926,-7.8529 z m 194.4178,0 c -6.9239,0 -12.9188,2.6177 -17.9851,7.8529 -4.8975,5.0663 -7.3462,11.23 -7.3462,18.4916 v 149.9623 c 0,7.2617 2.5328,13.5102 7.5991,18.7454 5.2351,5.0663 11.4837,7.6001 18.7454,7.6001 h 124.6309 c 7.2617,0 13.4263,-2.4489 18.4926,-7.3463 5.2351,-5.0663 7.8519,-11.0621 7.8519,-17.986 0,-10.4703 -0.7103,-16.3337 -6.5858,-21.5312 -4.053,-2.5332 -8.1065,-5.067 -12.1596,-7.6001 -4.3907,-4.0531 -6.5858,-11.5676 -6.5858,-22.5445 v -99.2997 c 0,-7.2616 -2.5328,-13.4253 -7.5991,-18.4916 -4.8975,-5.2352 -10.8083,-7.8529 -17.7322,-7.8529 -6.9239,0 -12.9187,2.6177 -17.985,7.8529 -4.8975,5.0663 -7.3463,11.23 -7.3463,18.4916 v 89.0894 c 0,7.2617 -2.5338,13.5102 -7.6001,18.7454 -4.8975,5.0663 -10.8083,7.5991 -17.7322,7.5991 -6.9239,0 -12.9187,-2.5328 -17.985,-7.5991 -4.8975,-5.2352 -7.3463,-11.4837 -7.3463,-18.7454 v -89.0894 c 0,-7.2616 -2.5328,-13.4253 -7.5991,-18.4916 -4.8974,-5.2352 -10.8082,-7.8529 -17.7321,-7.8529 z m -158.1873,39.8369 c 8.5864,-0.021 17.1722,5.5526 17.1722,16.6321 0,12.6119 -0.208,14.655 -0.208,23.843 0,19.8524 -34.0953,20.3398 -34.0953,-1.0495 0,-6.6152 -0.042,-13.9041 -0.042,-22.4939 0,-11.297 8.5867,-16.9112 17.1731,-16.9317 z m -184.5451,10.8257 c 6.9239,0 12.8347,2.6177 17.7322,7.8529 5.0663,5.0663 7.5991,11.2299 7.5991,18.4916 v 48.6371 c 0,7.2617 -2.5328,13.5102 -7.5991,18.7454 -4.8975,5.0663 -10.8083,7.5991 -17.7322,7.5991 -6.9238,0 -12.9196,-2.5328 -17.9859,-7.5991 -4.8974,-5.2352 -7.3463,-11.4837 -7.3463,-18.7454 v -48.6371 c 0,-7.2617 2.4489,-13.4253 7.3463,-18.4916 5.0663,-5.2352 11.0621,-7.8529 17.9859,-7.8529 z" /></g></g><style
     type="text/css"
     id="style1941">
	.st0{fill:none;stroke:#000000;stroke-width:2;stroke-linecap:round;stroke-linejoin:round;stroke-miterlimit:10;}
</style></svg>
