<?xml version="1.0" encoding="UTF-8" standalone="no"?>
<!-- Created with Inkscape (http://www.inkscape.org/) -->

<svg
   width="848.7085"
   height="250.00002"
   viewBox="0 0 224.55412 66.145837"
   version="1.1"
   id="svg5"
   xml:space="preserve"
   xmlns:xlink="http://www.w3.org/1999/xlink"
   xmlns="http://www.w3.org/2000/svg"
   xmlns:svg="http://www.w3.org/2000/svg"><defs
     id="defs2"><linearGradient
       id="linearGradient58596"><stop
         style="stop-color:#14b84b;stop-opacity:1;"
         offset="0"
         id="stop58592" /><stop
         style="stop-color:#9df28c;stop-opacity:1;"
         offset="1"
         id="stop58594" /></linearGradient><style
       id="style6568">.cls-1{fill:none;}.cls-2{clip-path:url(#clip-path);}</style><style
       id="style6568-5">.cls-1{fill:none;}.cls-2{clip-path:url(#clip-path);}</style><style
       id="style6568-9">.cls-1{fill:none;}.cls-2{clip-path:url(#clip-path);}</style><linearGradient
       xlink:href="#linearGradient58596"
       id="linearGradient50885"
       gradientUnits="userSpaceOnUse"
       gradientTransform="matrix(0.64519054,0,0,0.64519057,88.659286,129.40316)"
       x1="210.91414"
       y1="762.6217"
       x2="305.78268"
       y2="707.8493" /></defs><g
     id="layer1"
     transform="translate(-220.17484,-558.31769)"><rect
       style="fill:url(#linearGradient50885);fill-opacity:1;stroke-width:4.14696"
       id="rect50871"
       width="66.145836"
       height="66.145836"
       x="220.17484"
       y="558.31769"
       rx="12.111141"
       ry="12.111142" /><path
       d="m 277.5825,581.80727 v 12.21382 c 0,0.77794 -0.039,1.55586 -0.11674,2.29493 -0.70017,8.24631 -5.56234,12.36944 -14.50884,12.36944 h -1.20581 c -0.77794,0 -1.51701,0.35004 -1.94484,0.97246 l -3.65644,4.9011 c -1.6337,2.17829 -4.2398,2.17829 -5.87356,0 l -3.65634,-4.9011 c -0.38897,-0.50567 -1.28356,-0.97246 -1.94486,-0.97246 h -1.20583 c -9.76329,0 -14.62551,-2.41163 -14.62551,-14.62557 v -12.21376 c 0,-8.94648 4.12309,-13.80861 12.36938,-14.50871 0.73905,-0.078 1.517,-0.11676 2.29495,-0.11676 h 19.56556 c 9.60771,-0.039 14.50882,4.8622 14.50882,14.58657 z"
       fill="#292d32"
       id="path50873"
       style="fill:#fefeff;fill-opacity:0.4;stroke-width:3.88975" /><g
       style="fill:#c2d3d6;fill-opacity:1"
       id="g50883"
       transform="matrix(0.03100418,0,0,0.03100418,239.52246,573.32934)"><g
         id="g50881"
         style="fill:#c2d3d6;fill-opacity:1">
	<g
   id="g50879"
   style="fill:#c2d3d6;fill-opacity:1"
   transform="translate(-15.400024,-34.743674)">
		
		<path
   d="m 900.40846,846.60929 h -35.71137 v -38.92021 c 0,-17.18286 -13.87049,-31.05336 -31.05336,-31.05336 H 792.6533 V 329.05333 H 674.02845 V 776.63572 H 521.76452 V 329.05333 H 411.21457 V 776.63572 H 258.94961 V 329.05333 H 140.32578 V 776.63572 H 99.335348 c -17.182858,0 -31.053357,13.8705 -31.053357,31.05336 v 38.92021 H 32.57063 c -17.182858,0 -31.0533566,13.8705 -31.0533566,31.05336 v 42.23256 c 0,17.18286 13.8704986,31.05336 31.0533566,31.05336 h 867.83783 c 17.18285,0 31.05335,-13.8705 31.05335,-31.05336 v -42.23256 c 0,-17.18286 -13.8705,-31.05336 -31.05335,-31.05336 z"
   id="path50875"
   style="fill:#ffffff;fill-opacity:0.85;stroke-width:1.03511" />
	<path
   d="m 11.338589,259.94053 h 36.359822 v 40.93202 c 0,18.07104 14.587474,32.65851 32.658524,32.65851 H 466.48954 852.62215 c 18.07104,0 32.65852,-14.58747 32.65852,-32.65851 v -40.93202 h 36.35983 c 18.07105,0 32.65852,-14.58747 32.65852,-32.65853 v -52.79796 c 0,-14.36974 -9.47206,-27.10657 -23.18864,-31.24332 L 480.64047,7.3813072 c -4.5711,-1.415203 -9.36101,-2.068374 -14.15093,-2.068374 -4.78883,0 -9.47098,0.653171 -14.15203,2.068374 L 1.8676174,143.24072 C -11.957825,147.37747 -21.319934,160.1143 -21.319934,174.48404 V 227.282 c 0,17.96219 14.5874741,32.65853 32.658523,32.65853 z"
   id="path50877"
   style="fill:#ffffff;fill-opacity:1;stroke-width:1.08862" /></g>
</g></g><g
       aria-label="Forum"
       transform="matrix(2.3018024,0,0,2.5897144,-118.88814,-1137.0847)"
       id="text57063"
       style="font-weight:900;font-size:19.1621px;font-family:Rubik;-inkscape-font-specification:'Rubik Heavy';letter-spacing:-0.538838px;fill:#141a1f;stroke-width:38.7921"><path
         d="m 183.73998,674.84766 q -0.21078,0 -0.36408,-0.1533 -0.1533,-0.1533 -0.1533,-0.36408 v -12.37872 q 0,-0.21078 0.1533,-0.36408 0.1533,-0.15329 0.36408,-0.15329 h 9.6577 q 0.21078,0 0.36408,0.15329 0.15329,0.1533 0.15329,0.36408 v 2.91264 q 0,0.21079 -0.15329,0.36408 -0.1533,0.1533 -0.36408,0.1533 h -5.48036 v 1.41799 h 5.09711 q 0.21079,0 0.36408,0.1533 0.1533,0.1533 0.1533,0.36408 v 2.89348 q 0,0.21078 -0.1533,0.36408 -0.15329,0.15329 -0.36408,0.15329 h -5.09711 v 3.60248 q 0,0.21078 -0.1533,0.36408 -0.1533,0.1533 -0.36408,0.1533 z"
         id="path68220" /><path
         d="m 200.00631,675.03928 q -1.76291,0 -2.97013,-0.47906 -1.20721,-0.47905 -1.85872,-1.43715 -0.63235,-0.95811 -0.72816,-2.35694 -0.0192,-0.44073 -0.0192,-0.90062 0,-0.47905 0.0192,-0.90062 0.0958,-1.41799 0.78565,-2.35694 0.68983,-0.9581 1.89705,-1.43715 1.20721,-0.47906 2.87431,-0.47906 1.6671,0 2.87432,0.47906 1.20721,0.47905 1.89704,1.43715 0.68984,0.93895 0.78565,2.35694 0.0383,0.42157 0.0383,0.90062 0,0.45989 -0.0383,0.90062 -0.0958,1.39883 -0.74732,2.35694 -0.63235,0.9581 -1.83956,1.43715 -1.20722,0.47906 -2.97013,0.47906 z m 0,-3.06594 q 0.5557,0 0.68984,-0.30659 0.13413,-0.32576 0.17245,-0.99643 0.0192,-0.28743 0.0192,-0.80481 0,-0.51738 -0.0192,-0.80481 -0.0383,-0.63235 -0.17245,-0.9581 -0.13414,-0.34492 -0.68984,-0.34492 -0.53654,0 -0.68984,0.34492 -0.13413,0.32575 -0.17245,0.9581 -0.0192,0.28743 -0.0192,0.80481 0,0.51738 0.0192,0.80481 0.0383,0.67067 0.17245,0.99643 0.1533,0.30659 0.68984,0.30659 z"
         id="path68222" /><path
         d="m 206.99818,674.84766 q -0.21078,0 -0.36408,-0.1533 -0.1533,-0.1533 -0.1533,-0.36408 v -8.92954 q 0,-0.21078 0.1533,-0.36408 0.1533,-0.1533 0.36408,-0.1533 h 3.35337 q 0.21078,0 0.36408,0.1533 0.15329,0.1533 0.15329,0.36408 v 0.67067 q 0.61319,-0.53653 1.36051,-0.86229 0.76649,-0.32576 1.62878,-0.32576 h 0.91978 q 0.21079,0 0.36408,0.1533 0.1533,0.1533 0.1533,0.36408 v 2.98929 q 0,0.21078 -0.1533,0.36408 -0.15329,0.1533 -0.36408,0.1533 h -2.47191 q -0.57486,0 -0.86229,0.28743 -0.28743,0.28743 -0.28743,0.86229 v 4.27315 q 0,0.21078 -0.1533,0.36408 -0.1533,0.1533 -0.36408,0.1533 z"
         style="letter-spacing:-0.269418px"
         id="path68224" /><path
         d="m 219.75898,675.03928 q -0.9581,0 -1.8204,-0.45989 -0.84313,-0.45989 -1.37967,-1.418 -0.51737,-0.9581 -0.51737,-2.47191 v -5.28874 q 0,-0.21078 0.15329,-0.36408 0.1533,-0.1533 0.36408,-0.1533 h 3.65996 q 0.21079,0 0.36408,0.1533 0.1533,0.1533 0.1533,0.36408 v 5.15461 q 0,1.05391 0.9581,1.05391 0.45989,0 0.709,-0.26827 0.24911,-0.26827 0.24911,-0.78564 v -5.15461 q 0,-0.21078 0.1533,-0.36408 0.15329,-0.1533 0.36408,-0.1533 h 3.6408 q 0.21078,0 0.36408,0.1533 0.15329,0.1533 0.15329,0.36408 v 8.92954 q 0,0.21078 -0.15329,0.36408 -0.1533,0.1533 -0.36408,0.1533 h -3.35337 q -0.21079,0 -0.36408,-0.1533 -0.1533,-0.1533 -0.1533,-0.36408 v -0.63235 q -0.47905,0.709 -1.32218,1.03475 -0.84314,0.3066 -1.85873,0.3066 z"
         id="path68226" /><path
         d="m 229.03114,674.84766 q -0.21079,0 -0.36408,-0.1533 -0.1533,-0.1533 -0.1533,-0.36408 v -8.92954 q 0,-0.21078 0.1533,-0.36408 0.15329,-0.1533 0.36408,-0.1533 h 3.16174 q 0.21079,0 0.36408,0.1533 0.1533,0.1533 0.1533,0.36408 v 0.63235 q 0.32576,-0.44073 1.01559,-0.86229 0.709,-0.44073 1.64794,-0.47906 2.26113,-0.0766 3.02761,1.5713 0.44073,-0.67068 1.24554,-1.11141 0.80481,-0.45989 1.68627,-0.45989 0.97726,0 1.76291,0.44073 0.80481,0.44073 1.28386,1.37967 0.47905,0.93895 0.47905,2.45275 v 5.36539 q 0,0.21078 -0.15329,0.36408 -0.1533,0.1533 -0.36408,0.1533 h -3.37253 q -0.21079,0 -0.36408,-0.1533 -0.1533,-0.1533 -0.1533,-0.36408 v -5.26958 q 0,-0.30659 -0.0958,-0.51737 -0.0958,-0.21079 -0.26827,-0.3066 -0.1533,-0.11497 -0.4024,-0.11497 -0.22995,0 -0.40241,0.11497 -0.17246,0.0958 -0.26827,0.3066 -0.0767,0.21078 -0.0767,0.51737 v 5.26958 q 0,0.21078 -0.15329,0.36408 -0.1533,0.1533 -0.36408,0.1533 H 235.048 q -0.21079,0 -0.36408,-0.1533 -0.1533,-0.1533 -0.1533,-0.36408 v -5.26958 q 0,-0.30659 -0.0958,-0.51737 -0.0958,-0.21079 -0.26827,-0.3066 -0.1533,-0.11497 -0.4024,-0.11497 -0.22995,0 -0.40241,0.11497 -0.17246,0.11497 -0.26827,0.32576 -0.0958,0.19162 -0.0958,0.49821 v 5.26958 q 0,0.21078 -0.15329,0.36408 -0.1533,0.1533 -0.36408,0.1533 z"
         id="path68228" /></g></g><style
     type="text/css"
     id="style1941">
	.st0{fill:none;stroke:#000000;stroke-width:2;stroke-linecap:round;stroke-linejoin:round;stroke-miterlimit:10;}
</style><style
     type="text/css"
     id="style1941-0">
	.st0{fill:none;stroke:#000000;stroke-width:2;stroke-linecap:round;stroke-linejoin:round;stroke-miterlimit:10;}
</style><style
     type="text/css"
     id="style1941-7">
	.st0{fill:none;stroke:#000000;stroke-width:2;stroke-linecap:round;stroke-linejoin:round;stroke-miterlimit:10;}
</style></svg>
