<?xml version="1.0" encoding="UTF-8" standalone="no"?>
<!-- Created with Inkscape (http://www.inkscape.org/) -->

<svg
   width="536.21997"
   height="133.16522"
   viewBox="0 0 141.87487 35.233298"
   version="1.1"
   id="svg5"
   xml:space="preserve"
   xmlns="http://www.w3.org/2000/svg"
   xmlns:svg="http://www.w3.org/2000/svg"><defs
     id="defs2"><style
       id="style6568">.cls-1{fill:none;}.cls-2{clip-path:url(#clip-path);}</style><style
       id="style6568-5">.cls-1{fill:none;}.cls-2{clip-path:url(#clip-path);}</style><style
       id="style6568-9">.cls-1{fill:none;}.cls-2{clip-path:url(#clip-path);}</style></defs><g
     id="layer1"
     transform="translate(-302.85408,-575.84095)"><g
       aria-label="Forum"
       transform="matrix(2.3018024,0,0,2.5897144,-118.88814,-1137.0847)"
       id="text57063"
       style="font-weight:900;font-size:19.1621px;font-family:Rubik;-inkscape-font-specification:'Rubik Heavy';letter-spacing:-0.538838px;fill:#141a1f;stroke-width:38.7921"><path
         d="m 183.73998,674.84766 q -0.21078,0 -0.36408,-0.1533 -0.1533,-0.1533 -0.1533,-0.36408 v -12.37872 q 0,-0.21078 0.1533,-0.36408 0.1533,-0.15329 0.36408,-0.15329 h 9.6577 q 0.21078,0 0.36408,0.15329 0.15329,0.1533 0.15329,0.36408 v 2.91264 q 0,0.21079 -0.15329,0.36408 -0.1533,0.1533 -0.36408,0.1533 h -5.48036 v 1.41799 h 5.09711 q 0.21079,0 0.36408,0.1533 0.1533,0.1533 0.1533,0.36408 v 2.89348 q 0,0.21078 -0.1533,0.36408 -0.15329,0.15329 -0.36408,0.15329 h -5.09711 v 3.60248 q 0,0.21078 -0.1533,0.36408 -0.1533,0.1533 -0.36408,0.1533 z"
         id="path68220" /><path
         d="m 200.00631,675.03928 q -1.76291,0 -2.97013,-0.47906 -1.20721,-0.47905 -1.85872,-1.43715 -0.63235,-0.95811 -0.72816,-2.35694 -0.0192,-0.44073 -0.0192,-0.90062 0,-0.47905 0.0192,-0.90062 0.0958,-1.41799 0.78565,-2.35694 0.68983,-0.9581 1.89705,-1.43715 1.20721,-0.47906 2.87431,-0.47906 1.6671,0 2.87432,0.47906 1.20721,0.47905 1.89704,1.43715 0.68984,0.93895 0.78565,2.35694 0.0383,0.42157 0.0383,0.90062 0,0.45989 -0.0383,0.90062 -0.0958,1.39883 -0.74732,2.35694 -0.63235,0.9581 -1.83956,1.43715 -1.20722,0.47906 -2.97013,0.47906 z m 0,-3.06594 q 0.5557,0 0.68984,-0.30659 0.13413,-0.32576 0.17245,-0.99643 0.0192,-0.28743 0.0192,-0.80481 0,-0.51738 -0.0192,-0.80481 -0.0383,-0.63235 -0.17245,-0.9581 -0.13414,-0.34492 -0.68984,-0.34492 -0.53654,0 -0.68984,0.34492 -0.13413,0.32575 -0.17245,0.9581 -0.0192,0.28743 -0.0192,0.80481 0,0.51738 0.0192,0.80481 0.0383,0.67067 0.17245,0.99643 0.1533,0.30659 0.68984,0.30659 z"
         id="path68222" /><path
         d="m 206.99818,674.84766 q -0.21078,0 -0.36408,-0.1533 -0.1533,-0.1533 -0.1533,-0.36408 v -8.92954 q 0,-0.21078 0.1533,-0.36408 0.1533,-0.1533 0.36408,-0.1533 h 3.35337 q 0.21078,0 0.36408,0.1533 0.15329,0.1533 0.15329,0.36408 v 0.67067 q 0.61319,-0.53653 1.36051,-0.86229 0.76649,-0.32576 1.62878,-0.32576 h 0.91978 q 0.21079,0 0.36408,0.1533 0.1533,0.1533 0.1533,0.36408 v 2.98929 q 0,0.21078 -0.1533,0.36408 -0.15329,0.1533 -0.36408,0.1533 h -2.47191 q -0.57486,0 -0.86229,0.28743 -0.28743,0.28743 -0.28743,0.86229 v 4.27315 q 0,0.21078 -0.1533,0.36408 -0.1533,0.1533 -0.36408,0.1533 z"
         style="letter-spacing:-0.269418px"
         id="path68224" /><path
         d="m 219.75898,675.03928 q -0.9581,0 -1.8204,-0.45989 -0.84313,-0.45989 -1.37967,-1.418 -0.51737,-0.9581 -0.51737,-2.47191 v -5.28874 q 0,-0.21078 0.15329,-0.36408 0.1533,-0.1533 0.36408,-0.1533 h 3.65996 q 0.21079,0 0.36408,0.1533 0.1533,0.1533 0.1533,0.36408 v 5.15461 q 0,1.05391 0.9581,1.05391 0.45989,0 0.709,-0.26827 0.24911,-0.26827 0.24911,-0.78564 v -5.15461 q 0,-0.21078 0.1533,-0.36408 0.15329,-0.1533 0.36408,-0.1533 h 3.6408 q 0.21078,0 0.36408,0.1533 0.15329,0.1533 0.15329,0.36408 v 8.92954 q 0,0.21078 -0.15329,0.36408 -0.1533,0.1533 -0.36408,0.1533 h -3.35337 q -0.21079,0 -0.36408,-0.1533 -0.1533,-0.1533 -0.1533,-0.36408 v -0.63235 q -0.47905,0.709 -1.32218,1.03475 -0.84314,0.3066 -1.85873,0.3066 z"
         id="path68226" /><path
         d="m 229.03114,674.84766 q -0.21079,0 -0.36408,-0.1533 -0.1533,-0.1533 -0.1533,-0.36408 v -8.92954 q 0,-0.21078 0.1533,-0.36408 0.15329,-0.1533 0.36408,-0.1533 h 3.16174 q 0.21079,0 0.36408,0.1533 0.1533,0.1533 0.1533,0.36408 v 0.63235 q 0.32576,-0.44073 1.01559,-0.86229 0.709,-0.44073 1.64794,-0.47906 2.26113,-0.0766 3.02761,1.5713 0.44073,-0.67068 1.24554,-1.11141 0.80481,-0.45989 1.68627,-0.45989 0.97726,0 1.76291,0.44073 0.80481,0.44073 1.28386,1.37967 0.47905,0.93895 0.47905,2.45275 v 5.36539 q 0,0.21078 -0.15329,0.36408 -0.1533,0.1533 -0.36408,0.1533 h -3.37253 q -0.21079,0 -0.36408,-0.1533 -0.1533,-0.1533 -0.1533,-0.36408 v -5.26958 q 0,-0.30659 -0.0958,-0.51737 -0.0958,-0.21079 -0.26827,-0.3066 -0.1533,-0.11497 -0.4024,-0.11497 -0.22995,0 -0.40241,0.11497 -0.17246,0.0958 -0.26827,0.3066 -0.0767,0.21078 -0.0767,0.51737 v 5.26958 q 0,0.21078 -0.15329,0.36408 -0.1533,0.1533 -0.36408,0.1533 H 235.048 q -0.21079,0 -0.36408,-0.1533 -0.1533,-0.1533 -0.1533,-0.36408 v -5.26958 q 0,-0.30659 -0.0958,-0.51737 -0.0958,-0.21079 -0.26827,-0.3066 -0.1533,-0.11497 -0.4024,-0.11497 -0.22995,0 -0.40241,0.11497 -0.17246,0.11497 -0.26827,0.32576 -0.0958,0.19162 -0.0958,0.49821 v 5.26958 q 0,0.21078 -0.15329,0.36408 -0.1533,0.1533 -0.36408,0.1533 z"
         id="path68228" /></g></g><style
     type="text/css"
     id="style1941">
	.st0{fill:none;stroke:#000000;stroke-width:2;stroke-linecap:round;stroke-linejoin:round;stroke-miterlimit:10;}
</style><style
     type="text/css"
     id="style1941-0">
	.st0{fill:none;stroke:#000000;stroke-width:2;stroke-linecap:round;stroke-linejoin:round;stroke-miterlimit:10;}
</style><style
     type="text/css"
     id="style1941-7">
	.st0{fill:none;stroke:#000000;stroke-width:2;stroke-linecap:round;stroke-linejoin:round;stroke-miterlimit:10;}
</style></svg>
