<?xml version="1.0" encoding="UTF-8" standalone="no"?>
<!-- Created with Inkscape (http://www.inkscape.org/) -->

<svg
   width="1068.8622"
   height="250.00005"
   viewBox="0 0 282.80312 66.145844"
   version="1.1"
   id="svg5"
   xml:space="preserve"
   xmlns:xlink="http://www.w3.org/1999/xlink"
   xmlns="http://www.w3.org/2000/svg"
   xmlns:svg="http://www.w3.org/2000/svg"><defs
     id="defs2"><linearGradient
       id="linearGradient19212"><stop
         style="stop-color:#090a11;stop-opacity:1;"
         offset="0"
         id="stop19208" /><stop
         style="stop-color:#1b2331;stop-opacity:1;"
         offset="1"
         id="stop19210" /></linearGradient><style
       id="style6568">.cls-1{fill:none;}.cls-2{clip-path:url(#clip-path);}</style><style
       id="style6568-5">.cls-1{fill:none;}.cls-2{clip-path:url(#clip-path);}</style><style
       id="style6568-9">.cls-1{fill:none;}.cls-2{clip-path:url(#clip-path);}</style><style
       id="style22571">.cls-1{fill:#84d0f7;}.cls-2{fill:#aa392d;}.cls-3{fill:#7c211a;}.cls-4{fill:#e59973;}.cls-5{fill:#2d2d2d;}.cls-6{opacity:0.2;}.cls-7{opacity:0.3;}</style><style
       id="style23309">
      .cls-1 {
        fill: none;
      }
    </style><style
       id="style6568-7">.cls-1{fill:none;}.cls-2{clip-path:url(#clip-path);}</style><style
       id="style6568-5-5">.cls-1{fill:none;}.cls-2{clip-path:url(#clip-path);}</style><style
       id="style6568-9-3">.cls-1{fill:none;}.cls-2{clip-path:url(#clip-path);}</style><style
       id="style22571-5">.cls-1{fill:#84d0f7;}.cls-2{fill:#aa392d;}.cls-3{fill:#7c211a;}.cls-4{fill:#e59973;}.cls-5{fill:#2d2d2d;}.cls-6{opacity:0.2;}.cls-7{opacity:0.3;}</style><style
       id="style23309-6">
      .cls-1 {
        fill: none;
      }
    </style><linearGradient
       xlink:href="#linearGradient19212"
       id="linearGradient21305"
       gradientUnits="userSpaceOnUse"
       x1="380.30814"
       y1="610.61591"
       x2="380.30814"
       y2="576.41998" /><linearGradient
       xlink:href="#linearGradient19212"
       id="linearGradient21307"
       gradientUnits="userSpaceOnUse"
       x1="380.30814"
       y1="610.61591"
       x2="380.30814"
       y2="576.41998" /><linearGradient
       xlink:href="#linearGradient19212"
       id="linearGradient21309"
       gradientUnits="userSpaceOnUse"
       x1="380.30814"
       y1="610.61591"
       x2="380.30814"
       y2="576.41998" /><linearGradient
       xlink:href="#linearGradient19212"
       id="linearGradient21311"
       gradientUnits="userSpaceOnUse"
       x1="380.30814"
       y1="610.61591"
       x2="380.30814"
       y2="576.41998" /><linearGradient
       xlink:href="#linearGradient19212"
       id="linearGradient21313"
       gradientUnits="userSpaceOnUse"
       x1="380.30814"
       y1="610.61591"
       x2="380.30814"
       y2="576.41998" /><linearGradient
       xlink:href="#linearGradient19212"
       id="linearGradient21315"
       gradientUnits="userSpaceOnUse"
       x1="380.30814"
       y1="610.61591"
       x2="380.30814"
       y2="576.41998" /><linearGradient
       xlink:href="#linearGradient19212"
       id="linearGradient21317"
       gradientUnits="userSpaceOnUse"
       x1="380.30814"
       y1="610.61591"
       x2="380.30814"
       y2="576.41998" /><linearGradient
       xlink:href="#linearGradient19212"
       id="linearGradient21319"
       gradientUnits="userSpaceOnUse"
       x1="380.30814"
       y1="610.61591"
       x2="380.30814"
       y2="576.41998" /><linearGradient
       xlink:href="#linearGradient19212"
       id="linearGradient21321"
       gradientUnits="userSpaceOnUse"
       x1="380.30814"
       y1="610.61591"
       x2="380.30814"
       y2="576.41998" /></defs><g
     id="layer1"
     transform="translate(-225.5115,-829.16358)"><g
       id="g21271"
       transform="matrix(1.3595973,-0.36430296,0.36430296,1.3595973,-308.97163,150.23115)"><path
         stroke="none"
         fill="#ffffff"
         d="m 238.19458,583.2279 q 0,-6.03659 4.26791,-10.34296 4.30637,-4.26793 10.34297,-4.26793 6.0366,0 10.30453,4.26793 4.30637,4.30637 4.30637,10.34296 v 16.91788 q 0,6.0366 -4.30637,10.30452 -4.26793,4.30636 -10.30453,4.30636 -6.0366,0 -10.34297,-4.30636 -4.26791,-4.26792 -4.26791,-10.30452 V 583.2279 m 6.99783,-7.61304 q -3.15287,3.19132 -3.15287,7.61304 v 16.91788 q 0,4.46016 3.15287,7.61303 3.15289,3.15288 7.61305,3.15288 4.42172,0 7.57459,-3.15288 l 0.0385,-0.0385 q 3.15288,-3.15287 3.15288,-7.5746 v -16.91784 q 0,-4.46015 -3.15288,-7.61304 -3.15288,-3.15287 -7.61303,-3.15287 -4.42173,0 -7.61306,3.15287"
         id="path21261"
         style="stroke-width:0.768995" /><path
         stroke="none"
         fill="#37d98c"
         d="m 245.19241,575.61486 q 3.19133,-3.15288 7.61305,-3.15288 4.46017,0 7.61304,3.15288 3.15288,3.15288 3.15288,7.61304 v 16.91788 q 0,4.42171 -3.15288,7.5746 l -0.0385,0.0385 q -3.15289,3.15287 -7.57459,3.15287 -4.46018,0 -7.61307,-3.15287 -3.15286,-3.15287 -3.15286,-7.61305 V 583.228 q 0,-4.42172 3.15286,-7.61305"
         id="path21263"
         style="stroke-width:0.768995" /><path
         fill="none"
         stroke="#2a2a2a"
         stroke-width="1.53798"
         stroke-linecap="round"
         stroke-linejoin="round"
         d="m 238.19458,583.2279 q -0.26917,-1.49953 0.23069,-2.84528 l 0.80745,-2.88372 q 0.30759,-1.49955 1.46108,-2.96063 1.19193,-1.42264 2.19163,-2.19164 1.03814,-0.76899 2.19164,-1.26883 l 2.65303,-0.99971 2.99908,-1.15348 q 1.53798,-0.69209 3.34512,-0.5383 1.80715,0.19226 3.19133,0.8459 1.42263,0.65364 2.76838,1.42263 l 2.46078,1.7687 1.96094,2.19162 1.88403,3.15289 q 1.03815,1.99938 0.96125,2.46077 -0.077,0.46141 0.11535,2.99908 -0.077,1.538 0.077,2.96063 0.15379,1.4611 0.0385,3.38358 l -0.11536,2.84527 -0.23069,2.49924 q -0.23069,1.57644 0.34605,2.57613 0.57674,1.03814 -0.11536,2.65303 -0.34604,0.88434 -0.57673,2.69147 -0.23069,1.80714 -0.57675,2.84529 -0.34606,1.03815 -1.61488,2.30697 l -1.9994,2.38389 q -0.76899,1.11504 -2.38388,1.92249 l -3.19132,1.65334 q -1.61491,0.80743 -2.99908,0.76899 l -2.65303,-0.23069 -2.80684,-0.65366 q -1.46109,-0.42295 -2.72992,-1.15347 -1.26886,-0.69211 -2.49924,-1.6918 l -2.53768,-2.07629 q -1.34574,-1.03814 -1.80715,-2.57613 -0.42292,-1.49955 -0.46138,-2.30697 l -0.38449,-3.88343 q -0.2307,-1.53799 -0.0385,-3.42203 l 0.11536,-2.99907 -0.46141,-3.07598 q -0.34605,-1.96093 -0.0385,-3.11442 0.34605,-1.11506 0.3845,-2.26854 l 0.0385,-2.03784"
         id="path21265" /><path
         stroke="none"
         fill="#ffffff"
         d="m 260.85283,587.96045 c 0.0107,0.40998 -0.12183,0.75949 -0.39664,1.04847 -0.29976,0.31527 -0.66744,0.47839 -1.10306,0.48937 -0.40999,0.0107 -0.78544,-0.13406 -1.12632,-0.43314 -0.28899,-0.27477 -0.43863,-0.61716 -0.44899,-1.02715 -0.011,-0.43563 0.12055,-0.81075 0.39471,-1.12534 0.32538,-0.31591 0.69307,-0.47905 1.10307,-0.48937 0.43562,-0.011 0.81106,0.13336 1.12631,0.43313 0.28963,0.30039 0.43994,0.6684 0.45093,1.10403 m -9.99374,0.25204 c 0.0107,0.41001 -0.13465,0.75983 -0.43507,1.04946 -0.27413,0.31462 -0.62901,0.47741 -1.06463,0.48841 -0.43562,0.011 -0.81107,-0.13337 -1.12631,-0.43315 -0.28899,-0.27477 -0.43865,-0.61715 -0.44899,-1.02716 -0.011,-0.43562 0.12054,-0.81075 0.3947,-1.12535 0.29975,-0.31524 0.66743,-0.47836 1.10305,-0.48936 0.43563,-0.011 0.79825,0.13375 1.0879,0.4341 0.31525,0.29976 0.47838,0.66744 0.48935,1.10306"
         id="path21267"
         style="stroke-width:0.768995" /><path
         d="m 257.74006,593.08521 c 0,0.8291 -0.29363,1.52002 -0.88092,2.07276 -0.62183,0.62183 -1.36458,0.93276 -2.22823,0.93276 -0.8291,-10e-6 -1.58909,-0.311 -2.28005,-0.93275 -0.55272,-0.55276 -0.82906,-1.24367 -0.82909,-2.07277 0,-0.89821 0.27638,-1.6582 0.82911,-2.28004 0.69093,-0.62184 1.45093,-0.93276 2.28003,-0.93276 0.86366,1e-5 1.60638,0.31096 2.22824,0.93276 0.58728,0.62183 0.88092,1.38185 0.88091,2.28004"
         style="fill:#ffffff;stroke:none;stroke-width:1.08223"
         id="path21269" /></g><g
       id="g21285"
       transform="matrix(-1.2520886,-0.72289372,-0.72289372,1.2520886,956.52646,187.29971)"><path
         stroke="none"
         fill="#ffffff"
         d="m 172.97632,616.50394 3.97316,4.0093 v 25.78955 h 4.29827 v 3.39527 h -5.59856 v 4.87617 l 2.05883,2.05883 v 2.49227 h -9.46341 v -2.49227 l 2.09495,-2.05883 v -4.87617 h -5.63467 v -3.39527 h 4.29826 v -25.78955 l 3.97317,-4.0093"
         id="path21273"
         style="stroke-width:0.722397" /><path
         fill="none"
         stroke="#b2b7bb"
         stroke-width="1.44479"
         stroke-linecap="round"
         stroke-linejoin="round"
         d="m 172.97632,616.50394 q 0.43344,1.66151 0.10834,3.35914 -0.28895,1.69763 -0.18057,2.81735 l 0.28895,2.49227 q 0.1806,1.40867 -0.0361,2.88958 l -0.1806,2.92571 -0.0722,2.63675 q -0.0361,1.15583 0.28895,2.85346 0.36121,1.69763 -0.14449,3.14243 -0.50567,1.44479 -0.28895,2.96182 l 0.1806,2.20331 0.0361,1.51703 1.98659,0.14448 1.98657,-0.14448 m -7.94633,0 2.05883,0.21672 1.91434,-0.21672 m -2.63676,3.39527 2.13108,-0.21672 3.17855,0.21672 m -5.30963,4.87617 2.20332,0.0722 3.10631,-0.0722"
         id="path21275" /><path
         fill="none"
         stroke="#2a2a2a"
         stroke-width="1.44479"
         stroke-linecap="round"
         stroke-linejoin="round"
         d="m 181.1394,646.30279 q 0.43344,1.30032 0.1806,2.27555 -0.25283,1.01136 -0.1806,1.11972 -1.51704,0.72239 -2.38392,0.28896 l -3.21466,-0.28896 q 0.0361,1.76987 -0.14447,1.98659 -0.14448,0.25284 0.14447,2.88958 l 1.48092,1.37256 0.57791,0.68627 v 2.49227 q -1.01135,0.65016 -2.70899,0.43344 l -3.10629,-0.5418 -2.1672,-0.46956 q -0.68628,-0.10835 -1.4809,0.57792 -0.50567,-2.45615 0,-2.49227 0.25283,-0.0361 0.5779,-0.79463 0.36121,-0.75852 1.51704,-1.2642 0.46956,-2.05883 0.25284,-2.81734 -0.18061,-0.75852 -0.25284,-2.05883 l -3.43138,-0.32508 q -1.26421,-0.39732 -2.20332,0.32508 0.36121,-0.32508 0.18061,-1.15584 -0.18061,-0.79463 -0.18061,-2.23943 l 2.1672,0.25284 q 0.7224,0.21672 2.13106,-0.25284 l 0.0361,-3.35914 0.14449,-1.87823 q 0.1806,-1.19195 -0.21672,-2.92571 -0.39733,-1.69763 -0.21672,-3.14242 l 0.32507,-2.88959 q 0.14448,-1.40867 -0.10835,-2.88958 -0.21672,-1.4448 0.0361,-2.92571 0.28896,-1.44479 0.18061,-2.92571 l -0.18061,-2.81734 2.5645,-2.70899 1.4087,-1.30031 q 0.93911,1.01135 1.62539,1.30031 0.72239,0.28896 2.34778,2.70899 l 0.39732,2.74511 q 0.28895,1.51703 0.25284,2.99794 l -0.25284,2.92571 -0.25283,2.88958 q -0.0361,1.40868 -0.36121,2.99795 -0.28895,1.58927 -0.0361,3.1063 l 0.54179,2.63675 q 0.25284,1.11972 0.10837,1.91435 l -0.39732,3.53974 2.20332,0.25284 2.09494,-0.25284"
         id="path21277" /><path
         stroke="none"
         fill="#ffffff"
         d="m 172.97632,616.50394 3.97316,4.0093 v 25.78955 h 4.29827 v 3.39527 h -5.59856 v 4.87617 l 2.05883,2.05883 v 2.49227 h -9.46341 v -2.49227 l 2.09495,-2.05883 v -4.87617 h -5.63467 v -3.39527 h 4.29826 v -25.78955 l 3.97317,-4.0093"
         id="path21279"
         style="stroke-width:0.722397" /><path
         fill="none"
         stroke="#b2b7bb"
         stroke-width="1.44479"
         stroke-linecap="round"
         stroke-linejoin="round"
         d="m 172.97632,616.50394 q 0.43344,1.66151 0.10834,3.35914 -0.28895,1.69763 -0.18057,2.81735 l 0.28895,2.49227 q 0.1806,1.40867 -0.0361,2.88958 l -0.1806,2.92571 -0.0722,2.63675 q -0.0361,1.15583 0.28895,2.85346 0.36121,1.69763 -0.14449,3.14243 -0.50567,1.44479 -0.28895,2.96182 l 0.1806,2.20331 0.0361,1.51703 1.98659,0.14448 1.98657,-0.14448 m -7.94633,0 2.05883,0.21672 1.91434,-0.21672 m -2.63676,3.39527 2.13108,-0.21672 3.17855,0.21672 m -5.30963,4.87617 2.20332,0.0722 3.10631,-0.0722"
         id="path21281" /><path
         fill="none"
         stroke="#2a2a2a"
         stroke-width="1.44479"
         stroke-linecap="round"
         stroke-linejoin="round"
         d="m 181.1394,646.30279 q 0.43344,1.30032 0.1806,2.27555 -0.25283,1.01136 -0.1806,1.11972 -1.51704,0.72239 -2.38392,0.28896 l -3.21466,-0.28896 q 0.0361,1.76987 -0.14447,1.98659 -0.14448,0.25284 0.14447,2.88958 l 1.48092,1.37256 0.57791,0.68627 v 2.49227 q -1.01135,0.65016 -2.70899,0.43344 l -3.10629,-0.5418 -2.1672,-0.46956 q -0.68628,-0.10835 -1.4809,0.57792 -0.50567,-2.45615 0,-2.49227 0.25283,-0.0361 0.5779,-0.79463 0.36121,-0.75852 1.51704,-1.2642 0.46956,-2.05883 0.25284,-2.81734 -0.18061,-0.75852 -0.25284,-2.05883 l -3.43138,-0.32508 q -1.26421,-0.39732 -2.20332,0.32508 0.36121,-0.32508 0.18061,-1.15584 -0.18061,-0.79463 -0.18061,-2.23943 l 2.1672,0.25284 q 0.7224,0.21672 2.13106,-0.25284 l 0.0361,-3.35914 0.14449,-1.87823 q 0.1806,-1.19195 -0.21672,-2.92571 -0.39733,-1.69763 -0.21672,-3.14242 l 0.32507,-2.88959 q 0.14448,-1.40867 -0.10835,-2.88958 -0.21672,-1.4448 0.0361,-2.92571 0.28896,-1.44479 0.18061,-2.92571 l -0.18061,-2.81734 2.5645,-2.70899 1.4087,-1.30031 q 0.93911,1.01135 1.62539,1.30031 0.72239,0.28896 2.34778,2.70899 l 0.39732,2.74511 q 0.28895,1.51703 0.25284,2.99794 l -0.25284,2.92571 -0.25283,2.88958 q -0.0361,1.40868 -0.36121,2.99795 -0.28895,1.58927 -0.0361,3.1063 l 0.54179,2.63675 q 0.25284,1.11972 0.10837,1.91435 l -0.39732,3.53974 2.20332,0.25284 2.09494,-0.25284"
         id="path21283" /></g><g
       aria-label="CReWLAnDS"
       id="g21303"
       style="font-size:46.4004px;letter-spacing:0px;fill:url(#linearGradient21321);stroke-width:3.8667"
       transform="matrix(1.0926571,0,0,1.0926571,-16.510916,217.82154)"><path
         d="m 312.62893,599.59065 c 0.0928,-0.696 -0.1392,-1.39201 -0.5568,-1.85601 -0.3712,-0.37121 -0.78881,-0.55681 -1.25281,-0.55681 v 0 c 0,0 -2.50562,0.0464 -3.52643,0.0464 -0.92801,0.0464 -1.67042,0.78881 -1.80962,1.80962 -0.1392,1.11361 -0.5568,3.06242 -1.62401,3.06242 v 0 c -1.43841,0.0928 -2.08802,-4.17603 -2.08802,-9.09448 0,-4.64004 0.3248,-9.79048 2.08802,-9.69768 1.94881,0.0928 1.76321,4.31524 1.80961,4.54724 0.23201,0.97441 0.92801,1.67041 1.80962,1.67041 l 3.61923,-0.0928 c 0.464,0 0.88161,-0.1856 1.20641,-0.6032 0.464,-0.46401 0.64961,-1.20641 0.55681,-1.90242 -0.32481,-2.64482 -1.94882,-10.85769 -8.86248,-11.08969 -5.66085,-0.1856 -9.97609,5.89285 -9.88329,17.12174 0.0464,14.89453 6.21766,17.30735 9.32648,17.35375 7.23847,0.1856 9.00168,-8.49127 9.18728,-10.71849 z"
         style="font-weight:bold;font-family:Cutney;-inkscape-font-specification:'Cutney Bold';fill:url(#linearGradient21305)"
         id="path21287" /><path
         d="m 320.19223,610.35554 c 1.06721,-0.0464 1.90241,-0.8352 1.90241,-1.85601 l -0.0464,-3.71203 c 0.51041,0.464 0.92801,0.8816 1.39201,1.25281 1.48482,1.25281 3.06243,2.45922 4.73285,3.48003 0.2784,0.1856 0.6496,0.2784 1.0208,0.2784 0.64961,0 1.29922,-0.3248 1.62402,-0.88161 1.57761,-2.55202 0.97441,-5.75365 -1.39201,-7.65606 -0.32481,-0.23201 -0.60321,-0.46401 -0.88161,-0.69601 -0.51041,-0.464 -1.02081,-0.97441 -1.57762,-1.53121 1.80962,-1.20641 3.29443,-2.73763 4.45444,-4.54724 2.13442,-3.34083 2.73763,-7.09926 1.67042,-10.30089 -1.62402,-4.91844 -7.28487,-8.35207 -13.73452,-8.35207 -0.55681,0 -1.11361,0.0464 -1.67041,0.0928 l -1.76322,0.1392 c -0.97441,0.0928 -1.71681,0.88161 -1.71681,1.85602 l -0.0464,26.54102 c -0.0464,1.57762 0.60321,3.01603 1.71682,4.12964 1.16001,1.11361 2.69122,1.71681 4.31524,1.71681 0,0 0,0 0,0.0464 z m 5.84645,-21.06578 c -0.1856,2.78403 -3.20163,4.03684 -3.94404,4.03684 -0.0464,-0.32481 -0.1392,-8.67688 -0.1392,-8.67688 0,-0.1856 4.40804,-0.5104 4.08324,4.64004 z"
         style="font-weight:bold;font-family:Cutney;-inkscape-font-specification:'Cutney Bold';fill:url(#linearGradient21307)"
         id="path21289" /><path
         d="m 352.20851,606.22591 c -0.6032,-2.32002 -1.76321,-2.27362 -3.01602,-2.32002 -2.92323,-0.1392 -10.9969,0.88161 -12.06411,1.06721 -1.11361,0.232 -1.85601,1.80961 -1.67041,2.92322 l 0.0464,0.0928 c 0.1392,1.02081 1.02081,2.27362 2.04162,2.27362 2.96962,-0.0464 11.7857,-0.7888 12.94571,-0.92801 1.20641,-0.1856 1.99521,-1.90241 1.71681,-3.10882 z m -9.32648,-2.83043 c 2.83043,-0.0928 4.77924,-1.11361 5.89285,-2.22722 1.90242,-1.94881 2.45922,-4.45443 2.69123,-6.12485 0,-0.0928 0,-0.1392 0,-0.232 0.0464,-0.74241 -0.55681,-1.34561 -1.34562,-1.34561 0,0 -2.59842,0.0464 -3.66563,0.0464 -0.2784,0 -0.5104,0.0928 -0.7424,0.232 -0.27841,0.1856 -0.46401,0.464 -0.55681,0.78881 -0.1392,0.8352 -0.0928,0.92801 -0.92801,0.92801 -0.232,0 -1.02081,0 -1.34561,0 -0.7888,-0.0464 -1.02081,-1.34562 -1.06721,-3.66564 4.31524,0 9.65129,-1.71681 10.06889,-6.68165 0.3712,-4.40804 -2.64482,-9.23368 -8.86248,-9.28008 -2.27362,0 -3.75843,0.7888 -5.28964,2.27362 -4.77924,4.54724 -4.50084,16.00813 -1.25281,21.39058 1.43841,2.41282 3.66563,3.99043 6.40325,3.89763 z m 0.74241,-21.06578 c 2.50562,-0.232 3.52643,1.71682 2.73762,3.43363 -0.464,0.97441 -2.13442,1.67042 -4.59364,1.67042 h -0.0464 c -0.0464,-2.36642 0.51041,-5.01125 1.90242,-5.10405 z"
         style="font-weight:bold;font-family:Cutney;-inkscape-font-specification:'Cutney Bold';fill:url(#linearGradient21309)"
         id="path21291" /><path
         d="m 383.52876,576.34405 -4.45443,-0.3712 c -0.92801,-0.0928 -1.76322,0.6496 -1.90242,1.62401 -1.02081,9.65129 -1.16001,16.14734 -2.27362,20.55538 0,0.0464 -0.0928,0.0464 -0.0928,0 -1.02081,-4.17604 -1.11361,-10.20809 -1.99522,-18.97776 -0.0464,-0.51041 -0.3712,-3.01603 -3.94403,-3.01603 -3.43363,-0.0464 -3.94404,2.50562 -3.99044,3.01603 -0.8816,8.76967 -1.06721,14.80172 -2.13441,18.97776 0,0.0464 -0.0464,0.0464 -0.0464,0 -1.11361,-4.40804 -1.16001,-10.90409 -2.13442,-20.55538 -0.1392,-0.97441 -0.97441,-1.67041 -1.90242,-1.57761 l -4.45444,0.2784 c -0.97441,0.1392 -1.67041,1.02081 -1.53121,2.04162 0.2784,2.92322 0.97441,8.86247 1.94882,14.66252 2.13441,12.85291 3.34082,17.44655 8.07367,17.44655 h 0.0928 c 3.01602,0 4.64004,-2.04161 5.98565,-7.05286 1.34561,5.05765 2.92322,7.05286 6.03205,7.05286 h 0.0928 c 4.59364,0 5.89285,-4.64004 8.12007,-17.44655 1.02081,-5.75364 1.71681,-11.6929 2.04162,-14.66252 0.0928,-1.02081 -0.55681,-1.90242 -1.53122,-1.99522 z"
         style="font-weight:bold;font-family:Cutney;-inkscape-font-specification:'Cutney Bold';fill:url(#linearGradient21311)"
         id="path21293" /><path
         d="m 402.18173,602.32827 h -7.88807 v -24.82421 c 0,-0.92801 -0.7888,-1.67041 -1.76321,-1.67041 -3.24803,0 -6.44966,2.59842 -6.44966,5.80005 v 22.08659 c 0,3.61923 3.01603,6.58885 6.72806,6.58885 0,0 13.54892,0 13.54892,0 0.97441,0 1.76321,-0.7424 1.76321,-1.67041 0,-3.20163 -2.69122,-6.31046 -5.93925,-6.31046 z m 14.84813,1.76322 -6.35685,-26.63383 c -0.18561,-0.92801 -1.06721,-1.53121 -2.04162,-1.57761 -6.17126,-0.1392 -6.35686,0.0464 -8.12007,6.31045 -1.25281,4.77924 -2.50562,9.51208 -3.75843,14.29132 -0.60321,2.32002 1.16001,4.64004 3.61923,4.64004 l 6.72805,0.0464 c 0.32481,0 0.55681,0.18561 0.60321,0.46401 l 2.59842,7.37766 c 0.1856,0.78881 0.88161,1.29921 1.71682,1.29921 1.57761,0 3.06242,-0.696 4.03683,-1.90241 0.97441,-1.20641 1.34561,-2.78403 0.97441,-4.31524 z m -11.9713,-7.60967 1.11361,-4.54723 1.06721,4.54723 z"
         style="font-weight:bold;font-family:Cutney;-inkscape-font-specification:'Cutney Bold';fill:url(#linearGradient21313)"
         id="path21295" /><path
         d="m 436.05402,584.64972 c -0.232,-2.32002 -1.34561,-7.84166 -5.75365,-8.53767 -0.2784,-0.0464 -0.5568,-0.0928 -0.8816,-0.0928 -1.29921,0 -2.69123,0.464 -3.52643,1.62401 -0.18561,0.232 -0.32481,0.51041 -0.41761,0.83521 0,-0.5104 0,-1.11361 0,-1.85602 0,-0.3248 -0.2784,-0.5568 -0.5568,-0.5568 h -5.80005 c -0.41761,0 -0.78881,0.3712 -0.78881,0.78881 0,10.85769 0,21.76178 0,32.61948 0,0.464 0.3712,0.8352 0.83521,0.8352 h 5.75365 c 0.6032,0 1.06721,-0.464 1.06721,-1.06721 0.0928,-2.87682 -0.88161,-22.73619 2.55202,-22.59699 0.464,0.0464 0.1392,16.42574 0.1856,22.8754 0,0.4176 0.3712,0.7888 0.78881,0.7888 h 6.07845 c 0.464,0 0.78881,-0.3712 0.78881,-0.7888 0,-6.63526 0.0464,-20.88018 -0.32481,-24.87062 z"
         style="font-weight:bold;font-family:Cutney;-inkscape-font-specification:'Cutney Bold';fill:url(#linearGradient21315)"
         id="path21297" /><path
         d="m 445.00932,610.35554 c 0.1856,0 0.3712,0 0.60321,-0.0464 4.68644,-0.3712 14.89452,-4.68644 15.12653,-16.70414 0.1856,-11.6465 -4.82565,-17.07535 -15.26574,-17.67855 -0.9744,-0.0464 -3.94403,-0.0928 -4.08323,-0.0928 -1.71682,0 -3.06243,1.39201 -3.06243,3.10882 l 0.0464,25.38102 c 0,3.61923 3.01603,6.03205 6.63526,6.03205 0,0 0,0 0,0 z m 8.02727,-17.26094 c 0.0928,6.40325 -7.00646,8.58407 -7.00646,8.35207 v -16.19374 c 0.0464,-2.13442 6.91366,-0.83521 7.00646,7.84167 z"
         style="font-weight:bold;font-family:Cutney;-inkscape-font-specification:'Cutney Bold';fill:url(#linearGradient21317)"
         id="path21299" /><path
         d="m 469.83355,610.26274 c 0.696,0 1.39201,-0.0928 2.13441,-0.2784 4.54724,-1.11361 8.25927,-5.84645 8.35208,-10.62569 0.0464,-5.28965 -4.26884,-8.02727 -7.74887,-10.25449 -1.76322,-1.16001 -2.87683,-2.64482 -2.87683,-3.34083 0.13921,-2.13442 2.87683,-2.04162 3.34083,-0.8352 0.32481,0.7888 1.02081,1.29921 1.85602,1.29921 0.1856,0 0.3712,-0.0464 0.5104,-0.0928 1.76322,-0.37121 3.10883,-1.62402 3.66563,-3.29443 0.51041,-1.53122 0.13921,-3.15523 -0.928,-4.31524 -1.29921,-1.43841 -2.87683,-2.32002 -4.64004,-2.64482 -0.51041,-0.0928 -0.97441,-0.1392 -1.48482,-0.1392 -2.13441,0 -4.31523,0.7888 -6.26405,2.32002 -2.69122,2.04161 -4.45444,5.05764 -4.64004,7.84166 -0.3248,4.77924 3.75843,7.37767 7.00646,9.46568 2.32002,1.48482 3.38723,2.87683 3.38723,4.31524 0,3.06243 -2.92323,3.06243 -3.80483,1.34561 -0.27841,-0.6032 -1.02081,-0.8816 -1.71682,-0.8816 -0.2784,0 -0.5568,0.0464 -0.8352,0.1856 -1.67042,0.696 -2.73763,2.13442 -2.96963,3.85123 -0.1856,1.53121 0.4176,3.01603 1.62401,3.94403 1.80962,1.39202 3.89764,2.13442 6.03206,2.13442 z"
         style="font-weight:bold;font-family:Cutney;-inkscape-font-specification:'Cutney Bold';fill:url(#linearGradient21319)"
         id="path21301" /></g></g><style
     type="text/css"
     id="style1941">
	.st0{fill:none;stroke:#000000;stroke-width:2;stroke-linecap:round;stroke-linejoin:round;stroke-miterlimit:10;}
</style><style
     type="text/css"
     id="style1941-0">
	.st0{fill:none;stroke:#000000;stroke-width:2;stroke-linecap:round;stroke-linejoin:round;stroke-miterlimit:10;}
</style><style
     type="text/css"
     id="style1941-7">
	.st0{fill:none;stroke:#000000;stroke-width:2;stroke-linecap:round;stroke-linejoin:round;stroke-miterlimit:10;}
</style><style
     type="text/css"
     id="style22485">
	.st0{fill:none;stroke:#6C3DB7;stroke-width:4;stroke-linecap:round;stroke-linejoin:round;stroke-miterlimit:10;}
	.st1{fill:none;stroke:#1F992A;stroke-width:4;stroke-linecap:round;stroke-linejoin:round;stroke-miterlimit:10;}
	.st2{fill:none;stroke:#6A83BA;stroke-width:4;stroke-linecap:round;stroke-linejoin:round;stroke-miterlimit:10;}
	.st3{fill:#8A8AFF;stroke:#8A8AFF;stroke-width:2;stroke-linecap:round;stroke-linejoin:round;stroke-miterlimit:10;}
	.st4{fill:#6C3DB7;stroke:#6C3DB7;stroke-width:2;stroke-linecap:round;stroke-linejoin:round;stroke-miterlimit:10;}
	.st5{fill:#A576FF;stroke:#A576FF;stroke-width:2;stroke-linecap:round;stroke-linejoin:round;stroke-miterlimit:10;}
	.st6{fill:#F2BB41;stroke:#F2BB41;stroke-width:2;stroke-linecap:round;stroke-linejoin:round;stroke-miterlimit:10;}
	.st7{fill:#E08838;stroke:#E08838;stroke-width:2;stroke-linecap:round;stroke-linejoin:round;stroke-miterlimit:10;}
	.st8{fill:#1F992A;stroke:#1F992A;stroke-width:2;stroke-linecap:round;stroke-linejoin:round;stroke-miterlimit:10;}
	.st9{fill:#5EC11E;stroke:#5EC11E;stroke-width:2;stroke-linecap:round;stroke-linejoin:round;stroke-miterlimit:10;}
	.st10{fill:#E3FAFF;stroke:#E3FAFF;stroke-width:2;stroke-linecap:round;stroke-linejoin:round;stroke-miterlimit:10;}
	.st11{fill:#FF5093;stroke:#FF5093;stroke-width:2;stroke-linecap:round;stroke-linejoin:round;stroke-miterlimit:10;}
	.st12{fill:#B7257F;stroke:#B7257F;stroke-width:2;stroke-linecap:round;stroke-linejoin:round;stroke-miterlimit:10;}
	.st13{fill:#5189E5;stroke:#5189E5;stroke-width:2;stroke-linecap:round;stroke-linejoin:round;stroke-miterlimit:10;}
	.st14{fill:#6EBAFF;stroke:#6EBAFF;stroke-width:2;stroke-linecap:round;stroke-linejoin:round;stroke-miterlimit:10;}
	.st15{fill:#EDD977;stroke:#EDD977;stroke-width:2;stroke-linecap:round;stroke-linejoin:round;stroke-miterlimit:10;}
	.st16{fill:#8C43FF;stroke:#8C43FF;stroke-width:2;stroke-linecap:round;stroke-linejoin:round;stroke-miterlimit:10;}
	.st17{fill:#5252BA;stroke:#5252BA;stroke-width:2;stroke-linecap:round;stroke-linejoin:round;stroke-miterlimit:10;}
	.st18{fill:none;stroke:#E3FAFF;stroke-width:4;stroke-linecap:round;stroke-linejoin:round;stroke-miterlimit:10;}
	.st19{fill:#354C75;stroke:#354C75;stroke-width:2;stroke-linecap:round;stroke-linejoin:round;stroke-miterlimit:10;}
</style><style
     type="text/css"
     id="style23106">
	.st0{fill:none;stroke:#000000;stroke-width:2;stroke-linecap:round;stroke-linejoin:round;stroke-miterlimit:10;}
	.st1{fill:none;stroke:#000000;stroke-width:2;stroke-linejoin:round;stroke-miterlimit:10;}
</style><style
     type="text/css"
     id="style1941-1">
	.st0{fill:none;stroke:#000000;stroke-width:2;stroke-linecap:round;stroke-linejoin:round;stroke-miterlimit:10;}
</style><style
     type="text/css"
     id="style1941-0-8">
	.st0{fill:none;stroke:#000000;stroke-width:2;stroke-linecap:round;stroke-linejoin:round;stroke-miterlimit:10;}
</style><style
     type="text/css"
     id="style1941-7-7">
	.st0{fill:none;stroke:#000000;stroke-width:2;stroke-linecap:round;stroke-linejoin:round;stroke-miterlimit:10;}
</style><style
     type="text/css"
     id="style22485-9">
	.st0{fill:none;stroke:#6C3DB7;stroke-width:4;stroke-linecap:round;stroke-linejoin:round;stroke-miterlimit:10;}
	.st1{fill:none;stroke:#1F992A;stroke-width:4;stroke-linecap:round;stroke-linejoin:round;stroke-miterlimit:10;}
	.st2{fill:none;stroke:#6A83BA;stroke-width:4;stroke-linecap:round;stroke-linejoin:round;stroke-miterlimit:10;}
	.st3{fill:#8A8AFF;stroke:#8A8AFF;stroke-width:2;stroke-linecap:round;stroke-linejoin:round;stroke-miterlimit:10;}
	.st4{fill:#6C3DB7;stroke:#6C3DB7;stroke-width:2;stroke-linecap:round;stroke-linejoin:round;stroke-miterlimit:10;}
	.st5{fill:#A576FF;stroke:#A576FF;stroke-width:2;stroke-linecap:round;stroke-linejoin:round;stroke-miterlimit:10;}
	.st6{fill:#F2BB41;stroke:#F2BB41;stroke-width:2;stroke-linecap:round;stroke-linejoin:round;stroke-miterlimit:10;}
	.st7{fill:#E08838;stroke:#E08838;stroke-width:2;stroke-linecap:round;stroke-linejoin:round;stroke-miterlimit:10;}
	.st8{fill:#1F992A;stroke:#1F992A;stroke-width:2;stroke-linecap:round;stroke-linejoin:round;stroke-miterlimit:10;}
	.st9{fill:#5EC11E;stroke:#5EC11E;stroke-width:2;stroke-linecap:round;stroke-linejoin:round;stroke-miterlimit:10;}
	.st10{fill:#E3FAFF;stroke:#E3FAFF;stroke-width:2;stroke-linecap:round;stroke-linejoin:round;stroke-miterlimit:10;}
	.st11{fill:#FF5093;stroke:#FF5093;stroke-width:2;stroke-linecap:round;stroke-linejoin:round;stroke-miterlimit:10;}
	.st12{fill:#B7257F;stroke:#B7257F;stroke-width:2;stroke-linecap:round;stroke-linejoin:round;stroke-miterlimit:10;}
	.st13{fill:#5189E5;stroke:#5189E5;stroke-width:2;stroke-linecap:round;stroke-linejoin:round;stroke-miterlimit:10;}
	.st14{fill:#6EBAFF;stroke:#6EBAFF;stroke-width:2;stroke-linecap:round;stroke-linejoin:round;stroke-miterlimit:10;}
	.st15{fill:#EDD977;stroke:#EDD977;stroke-width:2;stroke-linecap:round;stroke-linejoin:round;stroke-miterlimit:10;}
	.st16{fill:#8C43FF;stroke:#8C43FF;stroke-width:2;stroke-linecap:round;stroke-linejoin:round;stroke-miterlimit:10;}
	.st17{fill:#5252BA;stroke:#5252BA;stroke-width:2;stroke-linecap:round;stroke-linejoin:round;stroke-miterlimit:10;}
	.st18{fill:none;stroke:#E3FAFF;stroke-width:4;stroke-linecap:round;stroke-linejoin:round;stroke-miterlimit:10;}
	.st19{fill:#354C75;stroke:#354C75;stroke-width:2;stroke-linecap:round;stroke-linejoin:round;stroke-miterlimit:10;}
</style><style
     type="text/css"
     id="style23106-2">
	.st0{fill:none;stroke:#000000;stroke-width:2;stroke-linecap:round;stroke-linejoin:round;stroke-miterlimit:10;}
	.st1{fill:none;stroke:#000000;stroke-width:2;stroke-linejoin:round;stroke-miterlimit:10;}
</style><style
     type="text/css"
     id="style4736">
<![CDATA[
	.st0{fill:#D1D1D1;}
	.st1{fill:#454545;}
]]>
</style></svg>
