<svg id="Capa_1" enable-background="new 0 0 512 512" height="512" viewBox="0 0 512 512" width="512" xmlns="http://www.w3.org/2000/svg"><g><path d="m497 0c-177.143 0-326.918 123.164-366.539 286.96-16.688 11.085-28.806 27.176-35.151 45.288-38.043-3.548-69.956 29.7-64.772 67.674-18.51 10.445-30.538 30.211-30.538 52.078 0 33.084 26.916 60 60 60h195c41.355 0 75-33.645 75-75 0-21.997 0-48.644 0-62 0-90.981 74.916-165 167-165 8.284 0 15-6.716 15-15v-180c0-8.284-6.716-15-15-15zm-247.222 305.226c-6.919-8.488-15.35-15.696-24.882-21.206 37.249-110.079 140.279-187.469 257.104-193.611v30.038c-112.743 6.47-203.613 85.118-232.222 184.779zm232.222-274.897v30.042c-129.348 6.161-243.67 91.505-285.244 213.2-9.996-1.89-20.464-2.158-31.398-.347 42.818-137.624 171-236.507 316.642-242.895zm-227 451.671h-195c-16.542 0-30-13.458-30-30 0-13.412 9.133-25.25 22.21-28.788 8.662-2.344 13.348-11.736 10.002-20.069-9.708-24.173 13.977-48.555 38.567-39.03 8.885 3.442 18.717-2.178 20.229-11.615 4.686-29.261 29.496-50.498 58.992-50.498 37.672 0 66.464 34.643 58.771 72.139-1.94 9.451 5.44 18.265 15.057 18.012 26.435-.637 46.172 20.49 46.172 44.849 0 24.813-20.187 45-45 45zm45-107v2.056c-8.65-6.51-18.741-11.201-29.709-13.482 5.773-113.841 97.313-205.635 211.709-213.07v30.06c-100.444 7.573-182 91.552-182 194.436z"/></g></svg>